<svg width="40" height="20" viewBox="0 0 40 20" fill="none" xmlns="http://www.w3.org/2000/svg">
<g clip-path="url(#clip0_803_341)">
<rect width="40" height="20" fill="white"/>
<rect width="13" height="20" fill="#109A48"/>
<rect x="27" width="13" height="20" fill="#C91010"/>
<path d="M19.5356 12.7315C18.5356 12.5715 18.1356 12.6415 17.9156 12.1815C17.6956 11.7215 17.5856 11.5115 17.4456 11.6215C17.3056 11.7315 17.5856 11.9615 17.4456 12.0415C17.3056 12.1215 16.2256 11.2215 16.0656 11.4315C15.9056 11.6415 16.9056 12.1015 16.8556 12.2915C16.8056 12.4815 16.3656 12.4615 16.4756 12.6315C16.5856 12.8015 17.7656 12.6915 17.7956 12.9815C17.8256 13.2715 17.1256 13.2015 17.3256 13.4315C17.5256 13.6615 18.1156 13.4315 18.5956 13.7715C18.8143 13.9331 19.0637 14.0483 19.3285 14.1102C19.5933 14.1721 19.8679 14.1794 20.1356 14.1315C20.6156 14.0015 20.7556 13.6415 21.1356 13.6815C21.5156 13.7215 21.6056 13.5515 21.4356 13.4115C21.2656 13.2715 21.2856 13.2215 21.5956 13.1515C21.9056 13.0815 22.1056 12.9215 21.7956 12.8915C21.0396 12.8853 20.2848 12.8319 19.5356 12.7315Z" fill="#00DFEB"/>
<path d="M19.7455 7.02149C19.9682 6.97776 20.1651 6.84872 20.294 6.66189C20.4229 6.47506 20.4737 6.24525 20.4355 6.02149C20.4355 5.16149 19.5855 4.88149 19.5555 4.33149C19.5255 3.78149 20.7055 3.88149 21.8255 4.89149C22.4673 5.4167 22.9874 6.07497 23.35 6.82082C23.7126 7.56668 23.9089 8.38235 23.9255 9.21149C23.8555 10.9815 23.5255 11.2115 23.5255 11.2115C23.3619 10.4967 22.9511 9.86276 22.3655 9.42149C21.7263 8.96342 21.1275 8.45156 20.5755 7.89149L19.7455 7.02149Z" fill="#915E3A"/>
<path d="M20.9056 9.1015C20.9056 9.1015 21.9056 10.1015 22.3156 10.4615C22.7256 10.8215 23.0256 10.9615 23.0056 11.0515C22.8166 11.19 22.5998 11.2859 22.3702 11.3325C22.1406 11.3791 21.9036 11.3754 21.6756 11.3215C21.0656 11.1515 20.2156 9.6015 20.2156 9.6015L20.9056 9.1015Z" fill="#BF8256"/>
<path d="M20.2656 14.0215L18.8256 13.8615C18.7056 13.838 18.5977 13.773 18.5209 13.6779C18.4441 13.5828 18.4033 13.4637 18.4056 13.3415V12.9115C18.401 12.8552 18.4088 12.7986 18.4283 12.7456C18.4478 12.6925 18.4786 12.6444 18.5185 12.6045C18.5585 12.5645 18.6066 12.5337 18.6596 12.5142C18.7126 12.4947 18.7692 12.487 18.8256 12.4915L20.2656 12.6615C20.3874 12.6829 20.4975 12.747 20.5763 12.8423C20.6552 12.9376 20.6974 13.0578 20.6956 13.1815V13.6015C20.7003 13.6587 20.6923 13.7163 20.6723 13.7701C20.6522 13.8239 20.6205 13.8726 20.5794 13.9127C20.5383 13.9528 20.4889 13.9834 20.4346 14.0022C20.3804 14.021 20.3226 14.0276 20.2656 14.0215Z" fill="#FFAA54"/>
<path d="M19.6855 12.9915V12.1015C19.5335 12.1893 19.361 12.2355 19.1855 12.2355C19.0099 12.2355 18.8375 12.1893 18.6855 12.1015C18.0355 11.8515 18.0155 11.6315 18.0155 11.6315C17.8732 11.6763 17.723 11.6905 17.5748 11.6733C17.4266 11.6561 17.2837 11.6078 17.1555 11.5315C16.5855 11.2815 16.6855 10.9515 16.6855 10.9515C16.5131 10.9784 16.3366 10.9467 16.1843 10.8615C16.0321 10.7763 15.9127 10.6425 15.8455 10.4815C15.5955 9.9115 15.6555 9.4815 16.0455 9.6015C16.4355 9.7215 16.8455 10.4615 16.8455 10.4615C16.9621 10.4197 17.0867 10.4051 17.2098 10.419C17.3329 10.4329 17.4511 10.4748 17.5555 10.5415C17.7806 10.6977 17.9712 10.8986 18.1155 11.1315C18.1155 11.1315 18.1155 10.8515 18.7755 10.9615C19.2313 11.0778 19.6379 11.3372 19.9355 11.7015C19.9355 11.7015 20.0455 11.3215 20.7855 11.4715C21.5255 11.6215 21.3755 12.0315 21.3755 12.0315C21.3755 12.0315 21.6355 11.7015 21.9055 11.7315C22.1755 11.7615 22.6755 12.0115 22.5755 12.4015C22.4755 12.7915 21.5055 12.6215 21.5055 12.6215C21.259 12.4727 20.9728 12.4029 20.6855 12.4215C20.1755 12.4215 20.2055 13.1115 20.2055 13.1115L19.6855 12.9915Z" fill="#00AD85"/>
<path d="M16.3656 5.20152C16.3882 5.13231 16.4243 5.06828 16.4718 5.01313C16.5193 4.95799 16.5773 4.91283 16.6424 4.88027C16.7076 4.84771 16.7785 4.82841 16.8511 4.82347C16.9238 4.81853 16.9967 4.82807 17.0656 4.85152C17.3056 4.94152 17.2356 5.10152 17.1656 5.37152C17.1286 5.45951 17.0727 5.53828 17.0018 5.60223C16.931 5.66617 16.8469 5.71373 16.7556 5.74152C16.7556 5.74152 16.2456 5.81152 16.3656 5.20152Z" fill="#6DD627"/>
<path d="M17.1755 10.1015C16.9992 10.0859 16.8301 10.0238 16.6855 9.92148C16.3756 9.66998 16.1453 9.33384 16.0228 8.95392C15.9003 8.574 15.8909 8.16668 15.9955 7.78148C16.0455 7.42148 15.5855 7.23148 15.5855 7.22148C15.523 7.19876 15.4715 7.1529 15.4418 7.09337C15.412 7.03384 15.4062 6.96516 15.4255 6.90148C15.4318 6.87204 15.4446 6.84438 15.4629 6.82057C15.4813 6.79676 15.5049 6.7774 15.5318 6.76395C15.5587 6.75049 15.5883 6.74328 15.6184 6.74285C15.6485 6.74242 15.6783 6.74879 15.7055 6.76148C15.9357 6.84872 16.1318 7.00752 16.2651 7.21453C16.3983 7.42154 16.4615 7.66583 16.4455 7.91148C16.3676 8.19229 16.3684 8.48912 16.4478 8.76953C16.5271 9.04994 16.682 9.30314 16.8955 9.50148C17.0221 9.58348 17.1723 9.6211 17.3225 9.60843C17.4728 9.59576 17.6145 9.53351 17.7255 9.43148C17.7918 9.37507 17.8403 9.30064 17.8652 9.21722C17.89 9.1338 17.8902 9.04497 17.8655 8.96148C17.7955 8.78148 17.6355 8.71148 17.3655 8.62148C17.159 8.58754 16.9719 8.47944 16.8394 8.31744C16.7068 8.15544 16.6379 7.95065 16.6455 7.74148C16.6506 7.55901 16.7092 7.38207 16.8142 7.2327C16.9191 7.08333 17.0656 6.96814 17.2355 6.90148C17.4455 6.77148 17.5055 6.73148 17.4955 6.62148C17.4998 6.58828 17.4998 6.55467 17.4955 6.52148C17.4092 6.51016 17.3218 6.51016 17.2355 6.52148C17.0461 6.53668 16.8555 6.51286 16.6755 6.45148C16.5935 6.42037 16.519 6.37219 16.4569 6.31013C16.3948 6.24807 16.3467 6.17354 16.3155 6.09148C16.2494 5.83803 16.2853 5.56873 16.4155 5.34148C16.4306 5.31567 16.451 5.29338 16.4754 5.2761C16.4998 5.25881 16.5276 5.24693 16.557 5.24125C16.5863 5.23557 16.6165 5.23622 16.6456 5.24316C16.6747 5.2501 16.7019 5.26316 16.7255 5.28148C16.7779 5.32102 16.8154 5.37717 16.8317 5.44074C16.8481 5.50432 16.8424 5.57156 16.8155 5.63148C16.7583 5.72782 16.7338 5.84005 16.7455 5.95148C16.882 6.00613 17.0288 6.03003 17.1755 6.02148C17.2827 6.00157 17.393 6.00558 17.4984 6.03324C17.6039 6.0609 17.7019 6.11152 17.7855 6.18148C17.9004 6.30322 17.9648 6.46408 17.9655 6.63148C17.9773 6.78772 17.9378 6.94354 17.853 7.07529C17.7681 7.20703 17.6427 7.30751 17.4955 7.36148C17.2755 7.49148 17.1355 7.58148 17.1155 7.83148C17.0955 8.08148 17.1155 8.03148 17.4855 8.15148C17.6644 8.19299 17.8313 8.27498 17.9734 8.39114C18.1156 8.50729 18.2292 8.65451 18.3055 8.82148C18.3685 8.99407 18.3783 9.18155 18.3337 9.35978C18.2892 9.538 18.1923 9.6988 18.0555 9.82148C17.9383 9.92972 17.7987 10.0109 17.6467 10.0593C17.4946 10.1077 17.3338 10.1221 17.1755 10.1015Z" fill="#6DD627"/>
<path d="M19.4355 14.6015C18.9666 14.5669 18.5197 14.3889 18.1555 14.0915C17.7855 13.6515 17.0355 14.0315 17.0355 14.0315C17.0355 14.0315 17.0355 14.6815 18.0355 14.8715C19.0355 15.0615 19.4355 14.6015 19.4355 14.6015Z" fill="#46B000"/>
<path d="M17.3456 13.9715C16.942 13.6752 16.6272 13.274 16.4356 12.8115C16.3156 12.2515 15.4356 12.1015 15.4356 12.1015C15.4356 12.1015 15.1556 12.6415 15.9656 13.3815C16.7756 14.1215 17.3456 13.9715 17.3456 13.9715Z" fill="#46B000"/>
<path d="M15.8655 12.7015C15.5756 12.2914 15.3996 11.8118 15.3555 11.3115C15.4255 10.7615 14.6355 10.3115 14.6355 10.3115C14.6355 10.3115 14.1955 10.6815 14.7355 11.6615C15.2755 12.6415 15.8655 12.7015 15.8655 12.7015Z" fill="#46B000"/>
<path d="M14.7455 10.8815C14.6074 10.4148 14.6074 9.91817 14.7455 9.45151C15.0155 9.00151 14.4355 8.23151 14.4355 8.23151C14.4355 8.23151 13.8755 8.35151 14.0255 9.44151C14.0392 9.71832 14.1103 9.98926 14.2342 10.2372C14.3582 10.485 14.5323 10.7045 14.7455 10.8815Z" fill="#46B000"/>
<path d="M19.7456 14.6015C20.0393 14.5533 20.3405 14.5879 20.6156 14.7015C21.0656 14.8815 20.8856 14.3915 21.2656 14.2315C21.3819 14.179 21.508 14.1519 21.6356 14.1519C21.7632 14.1519 21.8893 14.179 22.0056 14.2315C21.9785 14.4202 21.9991 14.6128 22.0656 14.7915C22.0798 14.9137 22.0584 15.0375 22.0041 15.1479C21.9497 15.2583 21.8647 15.3507 21.7591 15.4141C21.6536 15.4774 21.5321 15.5089 21.4091 15.5049C21.286 15.5009 21.1668 15.4615 21.0656 15.3915C20.3156 15.0515 20.2456 14.6015 19.7456 14.6015Z" fill="#46B000"/>
<path d="M21.8354 14.7215C22.0124 14.4941 22.2524 14.3237 22.5254 14.2315C22.9554 14.1015 22.5254 13.7915 22.7554 13.3915C22.8112 13.2787 22.8898 13.1787 22.9862 13.0978C23.0826 13.0169 23.1947 12.9569 23.3154 12.9215C23.3929 13.1011 23.513 13.259 23.6654 13.3815C23.7409 13.4775 23.791 13.5908 23.8113 13.7112C23.8316 13.8316 23.8214 13.9551 23.7816 14.0705C23.7418 14.1859 23.6737 14.2895 23.5835 14.3718C23.4934 14.4541 23.384 14.5124 23.2654 14.5415C22.5454 14.7415 22.2454 14.3815 21.8354 14.7215Z" fill="#46B000"/>
<path d="M23.4055 13.4815C23.5105 13.2016 23.6904 12.956 23.9255 12.7715C24.2855 12.5115 23.8255 12.3315 23.9255 11.8815C23.9652 11.6221 24.1053 11.3886 24.3155 11.2315C24.4251 11.3894 24.5731 11.5167 24.7455 11.6015C24.8468 11.6758 24.9291 11.7729 24.9859 11.885C25.0427 11.997 25.0723 12.1209 25.0723 12.2465C25.0723 12.3721 25.0427 12.496 24.9859 12.608C24.9291 12.7201 24.8468 12.8172 24.7455 12.8915C24.0755 13.2715 23.7455 13.0215 23.4055 13.4815Z" fill="#46B000"/>
<path d="M24.3456 11.8715C24.3608 11.5634 24.4537 11.2641 24.6156 11.0015C24.8656 10.6115 24.3956 10.5915 24.3356 10.1215C24.294 9.85123 24.3585 9.57534 24.5156 9.3515C24.664 9.45195 24.8367 9.51066 25.0156 9.5215C25.1314 9.57358 25.2339 9.65125 25.3154 9.74866C25.3969 9.84607 25.4552 9.96069 25.486 10.0839C25.5168 10.2071 25.5193 10.3357 25.4932 10.46C25.4672 10.5843 25.4133 10.701 25.3356 10.8015C24.8956 11.4315 24.4756 11.3115 24.3456 11.8715Z" fill="#46B000"/>
<path d="M19.9855 15.6315L19.4355 15.5715V14.3215L19.9855 14.3815V15.6315Z" fill="white"/>
<path d="M19.4355 15.5715L18.8855 15.5115V14.2615L19.4355 14.3215V15.5715Z" fill="#46B000"/>
<path d="M20.5256 15.7015L19.9856 15.6315V14.3815L20.5256 14.4415V15.7015Z" fill="#E04122"/>
<path d="M19.0456 9.67147C18.869 9.6691 18.6969 9.61598 18.5497 9.51845C18.4025 9.42093 18.2865 9.28312 18.2156 9.12147C18.0056 8.57147 17.4156 8.58147 17.3156 8.85147C17.2156 9.12147 16.9356 9.56147 17.6456 9.92147C18.3556 10.2815 18.9756 10.4515 19.4456 10.1315C19.9156 9.81147 19.0456 9.67147 19.0456 9.67147Z" fill="#FFE500"/>
<path d="M20.3855 10.9015C20.3428 11.0093 20.2682 11.1015 20.1717 11.1659C20.0752 11.2302 19.9614 11.2636 19.8455 11.2615C19.4655 11.2615 19.4855 11.5115 19.6755 11.6915C19.8655 11.8715 20.1955 11.5815 20.6755 11.6915C20.9233 11.7306 21.1553 11.8379 21.3455 12.0015C21.4014 11.8895 21.4149 11.761 21.3837 11.6398C21.3525 11.5185 21.2785 11.4126 21.1755 11.3415C21.068 11.2893 20.9737 11.2137 20.8992 11.1203C20.8248 11.0268 20.7723 10.9179 20.7455 10.8015L20.3855 10.9015Z" fill="#FFE500"/>
<path d="M17.4155 6.53147C17.4155 6.53147 16.7655 6.09147 17.5655 5.20147C17.6702 5.04262 17.8128 4.91225 17.9803 4.82205C18.1479 4.73185 18.3352 4.68463 18.5255 4.68463C18.7158 4.68463 18.9031 4.73185 19.0706 4.82205C19.2382 4.91225 19.3807 5.04262 19.4855 5.20147C19.8155 5.64147 19.6055 6.50147 20.1455 7.20147C20.6943 7.88859 20.9719 8.75327 20.9255 9.63147C20.9261 10.1079 20.8344 10.5799 20.6555 11.0215C19.8165 10.5528 19.1241 9.86044 18.6555 9.02147C18.1555 7.84147 18.0155 7.39147 18.3255 6.64147C18.6355 5.89147 17.4855 6.03147 17.4155 6.53147Z" fill="#BF8256"/>
</g>
<defs>
<clipPath id="clip0_803_341">
<rect width="40" height="20" fill="white"/>
</clipPath>
</defs>
</svg>
