<?xml version="1.0" encoding="utf-8"?>
<!-- Generator: Adobe Illustrator 25.4.0, SVG Export Plug-In . SVG Version: 6.00 Build 0)  -->
<svg version="1.1" id="Capa_1" xmlns="http://www.w3.org/2000/svg" xmlns:xlink="http://www.w3.org/1999/xlink" x="0px" y="0px"
	 viewBox="0 0 388.7 102.4" style="enable-background:new 0 0 388.7 102.4;" xml:space="preserve">
<style type="text/css">
	.st0{fill:#13B2D4;}
	.st1{fill:#0DAECF;}
	.st2{fill:#338A96;}
	.st3{fill:#FFFFFF;}
	.st4{fill:#0EB7E6;}
	.st5{fill:#10B3D2;}
</style>
<g id="Capa_2_00000018232600605646947770000009403025480492666294_">
	<g id="Capa_1-2">
		<path d="M34.5,27.9c-10.1,0-20.3-0.1-30.4,0C1,28-0.1,27.1,0,24c0.2-6.6,0.2-13.3,0-19.9C-0.1,1.1,0.7,0,3.9,0
			c22,0.1,43.9,0.1,65.9,0c3,0,4.1,0.7,4,3.9c-0.2,6.6-0.2,13.3,0,19.9c0.1,3.5-1.4,4.1-4.4,4.1c-10.1-0.1-20.3,0-30.4,0
			C37.5,28.4,35.9,28.4,34.5,27.9z"/>
		<path d="M331.1,43c4.8-4.4,9.2-6.9,14.7-6.7c4.2,0.2,8,1.4,10.2,5.2c1.7,3.1,2.7,2.1,4.5,0.2c7.7-8,20.4-7.3,25.5,1.2
			c1.5,2.4,2.3,5.2,2.3,8c0.2,9.8,0.1,19.6,0.3,29.4c0,2.6-0.9,3.5-3.5,3.4c-10.8-0.2-8.9,1-9-8.5c-0.1-6.5,0-13,0-19.5
			c0-5.5-2.3-8.7-6.4-9.2c-4.2-0.5-8.4,2.8-9.3,7.9c-1.2,6.4-0.5,13-0.7,19.4c0,0.7,0,1.3,0,2c0,7.6-3.1,9.8-10.5,7.8
			c-2.5-0.7-1.8-2.5-1.8-4c-0.1-7.8,0-15.6-0.1-23.5c-0.1-5.9-2.5-9.4-6.5-9.8c-4.4-0.4-8.1,2.5-9.2,8.1c-1.6,7.9-0.2,15.9-0.8,23.9
			c-0.1,1.7,1.4,4.6-1.5,5c-3.4,0.5-7,1-10.3-0.5c-1.1-0.5-0.5-2.1-0.5-3.2c0-12.6,0.2-25.3-0.1-37.9c-0.1-4.2,1.5-5.3,5.2-4.8
			C326.9,37.6,331.7,35.2,331.1,43z"/>
		<path d="M157.7,41.7c1.3-4.6,4-5.5,10.7-4.6c3.9,0.5,2.5,3.4,2.5,5.4c-0.2,13,1,26-0.7,38.9c-1.6,12.3-11,20.5-23.4,20.9
			c-7.2,0.4-14.3-1.1-20.8-4.3c-2.1-1.1-4.9-2.2-2.6-5.4c1.7-2.4,1.8-6.8,7-4c5.1,2.9,11,4.1,16.8,3.3c7.9-1.2,11.8-6.6,10.3-15.4
			c-6,5.5-13,6.5-20.4,5.1c-4.6-0.8-8.8-3.2-11.8-6.9c-6.9-8.7-6-23.6,1.7-31.7C135.1,34.8,146.7,34.2,157.7,41.7z"/>
		<path d="M216.1,41.7c1.2-3.8,9-6.3,12.2-4.3c1,0.7,1,1.7,0.9,2.7c-0.1,13.5,0.3,27-0.4,40.4c-0.6,11.9-9.1,20.2-21.1,21.6
			c-8.5,1.2-17.1-0.5-24.5-4.8c-2-1.1-3-2.4-1.3-4.3s1.3-6.8,5.9-4.9c4.8,1.9,9.4,4.1,14.8,4.1c10-0.1,14.4-4.6,13.9-15.7
			c-5.6,4.5-11.6,6.5-18.5,5.6s-12.2-4.1-15.8-9.9c-5.5-9.1-3.2-23.1,4.7-30.3S206.4,34.5,216.1,41.7z"/>
		<path d="M99,64.6c-4.3,0-8.7-0.1-13,0c-1.4,0-3.2-0.7-4,0.9c-0.8,1.7,0.6,3.1,1.5,4.4c4.1,5.7,13.6,7.1,21.8,2.7
			c3.1-1.7,4.5-1.1,6.4,1.5c2.2,2.8,1.4,4.4-1.2,5.9c-9.2,5.2-18.9,6.6-28.7,2.6c-10.7-4.3-14.9-14-12.8-27.3
			c1.6-9.8,10.8-18,21.2-19c15.6-1.5,26.5,9.8,25.5,25c-0.2,2.7-1.1,3.3-3.7,3.2C107.7,64.5,103.3,64.6,99,64.6z"/>
		<path d="M307.2,60.6c0,6.5-0.2,13,0.1,19.5c0.1,3-1,4.3-3.6,3.6c-2.9-0.8-7.6,3-8.8-3.3c-0.3-1.6-1.9,0-2.7,0.6
			c-2.5,2-5.5,3.2-8.6,3.6c-11.2,1.6-19-4.9-19.1-16.1c-0.1-9,0.1-18-0.2-27c-0.1-3.6,1.3-4.8,4.6-4.3c1.2,0.1,2.3,0.1,3.5,0
			c3.1-0.3,4.4,0.7,4.2,4.1c-0.3,7.7-0.1,15.3,0.1,23c0.1,6.5,2.5,9.7,7.2,10.1c5.8,0.5,9.5-2.3,10.5-8.8c1.2-7.8,0.5-15.6,0.4-23.4
			c-0.1-4,1.2-5.5,5.1-5c1.3,0.2,2.7,0.2,4,0.1c2.7-0.3,3.4,0.9,3.4,3.5C307.1,47.3,307.2,54,307.2,60.6z"/>
		<path d="M41.6,55.8c9,0.4,9,0.4,9,9.4c0,5.2-0.2,10.3,0,15.5c0.1,2.4-0.8,3.2-3.1,3.2c-7-0.1-14-0.2-21,0c-3,0.1-3.6-1.3-3.5-3.9
			c0.1-6.5,0.2-13-0.1-19.5c-0.2-3.8,1.1-5.2,4.8-4.7c1.7,0.1,3.3,0.1,5,0C35.6,53.7,38.6,54.6,41.6,55.8z"/>
		<path d="M253.6,60.5c0,6.3-0.2,12.6,0.1,18.9c0.2,3.7-1.2,4.5-4.6,4.4c-9.5-0.3-8.1,1.1-8.1-8.3c-0.1-11.3,0.1-22.6-0.1-33.9
			c-0.1-3.2,0.6-4.8,4.3-4.6c9.6,0.5,8.2-1.5,8.4,8.5C253.7,50.6,253.6,55.6,253.6,60.5L253.6,60.5z"/>
		<path class="st0" d="M247.2,31.5c-2.4-0.1-8-6-7.8-8.2c0.3-2.6,5.7-7.4,8.1-7.3c2.5,0.2,7.6,5.5,7.5,7.9S249.4,31.6,247.2,31.5z"
			/>
		<path class="st1" d="M34.5,27.9c1.3-1.1,3.2-1.1,4.5,0c2,3.4,5.3,5.8,8,8.6c4,4.2,4.2,6.7,0,10.9c-2,2-4.1,3.8-6.2,5.7
			c-2.7,2.7-5.5,3-8.1-0.1c-3.3-2-5.6-5-8-7.9c-2.1-2.6-1-5,1-7.5C28.5,34.2,32.6,32.1,34.5,27.9z"/>
		<path class="st2" d="M32.7,53c2.7,1.7,5.4,1.3,8.1,0.1c-0.6,1-0.2,2.2,0.7,2.7c0,0,0,0,0.1,0h-8.9C33.3,54.9,32.8,53.9,32.7,53z"
			/>
		<path class="st3" d="M146.1,72.2c-8,0-12.8-4.9-12.7-13.1c0-7.5,5.5-13,12.8-12.9s12.9,6.1,12.8,13.6
			C158.9,67.8,154.2,72.2,146.1,72.2z"/>
		<path class="st3" d="M204.6,72.3c-8.2,0-12.6-4.7-12.6-13.2c0.1-7.7,5.3-13,12.7-12.9s12.7,5.9,12.7,13.7S212.7,72.3,204.6,72.3z"
			/>
		<path class="st3" d="M91.8,56.5c-2,0-4,0.1-6,0c-1.4-0.1-3.2,0.7-4-1s0-3.1,0.9-4.6c2.8-4.5,7-5.8,12-5.1c4.2,0.6,6.7,3,7.8,7.2
			c0.7,2.8-0.1,3.6-2.8,3.5S94.4,56.5,91.8,56.5L91.8,56.5z"/>
		<path class="st4" d="M43.6,36l3.1,3c0.9,2.2,0.2,4.1-1,6c-1.8,3.7-8,6.5-12.4,5.5c-3.2-0.7-7.5-6.2-7.4-9.7
			c0.1-2.5,2.1-3.6,3.8-4.8l0.4-0.3C37.1,30.6,37.1,30.6,43.6,36z"/>
		<path class="st5" d="M43.6,36c-4.6-4-9.3-2.5-13.9-0.1c0.1-0.2,0.1-0.3,0.2-0.4C35.9,28.3,37.9,28.4,43.6,36z"/>
		<path class="st5" d="M45.7,44.9c-0.1-2.1-0.2-4.1,1-6C50.4,41.6,48,43.3,45.7,44.9z"/>
	</g>
</g>
</svg>
