<svg xmlns="http://www.w3.org/2000/svg" viewBox="0 0 73.8 83.92"><g id="Capa_2" data-name="Capa 2"><g id="Capa_1-2" data-name="Capa 1"><path d="M34.45,27.94c-10.15,0-20.29-.15-30.44,0C1,28-.06,27.08,0,24,.21,17.36.19,10.71,0,4.06-.07,1.11.73,0,3.89,0Q36.82.2,69.75,0c3,0,4.13.69,4,3.87-.23,6.64-.23,13.3,0,19.94.13,3.51-1.37,4.12-4.43,4.08-10.14-.11-20.28,0-30.42,0A6.66,6.66,0,0,1,34.45,27.94Z" style="fill:#fff"/><path d="M41.59,55.82c9,.41,9,.41,9,9.43,0,5.15-.15,10.31,0,15.46.06,2.38-.77,3.24-3.14,3.2-7-.1-14-.16-21,0-3,.08-3.6-1.33-3.55-3.92.1-6.48.24-13-.06-19.45-.17-3.79,1.13-5.17,4.82-4.71a41.51,41.51,0,0,0,5,0C35.64,53.75,38.61,54.63,41.59,55.82Z" style="fill:#fff"/><path d="M34.45,27.94a3.48,3.48,0,0,1,4.48,0c2,3.44,5.29,5.77,8,8.59,4,4.23,4.15,6.68,0,10.86-2,2-4.1,3.78-6.16,5.65-2.74,2.66-5.45,3-8.12-.1-3.32-2-5.61-5-8-7.92-2.1-2.56-1-5,1-7.46C28.47,34.22,32.58,32.09,34.45,27.94Z" style="fill:#0daecf"/><path d="M32.68,53c2.69,1.71,5.4,1.27,8.12.1a2,2,0,0,0,.79,2.76l-8.91,0C33.35,54.9,32.82,53.93,32.68,53Z" style="fill:#338a96"/><path d="M43.61,36,46.67,39c.92,2.2.17,4.13-1,6-1.84,3.72-8,6.49-12.43,5.54-3.17-.69-7.47-6.24-7.36-9.71C26,38.31,28,37.21,29.68,36l.41-.29C37.06,30.64,37.06,30.64,43.61,36Z" style="fill:#0eb7e6"/><path d="M43.61,36c-4.63-4-9.28-2.45-13.93-.07a2.34,2.34,0,0,1,.24-.44C35.92,28.31,37.92,28.39,43.61,36Z" style="fill:#10b3d2"/><path d="M45.69,44.93c-.09-2.06-.15-4.12,1-6C50.38,41.61,48,43.26,45.69,44.93Z" style="fill:#10b3d2"/></g></g></svg>