<svg xmlns="http://www.w3.org/2000/svg" viewBox="0 0 388.7 102.39"><g id="Capa_2" data-name="Capa 2"><g id="Capa_1-2" data-name="Capa 1"><path d="M34.45,27.94c-10.15,0-20.29-.15-30.44,0C1,28-.06,27.08,0,24,.21,17.36.19,10.71,0,4.06-.07,1.11.73,0,3.89,0Q36.82.2,69.75,0c3,0,4.13.69,4,3.87-.23,6.64-.23,13.3,0,19.94.13,3.51-1.37,4.12-4.43,4.08-10.14-.11-20.28,0-30.42,0A6.66,6.66,0,0,1,34.45,27.94Z" style="fill:#fff"/><path d="M331.14,43c4.81-4.44,9.18-6.93,14.7-6.67,4.22.21,8,1.41,10.19,5.22,1.73,3.06,2.66,2.12,4.55.17,7.69-8,20.37-7.27,25.47,1.21a16,16,0,0,1,2.31,8c.16,9.81.15,19.63.34,29.44.05,2.63-.89,3.47-3.49,3.41-10.8-.23-8.88,1-9-8.47-.11-6.49,0-13-.05-19.46,0-5.45-2.34-8.72-6.35-9.21-4.23-.5-8.39,2.81-9.31,7.91C359.31,61,360,67.53,359.81,74c0,.66,0,1.33,0,2,0,7.62-3.06,9.81-10.55,7.81-2.47-.66-1.78-2.48-1.8-4-.09-7.81,0-15.63-.12-23.45-.08-5.92-2.45-9.38-6.46-9.77-4.37-.43-8.11,2.52-9.22,8.07-1.57,7.89-.25,15.93-.75,23.88-.11,1.73,1.39,4.64-1.48,5-3.36.46-7,1-10.26-.46-1.14-.5-.52-2.13-.52-3.25,0-12.64.19-25.29-.12-37.92-.1-4.25,1.47-5.28,5.16-4.79C326.9,37.59,331.67,35.19,331.14,43Z" style="fill:#fff"/><path d="M157.71,41.71c1.3-4.61,4-5.54,10.72-4.58,3.87.55,2.52,3.41,2.49,5.37-.18,13,1,26-.7,38.86-1.59,12.28-11,20.47-23.38,20.92A41.27,41.27,0,0,1,126.09,98c-2.11-1.07-4.93-2.15-2.62-5.45,1.68-2.38,1.83-6.83,7-4a26.25,26.25,0,0,0,16.84,3.28c7.94-1.19,11.79-6.62,10.31-15.41-6,5.54-13,6.54-20.42,5.13a19.2,19.2,0,0,1-11.78-6.89c-6.93-8.67-6-23.56,1.73-31.67C135.1,34.77,146.68,34.18,157.71,41.71Z" style="fill:#fff"/><path d="M216.06,41.66c1.21-3.79,9-6.33,12.17-4.26,1,.65,1,1.68.94,2.66-.06,13.48.33,27-.36,40.42-.61,11.92-9.15,20.21-21.07,21.59a38.63,38.63,0,0,1-24.5-4.78c-2-1.14-3-2.45-1.33-4.27s1.28-6.76,5.87-4.89c4.78,1.94,9.43,4.08,14.77,4.05,10-.05,14.38-4.6,13.91-15.68C210.87,81,204.87,83,198,82.12s-12.22-4.05-15.76-9.91c-5.49-9.08-3.23-23.06,4.67-30.28S206.38,34.51,216.06,41.66Z" style="fill:#fff"/><path d="M99,64.61c-4.32,0-8.65-.06-13,0-1.38,0-3.23-.73-4,.95s.58,3.11,1.54,4.45c4.12,5.73,13.56,7.11,21.8,2.67,3.1-1.67,4.46-1.1,6.43,1.5,2.15,2.84,1.42,4.36-1.24,5.86-9.19,5.21-18.89,6.62-28.74,2.57C71.1,78.28,66.85,68.6,69,55.34c1.59-9.81,10.8-18,21.19-19,15.55-1.51,26.46,9.79,25.46,25.05-.18,2.68-1.14,3.35-3.66,3.24C107.66,64.47,103.33,64.61,99,64.61Z" style="fill:#fff"/><path d="M307.24,60.62c0,6.49-.18,13,.08,19.46.12,3-1,4.32-3.64,3.6-2.94-.81-7.59,3-8.75-3.3-.29-1.59-1.91,0-2.69.61a17.53,17.53,0,0,1-8.64,3.6c-11.25,1.55-19-4.88-19.15-16.14-.15-9,.08-18-.17-26.95-.1-3.63,1.28-4.77,4.64-4.35a15.09,15.09,0,0,0,3.49,0c3.15-.35,4.36.66,4.24,4.13-.27,7.65-.08,15.31.06,23,.12,6.49,2.52,9.72,7.23,10.12,5.82.5,9.5-2.33,10.53-8.84,1.21-7.75.52-15.62.4-23.42-.06-4,1.16-5.51,5.08-5a16.64,16.64,0,0,0,4,.06c2.66-.26,3.42.86,3.35,3.46C307.12,47.3,307.23,54,307.24,60.62Z" style="fill:#fff"/><path d="M41.59,55.82c9,.41,9,.41,9,9.43,0,5.15-.15,10.31,0,15.46.06,2.38-.77,3.24-3.14,3.2-7-.1-14-.16-21,0-3,.08-3.6-1.33-3.55-3.92.1-6.48.24-13-.06-19.45-.17-3.79,1.13-5.17,4.82-4.71a41.51,41.51,0,0,0,5,0C35.64,53.75,38.61,54.63,41.59,55.82Z" style="fill:#fff"/><path d="M253.57,60.55c0,6.31-.22,12.63.08,18.92.17,3.66-1.19,4.5-4.58,4.39-9.53-.32-8.08,1.07-8.13-8.28-.07-11.29.05-22.58-.1-33.86-.05-3.25.55-4.83,4.32-4.64,9.65.49,8.25-1.51,8.42,8.53.08,5,0,10,0,14.94Z" style="fill:#fff"/><path d="M247.19,31.48c-2.42-.11-8-6-7.8-8.21.26-2.62,5.68-7.44,8.15-7.26s7.63,5.54,7.5,7.89S249.41,31.59,247.19,31.48Z" style="fill:#13b2d4"/><path d="M34.45,27.94a3.48,3.48,0,0,1,4.48,0c2,3.44,5.29,5.77,8,8.59,4,4.23,4.15,6.68,0,10.86-2,2-4.1,3.78-6.16,5.65-2.74,2.66-5.45,3-8.12-.1-3.32-2-5.61-5-8-7.92-2.1-2.56-1-5,1-7.46C28.47,34.22,32.58,32.09,34.45,27.94Z" style="fill:#0daecf"/><path d="M32.68,53c2.69,1.71,5.4,1.27,8.12.1a2,2,0,0,0,.79,2.76l-8.91,0C33.35,54.9,32.82,53.93,32.68,53Z" style="fill:#338a96"/><path d="M146.08,72.23c-8,0-12.76-4.93-12.72-13.11,0-7.53,5.47-13,12.82-12.86S159.11,52.32,159,59.89C158.89,67.76,154.18,72.25,146.08,72.23Z"/><path d="M204.62,72.26c-8.2,0-12.65-4.7-12.56-13.18.08-7.74,5.28-13,12.74-12.86s12.71,5.86,12.66,13.69S212.74,72.31,204.62,72.26Z"/><path d="M91.78,56.5c-2,0-4,.07-6,0-1.4-.07-3.2.68-4-1s0-3.13.95-4.6c2.85-4.45,7-5.77,12-5.1,4.18.58,6.71,3,7.8,7.2.71,2.76-.09,3.63-2.81,3.48s-5.29,0-7.93,0Z"/><path d="M43.61,36,46.67,39c.92,2.2.17,4.13-1,6-1.84,3.72-8,6.49-12.43,5.54-3.17-.69-7.47-6.24-7.36-9.71C26,38.31,28,37.21,29.68,36l.41-.29C37.06,30.64,37.06,30.64,43.61,36Z" style="fill:#0eb7e6"/><path d="M43.61,36c-4.63-4-9.28-2.45-13.93-.07a2.34,2.34,0,0,1,.24-.44C35.92,28.31,37.92,28.39,43.61,36Z" style="fill:#10b3d2"/><path d="M45.69,44.93c-.09-2.06-.15-4.12,1-6C50.38,41.61,48,43.26,45.69,44.93Z" style="fill:#10b3d2"/></g></g></svg>