<svg width="148" height="39" viewBox="0 0 148 39" fill="none" xmlns="http://www.w3.org/2000/svg">
<g clip-path="url(#clip0_318_24)">
<path d="M0 0V10.4906H28.0051V0H0Z" fill="#0F0F0F"/>
<path d="M19.2517 21.3706H8.76099V31.8613H19.2517V21.3706Z" fill="#0F0F0F"/>
<path d="M13.1206 10.982L9.05415 15.0484C8.56581 15.5367 8.56581 16.3285 9.05415 16.8168L13.1206 20.8833C13.6089 21.3716 14.4007 21.3716 14.889 20.8833L18.9554 16.8168C19.4438 16.3285 19.4438 15.5367 18.9554 15.0484L14.889 10.982C14.4007 10.4936 13.6089 10.4936 13.1206 10.982Z" fill="#6EE1EB"/>
<path d="M93.606 6.03181L91.1757 8.46213C90.8833 8.75456 90.8833 9.22866 91.1757 9.52109L93.606 11.9515C93.8985 12.2439 94.3726 12.2439 94.665 11.9515L97.0953 9.52109C97.3877 9.22866 97.3877 8.75455 97.0953 8.46213L94.665 6.03181C94.3726 5.73939 93.8985 5.73939 93.606 6.03181Z" fill="#6EE1EB"/>
<path d="M35.2982 32.2587C29.9593 32.2587 26.0056 29.0014 26.0056 23.2955C26.0056 17.5897 30.139 13.8232 35.1859 13.8232C40.6371 13.8232 43.9244 17.41 43.9244 22.1274C43.9244 23.0409 43.8495 24.5011 43.8495 24.5011H30.8279C31.2697 27.3166 33.4262 28.6719 36.0919 28.6719C38.4656 28.6719 40.5922 27.6086 41.4309 26.8823L43.2579 29.4057C42.2695 30.4316 39.6038 32.2587 35.2832 32.2587H35.2982ZM35.1484 17.3052C32.3704 17.3052 30.9028 19.2445 30.7605 21.476H39.2444C39.1695 19.5366 38.4432 17.3052 35.1484 17.3052Z" fill="#0F0F0F"/>
<path d="M62.6517 35.8451C61.1167 37.455 58.8478 38.9526 54.6096 38.9526C50.3714 38.9526 47.2564 36.9383 46.3803 36.3168L48.3197 33.0595C49.4504 33.8608 52.3408 35.1412 54.6096 35.1412C57.1331 35.1412 58.451 34.34 59.1099 33.5687C59.7689 32.7975 60.3155 31.3373 60.3155 29.3605V28.4469C59.0575 30.304 56.9159 31.2624 54.3176 31.2624C49.8173 31.2624 45.946 28.3721 45.946 22.9208C45.946 17.9114 49.2707 13.8154 54.6471 13.8154C57.0208 13.8154 59.0725 14.6915 60.3529 16.6684C60.3155 15.8671 60.3155 14.8038 60.3155 14.3246V14.1449H64.958V28.1849C64.958 32.0636 64.1568 34.2576 62.6517 35.8301V35.8451ZM60.5701 22.6063C60.5701 20.1203 58.6681 17.522 55.4857 17.522C52.5205 17.522 50.6934 19.8283 50.6934 22.6063C50.6934 25.3844 52.4456 27.6158 55.628 27.6158C58.8104 27.6158 60.5626 25.3844 60.5626 22.6063H60.5701Z" fill="#0F0F0F"/>
<path d="M84.9584 35.8451C83.4233 37.455 81.1545 38.9526 76.9163 38.9526C72.6781 38.9526 69.5631 36.9383 68.687 36.3168L70.6264 33.0595C71.7571 33.8608 74.6474 35.1412 76.9163 35.1412C79.4397 35.1412 80.7576 34.34 81.4166 33.5687C82.0755 32.7975 82.6221 31.3373 82.6221 29.3605V28.4469C81.3641 30.304 79.2226 31.2624 76.6243 31.2624C72.124 31.2624 68.2527 28.3721 68.2527 22.9208C68.2527 17.9114 71.5773 13.8154 76.9537 13.8154C79.3274 13.8154 81.3791 14.6915 82.6596 16.6684C82.6221 15.8671 82.6221 14.8038 82.6221 14.3246V14.1449H87.2647V28.1849C87.2647 32.0636 86.4635 34.2576 84.9584 35.8301V35.8451ZM82.8767 22.6063C82.8767 20.1203 80.9748 17.522 77.7924 17.522C74.8271 17.522 73.0001 19.8283 73.0001 22.6063C73.0001 25.3844 74.7523 27.6158 77.9346 27.6158C81.117 27.6158 82.8692 25.3844 82.8692 22.6063H82.8767Z" fill="#0F0F0F"/>
<path d="M96.4752 14.1528V31.8544H91.7952V14.1528H96.4752Z" fill="#0F0F0F"/>
<path d="M106.936 32.1839C104.787 32.1839 103.319 31.5923 102.346 30.5889C101.02 29.2261 100.608 27.092 100.608 24.6509V14.1528H105.288V23.6251C105.288 26.2609 105.73 28.3425 108.433 28.3425C111.137 28.3425 112.312 26.1111 112.312 23.1459V14.1528H116.992V31.8544H112.454L112.417 29.3684C111.391 31.1206 109.489 32.1839 106.928 32.1839H106.936Z" fill="#0F0F0F"/>
<path d="M125.985 14.1527L125.948 16.8259H126.06C126.861 15.1785 129.025 13.8232 131.324 13.8232C133.885 13.8232 135.42 14.8491 136.259 17.1853C137.502 15.0288 139.516 13.8232 142.077 13.8232C146.719 13.8232 148 17.1179 148 21.1764V31.8543H143.32V21.9402C143.32 19.7836 142.841 17.6645 140.542 17.6645C138.243 17.6645 136.992 19.6788 136.992 22.7114V31.8543H132.313V21.9102C132.313 19.4991 131.691 17.6645 129.46 17.6645C127.048 17.6645 125.985 19.9334 125.985 22.7114V31.8543H121.305V14.1527H125.985Z" fill="#0F0F0F"/>
</g>
<defs>
<clipPath id="clip0_318_24">
<rect width="148" height="39" fill="white"/>
</clipPath>
</defs>
</svg>
