<?xml version="1.0" encoding="utf-8"?>
<!-- Generator: Adobe Illustrator 28.0.0, SVG Export Plug-In . SVG Version: 6.00 Build 0)  -->
<svg version="1.1" id="Capa_1" xmlns="http://www.w3.org/2000/svg" xmlns:xlink="http://www.w3.org/1999/xlink" x="0px" y="0px"
	 viewBox="0 0 1080 1080" style="enable-background:new 0 0 1080 1080;" xml:space="preserve">
<style type="text/css">
	.st0{fill:#0A0A0A;}
	.st1{fill:#FEFEFE;}
	.st2{fill:#6EE1EB;}
	.st3{fill:#FF5500;}
	.st4{fill:none;stroke:#FF5500;stroke-width:20;stroke-miterlimit:10;}
</style>
<path class="st0" d="M237.7,520c0.5-119.9,1.1-239.8,1.3-359.7c0-16.8,10.6-34.1,33-36.5c2.3-0.2,4.7-0.3,7.1-0.3
	c165.5,0.3,331,0.5,496.5,0.8c9.3,0,18.5-0.3,27.7,1.5c8.8,1.8,16.6,5.2,22.8,11.8c4.4,4.6,7.1,10.1,7.5,16.5
	c0.3,4.5,0.6,9.1,0.6,13.6c-0.6,153.7-1.2,307.4-1.9,461c0,6.7,0,6.7,6.6,8.4c67,17.4,117.6,71.2,129.2,139.4
	c9.5,56.3-5.6,106.3-43.2,149c-30.1,34.2-68.3,54.5-113.4,60c-60.9,7.4-113.2-11.1-155.8-55.7c-2.5-2.6-4.9-3.7-8.4-3.7
	c-122.6-0.1-245.2-0.3-367.8-0.5c-3.4,0-6.9-0.1-10.3-0.4c-10.4-1-17.8-6.6-23.6-14.8c-6.7-9.4-9.5-19.8-9.4-31.2
	c0.9-83.6,1-167.1,1.2-250.7c0.1-36.1,0-72.3,0-108.4C237.4,520,237.6,520,237.7,520z M682.6,667.7c-3.1,0-5,0-7,0
	c-113.9,0.7-227.8,1.5-341.7,2.2c-2.4,0-4.8,0.2-7.1-0.2c-4.4-0.6-7.2-4.1-7.2-8.2c0-4.2,2.9-7.5,7.3-8.1c1.6-0.2,3.3-0.2,4.9-0.2
	c89.7-0.6,179.5-1.2,269.2-1.9c34.1-0.2,68.3-0.5,102.4-0.6c4.3,0,8.1-0.6,12-2.4c30.7-14.2,62.9-19.5,96.5-16.1
	c2.6,0.3,3.8-0.1,3.5-2.9c-0.1-1.1,0-2.2,0-3.3c0.6-153.3,1.1-306.6,1.7-459.9c0-2.5-0.3-5.1-0.2-7.6c0.3-6-2.8-9.9-7.4-13.1
	c-3.7-2.5-7.8-4-12.2-4.2c-3.6-0.2-7.3-0.1-10.9-0.1c-167.1-0.3-334.2-0.7-501.3-1c-2.2,0-4.4,0-6.5,0c-5,0-9.7,1.4-14,4
	c-5.3,3.1-8.9,7.4-8.7,14c0.1,2.9-0.2,5.8-0.2,8.7c-0.4,122.6-0.9,245.2-1.3,367.8c-0.4,115.9-0.9,231.8-1.4,347.7
	c0,6.6,1.9,12.4,5.6,17.9c3.9,5.7,9,8.4,16,8.4c28.5-0.1,57,0.1,85.5,0.1c90.8,0.2,181.6,0.5,272.5,0.7c1.9,0,3.9,0.6,6.1-0.8
	c-16.7-25.3-26.1-53-28.8-82.9c-2.5,0-4.3,0-6.1,0c-90.1,0.6-180.2,1.2-270.3,1.8c-2.5,0-5.1,0.2-7.6-0.6c-3.5-1.1-5.9-4.1-6-7.6
	c-0.1-3.5,2-6.6,5.5-8c2.3-0.9,4.6-0.8,7-0.8c86.8-0.5,173.7-1,260.5-1.5c4.4,0,8.7-0.2,13.1-0.1c2.9,0.1,3.6-0.9,3.7-3.8
	c0.6-19.4,4.5-38.1,11.5-56.3c0.4-1.1,1.2-2.3,0.5-3.9c-1.7,0-3.4,0-5.2,0c-94.3,0.6-188.5,1.2-282.8,1.8c-2,0-4,0.1-6-0.2
	c-4.6-0.7-7.5-3.8-7.7-7.8c-0.2-4.2,2.9-7.8,7.5-8.6c2-0.3,4-0.2,6-0.2c97.4-0.6,194.7-1.3,292.1-1.8c3.6,0,5.8-1,7.7-4.3
	c11.4-20.4,26.5-37.7,44.7-52.2C679.3,670.5,680.5,669.5,682.6,667.7z M954,815.2c-0.2-32.8-5.3-55.7-15.9-77.5
	c-30.1-62-97.2-97.5-167.1-88.2c-38.5,5.2-71.9,21.6-98.5,49.9c-38.7,41.1-53.8,89.9-42.4,145.4c14.7,71.9,77.8,123.9,154.3,125.6
	c26,0.6,51-4.5,74.3-16.1C919.6,924,950.8,874.2,954,815.2z"/>
<path class="st1" d="M682.6,667.7c-2.1,1.8-3.3,2.8-4.5,3.8c-18.2,14.6-33.3,31.9-44.7,52.2c-1.9,3.4-4,4.3-7.7,4.3
	c-97.4,0.5-194.7,1.2-292.1,1.8c-2,0-4-0.1-6,0.2c-4.7,0.8-7.7,4.4-7.5,8.6c0.2,4,3.1,7.2,7.7,7.8c2,0.3,4,0.2,6,0.2
	c94.3-0.6,188.5-1.2,282.8-1.8c1.8,0,3.6,0,5.2,0c0.7,1.7,0,2.8-0.5,3.9c-6.9,18.1-10.9,36.9-11.5,56.3c-0.1,2.8-0.9,3.9-3.7,3.8
	c-4.4-0.1-8.7,0.1-13.1,0.1c-86.8,0.5-173.7,1-260.5,1.5c-2.4,0-4.7-0.1-7,0.8c-3.5,1.4-5.6,4.5-5.5,8c0.1,3.5,2.5,6.5,6,7.6
	c2.5,0.8,5,0.6,7.6,0.6c90.1-0.6,180.2-1.2,270.3-1.8c1.8,0,3.6,0,6.1,0c2.7,30,12.1,57.6,28.8,82.9c-2.2,1.3-4.3,0.8-6.1,0.8
	c-90.8-0.2-181.6-0.4-272.5-0.7c-28.5-0.1-57-0.2-85.5-0.1c-7,0-12.2-2.7-16-8.4c-3.7-5.4-5.6-11.3-5.6-17.9
	c0.5-115.9,1-231.8,1.4-347.7c0.5-122.6,0.9-245.2,1.3-367.8c0-2.9,0.3-5.8,0.2-8.7c-0.2-6.6,3.4-10.9,8.7-14c4.3-2.5,8.9-3.9,14-4
	c2.2,0,4.4,0,6.5,0c167.1,0.3,334.2,0.7,501.3,1c3.6,0,7.3,0,10.9,0.1c4.4,0.2,8.6,1.6,12.2,4.2c4.5,3.2,7.7,7.1,7.4,13.1
	c-0.1,2.5,0.2,5.1,0.2,7.6c-0.6,153.3-1.1,306.6-1.7,459.9c0,1.1-0.1,2.2,0,3.3c0.3,2.8-0.9,3.2-3.5,2.9
	c-33.6-3.4-65.9,1.9-96.5,16.1c-4,1.8-7.8,2.4-12,2.4c-34.1,0.1-68.3,0.3-102.4,0.6c-89.7,0.6-179.5,1.2-269.2,1.9
	c-1.6,0-3.3,0-4.9,0.2c-4.4,0.6-7.3,3.8-7.3,8.1c0,4.2,2.8,7.6,7.2,8.2c2.3,0.3,4.7,0.2,7.1,0.2c113.9-0.7,227.8-1.4,341.7-2.2
	C677.5,667.7,679.5,667.7,682.6,667.7z M536.5,311.2C536.5,311.3,536.5,311.3,536.5,311.2c61.6-0.3,123.1-0.7,184.7-1.1
	c1.1,0,2.2,0,3.3-0.1c12.9-0.8,21.7-8.5,24-21.2c0.6-3.1,0.7-6.1,0.8-9.2c0.5-18.2-0.1-36.3-0.2-54.5c-0.1-14.5-10-25.5-24.4-27.5
	c-4.5-0.6-9-0.8-13.6-0.8c-119.7,0.8-239.4,1.5-359.1,2.2c-3.9,0-7.5,0.9-11.3,1.6c-13.9,2.4-21.6,13.1-21.8,27.2
	c-0.3,17.6,0.1,35.2,0.3,52.9c0,2.5,0.2,5.1,0.6,7.6c1.4,8.7,5.5,15.6,13.5,19.9c6.1,3.3,12.7,4.2,19.5,4.1
	C414.1,312,475.3,311.6,536.5,311.2z M409.4,547.7c-6.3-1.5-7.8-3-8.8-8.5c-1.1-6.2-5.4-9.4-10.6-7.9c-3.9,1.1-6.2,4.4-6,9.2
	c0.4,10.1,5.8,17,14.5,21.4c2.7,1.4,5.7,2.3,8.7,3.1c1.8,0.5,2.4,1.3,2.3,3c-0.1,3.4-0.1,6.9,0,10.3c0.3,5.4,3.6,9,8.2,9.1
	c4.7,0.1,8.1-3.3,8.5-8.7c0.2-3.3,0.3-6.5,0.1-9.8c-0.2-2.9,0.9-4.1,3.7-4.8c6.1-1.6,11.1-5.1,15.1-10.1
	c11.6-14.4,11.1-43.2-13.4-51.9c-0.7-0.2-1.3-0.7-2-0.8c-3-0.5-3.4-2.5-3.5-5.1c-0.5-12.9,0.6-25.8-0.3-38.6c0-0.5,0.1-0.7,0.5-0.8
	c4.1,1.8,5.5,3,7.7,6.4c1.9,2.9,2.7,6.3,3.7,9.6c1,3.4,4.3,5.4,7.5,5.1c3.3-0.3,6.1-2.9,6.6-6.3c0.4-2.3,0.2-4.7-0.5-7
	c-3.7-11.7-10.4-20.7-22.5-24.6c-2.5-0.8-3.5-2.1-3.2-4.7c0.2-2,0.2-4,0.1-6c-0.3-4.4-3.1-7.5-6.9-7.8c-4.1-0.3-7.3,2.5-8,7.2
	c-0.2,1.6-0.4,3.3-0.3,4.9c0.3,3.6-0.8,5.6-4.6,7.2c-13.4,5.7-22.3,15.5-24.3,30.3c-1.7,13.2,1.4,24.8,12.7,33.3
	c3.7,2.8,7.8,4.6,12.1,6c2.3,0.7,3.1,1.8,3.1,4.2C409.3,525.5,409.4,536.4,409.4,547.7z M643.6,433.1c0,0.1,0,0.1,0,0.2
	c31.4,0,62.8,0,94.2,0c2.2,0,4.4,0.2,6.5-0.5c3.7-1.2,6.1-4.5,6-8.1c-0.1-3.9-3-7.1-7-7.8c-1.4-0.2-2.9-0.3-4.3-0.3
	c-63.5-0.2-127-0.4-190.5-0.5c-1.8,0-3.6,0-5.4,0.6c-3.8,1.3-6.2,4.4-6,8.1c0.1,3.5,2.4,6.4,6,7.6c2.3,0.8,4.7,0.7,7,0.7
	C581.2,433.1,612.4,433.1,643.6,433.1z M643.6,512.7c0,0.1,0,0.1,0,0.2c31.4,0,62.8,0,94.2,0c2.2,0,4.4,0.2,6.5-0.5
	c3.7-1.2,6.1-4.5,6-8.1c-0.1-3.9-3-7.1-7-7.8c-1.4-0.2-2.9-0.3-4.3-0.3c-63.5-0.2-127-0.4-190.5-0.5c-1.8,0-3.6,0-5.4,0.6
	c-3.8,1.3-6.2,4.4-6,8.1c0.1,3.5,2.4,6.4,6,7.6c2.3,0.8,4.7,0.7,7,0.7C581.2,512.7,612.4,512.7,643.6,512.7z M643.1,589.4
	c0,0.1,0,0.2,0,0.3c31.2,0,62.4,0,93.6,0c2.2,0,4.4,0,6.5-0.3c4.1-0.6,7-3.8,7.1-7.7c0.1-3.7-2.2-6.8-6-8.2
	c-1.9-0.7-3.9-0.6-5.9-0.6c-63.1-0.1-126.3-0.2-189.4-0.2c-1.6,0-3.3,0-4.9,0.2c-4,0.7-6.9,3.9-7.1,7.8c-0.2,4.1,2.8,7.7,7,8.4
	c1.9,0.3,4,0.2,6,0.2C581,589.4,612.1,589.4,643.1,589.4z"/>
<path class="st0" d="M536.5,311.2c-61.2,0.4-122.4,0.8-183.6,1.2c-6.8,0-13.3-0.8-19.5-4.1c-8-4.4-12.1-11.2-13.5-19.9
	c-0.4-2.5-0.6-5.1-0.6-7.6c-0.2-17.6-0.6-35.2-0.3-52.9c0.2-14.1,7.9-24.8,21.8-27.2c3.7-0.7,7.4-1.6,11.3-1.6
	c119.7-0.7,239.4-1.5,359.1-2.2c4.5,0,9.1,0.2,13.6,0.8c14.4,2,24.3,13,24.4,27.5c0.1,18.2,0.7,36.3,0.2,54.5
	c-0.1,3.1-0.2,6.2-0.8,9.2c-2.4,12.7-11.1,20.4-24,21.2c-1.1,0.1-2.2,0.1-3.3,0.1C659.7,310.5,598.1,310.9,536.5,311.2
	C536.5,311.3,536.5,311.3,536.5,311.2z M536.9,294.4C536.9,294.4,536.9,294.4,536.9,294.4c61.9-0.4,123.9-0.7,185.8-1.1
	c7.4,0,10-2.5,9.9-9.7c-0.1-16-0.3-32-0.5-47.9c0-4.4-0.1-8.7-0.7-13c-1.1-6.9-3.5-9.1-10.4-9.1c-65.6,0.4-131.1,0.9-196.7,1.3
	c-57.6,0.4-115.2,0.7-172.7,1.1c-2.9,0-5.8,0.1-8.7,0.8c-5.4,1.2-7.2,3.6-7.2,9.2c0.2,18.9,0.3,37.8,0.5,56.7c0,1.6,0,3.3,0.3,4.9
	c0.9,4.8,3,6.8,8,7.3c4.1,0.4,8.3,0.8,12.5,0.8C417,295.3,476.9,294.8,536.9,294.4z"/>
<path class="st0" d="M409.4,547.7c0-11.3-0.1-22.2,0.1-33.1c0-2.4-0.9-3.5-3.1-4.2c-4.3-1.4-8.4-3.3-12.1-6
	c-11.3-8.4-14.4-20.1-12.7-33.3c1.9-14.9,10.9-24.7,24.3-30.3c3.8-1.6,4.9-3.5,4.6-7.2c-0.1-1.6,0-3.3,0.3-4.9
	c0.7-4.7,3.9-7.6,8-7.2c3.8,0.3,6.6,3.3,6.9,7.8c0.1,2,0.2,4-0.1,6c-0.3,2.6,0.7,3.9,3.2,4.7c12.1,3.9,18.9,12.9,22.5,24.6
	c0.7,2.3,0.9,4.7,0.5,7c-0.5,3.4-3.3,6-6.6,6.3c-3.2,0.3-6.5-1.7-7.5-5.1c-0.9-3.3-1.8-6.6-3.7-9.6c-2.1-3.3-3.5-4.5-7.7-6.4
	c-0.4,0.1-0.5,0.3-0.5,0.8c0.8,12.9-0.3,25.8,0.3,38.6c0.1,2.7,0.5,4.6,3.5,5.1c0.7,0.1,1.3,0.5,2,0.8c24.5,8.7,25,37.5,13.4,51.9
	c-4,5-9,8.5-15.1,10.1c-2.8,0.7-3.9,1.9-3.7,4.8c0.2,3.3,0.2,6.5-0.1,9.8c-0.4,5.5-3.8,8.8-8.5,8.7c-4.7-0.1-8-3.6-8.2-9.1
	c-0.2-3.4-0.1-6.9,0-10.3c0-1.7-0.6-2.5-2.3-3c-3-0.8-6-1.7-8.7-3.1c-8.7-4.5-14-11.4-14.5-21.4c-0.2-4.8,2.2-8.2,6-9.2
	c5.2-1.5,9.5,1.7,10.6,7.9C401.6,544.7,403.1,546.2,409.4,547.7z M409.3,458c-9.9,4.8-11.9,14-11.3,21.2c0.6,7,4.2,11.5,10.9,14
	c0.2-0.9,0.3-1.3,0.3-1.8C409.3,480.4,409.3,469.4,409.3,458z M426.6,547.6c7.3-4.2,9.4-10.2,8.9-17.4c-0.4-5.5-2.6-10-8.9-11.9
	C426.6,528.1,426.6,537.4,426.6,547.6z"/>
<path class="st0" d="M643.6,433.1c-31.2,0-62.4,0-93.6,0c-2.4,0-4.7,0.1-7-0.7c-3.6-1.2-5.9-4.1-6-7.6c-0.1-3.7,2.3-6.8,6-8.1
	c1.8-0.6,3.6-0.6,5.4-0.6c63.5,0.2,127,0.3,190.5,0.5c1.4,0,2.9,0,4.3,0.3c4.1,0.7,6.9,4,7,7.8c0.1,3.7-2.3,6.9-6,8.1
	c-2.1,0.7-4.3,0.5-6.5,0.5c-31.4,0-62.8,0-94.2,0C643.6,433.2,643.6,433.2,643.6,433.1z"/>
<path class="st0" d="M643.6,512.7c-31.2,0-62.4,0-93.6,0c-2.4,0-4.7,0.1-7-0.7c-3.6-1.2-5.9-4.1-6-7.6c-0.1-3.7,2.3-6.8,6-8.1
	c1.8-0.6,3.6-0.6,5.4-0.6c63.5,0.2,127,0.3,190.5,0.5c1.4,0,2.9,0,4.3,0.3c4.1,0.7,6.9,4,7,7.8c0.1,3.7-2.3,6.9-6,8.1
	c-2.1,0.7-4.3,0.5-6.5,0.5c-31.4,0-62.8,0-94.2,0C643.6,512.8,643.6,512.7,643.6,512.7z"/>
<path class="st0" d="M643.1,589.4c-31,0-62.1,0-93.1,0c-2,0-4,0.1-6-0.2c-4.2-0.7-7.2-4.4-7-8.4c0.2-3.9,3-7.2,7.1-7.8
	c1.6-0.3,3.3-0.2,4.9-0.2c63.1,0.1,126.3,0.2,189.4,0.2c2,0,4-0.1,5.9,0.6c3.8,1.3,6.1,4.5,6,8.2c-0.1,3.9-3,7.1-7.1,7.7
	c-2.1,0.3-4.3,0.3-6.5,0.3c-31.2,0-62.4,0-93.6,0C643.1,589.6,643.1,589.5,643.1,589.4z"/>
<path class="st1" d="M536.9,294.4c-59.9,0.4-119.9,0.9-179.8,1.3c-4.2,0-8.3-0.4-12.5-0.8c-5-0.5-7.1-2.5-8-7.3
	c-0.3-1.6-0.3-3.3-0.3-4.9c-0.2-18.9-0.3-37.8-0.5-56.7c0-5.6,1.8-8,7.2-9.2c2.8-0.6,5.7-0.7,8.7-0.8c57.6-0.4,115.2-0.7,172.7-1.1
	c65.6-0.4,131.1-0.9,196.7-1.3c6.9,0,9.3,2.1,10.4,9.1c0.7,4.3,0.7,8.7,0.7,13c0.2,16,0.3,32,0.5,47.9c0.1,7.2-2.5,9.7-9.9,9.7
	C660.7,293.7,598.8,294,536.9,294.4C536.9,294.4,536.9,294.4,536.9,294.4z"/>
<path class="st1" d="M409.3,458c0,11.4,0,22.4,0,33.4c0,0.5-0.2,1-0.3,1.8c-6.8-2.5-10.3-7-10.9-14C397.4,472,399.4,462.8,409.3,458
	z"/>
<path class="st1" d="M426.6,547.6c0-10.3,0-19.6,0-29.2c6.2,1.9,8.5,6.3,8.9,11.9C435.9,537.4,433.9,543.4,426.6,547.6z"/>
<path class="st2" d="M215.1,317.4l22,22c5.2,5.2,13.7,5.2,18.9,0l22-22c5.2-5.2,5.2-13.7,0-18.9l-22-22c-5.2-5.2-13.7-5.2-18.9,0
	l-22,22C209.8,303.7,209.8,312.2,215.1,317.4z"/>
<path class="st2" d="M215.1,381.5l22,22c5.2,5.2,13.7,5.2,18.9,0l22-22c5.2-5.2,5.2-13.7,0-18.9l-22-22c-5.2-5.2-13.7-5.2-18.9,0
	l-22,22C209.8,367.8,209.8,376.3,215.1,381.5z"/>
<path class="st3" d="M678.2,905.4c-15.6-17.9-26.4-38.4-32.1-61.5c-13.7-55.8,6.2-141.7,94.4-174c70.3-25.8,157.3,6.7,188,86.7
	c30,78.2-11.8,167.1-91.3,192.7c-49.7,16-95.9,8-137.8-23.6c-0.6-0.5-1.1-1.1-1.7-1.6c1.2,0,2.5-0.2,3.7,0.1c4.5,1.2,6.7-0.2,6.5-5
	c31.6,22.8,66.5,31.6,105.1,25.3c74.3-12,125.8-84.1,112.9-158.3c-16.4-94.3-120.8-143.8-204-96.6c-51.2,29-78.5,89.1-66.8,146.7
	c4.3,21.2,13.8,39.9,26.5,57.1c-2.2,0.1-2.6,1.5-2.7,3.4C678.8,899.7,679.2,902.6,678.2,905.4z"/>
<path class="st3" d="M829.9,883.6c-5.3,0-9.2-1.9-12.6-5.3c-8.1-8.2-16.4-16.3-24.4-24.6c-2-2.1-3.1-2.1-5.1,0
	c-7.7,8-15.6,15.8-23.5,23.5c-8.6,8.5-18.2,8.6-26.7,0.2c-5.5-5.3-10.9-10.7-16.2-16.2c-7.7-7.9-7.6-17.9,0.2-25.7
	c7.8-7.9,15.6-15.8,23.6-23.4c2.4-2.3,2.7-3.5,0.1-6c-8.1-7.7-16-15.8-23.9-23.8c-7.5-7.6-7.5-17.7,0.1-25.3
	c5.7-5.8,11.4-11.5,17.2-17.2c7.3-7.1,17.3-7.1,24.6,0.1c8.2,8.1,16.4,16.2,24.5,24.5c2,2.1,3,2.1,5.1,0c7.7-8,15.6-15.7,23.5-23.6
	c8.6-8.5,18.2-8.6,26.6-0.1c5.4,5.4,10.8,10.8,16.2,16.2c7.6,7.7,7.8,17.6,0.3,25.3c-8,8.2-16,16.2-24.2,24.1
	c-2.1,2-2.4,3.1-0.1,5.3c8.1,7.8,16,15.8,23.9,23.8c8,8,8,17.9,0,26c-5.6,5.7-11.3,11.3-16.9,16.9
	C838.5,881.9,834.4,883.7,829.9,883.6z M751,743.9c-2.7,0.1-4.7,1.5-6.5,3.4c-5.1,5.1-10.1,10.2-15.2,15.2
	c-5.4,5.4-5.4,8.9-0.1,14.2c9.7,9.7,19.3,19.6,29.2,29c3,2.8,2.5,4.1-0.2,6.7c-9.9,9.5-19.5,19.3-29.2,29.1c-5.1,5.1-5,8.7,0.1,13.9
	c5.1,5.1,10.1,10.2,15.2,15.2c4.9,4.9,8.2,4.9,13.1,0.1c10.1-10,20.2-20,30.1-30.2c2.1-2.2,3.3-2.3,5.5,0
	c10,10.3,20.2,20.4,30.4,30.5c4.4,4.4,8.1,4.4,12.5,0.1c5.3-5.1,10.4-10.3,15.6-15.5c5.3-5.3,5.3-8.8-0.2-14.2
	c-9.9-9.9-19.8-19.9-29.9-29.7c-2.1-2-2.1-3,0-5c10.4-10.1,20.6-20.5,30.8-30.7c4.1-4.2,4.1-8,0.1-12.1
	c-5.3-5.3-10.6-10.6-15.9-15.9c-5.2-5.2-8.6-5.2-13.9,0.1c-9.6,9.6-19.3,19.1-28.8,28.9c-2.7,2.8-4.1,3.4-7.1,0.2
	c-9.5-10-19.3-19.5-29-29.2C755.8,745.7,753.8,744.1,751,743.9z"/>
<path class="st3" d="M714.1,904.2l-0.5,11.1c-0.3,7.1-6.3,12.6-13.4,12.3l-11.1-0.5c-7.1-0.3-12.6-6.3-12.3-13.4l0.5-11.1
	c0.3-7.1,6.3-12.6,13.4-12.3l11.1,0.5C708.9,891,714.4,897.1,714.1,904.2z"/>
<circle class="st4" cx="790.2" cy="809.2" r="170.4"/>
</svg>
