<?xml version="1.0" encoding="utf-8"?>
<!-- Generator: Adobe Illustrator 28.0.0, SVG Export Plug-In . SVG Version: 6.00 Build 0)  -->
<svg version="1.1" id="Capa_1" xmlns="http://www.w3.org/2000/svg" xmlns:xlink="http://www.w3.org/1999/xlink" x="0px" y="0px"
	 viewBox="0 0 1080 1080" style="enable-background:new 0 0 1080 1080;" xml:space="preserve">
<style type="text/css">
	.st0{fill:#0A0A0A;}
	.st1{fill:#FEFEFE;}
	.st2{fill:#6EE1EB;}
	.st3{fill:#DBB300;}
	.st4{fill:none;stroke:#DBB300;stroke-width:20;stroke-miterlimit:10;}
</style>
<path class="st0" d="M237.7,520.2c0.5-120.3,1.1-240.5,1.3-360.8c0-15.7,10.3-33.4,33.2-35.7c2.5-0.3,5.1-0.3,7.6-0.3
	c169.1,0.2,338.2,0.5,507.4,0.8c8.4,0,16.7,0.9,24.6,4c10.1,3.9,17.9,10.4,20.9,21.3c1.5,5.4,1.5,11.1,1.4,16.8
	c-0.2,45.2-0.5,90.5-0.7,135.7c-0.4,108.8-0.8,217.6-1.2,326.4c0,1.1,0.1,2.2,0,3.3c-0.3,2.9,0.8,4,3.7,4.7
	c26.5,6.5,50.5,18.1,71.4,35.7c36.3,30.5,57.2,69.3,62.4,116.5c7.9,73.1-32,146.9-103.5,180.8c-28.8,13.7-59.2,19.7-91,17.3
	c-46.8-3.4-86.8-22.1-119.1-56.4c-2.9-3.1-5.7-4.3-9.8-4.3c-122.6-0.1-245.2-0.3-367.8-0.5c-3.3,0-6.5-0.1-9.8-0.5
	c-10.2-1-17.4-6.5-23.2-14.5c-6.7-9.3-9.6-19.7-9.5-31.2c0.4-68.1,0.8-136.2,1-204.4c0.2-51.6,0-103.2,0-154.8
	C237.3,520.2,237.5,520.2,237.7,520.2z M638.7,909.4c-0.7-2.9-2.1-4.4-3.1-6.1c-13.4-21.8-21.7-45.5-24.6-70.9
	c-0.8-6.8-0.7-6.8-7.6-6.8c-89.9,0.6-179.8,1.2-269.7,1.8c-2.5,0-5.1,0.2-7.6-0.6c-3.5-1.1-5.8-4.1-5.9-7.7
	c-0.1-3.3,1.9-6.3,5.1-7.7c2.2-1,4.6-0.9,7-0.9c59.8-0.4,119.5-0.7,179.3-1.1c31.2-0.2,62.5-0.3,93.7-0.5c4.5,0,4.5-0.1,4.6-3.8
	c0.7-19.4,4.6-38.1,11.6-56.3c0.4-1.1,1.2-2.3,0.4-3.8c-1.9,0-3.9,0-5.9,0c-94.1,0.6-188.2,1.2-282.3,1.8c-2,0-4,0.1-6-0.2
	c-4.5-0.7-7.5-3.9-7.6-7.9c-0.1-4.2,2.9-7.8,7.6-8.5c2-0.3,4-0.2,6-0.2c97.4-0.6,194.7-1.3,292.1-1.8c3.7,0,5.8-1.2,7.6-4.4
	c11.4-20.3,26.5-37.7,44.7-52.2c1.2-1,2.3-2,4.4-3.7c-3.2,0-5.1,0-7.1,0c-113.9,0.7-227.8,1.5-341.7,2.2c-2.4,0-4.8,0.2-7.1-0.2
	c-4.3-0.6-7.2-4.1-7.1-8.3c0.1-4.2,3-7.4,7.4-8c1.6-0.2,3.3-0.2,4.9-0.2c89.4-0.6,178.7-1.2,268.1-1.8c34.3-0.2,68.7-0.5,103-0.6
	c4.2,0,8.1-0.3,12.1-2.2c30.1-14.1,61.8-19.4,94.9-16.6c5.6,0.5,5.6,0.6,5.6-4.8c0-1.1,0-2.2,0-3.3c0.6-152.4,1.1-304.8,1.7-457.2
	c0-2.7-0.3-5.5-0.2-8.2c0.3-5.7-2.7-9.6-7-12.7c-3.6-2.6-7.7-4.1-12.1-4.4c-3.8-0.2-7.6-0.2-11.4-0.2c-166.6-0.3-333.1-0.7-499.7-1
	c-2.7,0-5.4,0-8.2,0c-5,0-9.7,1.5-14,4c-5.3,3.1-8.9,7.4-8.6,14c0.1,2.9-0.2,5.8-0.2,8.7c-0.5,147.3-1,294.6-1.6,441.9
	c-0.3,91.2-0.7,182.4-1.1,273.6c0,6.6,1.9,12.4,5.6,17.9c3.9,5.7,9.1,8.7,16.1,8.3c2.4-0.1,4.7,0.1,7.1,0.1
	c117,0.3,234,0.5,350.9,0.8C634.6,909.4,636.4,909.4,638.7,909.4z M954,815.1c-0.2-32.7-5.3-55.7-15.9-77.4
	c-30.2-62.1-97.3-97.5-167.1-88.1c-38.5,5.2-71.9,21.6-98.5,49.9c-38.7,41.1-53.8,89.9-42.4,145.4c14.7,71.9,77.8,123.9,154.4,125.5
	c26,0.6,51-4.5,74.3-16.1C919.6,923.9,950.8,874.2,954,815.1z"/>
<path class="st1" d="M638.7,909.4c-2.3,0-4.1,0-5.8,0c-117-0.3-234-0.5-350.9-0.8c-2.4,0-4.7-0.2-7.1-0.1c-7,0.4-12.2-2.5-16.1-8.3
	c-3.7-5.4-5.7-11.2-5.6-17.9c0.4-91.2,0.8-182.4,1.1-273.6c0.5-147.3,1-294.6,1.6-441.9c0-2.9,0.3-5.8,0.2-8.7
	c-0.2-6.6,3.3-10.9,8.6-14c4.3-2.5,8.9-4,14-4c2.7,0,5.4,0,8.2,0c166.6,0.3,333.1,0.7,499.7,1c3.8,0,7.6,0,11.4,0.2
	c4.4,0.3,8.5,1.8,12.1,4.4c4.3,3.1,7.3,7,7,12.7c-0.1,2.7,0.2,5.4,0.2,8.2c-0.5,152.4-1.1,304.8-1.7,457.2c0,1.1,0,2.2,0,3.3
	c0,5.4,0,5.3-5.6,4.8c-33.1-2.7-64.8,2.5-94.9,16.6c-4,1.9-7.9,2.2-12.1,2.2c-34.3,0.1-68.7,0.4-103,0.6
	c-89.4,0.6-178.7,1.2-268.1,1.8c-1.6,0-3.3,0-4.9,0.2c-4.4,0.6-7.3,3.8-7.4,8c-0.1,4.2,2.7,7.7,7.1,8.3c2.3,0.3,4.7,0.2,7.1,0.2
	c113.9-0.7,227.8-1.4,341.7-2.2c1.9,0,3.9,0,7.1,0c-2.1,1.8-3.2,2.8-4.4,3.7c-18.2,14.6-33.3,31.9-44.7,52.2
	c-1.8,3.3-3.9,4.4-7.6,4.4c-97.4,0.5-194.7,1.2-292.1,1.8c-2,0-4-0.1-6,0.2c-4.7,0.7-7.8,4.3-7.6,8.5c0.1,4.1,3.1,7.2,7.6,7.9
	c2,0.3,4,0.2,6,0.2c94.1-0.6,188.2-1.2,282.3-1.8c2,0,4,0,5.9,0c0.8,1.6,0,2.7-0.4,3.8c-7,18.1-10.8,36.9-11.6,56.3
	c-0.1,3.7-0.2,3.8-4.6,3.8c-31.2,0.2-62.5,0.3-93.7,0.5c-59.8,0.4-119.5,0.7-179.3,1.1c-2.4,0-4.7,0-7,0.9c-3.2,1.4-5.2,4.4-5.1,7.7
	c0.1,3.5,2.4,6.5,5.9,7.7c2.5,0.8,5,0.6,7.6,0.6c89.9-0.6,179.8-1.2,269.7-1.8c6.9,0,6.8,0,7.6,6.8c2.9,25.4,11.2,49.1,24.6,70.9
	C636.6,905,638,906.5,638.7,909.4z M535.8,311.3C535.8,311.3,535.8,311.3,535.8,311.3c61.8-0.4,123.5-0.7,185.3-1.1
	c1.3,0,2.5,0,3.8-0.1c11.6-0.9,20.1-7.5,23.1-18.3c1.1-3.9,1.3-7.9,1.4-11.9c0.5-18.3-0.1-36.7-0.2-55
	c-0.1-14.1-10.1-25.2-24.1-27.2c-4.3-0.6-8.7-0.9-13-0.8c-120.1,0.8-240.1,1.5-360.2,2.3c-5.3,0-10.4,1.2-15.5,2.8
	c-7.6,2.4-12.6,7.7-15.3,15.1c-1.5,4.1-2.2,8.4-2.1,12.8c0.2,16.2,0.2,32.3,0.4,48.5c0,3.3,0.1,6.6,0.6,9.8
	c1.3,9,5.6,15.9,13.8,20.3c6,3.2,12.3,4,18.9,4C413.7,312,474.7,311.6,535.8,311.3z M425.7,456.3c4.1,1.2,6.3,3.8,8.2,6.6
	c1.9,2.9,2.8,6.2,3.7,9.6c0.9,3.5,4.1,5.5,7.3,5.3c3.5-0.2,6.4-3,6.8-6.6c0.3-2.4,0.1-4.7-0.7-7c-3.7-11.7-10.6-20.6-22.8-24.4
	c-2.4-0.7-3.1-2-2.9-4.4c0.2-2.3,0.2-4.7,0-7.1c-0.5-4.1-3.5-6.8-7.2-6.9c-3.5-0.1-6.5,2.1-7.4,6c-0.5,2.1-0.7,4.3-0.5,6.5
	c0.3,3.6-1,5.2-4.5,6.7c-13.6,5.8-22.6,15.7-24.5,30.8c-1.8,14.4,2.4,26.6,15.3,34.7c3.1,2,6.5,3.2,9.9,4.4c1.7,0.6,2.8,1.3,2.8,3.4
	c-0.1,11.2,0,22.4,0,33.7c-5.7-0.9-7.8-2.9-8.7-7.6c-0.2-0.9-0.2-1.8-0.4-2.7c-1.2-4-4.6-6.5-8.5-6.3c-4.1,0.2-7.2,3.3-7.8,7.7
	c-1.1,8.7,5.1,18.9,14.2,23.2c2.8,1.3,5.7,2.4,8.7,3.1c2.1,0.5,2.6,1.5,2.5,3.4c-0.1,2.7-0.1,5.4,0,8.2c0,1.4,0,2.9,0.4,4.3
	c1,4.1,4.3,6.6,8.3,6.6c4-0.1,7.1-2.7,7.9-6.9c0.8-3.9,0.4-8,0.3-12c0-2.3,0.6-3.6,3-4.3c14.7-4.4,21.8-15,23-29.7
	c1-11.9-3.4-25.5-18.9-31.8c-1.5-0.6-3-1.4-4.5-1.8c-1.9-0.5-2.5-1.6-2.6-3.5C425.5,483.9,426.9,470.3,425.7,456.3z M644.2,416.6
	c0-0.2,0-0.3,0-0.5c-31.4,0-62.8,0-94.2,0c-2.5,0-5.1-0.2-7.5,0.8c-3.4,1.4-5.2,3.9-5.4,7.5c-0.2,3.5,2.1,6.6,5.5,7.9
	c2.1,0.8,4.3,0.8,6.4,0.8c63.3,0.1,126.7,0.1,190,0.2c1.6,0,3.3,0,4.9-0.4c4-1,6.6-4.5,6.5-8.3c-0.2-3.9-3-7.1-7.1-7.7
	c-2-0.3-4-0.3-6-0.3C706.2,416.6,675.2,416.6,644.2,416.6z M643.6,496.1c0-0.2,0-0.3,0-0.5c-31.2,0-62.4,0-93.6,0
	c-2.5,0-5.1-0.2-7.5,0.8c-3.4,1.4-5.2,3.9-5.4,7.5c-0.2,3.5,2.1,6.6,5.5,7.9c2.1,0.8,4.3,0.8,6.4,0.8c63.3,0.1,126.7,0.1,190,0.2
	c1.6,0,3.3,0,4.9-0.4c4-1,6.6-4.5,6.5-8.3c-0.2-3.9-3-7.1-7.1-7.7c-2-0.3-4-0.3-6-0.3C706,496.1,674.8,496.1,643.6,496.1z
	 M643.7,589.4c0,0.1,0,0.2,0,0.3c31,0,62.1,0,93.1,0c2.2,0,4.4,0,6.5-0.3c3.9-0.6,6.6-3.6,7-7.3c0.4-3.8-2.1-7.3-6.1-8.7
	c-1.9-0.7-3.9-0.5-5.9-0.5c-63.1-0.1-126.3-0.2-189.4-0.2c-1.4,0-2.9,0-4.3,0.1c-4.3,0.6-7.4,3.9-7.5,8c-0.1,4.3,3.1,7.9,7.6,8.4
	c1.8,0.2,3.6,0.1,5.4,0.1C581.3,589.4,612.5,589.4,643.7,589.4z"/>
<path class="st0" d="M535.8,311.3c-61,0.4-122.1,0.8-183.1,1.2c-6.6,0-13-0.8-18.9-4c-8.2-4.4-12.5-11.4-13.8-20.3
	c-0.5-3.2-0.6-6.5-0.6-9.8c-0.2-16.2-0.2-32.3-0.4-48.5c-0.1-4.4,0.7-8.7,2.1-12.8c2.7-7.4,7.6-12.7,15.3-15.1
	c5-1.6,10.1-2.8,15.5-2.8c120.1-0.7,240.1-1.5,360.2-2.3c4.4,0,8.7,0.2,13,0.8c14,2,24,13,24.1,27.2c0.1,18.3,0.7,36.7,0.2,55
	c-0.1,4-0.4,8-1.4,11.9c-3,10.8-11.5,17.4-23.1,18.3c-1.3,0.1-2.5,0.1-3.8,0.1C659.3,310.5,597.5,310.9,535.8,311.3
	C535.8,311.3,535.8,311.3,535.8,311.3z M536.2,294.4C536.2,294.4,536.2,294.4,536.2,294.4c62.3-0.4,124.6-0.7,186.9-1.1
	c7,0,9.6-2.6,9.5-9.6c-0.2-17.4-0.4-34.9-0.5-52.3c0-3.8-0.5-7.6-1-11.4c-0.4-2.9-2.1-4.5-4.5-5.7c-2-1-4.2-0.9-6.4-0.9
	c-18.3,0.2-36.7,0.4-55,0.5c-104.4,0.7-208.9,1.3-313.3,1.9c-2.9,0-5.8,0.1-8.7,0.7c-5.4,1.2-7.4,3.6-7.3,9.1
	c0.1,19.3,0.3,38.5,0.5,57.8c0,1.4,0,2.9,0.4,4.3c1,4.6,3.1,6.4,7.8,6.9c4.1,0.4,8.3,0.8,12.5,0.8
	C416.7,295.3,476.4,294.8,536.2,294.4z"/>
<path class="st0" d="M425.7,456.3c1.1,14.1-0.2,27.6,0.5,41.2c0.1,1.9,0.7,3,2.6,3.5c1.6,0.4,3,1.2,4.5,1.8
	c15.5,6.2,19.8,19.9,18.9,31.8c-1.2,14.7-8.3,25.3-23,29.7c-2.4,0.7-3,2-3,4.3c0.1,4,0.4,8-0.3,12c-0.8,4.2-3.9,6.8-7.9,6.9
	c-4,0.1-7.3-2.5-8.3-6.6c-0.3-1.4-0.3-2.9-0.4-4.3c-0.1-2.7-0.1-5.4,0-8.2c0-1.9-0.4-2.9-2.5-3.4c-3-0.7-5.9-1.8-8.7-3.1
	c-9.1-4.3-15.3-14.5-14.2-23.2c0.5-4.4,3.6-7.5,7.8-7.7c3.9-0.2,7.3,2.3,8.5,6.3c0.3,0.9,0.3,1.8,0.4,2.7c0.9,4.7,3,6.7,8.7,7.6
	c0-11.3,0-22.5,0-33.7c0-2.1-1.1-2.8-2.8-3.4c-3.4-1.2-6.8-2.4-9.9-4.4c-12.9-8.2-17.1-20.3-15.3-34.7c1.9-15.1,11-25,24.5-30.8
	c3.5-1.5,4.8-3.1,4.5-6.7c-0.2-2.1,0-4.4,0.5-6.5c0.9-3.9,3.8-6.1,7.4-6c3.7,0.1,6.7,2.8,7.2,6.9c0.3,2.3,0.2,4.7,0,7.1
	c-0.2,2.3,0.6,3.6,2.9,4.4c12.2,3.8,19,12.7,22.8,24.4c0.7,2.3,1,4.6,0.7,7c-0.5,3.7-3.4,6.4-6.8,6.6c-3.3,0.2-6.4-1.8-7.3-5.3
	c-0.9-3.3-1.8-6.7-3.7-9.6C432,460,429.8,457.5,425.7,456.3z M409.4,458.1c-8.7,4.4-12.6,12.1-11.2,21.9c1,7.4,4.6,11.4,11.2,12.7
	C409.4,481.2,409.4,469.8,409.4,458.1z M426.9,518.5c-1,6-0.9,24.6,0.3,28.8c6.7-3.9,8.8-9.9,8.3-17
	C435,524.8,432.8,520.4,426.9,518.5z"/>
<path class="st0" d="M644.2,416.6c31,0,62.1,0,93.1,0c2,0,4,0,6,0.3c4.1,0.6,7,3.8,7.1,7.7c0.2,3.9-2.4,7.4-6.5,8.3
	c-1.6,0.4-3.2,0.4-4.9,0.4c-63.3-0.1-126.7-0.1-190-0.2c-2.2,0-4.4,0-6.4-0.8c-3.4-1.3-5.7-4.5-5.5-7.9c0.2-3.6,2-6.1,5.4-7.5
	c2.4-1,5-0.8,7.5-0.8c31.4,0,62.8,0,94.2,0C644.2,416.2,644.2,416.4,644.2,416.6z"/>
<path class="st0" d="M643.6,496.1c31.2,0,62.4,0,93.6,0c2,0,4,0,6,0.3c4.1,0.6,7,3.8,7.1,7.7c0.2,3.9-2.4,7.4-6.5,8.3
	c-1.6,0.4-3.2,0.4-4.9,0.4c-63.3-0.1-126.7-0.1-190-0.2c-2.2,0-4.4,0-6.4-0.8c-3.4-1.3-5.7-4.5-5.5-7.9c0.2-3.6,2-6.1,5.4-7.5
	c2.4-1,5-0.8,7.5-0.8c31.2,0,62.4,0,93.6,0C643.6,495.8,643.6,496,643.6,496.1z"/>
<path class="st0" d="M643.7,589.4c-31.2,0-62.4,0-93.6,0c-1.8,0-3.6,0.1-5.4-0.1c-4.6-0.6-7.8-4.2-7.6-8.4c0.1-4.1,3.2-7.4,7.5-8
	c1.4-0.2,2.9-0.1,4.3-0.1c63.1,0.1,126.3,0.2,189.4,0.2c2,0,4-0.1,5.9,0.5c4,1.4,6.4,4.8,6.1,8.7c-0.4,3.7-3.1,6.7-7,7.3
	c-2.1,0.3-4.3,0.3-6.5,0.3c-31,0-62.1,0-93.1,0C643.7,589.6,643.7,589.5,643.7,589.4z"/>
<path class="st1" d="M536.2,294.4c-59.8,0.4-119.5,0.9-179.3,1.2c-4.2,0-8.3-0.4-12.5-0.8c-4.8-0.5-6.8-2.4-7.8-6.9
	c-0.3-1.4-0.4-2.9-0.4-4.3c-0.2-19.3-0.3-38.5-0.5-57.8c0-5.5,1.9-8,7.3-9.1c2.8-0.6,5.8-0.7,8.7-0.7c104.4-0.6,208.9-1.3,313.3-1.9
	c18.3-0.1,36.7-0.3,55-0.5c2.2,0,4.4-0.1,6.4,0.9c2.4,1.1,4.1,2.8,4.5,5.7c0.6,3.8,1,7.6,1,11.4c0.2,17.4,0.4,34.9,0.5,52.3
	c0.1,6.9-2.6,9.5-9.5,9.6C660.8,293.7,598.5,294,536.2,294.4C536.2,294.4,536.2,294.4,536.2,294.4z"/>
<path class="st1" d="M409.4,458.1c0,11.6,0,23.1,0,34.6c-6.6-1.3-10.2-5.3-11.2-12.7C396.8,470.3,400.6,462.6,409.4,458.1z"/>
<path class="st1" d="M426.9,518.5c5.9,1.8,8.1,6.2,8.5,11.8c0.5,7.1-1.5,13.1-8.3,17C426,543.1,425.9,524.5,426.9,518.5z"/>
<path class="st2" d="M221.1,320.1l22,22c5.2,5.2,13.7,5.2,18.9,0l22-22c5.2-5.2,5.2-13.7,0-18.9l-22-22c-5.2-5.2-13.7-5.2-18.9,0
	l-22,22C215.8,306.4,215.8,314.9,221.1,320.1z"/>
<path class="st2" d="M221.1,384.2l22,22c5.2,5.2,13.7,5.2,18.9,0l22-22c5.2-5.2,5.2-13.7,0-18.9l-22-22c-5.2-5.2-13.7-5.2-18.9,0
	l-22,22C215.8,370.5,215.8,379,221.1,384.2z"/>
<path class="st3" d="M927.3,805.1c0.1,34.2-10.2,62.1-29.1,86.9c-10.5,13.7-23.6,24.4-38.4,33.3c-16.1,9.7-33.5,15.5-52,17.8
	c-9.2,1.2-18.5,1.8-28.1,0.7c-12.3-1.4-24.3-3.7-35.9-7.9c-15.2-5.5-28.6-13.8-41-24.1c-10.6-8.8-19.1-19.3-26.2-30.9
	c-9.1-14.8-15.2-30.8-17.7-48.1c-1.2-8.1-2.6-16.1-2.1-24.3c0.9-14.3,3.1-28.3,8.1-41.8c5.5-15,12.9-28.9,23.1-41
	c7-8.3,14.7-16.1,23.5-22.6c15.3-11.4,32.3-19.3,50.8-23.9c13.1-3.3,26.4-4.9,39.8-3.8c15.5,1.2,30.6,4.8,45.1,10.9
	c18.8,7.9,34.5,19.9,47.9,35c14.3,16.1,23.7,35,28.7,56C926.2,787.3,927.8,797.5,927.3,805.1z M674.3,812.7
	c-0.4,6.3,0.6,13.7,2.1,21.2c4.4,22.7,15,42.2,30.8,58.8c6.6,6.9,14.4,12.6,22.6,17.6c15.8,9.7,33,14.9,51.2,16.6
	c13.4,1.2,26.8,0,39.8-3.5c24.5-6.8,45.3-19.5,61.8-39.3c9.9-11.9,17.1-25.1,22.1-39.6c3.1-9.1,4.3-18.5,5.4-28.1
	c0.9-8.1,0.3-16-0.6-23.7c-1.7-14.6-6.4-28.4-13.9-41.4c-11.4-19.9-27.1-35.1-47.3-45.8c-23.5-12.3-48.5-15.5-74.3-11.5
	c-17,2.6-32.9,9-47,18.9c-18.7,13.1-33.4,29.7-42.6,51C677.8,779.1,673.9,794.7,674.3,812.7z"/>
<path class="st3" d="M794.2,836.6c-17.5,1-32.5-14.5-32.6-32.1c-0.1-16,14.8-31.4,32.3-31.4c15.3,0,32.8,15.1,32.2,32.8
	C825.6,821.9,811.5,837.7,794.2,836.6z M808.4,805.6c0-9.4-5.4-14.2-14.7-15c-8.2-0.7-15.3,7.5-14.9,14.4
	c0.4,8.1,7.3,15.3,15.4,15.2C801.9,820,809.6,813.3,808.4,805.6z"/>
<path class="st3" d="M721.8,837.6c-17,0.8-32-14.4-32.2-32c-0.2-16,14.8-31.7,32.8-31.5c14.9,0.2,32.2,15,31.8,32.7
	C753.7,822.8,739.7,839,721.8,837.6z M736.5,806.7c0-9.4-5.4-14.3-14.6-15.1c-8.3-0.7-15.3,7.5-15,14.4c0.4,8.1,7.3,15.3,15.4,15.2
	C730,821.2,737.7,814.3,736.5,806.7z"/>
<path class="st3" d="M863.8,836.6c-16.1,1.2-32.4-14.9-31.7-32.2c0.7-17.8,13.8-31,32.1-31.1c15.2-0.1,31.8,11.5,32.2,32.1
	C896.8,821.9,881.7,837.9,863.8,836.6z M864.1,790.7c-9.9-0.8-15,7.5-15.3,13.6c-0.3,7.8,7.8,16,15.6,15.8
	c7.1-0.2,14.9-6.5,14.9-15.1C879.3,798.1,872.8,789.9,864.1,790.7z"/>
<path class="st3" d="M671.1,896.5l17.3,17.3c2.5,2.5,6.6,2.5,9.1,0l17.3-17.3c2.5-2.5,2.5-6.6,0-9.1l-17.3-17.3
	c-2.5-2.5-6.6-2.5-9.1,0l-17.3,17.3C668.6,889.9,668.6,894,671.1,896.5z"/>
<circle class="st4" cx="790.2" cy="809.2" r="171.3"/>
</svg>
