<?xml version="1.0" encoding="utf-8"?>
<!-- Generator: Adobe Illustrator 28.0.0, SVG Export Plug-In . SVG Version: 6.00 Build 0)  -->
<svg version="1.1" id="Capa_1" xmlns="http://www.w3.org/2000/svg" xmlns:xlink="http://www.w3.org/1999/xlink" x="0px" y="0px"
	 viewBox="0 0 1080 1080" style="enable-background:new 0 0 1080 1080;" xml:space="preserve">
<style type="text/css">
	.st0{fill:#0A0A0A;}
	.st1{fill:#FEFEFE;}
	.st2{fill:#6EE1EB;}
	.st3{fill:#29E4A5;}
	.st4{fill:none;stroke:#29E4A5;stroke-width:20;stroke-miterlimit:10;}
</style>
<g>
	<path class="st0" d="M237.7,520c0.5-119.9,1.1-239.8,1.3-359.7c0-16.8,10.6-34.1,33-36.5c2.3-0.2,4.7-0.3,7.1-0.3
		c165.5,0.3,331,0.5,496.5,0.8c9.3,0,18.5-0.3,27.7,1.5c8.8,1.8,16.6,5.2,22.8,11.8c4.4,4.6,7.1,10.1,7.5,16.5
		c0.3,4.5,0.6,9.1,0.6,13.6c-0.6,153.7-1.2,307.4-1.9,461c0,6.7,0,6.7,6.6,8.4c67,17.4,117.6,71.2,129.2,139.4
		c9.5,56.3-5.6,106.3-43.2,149c-30.1,34.2-68.3,54.5-113.4,60c-60.9,7.4-113.2-11.1-155.8-55.7c-2.5-2.6-4.9-3.7-8.4-3.7
		c-122.6-0.1-245.2-0.3-367.8-0.5c-3.4,0-6.9-0.1-10.3-0.4c-10.4-1-17.8-6.6-23.6-14.8c-6.7-9.4-9.5-19.8-9.4-31.2
		c0.9-83.6,1-167.1,1.2-250.7c0.1-36.1,0-72.3,0-108.4C237.4,520,237.6,520,237.7,520z M638.6,909.4c-0.2-1.1-0.2-1.3-0.3-1.4
		c-0.9-1.6-1.8-3.1-2.8-4.7c-13.4-21.8-21.7-45.4-24.6-70.9c-0.8-6.8-0.7-6.8-7.6-6.8c-89.9,0.6-179.8,1.2-269.7,1.8
		c-2.5,0-5.1,0.2-7.6-0.6c-3.5-1.1-5.8-4.2-5.9-7.7c-0.1-3.3,1.9-6.3,5.1-7.7c2.2-1,4.6-0.9,7-0.9c59.8-0.4,119.5-0.7,179.3-1.1
		c31.2-0.2,62.5-0.3,93.7-0.5c4.5,0,4.5-0.1,4.6-3.8c0.7-19.4,4.6-38.1,11.6-56.3c0.4-1.1,1.2-2.3,0.4-3.8c-1.9,0-3.9,0-5.9,0
		c-94.1,0.6-188.2,1.2-282.3,1.8c-2.4,0-4.7,0.2-7-0.4c-3.9-1.1-6.4-4-6.5-7.7c-0.1-3.7,2.2-6.8,6-8.1c2.3-0.8,4.7-0.6,7-0.6
		c40.9-0.3,81.7-0.6,122.6-0.8c56.7-0.4,113.3-0.8,170-1c3.7,0,5.8-1.2,7.6-4.5c11.4-20.3,26.5-37.7,44.7-52.2
		c1.2-0.9,2.3-1.9,4.4-3.7c-3.2,0-5.2,0-7.1,0c-113.9,0.7-227.8,1.5-341.7,2.2c-2.4,0-4.8,0.2-7.1-0.2c-4.3-0.6-7.2-4.1-7.1-8.3
		c0.1-4.2,3-7.4,7.4-8c1.6-0.2,3.3-0.2,4.9-0.2c89.4-0.6,178.7-1.2,268.1-1.8c34.3-0.2,68.7-0.5,103-0.6c4.2,0,8.1-0.3,12.1-2.2
		c29.9-14,61.4-19.3,94.3-16.7c6.1,0.5,6.1,0.6,6.1-5.4c0-1.1,0-2.2,0-3.3c0.6-152.2,1.1-304.4,1.7-456.7c0-2.7-0.3-5.5-0.2-8.2
		c0.3-5.7-2.7-9.6-7-12.7c-3.6-2.6-7.7-4.1-12.1-4.4c-3.8-0.2-7.6-0.2-11.4-0.2c-166.8-0.3-333.5-0.7-500.3-1c-2.5,0-5.1,0-7.6,0
		c-5,0-9.7,1.5-14,4c-5.3,3.1-8.8,7.4-8.6,14.1c0.1,2.9-0.2,5.8-0.2,8.7c-0.5,147.5-1,295-1.6,442.5c-0.3,91-0.7,182-1.1,273
		c0,6.6,2,12.4,5.6,17.8c3.9,5.7,9.1,8.7,16.1,8.3c2.4-0.1,4.7,0.1,7.1,0.1c117,0.3,234,0.5,350.9,0.8
		C634.6,909.4,636.4,909.4,638.6,909.4z M954,814.8c-0.2-32.6-5.4-55.6-16-77.3c-30-61.5-96.5-97.2-166.7-88
		c-38.9,5.1-72.6,21.7-99.4,50.5c-38.4,41.1-53.2,89.8-41.9,145.1c14.6,71,76.8,123.3,153.4,125.4c26.4,0.7,51.8-4.3,75.4-16.1
		C919.7,923.8,950.9,874,954,814.8z"/>
	<path class="st1" d="M638.6,909.4c-2.2,0-4,0-5.7,0c-117-0.3-234-0.5-350.9-0.8c-2.4,0-4.7-0.2-7.1-0.1c-7,0.4-12.2-2.5-16.1-8.3
		c-3.7-5.4-5.7-11.2-5.6-17.8c0.4-91,0.8-182,1.1-273c0.5-147.5,1-295,1.6-442.5c0-2.9,0.3-5.8,0.2-8.7c-0.2-6.6,3.3-10.9,8.6-14.1
		c4.3-2.5,8.9-4,14-4c2.5,0,5.1,0,7.6,0c166.8,0.3,333.5,0.7,500.3,1c3.8,0,7.6,0,11.4,0.2c4.4,0.3,8.5,1.8,12.1,4.4
		c4.3,3.1,7.3,7,7,12.7c-0.1,2.7,0.2,5.4,0.2,8.2c-0.5,152.2-1.1,304.4-1.7,456.7c0,1.1,0,2.2,0,3.3c0,5.9,0,5.8-6.1,5.4
		c-32.9-2.6-64.4,2.6-94.3,16.7c-4,1.9-7.9,2.2-12.1,2.2c-34.3,0.1-68.7,0.4-103,0.6c-89.4,0.6-178.7,1.2-268.1,1.8
		c-1.6,0-3.3,0-4.9,0.2c-4.4,0.6-7.3,3.7-7.4,8c-0.1,4.2,2.7,7.7,7.1,8.3c2.3,0.3,4.7,0.2,7.1,0.2c113.9-0.7,227.8-1.4,341.7-2.2
		c1.9,0,3.9,0,7.1,0c-2.1,1.8-3.2,2.8-4.4,3.7c-18.2,14.6-33.3,31.9-44.7,52.2c-1.8,3.3-3.9,4.4-7.6,4.5c-56.7,0.2-113.3,0.6-170,1
		c-40.9,0.3-81.7,0.5-122.6,0.8c-2.3,0-4.7-0.2-7,0.6c-3.8,1.3-6.2,4.4-6,8.1c0.1,3.7,2.6,6.7,6.5,7.7c2.3,0.6,4.7,0.4,7,0.4
		c94.1-0.6,188.2-1.2,282.3-1.8c2,0,4,0,5.9,0c0.8,1.6,0,2.7-0.4,3.8c-7,18.1-10.8,36.9-11.6,56.3c-0.1,3.7-0.2,3.8-4.6,3.8
		c-31.2,0.2-62.5,0.3-93.7,0.5c-59.8,0.4-119.5,0.7-179.3,1.1c-2.4,0-4.7-0.1-7,0.9c-3.2,1.4-5.2,4.4-5.1,7.7
		c0.1,3.5,2.4,6.5,5.9,7.7c2.5,0.8,5,0.6,7.6,0.6c89.9-0.6,179.8-1.2,269.7-1.8c6.9,0,6.8,0,7.6,6.8c2.9,25.4,11.2,49.1,24.6,70.9
		c0.9,1.5,1.9,3.1,2.8,4.7C638.4,908.2,638.4,908.4,638.6,909.4z M536,311.2C536,311.3,536,311.3,536,311.2
		c61.8-0.3,123.5-0.7,185.3-1.1c1.1,0,2.2,0,3.3-0.1c13-0.8,21.7-8.5,24-21.2c0.6-3.1,0.7-6.1,0.8-9.2c0.5-18.2-0.1-36.3-0.2-54.5
		c-0.1-14.5-10-25.5-24.4-27.5c-4.5-0.6-9-0.8-13.6-0.8c-119.7,0.8-239.4,1.5-359.1,2.2c-3.9,0-7.5,0.9-11.3,1.6
		c-13.8,2.4-21.6,13.1-21.8,27.3c-0.3,17.6,0.1,35.2,0.3,52.9c0,2.5,0.2,5.1,0.6,7.6c1.4,8.7,5.5,15.6,13.5,19.9
		c5.9,3.2,12.3,4.2,18.9,4.1C413.6,312,474.8,311.6,536,311.2z M425.6,456c4.3,1.7,6.6,4.2,8.5,7.1c1.8,2.8,2.6,5.9,3.5,9.1
		c1,3.7,4.4,5.9,7.8,5.5c3.5-0.4,6.1-3.2,6.5-7c0.2-2.4-0.1-4.7-0.8-7c-3.8-11.5-10.5-20.2-22.5-24c-2.6-0.8-3.2-2.3-3.1-4.8
		c0.1-2.3,0.2-4.7-0.1-7.1c-0.5-3.8-3.5-6.4-6.9-6.6c-3.5-0.2-6.6,2-7.5,5.8c-0.5,2.3-0.7,4.7-0.6,7c0.2,3.4-1,4.9-4.3,6.3
		c-13.6,5.8-22.7,15.6-24.6,30.7c-1.6,12.5,1,23.8,11.6,32.2c3.9,3.1,8.2,5.4,12.9,6.8c2.8,0.8,3.5,2.3,3.5,5.1
		c-0.2,8.9-0.1,17.8-0.1,26.7c0,1.9,0,3.8,0,6.1c-5.5-1.4-8.2-3.9-8.9-9c-0.9-6.8-6.9-10.1-12.2-7.1c-3.4,1.9-4.6,5-4.4,8.7
		c0.5,9.8,5.7,16.6,14.1,21.1c2.5,1.4,5.3,2.5,8.1,3c2.9,0.5,3.4,2,3.3,4.5c-0.1,2.9-0.1,5.8,0,8.7c0.2,5.8,3.5,9.4,8.4,9.4
		c4.9,0,8.1-3.5,8.4-9.4c0.2-2.9,0.2-5.8,0-8.7c-0.2-3,0.8-4.3,3.9-5.3c13.2-4.1,21.5-15.3,22.2-29.8c0.6-12.5-4.1-25.2-18.3-31.1
		c-1.5-0.6-2.9-1.5-4.5-1.9c-2.7-0.6-3.3-2.1-3.4-4.7C425.5,483.3,426.9,470,425.6,456z M644.2,433.1c0,0.1,0,0.1,0,0.2
		c31.2,0,62.4,0,93.6,0c2.2,0,4.4,0.2,6.5-0.5c3.7-1.2,6.2-4.4,6.1-8.1c-0.1-3.9-2.9-7.1-7-7.8c-1.4-0.2-2.9-0.3-4.3-0.3
		c-63.5-0.2-127-0.4-190.5-0.5c-1.6,0-3.3,0.1-4.8,0.5c-4.1,1-6.7,4.4-6.6,8.2c0.1,3.7,2.6,6.6,6.5,7.8c2.1,0.6,4.3,0.5,6.5,0.5
		C581.4,433.1,612.8,433.1,644.2,433.1z M644.3,496.1c0-0.2,0-0.3,0-0.5c-31.4,0-62.8,0-94.2,0c-2.2,0-4.3-0.2-6.5,0.4
		c-4.1,1.2-6.7,4.4-6.6,8.2c0.1,3.7,2.6,6.6,6.4,7.8c1.8,0.5,3.6,0.5,5.4,0.5c63.3,0.1,126.7,0.1,190,0.2c1.4,0,2.9,0.1,4.3-0.2
		c4.3-0.8,7.2-4.3,7.1-8.3c-0.1-4.1-3.1-7.4-7.5-7.9c-2-0.3-4-0.2-6-0.2C706,496.1,675.2,496.1,644.3,496.1z M644,589.4
		c0,0.1,0,0.2,0,0.3c31,0,62.1,0,93.1,0c2,0,4,0,6-0.3c4.2-0.6,7-3.7,7.3-7.6c0.3-3.8-2.3-7.2-6.3-8.5c-2-0.6-4-0.4-5.9-0.4
		c-63-0.1-125.9-0.2-188.9-0.2c-1.6,0-3.3-0.1-4.9,0.2c-4.3,0.6-7.3,4.1-7.3,8.2c0,4.1,3.1,7.5,7.3,8.1c1.8,0.3,3.6,0.2,5.4,0.2
		C581.2,589.4,612.6,589.4,644,589.4z"/>
	<path class="st0" d="M536,311.2c-61.2,0.4-122.4,0.8-183.6,1.2c-6.6,0-13-0.9-18.9-4.1c-8-4.3-12.1-11.2-13.5-19.9
		c-0.4-2.5-0.6-5.1-0.6-7.6c-0.2-17.6-0.6-35.2-0.3-52.9c0.2-14.2,8-24.8,21.8-27.3c3.7-0.7,7.4-1.6,11.3-1.6
		c119.7-0.7,239.4-1.5,359.1-2.2c4.5,0,9.1,0.2,13.6,0.8c14.4,2,24.3,13,24.4,27.5c0.1,18.2,0.7,36.3,0.2,54.5
		c-0.1,3.1-0.2,6.2-0.8,9.2c-2.4,12.7-11.1,20.4-24,21.2c-1.1,0.1-2.2,0.1-3.3,0.1C659.5,310.5,597.8,310.9,536,311.2
		C536,311.3,536,311.3,536,311.2z M537,294.4C537,294.4,537,294.4,537,294.4c61.9-0.4,123.9-0.7,185.8-1.1c7.3,0,9.8-2.6,9.7-9.9
		c-0.2-15.8-0.3-31.6-0.4-47.4c-0.1-5.3-0.2-10.5-1-15.7c-0.5-3.3-2.5-5.1-5.4-6.2c-1.8-0.7-3.6-0.6-5.4-0.6c-14,0.2-28,0.3-42,0.4
		c-108.8,0.7-217.6,1.4-326.4,2.1c-2.9,0-5.8,0.2-8.7,0.7c-5.7,1-7.6,3.6-7.5,9.4c0.2,18.5,0.3,37,0.5,55.6c0,1.8-0.1,3.7,0.2,5.4
		c0.8,5.1,3,7.1,8.3,7.7c4.1,0.5,8.3,0.8,12.5,0.8C417.2,295.3,477.1,294.8,537,294.4z"/>
	<path class="st0" d="M425.6,456c1.3,14-0.1,27.2,0.5,40.5c0.1,2.6,0.7,4.1,3.4,4.7c1.6,0.4,3,1.2,4.5,1.9
		c14.1,5.9,18.9,18.7,18.3,31.1c-0.7,14.5-9,25.7-22.2,29.8c-3.1,1-4.1,2.3-3.9,5.3c0.2,2.9,0.2,5.8,0,8.7c-0.3,5.9-3.6,9.4-8.4,9.4
		c-4.9,0-8.2-3.7-8.4-9.4c-0.1-2.9-0.1-5.8,0-8.7c0.1-2.5-0.4-4-3.3-4.5c-2.8-0.5-5.6-1.6-8.1-3c-8.4-4.5-13.6-11.3-14.1-21.1
		c-0.2-3.7,1-6.8,4.4-8.7c5.3-3,11.3,0.3,12.2,7.1c0.7,5.1,3.4,7.6,8.9,9c0-2.3,0-4.2,0-6.1c0-8.9-0.1-17.8,0.1-26.7
		c0-2.8-0.7-4.3-3.5-5.1c-4.7-1.4-9-3.7-12.9-6.8c-10.5-8.4-13.2-19.7-11.6-32.2c1.9-15.1,11.1-24.9,24.6-30.7
		c3.3-1.4,4.5-2.9,4.3-6.3c-0.1-2.3,0.1-4.7,0.6-7c0.9-3.8,4-6,7.5-5.8c3.5,0.2,6.4,2.8,6.9,6.6c0.3,2.3,0.2,4.7,0.1,7.1
		c-0.1,2.5,0.4,3.9,3.1,4.8c11.9,3.8,18.7,12.5,22.5,24c0.7,2.3,1.1,4.6,0.8,7c-0.4,3.8-3.1,6.5-6.5,7c-3.4,0.4-6.7-1.7-7.8-5.5
		c-0.9-3.2-1.7-6.3-3.5-9.1C432.2,460.2,430,457.8,425.6,456z M409.1,458.2c-8.9,4.8-12.6,12.7-10.7,23c1.2,6.5,5,10.5,11.3,11.5
		c0-11.3,0-22.4,0-33.6C409.6,458.8,409.2,458.5,409.1,458.2z M426.6,546.9c6.3-2.5,9.4-8.3,8.9-16.3c-0.4-6.6-3-10.1-8.9-11.7
		C426.6,528.2,426.6,537.5,426.6,546.9z"/>
	<path class="st0" d="M644.2,433.1c-31.4,0-62.8,0-94.2,0c-2.2,0-4.3,0.1-6.5-0.5c-3.9-1.2-6.4-4.1-6.5-7.8
		c-0.1-3.9,2.5-7.2,6.6-8.2c1.6-0.4,3.2-0.5,4.8-0.5c63.5,0.1,127,0.3,190.5,0.5c1.4,0,2.9,0,4.3,0.3c4.1,0.7,6.9,4,7,7.8
		c0.1,3.7-2.3,6.9-6.1,8.1c-2.1,0.7-4.3,0.5-6.5,0.5c-31.2,0-62.4,0-93.6,0C644.2,433.2,644.2,433.2,644.2,433.1z"/>
	<path class="st0" d="M644.3,496.1c30.8,0,61.7,0,92.5,0c2,0,4,0,6,0.2c4.4,0.6,7.4,3.9,7.5,7.9c0.1,4.1-2.8,7.6-7.1,8.3
		c-1.4,0.3-2.9,0.2-4.3,0.2c-63.3-0.1-126.7-0.1-190-0.2c-1.8,0-3.6,0-5.4-0.5c-3.9-1.2-6.4-4.1-6.4-7.8c-0.1-3.9,2.5-7.1,6.6-8.2
		c2.1-0.6,4.3-0.4,6.5-0.4c31.4,0,62.8,0,94.2,0C644.3,495.8,644.3,496,644.3,496.1z"/>
	<path class="st0" d="M644,589.4c-31.4,0-62.8,0-94.2,0c-1.8,0-3.6,0.1-5.4-0.2c-4.3-0.6-7.3-4.1-7.3-8.1c0-4.1,3-7.5,7.3-8.2
		c1.6-0.2,3.3-0.2,4.9-0.2c63,0.1,125.9,0.2,188.9,0.2c2,0,4-0.2,5.9,0.4c4,1.3,6.5,4.7,6.3,8.5c-0.3,3.9-3.1,7-7.3,7.6
		c-2,0.3-4,0.3-6,0.3c-31,0-62.1,0-93.1,0C644,589.6,644,589.5,644,589.4z"/>
	<path class="st1" d="M537,294.4c-59.9,0.4-119.9,0.9-179.8,1.3c-4.2,0-8.3-0.3-12.5-0.8c-5.3-0.7-7.4-2.6-8.3-7.7
		c-0.3-1.8-0.2-3.6-0.2-5.4c-0.2-18.5-0.3-37-0.5-55.6c-0.1-5.9,1.8-8.4,7.5-9.4c2.8-0.5,5.8-0.7,8.7-0.7
		c108.8-0.7,217.6-1.4,326.4-2.1c14-0.1,28-0.3,42-0.4c1.8,0,3.6-0.1,5.4,0.6c2.9,1.1,4.9,2.9,5.4,6.2c0.9,5.2,1,10.5,1,15.7
		c0.2,15.8,0.3,31.6,0.4,47.4c0.1,7.3-2.4,9.9-9.7,9.9C660.9,293.7,599,294,537,294.4C537,294.4,537,294.4,537,294.4z"/>
	<path class="st1" d="M409.1,458.2c0.2,0.3,0.5,0.6,0.5,0.8c0,11.2,0,22.4,0,33.6c-6.3-1-10.1-5-11.3-11.5
		C396.5,471,400.2,463.1,409.1,458.2z"/>
	<path class="st1" d="M426.6,546.9c0-9.4,0-18.7,0-28c5.9,1.7,8.5,5.1,8.9,11.7C436,538.6,432.9,544.4,426.6,546.9z"/>
	<path class="st2" d="M215.1,323.4l22,22c5.2,5.2,13.7,5.2,18.9,0l22-22c5.2-5.2,5.2-13.7,0-18.9l-22-22c-5.2-5.2-13.7-5.2-18.9,0
		l-22,22C209.8,309.7,209.8,318.2,215.1,323.4z"/>
	<path class="st2" d="M215.1,387.5l22,22c5.2,5.2,13.7,5.2,18.9,0l22-22c5.2-5.2,5.2-13.7,0-18.9l-22-22c-5.2-5.2-13.7-5.2-18.9,0
		l-22,22C209.8,373.8,209.8,382.3,215.1,387.5z"/>
	<path class="st3" d="M930.8,804.3c0.2,34.7-10.2,63-29.6,88.1c-10.7,13.9-24.1,24.9-39.3,33.7c-15,8.8-31,14.5-48.3,16.9
		c-8,1.1-15.9,2.4-23.9,2c-23.5-1.2-45.7-6.9-66.1-19.1c-9.8-5.9-18.9-12.6-26.8-20.7c-13.5-13.7-23.7-29.6-30.3-47.8
		c-4.1-11.4-6.6-23-7.7-35.1c-2.9-29.7,4.4-56.8,19.4-82.1c10.4-17.6,24.5-31.9,41.3-43.3c16.3-10.9,34.2-18,53.6-21.4
		c10.1-1.8,20.3-2.8,30.5-2c15.7,1.2,30.9,4.6,45.6,10.7c12.5,5.2,23.9,12.1,34,20.8c12.4,10.7,23.1,22.9,30.9,37.5
		c7,13.2,12.2,26.9,14.8,41.7C930.3,791.8,931.1,799.4,930.8,804.3z M794.9,691c-5.6-0.5-12.7,0.1-19.7,1.5
		c-19.8,3.9-38.1,11.3-53.8,24.4c-9.3,7.7-17.8,16.3-24.9,26.2c-5,7-9,14.6-12.3,22.6c-4.6,11.4-8,23.2-8.7,35.5
		c-0.5,8.5-0.5,17.1,0.7,25.7c2.4,16.7,7.9,32.2,16.9,46.4c6.4,10,13.9,19.1,23.2,26.8c10.1,8.5,21.3,15,33.4,19.7
		c14.4,5.6,29.5,8.2,45,7.9c11.6-0.2,22.8-2.1,33.9-5.4c17.2-5.1,32.2-14,45.4-25.8c12.8-11.4,22.5-25.3,29.6-41
		c7.1-15.6,9.5-32.1,10.5-48.9c0.2-3.4-1.2-6.4-1.1-9.8c0.2-4.8-0.9-9.4-1.9-14c-2.5-11.7-6.9-22.6-12.7-33.1
		c-6.9-12.6-16.2-23.3-27.1-32.1C849.7,699.9,824.8,690.4,794.9,691z"/>
	<path class="st3" d="M893.3,774.8c-0.1,6.1-2.2,11.4-6.5,15.7c-30.9,30.8-61.6,61.8-92.7,92.4c-6.3,6.2-12.9,12.3-20.8,16.8
		c-7.6,4.3-14.6,3.9-21.4-1.1c-2.6-1.9-5.4-3.8-7.7-6.2c-15.6-16-31.3-31.9-46.7-48c-4.2-4.3-7.7-9.3-10.8-14.4
		c-4.4-7.3-3.6-15.5,2.5-22.1c7-7.5,14.3-14.8,21.8-21.7c3.9-3.6,9-5.8,14.2-6.8c4.5-0.9,8.6,1.5,12.2,4c3.4,2.4,6.6,5.2,9.5,8.2
		c4.7,4.9,9.6,9.6,14.4,14.4c3.8,3.8,4,3.8,7.9-0.1c16.6-16.6,33.3-33.1,49.7-49.8c6.9-7.1,14.4-13.6,21.6-20.3
		c7.9-7.3,18.6-7.1,26,0.5c7.1,7.3,15.1,13.9,21.1,22.3C891,763.4,893.6,768.6,893.3,774.8z M876.8,773.9c0.2-3.1-1.2-5.4-3.2-7.4
		c-4.9-4.9-9.8-9.9-14.8-14.8c-5.9-6-7.2-6-13.4-0.1c-0.9,0.9-2,1.7-2.7,2.8c-2.6,4.1-6.3,7.1-9.6,10.5
		c-16.6,17.3-34.4,33.5-50.4,51.4c-7.1,7.9-15,15.1-22.5,22.6c-1,1-2.1,2.1-3.4,2.8c-3.6,2.1-8.5,1.3-11-1.7
		c-2.3-2.8-2.5-7.5-0.1-10.7c1.3-1.7,2.9-3.3,4.6-4.7c2.2-1.9,2.1-3.4,0-5.4c-6.2-6-12.2-12.1-18.3-18.2c-4.5-4.5-8.3-4.5-13.6-0.7
		c-5.5,4-10,9.1-14.8,13.9c-1,1-1.7,2.4-2.5,3.6c-1.6,2.3-1.3,4.4,0.3,6.5c3.1,4.1,6,8.3,9.6,11.9c13.1,13.1,26.2,26.2,39.3,39.3
		c1.6,1.6,3,3.3,4.7,4.6c2.5,1.8,5.1,4,8.4,3.2c4.6-1.1,8.9-3,12.6-6.2c4.7-4.1,8.8-8.7,13.1-13.1c27-27.2,54.1-54.3,81.2-81.3
		c1.2-1.2,2.3-2.5,3.7-3.3C876.6,778.1,877,776.1,876.8,773.9z"/>
	<path class="st3" d="M692.7,918.6l17.4,17.4c2.5,2.5,6.7,2.5,9.2,0l17.4-17.4c2.5-2.5,2.5-6.7,0-9.2L719.4,892
		c-2.5-2.5-6.7-2.5-9.2,0l-17.4,17.4C690.2,911.9,690.2,916.1,692.7,918.6z"/>
	<path class="st3" d="M795.4,856.4l17.4,17.4c2.5,2.5,6.7,2.5,9.2,0l17.4-17.4c2.5-2.5,2.5-6.7,0-9.2L822,829.8
		c-2.5-2.5-6.7-2.5-9.2,0l-17.4,17.4C792.8,849.7,792.8,853.9,795.4,856.4z"/>
	<circle class="st4" cx="790.2" cy="809.2" r="170.9"/>
</g>
</svg>
