<?xml version="1.0" encoding="utf-8"?>
<!-- Generator: Adobe Illustrator 28.0.0, SVG Export Plug-In . SVG Version: 6.00 Build 0)  -->
<svg version="1.1" id="Capa_1" xmlns="http://www.w3.org/2000/svg" xmlns:xlink="http://www.w3.org/1999/xlink" x="0px" y="0px"
	 viewBox="0 0 1080 1080" style="enable-background:new 0 0 1080 1080;" xml:space="preserve">
<style type="text/css">
	.st0{fill:#050606;}
	.st1{fill:#0A0A0A;}
	.st2{fill:#6EE1EB;}
	.st3{fill:#29E4A5;}
	.st4{fill:none;stroke:#29E4A5;stroke-width:20;stroke-miterlimit:10;}
</style>
<g>
	<path class="st0" d="M449.9,506.5c52.5-0.4,105-0.8,157.5-1.2c0.4,0,0.7,0,1.1,0c4-0.1,4.1-0.1,4.1-4.2c0-7.6,0-15.3,0-22.9
		c0-2.4,0.1-4.8,1.4-6.9c2.1-3.5,5.5-4.3,9.4-4.3c28.2-0.1,56.3-0.3,84.5-0.5c37.6-0.3,75.2-0.6,112.8-0.8c0.7,0,1.5,0,2.2,0
		c6.7,0.2,7.9,1.3,8,8c1.1,44.7,0.3,89.4,0.7,134c0.1,7.1,0.1,14.2,0.1,21.3c0,6.2,0,6.2,6.2,7.8c23.9,6,45.7,16.4,65.1,31.7
		c39,30.7,61.7,70.8,66.8,120.3c7.8,75.5-34.4,148.6-103.7,180.7c-28.7,13.3-58.9,19.5-90.5,17.2c-46.4-3.3-86.2-21.6-118.5-55.4
		c-15-15.6-26.4-33.6-34.5-53.7c-2.1-5.2-2.2-5.2-7.7-5.2c-64.3,0.1-128.6,0.3-192.9,0.5c-40.9,0.1-81.7,0.3-122.6,0.5
		c-1.1,0-2.2,0-3.3,0c-10.9,0-13.5-2.5-13.5-13.5c-0.2-72.5-0.3-144.9-0.4-217.4c-0.1-41.8-0.1-83.6-0.2-125.3
		c0-6.9,2.6-9.7,9.3-9.8C344.2,507.2,397,506.8,449.9,506.5z M954,816.2c0.1-30.8-4.8-53.9-12.9-72.5
		c-29.2-66.4-98.2-103.7-169.8-94.3c-38.7,5.1-72.2,21.6-99,50.2c-38.5,41-53.5,89.7-42.2,145c14.7,72.2,77.9,124,154.2,125.8
		c26.2,0.6,51.4-4.5,74.8-16.2C919.6,923.8,950.8,874.2,954,816.2z"/>
	<path class="st1" d="M602.8,249.5c0.2,2.7,0.4,4.9,0.6,7c0.4,3.5,0.4,3.4,4,3c18.4-2.1,36.8-4.2,55.2-6.2c1.3-0.1,2.5-0.3,3.8-0.2
		c4.2,0.3,7.3,3.2,7.7,7.1c0.5,4-1.6,7.5-5.7,8.8c-4,1.3-8.2,1.3-12.4,1.8c-16.2,1.9-32.5,3.7-48.7,5.6c-0.5,0.1-1,0.3-1.7,0.5
		c0.4,3.8,0.8,7.6,1.1,11.4c0.2,2.6,1.3,3.1,3.9,2.8c18.4-2.2,36.8-4.2,55.2-6.3c1.3-0.1,2.5-0.3,3.8-0.2c4.2,0.4,7.2,3.2,7.7,7.2
		c0.5,4-1.6,7.4-5.7,8.8c-4,1.3-8.2,1.3-12.4,1.8c-16,1.9-32.1,3.7-48.1,5.6c-0.5,0.1-1,0.3-1.5,0.5c-0.5,1.9,0,3.6,0.2,5.4
		c0.4,5.1,0.4,5,5.3,4.5c18.4-2.1,36.8-4.2,55.2-6.3c0.9-0.1,1.8-0.2,2.7-0.2c4.8,0.1,8.3,3,8.7,7.3c0.5,4.4-2.1,8.1-6.8,9.1
		c-3.5,0.8-7.2,1-10.8,1.4c-16.2,1.9-32.5,3.8-48.7,5.5c-2.6,0.3-3.5,0.9-3,3.7c0.6,3,0.8,6.1,1,9.2c0.2,2.3,1.2,3,3.6,2.7
		c8.6-1.1,17.3-2,26-3c10.5-1.2,20.9-2.4,31.4-3.6c0.7-0.1,1.5-0.1,2.2-0.1c5,0,8.6,3.1,9,7.6c0.4,4.2-2.4,8-7.2,8.8
		c-5.2,0.9-10.4,1.4-15.7,2c-14.1,1.6-28.1,3.1-42.2,4.7c-4.7,0.5-4.7,0.6-4.3,5.3c0.1,0.9,0.2,1.8,0.2,2.7c0,2.6,1.2,3.3,3.8,3
		c9-1.2,18-2.1,27.1-3.1c10.5-1.2,20.9-2.4,31.4-3.6c1.1-0.1,2.2-0.2,3.3-0.1c4.4,0.3,7.6,3.4,8,7.5c0.4,4-2.2,7.9-6.6,8.7
		c-5.5,1-11.1,1.5-16.7,2.2c-14.1,1.6-28.1,3.1-42.2,4.8c-1.8,0.2-3.6,0.2-5.5,1.3c0.4,3.8,0.9,7.8,1.2,11.7c0.2,2.6,1,3.7,4,3.3
		c15.1-1.9,30.3-3.5,45.4-5.2c4.1-0.5,8.3-1,12.4-1.5c0.7-0.1,1.5-0.1,2.2-0.1c5,0.1,8.6,3.1,9,7.6c0.4,4.2-2.5,8-7.2,8.8
		c-5.5,0.9-11.2,1.5-16.7,2.1c-14.2,1.6-28.5,3.2-42.7,4.9c-4,0.5-4,0.6-3.7,4.6c0,0.2,0,0.4,0,0.5c0.5,5.9,0.5,5.9,6.2,5.3
		c18.6-2.1,37.2-4.2,55.7-6.3c1.4-0.2,2.9-0.3,4.3-0.3c4.7,0.2,8.1,3.4,8.4,7.7c0.3,4-2.4,7.8-6.8,8.6c-4.4,0.9-9,1.3-13.5,1.8
		c-16.9,2-33.9,3.9-50.8,5.9c-2.7,0.3-5.4,0.9-8.1,1c-6.6,0.4-9.9-2.2-10.7-8.8c-0.8-6.5-1.5-13-2.2-19.5
		c-3.2-28.7-6.4-57.4-9.6-86.1c-2.7-24.4-5.4-48.7-8-73.1c-1.1-10.1-2.2-20.2-3.4-30.3c-0.4-3.7-0.5-3.8-4.5-3.3
		c-26.7,3.1-53.4,6.2-80.1,9.3c-23.8,2.7-47.6,5.3-71.4,8.1c-23.8,2.7-47.6,5.5-71.4,8.3c-16.8,1.9-33.5,3.8-50.3,5.7
		c-4.7,0.5-4.8,0.5-4.4,5.1c1.5,16.1,3.1,32.2,4.7,48.2c2,20.4,4.1,40.8,6.1,61.2c2.4,24.2,4.8,48.4,7.2,72.6
		c0.8,8.5,1.7,17,2.5,25.5c0.2,2,0.3,4,0.1,6c-0.4,3.8-3.5,6.7-7.2,7c-3.5,0.4-6.8-1.6-8.3-4.9c-0.7-1.5-0.8-3.1-1-4.8
		c-0.7-7.2-1.4-14.5-2.2-21.7c-0.5-5.3-0.5-5.3-5.8-5.3c-16.3,0.1-32.7,0.3-49,0.4c-5.6,0-4.9-0.2-4.9,5.1
		c0.1,44.7,0.1,89.4,0.2,134c0.2,70.7,0.4,141.3,0.7,212c0,2.3,0.3,4.7-0.4,7c-1.2,4.1-4.4,6.5-8.4,6.3c-3.8-0.2-6.7-2.7-7.6-6.6
		c-0.4-1.9-0.5-4-0.5-5.9c-0.3-118.8-0.6-237.6-0.8-356.4c0-1.3,0-2.5,0-3.8c0.4-5.4,2.1-7.4,7.5-8.3c2-0.3,4-0.3,6-0.3
		c18.3-0.1,36.7-0.1,55-0.2c1.8,0,3.6,0.3,5.6-0.5c-1.1-11.6-2.2-23.1-3.3-34.7c-2-20.1-4-40.1-6-60.2c-2.6-26.4-5.2-52.8-7.9-79.1
		c-0.8-7.5,2.7-12.3,10.1-13.3c14.6-1.9,29.2-3.5,43.8-5.2c16.4-1.9,32.8-3.8,49.2-5.5c2.6-0.3,3.3-1.2,3-3.8
		c-1-7.7-1.8-15.5-2.8-23.2c-0.9-6.3,1.7-10.2,8.2-11c10.1-1.3,20.2-2.3,30.3-3.4c21.5-2.4,42.9-4.8,64.4-7.2
		c20.9-2.3,41.9-4.6,62.8-7c21.1-2.3,42.2-4.7,63.3-7c18-2,36.1-4,54.1-6.1c5.8-0.6,11.5-1.4,17.3-2c8-0.8,11.6,2,12.6,9.9
		c3.1,26.1,6,52.3,9.1,78.4c3.1,26.5,6.3,53,9.3,79.5c2.7,23.4,5.4,46.9,8.1,70.3c1,9,2.1,18,3.2,27c0.4,3.8,0.4,3.9,4.2,3.8
		c13.3-0.1,26.5-0.3,39.8-0.4c2,0,4-0.1,6,0.3c3.9,0.7,6.5,3.8,6.7,7.5c0.2,3.8-2,6.9-5.8,8.3c-1.8,0.7-3.6,0.6-5.4,0.6
		c-16.3,0.2-32.7,0.3-49,0.5c-2.2,0-4.4,0.2-6.5-0.7c-3.3-1.3-5-3.9-5.4-7.5c-1.7-15.2-3.5-30.3-5.3-45.4
		c-2.8-23.6-5.5-47.2-8.3-70.9c-2.3-20-4.7-40-7-60c-2.8-23.8-5.6-47.6-8.3-71.4c-0.4-3.4-0.9-6.8-1.2-10.3
		c-0.2-1.9-1.1-2.3-2.9-2.1c-13.3,1.5-26.7,3-40,4.5c-18.2,2-36.4,4.1-54.7,6.1c-21.3,2.4-42.6,4.8-63.9,7.2
		c-17.3,1.9-34.6,3.9-52,5.8c-20.7,2.3-41.5,4.5-62.2,6.8c-3.9,0.4-4.1,0.5-3.5,4.3c0.8,5.2,0.7,10.5,2.3,15.9
		c10.3-1.2,20.6-2.3,30.8-3.5c20.9-2.4,41.8-4.8,62.8-7.2c20.7-2.4,41.5-4.8,62.2-7.1c7.2-0.8,14.4-1.8,21.6-2.5
		c8.4-0.8,13.1,2.9,14.3,11.1c0.6,3.6,0.6,3.6,4.5,3.2c17.7-2,35.4-3.9,53-5.9c1.3-0.1,2.5-0.3,3.8-0.3c4.5,0.2,7.8,3.1,8.2,7.2
		c0.5,4.2-1.8,7.9-6.2,8.9c-4,0.9-8.2,1.2-12.4,1.7c-15.3,1.8-30.7,3.5-46,5.3C604.6,249.1,603.9,249.3,602.8,249.5z"/>
	<path class="st1" d="M354,463.4c-5.3,0-8.9-3-9.3-7.5c-0.4-4.5,2.4-8.3,7.5-9.1c7.4-1.1,14.8-1.7,22.2-2.5
		c26.2-2.8,52.3-5.6,78.5-8.4c21.7-2.3,43.3-4.6,65-6.9c19.1-2,38.3-4.1,57.4-6.1c1.6-0.2,3.3-0.4,4.9-0.4c4.7,0.1,8.2,3.2,8.7,7.5
		c0.5,4.1-2.4,8.1-7,8.9c-4.6,0.8-9.4,1.3-14,1.8c-25.5,2.7-50.9,5.3-76.4,8.1c-28.9,3.1-57.8,6.2-86.6,9.3
		c-16.4,1.8-32.9,3.4-49.3,5.2C354.9,463.3,354.3,463.3,354,463.4z"/>
	<path class="st1" d="M343.5,370.7c-5.1-0.1-8.7-3-9.3-7.2c-0.6-4.2,2.1-8.2,6.7-9.1c4.2-0.9,8.6-1.2,12.9-1.6
		c26.2-2.8,52.3-5.6,78.5-8.4c22-2.3,44.1-4.6,66.1-7c22-2.3,44-4.7,66.1-7.1c2-0.2,4-0.5,6-0.4c4.4,0.3,7.5,3.6,7.8,7.7
		c0.3,4-2.2,7.4-6.2,8.5c-1.6,0.4-3.2,0.7-4.8,0.8c-17.9,1.9-35.7,3.8-53.6,5.7c-22.7,2.4-45.5,4.9-68.2,7.3
		c-22,2.3-44.1,4.7-66.1,7c-11.2,1.2-22.4,2.4-33.6,3.5C345,370.5,344.1,370.6,343.5,370.7z"/>
	<path class="st1" d="M348.2,402.8c-3.3,0.2-6.2-0.5-8.3-3.1c-4-5-1.3-12.1,5.4-13.2c5.7-1,11.5-1.5,17.3-2.1
		c26.4-2.8,52.7-5.7,79.1-8.5c22.2-2.4,44.4-4.7,66.6-7c20.6-2.2,41.2-4.4,61.7-6.6c1.1-0.1,2.2-0.3,3.3-0.3c5,0,8.7,3.2,9,7.6
		c0.3,4.1-2.6,8-7.3,8.9c-3.2,0.6-6.5,0.8-9.7,1.2c-42.6,4.5-85.2,9-127.8,13.5c-28.7,3.1-57.4,6.2-86.1,9.3
		C350.3,402.7,349.2,402.7,348.2,402.8z"/>
	<path class="st1" d="M573.7,390.6c0.4,0,0.7-0.1,1.1-0.1c5.9-0.3,9.8,2.5,10.2,7.4c0.4,4.9-2.9,8.6-8.6,9.2
		c-13.7,1.5-27.4,3-41.2,4.4c-22.6,2.4-45.1,4.8-67.7,7.3c-22,2.3-44.1,4.6-66.1,7c-15.3,1.6-30.7,3.3-46,5c-2,0.2-4,0.5-6,0.4
		c-4.7-0.1-8.2-3.2-8.6-7.5c-0.4-4.2,2.4-8.1,7.1-8.9c5.7-0.9,11.5-1.5,17.3-2.1c26.4-2.8,52.7-5.7,79.1-8.5
		c22.2-2.4,44.4-4.7,66.6-7C531.8,395,552.7,392.7,573.7,390.6C573.7,390.5,573.7,390.5,573.7,390.6z"/>
	<path class="st1" d="M358,493.3c-5.5,0.2-8.5-1.5-10.1-5c-2-4.6,0.5-9.8,5.5-11.1c2.6-0.7,5.4-0.9,8.1-1.2
		c22.9-2.5,45.8-4.9,68.8-7.4c22-2.3,44.1-4.6,66.1-7c25.6-2.7,51.3-5.5,76.9-8.3c2.9-0.3,5.8-0.7,8.7-0.8c5.2-0.2,8.8,2.6,9.4,7.1
		c0.6,4.7-2.4,8.7-7.7,9.5c-6.8,1-13.7,1.5-20.6,2.3c-33.4,3.6-66.8,7.2-100.2,10.7c-25.6,2.7-51.3,5.4-76.9,8.1
		C376.5,491.2,366.9,492.3,358,493.3z"/>
	<path class="st1" d="M338.3,310.1c-7.9,0.3-12.6-5.7-9.6-11.8c1.3-2.6,3.4-4.2,6.3-4.6c4.9-0.6,9.7-1.3,14.6-1.8
		c32.5-3.4,65-6.8,97.5-10.3c37.7-4,75.4-8,113.2-12.1c1.3-0.1,2.5-0.3,3.8-0.2c4.2,0.3,7.3,3.2,7.8,7.1c0.6,4.3-1.6,7.9-6.1,9
		c-4,1-8.2,1.3-12.4,1.7c-30.3,3.3-60.6,6.5-91,9.7c-29.1,3.1-58.1,6.1-87.2,9.2C362.9,307.3,350.4,308.7,338.3,310.1z"/>
	<path class="st1" d="M343.5,342.1c-1.3,0-2.9,0.2-4.5,0c-4-0.5-6.7-3.2-7.2-7c-0.5-3.9,1.4-7.1,5.2-8.6c3.8-1.5,7.9-1.4,11.8-1.8
		c37.3-4.1,74.7-8,112.1-12c32.3-3.4,64.6-6.8,96.9-10.2c2.9-0.3,5.8-0.8,8.7-0.9c5.3-0.2,9.1,3,9.5,7.7c0.3,4.3-2.8,8.1-7.9,8.8
		c-9,1.2-18,2.1-27,3.1c-22.9,2.5-45.8,4.9-68.8,7.4c-22.2,2.4-44.4,4.6-66.6,7C385,337.6,364.4,339.8,343.5,342.1z"/>
	<path class="st2" d="M215,511.9l14.7,14.7c3.5,3.5,9.1,3.5,12.6,0l14.7-14.7c3.5-3.5,3.5-9.1,0-12.6l-14.7-14.7
		c-3.5-3.5-9.1-3.5-12.6,0L215,499.3C211.5,502.8,211.5,508.4,215,511.9z"/>
	<path class="st2" d="M215,554.7l14.7,14.7c3.5,3.5,9.1,3.5,12.6,0l14.7-14.7c3.5-3.5,3.5-9.1,0-12.6l-14.7-14.7
		c-3.5-3.5-9.1-3.5-12.6,0L215,542.1C211.5,545.6,211.5,551.2,215,554.7z"/>
</g>
<path class="st3" d="M925.3,805.3c0.2,34-10.2,62-29.3,86.9c-12,15.6-27.2,27.6-44.6,36.6c-13.2,6.8-27.2,11.6-42.1,13.6
	c-7.7,1-15.4,2.3-23.2,2c-23.5-1.1-45.7-6.7-66-18.9c-9.4-5.6-18.2-12-25.8-19.7c-20.3-20.6-33.1-45-37.3-73.8
	c-1.2-7.9-2.5-15.8-2-23.7c1-14.1,3-27.9,8-41.3c3.5-9.6,8-18.6,13.3-27.3c3.9-6.5,8.3-12.7,13.8-18.1c6.9-6.9,13.6-14,21.6-19.8
	c10.3-7.4,21.3-13.1,33-17.6c11-4.2,22.4-6.7,34.2-8c6-0.6,11.9-1,17.9-0.8c16.4,0.7,32.2,4.1,47.4,10.5c9.4,4,18.3,8.8,26.5,14.8
	c14,10.3,25.8,22.7,34.9,37.5c9.2,14.8,15.2,30.8,18.3,47.9C925,793.1,925.8,800.4,925.3,805.3z M793.7,927.1c7.3,0.2,19-2,30.5-5.4
	c17-5.1,31.9-13.9,45-25.6c12.7-11.3,22.3-25,29.3-40.7c7-15.5,9.4-31.8,10.4-48.4c0.2-3.3-1.2-6.4-1.1-9.7
	c0.2-4.7-0.9-9.3-1.9-13.9c-1.7-8-4.3-15.7-7.7-23.1c-4.7-10.5-10.7-20.1-18.4-28.6c-8.6-9.4-18.2-17.6-29.3-24
	c-14.7-8.4-30.5-13.6-47.2-14.9c-10.1-0.8-20.3-0.9-30.4,0.9c-12.6,2.2-24.6,6.2-35.9,12c-7.4,3.7-14.6,8.1-20.8,13.7
	c-6.7,6.1-13.3,12.3-19,19.4c-6.8,8.6-12.1,18-16.2,28.1c-4.5,11.1-7.7,22.7-8.5,34.6c-1.1,16.8,0.6,33.2,6.5,49.1
	c7.7,20.7,19.7,38.2,37.2,51.7C737.7,918.9,762,927,793.7,927.1z"/>
<path class="st3" d="M888.1,775.8c-0.1,5.8-2,10.9-6.2,15.1c-30.6,30.6-61,61.2-91.8,91.6c-6.3,6.2-12.9,12.1-20.7,16.7
	c-7.7,4.6-14.8,3.8-21.7-1.2c-2.9-2.1-5.8-4.4-8.4-6.9c-15.4-15.2-29.7-31.4-45.2-46.5c-4.3-4.2-7.7-9.2-10.8-14.3
	c-4.5-7.4-3.6-15.7,2.7-22.3c6.4-6.7,13-13.3,19.6-19.7c4.1-3.9,9.2-6.5,14.7-8c5.2-1.4,9.6,1.2,13.6,4c8,5.7,14.3,13.4,21.3,20.2
	c6.4,6.2,5.4,6.1,11.7-0.1c16.4-16.4,33-32.8,49.3-49.4c6.2-6.3,13-12.1,19.5-18.2c8.4-7.9,20.2-5.9,25.9,0.6
	c4.9,5.6,10.5,10.6,15.7,15.9c4.3,4.3,7.5,9.2,9.6,15C888,770.8,888.5,773.2,888.1,775.8z M871.8,774.8c0.2-2.6-0.6-4.8-2.4-6.6
	c-6.1-6.2-12.3-12.4-18.4-18.5c-1.8-1.8-3.7-1.9-5.9-0.5c-2.6,1.7-5,3.7-7,6c-1.5,1.8-2.8,3.7-4.5,5.5
	c-18.3,18.9-37.7,36.7-55.4,56.3c-6.9,7.7-14.6,14.7-21.9,22c-0.9,0.9-1.8,1.8-2.8,2.5c-3.5,2.4-8.5,1.9-11-0.9
	c-2.9-3.4-3.1-8-0.3-11.4c1.3-1.5,2.7-3,4.2-4.3c2.2-1.8,2.1-3.3,0-5.3c-6.1-5.9-12.1-12-18.2-18c-4.3-4.3-7.8-4.6-13-1.1
	c-6.3,4.2-10.9,10-16.2,15.3c-0.6,0.6-0.9,1.6-1.4,2.3c-1.5,2.2-1.4,4.3,0.2,6.5c3,3.9,5.6,8,9.1,11.4
	c12.9,12.8,25.7,25.7,38.5,38.5c1.8,1.8,3.5,3.8,5.5,5.3c2.6,2,5.3,4.1,8.9,3.1c4.4-1.2,8.3-3.2,12-6c5.4-3.9,9.1-9.3,13.7-13.9
	c26.2-26.2,52.4-52.4,78.6-78.6c1.4-1.4,2.7-2.9,4.5-3.9C871.2,779.4,872.2,777.4,871.8,774.8z"/>
<path class="st3" d="M698.8,919.5l17.3,17.3c2.5,2.5,6.6,2.5,9.1,0l17.3-17.3c2.5-2.5,2.5-6.6,0-9.1l-17.3-17.3
	c-2.5-2.5-6.6-2.5-9.1,0l-17.3,17.3C696.3,912.9,696.3,916.9,698.8,919.5z"/>
<path class="st3" d="M773.8,872l17.3,17.3c2.5,2.5,6.6,2.5,9.1,0l17.3-17.3c2.5-2.5,2.5-6.6,0-9.1l-17.3-17.3
	c-2.5-2.5-6.6-2.5-9.1,0l-17.3,17.3C771.3,865.4,771.3,869.5,773.8,872z"/>
<circle class="st4" cx="790.2" cy="809.2" r="171"/>
</svg>
