<?xml version="1.0" encoding="utf-8"?>
<!-- Generator: Adobe Illustrator 28.0.0, SVG Export Plug-In . SVG Version: 6.00 Build 0)  -->
<svg version="1.1" id="Capa_1" xmlns="http://www.w3.org/2000/svg" xmlns:xlink="http://www.w3.org/1999/xlink" x="0px" y="0px"
	 viewBox="0 0 1080 1080" style="enable-background:new 0 0 1080 1080;" xml:space="preserve">
<style type="text/css">
	.st0{fill:#050606;}
	.st1{fill:#090A0A;}
	.st2{fill:#6EE1EB;}
	.st3{fill:#FF5500;}
	.st4{fill:none;stroke:#FF5500;stroke-width:19;stroke-miterlimit:10;}
</style>
<path class="st0" d="M282,689.3c0-57.4,0-114.8,0-172.2c0-6.6,2.9-9.5,9.6-9.5c105-0.7,210-1.4,314.9-2.1c6,0,6,0,6-6.1
	c0-7.3-0.2-14.5,0-21.8c0.2-7.2,3.3-10.2,10.5-10.2c65.7-0.5,131.5-0.9,197.2-1.4c1.6,0,3.3-0.1,4.9,0.2c4,0.6,5.3,2.1,5.5,6
	c0.2,6.5,0.5,13.1,0.5,19.6c0.2,45.4,0.2,90.8,0.4,136.2c0,0.5,0,1.1,0,1.6c0,5.9,0,5.9,5.5,7.2c11.1,2.7,22,6.4,32.3,11.4
	c54.4,26.6,88.3,69.5,98.8,129.2c12.1,69-18.4,138.2-76.9,177.8c-35.9,24.3-75.6,35-118.7,31.4c-44.6-3.7-82.8-21.7-114.2-53.8
	c-15.6-16-27.5-34.6-36-55.3c-2.4-5.8-0.9-4.9-7.3-4.9c-105.9,0.3-211.8,0.6-317.7,1c-2,0-4,0.1-6-0.1c-5-0.4-7.9-3.2-8.6-8.3
	c-0.3-2.2-0.2-4.3-0.2-6.5c0-56.5,0-113,0-169.5C282.4,689.3,282.2,689.3,282,689.3z M954,816c-0.1-31-4.2-52.1-13-72.1
	c-25.8-58.3-82.8-95.4-146.6-95.7c-28.9-0.1-56.1,6.7-81.5,20.5c-58.5,31.8-93.6,95.7-85.3,162.6c5.6,45.4,27,82.4,64.5,108.6
	c52.6,36.7,109.6,41.6,167.2,14.1C920.3,924.8,950.9,874.2,954,816z"/>
<path class="st1" d="M684.4,187.4c-13.3,1.5-26.8,2.9-40.3,4.4c-21.3,2.4-42.6,4.8-63.9,7.2c-21.5,2.4-42.9,4.8-64.4,7.2
	c-20.9,2.3-41.9,4.6-62.8,7c-14.3,1.6-28.5,3.1-42.8,4.7c-4.4,0.5-4.4,0.6-3.9,5c0.5,4.1,1.2,8.3,1.5,12.4c0.2,2.4,1.3,2.9,3.5,2.6
	c13-1.6,26-3,39-4.5c20.7-2.4,41.5-4.8,62.2-7.2c24-2.7,48-5.4,72-8.2c2.4-0.3,4.6-0.5,7,0.2c5.2,1.6,8.5,4.5,8.8,10.3
	c0.3,4.2,0.5,4.1,4.6,3.6c17-2,33.9-3.9,50.9-5.9c2.2-0.2,4.4-0.4,6.5-0.3c3.9,0.2,6.9,3,7.5,6.7c0.6,3.8-1.2,7.2-4.8,8.9
	c-1.5,0.7-3.1,0.9-4.8,1.1c-17.7,2.1-35.3,4.1-53,6.2c-4.4,0.5-4.4,0.6-4,4.7c0.7,6.6-1,6.7,7.3,5.7c16.8-2.1,33.5-3.9,50.3-5.8
	c2-0.2,4-0.4,6-0.2c3.9,0.3,6.8,3.1,7.4,6.8c0.6,3.8-1.3,7.1-4.9,8.8c-1.5,0.7-3.1,0.8-4.8,1c-18.2,2.1-36.4,4.2-54.6,6.3
	c-4.2,0.5-4.3,0.5-3.6,4.5c0.6,3.5-1,8.2,2,10.2c2.6,1.8,6.6-0.3,10-0.6c14.3-1.5,28.5-3.3,42.7-4.9c2.5-0.3,5.1-0.6,7.6-0.6
	c4.9-0.1,8.3,2.8,8.8,7.1c0.6,4.6-2.3,8.4-7.2,9.3c-2.5,0.5-5,0.7-7.6,1c-16.4,1.9-32.8,3.8-49.2,5.6c-3.4,0.4-4.4-0.1-3.8,4.6
	c0.9,6.6-1,6.9,7.2,5.9c17.3-2.1,34.6-4,51.9-6c1.8-0.2,3.6-0.4,5.4-0.2c3.9,0.3,6.9,3,7.5,6.7c0.6,3.8-1.2,7.2-4.8,8.9
	c-1.5,0.7-3.1,0.9-4.8,1.1c-18.6,2.1-37.2,4.3-55.7,6.4c-4.2,0.5-4.2,0.5-3.8,4.5c0.1,0.5,0.1,1.1,0.2,1.6c0.5,3.2-0.7,7.5,1.9,9.2
	c2.1,1.3,5.9,0,8.9-0.4c17-1.9,33.9-4,50.8-5.9c1.1-0.1,2.2-0.2,3.3-0.1c4.4,0.4,7.5,3.6,7.8,7.7c0.3,3.9-2.1,7.6-6.3,8.4
	c-5.1,1-10.4,1.5-15.6,2.1c-14.6,1.7-29.2,3.4-43.8,5.1c-3.8,0.4-4.1-0.4-3.6,4.6c0,0.4,0.1,0.7,0.1,1.1c0.4,5.3,0.5,5.5,5.7,4.9
	c18.9-2.4,37.9-4.4,56.8-6.6c1.3-0.1,2.6-0.2,3.8-0.1c4.1,0.6,7,3.7,7.4,7.6c0.3,3.9-2.1,7.7-6.2,8.5c-5.1,1.1-10.4,1.5-15.6,2.1
	c-15.7,1.8-31.4,3.6-47.1,5.4c-0.7,0.1-1.4,0.4-2.2,0.6c0.5,4.3,1,8.4,1.4,12.5c0.2,2.1,0.8,3.1,3.3,2.8c19.1-2.3,38.2-4.5,57.3-6.6
	c1.6-0.2,3.3-0.4,4.9-0.2c4.1,0.5,7.1,3.7,7.4,7.6c0.3,3.9-2.1,7.7-6.1,8.5c-5.1,1.1-10.4,1.5-15.6,2.1c-15.1,1.8-30.3,3.6-45.5,5.2
	c-3,0.3-3.7,1.5-3.2,4.1c0.1,0.5,0.1,1.1,0.1,1.6c0.5,5.5,0.5,5.4,6.2,4.7c19.1-2.2,38.2-4.4,57.4-6.6c1.1-0.1,2.2-0.2,3.3-0.1
	c4.4,0.4,7.5,3.6,7.8,7.7c0.3,3.9-2.1,7.5-6.3,8.4c-4.6,1-9.3,1.4-14,2c-18.4,2.2-36.8,4.2-55.1,6.6c-9.5,1.2-13.7-0.5-14.9-11.7
	c-3.5-34.3-7.6-68.6-11.5-102.8c-3.8-33.9-7.5-67.9-11.2-101.8c-0.5-4.8-0.5-4.8-5.1-4.2c-24.2,2.8-48.3,5.5-72.5,8.3
	c-27.1,3.1-54.1,6.3-81.2,9.4c-23.8,2.7-47.6,5.4-71.4,8.1c-16.2,1.8-32.5,3.8-48.7,5.5c-2.9,0.3-3.6,1.3-3.3,4.1
	c1.4,12.8,2.5,25.7,3.8,38.5c1.6,16.6,3.3,33.2,5,49.9c2.4,24,4.8,48.1,7.2,72.1c1.6,16.1,3.2,32.2,4.8,48.2
	c0.2,1.8,0.3,3.6,0.1,5.4c-0.4,3.9-3.2,6.8-6.9,7.3c-4,0.6-7.6-1.6-9-5.5c-0.5-1.3-0.6-2.8-0.8-4.3c-0.8-7.4-1.5-14.8-2.2-22.2
	c-0.5-4.4-0.5-4.5-4.9-4.5c-16.7,0.1-33.4,0.2-50.1,0.3c-5,0-4.7-0.3-4.7,4.8c0.1,37.8,0.1,75.6,0.2,113.3
	c0.2,77.6,0.5,155.1,0.7,232.7c0,2.4,0.3,4.7-0.4,7c-1.1,4.2-4.2,6.6-8.2,6.6c-4-0.1-7-2.6-7.9-6.9c-0.3-1.8-0.4-3.6-0.4-5.4
	c-0.3-119-0.6-238-0.8-356.9c0-0.9,0-1.8,0-2.7c0.3-6.3,2.1-8.4,8.5-9.1c1.8-0.2,3.6-0.2,5.4-0.3c18.2-0.1,36.3-0.2,54.5-0.3
	c1.8,0,3.6,0,5.8,0c-0.7-8-1.4-15.5-2.1-23.1c-2.8-28.9-5.7-57.8-8.6-86.7c-2.2-21.7-4.4-43.4-6.6-65c-0.7-7,3.1-12,10.1-12.9
	c22-2.6,44-5.1,66-7.6c9-1,18-2.2,27.1-3.1c2.6-0.3,3.5-0.9,3.1-3.6c-1-7.6-1.7-15.2-2.7-22.7c-1-7.4,1.5-10.8,9-11.8
	c6.7-0.8,13.4-1.5,20-2.2c28.7-3.2,57.4-6.4,86.1-9.6c24.4-2.7,48.7-5.3,73.1-8.1c24.4-2.7,48.7-5.5,73.1-8.2
	c13.3-1.5,26.7-3,40.1-4.5c6.8-0.7,10.6,2.3,11.5,9.4c1.7,13.3,3.1,26.7,4.6,40c2.8,23.8,5.6,47.6,8.4,71.4
	c2.3,19.8,4.6,39.7,6.9,59.5c2.8,23.8,5.6,47.6,8.3,71.4c0.5,4.5,1,9,1.5,13.5c0.4,3.8,0.4,3.9,4.2,3.9c13.3-0.1,26.5-0.2,39.8-0.3
	c1.8,0,3.7-0.1,5.4,0.1c4.1,0.6,7,3.7,7.2,7.6s-2.3,7.4-6.3,8.4c-1.4,0.4-2.9,0.4-4.3,0.4c-16.2,0.3-32.3,0.5-48.5,0.7
	c-1.6,0-3.3,0.1-4.9-0.1c-4.9-0.6-7.4-3.2-8-8.2c-1.1-8.8-2.1-17.7-3.1-26.5c-2.8-23.8-5.6-47.6-8.3-71.4c-2.7-22.9-5.3-45.8-8-68.7
	c-2.8-24-5.6-48-8.4-71.9c-0.7-6.3-1.5-12.6-2.2-18.9C685.3,189.2,685.2,188.3,684.4,187.4z"/>
<path class="st1" d="M344,370.9c-5.3,0.1-9.1-2.8-9.7-7.2c-0.6-4.4,2.2-8.4,7.3-9.2c7.7-1.2,15.5-1.9,23.2-2.7c37-4,74-7.9,111-11.9
	c30.5-3.3,61-6.5,91.5-9.8c1.8-0.2,3.6-0.2,5.4,0.4c3.3,1.2,5.5,3.9,5.7,7.3c0.2,3.6-1.7,6.9-5.2,8.1c-1.7,0.6-3.5,0.9-5.3,1.1
	c-39,4.2-78,8.3-117,12.4c-35,3.7-70,7.5-105.1,11.3C345.2,370.8,344.4,370.9,344,370.9z"/>
<path class="st1" d="M354.1,463.6c-5.4,0-9-3.1-9.4-7.5c-0.4-4.4,2.1-8.1,7-8.9c8.1-1.3,16.2-2,24.3-2.9c26.2-2.8,52.3-5.6,78.5-8.4
	c25.5-2.7,50.9-5.4,76.4-8.1c15.2-1.6,30.3-3.3,45.5-4.9c1.4-0.2,2.9-0.4,4.3-0.3c4.4,0.3,7.6,3.5,8.1,7.5c0.4,4-2.2,7.9-6.5,8.8
	c-4.6,0.9-9.3,1.3-14,1.8c-47.5,5.1-95,10.1-142.4,15.2c-23.3,2.5-46.6,4.9-69.9,7.4C355.2,463.5,354.5,463.6,354.1,463.6z"/>
<path class="st1" d="M571.7,362.3c0.6,0,1.7-0.1,2.8,0c4.1,0.4,7.2,3.2,7.7,7.2c0.5,3.6-1.6,7.1-5.3,8.7c-1.4,0.6-2.8,0.7-4.2,0.9
	c-30.5,3.3-61,6.5-91.5,9.8c-32.3,3.5-64.6,7-96.9,10.4c-11,1.2-22,2.4-33,3.5c-1.8,0.2-3.6,0.3-5.4,0.2c-4.2-0.3-7.2-3.1-7.7-7.1
	c-0.5-4,1.7-7.5,5.7-8.8c1.4-0.5,2.8-0.6,4.3-0.7c22.7-2.5,45.5-4.9,68.2-7.4c25.8-2.8,51.6-5.5,77.4-8.3
	C519.6,367.8,545.4,365.1,571.7,362.3z"/>
<path class="st1" d="M573.8,390.7c0.8,0,1.3-0.1,1.9-0.1c5.2,0,8.8,2.8,9.3,7.3c0.5,4.7-2.6,8.6-7.9,9.3
	c-13.3,1.6-26.7,2.9-40.1,4.4c-26,2.8-52,5.6-78,8.3c-25.1,2.7-50.2,5.3-75.3,8c-9,1-18,2-27.1,2.9c-2.7,0.3-5.4,0.6-8.1,0.4
	c-4.1-0.2-7.2-3.3-7.7-7.2c-0.5-3.8,1.9-7.5,5.9-8.8c1.4-0.4,2.8-0.6,4.3-0.7c22.6-2.4,45.1-4.9,67.7-7.3c26-2.8,52-5.6,78-8.3
	C522.4,396.1,548.2,393.4,573.8,390.7z"/>
<path class="st1" d="M579.8,452.9c7.2-0.4,11.1,2.1,11.6,7c0.6,5.2-2.8,8.8-9.4,9.5c-30.5,3.3-61,6.5-91.5,9.8
	c-28.9,3.1-57.8,6.2-86.6,9.3c-14.4,1.6-28.9,3.1-43.3,4.6c-1.8,0.2-3.6,0.3-5.4,0.2c-4.1-0.3-7.2-3.2-7.8-7.1
	c-0.5-3.8,1.8-7.5,5.8-8.8c1.4-0.5,2.8-0.6,4.3-0.8c22.7-2.5,45.5-4.9,68.2-7.4c25.6-2.7,51.3-5.5,76.9-8.2
	C528.5,458.3,554.5,455.6,579.8,452.9z"/>
<path class="st1" d="M341.2,342.5c-5.4,0-9.1-3-9.5-7.5c-0.4-4.6,2.3-8.3,7.5-9.1c7.9-1.2,15.9-1.8,23.8-2.7
	c22.4-2.4,44.8-4.8,67.1-7.2c18.6-2,37.2-3.9,55.8-5.9c22.4-2.4,44.8-4.8,67.1-7.2c4.3-0.5,8.7-1.1,13-1.3c4.7-0.3,8,1.9,9.3,5.9
	c1.6,4.7-1.2,9.5-6.6,10.5c-5.2,1-10.4,1.4-15.7,1.9c-26.3,2.8-52.7,5.7-79,8.5c-22.2,2.4-44.4,4.7-66.6,7
	c-21.3,2.3-42.6,4.5-63.9,6.8C342.7,342.2,341.8,342.4,341.2,342.5z"/>
<path class="st1" d="M338.3,310.2c-0.4,0-1.2,0-1.9,0c-4.7-0.2-8.2-3.2-8.6-7.5c-0.4-4.1,2.5-8.2,7.1-8.9c6.3-1,12.6-1.5,18.9-2.2
	c26-2.8,52-5.6,78-8.4c21.8-2.3,43.7-4.6,65.5-6.9c18.9-2,37.9-4.1,56.8-6.1c2.9-0.3,5.8-0.7,8.7-0.7c5.2-0.1,8.7,2.9,9.1,7.4
	c0.4,4.6-2.6,8.3-7.6,9c-6.8,1-13.7,1.6-20.6,2.3c-22.7,2.4-45.5,4.9-68.2,7.3c-22,2.3-44,4.6-66.1,7c-22.2,2.4-44.4,4.8-66.6,7.2
	C341.5,309.9,340.1,310.1,338.3,310.2z"/>
<path class="st2" d="M215.1,509.7l14.7,14.7c3.5,3.5,9.1,3.5,12.6,0l14.7-14.7c3.5-3.5,3.5-9.1,0-12.6l-14.7-14.7
	c-3.5-3.5-9.1-3.5-12.6,0l-14.7,14.7C211.6,500.5,211.6,506.2,215.1,509.7z"/>
<path class="st2" d="M215.1,552.5l14.7,14.7c3.5,3.5,9.1,3.5,12.6,0l14.7-14.7c3.5-3.5,3.5-9.1,0-12.6l-14.7-14.7
	c-3.5-3.5-9.1-3.5-12.6,0l-14.7,14.7C211.6,543.3,211.6,549,215.1,552.5z"/>
<path class="st3" d="M927.1,805.8c0.2,34-10.2,62-29.3,86.9C886,908.1,870.9,920,853.7,929c-13.3,7-27.5,11.9-42.6,13.8
	c-7.7,1-15.4,2.3-23.2,2c-23.5-1.1-45.7-6.7-66-18.9c-9.2-5.5-17.9-11.8-25.4-19.4c-20.5-20.6-33.4-45.2-37.7-74.2
	c-1.2-7.9-2.5-15.8-2-23.7c1-14.1,3.1-27.9,8-41.3c3.6-9.8,8.2-19,13.5-27.8c3.8-6.2,8-12.1,13.1-17.2c7.1-7,13.8-14.3,22-20.2
	c10.3-7.3,21.3-13.1,33-17.6c11-4.2,22.4-6.7,34.2-8c6-0.6,11.9-1,17.9-0.8c16.4,0.7,32.2,4.1,47.4,10.5c9.4,4,18.3,8.8,26.5,14.8
	c14,10.3,25.8,22.7,34.9,37.5c9.2,14.8,15.2,30.8,18.3,47.9C926.9,793.6,927.6,800.8,927.1,805.8z M792.6,693.1
	c-7.9-0.8-16.7,0.5-25.3,2.6c-24,5.8-44.5,17.4-61.4,35.7c-10,10.8-17.7,22.8-23.3,36.3c-4.3,10.4-7.3,21.3-8.1,32.4
	c-0.7,9.1-0.8,18.4,0.6,27.6c2.3,14.3,6.5,27.7,13.5,40.3c7.4,13.3,16.8,24.9,28.8,34.2c18.6,14.5,39.8,23,63.2,24.8
	c18,1.4,35.7-1,52.7-7.6c13.9-5.4,26.3-13,37.4-22.8c13.1-11.7,23-25.9,30.1-42.1c6.2-14.2,8.9-29,9.7-44.2c0.5-8.5-0.7-17-2.5-25.3
	c-3.9-17.9-10.9-34.4-22.8-48.7c-10.5-12.8-22.7-23.3-37.4-30.9C830.9,697.1,812.9,692.4,792.6,693.1z"/>
<path class="st3" d="M833.7,893.7c-5.8-0.5-10.6-3.4-14.7-7.4c-7.7-7.5-15.2-15.1-22.8-22.7c-3.6-3.6-4-3.7-7.4-0.1
	c-6.5,6.8-13.7,13-19.6,20.3c-2.4,3-5.8,5.4-9.1,7.6c-5.5,3.6-10.3,2.8-16.5-2c-0.4-0.3-0.8-0.7-1.2-1.1
	c-8.6-9.3-18.4-17.5-27.5-26.3c-7.4-7.1-7.7-14.3-1.3-22.6c4.8-6.2,10.6-11.4,16-17c3-3.1,6.2-6.2,9.2-9.3c3.4-3.4,3.4-3.5,0.1-6.8
	c-7.8-7.9-15.6-15.7-23.5-23.5c-2.6-2.6-4.5-5.7-6.3-8.8c-1.2-2.1-1-4,0-6.1c2.2-4.4,4.7-8.5,8.3-12c8.8-8.4,17.2-17.2,25.8-25.8
	c5.2-5.1,9.3-5.6,15.6-2.1c3.5,2,6.5,4.4,9.4,7.3c7.3,7.1,14.6,14,22,21c2.7,2.5,2.8,2.5,5.6-0.3c8.5-8.4,17-16.9,25.4-25.4
	c9.3-9.3,15.1-9,24.6-0.1c9.7,9,18.8,18.6,28.2,28c4.2,4.2,4.8,8.6,2.3,13.8c-2.1,4.5-5,8.4-8.5,11.9c-7.3,7.3-14.6,14.6-21.9,22
	c-3.5,3.5-3.5,3.6,0.1,7.2c7.9,8,15.9,15.9,23.9,23.9c8.6,8.6,9.3,14.9-0.2,24.6c-9.1,9.4-18.5,18.5-27.7,27.8
	C839.8,892,837.3,894,833.7,893.7z M832,872.9c2,0.3,3.5-0.5,4.9-1.9c5.7-5.8,11.6-11.5,17.3-17.4c2.5-2.5,2.6-4.3,0.7-7.2
	c-0.9-1.3-2.1-2.5-3.2-3.6c-8.1-8.1-16.2-16.2-24.2-24.3c-4.8-4.9-5.1-8.1-1.9-14c1.5-2.8,3.4-5.1,5.6-7.3
	c7.2-7.2,14.4-14.4,21.5-21.6c1-1,2.1-2,3-3.2c2.5-3.4,2.3-6.2-0.6-9.2c-4.3-4.4-8.7-8.7-13.1-13.1c-7.7-7.7-8.4-7.7-16-0.1
	c-8.2,8.2-16.4,16.5-24.6,24.6c-4.8,4.7-10.9,4.6-16.1,0.4c-4.4-3.5-8.4-7.5-12.4-11.4c-5-5-10-10-15.1-15c-3.4-3.3-5.5-3.3-8.8-0.1
	c-5.7,5.6-11.3,11.2-16.9,17c-2.6,2.7-2.9,5.2-0.8,8.3c0.9,1.4,2,2.6,3.2,3.6c8.9,7.5,16.8,16,25.1,24.1c5.9,5.8,4.2,9.8,0.3,14.6
	c-0.7,0.8-1.5,1.6-2.3,2.3c-7.3,7.3-14.6,14.7-21.9,22c-1.5,1.5-3,3.1-4.1,5c-2.2,3.6-2.2,5.3,0.6,8.1c5.6,5.7,11.2,11.4,16.9,16.9
	c3.3,3.3,5.5,3.2,8.8,0c4.2-4,8.2-8.2,12.3-12.3c5.3-5.3,10.5-10.6,15.8-15.8c4-3.9,6.3-4.1,11-1.3c2,1.2,3.8,2.7,5.5,4.4
	c8,8.1,16.2,16.2,24.2,24.3C828.1,871.5,829.5,873.3,832,872.9z"/>
<path class="st3" d="M660.6,945.9l17.3,17.3c2.5,2.5,6.6,2.5,9.1,0l17.3-17.3c2.5-2.5,2.5-6.6,0-9.1L687,919.5
	c-2.5-2.5-6.6-2.5-9.1,0l-17.3,17.3C658.1,939.3,658.1,943.4,660.6,945.9z"/>
<circle class="st4" cx="791.2" cy="808.7" r="170.5"/>
</svg>
