<?xml version="1.0" encoding="utf-8"?>
<!-- Generator: Adobe Illustrator 28.0.0, SVG Export Plug-In . SVG Version: 6.00 Build 0)  -->
<svg version="1.1" id="Capa_1" xmlns="http://www.w3.org/2000/svg" xmlns:xlink="http://www.w3.org/1999/xlink" x="0px" y="0px"
	 viewBox="0 0 1080 1080" style="enable-background:new 0 0 1080 1080;" xml:space="preserve">
<style type="text/css">
	.st0{fill:#050606;}
	.st1{fill:#0A0A0A;}
	.st2{fill:#6EE1EB;}
	.st3{fill:#DBB300;}
	.st4{fill:none;stroke:#DBB300;stroke-width:21;stroke-miterlimit:10;}
</style>
<path class="st0" d="M612.5,505.4c0-8.7,0-16.7,0-24.6c0-1.6-0.1-3.3,0.1-4.9c0.6-5.6,3.7-8.4,9.3-8.6c2.7-0.1,5.4,0,8.2,0
	c62.8-0.4,125.7-0.9,188.5-1.3c11.8-0.1,11.9-0.1,12.2,11.5c0.9,35.2,0.2,70.5,0.5,105.7c0.1,14.7,0.1,29.4,0.2,44.1
	c0,8,0.1,7.9,7.6,9.9c42.3,11.5,76.3,34.8,101.2,71c43.7,63.6,40.1,148.8-8.9,209.6c-31,38.5-71.3,61.6-120.3,67.7
	c-59.1,7.3-110.5-10.3-152.7-52.7c-15.8-15.9-27.6-34.5-36-55.3c-2-4.9-2.1-4.9-7.3-4.9c-92.8,0.3-185.6,0.5-278.5,0.8
	c-13.6,0-27.2,0.1-40.9,0.1c-1.6,0-3.3,0.1-4.9-0.1c-4.7-0.7-7.5-3.4-8.1-8.2c-0.2-2-0.2-4-0.2-6c-0.2-112.4-0.4-224.9-0.6-337.3
	c0-1.8-0.1-3.6,0-5.4c0-5.7,2.8-8.7,8.5-8.9c4.2-0.1,8.4,0,12.5,0c88.5-0.7,176.9-1.3,265.4-2c12.7-0.1,25.4-0.1,38.1-0.2
	C608.4,505.3,610.2,505.4,612.5,505.4z M954,815.7c-0.1-30.7-4.2-51.5-12.8-71.5c-28.7-66.3-97.8-104.3-170-94.7
	c-38.7,5.1-72.2,21.7-99,50.2c-38.5,41-53.5,89.7-42.2,145c14.7,72.1,77.9,124,154.2,125.7c26.2,0.6,51.4-4.5,74.8-16.2
	C919.6,923.8,950.8,874.2,954,815.7z"/>
<path class="st1" d="M609.4,308.2c0.4,3.7-0.6,7.7,1.4,9.9c2,2.1,5.8,0,8.8-0.3c16.8-1.7,33.6-3.7,50.3-5.6c1.4-0.2,2.9-0.3,4.3-0.2
	c4,0.4,6.9,3.1,7.5,6.8c0.6,4-1.4,7.6-5.4,9c-4,1.5-8.2,1.4-12.3,1.9c-16.8,2-33.5,3.8-50.3,5.8c-0.3,0-0.7,0.3-1.1,0.4
	c-0.8,2.1,0.2,4.3,0.4,6.4c1,10.6-0.5,8.9,9.6,7.9c17.2-1.8,34.3-3.9,51.4-5.9c0.9-0.1,1.8-0.2,2.7-0.1c5,0.1,8.6,3.2,8.9,7.8
	c0.3,4.2-2.6,8-7.3,8.7c-8.6,1.3-17.3,2.2-25.9,3.2c-10.6,1.2-21.3,2.4-31.9,3.6c-4.5,0.5-4.5,0.6-4.1,5.4c0.1,0.7,0.2,1.4,0.2,2.2
	c0,2.7,1,3.8,4,3.4c8.6-1.2,17.3-1.9,26-2.9c10.6-1.2,21.3-2.5,31.9-3.7c0.9-0.1,1.8-0.2,2.7-0.2c5,0.1,8.6,3.2,8.9,7.7
	c0.3,4.2-2.5,8-7.3,8.7c-8.6,1.3-17.3,2.2-25.9,3.2c-11.5,1.4-23.1,2.7-34.6,4c-1.1,0.1-2.2,0.1-3.2,1c0.8,4.9,0.6,10,2.1,15.2
	c9.7-1.1,19.2-2.1,28.8-3.2c10.6-1.2,21.3-2.5,31.9-3.7c0.9-0.1,1.8-0.2,2.7-0.1c5,0.1,8.6,3.3,8.9,7.8c0.3,4.2-2.6,7.9-7.4,8.6
	c-8.6,1.3-17.3,2.2-25.9,3.2c-11,1.3-22,2.5-33,3.8c-4.4,0.5-4.4,0.7-4.1,4.9c0.1,0.7,0.1,1.4,0.2,2.2c0.4,3.9,0.9,4.3,4.6,3.8
	c19.1-2.4,38.2-4.5,57.3-6.7c1.1-0.1,2.2-0.2,3.3-0.2c5.1,0,8.7,2.8,9.3,7.3c0.6,4.4-2.4,8.3-7.4,9.1c-5.4,0.9-10.8,1.4-16.2,2
	c-17.3,2.1-34.6,4.2-51.9,6.2c-0.5,0.1-1.1,0.2-1.6,0.2c-8.8,1-11.9-1.7-12.9-10.4c-3.1-28.1-6.3-56.3-9.5-84.4
	c-3.1-27.6-6.1-55.2-9.1-82.8c-1.5-13.4-2.9-26.7-4.5-40.1c-0.4-3.5-0.5-3.6-4.1-3.2c-19.8,2.3-39.7,4.6-59.5,6.8
	c-17.7,2-35.3,4-53,6.1c-20.7,2.4-41.5,4.8-62.2,7.1c-17.3,2-34.6,3.9-51.9,5.9c-16.2,1.8-32.5,3.7-48.7,5.5c-2.5,0.3-3,1.3-2.7,3.5
	c0.9,9.2,1.8,18.4,2.7,27.6c2,20.2,4.1,40.5,6.1,60.7c2.1,20.8,4.2,41.5,6.2,62.3c1.9,19.5,3.9,39,5.8,58.5c0.2,1.8,0.3,3.6,0.1,5.4
	c-0.4,3.9-3.2,6.8-6.9,7.4c-3.9,0.6-7.6-1.6-9-5.5c-0.5-1.3-0.6-2.8-0.8-4.3c-0.8-7.6-1.5-15.2-2.3-22.8c-0.4-4-0.5-4.1-4.7-4.1
	c-17.1,0.1-34.1,0.3-51.2,0.4c-2.7,0-4.2,0.6-3.7,3.6c0.2,1.4,0,2.9,0,4.4c0.3,114.2,0.6,228.5,0.9,342.7c0,2.2,0.1,4.4-0.2,6.5
	c-0.8,4.5-4,7.2-8.2,7.2c-4.2,0-7.3-2.7-8.1-7.3c-0.3-1.8-0.3-3.6-0.3-5.4c-0.3-118.8-0.6-237.6-0.8-356.4c0-10,2.1-12.2,12.1-12.3
	c19.3-0.1,38.5-0.2,57.8-0.2c1.3,0,2.5,0,4.3,0c-0.3-3.8-0.5-7.4-0.8-10.9c-3.5-34.7-6.9-69.4-10.4-104.1c-2-20.2-4.1-40.5-6.1-60.7
	c-0.6-5.9,3.4-11.1,9.4-11.9c8.8-1.2,17.7-2.1,26.5-3.2c22.5-2.6,45.1-5.2,67.6-7.6c2.8-0.3,3.1-1.5,2.8-3.9
	c-1-7.6-1.7-15.2-2.7-22.7c-0.9-6.8,1.6-10.5,8.2-11.4c9.9-1.2,19.8-2.2,29.8-3.4c21.6-2.4,43.3-4.9,64.9-7.3
	c20.9-2.3,41.9-4.6,62.8-7c21.3-2.4,42.6-4.8,63.9-7.1c17.7-2,35.4-3.9,53-5.9c5.8-0.6,11.5-1.4,17.3-2c8.5-0.9,12,1.9,13,10.5
	c4.7,40.2,9.4,80.4,14.1,120.6c3.8,32.8,7.5,65.6,11.3,98.5c1.4,11.9,2.8,23.8,4.2,35.7c0.4,3.6,0.4,3.7,4.3,3.7
	c13.1-0.1,26.2-0.3,39.2-0.4c2.2,0,4.4-0.2,6.5,0.3c3.6,0.9,6.1,3.6,6.5,7.1c0.4,3.8-1.7,7-5.4,8.5c-1.6,0.6-3.2,0.8-4.8,0.8
	c-17.1,0.2-34.1,0.4-51.2,0.5c-1.6,0-3.3-0.1-4.8-0.5c-3.7-1.2-5.3-4-5.8-7.8c-1.7-15.3-3.5-30.7-5.3-46
	c-2.7-23.4-5.5-46.9-8.2-70.3c-2.3-20-4.6-40-7-60c-2.7-23.6-5.5-47.2-8.3-70.9c-0.5-4.1-0.5-8.3-1.8-12.8c-3.7,0.3-7.4,0.6-11.1,1
	c-34.1,3.8-68.2,7.7-102.3,11.5c-31,3.5-62.1,6.8-93.1,10.3c-22.7,2.5-45.5,5.1-68.2,7.6c-4.3,0.5-4.5,0.5-3.8,4.5
	c0.8,5.2,0.6,10.5,2.3,15.7c13.6-1.6,27.1-3.1,40.6-4.6c17.5-2,35-4,52.5-6c20.9-2.4,41.8-4.8,62.8-7.2c7.2-0.8,14.4-1.6,21.6-2.5
	c3.6-0.5,6.8,0.7,9.8,2.5c3.4,1.9,4.3,5.3,4.3,8.9c0.1,2.8,1.1,3.5,4.1,3.2c17.8-2.2,35.7-4.1,53.6-6.1c1.3-0.1,2.5-0.3,3.8-0.2
	c4.3,0.2,7.4,2.9,8,6.8c0.7,4.2-1.5,8.1-5.8,9.2c-4.2,1-8.6,1.4-12.9,1.9c-15.1,1.8-30.3,3.5-45.4,5.3c-0.9,0.1-1.8,0.1-2.8,0.9
	c0.5,3-0.6,7,1.4,9.2c2,2.1,5.8,0.1,8.8-0.2c16.4-1.7,32.8-3.6,49.2-5.5c0.9-0.1,1.8-0.3,2.7-0.3c5.1-0.1,8.8,2.8,9.2,7.3
	c0.5,4.6-2.4,8.3-7.4,9.2c-3.7,0.7-7.6,0.9-11.3,1.4c-16.4,1.9-32.8,3.8-49.6,5.7c0.4,4.3,0.8,8.4,1.2,12.4c0.2,2.2,1.4,2.4,3.4,2.2
	c13.3-1.6,26.7-3.2,40-4.7c6.1-0.7,12.3-1.5,18.4-1.8c4.5-0.2,7.9,2.8,8.6,6.8c0.7,4.4-1.8,8-6.4,9.4c-0.7,0.2-1.4,0.4-2.1,0.4
	c-6.7,0.8-13.3,1.5-20,2.3C636,305.1,623,306.6,609.4,308.2z"/>
<path class="st1" d="M578.6,422.5c7.7-0.3,12.5,5.9,9.4,11.9c-1.4,2.8-3.8,4.3-6.9,4.7c-4.9,0.6-9.7,1.2-14.6,1.7
	c-35.7,3.8-71.5,7.5-107.2,11.3c-34.1,3.6-68.2,7.3-102.4,10.9c-1.4,0.2-2.9,0.4-4.3,0.2c-4.3-0.4-7.3-3.1-7.8-7.1
	c-0.5-4.2,1.7-7.9,6.1-9c4-1,8.2-1.3,12.4-1.7c33.6-3.6,67.1-7.2,100.7-10.8c29.1-3.1,58.1-6.1,87.2-9.2
	C560.4,424.6,569.6,423.5,578.6,422.5z"/>
<path class="st1" d="M571.1,362.2c7.2-1.2,10.6,3.2,11.1,7.3c0.6,5-3.2,8.7-9.7,9.4c-41.7,4.4-83.4,8.8-125.1,13.3
	c-32.1,3.4-64.2,6.9-96.4,10.4c-1.3,0.1-2.5,0.2-3.8,0.2c-5.2,0-8.7-2.9-9.2-7.4c-0.4-4.5,2.5-8.2,7.5-9c5.7-0.9,11.5-1.4,17.3-2
	c22.7-2.4,45.5-4.9,68.2-7.3c22-2.3,44.1-4.6,66.1-7c22.2-2.4,44.4-4.8,66.6-7.2C566.2,362.6,568.5,362.5,571.1,362.2z"/>
<path class="st1" d="M346.9,370.4c-2.2,0.2-4.3,0.6-6.5-0.1c-3.5-1-6-3.9-6.2-7.4c-0.2-3.2,1.7-6.5,4.8-7.9c1.3-0.6,2.8-1,4.2-1.1
	c17.5-1.9,35-3.7,52.5-5.6c22.4-2.4,44.8-4.8,67.1-7.2c21.8-2.3,43.7-4.6,65.5-7c12.1-1.3,24.2-2.6,36.3-3.9c2-0.2,4-0.5,6-0.4
	c4.1,0.3,7.3,3.3,7.7,7.2c0.5,4.1-2,7.8-6.2,9c-1.4,0.4-2.8,0.6-4.3,0.7c-18.4,2-36.8,3.9-55.2,5.8c-22.2,2.4-44.4,4.8-66.6,7.1
	c-22,2.4-44,4.7-66.1,7C369,368,357.9,369.2,346.9,370.4z"/>
<path class="st1" d="M350.9,431.2c-5.9,0.1-9.7-2.8-10.1-7.4c-0.5-4.6,2.7-8.4,8.1-9.1c12.6-1.5,25.3-2.8,37.9-4.2
	c22.4-2.4,44.8-4.8,67.1-7.2c21.7-2.3,43.3-4.6,65-6.9c18.1-1.9,36.1-3.8,54.2-5.7c1.3-0.1,2.5-0.3,3.8-0.2c4.2,0.3,7.4,3,8,6.9
	c0.7,4.2-1.5,8-5.9,9.2c-3.5,0.9-7.1,1.2-10.7,1.6c-35.7,3.8-71.5,7.5-107.2,11.3c-35.6,3.8-71.1,7.7-106.7,11.5
	C353,431,351.8,431.1,350.9,431.2z"/>
<path class="st1" d="M357.2,493.3c-3.7,0.2-6.8-0.9-8.8-4.3c-1.6-2.7-1.5-5.6,0.2-8.3c1.5-2.5,3.9-3.7,6.7-4.1
	c5.2-0.6,10.5-1.3,15.7-1.8c33.6-3.6,67.1-7.2,100.7-10.8c28.9-3.1,57.8-6.1,86.7-9.1c7.2-0.8,14.4-1.6,21.7-2.3
	c1.6-0.2,3.3-0.2,4.9,0c3.4,0.6,5.9,3.3,6.5,6.5c0.6,3.5-1.1,7-4.2,8.7c-1.4,0.8-3,1.1-4.7,1.3c-24.4,2.6-48.7,5.1-73.1,7.7
	c-25.5,2.7-50.9,5.5-76.3,8.2c-22,2.4-44.1,4.7-66.1,7C363.7,492.6,360.4,493,357.2,493.3z"/>
<path class="st1" d="M337.6,310.1c-5.5,0-9.2-2.9-9.7-7.4c-0.5-4.3,2.5-8.3,7.5-9c8.8-1.2,17.7-2.1,26.5-3.1
	c22.7-2.5,45.5-4.9,68.2-7.3c18.6-2,37.2-3.9,55.8-5.9c22.2-2.4,44.4-4.8,66.6-7.2c3.1-0.3,6.1-0.7,9.2-0.9
	c5.8-0.5,9.8,2.4,10.3,7.3c0.5,5-2.7,8.7-8.5,9.4c-10.6,1.3-21.3,2.3-31.9,3.4c-22.6,2.4-45.1,4.8-67.7,7.2
	c-18,1.9-36.1,3.9-54.1,5.8c-22.9,2.4-45.8,4.9-68.8,7.3C339.7,309.9,338.4,310,337.6,310.1z"/>
<path class="st1" d="M565.7,301.4c4-0.3,7.2,0.9,9.2,4.5c1.6,3,1.2,6-0.8,8.7c-1.6,2.2-3.9,3.1-6.5,3.4c-8.8,1-17.7,2-26.5,2.9
	c-22.9,2.5-45.8,4.9-68.8,7.4c-22.2,2.4-44.4,4.7-66.6,7c-20.8,2.2-41.5,4.4-62.3,6.6c-1.6,0.2-3.3,0.2-4.9,0
	c-3.7-0.5-6.3-3.3-6.8-6.8c-0.5-3.6,1.2-7,4.5-8.5c1.3-0.6,2.8-1,4.2-1.1c17-1.9,33.9-3.7,50.9-5.5c19.3-2.1,38.6-4.1,57.9-6.2
	c18-1.9,36.1-3.8,54.1-5.8c19.5-2.1,39-4.2,58.5-6.3C563.2,301.7,564.5,301.5,565.7,301.4z"/>
<path class="st2" d="M215.1,508.7l14.7,14.7c3.5,3.5,9.1,3.5,12.6,0l14.7-14.7c3.5-3.5,3.5-9.1,0-12.6l-14.7-14.7
	c-3.5-3.5-9.1-3.5-12.6,0l-14.7,14.7C211.6,499.5,211.6,505.2,215.1,508.7z"/>
<path class="st2" d="M215.1,551.5l14.7,14.7c3.5,3.5,9.1,3.5,12.6,0l14.7-14.7c3.5-3.5,3.5-9.1,0-12.6l-14.7-14.7
	c-3.5-3.5-9.1-3.5-12.6,0l-14.7,14.7C211.6,542.3,211.6,548,215.1,551.5z"/>
<path class="st3" d="M925.6,806.3c0.1,34.5-10.3,62.5-29.4,87.4c-11.8,15.3-26.7,27.1-43.7,36c-13.3,7-27.5,11.9-42.6,13.9
	c-7.3,1-14.7,2.3-22.1,2c-24.1-0.9-46.8-6.5-67.6-19.1c-9.8-5.9-19.1-12.7-26.9-20.9c-19.4-20.3-31.8-44.2-36-72.2
	c-1.2-7.9-2.5-15.7-2-23.7c0.9-14.3,3.1-28.3,8.1-41.8c5.5-15,12.9-28.9,23.1-41c7-8.3,14.7-16.1,23.5-22.6
	c15.3-11.4,32.3-19.3,50.8-23.8c13.1-3.2,26.4-4.9,39.8-3.8c15.5,1.3,30.6,4.8,45.1,10.9c18.8,7.9,34.5,19.9,47.9,35
	c14.2,16.2,23.7,35,28.7,56C924.6,788.6,926.2,798.8,925.6,806.3z M790.8,693.9c-7.3-0.5-16.5,0.6-25.5,2.8
	c-17.2,4.3-33.2,11.2-47,22.7c-9.8,8.2-18.8,17.1-25.9,27.7c-4.2,6.2-7.6,12.7-10.5,19.6c-4.9,11.6-8.3,23.6-9.1,36.1
	c-0.7,10.8-0.3,21.6,1.8,32.4c4.6,22.7,15,42.2,30.9,58.7c10,10.4,21.9,18.2,35.1,24.3c12.5,5.7,25.7,8.8,39.2,9.9
	c8.2,0.6,16.6,0.4,24.9-0.7c12.5-1.7,24.5-5.3,35.7-10.7c15.8-7.6,29.6-18,40.8-31.8c9.4-11.5,16.6-24.1,21.4-38.1
	c3.2-9.3,4.5-18.8,5.7-28.6c1-8.3,0.4-16.3-0.6-24.3c-1.8-14.6-6.6-28.4-13.8-41.4c-7-12.6-16.1-23.4-27-32.4
	C845.5,702.7,820.7,693.5,790.8,693.9z"/>
<path class="st3" d="M792.4,837.8c-17.4,1-32.6-14.6-32.5-32.3c0.1-15.6,14.3-31.3,32.6-31.2c15.9,0.1,32.3,15.8,31.8,32.7
	C823.9,822.5,810.6,839.1,792.4,837.8z M792,792c-7.9-1.6-15.2,7.2-14.8,14.3c0.5,8.1,7.4,15.3,15.5,15.1
	c7.6-0.2,14.7-6.8,14.2-14.6C806.3,797.4,801.4,792,792,792z"/>
<path class="st3" d="M720.2,838.9c-17.1,0.8-32.1-14.4-32.2-32c0-15.7,14.2-31.4,32.4-31.4c16.1,0,32.8,15.7,32.1,33
	C751.8,823.5,738.8,840.2,720.2,838.9z M734.8,807.7c0-9.3-5.5-14-14.9-14.8c-7.7-0.6-15.2,7.3-14.7,14.6c0.5,7.8,7.1,14.8,15.1,15
	C727.7,822.6,736.1,816.2,734.8,807.7z"/>
<path class="st3" d="M862.3,837.8c-16.4,1.2-32-15-31.9-32.1c0.1-17.7,16.7-31.9,32.1-31.4c15.9,0.5,32.4,12.3,32.3,32.6
	C894.6,824,880,839,862.3,837.8z M862.2,792c-9.9-0.8-15,7.9-15.1,13.8c-0.1,7.9,8.1,16,15.9,15.6c7.3-0.4,14.8-6.7,14.7-15.3
	C877.6,799.7,871.4,791.1,862.2,792z"/>
<path class="st3" d="M652.6,942.8l17.3,17.3c2.5,2.5,6.6,2.5,9.1,0l17.3-17.3c2.5-2.5,2.5-6.6,0-9.1l-17.3-17.3
	c-2.5-2.5-6.6-2.5-9.1,0l-17.3,17.3C650.1,936.2,650.1,940.3,652.6,942.8z"/>
<circle class="st4" cx="790.2" cy="809.2" r="170.6"/>
</svg>
