<?xml version="1.0" encoding="utf-8"?>
<!-- Generator: Adobe Illustrator 28.0.0, SVG Export Plug-In . SVG Version: 6.00 Build 0)  -->
<svg version="1.1" id="Capa_1" xmlns="http://www.w3.org/2000/svg" xmlns:xlink="http://www.w3.org/1999/xlink" x="0px" y="0px"
	 viewBox="0 0 1080 1080" style="enable-background:new 0 0 1080 1080;" xml:space="preserve">
<style type="text/css">
	.st0{fill:#0A0A0A;}
	.st1{fill:#FEFEFE;}
	.st2{fill:#FFFFFF;}
	.st3{fill:#6EE1EB;}
	.st4{fill:#29E4A5;}
	.st5{fill:#E2E2E2;}
	.st6{fill:#E1E1E1;}
	.st7{fill:none;stroke:#29E4A5;stroke-width:20;stroke-miterlimit:10;}
</style>
<path class="st0" d="M460.2,38.3c72.1-0.4,165.1-0.9,258.1-1.6c10.3-0.1,13.8,3.5,13.6,13.8c-0.5,32-0.2,63.9-0.2,95.9
	c-0.1,72.3-0.1,144.6-0.2,216.9c0,4.4,1.3,7.3,4.4,10.4c25.1,24.4,50.1,49.1,75.2,73.5c4.8,4.6,6.9,9.6,6.9,16.3
	c-0.2,53.9-0.2,107.9-0.3,161.8c0,1.1,0.1,2.2,0,3.3c-0.3,2.8,0.5,3.9,3.7,4.5c56.4,10.9,100.5,39.6,128.4,90.6
	c35.6,65,25.4,146.2-24.6,201.8c-30.6,34-68.7,54.6-114,60.1c-58.7,7.1-109.8-10.1-151.9-52c-15.2-15.1-27-32.8-35.1-52.6
	c-1.6-4-3.7-5.2-8-5.2c-166.7-0.3-333.5-0.7-500.2-1.2c-15.8,0-30-4.5-41.8-15.5c-4.6-4.4-7.7-9.6-9.2-15.7
	c-1.4-5.7-2.1-11.4-2.1-17.2c-0.2-126.6-0.5-253.2-0.8-379.8c0-2-0.1-4,0.1-6c0.2-2.4,0.9-4.7,2.9-6.3c11.2-9.1,20.9-19.7,31.2-29.6
	c16-15.3,31.8-30.9,47.8-46.2c2.7-2.6,3.8-5.2,3.8-9c-0.5-97.9-1-195.8-1.4-293.7c0-2.2,0-4.4,0.2-6.5c0.6-6,3.6-8.8,9.5-9.1
	c1.1-0.1,2.2,0,3.3,0C252.6,39.4,346,38.9,460.2,38.3z M439.3,55.1C439.3,55.2,439.3,55.2,439.3,55.1c-89.9,0.5-179.8,0.9-269.7,1.4
	c-7.6,0-6.5-0.9-6.5,6.8c0.4,101.7,0.8,203.4,1.2,305c0.2,36.1,0.5,72.3,0.5,108.4c0,3.9,1,6.1,4.6,8.1
	c21.4,11.9,42.6,24.2,63.9,36.3C302.2,560.4,371,599.7,439.9,639c2.7,1.6,4.9,2.5,8.3,0.6c87.3-47.8,174.8-95.4,262.2-143
	c3.2-1.7,4.2-3.6,4.2-7.1c0-143.5,0.1-286.9,0.2-430.4c0-5.9,0.6-5.1-5.3-5.2c-0.7,0-1.5,0-2.2,0C618,54.3,528.7,54.7,439.3,55.1z
	 M78.9,452.5c0,2.7,0,4.3,0,6c0.3,123,0.6,245.9,0.9,368.9c0,1.8,0,3.7,0.2,5.4c0.7,4.5,1.1,9.1,4.4,12.7c3.1,3.4,6.6,6.2,10.7,8.3
	c7.1,3.7,14.6,3.8,22.3,3.8c164.2,0.4,328.4,0.9,492.6,1.3c1.8,0,3.6,0.4,5.7-0.5c-13.9-58.7-3.3-112.6,35.1-159.5
	c38.5-46.9,89.3-68.2,149.9-67.7c0-54.8,0-109.3,0-164.1c-2.4,0.3-4,1.6-5.7,2.5c-41.3,22.5-82.5,44.9-123.7,67.4
	c-73.9,40.3-147.7,80.6-221.6,121c-3.1,1.7-6.2,2-9.3,0.4c-1.6-0.8-3.2-1.7-4.8-2.6C318.8,589.2,202,522.6,85.2,456.1
	C83.4,455,81.5,454,78.9,452.5z M954.2,806.8c-0.4-12.9-1.7-25.5-4.8-37.9c-19.7-79.4-95.8-130.3-178.3-119.4
	c-38.5,5.1-71.9,21.5-98.5,49.9c-39.1,41.6-54,90.8-42.1,147c14.5,68.4,75.5,122.3,153.9,124.1c26.2,0.6,51.4-4.5,74.8-16.3
	C919.7,923.7,950.8,874.1,954.2,806.8z M86.3,437.4c20.6,11.8,40.7,23.2,61,34.8c1.1-7.2,0.6-89.7-0.6-93.4
	C126.7,398.1,106.8,417.5,86.3,437.4z M792,452c-20.2-19.8-39.8-39-60.2-59c0,31.2,0,61.1,0,91.8C751.8,473.9,771.5,463.2,792,452z"
	/>
<path class="st1" d="M439.3,55.1c89.4-0.4,178.7-0.9,268.1-1.3c0.7,0,1.5,0,2.2,0c5.9,0,5.3-0.7,5.3,5.2
	c-0.1,143.5-0.2,286.9-0.2,430.4c0,3.6-1,5.4-4.2,7.1c-87.5,47.5-174.9,95.2-262.2,143c-3.4,1.9-5.6,1-8.3-0.6
	c-68.8-39.3-137.7-78.5-206.6-117.8c-21.3-12.1-42.5-24.4-63.9-36.3c-3.6-2-4.6-4.2-4.6-8.1c-0.1-36.1-0.4-72.3-0.5-108.4
	c-0.4-101.7-0.8-203.4-1.2-305c0-7.6-1.1-6.7,6.5-6.8C259.5,56.1,349.4,55.6,439.3,55.1C439.3,55.2,439.3,55.2,439.3,55.1z
	 M441.9,301.9c42.3,0,79.6-27,92.7-67.2c3-9.2,4.7-18.6,4.9-28.3c0.1-6.1-3-10.1-8-10.4c-5-0.3-8.4,3.5-8.9,9.6
	c-0.2,2.9-0.5,5.8-0.8,8.7c-5.7,46.1-48.5,77.7-94.2,69.6c-44.7-8-76.2-50.9-70.3-96.1c6.9-53,60.6-84.7,110.4-65.2
	c1.9,0.7,3.7,1.6,5.6,2c3.6,0.8,7.4-1.3,9-4.6c1.6-3.3,0.9-6.9-1.7-9.5c-1.3-1.3-2.9-2.1-4.6-2.8c-31-12.2-61.2-10.6-89.8,6.8
	c-35.4,21.4-52.6,63-44.4,104.9C351.1,266.7,393.7,301.8,441.9,301.9z M438.8,477.2c0-0.3,0-0.6,0-0.9c71.6,0,143.1,0,214.7,0
	c1.8,0,3.6,0,5.4-0.2c4.3-0.6,7.4-4,7.4-8.1c0.1-4.2-3.2-7.9-7.7-8.4c-2-0.2-4-0.1-6-0.1c-142.6,0.3-285.2,0.6-427.8,1
	c-1.6,0-3.3,0-4.9,0.2c-4.5,0.6-7.8,4.2-7.7,8.4c0.1,4,3.2,7.5,7.5,8.1c2.1,0.3,4.4,0.2,6.5,0.2
	C297.1,477.2,367.9,477.2,438.8,477.2z M360.9,365.7c0-0.4,0-0.8,0-1.2c45.8,0,91.5,0,137.3,0c2.3,0,4.7,0.2,7-0.6
	c3.8-1.3,6.2-4.3,6.2-8c0-3.7-2.4-6.8-6.2-8c-2.3-0.8-4.7-0.5-7-0.5c-50.3,0.3-100.6,0.6-150.9,0.8c-40.9,0.2-81.7,0.3-122.6,0.5
	c-2.2,0-4.4,0-6.5,0.5c-4.4,0.8-7.2,4.4-7,8.4c0.2,4.1,3.2,7.4,7.6,8c1.8,0.2,3.6,0.1,5.4,0.1C269.7,365.7,315.3,365.7,360.9,365.7z
	 M515,421.3c0-0.4,0-0.8,0-1.3c45.9,0,91.9,0,137.8,0c2.5,0,5.1,0.1,7.5-0.9c3.4-1.3,5.2-3.8,5.4-7.5c0.2-3.7-1.8-6.6-5.3-8
	c-2.1-0.9-4.3-0.8-6.4-0.8c-92.1,0.4-184.1,0.8-276.2,1.3c-1.8,0-3.7,0.1-5.4,0.5c-4.3,1-6.7,4.1-6.7,8.1c0,4.2,2.8,7.5,7.2,8.3
	c1.9,0.3,4,0.2,6,0.2C424.3,421.3,469.6,421.3,515,421.3z M438.2,533.6c0-0.4,0-0.8,0-1.2c39,0,78,0,117.1,0c2.3,0,4.7,0.2,7-0.7
	c3.7-1.4,6.1-4.6,6-8.2c-0.1-3.5-2.5-6.4-6-7.6c-2.1-0.8-4.3-0.7-6.5-0.6c-16,0.1-31.9,0.3-47.9,0.4c-61.9,0.4-123.8,0.7-185.7,1.1
	c-2.2,0-4.4,0-6.5,0.3c-4.4,0.7-7.3,4.1-7.3,8.2c0,4,3,7.6,7.3,8.2c2,0.3,4,0.2,6,0.2C360.5,533.7,399.3,533.6,438.2,533.6z
	 M439.6,225.3c-1.1-1-1.8-1.6-2.4-2.3c-11.1-11-22.1-22.1-33.2-33c-5-5-10-5.5-13.8-1.6c-3.8,3.9-3.2,8.6,2,13.7
	c13.2,13.2,26.5,26.4,39.8,39.6c5.5,5.4,9.4,5.5,14.9,0.1c32.5-31.9,65-63.9,97.5-95.8c0.9-0.9,1.8-1.8,2.6-2.8
	c2.7-3.7,2.5-7.9-0.5-10.9c-3-3.1-7.6-3.5-11.4-0.6c-1.7,1.3-3.2,2.9-4.8,4.4c-21.1,20.8-42.2,41.5-63.3,62.3
	C458,207.2,448.9,216.1,439.6,225.3z M276.9,404c0-0.1,0-0.2,0-0.2c-18,0-35.9,0-53.9,0c-1.8,0-3.7-0.1-5.4,0.3
	c-3.9,0.8-6.6,4.4-6.6,8.3c0.1,3.9,2.8,7.2,6.9,8c1.4,0.3,2.9,0.3,4.3,0.3c36.3,0.2,72.6,0.3,108.9,0.5c2,0,4-0.1,5.9-0.8
	c3.4-1.3,5.8-4.5,5.6-7.9c-0.2-3.5-2-6.1-5.3-7.5c-2.1-0.9-4.2-0.8-6.4-0.8C312.9,404,294.9,404,276.9,404z M599.8,364.7
	c0,0.1,0,0.2,0,0.3c17.8,0,35.6,0,53.3,0c2,0,4,0.1,6-0.3c4-0.7,6.7-4.1,6.8-8c0-3.9-2.6-7.4-6.6-8.2c-1.6-0.3-3.2-0.3-4.9-0.3
	c-35.9-0.2-71.8-0.3-107.8-0.4c-2,0-4,0.1-5.9,0.5c-3.6,0.9-6,3.8-6.2,7.3c-0.3,3.8,1.9,7,5.5,8.4c1.9,0.8,3.9,0.6,5.9,0.6
	C563.9,364.7,581.9,364.7,599.8,364.7z"/>
<path class="st2" d="M78.9,452.5c2.7,1.5,4.5,2.6,6.4,3.6C202,522.6,318.8,589.2,435.5,655.8c1.6,0.9,3.1,1.8,4.8,2.6
	c3.2,1.6,6.2,1.3,9.3-0.4c73.8-40.4,147.7-80.7,221.6-121c41.2-22.5,82.5-45,123.7-67.4c1.7-0.9,3.3-2.2,5.7-2.5
	c0,54.8,0,109.4,0,164.1c-60.6-0.6-111.5,20.8-149.9,67.7c-38.4,46.9-49.1,100.7-35.1,159.5c-2,1-3.9,0.6-5.7,0.5
	c-164.2-0.4-328.4-0.9-492.6-1.3c-7.7,0-15.2-0.1-22.3-3.8c-4.1-2.1-7.6-5-10.7-8.3c-3.3-3.5-3.7-8.2-4.4-12.7
	c-0.3-1.8-0.2-3.6-0.2-5.4c-0.3-123-0.6-245.9-0.9-368.9C78.9,456.8,78.9,455.2,78.9,452.5z M185.9,786.4c0,0,0,0.1,0,0.1
	c16,0,32,0,47.9,0c1.8,0,3.7,0,5.4-0.4c3.7-0.9,6.3-4.3,6.3-7.9c0-3.8-2.7-7.3-6.7-8.2c-1.6-0.3-3.2-0.4-4.9-0.4
	c-32.3-0.1-64.7-0.2-97-0.3c-2,0-4,0.1-5.9,0.8c-3.3,1.3-5.3,3.8-5.4,7.4c-0.2,3.7,1.8,6.6,5.3,8.1c2.1,0.9,4.3,0.8,6.4,0.8
	C153.6,786.4,169.8,786.4,185.9,786.4z"/>
<path class="st1" d="M86.3,437.4c20.5-19.9,40.4-39.2,60.4-58.7c1.2,3.7,1.7,86.2,0.6,93.4C127,460.5,106.9,449.1,86.3,437.4z"/>
<path class="st1" d="M792,452c-20.5,11.2-40.2,21.9-60.2,32.8c0-30.7,0-60.6,0-91.8C752.2,413,771.8,432.2,792,452z"/>
<path class="st0" d="M441.9,301.9c-48.2,0-90.7-35.2-100.1-82.6c-8.3-42,9-83.5,44.4-104.9c28.6-17.4,58.8-19,89.8-6.8
	c1.7,0.7,3.3,1.5,4.6,2.8c2.6,2.6,3.3,6.2,1.7,9.5c-1.6,3.4-5.3,5.4-9,4.6c-1.9-0.4-3.8-1.2-5.6-2c-49.8-19.6-103.5,12.2-110.4,65.2
	c-5.9,45.2,25.5,88.1,70.3,96.1c45.7,8.1,88.5-23.5,94.2-69.6c0.4-2.9,0.6-5.8,0.8-8.7c0.4-6.1,3.9-9.9,8.9-9.6
	c5,0.3,8.2,4.3,8,10.4c-0.2,9.7-1.9,19.1-4.9,28.3C521.5,274.9,484.2,301.9,441.9,301.9z"/>
<path class="st0" d="M438.8,477.2c-70.8,0-141.7,0-212.5,0c-2.2,0-4.4,0.1-6.5-0.2c-4.3-0.6-7.4-4-7.5-8.1c-0.1-4.2,3.1-7.8,7.7-8.4
	c1.6-0.2,3.3-0.2,4.9-0.2c142.6-0.3,285.2-0.7,427.8-1c2,0,4-0.1,6,0.1c4.5,0.5,7.8,4.2,7.7,8.4c-0.1,4.1-3.1,7.5-7.4,8.1
	c-1.8,0.3-3.6,0.2-5.4,0.2c-71.6,0-143.1,0-214.7,0C438.8,476.5,438.8,476.8,438.8,477.2z"/>
<path class="st0" d="M360.9,365.7c-45.6,0-91.2,0-136.7,0c-1.8,0-3.7,0.1-5.4-0.1c-4.3-0.6-7.4-4-7.6-8c-0.2-4.1,2.6-7.6,7-8.4
	c2.1-0.4,4.3-0.4,6.5-0.5c40.9-0.2,81.7-0.3,122.6-0.5c50.3-0.2,100.6-0.6,150.9-0.8c2.3,0,4.7-0.2,7,0.5c3.8,1.2,6.2,4.3,6.2,8
	c0,3.7-2.4,6.7-6.2,8c-2.3,0.8-4.7,0.6-7,0.6c-45.8,0-91.5,0-137.3,0C360.9,364.9,360.9,365.3,360.9,365.7z"/>
<path class="st0" d="M515,421.3c-45.4,0-90.8,0-136.2,0c-2,0-4,0.1-6-0.2c-4.4-0.8-7.2-4.1-7.2-8.3c0-4,2.5-7.1,6.7-8.1
	c1.7-0.4,3.6-0.5,5.4-0.5c92.1-0.4,184.1-0.9,276.2-1.3c2.2,0,4.3-0.1,6.4,0.8c3.5,1.5,5.5,4.4,5.3,8c-0.2,3.7-2,6.1-5.4,7.5
	c-2.4,1-5,0.9-7.5,0.9c-45.9,0-91.9,0-137.8,0C515,420.5,515,420.9,515,421.3z"/>
<path class="st0" d="M438.2,533.6c-38.8,0-77.7,0-116.5,0c-2,0-4,0.1-6-0.2c-4.3-0.6-7.3-4.2-7.3-8.2c0-4.1,2.9-7.5,7.3-8.2
	c2.1-0.3,4.3-0.3,6.5-0.3c61.9-0.4,123.8-0.7,185.7-1.1c16-0.1,31.9-0.3,47.9-0.4c2.2,0,4.3-0.1,6.5,0.6c3.5,1.3,5.9,4.2,6,7.6
	c0.1,3.6-2.3,6.8-6,8.2c-2.3,0.9-4.7,0.7-7,0.7c-39,0-78,0-117.1,0C438.2,532.8,438.2,533.2,438.2,533.6z"/>
<path class="st0" d="M439.6,225.3c9.3-9.2,18.4-18.1,27.5-27c21.1-20.8,42.2-41.5,63.3-62.3c1.6-1.5,3.1-3.1,4.8-4.4
	c3.7-2.8,8.4-2.5,11.4,0.6c2.9,3.1,3.1,7.3,0.5,10.9c-0.7,1-1.7,1.9-2.6,2.8c-32.5,32-65,63.9-97.5,95.8c-5.5,5.4-9.4,5.3-14.9-0.1
	c-13.3-13.1-26.6-26.4-39.8-39.6c-5.2-5.2-5.8-9.8-2-13.7c3.7-3.8,8.8-3.3,13.8,1.6c11.1,11,22.1,22,33.2,33
	C437.8,223.7,438.5,224.3,439.6,225.3z"/>
<path class="st0" d="M276.9,404c18,0,35.9,0,53.9,0c2.2,0,4.3,0,6.4,0.8c3.4,1.4,5.1,4,5.3,7.5c0.2,3.4-2.2,6.6-5.6,7.9
	c-1.9,0.7-3.9,0.8-5.9,0.8c-36.3-0.2-72.6-0.3-108.9-0.5c-1.4,0-2.9,0-4.3-0.3c-4-0.8-6.8-4.1-6.9-8c-0.1-3.9,2.6-7.4,6.6-8.3
	c1.7-0.4,3.6-0.3,5.4-0.3c18,0,35.9,0,53.9,0C276.9,403.8,276.9,403.9,276.9,404z"/>
<path class="st0" d="M599.8,364.7c-18,0-35.9,0-53.9,0c-2,0-4,0.1-5.9-0.6c-3.7-1.4-5.8-4.6-5.5-8.4c0.2-3.5,2.6-6.5,6.2-7.3
	c1.9-0.4,4-0.5,5.9-0.5c35.9,0.1,71.8,0.3,107.8,0.4c1.6,0,3.3,0,4.9,0.3c4,0.8,6.6,4.2,6.6,8.2c0,4-2.8,7.3-6.8,8
	c-1.9,0.3-4,0.3-6,0.3c-17.8,0-35.6,0-53.3,0C599.8,364.9,599.8,364.8,599.8,364.7z"/>
<path class="st0" d="M185.9,786.4c-16.2,0-32.3,0-48.5,0c-2.2,0-4.3,0.1-6.4-0.8c-3.5-1.5-5.5-4.4-5.3-8.1c0.2-3.7,2.1-6.1,5.4-7.4
	c1.9-0.8,3.9-0.8,5.9-0.8c32.3,0.1,64.7,0.2,97,0.3c1.6,0,3.3,0.1,4.9,0.4c4,0.8,6.8,4.3,6.7,8.2c0,3.6-2.6,7-6.3,7.9
	c-1.7,0.4-3.6,0.4-5.4,0.4c-16,0-32,0-47.9,0C185.9,786.5,185.9,786.5,185.9,786.4z"/>
<path class="st3" d="M49.4,498.7l14.7,14.7c3.5,3.5,9.1,3.5,12.6,0l14.7-14.7c3.5-3.5,3.5-9.1,0-12.6l-14.7-14.7
	c-3.5-3.5-9.1-3.5-12.6,0l-14.7,14.7C45.9,489.5,45.9,495.2,49.4,498.7z"/>
<path class="st3" d="M49.4,541.5l14.7,14.7c3.5,3.5,9.1,3.5,12.6,0l14.7-14.7c3.5-3.5,3.5-9.1,0-12.6l-14.7-14.7
	c-3.5-3.5-9.1-3.5-12.6,0l-14.7,14.7C45.9,532.3,45.9,538,49.4,541.5z"/>
<path class="st4" d="M661,952.3l17.3,17.3c2.5,2.5,6.6,2.5,9.1,0l17.3-17.3c2.5-2.5,2.5-6.6,0-9.1l-17.3-17.3
	c-2.5-2.5-6.6-2.5-9.1,0L661,943.2C658.5,945.7,658.5,949.8,661,952.3z"/>
<path class="st5" d="M927.2,805.7c0.1,21.9-4,40.6-12.2,58.5c-8.1,17.8-19.4,33.1-34,46c-18.7,16.5-40.7,27-65.1,31.8
	c-11,2.2-22.3,3.3-33.5,2.3c-16.8-1.5-33.2-5-48.6-12.5c-14.5-7-27.8-15.6-38.9-27.3c-17.8-18.8-30.1-40.5-35-66.3
	c-1.8-9.6-3.4-19.3-3-29c0.5-11.6,2.1-23,5.3-34.2c3.7-12.8,9.1-24.9,16.3-36.1c7.6-12,17.2-22.3,28.1-31.5
	c9.2-7.8,19.3-14,30.2-19.2c11.5-5.5,23.6-9,36.2-10.8c7.7-1.1,15.4-2.5,23.2-2c18.5,1.2,36.4,4.5,53.6,12.2
	c17.4,7.8,32,19.1,44.7,33c9.9,10.8,17.1,23.3,22.9,36.7c4,9.4,6.8,19.1,8.5,29.1C927,793.4,927.7,800.6,927.2,805.7z M790.8,926.9
	c7.5,0.4,15.7-0.4,23.9-2.1c21.5-4.4,40.2-14.2,56.4-28.7c13-11.6,22.7-25.6,29.7-41.7c6.5-14.9,9.1-30.4,9.7-46.4
	c0.3-7-0.9-14-2.1-21c-2.5-14.5-8.2-27.7-15.7-40.2c-3.7-6.3-8.2-11.9-13.2-17.2c-8.7-9.4-18.7-16.9-30-23.1
	c-14.7-8.1-30.4-12.5-46.9-13.8c-10.4-0.8-20.9-0.2-31.3,1.9c-21,4.1-39.5,13-55.6,26.9c-13.1,11.3-23.4,25-30.8,40.9
	c-10.2,21.9-13.1,44.7-9.4,68.3c3.6,22.7,13.5,42.7,29.2,59.6c10.5,11.4,23,20.2,37.3,26.6C757.4,923.6,773.2,927.5,790.8,926.9z"/>
<path class="st5" d="M726.4,780.8c3.7-0.4,7,1.6,10.3,4.1c5.5,4.2,10.2,9.2,15.1,14.1c2.2,2.2,4.4,4.4,6.6,6.5
	c4.8,4.8,4.8,4.8,9.8-0.2c0.4-0.4,0.8-0.8,1.2-1.2c16.3-16.3,32.7-32.6,48.9-48.9c6-6,12.7-11.4,18.7-17.4c6.2-6.2,13.8-7.4,22-3.9
	c1.4,0.6,2.5,1.4,3.6,2.4c7.2,7.2,14.6,14.1,20.9,22.1c9.6,12,9.7,23.8-2.3,36.4c-6.4,6.7-13.4,12.7-20,19.2
	c-23.2,22.7-45.9,46-69.1,68.7c-6.3,6.2-12.7,12.4-20.6,16.6c-6.9,3.7-13.4,4.5-20.2-0.4c-3.4-2.5-6.7-4.9-9.6-7.9
	c-10.4-10.4-21.1-20.5-31-31.3c-6.8-7.5-14.4-14.3-20.5-22.4c-2.2-2.9-3.9-6.1-5.7-9.3c-2.6-4.6-2.2-9,0-13.4c1.4-3,3.1-5.7,5.4-8.1
	c5.9-5.9,11.7-12,17.7-17.7C712.5,784,718.4,780.6,726.4,780.8z M873.8,775.2c0.4-4.1-2.1-6.6-4.5-9.1c-4.6-4.9-9.4-9.6-14.2-14.3
	c-4.7-4.7-5.8-4.7-10.6,0c-1,1-2.1,2-3.1,3.1c-19.4,20.1-39.9,39.1-58.8,59.7c-7.7,8.4-16.1,16.2-24.2,24.3
	c-1.4,1.4-2.8,2.8-4.8,3.5c-5.6,2.1-10.6-1.4-10.8-7.3c-0.2-4.4,2.3-7,5.1-9.7c3.1-3.1,3.1-3.2,0-6.4c-5.9-5.9-11.8-11.8-17.7-17.7
	c-4.2-4.1-8.1-4.2-13-0.7c-5.6,4.1-10.3,9.1-15.1,14.1c-4.3,4.5-4.3,6.5-0.6,11.8c0.5,0.7,1.1,1.5,1.6,2.2
	c6.7,9.1,15.5,16.2,22.8,24.7c7.1,8.2,15.3,15.5,22.9,23.2c1.9,2,4.1,3.5,6.4,5.1c2.4,1.7,5.1,2.1,7.8,1.2c3.3-1,6.5-2.2,9.3-4.4
	c5.5-4.2,9.9-9.5,14.7-14.4c20.8-21.3,41.7-42.5,63.2-63.1c7-6.8,13.9-13.7,21.1-20.4C872.9,779.1,874.2,777.5,873.8,775.2z"/>
<path class="st6" d="M777.8,869.4l17.3,17.3c2.5,2.5,6.6,2.5,9.1,0l17.3-17.3c2.5-2.5,2.5-6.6,0-9.1L804.2,843
	c-2.5-2.5-6.6-2.5-9.1,0l-17.3,17.3C775.2,862.8,775.2,866.9,777.8,869.4z"/>
<path class="st4" d="M792.2,943.8c-66.1,0.2-121.5-45.7-133.1-109.1c-11.3-61.7,23.4-125,81.8-148.9c39.8-16.3,79.3-14.9,117.1,5.5
	c36.4,19.7,58.9,50.6,66.8,91.4c14.1,72.8-34.3,144.6-110.2,158.9C806.7,943.1,798.8,943.6,792.2,943.8z M791.4,926.8
	c5.6,0.2,12.3-0.4,18.9-1.5c64.7-11.3,106.1-69.9,99.4-129.3c-4.9-43.3-27.5-74.9-66.8-93.3c-33.9-15.8-68.4-14.6-102,1.7
	c-47.6,23.1-74.5,75.9-65.3,126.9C685.8,887.1,733.3,926.8,791.4,926.8z"/>
<path class="st4" d="M763.3,811.3c2.1-2.8,3.1-4.5,4.5-5.9c21.7-21.9,43.4-43.9,65.9-65.1c2-1.9,4-3.7,6.2-5.3
	c7.2-5.2,17.2-4.4,23.5,1.9c6.3,6.3,12.5,12.6,18.4,19.3c6.6,7.4,10.3,15.8,7.1,26c-1.5,4.7-4.5,8.2-7.9,11.6
	c-16.4,16.2-32.8,32.4-49.2,48.7c-11.6,11.5-23,23.3-34.7,34.7c-6.2,6.1-12.9,11.7-19.5,17.5c-0.9,0.8-2,1.5-3.1,2.2
	c-11.2,7.2-17.8,6.8-28.1-1.6c-8.3-6.8-15.3-15-22.8-22.7c-9.4-9.6-18.7-19.3-28-29c-4.2-4.3-7.6-9.2-10.7-14.4
	c-3.5-5.8-3.6-11.9,0.2-16.9c9.1-11.7,18.6-23.3,32.2-30.3c6.7-3.4,13-2.3,18.8,2.3c7.7,6.2,14.3,13.5,21.3,20.2
	C759.3,806.2,760.6,808.2,763.3,811.3z M750.3,822.6c-7.5-7.9-14.6-15.6-21.9-23.1c-2.9-2.9-6.1-2.9-9.9-0.2c-7,4.9-13,11-18.4,17.6
	c-2,2.5-1.9,5-0.1,7.4c3.1,4.2,6.2,8.5,9.9,12.3c13.3,13.4,26.6,26.8,39.9,40.2c1.4,1.4,2.9,2.7,4.5,3.9c2.8,2.1,5.8,2.5,9.3,1.6
	c3.2-0.9,6.1-2.3,8.7-4.3c4.1-3,7.7-6.6,11.2-10.3c28.5-30,58.5-58.6,87.8-87.8c3.5-3.5,4.2-6.7,1.1-10.5
	c-6-7.3-12.8-13.9-19.6-20.4c-1.9-1.8-3.8-1.6-5.9-0.1c-2.2,1.6-4.2,3.4-6.1,5.4c-26.7,28.2-54.6,55.3-81.6,83.2
	c-1.4,1.4-2.7,2.9-4.5,3.9c-3.2,1.7-6.3,1.5-9.2-0.7c-3.7-2.9-4.1-8.1-0.9-12.1C746.5,826.3,748.8,824.2,750.3,822.6z"/>
<path class="st4" d="M777.7,869.1l17.3,17.3c2.5,2.5,6.6,2.5,9.1,0l17.3-17.3c2.5-2.5,2.5-6.6,0-9.1l-17.3-17.3
	c-2.5-2.5-6.6-2.5-9.1,0L777.7,860C775.1,862.5,775.1,866.6,777.7,869.1z"/>
<circle class="st7" cx="790.3" cy="809.2" r="171"/>
</svg>
