<?xml version="1.0" encoding="utf-8"?>
<!-- Generator: Adobe Illustrator 28.0.0, SVG Export Plug-In . SVG Version: 6.00 Build 0)  -->
<svg version="1.1" id="Capa_1" xmlns="http://www.w3.org/2000/svg" xmlns:xlink="http://www.w3.org/1999/xlink" x="0px" y="0px"
	 viewBox="0 0 1080 1080" style="enable-background:new 0 0 1080 1080;" xml:space="preserve">
<style type="text/css">
	.st0{fill:#0A0A0A;}
	.st1{fill:#DBB300;}
	.st2{fill:#FEFEFE;}
	.st3{fill:#FFFFFF;}
	.st4{fill:#6EE1EB;}
	.st5{fill:none;stroke:#DBB300;stroke-width:21;stroke-miterlimit:10;}
</style>
<path class="st0" d="M185.8,786.4c-16,0-32,0-47.9,0c-2,0-4,0.2-5.9-0.5c-3.8-1.2-6.2-4.2-6.2-8c0-3.8,2.2-6.8,6.1-8
	c1.8-0.6,3.6-0.6,5.4-0.6c32.3,0.1,64.7,0.2,97,0.3c1.4,0,2.9,0.1,4.3,0.3c4.1,0.8,6.9,4,7.1,7.8c0.2,4-2.8,7.7-7,8.5
	c-1.6,0.3-3.3,0.2-4.9,0.2c-16,0-32,0-47.9,0C185.8,786.5,185.8,786.5,185.8,786.4z"/>
<path class="st1" d="M792.1,944.3c-66.4-0.1-121.4-45.9-133-109.1c-11.3-61.7,23.4-125,81.8-148.9c39.8-16.3,79.3-14.9,117.1,5.5
	c36.4,19.7,58.9,50.6,66.7,91.4C938.9,856,890.6,927.8,814.6,942C806.5,943.5,798.4,944.1,792.1,944.3z M794,692.4
	c-20.4,0-39.5,4.8-57.4,14.5c-55.4,30-78.2,98.3-51.7,154.1c28.4,59.7,100,83.2,159.2,53.6c48.9-24.5,75.3-79,63.7-131
	C895.7,729.6,849.4,692.4,794,692.4z"/>
<path class="st1" d="M793.9,836.8c-17.7-0.1-32.4-14.6-32.2-32.1c0.1-17.2,14.3-31.3,31.7-31.3c18,0,32.6,14.6,32.4,32.4
	C825.6,823.1,811.4,836.9,793.9,836.8z M808.8,805.6c0.1-8.3-6.7-15.2-15.2-15.3c-8.1-0.1-14.8,6.1-15,14.1
	c-0.2,8.5,6.8,15.6,15.4,15.6C802.2,819.9,808.7,813.6,808.8,805.6z"/>
<path class="st1" d="M722.1,837.9c-17.8,0-32.4-14.4-32.4-32c0-17.2,14.2-31.4,31.5-31.5c18.1-0.1,32.7,14.4,32.6,32.3
	C753.7,824,739.7,837.9,722.1,837.9z M706.8,806c0,8.3,7,15.1,15.4,15.1c8.1,0,14.6-6.4,14.8-14.4c0.1-8.5-7-15.5-15.7-15.3
	C713,791.6,706.7,797.9,706.8,806z"/>
<path class="st1" d="M864.1,836.8c-17.8-0.1-32.1-14.5-32-32.2c0.1-17.4,14.2-31.2,31.7-31.2c17.7,0,32.4,14.5,32.5,32
	C896.2,822.7,881.8,836.9,864.1,836.8z M879.1,805.2c-0.1-8.3-7.1-15-15.6-14.9c-8.1,0.1-14.7,6.6-14.7,14.5
	c0,8.1,7.1,15.1,15.4,15.2C872.5,820,879.2,813.4,879.1,805.2z"/>
<g>
	<path class="st0" d="M460.1,38.3c72.3-0.4,165.1-0.9,258-1.6c10.7-0.1,13.9,3.4,13.8,14.1c-0.4,46-0.2,91.9-0.2,137.9
		c0,58.1,0,116.2-0.2,174.4c0,4.3,1.1,7.4,4.2,10.4c25.2,24.4,50.1,49.1,75.2,73.5c4.9,4.8,7.1,9.9,7,16.8
		c-0.3,53.9-0.2,107.9-0.3,161.8c0,1.1,0.1,2.2,0,3.3c-0.2,2.5,0.5,3.6,3.4,4.1c18.4,3.3,36.4,8.6,53,17.4
		c54.4,28.6,87,73.3,95.2,134.3c10.2,76.6-31.6,149-98.9,182.8c-30,15.1-61.9,21.8-95.4,19.3c-45.8-3.4-85.1-21.5-117.1-54.6
		c-14.5-15-25.9-32.2-33.9-51.5c-1.5-3.8-3.5-4.9-7.6-4.9c-166.7-0.3-333.5-0.7-500.2-1.1c-12,0-23.3-2.8-33.7-9
		c-13.1-7.9-18.8-19.6-19.6-34.4c-0.2-4,0-8-0.1-12c-0.3-124.2-0.6-248.5-0.9-372.7c0-2-0.1-4,0.1-6c0.2-2.6,1-5,3.1-6.7
		c11.2-9.2,21.1-19.9,31.6-29.9c15.7-15.1,31.2-30.4,47-45.4c2.9-2.8,3.9-5.5,3.9-9.5c-0.5-97.9-1-195.8-1.4-293.7
		c0-2.4,0-4.7,0.3-7.1c0.7-5.1,3.6-7.8,8.6-8.2c1.4-0.1,2.9-0.1,4.4-0.1C252.9,39.4,346.3,38.9,460.1,38.3z M439.3,55.1
		C439.3,55.2,439.3,55.2,439.3,55.1c-89.9,0.5-179.8,0.9-269.7,1.4c-7.6,0-6.5-0.9-6.5,6.8c0.4,101.7,0.8,203.4,1.2,305
		c0.2,36.1,0.5,72.3,0.5,108.4c0,3.9,1,6.1,4.6,8.1c21.4,11.9,42.6,24.2,63.9,36.3C302.2,560.4,371,599.7,439.9,639
		c2.7,1.6,4.9,2.5,8.3,0.6c87.3-47.8,174.8-95.4,262.2-143c3.2-1.7,4.2-3.6,4.2-7.1c0-143.5,0.1-286.9,0.2-430.4
		c0-5.9,0.6-5.1-5.3-5.2c-0.7,0-1.5,0-2.2,0C618,54.3,528.7,54.7,439.3,55.1z M800.3,467.1c-2.1,0.1-3.6,1.4-5.3,2.4
		c-90.6,49.4-181.2,98.8-271.8,148.1c-23.7,12.9-47.6,25.7-71.1,39c-5.5,3.1-9.9,3.4-15.1,0.1c-4.9-3.1-10.1-5.8-15.1-8.7
		c-112.5-64.2-225-128.3-337.5-192.4c-1.6-0.9-3.1-2.6-5.5-2.2c0,1.5,0,3,0,4.4c0.3,123.3,0.6,246.7,0.8,370c0,3.8,0.5,7.6,1.5,11.3
		c0.7,2.9,2.1,5.3,4.2,7.5c7.1,7.2,15.7,10.9,25.8,10.9c18.7,0,37.4,0.1,56.1,0.2c147.7,0.4,295.3,0.8,443,1.1
		c1.7,0,3.6,0.7,5.2-0.8c-13.9-58.9-3.1-112.7,35.5-159.6c38.4-46.7,89.2-67.9,149.3-67.3C800.9,625.5,801,471.4,800.3,467.1z
		 M954,815.1c-0.2-30.7-4.4-51.8-13.2-71.8C912,677.8,843.3,640,771.3,649.5c-38.7,5.1-72.2,21.6-99,50.1
		c-38.6,41.2-53.6,90-42.2,145.5c14.8,72,78.3,124.1,155.1,125.3c25.8,0.4,50.7-4.6,73.7-16.2C919.7,923.7,950.9,874,954,815.1z
		 M147.5,472.2c0-31.6,0-62.4,0-94.3c-20.8,20.2-40.8,39.6-61.2,59.4C106.8,449,126.9,460.5,147.5,472.2z M792,452
		c-20.4-19.9-39.8-39.2-60.2-58.9c0,31.2,0,61.2,0,91.8C752,473.8,771.6,463.1,792,452z"/>
	<path class="st2" d="M439.3,55.1c89.4-0.4,178.7-0.9,268.1-1.3c0.7,0,1.5,0,2.2,0c5.9,0,5.3-0.7,5.3,5.2
		c-0.1,143.5-0.2,286.9-0.2,430.4c0,3.6-1,5.4-4.2,7.1c-87.5,47.5-174.9,95.2-262.2,143c-3.4,1.9-5.6,1-8.3-0.6
		c-68.8-39.3-137.7-78.5-206.6-117.8c-21.3-12.1-42.5-24.4-63.9-36.3c-3.6-2-4.6-4.2-4.6-8.1c-0.1-36.1-0.4-72.3-0.5-108.4
		c-0.4-101.7-0.8-203.4-1.2-305c0-7.6-1.1-6.7,6.5-6.8C259.5,56.1,349.4,55.6,439.3,55.1C439.3,55.2,439.3,55.2,439.3,55.1z
		 M448.1,301.9c30.4-1.2,58.7-16.7,77.8-48.1c9-14.7,13.3-30.9,13.6-48.2c0.1-5.7-3.3-9.5-8.1-9.7c-4.8-0.2-8.3,3.5-8.7,9.2
		c-0.3,3.4-0.5,6.9-1,10.3c-4.8,38.3-38.3,68.7-76.9,69.5c-25.8,0.6-47.5-8.8-65.1-27.6c-29.8-31.9-30.8-81.8-2.5-113.7
		c22.5-25.3,58.5-33.7,90.6-21.1c1.7,0.7,3.4,1.4,5.1,1.8c3.9,0.9,7.8-1,9.5-4.6c1.6-3.5,0.8-7.3-2.3-9.8c-1.2-1-2.7-1.8-4.2-2.4
		c-31-12.2-61.2-10.5-89.8,6.9c-35.2,21.4-52.4,62.6-44.3,104.5C350.9,266.6,393.6,301.9,448.1,301.9z M439,477.2c0-0.3,0-0.6,0-0.9
		c71.4,0,142.8,0,214.2,0c1.8,0,3.6,0,5.4-0.2c4.6-0.6,7.8-4.1,7.8-8.4c-0.1-4.2-3.4-7.7-8-8.2c-2.2-0.2-4.4-0.1-6.5-0.1
		c-142.2,0.3-284.5,0.6-426.7,1c-1.6,0-3.3,0-4.9,0.1c-4.6,0.5-7.9,3.8-8,8.1c-0.1,4.4,3.3,8.1,8.2,8.5c2,0.2,4,0.1,6,0.1
		C297.3,477.2,368.1,477.2,439,477.2z M360.8,365.7c0-0.4,0-0.8,0-1.2c45.8,0,91.5,0,137.3,0c1.8,0,3.7,0.1,5.4-0.2
		c4.7-0.7,7.8-4.2,7.8-8.4c0-4.2-3.1-7.7-7.8-8.4c-2-0.3-4-0.2-6-0.2c-49.9,0.3-99.9,0.6-149.8,0.8c-41,0.2-82.1,0.3-123.1,0.5
		c-2.2,0-4.4,0-6.5,0.4c-4.4,0.8-7.2,4.3-7,8.4c0.1,4.1,3.2,7.4,7.5,8c1.8,0.3,3.6,0.1,5.4,0.1C269.7,365.7,315.3,365.7,360.8,365.7
		z M515.6,421.3c0-0.4,0-0.8,0-1.3c45.8,0,91.5,0,137.3,0c2.5,0,5.1,0.1,7.5-0.9c3.3-1.4,5.2-3.8,5.3-7.5c0.1-3.7-1.9-6.6-5.4-8
		c-2.1-0.9-4.3-0.8-6.4-0.8c-92.1,0.4-184.1,0.8-276.2,1.3c-1.8,0-3.7,0.1-5.4,0.5c-4.3,1-6.7,4.1-6.7,8.1c0,4.2,2.8,7.5,7.2,8.3
		c1.9,0.3,4,0.2,6,0.2C424.5,421.3,470.1,421.3,515.6,421.3z M438.3,533.6c0-0.4,0-0.8,0-1.2c39,0,78,0,117.1,0
		c2.5,0,5.1,0.2,7.5-0.9c3.4-1.4,5.1-4,5.3-7.6c0.2-3.4-2.1-6.6-5.6-7.9c-2.3-0.9-4.6-0.8-7-0.8c-18.1,0.2-36.3,0.4-54.4,0.5
		c-59.7,0.3-119.4,0.6-179.1,1c-2.2,0-4.4,0-6.5,0.4c-4.3,0.7-7.3,4.2-7.2,8.3c0.1,4,3.2,7.5,7.4,8.1c2,0.3,4,0.1,6,0.1
		C360.6,533.7,399.5,533.6,438.3,533.6z M439.1,225.8c-11.4-11.6-22.5-22.9-33.6-34.2c-1.5-1.5-3.1-3.1-4.9-4.3
		c-3.4-2.3-7.7-1.7-10.5,1.1c-2.9,2.9-3.3,6.9-1,10.5c0.8,1.2,1.8,2.3,2.9,3.3c13.2,13.2,26.5,26.4,39.8,39.6
		c5.5,5.5,9.4,5.5,14.9,0.2c32.5-31.9,65-63.9,97.5-95.8c1-1,2.1-2.1,2.9-3.2c2.4-3.5,2.1-7.6-0.7-10.5c-2.8-3-7.3-3.5-10.9-1
		c-1.8,1.2-3.3,2.8-4.8,4.4c-18.5,18.2-37,36.4-55.5,54.6C463.5,201.8,451.7,213.4,439.1,225.8z M276.9,404c0-0.1,0-0.2,0-0.2
		c-18,0-35.9,0-53.9,0c-1.8,0-3.7-0.1-5.4,0.3c-3.9,0.8-6.6,4.4-6.6,8.3c0.1,3.9,2.9,7.2,6.9,8c1.4,0.3,2.9,0.3,4.3,0.3
		c36.3,0.2,72.6,0.3,108.9,0.5c2,0,4-0.1,5.9-0.8c3.4-1.3,5.8-4.5,5.5-7.9c-0.2-3.5-2-6.1-5.4-7.5c-2.1-0.9-4.2-0.8-6.4-0.8
		C312.9,404,294.9,404,276.9,404z M600.1,364.7c0,0.1,0,0.2,0,0.3c17.8,0,35.6,0,53.3,0c1.8,0,3.7,0.1,5.4-0.2
		c4.3-0.7,7.1-4.2,7-8.4c-0.1-3.9-2.8-7.3-6.8-8c-1.4-0.3-2.9-0.2-4.3-0.2c-36.1-0.2-72.2-0.3-108.3-0.4c-2,0-4,0-5.9,0.6
		c-3.5,1.1-5.8,4-6,7.6c-0.1,3.7,1.8,6.6,5.3,8.1c2.1,0.9,4.3,0.7,6.4,0.7C564.2,364.7,582.1,364.7,600.1,364.7z"/>
	<path class="st3" d="M800.3,467.1c0.7,4.3,0.6,158.3-0.1,164c-60.1-0.6-110.9,20.7-149.3,67.3c-38.6,46.8-49.4,100.6-35.5,159.6
		c-1.6,1.5-3.5,0.8-5.2,0.8c-147.7-0.4-295.3-0.7-443-1.1c-18.7,0-37.4-0.2-56.1-0.2c-10.2,0-18.7-3.8-25.8-10.9
		c-2.1-2.1-3.5-4.5-4.2-7.5c-0.9-3.7-1.4-7.5-1.5-11.3c-0.3-123.3-0.5-246.7-0.8-370c0-1.4,0-2.9,0-4.4c2.4-0.4,3.9,1.3,5.5,2.2
		c112.5,64.1,225,128.3,337.5,192.4c5,2.9,10.2,5.6,15.1,8.7c5.2,3.3,9.6,3,15.1-0.1c23.5-13.3,47.4-26,71.1-39
		c90.6-49.4,181.2-98.8,271.8-148.1C796.7,468.6,798.2,467.2,800.3,467.1z M185.8,786.4c0,0,0,0.1,0,0.1c16,0,32,0,47.9,0
		c1.6,0,3.3,0.1,4.9-0.2c4.2-0.8,7.2-4.5,7-8.5c-0.2-3.9-3-7.1-7.1-7.8c-1.4-0.3-2.9-0.3-4.3-0.3c-32.3-0.1-64.7-0.2-97-0.3
		c-1.8,0-3.6,0-5.4,0.6c-3.9,1.2-6.1,4.2-6.1,8c0,3.8,2.3,6.8,6.2,8c2,0.6,4,0.5,5.9,0.5C153.8,786.4,169.8,786.4,185.8,786.4z"/>
	<path class="st2" d="M147.5,472.2c-20.6-11.8-40.7-23.2-61.2-34.9c20.4-19.8,40.4-39.2,61.2-59.4
		C147.5,409.8,147.5,440.6,147.5,472.2z"/>
	<path class="st2" d="M792,452c-20.4,11.1-40,21.8-60.2,32.8c0-30.6,0-60.6,0-91.8C752.2,412.8,771.6,432.1,792,452z"/>
	<path class="st0" d="M448.1,301.9c-54.4,0-97.1-35.3-106.3-83c-8.1-41.8,9.2-83.1,44.3-104.5c28.6-17.4,58.8-19.1,89.8-6.9
		c1.5,0.6,3,1.4,4.2,2.4c3.1,2.5,3.9,6.3,2.3,9.8c-1.7,3.6-5.5,5.6-9.5,4.6c-1.8-0.4-3.4-1.1-5.1-1.8c-32.1-12.6-68.1-4.3-90.6,21.1
		c-28.3,31.9-27.3,81.8,2.5,113.7c17.6,18.8,39.3,28.2,65.1,27.6c38.6-0.8,72.1-31.3,76.9-69.5c0.4-3.4,0.7-6.9,1-10.3
		c0.5-5.7,4-9.4,8.7-9.2c4.8,0.2,8.2,4,8.1,9.7c-0.3,17.2-4.7,33.5-13.6,48.2C506.8,285.1,478.4,300.7,448.1,301.9z"/>
	<path class="st0" d="M439,477.2c-70.8,0-141.7,0-212.5,0c-2,0-4,0.1-6-0.1c-4.9-0.4-8.3-4.1-8.2-8.5c0.1-4.3,3.4-7.6,8-8.1
		c1.6-0.2,3.3-0.1,4.9-0.1c142.2-0.3,284.5-0.7,426.7-1c2.2,0,4.4-0.1,6.5,0.1c4.6,0.5,7.9,4,8,8.2c0.1,4.2-3.2,7.8-7.8,8.4
		c-1.8,0.2-3.6,0.2-5.4,0.2c-71.4,0-142.8,0-214.2,0C439,476.5,439,476.8,439,477.2z"/>
	<path class="st0" d="M360.8,365.7c-45.6,0-91.2,0-136.7,0c-1.8,0-3.7,0.1-5.4-0.1c-4.3-0.6-7.4-4-7.5-8c-0.1-4.1,2.7-7.6,7-8.4
		c2.1-0.4,4.3-0.4,6.5-0.4c41-0.2,82.1-0.3,123.1-0.5c49.9-0.2,99.9-0.5,149.8-0.8c2,0,4-0.1,6,0.2c4.7,0.7,7.8,4.1,7.8,8.4
		c0,4.2-3.1,7.7-7.8,8.4c-1.8,0.3-3.6,0.2-5.4,0.2c-45.8,0-91.5,0-137.3,0C360.8,364.9,360.8,365.3,360.8,365.7z"/>
	<path class="st0" d="M515.6,421.3c-45.6,0-91.2,0-136.7,0c-2,0-4,0.1-6-0.2c-4.4-0.8-7.2-4.1-7.2-8.3c0-4,2.4-7.1,6.7-8.1
		c1.7-0.4,3.6-0.5,5.4-0.5c92.1-0.4,184.1-0.9,276.2-1.3c2.2,0,4.3-0.1,6.4,0.8c3.5,1.4,5.5,4.3,5.4,8c-0.1,3.7-2,6.1-5.3,7.5
		c-2.4,1-5,0.9-7.5,0.9c-45.8,0-91.5,0-137.3,0C515.6,420.5,515.6,420.9,515.6,421.3z"/>
	<path class="st0" d="M438.3,533.6c-38.8,0-77.7,0-116.5,0c-2,0-4,0.1-6-0.1c-4.3-0.6-7.4-4.1-7.4-8.1c-0.1-4.1,2.8-7.6,7.2-8.3
		c2.1-0.3,4.3-0.4,6.5-0.4c59.7-0.3,119.4-0.6,179.1-1c18.1-0.1,36.3-0.3,54.4-0.5c2.4,0,4.7-0.1,7,0.8c3.4,1.4,5.8,4.5,5.6,7.9
		c-0.2,3.5-2,6.1-5.3,7.6c-2.4,1-5,0.9-7.5,0.9c-39,0-78,0-117.1,0C438.3,532.8,438.3,533.2,438.3,533.6z"/>
	<path class="st0" d="M439.1,225.8c12.6-12.4,24.3-23.9,36.1-35.5c18.5-18.2,37-36.4,55.5-54.6c1.6-1.5,3.1-3.1,4.8-4.4
		c3.6-2.5,8.1-2,10.9,1c2.8,2.9,3.1,7,0.7,10.5c-0.8,1.2-1.9,2.2-2.9,3.2c-32.5,32-65,63.9-97.5,95.8c-5.4,5.3-9.4,5.3-14.9-0.2
		c-13.3-13.2-26.5-26.4-39.8-39.6c-1-1-2.1-2.1-2.9-3.3c-2.3-3.5-1.9-7.6,1-10.5c2.8-2.8,7-3.4,10.5-1.1c1.8,1.2,3.3,2.8,4.9,4.3
		C416.6,202.8,427.7,214.1,439.1,225.8z"/>
	<path class="st0" d="M276.9,404c18,0,35.9,0,53.9,0c2.2,0,4.3,0,6.4,0.8c3.4,1.4,5.1,4,5.4,7.5c0.2,3.4-2.2,6.7-5.5,7.9
		c-1.9,0.7-3.9,0.8-5.9,0.8c-36.3-0.2-72.6-0.3-108.9-0.5c-1.4,0-2.9,0-4.3-0.3c-4-0.8-6.8-4.1-6.9-8c-0.1-3.9,2.6-7.4,6.6-8.3
		c1.7-0.4,3.6-0.3,5.4-0.3c18,0,35.9,0,53.9,0C276.9,403.8,276.9,403.9,276.9,404z"/>
	<path class="st0" d="M600.1,364.7c-18,0-35.9,0-53.9,0c-2.2,0-4.3,0.2-6.4-0.7c-3.5-1.5-5.4-4.4-5.3-8.1c0.1-3.6,2.4-6.5,6-7.6
		c1.9-0.6,3.9-0.6,5.9-0.6c36.1,0.2,72.2,0.3,108.3,0.4c1.4,0,2.9,0,4.3,0.2c4,0.7,6.8,4,6.8,8c0.1,4.2-2.8,7.7-7,8.4
		c-1.8,0.3-3.6,0.2-5.4,0.2c-17.8,0-35.6,0-53.3,0C600.1,364.9,600.1,364.8,600.1,364.7z"/>
	<path class="st4" d="M48,496.7l14.7,14.7c3.5,3.5,9.1,3.5,12.6,0L90,496.7c3.5-3.5,3.5-9.1,0-12.6l-14.7-14.7
		c-3.5-3.5-9.1-3.5-12.6,0L48,484C44.5,487.5,44.5,493.2,48,496.7z"/>
	<path class="st4" d="M48,539.5l14.7,14.7c3.5,3.5,9.1,3.5,12.6,0L90,539.5c3.5-3.5,3.5-9.1,0-12.6l-14.7-14.7
		c-3.5-3.5-9.1-3.5-12.6,0L48,526.8C44.5,530.3,44.5,536,48,539.5z"/>
</g>
<path class="st1" d="M660.6,948.3l17.3,17.3c2.5,2.5,6.6,2.5,9.1,0l17.3-17.3c2.5-2.5,2.5-6.6,0-9.1l-17.3-17.3
	c-2.5-2.5-6.6-2.5-9.1,0l-17.3,17.3C658.1,941.7,658.1,945.8,660.6,948.3z"/>
<circle class="st5" cx="790.2" cy="809.2" r="171"/>
</svg>
