<?xml version="1.0" encoding="utf-8"?>
<!-- Generator: Adobe Illustrator 28.0.0, SVG Export Plug-In . SVG Version: 6.00 Build 0)  -->
<svg version="1.1" id="Capa_1" xmlns="http://www.w3.org/2000/svg" xmlns:xlink="http://www.w3.org/1999/xlink" x="0px" y="0px"
	 viewBox="0 0 1080 1080" style="enable-background:new 0 0 1080 1080;" xml:space="preserve">
<style type="text/css">
	.st0{fill:#0A0A0A;}
	.st1{fill:#FF5500;}
	.st2{fill:#FEFEFE;}
	.st3{fill:#FFFFFF;}
	.st4{fill:#6EE1EB;}
	.st5{fill:none;stroke:#FF5500;stroke-width:20;stroke-miterlimit:10;}
</style>
<path class="st0" d="M441.9,301.9c-48.2,0-90.8-35.1-100.1-82.5c-8.4-42.4,9.3-84.2,45.2-105.5c28.4-16.9,58.2-18.4,88.9-6.3
	c1.5,0.6,3,1.4,4.2,2.4c3.1,2.5,3.9,6.4,2.3,9.8c-1.7,3.6-5.6,5.5-9.5,4.6c-1.9-0.5-3.8-1.3-5.6-2c-33-12.8-70.2-3.2-92.1,23.8
	c-26.3,32.3-24.3,80.3,4.6,111.2c17.6,18.8,39.3,28.1,65.1,27.6c38.6-0.9,72.1-31.3,76.8-69.6c0.5-4,0.6-8,1.1-11.9
	c0.6-4.5,4.4-7.7,8.6-7.5c4.1,0.2,7.3,3.3,7.9,7.6c0.1,0.9,0.2,1.8,0.1,2.7c-2.2,38.4-19.8,67.2-54,85.3
	C471.9,298.8,457.3,301.9,441.9,301.9z"/>
<path class="st0" d="M439.1,225.8c12.6-12.4,24.4-24,36.2-35.6c18.5-18.2,37-36.4,55.5-54.6c1.6-1.5,3.1-3.1,4.9-4.4
	c3.4-2.4,7.7-2,10.5,0.7c3.1,2.9,3.5,7.2,1,10.9c-0.8,1.2-1.9,2.2-2.9,3.2c-32.5,32-65,63.9-97.5,95.8c-5.3,5.2-9.3,5.2-14.5,0.1
	c-13.6-13.4-27-26.9-40.6-40.3c-0.6-0.6-1.3-1.3-1.8-2c-2.9-3.9-2.8-8.2,0.4-11.3c3.1-3.1,7.6-3.3,11.4-0.4c1.6,1.2,3,2.7,4.4,4.1
	C416.9,203.2,427.9,214.3,439.1,225.8z"/>
<path class="st1" d="M791.9,944.3c-66.1,0-121-45.7-132.7-109c-11.4-61.6,23.4-125,81.7-148.9c39.8-16.3,79.3-15,117.1,5.5
	c36.4,19.7,58.9,50.6,66.8,91.3c14.1,72.8-34.2,144.7-110.2,158.9C806.6,943.5,798.4,944.1,791.9,944.3z M792.4,692.4
	c-18.2-0.1-36.6,4.5-54,13.6c-56.7,29.5-80.3,98.8-53.4,155.2c28.6,59.8,100.3,82.9,159.3,53.3c48.4-24.3,74.7-77.6,63.7-130
	C896.6,730,849.5,692.3,792.4,692.4z"/>
<path class="st1" d="M742,808.3c-7.4-7.2-15.1-14.7-22.8-22.2c-2.9-2.8-5.6-5.7-7.9-9c-2.7-4-2.9-8.1-0.7-12.3c1.3-2.6,3-4.9,5.1-7
	c8.8-8.9,17.6-17.9,26.4-26.8c6.4-6.5,10.6-6.9,18.4-2.2c3.1,1.9,5.9,4.2,8.5,6.8c7.1,7,14.4,13.9,21.4,21c2.1,2.1,3.3,2,5.2-0.1
	c7.3-7.6,14.7-15.1,22.1-22.6c2.8-2.9,5.7-5.6,9-7.9c4-2.7,8-2.9,12.3-0.8c2.5,1.2,4.7,2.7,6.7,4.7c9.2,9.1,18.4,18.1,27.5,27.2
	c6,6,6.4,10.3,2.2,17.5c-1.9,3.3-4.4,6.2-7,9c-7.4,7.5-14.8,15-22.1,22.5c-3.7,3.8-3.6,3.2-0.1,6.6c8.3,8.4,16.7,16.7,25,25.1
	c0.1,0.1,0.3,0.3,0.4,0.4c7.3,8.2,7.3,14.5-0.4,22.4c-9.4,9.6-18.9,19.1-28.5,28.5c-5.3,5.2-9.7,5.6-16.2,1.8
	c-3.5-2-6.6-4.5-9.4-7.3c-7.2-7.2-14.4-14.4-21.6-21.5c-2.7-2.7-2.8-2.7-5.4-0.1c-6.9,7-13.6,14.1-20.5,21.1c-2.8,2.9-5.6,5.6-9,7.9
	c-3.8,2.6-7.7,2.8-11.9,0.8c-2.6-1.3-5-2.9-7.1-5c-9-8.9-18.2-17.8-27.2-26.7c-6.2-6.2-6.7-10.5-2.3-17.9c1.9-3.1,4.1-5.9,6.7-8.6
	c7.2-7.4,14.4-14.8,21.7-22.2C740.9,810.6,741.8,809.9,742,808.3z M857.6,767.9c0.2-1.7-0.6-2.9-1.7-3.9c-6.1-6-12.1-12.1-18.3-17.9
	c-2.9-2.7-4.5-2.7-7.6-0.2c-1.1,0.9-2.1,2-3.2,3c-7.9,8-15.8,16.1-23.7,24.1c-6.6,6.6-13.3,6.7-20,0.3c-7.8-7.6-15.6-15.2-23.4-22.8
	c-1-1-2-2.1-3.2-2.9c-2.8-2-4.8-2-7.2,0.4c-5.9,5.9-11.8,11.8-17.6,17.9c-3,3.2-3,5.1-0.1,8.5c0.8,1,1.8,1.8,2.7,2.7
	c7.7,7.5,15.3,15,23,22.5c7.5,7.4,7.6,10.8,0.4,18.2c-2.4,2.5-4.8,4.9-7.2,7.4c-6.2,6.4-12.5,12.7-18.6,19.2c-3.8,4-3.7,5.9,0.1,9.7
	c5.5,5.5,11.1,11,16.7,16.4c3.5,3.3,5.3,3.3,8.9,0.2c1-0.8,1.8-1.8,2.7-2.7c8.1-8.3,16.2-16.7,24.4-24.9c4.5-4.5,8.4-4.7,13.5-1
	c1.9,1.4,3.6,3,5.3,4.7c8,7.9,15.9,15.9,24,23.8c3.9,3.8,5.9,3.7,9.7,0c5.3-5.2,10.6-10.5,15.8-15.8c4.4-4.5,4.4-6.2-0.1-10.8
	c-5.3-5.5-10.8-10.8-16.2-16.2c-3.3-3.3-6.8-6.6-10-10c-4.2-4.4-4.4-7.5-1.4-12.7c1.9-3.4,4.3-6.2,7-8.9c7.4-7.5,14.8-15,22.1-22.5
	C856,771.8,857.5,770.2,857.6,767.9z"/>
<g>
	<path class="st0" d="M185.9,786.4c-16.2,0-32.3,0-48.5,0c-2.2,0-4.3,0.1-6.4-0.8c-3.5-1.5-5.5-4.4-5.3-8.1c0.2-3.7,2.1-6.1,5.4-7.4
		c1.9-0.8,3.9-0.8,5.9-0.8c32.3,0.1,64.7,0.2,97,0.3c1.6,0,3.3,0.1,4.9,0.4c4,0.8,6.8,4.3,6.7,8.2c0,3.6-2.6,7-6.3,7.9
		c-1.7,0.4-3.6,0.4-5.4,0.4c-16,0-32,0-47.9,0C185.9,786.5,185.9,786.5,185.9,786.4z"/>
	<g>
		<path class="st0" d="M463.6,38.2c68-0.4,160.3-0.9,252.5-1.5c1.6,0,3.3,0,4.9,0c7.8,0.1,10.7,3.1,10.8,11c0,2.4-0.1,4.7-0.1,7.1
			c-0.1,102.8-0.1,205.6-0.3,308.4c0,4.1,1,7,4.1,10c25.3,24.5,50.3,49.3,75.6,73.9c4.8,4.6,6.8,9.7,6.8,16.3
			c-0.2,53.9-0.2,107.9-0.3,161.8c0,1.1,0.1,2.2,0,3.3c-0.4,2.9,0.6,3.8,3.7,4.4c27.6,5.2,53.4,14.9,76.2,31.6
			c40.8,29.8,65.2,69.8,71.7,119.8c8.8,67.9-22.6,134.4-80.4,172.3c-34.7,22.8-72.9,33-114.3,30c-45.4-3.3-84.4-21.3-116.3-54
			c-14.7-15.1-26.4-32.3-34.3-51.9c-1.7-4.1-3.8-5.1-8-5.1c-166.7-0.3-333.5-0.7-500.2-1.2c-15.8,0-30-4.5-41.8-15.6
			c-4.6-4.4-7.7-9.6-9.2-15.7c-1.4-5.7-2.1-11.4-2.1-17.2c-0.2-126.6-0.5-253.2-0.8-379.8c0-2-0.1-4,0.1-6c0.2-2.4,1-4.7,2.9-6.3
			c11.1-9.1,20.9-19.7,31.2-29.6c16-15.3,31.8-30.9,47.8-46.2c2.7-2.6,3.7-5.2,3.7-9c-0.5-97.9-1-195.8-1.4-293.7
			c0-2.5,0-5.1,0.3-7.6c0.7-4.8,3.5-7.4,8.3-7.9c1.4-0.2,2.9-0.1,4.4-0.1C252.6,39.4,346,38.9,463.6,38.2z M439.3,55.1
			C439.3,55.2,439.3,55.2,439.3,55.1c-89.9,0.5-179.8,0.9-269.7,1.4c-7.6,0-6.5-0.9-6.5,6.8c0.4,101.9,0.8,203.7,1.2,305.6
			c0.2,35.8,0.5,71.6,0.5,107.3c0,4.2,1.1,6.7,5.1,8.9c89.9,51.1,179.7,102.3,269.5,153.6c3.5,2,6,2.3,9.8,0.3
			c79.5-43.5,159.2-86.9,238.8-130.3c7.8-4.3,15.5-8.6,23.4-12.7c2.5-1.3,3.5-2.8,3.2-5.5c-0.1-1.1,0-2.2,0-3.3
			c0.1-142.4,0.2-284.8,0.3-427.1c0-6.3,0-6.3-6.4-6.2C618.7,54.3,529,54.7,439.3,55.1z M78.9,452.5c0,2.9,0,4.7,0,6.5
			c0.3,122.6,0.6,245.2,0.8,367.8c0,4.2,0.4,8.3,1.5,12.4c0.6,2.3,1.5,4.5,3.2,6.2c3.1,3.3,6.6,6.2,10.7,8.3
			c7.1,3.7,14.6,3.8,22.3,3.8c164.2,0.4,328.4,0.9,492.6,1.3c1.8,0,3.6,0.4,5.7-0.6c-14-58.7-3.3-112.6,35.1-159.4
			c38.4-46.9,89.3-68.3,149.9-67.7c0-54.8,0-109.3,0-164.1c-2.4,0.3-4,1.6-5.7,2.5c-41.3,22.5-82.5,44.9-123.7,67.4
			c-73.9,40.3-147.7,80.6-221.6,121c-3.1,1.7-6.2,2-9.3,0.4c-1.6-0.8-3.2-1.7-4.8-2.6C318.8,589.2,202,522.6,85.2,456.1
			C83.4,455,81.5,454,78.9,452.5z M954,814.8c-0.2-32.6-5.4-55.6-16-77.3c-29.9-61.5-96.5-97.3-166.7-88
			c-38.9,5.1-72.6,21.7-99.4,50.5c-38.4,41.1-53.3,89.8-41.9,145.1c14.8,71.7,77.8,123.8,154.5,125.4c26,0.5,51-4.5,74.3-16.2
			C919.7,923.8,950.9,874.1,954,814.8z M86.3,437.3c20.6,11.7,40.7,23.4,61.2,34.7c0-31.5,0-62.2,0-94.1
			C126.7,398.1,106.7,417.5,86.3,437.3z M792,452c-20.3-19.9-39.9-39.1-60.3-59c0,31.3,0,61.3,0,91.9C752,473.8,771.6,463.1,792,452
			z"/>
		<path class="st2" d="M439.3,55.1c89.7-0.4,179.4-0.9,269.1-1.3c6.4,0,6.4,0,6.4,6.2c-0.1,142.4-0.2,284.8-0.3,427.1
			c0,1.1-0.1,2.2,0,3.3c0.3,2.7-0.7,4.2-3.2,5.5c-7.9,4.1-15.6,8.4-23.4,12.7c-79.6,43.4-159.2,86.8-238.8,130.3
			c-3.7,2-6.3,1.7-9.8-0.3c-89.8-51.3-179.6-102.5-269.5-153.6c-3.9-2.2-5.1-4.7-5.1-8.9c-0.1-35.8-0.4-71.6-0.5-107.3
			c-0.4-101.9-0.8-203.7-1.2-305.6c0-7.6-1.1-6.7,6.5-6.8C259.5,56.1,349.4,55.6,439.3,55.1C439.3,55.2,439.3,55.2,439.3,55.1z
			 M441.9,301.9c15.3,0.1,30-3.1,43.5-10.3c34.2-18.1,51.8-46.9,54-85.3c0.1-0.9,0-1.8-0.1-2.7c-0.6-4.4-3.9-7.4-7.9-7.6
			c-4.2-0.2-8,3-8.6,7.5c-0.5,4-0.6,8-1.1,11.9c-4.8,38.3-38.3,68.7-76.8,69.6c-25.8,0.6-47.5-8.8-65.1-27.6
			c-29-31-30.9-78.9-4.6-111.2c22-27,59.2-36.6,92.1-23.8c1.9,0.7,3.7,1.6,5.6,2c3.9,1,7.8-1,9.5-4.6c1.6-3.5,0.8-7.3-2.3-9.8
			c-1.2-1-2.7-1.8-4.2-2.4c-30.6-12.1-60.4-10.6-88.9,6.3c-36,21.4-53.6,63.1-45.2,105.5C351.2,266.8,393.8,301.9,441.9,301.9z
			 M438.8,477.2c0-0.3,0-0.6,0-0.9c71.6,0,143.1,0,214.7,0c1.8,0,3.6,0,5.4-0.2c4.3-0.6,7.4-4,7.4-8.1c0.1-4.2-3.2-7.9-7.7-8.4
			c-2-0.2-4-0.1-6-0.1c-142.6,0.3-285.2,0.6-427.8,1c-1.6,0-3.3,0-4.9,0.2c-4.6,0.6-7.8,4.2-7.7,8.4c0.1,4,3.2,7.5,7.5,8.1
			c2.1,0.3,4.4,0.2,6.5,0.2C297.1,477.2,367.9,477.2,438.8,477.2z M360.7,365.7c0-0.4,0-0.8,0-1.2c45.9,0,91.9,0,137.8,0
			c2.5,0,5.1,0.1,7.5-0.9c3.4-1.4,5.1-4,5.3-7.5c0.2-3.5-2.1-6.6-5.5-8c-2.3-0.9-4.6-0.8-7-0.8c-23.6,0.1-47.2,0.3-70.8,0.5
			c-67.6,0.3-135.1,0.6-202.7,0.9c-2.4,0-4.7,0-7,0.4c-4.4,0.8-7.3,4.2-7.2,8.3c0.1,4.3,3.3,7.7,7.9,8.3c1.8,0.2,3.6,0.1,5.4,0.1
			C269.9,365.7,315.3,365.7,360.7,365.7z M515,421.3c0-0.4,0-0.8,0-1.3c45.9,0,91.9,0,137.8,0c2.4,0,4.7,0.1,7-0.7
			c3.7-1.3,5.8-4,5.9-7.6c0.1-3.9-2-6.9-5.8-8.2c-2.1-0.8-4.3-0.6-6.5-0.6c-91.9,0.4-183.8,0.8-275.6,1.3c-1.8,0-3.7,0.1-5.4,0.5
			c-4.3,1-6.7,4-6.7,8.1c0,4.2,2.7,7.5,7.1,8.3c1.9,0.3,4,0.2,6,0.2C424.2,421.3,469.6,421.3,515,421.3z M437.9,533.7
			c0-0.4,0-0.8,0-1.2c39.2,0,78.4,0,117.6,0c2.2,0,4.3,0.2,6.5-0.6c3.8-1.3,6.2-4.4,6.3-8c0-3.6-2.5-6.8-6.2-8
			c-2.3-0.8-4.7-0.6-7-0.6c-38.3,0.2-76.6,0.5-114.9,0.8c-39.4,0.2-78.8,0.4-118.1,0.7c-2.2,0-4.4,0-6.5,0.4c-4.1,0.7-6.9,3.9-7,7.8
			c-0.2,4,2.8,7.7,7,8.5c1.9,0.3,4,0.2,6,0.2C360.2,533.7,399,533.7,437.9,533.7z M439.1,225.8c-11.3-11.5-22.2-22.6-33.2-33.7
			c-1.4-1.4-2.8-2.9-4.4-4.1c-3.8-2.9-8.2-2.7-11.4,0.4c-3.2,3.2-3.3,7.5-0.4,11.3c0.5,0.7,1.2,1.4,1.8,2
			c13.5,13.5,27,26.9,40.6,40.3c5.2,5.1,9.2,5.1,14.5-0.1c32.5-31.9,65-63.9,97.5-95.8c1-1,2.1-2.1,2.9-3.2c2.5-3.7,2.1-8-1-10.9
			c-2.8-2.7-7.1-3.1-10.5-0.7c-1.8,1.2-3.3,2.8-4.9,4.4c-18.5,18.2-37,36.4-55.5,54.6C463.5,201.8,451.7,213.4,439.1,225.8z
			 M276.4,404c0-0.1,0-0.2,0-0.2c-17.8,0-35.6,0-53.4,0c-1.8,0-3.7-0.1-5.4,0.3c-3.9,0.8-6.6,4.4-6.5,8.3c0.1,3.9,2.9,7.2,6.9,8
			c1.4,0.3,2.9,0.3,4.3,0.3c36.3,0.2,72.6,0.3,108.9,0.5c2,0,4-0.1,5.9-0.8c3.4-1.3,5.8-4.6,5.5-7.9c-0.2-3.5-2-6.1-5.4-7.5
			c-2.1-0.9-4.2-0.8-6.4-0.8C312.7,404,294.5,404,276.4,404z M600.2,364.7c0,0.1,0,0.2,0,0.3c17.6,0,35.2,0,52.8,0c2,0,4,0.1,6-0.3
			c4-0.7,6.8-4,6.9-7.9c0.1-4.2-2.7-7.7-7-8.4c-1.2-0.2-2.5-0.2-3.8-0.2c-36.3-0.2-72.6-0.3-108.9-0.4c-1.8,0-3.7,0.1-5.4,0.5
			c-3.9,0.9-6.3,4-6.4,7.8c-0.1,3.8,2.2,6.9,5.9,8.2c1.9,0.7,3.9,0.5,5.9,0.5C564.3,364.7,582.3,364.7,600.2,364.7z"/>
		<path class="st3" d="M78.9,452.5c2.7,1.5,4.5,2.6,6.4,3.6C202,522.6,318.8,589.2,435.6,655.8c1.6,0.9,3.1,1.8,4.8,2.6
			c3.2,1.6,6.2,1.3,9.3-0.4c73.8-40.4,147.7-80.7,221.6-121c41.2-22.5,82.5-45,123.7-67.4c1.7-0.9,3.2-2.3,5.7-2.5
			c0,54.8,0,109.4,0,164.1c-60.6-0.6-111.5,20.8-149.9,67.7c-38.4,46.9-49.1,100.7-35.1,159.4c-2.1,1-3.9,0.6-5.7,0.6
			c-164.2-0.4-328.4-0.9-492.6-1.3c-7.7,0-15.2-0.1-22.3-3.8c-4.1-2.1-7.6-5-10.7-8.3c-1.6-1.7-2.6-3.9-3.2-6.2
			c-1.1-4.1-1.5-8.2-1.5-12.4c-0.3-122.6-0.5-245.2-0.8-367.8C78.9,457.2,78.9,455.4,78.9,452.5z M185.9,786.4c0,0,0,0.1,0,0.1
			c16,0,32,0,47.9,0c1.8,0,3.7,0,5.4-0.4c3.7-0.9,6.3-4.3,6.3-7.9c0.1-3.8-2.7-7.3-6.7-8.2c-1.6-0.3-3.2-0.4-4.9-0.4
			c-32.3-0.1-64.7-0.2-97-0.3c-2,0-4,0.1-5.9,0.8c-3.3,1.3-5.3,3.8-5.4,7.4c-0.2,3.7,1.8,6.6,5.3,8.1c2.1,0.9,4.3,0.8,6.4,0.8
			C153.6,786.4,169.7,786.4,185.9,786.4z"/>
		<path class="st2" d="M86.3,437.3c20.4-19.8,40.4-39.2,61.2-59.4c0,31.9,0,62.7,0,94.1C127,460.7,106.9,449,86.3,437.3z"/>
		<path class="st2" d="M792,452c-20.4,11.1-40.1,21.8-60.3,32.8c0-30.6,0-60.6,0-91.9C752.1,412.9,771.7,432.1,792,452z"/>
		<path class="st0" d="M438.8,477.2c-70.8,0-141.7,0-212.5,0c-2.2,0-4.4,0.1-6.5-0.2c-4.3-0.6-7.4-4-7.5-8.1
			c-0.1-4.2,3.1-7.8,7.7-8.4c1.6-0.2,3.3-0.2,4.9-0.2c142.6-0.3,285.2-0.7,427.8-1c2,0,4-0.1,6,0.1c4.5,0.5,7.8,4.2,7.7,8.4
			c-0.1,4.1-3.1,7.5-7.4,8.1c-1.8,0.3-3.6,0.2-5.4,0.2c-71.6,0-143.1,0-214.7,0C438.8,476.5,438.8,476.8,438.8,477.2z"/>
		<path class="st0" d="M360.7,365.7c-45.4,0-90.8,0-136.2,0c-1.8,0-3.6,0.1-5.4-0.1c-4.6-0.5-7.9-4-7.9-8.3
			c-0.1-4.1,2.8-7.5,7.2-8.3c2.3-0.4,4.7-0.4,7-0.4c67.6-0.3,135.1-0.6,202.7-0.9c23.6-0.1,47.2-0.3,70.8-0.5c2.4,0,4.7-0.1,7,0.8
			c3.4,1.4,5.7,4.5,5.5,8c-0.2,3.5-1.9,6.1-5.3,7.5c-2.4,1-5,0.9-7.5,0.9c-45.9,0-91.9,0-137.8,0
			C360.7,364.9,360.7,365.3,360.7,365.7z"/>
		<path class="st0" d="M515,421.3c-45.4,0-90.8,0-136.2,0c-2,0-4,0.1-6-0.2c-4.4-0.8-7.2-4.1-7.1-8.3c0-4,2.5-7.1,6.7-8.1
			c1.7-0.4,3.6-0.5,5.4-0.5c91.9-0.4,183.8-0.9,275.6-1.3c2.2,0,4.3-0.2,6.5,0.6c3.8,1.4,6,4.4,5.8,8.2c-0.1,3.7-2.3,6.4-5.9,7.6
			c-2.3,0.8-4.7,0.7-7,0.7c-45.9,0-91.9,0-137.8,0C515,420.5,515,420.9,515,421.3z"/>
		<path class="st0" d="M437.9,533.7c-38.8,0-77.7,0-116.5,0c-2,0-4,0.1-6-0.2c-4.2-0.7-7.2-4.4-7-8.5c0.2-3.9,2.9-7.1,7-7.8
			c2.1-0.4,4.3-0.4,6.5-0.4c39.4-0.2,78.8-0.4,118.1-0.7c38.3-0.2,76.6-0.5,114.9-0.8c2.3,0,4.7-0.2,7,0.6c3.8,1.3,6.2,4.4,6.2,8
			c0,3.6-2.5,6.7-6.3,8c-2.1,0.7-4.3,0.6-6.5,0.6c-39.2,0-78.4,0-117.6,0C437.9,532.8,437.9,533.2,437.9,533.7z"/>
		<path class="st0" d="M276.4,404c18.1,0,36.3,0,54.4,0c2.2,0,4.3,0,6.4,0.8c3.4,1.4,5.1,4,5.4,7.5c0.2,3.4-2.2,6.7-5.5,7.9
			c-1.9,0.7-3.9,0.8-5.9,0.8c-36.3-0.2-72.6-0.3-108.9-0.5c-1.4,0-2.9,0-4.3-0.3c-4-0.8-6.8-4-6.9-8c-0.1-3.9,2.6-7.4,6.5-8.3
			c1.7-0.4,3.6-0.3,5.4-0.3c17.8,0,35.6,0,53.4,0C276.4,403.8,276.4,403.9,276.4,404z"/>
		<path class="st0" d="M600.2,364.7c-18,0-35.9,0-53.9,0c-2,0-4,0.2-5.9-0.5c-3.7-1.2-6-4.4-5.9-8.2c0.1-3.8,2.5-6.9,6.4-7.8
			c1.7-0.4,3.6-0.5,5.4-0.5c36.3,0.1,72.6,0.3,108.9,0.4c1.3,0,2.6,0,3.8,0.2c4.2,0.8,7.1,4.2,7,8.4c-0.1,4-2.8,7.3-6.9,7.9
			c-2,0.3-4,0.3-6,0.3c-17.6,0-35.2,0-52.8,0C600.2,364.9,600.2,364.8,600.2,364.7z"/>
		<path class="st4" d="M49.3,496.7L64,511.3c3.5,3.5,9.1,3.5,12.6,0l14.7-14.7c3.5-3.5,3.5-9.1,0-12.6l-14.7-14.7
			c-3.5-3.5-9.1-3.5-12.6,0l-14.7,14.7C45.8,487.5,45.8,493.2,49.3,496.7z"/>
		<path class="st4" d="M49.3,539.5L64,554.1c3.5,3.5,9.1,3.5,12.6,0l14.7-14.7c3.5-3.5,3.5-9.1,0-12.6l-14.7-14.7
			c-3.5-3.5-9.1-3.5-12.6,0l-14.7,14.7C45.8,530.3,45.8,536,49.3,539.5z"/>
	</g>
</g>
<path class="st1" d="M661,950.3l17.3,17.3c2.5,2.5,6.6,2.5,9.1,0l17.3-17.3c2.5-2.5,2.5-6.6,0-9.1l-17.3-17.3
	c-2.5-2.5-6.6-2.5-9.1,0L661,941.2C658.4,943.7,658.4,947.8,661,950.3z"/>
<circle class="st5" cx="790.2" cy="809.9" r="171"/>
</svg>
