<?xml version="1.0" encoding="utf-8"?>
<!-- Generator: Adobe Illustrator 28.0.0, SVG Export Plug-In . SVG Version: 6.00 Build 0)  -->
<svg version="1.1" id="Capa_1" xmlns="http://www.w3.org/2000/svg" xmlns:xlink="http://www.w3.org/1999/xlink" x="0px" y="0px"
	 viewBox="0 0 1080 1080" style="enable-background:new 0 0 1080 1080;" xml:space="preserve">
<style type="text/css">
	.st0{fill:#29E4A5;}
	.st1{fill:#6EE1EB;}
	.st2{fill:none;stroke:#29E4A5;stroke-width:21;stroke-miterlimit:10;}
</style>
<path d="M656.2,785.2c-2-1-4.2-0.5-6.3-0.5c-56.3,0-112.6,0-168.9,0c-3.7,0-6.8-0.4-8.9-3.8c-3.1-5-0.3-11.5,5.7-12.5
	c1.8-0.3,3.6-0.1,5.4-0.1c44.7,0,89.4,0.3,134.1-0.2c14.1-0.2,28.2-0.8,42.4-0.8c2.6,0,4.1-0.9,5-3.2c2.5-6,5.4-11.8,8.7-17.5
	c5.5-9.6,11.8-18.6,18.8-27.2c4.9-5.9,10.2-11.4,15.7-16.5c13.8-12.7,28.8-23.4,46.1-31.2c10.6-4.8,21.4-8.9,32.5-12.2
	c2-0.6,2.5-1.7,2.5-3.5c0-4.5,0-9.1,0-13.6c0-4-0.4-8,0.9-11.9c0.3-0.8,0.2-1.8,0.1-2.7c-2.1-14.8-0.6-29.7-1-44.6
	c-0.2-8.7,0.8-7.8-8-7.8c-85.6,0-171.1-0.5-256.7,0.3c-29.4,0.3-58.8,0.3-88.2,0.8c-1.6,0-3.3,0.1-4.9-0.1c-4.7-0.6-7.5-4.2-7.5-9
	c0.1-4.4,3.2-7.8,7.7-8.3c1.6-0.2,3.3-0.1,4.9-0.1c72.8,0,145.7,0.8,218.5-0.3c51.4-0.8,102.7-0.2,154.1-0.8c4.9-0.1,5-0.1,5-4.7
	c0-7.5,0.1-14.9,0-22.3c0-4.4-0.1-4.5-4.7-4.5c-15.8,0-31.6,0.3-47.4-0.1c-87.7-2.2-175.4,0-263.1-1.3c-23.9-0.4-47.9-0.2-71.8-0.8
	c-6.2-0.1-8.8-2.7-8.7-8.5c0.1-5.1,2.5-7.7,7.7-7.8c6.2-0.1,12.4,0,18.5,0c5.4,0,5.4,0,5.4-5.4c0-26.3-0.1-52.7,0.1-79
	c0.1-19.2,5.8-36.6,17.9-51.8c8.2-10.4,18.5-18.3,29.5-25.3c17.1-10.7,36-17,55.6-21.1c6.7-1.4,13.5-2.1,20.3-2.9
	c8.5-1,17-0.9,25.5-0.8c15.9,0.3,31.6,2.9,47,7.2c17.2,4.8,32.8,12.4,47.2,22.9c6.9,5,12.9,11.1,17.9,18c1.8,2.5,3.7,3,6.4,3
	c10.3-0.1,20.7-0.2,31.1,0c11.6,0.3,21.5,4.8,28.8,13.9c3.9,4.8,5.2,10.6,5.2,16.8c0,32.5,0,65,0,97.5c0,8.8-0.9,7.9,7.8,7.9
	c10,0,20,0,30,0c7.3,0,11.2,3.8,11.2,11c0.1,15.3,0.1,30.5,0,45.8c0,5.9-2.5,8.5-8.1,9.7c-4.1,0.9-8.2,1-12.4,1
	c-4.4,0-4.5,0.1-4.5,4.7c0,10.5,0,21.1,0,31.6c0,12.5,0,25.1,0,37.6c0,4.4,1,5.4,5.1,4.4c3.6-0.9,7.2-0.8,10.8-0.9
	c2.7-0.1,5.4,0.2,8.1-0.8c0.8-0.3,1.8-0.4,2.7-0.2c7.3,1.9,14.8,0.2,22.1,1.8c3.9,0.8,7.9,0.2,11.8,1.2c14.4,3.5,28.6,7.7,42.2,13.9
	c14.4,6.7,27.7,15,39.9,25.1c15.8,13,28.6,28.6,38.9,46.3c5.7,9.8,10.5,19.9,14,30.6c4,12.2,6.8,24.6,8.4,37.5
	c1.3,10.9,1.2,21.8,0.7,32.6c-0.5,11.2-2.7,22.2-5.7,33c-5.6,20.3-14.2,39.2-26.5,56.2c-8.6,11.9-18.1,22.9-29.3,32.6
	c-18.6,16.2-39.6,27.9-62.7,36.1c-12.5,4.4-25.4,6.7-38.6,8.4c-11.6,1.5-23.2,1.2-34.8,0.7c-11.2-0.4-22.2-2.7-33-5.7
	c-20.3-5.5-39.1-14.3-56.3-26.4c-6.5-4.6-12.7-9.6-18.4-15.2c-9.8-9.7-19.3-19.6-26.9-31.2c-12.8-19.7-21.3-41.1-26-64
	c-3.2-15.7-3.1-31.7-2.2-47.7c0.6-10.4,3.1-20.7,5.4-30.9C656.2,787,656.8,786.2,656.2,785.2z M467.3,464c0,13.1,0,26.1,0,39.2
	c0,4.5,0.1,4.5,4.6,4.6c7.6,0.1,15.3,0,22.9,0c5.1,0,5.2-0.1,5.2-5.1c0-14,0-28,0-42c0-1.5-0.1-2.9,0.1-4.4c0.5-3.8,3.4-6.7,7-7.4
	c3.9-0.7,6.9,1,8.9,4.6c1.2,2.2,1.4,4.4,1.4,6.8c0,13.6,0,27.2,0,40.9c0,6.9-0.4,6.5,6.5,6.5c36.5,0,73,0.1,109.5,0
	c5.6,0,11.1,1.5,16.8,1.1c5.2-0.3,5.6-0.5,5.6-5.7c0-12,0-24,0-36c0-1.3,0-2.6-0.4-3.8c-1.3-3.2-0.2-6.1,1-8.9
	c1.5-3.7,5.1-5.3,9.5-4.5c3,0.5,6.4,4,6.3,7.2c-0.3,9.6,1.7,19.1,1.2,28.8c-0.3,6.2-0.1,12.4,0,18.5c0.1,4.1,0.1,4.2,4.4,4.2
	c9.3,0.1,18.5,0,27.8,0c4.8,0,4.9-0.1,4.8-4.9c-0.3-10.9-0.2-21.7-0.8-32.6c-1-19.9-0.3-39.9-1.2-59.8c-0.6-12.7-4.9-23.7-12.7-33.3
	c-9-11-20.5-19-33.2-25.1c-18-8.6-37.2-12.9-57-14.1c-14.1-0.9-28.2-0.5-42.2,1.8c-15.6,2.6-30.7,6.9-45.1,13.5
	c-14.4,6.5-26.8,16-37,28c-6.8,8-11.6,17.3-12.5,27.8c-0.8,8.6-1.7,17.3-1.4,26C467.6,445.5,467.3,454.7,467.3,464z M827.9,992.8
	c4.4,0.2,8.7-0.8,13-0.9c9.1-0.2,17.9-2.1,26.7-4.2c14.7-3.4,28.5-9.1,41.8-16.4c19-10.5,35.4-23.9,48.9-40.8
	c13.7-17.1,23.8-36.3,30-57.4c4.2-14.5,6.1-29.3,6.5-44.3c0.2-7.5-1-15.1-1.9-22.6c-1.7-13.9-5.5-27.3-11.2-40.1
	c-9.5-21.2-22.4-40-40.3-55.3c-13.2-11.3-27.4-20.7-43.3-27.5c-17.1-7.3-35-11.5-53.5-12.9c-17.4-1.3-34.7,0.6-51.6,4.8
	c-17.2,4.3-33.2,11.3-48.3,20.5c-14.2,8.6-26.7,19.5-37.5,32c-11.4,13.2-20.6,27.8-27.4,44.1c-7.8,18.6-11.8,37.9-12.8,57.9
	c-0.5,9.4,0.7,18.8,2,28.1c2.1,14.6,6.2,28.6,12.4,42c8.7,19,20.7,35.5,36.2,49.6c8.2,7.5,16.8,14.2,26.3,20
	C769.6,985,797.9,992,827.9,992.8z M764.9,422.2L764.9,422.2c0-5.8,0-11.6,0-17.4c0-0.4,0-0.7,0-1.1c0.6-6-0.7-10.3-9.9-12.5
	c-9.6-2.4-19.5-0.7-29.2-1.1c-1.7-0.1-2,0.9-1.7,2.5c0.7,3.7,1.3,7.5,1.5,11.2c0.3,11.6,0.6,23.1,0.9,34.7
	c0.7,21.9,0.2,43.8,1.3,65.7c0,0.4,0,0.7,0,1.1c-0.2,2.6,1.1,3.5,3.6,3.5c10.3-0.1,20.7-0.1,31,0c2.5,0,3.7-1,3.5-3.5
	c-0.1-1.3,0-2.5,0-3.8c-0.5-19.9,1-39.9-0.9-59.8C764.4,435.4,764.9,428.8,764.9,422.2z"/>
<path d="M148.3,429.9c2.4,1,4.2,0.6,5.9,0.6c18.7,0,37.4,0.5,56.1-0.1c31-1.1,62-1.1,93.1-0.8c11.9,0.1,21.5,5.8,28.5,15.4
	c2.9,4,3.5,8.6,3.5,13.4c0,33.4-0.9,66.9,0.3,100.2c1.2,35.6,0.1,71.1,0.8,106.7c0.1,6.9-0.2,13.7-2.7,20.3
	c-1.3,3.3-0.3,4.4,3.1,4.2c14.5-0.7,28.9,0.5,43.3,0.1c4.5-0.1,8,3.3,8.5,7.5c0.4,4.1-2.8,8-7.3,8.8c-1.7,0.3-3.9-0.7-5.1,1
	c-1.3,1.7-0.6,3.9-0.6,5.8c0,36.9,0,73.7,0,110.6c0,1.6,0.1,3.3-0.1,4.9c-0.5,4.2-3.9,7.2-8.1,7.5c-4.3,0.2-7.1-1.8-8.5-6
	c-0.5-1.4-0.7-2.8-0.7-4.2c0-21.1-0.8-42.2,0.3-63.2c0.8-16.7,0.3-33.3,0.8-50c0-1.3,0-2.5,0-3.8c0-1.5-0.9-2.3-2.4-2.3
	c-0.9,0-1.8,0-2.7,0c-13.3,0-26.5,0-39.8,0c-5.9,0-6.2,0.3-6.2,6.1c0,17.1-0.8,34.2,0.2,51.2c1.3,20.5,0.3,41,0.8,61.5
	c0,0.5,0,1.1,0,1.6c-0.2,5.5-3,8.7-8,9.2c-3.9,0.4-8.7-3.9-9.3-8.4c-0.2-1.4-0.1-2.9-0.1-4.3c0-26.7,0.3-53.4-0.2-80.1
	c-0.2-11-0.9-22.1-0.8-33.1c0-3-1.4-3.7-4-3.7c-4.9,0.1-9.8,0-14.7,0c-15.3,0-30.5,0-45.8,0c-5.3,0-5.3,0-5.3,4.9
	c0,33.4,0,66.8,0,100.3c0,4.8,0.1,4.6,4.9,4.9c8,0.4,15.9-1.6,23.9-1.1c2.4,0.2,4.6,0.3,6.8,1.4c3.8,2,5.4,5,4.7,9.4
	c-0.4,3-3.6,6-7.2,6.5c-1.4,0.2-2.9,0.1-4.4,0.1c-19.6,0-39.2,0.1-58.8,0c-6.9,0-13.7,1.6-20.6,1.1c-2.4-0.2-4.7-0.4-6.9-1.2
	c-4.5-1.6-6.4-5-5.6-9.8c0.6-3.5,4.2-6.4,8.2-6.5c10.7-0.1,21.4,0,32.2,0c5.4,0,5.4,0,5.4-5.5c0-33.1,0-66.1,0-99.2
	c0-5.4-0.1-5.4-5.4-5.4c-28,0-55.9-0.1-83.9,0c-12,0-20-6.4-26-16c-3.6-5.7-5-11.9-4.6-18.7c0.6-11.8-1.5-23.5-1-35.3
	c2.4-59.3,0.4-118.7,1.1-178c0.2-13.3,7.8-22.4,20.2-25.6c5.9-1.5,11.9-1.2,17.8-1c3.9,0.1,6.1-1.2,8.1-4.7
	c5.3-9.4,12.6-17.1,21.3-23.6c18.5-13.9,39.3-22.1,61.8-26.4c9.6-1.8,19.2-3.6,29-3.2c3.3,0.1,6.4-1.2,9.7-1.1
	c29.9,1.3,59,6.1,85.7,20.6c14.7,7.9,27.8,17.8,37.1,31.9c6.6,10,10.4,21,10.2,33.2c-0.1,8.7-0.5,17.5,0.1,26.1
	c1.3,20.7,0.1,41.4,1.2,62c1,18,0.3,35.9,0.8,53.8c0.1,2.9,0.5,5.7,0.9,8.6c0.4,2.9,1.6,3.6,4.2,3.5c7.5-0.1,14.9-0.1,22.3,0
	c10,0.2,23.7,9.3,25.1,21.1c0.4,3.4,0.9,6.8,0.9,10.2c0,59,0,118.1,0,177.1c0,1.6,0.1,3.3,0,4.9c-0.4,4.5-4.9,9-8.8,9
	c-3.7-0.1-8-4.4-8.5-8.7c-0.1-1.3,0-2.5,0-3.8c0-44-0.5-87.9,0.3-131.9c0.3-15.8,0.4-31.5,0.8-47.3c0.1-2.6-0.4-5-1-7.5
	c-1.1-4.2-3-5.7-7.3-5.7c-10.9,0-21.8,0-32.7,0c-1.3,0-2.5,0.1-3.8,0c-5.2-0.3-8.6-3.5-8.5-8.7c0.5-12.3-1.4-24.6-1.2-36.9
	c0.1-6.7,0.2-13.5,0-20.2c-0.8-24.7-0.6-49.3-1.4-74c-0.4-12.7-0.3-25.4-0.8-38c-0.4-8.2-4.8-14.7-9.6-20.9
	c-10.7-14-25.5-22.1-41.3-28.9c-11.4-4.9-23.3-7.8-35.5-9.7c-4.9-0.8-10-1.5-15.1-1.5c-5-0.1-10-1.1-15.1-1
	c-26.9,1-52.9,5.4-76.7,18.7C164.1,414.2,155.8,421.1,148.3,429.9z M319.1,572.8C319.1,572.8,319.1,572.8,319.1,572.8
	c0-3.3,0-6.5-0.1-9.8c-0.5-35,1-70-0.9-105c-0.2-4.3-2.1-7-5.3-8.7c-3.8-2-7.9-3.5-12.4-3.5c-5.8,0-11.6,0.7-17.3,0.9
	c-25.7,0.9-51.5-0.1-77.2,1c-31.9,1.4-63.8-0.7-95.7,1.3c-6,0.4-9,3.1-9,9c-0.2,41,0.2,82-0.9,123c-0.8,26.7-0.1,53.4-0.2,80.1
	c0,5.1,0.3,10.1,1.2,15.1c1.4,7.6,5.7,12.8,14.9,12.8c62.6-0.1,125.3,0,187.9,0c9.4,0,15.1-5.8,15.1-15.2
	C319.1,640,319.1,606.4,319.1,572.8z"/>
<path d="M858.6,112.2c0,10.7,0.7,21.5-0.2,32.1c-1.5,19.2-0.5,38.4-0.9,57.6c-0.1,6.2-3.6,9.5-9.5,9.4c-5.6-0.1-9-3.4-9-9.3
	c0-24-0.1-47.9,0.1-71.9c0-4.3,1.3-8.6,1-12.9c-0.3-3.6-1-4.5-4.3-5c-6.8-0.9-9.8,1.7-9.8,8.7c-0.1,13.3-0.3,26.5,0,39.8
	c0.4,18.1-0.8,36.2-1.1,54.4c-0.1,4.6-4.5,9.1-8.9,9.3c-4.1,0.2-8.8-3.8-9.5-8.2c-0.2-1.4-0.1-2.9-0.1-4.4c0-19.6,0-39.2,0-58.8
	c0-1.4,0-2.9,0-4.4c0-0.9-0.2-1.8-1.1-2.3c-5.1-2.9-11.9,0.8-11.9,6.6c-0.1,12.2,0.7,24.4-0.2,36.5c-1.5,21.2-0.4,42.4-0.8,63.6
	c0,2.1-0.3,4-1.4,5.7c-2,3.2-5.8,5.3-8.6,4.7c-4.7-1-8.1-4.5-8.5-8.8c-0.1-0.9,0-1.8,0-2.7c0-31.8,0-63.6,0-95.3
	c0-6.1,1.8-11.8,4.9-17c4.8-8.2,12.8-11.5,21.6-13.1c6.4-1.1,7-1.1,7.2-7.8c0.1-3.9,1.2-7.4,2.8-10.9c4.3-9.2,11.9-13.2,21.6-14
	c1.8-0.2,3.6-0.1,5.5,0c2.7,0.1,4-1.2,4-3.9c0-3.6,1.3-6.8,3.1-9.7c3.4-5.7,8.6-8.7,15.1-9.2c6.4-0.4,12.6-0.1,18.5,3.1
	c7.8,4.1,12.5,10.2,13.4,19.1c0,0.5-0.1,1.2,0.2,1.6c1.3,2.3-0.2,5.5,1.8,7.1c1.8,1.5,4.6,0.4,6.9,0.7c7.9,0.7,20.8,9.4,23.7,20.1
	c0.8,3,1.4,6,1.3,9.1c-0.1,2.5-0.3,5.1,0.7,7.5c0.3,0.8,0.4,1.9,0.2,2.7c-1.9,7.2-0.8,14.4-0.9,21.7c-0.3,16.3-1.6,32.6-1.2,48.9
	c0.1,4.9-3.1,8.7-7.6,10c-3.6,1-7.1-0.4-9.8-4c-1.3-1.8-2-3.9-2-6.1c0-3.8-0.6-7.6,0.6-11.4c0.5-1.5,0.4-3.2,0.3-4.9
	c-0.3-12.4,0.4-24.9,0-37.3c-0.3-8,1.8-15.9,1.1-23.9c-0.4-4.6-0.3-9.5-4.7-12.7c-1.3-1-2.7-1.9-4.3-2.2c-4.8-1.1-6.2,0.1-6.2,5
	c0,6.5,0.3,13.1-0.1,19.6c-1.2,18.8-1,37.7-1,56.5c0,3.6-1.6,6.3-4.3,8.4c-4.8,3.7-11.1,2-13.6-3.5c-2.6-5.7-1.9-11.8-1.3-17.7
	c0.2-2.5,0.6-5,0.7-7.5c0-2.7,0-5.4,0-8.2c-0.2-25,1.9-50,1.1-75.1c-0.1-2.4-0.2-4.5-1.9-6.5c-2.5-2.9-5.5-3.2-8.9-2.6
	c-2.2,0.4-3.4,1.7-3.4,4.2c0.1,5.1,0,10.2,0,15.2C857,109.2,857.1,110.7,858.6,112.2z"/>
<path d="M936,289.9c1.7,40.3-33.6,73-72.4,72.9c-39.8-0.1-73.2-33.2-72.6-73.1c0.3-21.1,8.2-38.7,23.3-53.1
	c13.8-13.1,30.8-19.5,49.3-19.5c19.7,0,37.8,6.9,51.8,21.4C929,252.7,937,269.6,936,289.9z M863,343.3c12.5,0.6,23.5-3.3,33.4-10.7
	c4.6-3.5,4.8-4.5,0.4-8.2c-6.1-5.1-12.4-9.9-18.6-14.9c-10-8-20-16-30-24c-9-7.2-18.1-14.4-27.1-21.6c-1.8-1.4-3.2-1.5-4.4,0.6
	c-0.6,1.1-1.3,2.1-1.8,3.3c-3.8,8.8-5.2,17.7-4.4,27.3c1.1,13.7,6.8,25.2,16.6,34.4C837,338.7,849,343.9,863,343.3z M863.7,236.2
	c-4.1,0.2-8,0.1-12,1.2c-5.8,1.6-11.3,3.8-16.5,6.9c-3.6,2.1-3.6,3.9-0.3,6.4c2.3,1.8,4.5,3.6,6.8,5.4c13.6,11,27.2,22,40.8,33
	c8.6,6.9,17.2,13.7,25.8,20.5c3.5,2.8,4.6,2.6,6-1.8c4.2-13.4,4.3-26.5-1.6-39.6C903.1,247.3,886.3,237.4,863.7,236.2z"/>
<path d="M511.9,213c-0.2-22,5.9-39.8,18.3-55c11.7-14.4,26.8-23.5,45.8-25.2c17.9-1.6,33.8,2.9,48.2,13.7
	c18.7,14,28.8,33.1,32.5,55.8c2.7,16.6,0.3,32.9-6.6,48.1c-8.5,18.9-22.2,33-42.2,39.8c-16.5,5.7-33,5-49-2.5
	c-8.8-4.1-16.8-9.2-23.5-16.3c-9.5-10.2-16.2-22.1-20.2-35.6C512.9,227.6,511.6,219.3,511.9,213z M529.6,210.8c0,3.4-0.5,7,0.1,10.3
	c2.6,16,9.3,29.9,21.5,41c12.1,11.1,25.9,15.8,42.2,13.7c14.2-1.8,25.2-9.2,33.6-20.1c12.4-16.1,15.8-34.7,12.1-54.4
	c-1.8-9.8-5.6-19.1-11.7-27.2c-12.2-16.1-27.5-25.4-48.6-23.9c-12.5,0.9-22.8,5.9-31.2,14.4C535,177.2,529.1,192.9,529.6,210.8z"/>
<path d="M325.6,274.9c-1.1,20-5.8,37.3-17.3,52.4c-10.8,14.1-24.9,22.9-42.2,26.5c-13.5,2.7-26.6,0.8-39.1-4.8
	c-9-4.1-17.2-9.3-23.9-16.6c-9.5-10.3-16-22.2-20.2-35.6c-3.4-10.7-3.9-21.8-3.1-32.8c0.8-11.1,4.1-21.5,9.3-31.5
	c4.3-8.4,9.9-15.6,16.8-21.8c10.5-9.4,22.7-15.2,36.8-16.9c13.1-1.5,25.4,0.9,37.3,6.2c5.8,2.6,11,6.4,15.8,10.5
	c14.9,12.9,23.9,29.3,27.8,48.6C324.7,264.8,324.2,270.7,325.6,274.9z M197.1,271.5c0,3.5-0.4,7,0.1,10.3c0.6,4.1,1.7,8.1,2.9,12.1
	c3.4,12.3,10.6,22.2,20,30.5c13.3,11.7,28.7,15.8,45.8,11.6c15.7-3.9,26.7-14.1,34.3-28.1c7.7-14.2,9.4-29.6,6.5-45.3
	c-2.4-12.9-7.9-24.6-17-34.1c-11.8-12.2-25.9-18.9-43.6-17.4c-12.1,1-22.1,5.7-30.4,13.9C202.8,237.6,196.7,253.4,197.1,271.5z"/>
<path d="M970.2,166.7c17,0.3,23,10.9,24.3,23.1c0.4,3.9-1.1,8.2-2.6,12.1c-4.1,10.4-10.6,19.3-16.7,28.5
	c-3.8,5.7-7.8,11.3-10.8,17.6c-2.8,5.8-4.6,11.7-4.6,18.2c0.1,5.3-2.8,8.8-7.2,9.4c-4.1,0.5-7.9-2.5-9.5-7.3c-1-3-0.9-6.2-0.5-9.2
	c1.3-10.8,5.4-20.6,10.8-29.9c6.1-10.5,13.8-19.9,19-31c1.2-2.5,2.3-4.9,2.6-7.7c0.3-2.9-0.7-4.1-3.5-4.3c-3.8-0.4-6.9,0.5-10,3.1
	c-6.1,5-10.6,11.2-15.3,17.4c-4.5,6-11.8,6.1-16.1,0.3c-2-2.7-2.5-5.5-0.9-8.7c2.2-4.4,5.2-8.3,8.3-12c3.9-4.5,7.6-9.2,12.5-12.6
	C956.2,169.7,962.5,166.1,970.2,166.7z"/>
<path d="M858.6,112.2c-1.5-1.5-1.5-2.9,0-4.4C860.1,109.3,860.1,110.7,858.6,112.2z"/>
<path class="st0" d="M967.7,827.1c0.2,34.4-10.2,62.4-29.3,87.3c-10.6,13.8-23.9,24.7-38.9,33.4c-14.8,8.6-30.7,14.3-47.8,16.8
	c-7.9,1.1-15.8,2.4-23.7,2c-23.3-1.2-45.3-6.8-65.5-18.9c-9.7-5.8-18.7-12.5-26.6-20.5c-13.4-13.6-23.5-29.3-30-47.4
	c-4.1-11.3-6.5-22.8-7.7-34.8c-2.9-29.4,4.4-56.2,19.3-81.4c10.3-17.5,24.2-31.6,41-42.8c16.1-10.8,33.9-17.8,53.1-21.2
	c10-1.8,20.1-2.8,30.2-2c15.6,1.2,30.6,4.5,45.2,10.6c12.3,5.2,23.7,11.9,33.7,20.6c12.2,10.6,22.9,22.7,30.6,37.1
	c6.9,13.1,12.1,26.7,14.6,41.3C967.2,814.7,968,822.2,967.7,827.1z M832.9,714.8c-5.5-0.3-12.9,0.3-20.2,1.7
	c-13.6,2.6-26.3,7.5-38.5,14.2c-12.9,7.2-23.3,17.3-32.9,28.2c-7.4,8.4-13,18.2-17.4,28.7c-4.8,11.6-8.3,23.6-9.1,36.1
	c-0.8,10.8-0.3,21.6,1.8,32.4c4.5,22.7,15,42.2,30.8,58.7c10,10.4,21.9,18.2,35.1,24.3c12.5,5.7,25.7,8.8,39.2,9.9
	c8.2,0.6,16.6,0.4,24.9-0.7c12.5-1.7,24.5-5.2,35.7-10.7c15.8-7.6,29.6-17.9,40.8-31.8c9.3-11.5,16.8-24,21.4-38.1
	c3.1-9.3,4.5-18.8,5.7-28.6c1-8.3,0.4-16.3-0.6-24.3c-1.8-14.8-6.8-28.7-14.1-41.9c-6.9-12.5-16-23.1-26.8-31.9
	C887.6,723.8,862.9,714.4,832.9,714.8z"/>
<path class="st0" d="M930.6,798.2c-0.3,5.8-2.1,10.9-6.3,15.1c-30.6,30.5-61,61.2-91.9,91.6c-6.3,6.2-12.8,12.2-20.6,16.7
	c-7.8,4.5-14.8,3.8-21.7-1.3c-2.9-2.1-5.7-4.4-8.3-6.9c-15.4-15.1-29.7-31.4-45.2-46.5c-4.2-4.2-7.7-9.2-10.8-14.3
	c-4.4-7.4-3.5-15.7,2.7-22.3c6.4-6.7,13-13.3,19.7-19.7c4.1-3.9,9.2-6.5,14.7-8c5.2-1.4,9.6,1.2,13.5,4.1c8,5.7,14.3,13.4,21.3,20.2
	c6.3,6.2,5.4,6,11.7-0.2c16.7-16.7,33.5-33.3,50.1-50.1c6-6.1,12.5-11.6,18.7-17.4c8.5-7.8,20.2-5.9,25.9,0.7
	c6.6,7.5,14.6,13.6,20.5,21.8C928.2,786.5,930.8,791.8,930.6,798.2z M764.2,820.6c-2.4-0.2-4.3,0.7-6.1,1.9
	c-6.4,4.3-11.2,10.3-16.6,15.6c-0.4,0.4-0.5,1-0.8,1.4c-1.8,2.7-2,5.1,0.2,7.9c3.1,3.8,5.8,7.9,9.2,11.3
	c13.6,13.6,27.2,27.2,40.8,40.8c1,1,2,2.2,3.2,3c2.4,1.5,4.8,3.6,8,2.8c4.6-1.2,8.7-3.2,12.5-6.2c5.1-4.2,9.1-9.2,13.7-13.8
	c26.4-26.5,52.9-52.9,79.4-79.4c1-1,2-2.1,3.1-3c4.2-3.5,4.9-8.1,1.2-12.1c-6.1-6.5-12.5-12.7-18.8-19c-1.6-1.6-3.4-1.8-5.4-0.5
	c-3.3,2.1-6.1,4.6-8.4,7.7c-1,1.3-2,2.6-3.1,3.7c-18.4,19.1-37.9,37-55.7,56.7c-6.8,7.5-14.3,14.5-21.5,21.6
	c-0.9,0.9-1.8,1.9-2.8,2.6c-3.6,2.5-8.7,2.1-11.5-0.9c-2.8-3-2.8-7.9,0.1-11.4c1.3-1.5,2.7-2.9,4.2-4.3c1.8-1.6,2.2-3,0.2-4.9
	c-6.6-6.5-13.2-13-19.7-19.6C768,821,766.3,820.4,764.2,820.6z"/>
<path class="st1" d="M71.3,526.2L86,540.9c3.5,3.5,9.1,3.5,12.6,0l14.7-14.7c3.5-3.5,3.5-9.1,0-12.6l-14.7-14.7
	c-3.5-3.5-9.1-3.5-12.6,0l-14.7,14.7C67.8,517.1,67.8,522.7,71.3,526.2z"/>
<path class="st1" d="M71.3,569L86,583.7c3.5,3.5,9.1,3.5,12.6,0l14.7-14.7c3.5-3.5,3.5-9.1,0-12.6l-14.7-14.7
	c-3.5-3.5-9.1-3.5-12.6,0l-14.7,14.7C67.8,559.9,67.8,565.5,71.3,569z"/>
<path class="st0" d="M701.6,973.8l17.3,17.3c2.5,2.5,6.6,2.5,9.1,0l17.3-17.3c2.5-2.5,2.5-6.6,0-9.1L728,947.3
	c-2.5-2.5-6.6-2.5-9.1,0l-17.3,17.3C699.1,967.1,699.1,971.2,701.6,973.8z"/>
<path class="st0" d="M817.3,892.5l17.3,17.3c2.5,2.5,6.6,2.5,9.1,0l17.3-17.3c2.5-2.5,2.5-6.6,0-9.1l-17.3-17.3
	c-2.5-2.5-6.6-2.5-9.1,0l-17.3,17.3C814.8,885.9,814.8,890,817.3,892.5z"/>
<circle class="st2" cx="830.7" cy="831.4" r="171.5"/>
</svg>
