<?xml version="1.0" encoding="utf-8"?>
<!-- Generator: Adobe Illustrator 28.0.0, SVG Export Plug-In . SVG Version: 6.00 Build 0)  -->
<svg version="1.1" id="Capa_1" xmlns="http://www.w3.org/2000/svg" xmlns:xlink="http://www.w3.org/1999/xlink" x="0px" y="0px"
	 viewBox="0 0 1080 1080" style="enable-background:new 0 0 1080 1080;" xml:space="preserve">
<style type="text/css">
	.st0{fill:#DBB300;}
	.st1{fill:#6EE1EB;}
	.st2{fill:none;stroke:#DBB300;stroke-width:20;stroke-miterlimit:10;}
</style>
<path d="M651.9,575.4c-43,0-86.1-0.8-129.1,0.3c-28.9,0.7-57.7,0.3-86.5,0.8c-1.6,0-3.3,0.1-4.9-0.1c-4.4-0.7-7.3-4.1-7.2-8.7
	c0-4.5,2.9-7.9,7.4-8.5c1.6-0.2,3.3-0.1,4.9-0.1c69.6,0,139.1,0.7,208.7-0.3c54.6-0.8,109.3-0.4,163.9-0.8c5.3,0,5.3,0,5.3-5.5
	c0-7.3,0.1-14.5,0-21.8c0-4.2-0.1-4.3-4.3-4.3c-16.2,0-32.3,0.3-48.5-0.1c-87.3-2.2-174.7,0.1-262-1.3c-24.1-0.4-48.2-0.2-72.4-0.8
	c-5.9-0.1-8.5-2.6-8.5-8.2c0-5.4,2.5-8,7.9-8.2c6-0.1,12,0,18,0c5.7,0,5.7,0,5.7-5.7c0-26.3-0.1-52.7,0.1-79
	c0.1-19,5.7-36.2,17.6-51.4c8.3-10.6,18.7-18.6,30-25.6c17.1-10.7,36-17,55.6-21c6.5-1.3,13.1-2.3,19.8-2.8
	c5.8-0.4,11.5-0.8,17.3-0.9c18.5-0.3,36.7,2.1,54.6,7c17.3,4.8,33.3,12.3,47.7,23c7,5.2,13.2,11.4,18.3,18.4
	c1.7,2.3,3.4,2.9,5.9,2.9c10.7,0,21.5-0.3,32.2,0.1c11.6,0.4,21.4,5.1,28.5,14.5c3.6,4.8,4.8,10.4,4.8,16.4c0,32.7,0,65.4,0,98.1
	c0,7.8-0.6,7.1,7,7.1c10.2,0,20.3,0,30.5,0c7.9,0,11.5,3.7,11.5,11.8c0,14.7,0,29.4,0,44.1c0,7-2.1,9.2-8.9,10.7
	c-3.8,0.8-7.5,0.9-11.3,0.9c-4.8,0.1-4.8,0.1-4.8,4.9c0,21.4,0,42.9,0,64.3c0,1.8,0,3.6,0,5.5c0.1,3.5,0.9,4.6,4.2,3.7
	c6.9-1.8,14.1-1.3,21-1.5c7.3-0.3,14.8-0.2,22.1,1.1c4.5,0.8,9,0.3,13.5,1.5c14,3.6,28,7.4,41.2,13.6c12,5.6,23.4,12.2,34,20.2
	c18.7,14.2,33.8,31.4,45.7,51.7c10.3,17.6,16.8,36.5,20.7,56.3c2.2,11,2.6,22.2,2.5,33.5c-0.1,22.2-4.7,43.4-12.9,63.9
	c-6.9,17.5-16.6,33.4-28.5,47.9c-15.8,19.1-34.8,34.2-56.8,45.5c-12.6,6.5-25.6,11.9-39.5,15.2c-15.7,3.8-31.6,5.6-47.8,5.6
	c-19.4,0-38.2-3.3-56.4-9.5c-19.9-6.7-38.3-16.4-54.4-30.1c-13.7-11.7-26.3-24.3-36.2-39.5c-12.9-19.7-21.3-41.1-25.9-64
	c-3.2-15.5-3-31.4-2.2-47.1c0.5-9.5,2.6-18.9,4.9-28.2c0.3-1.4,0.6-2.8,1-4.2c0.2-1.1-0.3-1.8-1.3-1.8c-1.6-0.1-3.3-0.1-4.9-0.1
	c-56.5,0-113,0-169.5,0c-3,0-5.8,0.1-7.9-2.7c-1.9-2.5-3-5-1.8-8.1c1.2-3.2,3.5-5.1,6.8-5.6c1.6-0.2,3.3-0.1,4.9-0.1
	c44.7,0,89.4,0.3,134.1-0.2c14.3-0.2,28.6-0.8,42.9-0.8c2.7,0,4-1.2,4.8-3.4c3.2-8.5,7.9-16.3,12.6-24c4.3-7.2,9.5-13.7,14.7-20.2
	c4.5-5.7,9.6-10.9,14.9-15.8c14.1-13.2,29.5-24.3,47.3-32.3c10.5-4.7,21.1-8.7,32-12.1c2.3-0.7,2.8-1.7,2.8-3.8
	c-0.1-5.1,0-10.2,0-15.3c0-3.2-0.3-6.5,0.8-9.7c0.3-1,0.3-2.2,0.2-3.2c-2.1-14.8-0.5-29.7-1-44.6c0-1.5-0.1-2.9,0-4.4
	c0.1-2.4-1.1-3.3-3.3-3.2c-1.5,0.1-2.9,0-4.4,0C738.3,575.4,695.1,575.4,651.9,575.4L651.9,575.4z M467.7,463.8
	c0,13.1,0,26.1,0,39.2c0,4.7,0.1,4.8,4.9,4.8c7.5,0,14.9,0,22.3,0c5.4,0,5.4,0,5.5-5.4c0-14,0-28,0-42c0-1.3-0.1-2.6,0-3.8
	c0.5-4.1,3.5-7.1,7.4-7.6s6.8,1.1,8.7,4.9c1.2,2.2,1.3,4.5,1.3,6.9c0,14,0,28,0,42c0,5,0.1,5,5.2,5.1c1.1,0,2.2,0,3.3,0
	c36.3,0,72.7,0,109,0c2.2,0,4.4-0.3,6.5,0.4c3.6,1.1,7.2,0.5,10.8,0.6c2.4,0.1,3.7-1.2,3.7-3.7c0-13.3,0-26.5-0.1-39.8
	c0-0.5-0.1-1.1-0.3-1.6c-1.5-3.4-0.3-6.4,1-9.4c1.5-3.4,4.8-4.9,9.1-4.2c3,0.5,6.7,3.9,6.5,7c-0.4,7.1,1.2,14.1,1.2,21.1
	c0,8.9,0,17.8,0,26.7c0,2.2,0.2,4,3.1,4c10.3-0.1,20.7,0,31.1,0c2.1,0,3-1,2.9-3c0-1.3,0-2.5,0-3.8c0.7-14.1-1.3-28.2-1-42.4
	c0.4-17.6-0.8-35.1-1.2-52.7c0-0.9,0-1.8-0.2-2.7c-3.4-16.5-12.8-29.2-25.8-39c-22.7-17.1-49.1-24.2-76.9-26.1
	c-14-1-28.2-0.5-42.2,1.9c-16,2.7-31.4,7.1-46,14.1c-12.6,6-23.5,14.2-33,24.4c-7,7.5-11.7,16.1-14.4,25.8c-1.9,7-1.7,14.4-2.1,21.5
	C467.3,439,467.7,451.4,467.7,463.8z M828.2,992.8c4.5,0.3,9-0.8,13.5-0.9c8.9-0.3,17.6-2.1,26.2-4.1c14.3-3.3,27.8-8.8,40.8-15.8
	c12.1-6.5,23-14.5,33.1-23.5c9.4-8.3,17.4-17.9,24.4-28.3c9.7-14.3,17.2-29.7,22.2-46.4c4.4-14.7,6.2-29.7,6.7-44.8
	c0.2-7.5-1-15.1-1.9-22.6c-1.6-13.8-5.3-27-10.9-39.6c-9.5-21.4-22.5-40.4-40.4-55.8c-13.3-11.4-27.7-20.9-43.8-27.8
	c-17-7.2-34.7-11.3-53-12.7c-17.4-1.3-34.7,0.5-51.6,4.8c-17.2,4.3-33.2,11.3-48.4,20.5c-14.2,8.6-26.7,19.5-37.5,32
	c-11.4,13.2-20.7,27.8-27.5,44c-7.9,18.7-11.9,38.2-12.9,58.4c-0.4,9.2,0.8,18.4,2,27.5c2,14.5,6.1,28.2,12.1,41.5
	c8.7,19.2,20.8,35.9,36.4,50.2c8.2,7.5,16.8,14.2,26.3,20C769.9,984.9,798.1,992,828.2,992.8z M724.1,390.1
	c0.7,5.3,1.7,9.6,1.8,13.9c0.3,11.9,0,23.9,1,35.8c0.6,7.8,0.4,15.6,0.1,23.4c-0.5,14,1.6,27.8,1.2,41.8c-0.1,3.7,0.2,3.9,4.2,3.9
	c10,0.1,20,0.1,29.9,0c3.8,0,3.8-0.2,4-4.1c0-1.3,0-2.5,0-3.8c0.8-32.6-1.5-65.2-1.1-97.9c0.1-6.9-2.3-10-8.8-11.8
	c-3-0.8-5.9-1.4-9.1-1.3C739.7,390.2,732.2,390.1,724.1,390.1z"/>
<path d="M148.8,429.9c2.2,0.9,4,0.5,5.8,0.5c18.9,0,37.8,0.5,56.7-0.1c30.8-1.1,61.7-1.1,92.5-0.8c11.8,0.1,21.6,5.5,28.5,15.4
	c2.9,4,3.5,8.6,3.5,13.4c0,33.4-0.9,66.9,0.3,100.2c1.2,36.3,0.1,72.6,0.8,108.9c0.1,6-0.5,11.9-2.5,17.6c-1.4,4.1-0.5,5.5,3.4,4.7
	c7.4-1.5,14.7,0.7,22.1,0.2c7.2-0.5,14.5-0.2,21.8,0c3.9,0.1,7.3,4,7.4,7.9c0.1,4-3,7.5-7.2,8.3c-1.7,0.3-3.9-0.7-5.1,0.9
	c-1.3,1.7-0.6,3.9-0.6,5.8c0,36.9,0,73.7,0,110.6c0,1.6,0.1,3.3-0.1,4.9c-0.5,4.3-3.8,7.2-8,7.5c-4.3,0.3-7.1-1.8-8.6-6
	c-0.6-1.6-0.8-3.2-0.7-4.8c0-20.9-0.8-41.8,0.3-62.7c0.9-16.7,0.3-33.3,0.8-50c0-1.3,0-2.5,0-3.8c0-1.5-0.8-2.3-2.4-2.4
	c-0.9,0-1.8,0-2.7,0c-13.4,0-26.9,0-40.3,0c-5.3,0-5.7,0.4-5.7,5.5c0,17.3-0.8,34.6,0.2,51.8c1.3,20.7,0.2,41.3,0.8,62
	c0.1,3.8-0.6,7.3-4.4,9.2c-5.6,2.7-12-0.9-12.9-7.2c-0.2-1.4-0.1-2.9-0.1-4.3c0-26.3,0.2-52.7-0.2-79c-0.2-11.4-1.2-22.8-0.9-34.2
	c0.1-2.9-1.3-3.7-4-3.7c-20.7,0.1-41.4,0.1-62.1,0c-2.9,0-3.9,1.1-3.8,3.9c0.1,2.5,0,5.1,0,7.6c0,29.8,0,59.6,0,89.4
	c0,1.3,0,2.5,0,3.8c0.1,4.2,0.1,4.3,4.3,4.4c8.2,0.1,16.4,0,24.5,0c2.2,0,4.3,0.1,6.3,1.2c4.2,2.1,5.9,5.1,5.2,9.7
	c-0.5,3.4-4,6.3-8.3,6.6c-1.3,0.1-2.5,0-3.8,0c-19.1,0-38.1,0-57.2,0c-7.2,0-14.4,1.6-21.7,1.1c-2.6-0.2-5.1-0.5-7.4-1.4
	c-4.1-1.5-5.9-5-5.1-9.6c0.6-3.3,4.1-6.4,7.7-6.4c10.9-0.1,21.8,0,32.7-0.1c5.3,0,5.4,0,5.4-5.5c0-33.1,0-66.1,0-99.2
	c0-5.3-0.1-5.4-5.4-5.4c-28,0-55.9,0-83.9,0c-11.9,0-20.1-6.2-26-15.9c-3.4-5.7-4.9-12-4.6-18.7c0.5-12.3-1.5-24.6-1-36.9
	c2.4-58.8,0.3-117.6,1.2-176.4c0.2-14,6.8-22,20-25.6c6.1-1.7,12.2-1.2,18.4-1.1c3.8,0.1,5.7-1.3,7.6-4.6
	c5.3-9.4,12.6-17.1,21.2-23.6c18.5-13.9,39.3-22.1,61.8-26.4c9.8-1.9,19.6-3.4,29.6-3.3c3.9,0.1,7.9-1.9,11.8-0.9
	c7.1,1.8,14.4,0.8,21.6,1.8c13,1.7,25.6,4.3,38,8.5c16.3,5.5,31.5,13.1,44.6,24.2c11.3,9.5,20,21,24.1,35.4c1.1,4,1.9,8.1,2,12.3
	c0,3.5,0,6.9,0,10.4c-0.1,26.7,0.9,53.3,1.5,80c0.4,18.7,0.2,37.3,0.7,56c0,0.7,0,1.5,0,2.2c0.4,9,0.4,9,9.3,9
	c5.6,0,11.3,0.2,16.9-0.1c10.2-0.5,25.5,9.7,26.4,21.6c0.2,2.7,0.8,5.3,0.8,8c0,60.1,0,120.2,0,180.4c0,1.5,0.1,2.9-0.1,4.3
	c-0.7,4-5.1,8-8.6,8s-7.9-4-8.5-8c-0.2-1.4-0.1-2.9-0.1-4.3c0-44-0.4-87.9,0.3-131.9c0.2-15.4,0.5-30.8,0.8-46.2
	c0-1.1,0.1-2.2,0-3.3c-1.1-9.2-2.8-11.6-11.5-11.2c-10.7,0.4-21.4,0.2-32.1,0.1c-6.3,0-9.7-3.1-9.7-9.2c0-19-1.8-38-1.1-57.1
	c0.1-4,0.3-8,0-12c-1.8-20.3-0.1-40.6-1.3-60.9c-0.7-11.4-0.9-22.8-0.7-34.2c0.2-10-4-17.8-9.7-25.3c-10.8-14.1-25.8-22.3-41.8-29.1
	c-11.2-4.7-23-7.6-35-9.5c-4.8-0.8-9.6-1.5-14.5-1.5c-5.4-0.1-10.8-1.2-16.2-1c-21.8,0.9-43.2,3.8-63.5,12.5
	C172.4,408.8,159.2,416.9,148.8,429.9z M319.5,566.9c-0.9-32.2,1.1-70.5-1-108.8c-0.3-5-2.8-7.6-6.6-9.6c-3-1.5-6.2-1.9-9.5-1.8
	c-31.7,0.7-63.5-0.5-95.2,0.9c-32.1,1.4-64.2-0.7-96.3,1.3c-6.4,0.4-9.3,3-9.4,9.2c-0.6,36.6,0.5,73.3-0.8,110
	c-1.1,29.8-0.2,59.6-0.3,89.3c0,6,0.1,11.9,1.1,17.8c1.3,7.7,5.6,13.6,15.3,13.6c62.5-0.2,125-0.1,187.4-0.1c9.5,0,15.3-5.7,15.3-15
	C319.5,640.2,319.5,606.5,319.5,566.9z"/>
<path d="M859,112.2c0,10.7,0.7,21.5-0.2,32.1c-1.5,19.2-0.5,38.4-0.9,57.6c-0.1,6.2-3.6,9.5-9.5,9.4c-5.8-0.1-9-3.5-9-9.9
	c0-25.1,0-50.1,0-75.2c0-2.5,0-5.1,0-7.6c0-5.7-0.4-6.2-4.2-6.5c-5.3-0.4-8,1.4-8.8,5.8c-0.2,1.4-0.1,2.9-0.1,4.3
	c0,10.5,0,21.1,0,31.6c0,20.3,0.2,40.6-1,60.9c-0.3,4.6-4.3,9.2-8.7,9.5c-4.3,0.4-9.2-3.8-9.8-8.5c-0.2-1.4-0.1-2.9-0.1-4.4
	c0-19.6,0-39.2,0-58.8c0-1.4,0-2.9-0.1-4.4c0-0.9-0.4-1.7-1.4-2.1c-6-2.6-11.7,1-11.7,7.6c0.3,32.5-1.8,64.9-1.1,97.4
	c0,1.1,0.1,2.2,0,3.3c-0.1,0.9-0.2,1.8-0.6,2.6c-1.5,3.9-5.9,7-9.2,6.4c-4.8-0.9-8.4-4.6-8.7-9.2c-0.1-0.7,0-1.4,0-2.2
	c0-31.8,0-63.6,0-95.3c0-5.9,1.6-11.5,4.6-16.6c5.2-8.9,13.6-12.7,23.3-13.8c4.1-0.5,4-0.3,5-4.4c1.2-4.7,1.2-9.6,3.4-14.2
	c4.6-9.3,12.2-13.5,22.1-14.2c0.5,0,1.1,0,1.6,0c2.1-0.2,4.5,0.7,6.3-0.8c1.9-1.4,0.9-3.7,1.3-5.6c2.2-10.4,10.8-16.8,20-16.6
	c6.1,0.1,11.9,0.6,17.3,3.6c7.2,4.1,11.8,9.9,12.6,18.4c0.3,3,1,6,1.5,9.2c12-0.3,21.4,4.6,28.1,14.4c2.8,4.2,4.2,8.8,4.2,13.8
	c0,3.2-0.3,6.5,0.9,9.7c0.4,1.2,0.2,2.5-0.3,3.7c-0.6,1.4-0.7,2.8-0.6,4.3c0.7,20.9-1.7,41.7-1.1,62.5c0.1,2.2-0.1,4.2-0.9,6.4
	c-1.6,4.2-4.9,5.7-8.8,6.2c-3.3,0.4-7.5-3.2-8.8-7c-1.7-4.9-1.2-10-0.5-15.1c0.3-2,0.6-3.9,0.5-5.9c-0.3-11.7,0.5-23.5,0-35.2
	c-0.3-7.6,1.4-15.1,1.2-22.8c-0.1-3.5-0.9-6.8-1.4-10.2c-0.6-4.4-7.8-8.2-12.1-6.9c-1,0.3-1.6,0.8-1.7,1.8c-0.1,1.3-0.1,2.5-0.1,3.8
	c0,6.4-0.1,12.7,0,19.1c0.3,18.9-1.8,37.7-1.1,56.5c0.1,3.1-1.2,5.6-3.4,7.7c-5,4.6-12.1,3-14.7-3.3c-2.4-5.9-1.6-12.2-1.1-18.3
	c0.2-2.5,0.6-5,0.7-7.5c0-2.4,0-4.7,0-7.1c-0.2-25,1.9-50,1.1-75.1c-0.1-2.2,0.1-4.2-1.6-6.1c-2.2-2.6-4.8-3.7-8.2-3.2
	s-4.4,1.4-4.4,4.9c-0.1,5.3,0,10.5,0,15.8C857.6,110,857.6,111.1,859,112.2z"/>
<path d="M936.4,290c1.7,40.1-33.5,73-72.5,72.8c-39.7-0.2-72.9-32.9-72.5-73.2c0.2-21.3,8.4-39,23.8-53.4
	c13.7-12.8,30.6-19.1,48.9-19c19.7,0.1,37.7,7,51.7,21.5C929.5,252.8,937.4,269.8,936.4,290z M863.8,343.3c12.7,1,26-5,33.9-11.2
	c3.4-2.7,3.7-4,0.5-6.8c-3.2-2.9-6.8-5.4-10.2-8.1c-16.6-13.3-33.2-26.7-49.9-40c-5.5-4.4-11-8.8-16.5-13.2
	c-2.1-1.7-3.5-1.4-4.7,0.9c-0.5,1-1.1,1.9-1.5,2.8c-3.9,8.9-5.4,18-4.5,27.9c1.2,13.7,7,25.1,16.8,34.2
	C837.7,338.9,849.8,344,863.8,343.3z M918,288c0.2-2.5-0.7-6.8-1.8-11c-3.2-12.2-9.4-22.5-19.9-30.1c-13.6-9.8-28.5-12.8-44.7-9.3
	c-5.7,1.2-11,3.7-16,6.7c-3.6,2.2-3.6,3.8-0.3,6.4c5.8,4.6,11.6,9.2,17.4,13.8c18.8,15.1,37.7,30.3,56.5,45.5c2.8,2.3,4.2,2,5.4-1.6
	C916.6,302.4,917.7,296.2,918,288z"/>
<path d="M658.4,213.6c-1.1,20.4-5.8,37.7-17.4,52.8c-10.8,14.1-24.9,23-42.3,26.4c-13.7,2.7-26.9,0.8-39.6-5.1
	c-8.8-4.1-16.8-9.3-23.4-16.4c-9.3-10-15.7-21.6-19.9-34.6c-3.7-11.2-4.4-22.8-3.3-34.3c1.2-14,6-27.1,14-38.9
	c9.2-13.4,21.3-23.2,36.9-28.1c7.5-2.4,15.2-3.5,23.3-2.8c8,0.8,15.6,2.4,23.1,5.3c7.4,2.9,13.7,7.4,19.6,12.5
	c15.8,13.6,24.2,31.3,27.6,51.6C657.8,206.3,658.1,210.9,658.4,213.6z M530,210.6c0,3.4-0.5,7,0.1,10.3c2.6,16.2,9.3,30.3,21.8,41.5
	c12,10.8,25.6,15.6,41.8,13.5c14.2-1.9,25.2-9.1,33.7-20.1c12.5-16.1,15.8-34.7,12.2-54.4c-1.8-10-5.7-19.5-12-27.7
	c-12.3-16.1-27.7-25.2-48.8-23.5c-12.1,0.9-22.1,5.8-30.4,13.9C535.6,176.8,529.5,192.5,530,210.6z"/>
<path d="M326,275.8c-1.2,19.3-5.9,36.9-17.9,52.2c-10.9,14-24.9,22.4-42,25.9c-13.6,2.7-26.9,0.7-39.6-5.3
	c-8.6-4.1-16.5-9.1-23-16.1c-9.6-10.4-16.3-22.5-20.4-36c-3.2-10.6-3.8-21.4-3.1-32.2c0.7-11.1,4.1-21.5,9.2-31.5
	c4.4-8.5,10.1-15.9,17.2-22.2c10.4-9.3,22.4-14.9,36.4-16.6c13.1-1.6,25.4,0.9,37.4,6.1c5.7,2.5,10.7,6.2,15.4,10.1
	c10.8,8.9,18.7,20.2,23.7,33.3c3.1,8.1,5.6,16.4,5.6,25.3C325,271.2,326.5,273.5,326,275.8z M197.6,271.8c0,3.5-0.5,7,0.1,10.3
	c2.6,16,9.3,29.9,21.5,41c12.1,11,25.9,15.8,42.2,13.7c14.2-1.9,25.2-9.2,33.6-20.2c12.4-16.1,15.7-34.7,12.1-54.4
	c-1.8-9.8-5.6-19.1-11.7-27.2c-12.2-16.1-27.5-25.4-48.6-23.9c-12.3,0.9-22.4,5.7-30.9,14.1C203,237.9,197.1,253.7,197.6,271.8z"/>
<path d="M942.9,262.7c0.6-12.4,5-23.1,11-33.4c6.1-10.5,13.8-19.9,19-31c1.2-2.5,2.3-4.9,2.6-7.7c0.3-2.9-0.7-4.1-3.5-4.4
	c-3.8-0.4-6.9,0.5-10,3.1c-6.1,5-10.6,11.2-15.3,17.4c-4.5,6-11.8,6.1-16.1,0.3c-2-2.7-2.5-5.5-0.9-8.7c2.2-4.4,5.2-8.3,8.3-12
	c3.9-4.5,7.7-9.1,12.5-12.7c11-8.1,23.5-10.1,34.9-2.7c6.5,4.3,10.3,14.7,9.1,22.4c-1.5,9-5.9,16.6-10.5,24.2
	c-6.4,10.5-14.3,20-19.6,31.3c-2.5,5.3-4.1,10.8-4.1,16.7c0,5.8-2.7,9.3-7.2,9.9c-4.4,0.6-8.7-3-9.8-8.3
	C942.9,265.7,943,264,942.9,262.7z"/>
<path d="M859,112.2c-1.4-1.1-1.4-2.2,0-3.3C860.4,110,860.4,111.1,859,112.2z"/>
<path class="st0" d="M968.1,827.3c0.1,34.5-10.3,62.5-29.4,87.3c-11.8,15.3-26.7,27.1-43.7,36c-13.3,7-27.5,12-42.6,13.9
	c-7.3,1-14.7,2.3-22.1,2c-24.1-0.9-46.8-6.5-67.6-19.1c-9.8-5.9-19-12.7-26.9-20.9c-13-13.4-22.9-28.9-29.4-46.5
	c-4.2-11.4-6.4-23.2-7.9-35.3c-2-16.7,0.6-32.8,5-48.7c5-18,13.7-34.4,25.7-48.7c15.9-18.9,35.4-33.1,58.9-41.5
	c9.1-3.2,18.3-6,27.8-7.1c10.5-1.3,21.1-1.9,31.9-0.6c11.6,1.4,22.8,3.8,33.7,7.7c13.4,4.8,25.7,11.7,36.7,20.7
	c11.6,9.5,21.7,20.2,29.7,33c8.7,14,14.8,29,17.9,45.2C967.4,813.2,968.5,821.6,968.1,827.3z M715.1,835.2
	c-0.3,5.9,0.6,13.3,2.1,20.8c4.5,23,15.2,42.9,31.5,59.6c6.7,6.9,14.5,12.5,22.7,17.5c15.7,9.4,32.7,14.6,50.8,16
	c17.5,1.4,34.6-1.2,51.2-7.3c15.6-5.7,29.1-14.6,41.1-25.8c12.2-11.4,21.1-25.2,27.7-40.5c6.2-14.2,8.2-29.1,9.4-44.3
	c0.3-3.9-1.3-7.5-1.1-11.3c0.3-4.8-0.9-9.3-1.8-13.9c-2.5-12-7-23.1-13-33.8c-7-12.3-16.3-22.7-27-31.7c-9.3-7.8-20-13.7-31.4-18.1
	c-10.4-4-21.1-6.6-32.1-7.3c-9-0.5-18-0.5-27.1,0.7c-13.7,1.9-26.5,6.1-38.6,12.3c-11.5,5.9-21.6,13.8-30.6,23.1
	c-10,10.3-17.8,21.8-23.6,34.8C718.5,801.1,714.8,816.8,715.1,835.2z"/>
<path class="st0" d="M834.5,858.8c-17,0.8-32-14.4-32.2-31.9c-0.2-16,14.7-31.7,32.7-31.5c15.9,0.2,32.2,15.8,31.8,32.7
	C866.5,843.9,852.6,860.1,834.5,858.8z M834.7,813c-9.1,0-14.9,5.4-15,14.1c0,8.1,7,15.3,15.2,15.3c7.8,0,14.9-7,14.5-14.4
	C848.8,818.5,844,813,834.7,813z"/>
<path class="st0" d="M762.9,859.9c-17.3,1-32.4-14.6-32.5-32.2c-0.1-15.9,14.8-31.3,32.4-31.3c16.2,0,32.3,15.8,32.1,32.4
	C794.7,845.1,780.6,861.1,762.9,859.9z M777.3,828.7c0-9.3-5.5-14-14.9-14.8c-7.7-0.6-15.2,7.3-14.7,14.6c0.5,7.8,7.1,14.8,15.1,15
	C770.1,843.6,778.5,837.1,777.3,828.7z"/>
<path class="st0" d="M904.6,858.8c-16.1,1.2-32.3-14.8-31.6-32.2c0.7-17.8,13.8-31,32.1-31c15.2-0.1,31.8,11.5,32.2,32.1
	C937.6,844.2,922.5,860.2,904.6,858.8z M920,827.5c0.7-7.7-7-15-14.7-14.7c-9,0.3-15.7,5.7-15.8,13.7c-0.1,7.7,7.7,15.8,15.5,15.8
	C912.1,842.3,920.4,836,920,827.5z"/>
<path class="st1" d="M70.9,524.4l14.7,14.7c3.5,3.5,9.1,3.5,12.6,0l14.7-14.7c3.5-3.5,3.5-9.1,0-12.6l-14.7-14.7
	c-3.5-3.5-9.1-3.5-12.6,0l-14.7,14.7C67.5,515.3,67.5,521,70.9,524.4z"/>
<path class="st1" d="M70.9,567.2l14.7,14.7c3.5,3.5,9.1,3.5,12.6,0l14.7-14.7c3.5-3.5,3.5-9.1,0-12.6L98.2,540
	c-3.5-3.5-9.1-3.5-12.6,0l-14.7,14.7C67.5,558.1,67.5,563.8,70.9,567.2z"/>
<path class="st0" d="M701.2,972l17.3,17.3c2.5,2.5,6.6,2.5,9.1,0L745,972c2.5-2.5,2.5-6.6,0-9.1l-17.3-17.3c-2.5-2.5-6.6-2.5-9.1,0
	l-17.3,17.3C698.7,965.4,698.7,969.5,701.2,972z"/>
<circle class="st2" cx="831.1" cy="831.1" r="171"/>
</svg>
