<?xml version="1.0" encoding="utf-8"?>
<!-- Generator: Adobe Illustrator 28.0.0, SVG Export Plug-In . SVG Version: 6.00 Build 0)  -->
<svg version="1.1" id="Capa_1" xmlns="http://www.w3.org/2000/svg" xmlns:xlink="http://www.w3.org/1999/xlink" x="0px" y="0px"
	 viewBox="0 0 1080 1080" style="enable-background:new 0 0 1080 1080;" xml:space="preserve">
<style type="text/css">
	.st0{fill:#090909;}
	.st1{fill:#0A0A0A;}
	.st2{fill:#090A0A;}
	.st3{fill:#FF5500;}
	.st4{fill:#6EE1EB;}
	.st5{fill:none;stroke:#FF5500;stroke-width:20;stroke-miterlimit:10;}
</style>
<path class="st0" d="M808,638c3.2,0.4,6.4-0.6,9.6-0.8c16.5-1.1,33.2-1.5,49.4,1.9c58.6,12.4,103,44.1,128.8,98.9
	c37.5,79.8,9.5,174.7-65.2,223.8c-34.7,22.8-72.9,33.1-114.2,30.1c-45.6-3.3-84.9-21.2-116.7-54.3c-27.3-28.4-43-62.5-47.3-101.7
	c-2.4-21.7-0.6-43.1,4.9-64.2c0.3-1.2,1-2.3,0.4-4c-1.9,0-3.8,0-5.8,0c-55.2,0.2-110.4,0.3-165.6,0.5c-2.4,0-4.7,0-7.1-0.3
	c-4.1-0.6-7-3.8-7.2-7.7c-0.2-4,2.7-7.8,6.9-8.6c2.1-0.4,4.3-0.3,6.5-0.3c57.8-0.2,115.5-0.5,173.3-0.5c4.2,0,6.3-1.1,8-5.1
	c12-27.7,30.2-50.7,53.8-69.4c19.4-15.5,41.3-26.1,65.1-33c5.2-1.5,5.2-1.5,5.2-6.9c-0.1-24.3-0.2-48.7-0.4-73c0-0.7,0-1.5,0-2.2
	c0.2-2-0.5-3.1-2.7-2.9c-1.4,0.1-2.9,0-4.4,0c-114.6,0.3-229.2,0.7-343.8,1c-2.2,0-4.4,0.1-6.5-0.1c-5.1-0.6-8.3-3.9-8.3-8.4
	c0-4.5,3.2-7.9,8.2-8.5c1.2-0.2,2.5-0.1,3.8-0.1c124.6-0.4,249.2-0.8,373.8-1.1c0.9,0,1.8,0,2.7,0c1.7,0.1,2.1-0.8,2.1-2.3
	c0-9.1,0-18.2,0-27.2c0-3.1-2.1-2.3-3.8-2.3c-17.8-0.1-35.6-0.3-53.4-0.4c-108.4-0.5-216.9-0.9-325.3-1.4c-1.8,0-3.6,0-5.4-0.1
	c-5-0.5-8.3-3.8-8.3-8.4c0-4.6,3.3-8,8.3-8.3c5.1-0.2,10.2-0.1,15.2-0.1c2,0,4-0.1,6,0c1.8,0.1,2.8-0.6,2.7-2.5c0-1.3,0-2.5,0-3.8
	c0.1-26.1,0.4-52.3,0.1-78.5c-0.2-23.3,8.4-42.8,24.7-59c15.1-15.1,33.2-25.1,53.3-31.8c43.7-14.5,87.4-14.6,130.7,1.3
	c20.6,7.6,38.7,19.1,52,37.1c1.4,1.9,3,2.2,5.1,2.2c11.8,0.2,23.6-0.1,35.4,0.6c18.1,1.1,30.9,14.8,30.9,32.8
	c-0.1,32.9,0,65.8,0,98.6c0,4.5,0.2,4.3,4.1,4.3c9.8,0,19.6,0,29.4,0c2.5,0,5.1,0.3,7.6,0.7c4.5,0.8,7,3.4,7.6,8
	c0.2,1.2,0.1,2.5,0.1,3.8c0,14.5,0.1,29.1,0.1,43.6c0,6.4-2.9,9.7-9.3,10.4c-4.2,0.5-8.3,0.8-12.5,0.7c-2.1-0.1-3.3,0.4-3.3,3
	c0.1,24.9,0.2,49.8,0.2,74.7C807.5,637.2,807.8,637.6,808,638z M588.1,491c0,0.2,0,0.4,0,0.6c21.2,0,42.5,0,63.7,0
	c6,0,5.5,0.4,5.4-5.6c-0.2-13.6-0.5-27.2-0.8-40.9c0-1.6-0.1-3.3,0.2-4.9c0.7-4.1,3.8-6.9,7.8-7.1c4.2-0.2,7.8,2.5,8.6,6.8
	c0.3,1.6,0.2,3.2,0.3,4.9c0.3,14.3,0.7,28.7,1,43c0.1,3.8,0.1,3.9,4,3.9c9.6,0.1,19.2,0.1,28.9,0.1c4.4,0,4.4,0,4.3-4.5
	c-0.6-31-1.1-62.1-1.8-93.1c-0.1-3-0.6-6.1-1.3-9.1c-3.4-14.2-11.4-25.4-22.4-34.5c-10.7-8.9-22.9-15.2-36.1-19.7
	c-29.5-10-59.7-11.4-90.3-6c-18.4,3.2-35.8,9.2-51.8,18.9c-11.2,6.7-21,14.9-28.5,25.7c-6,8.7-9.5,18.1-10.2,28.8
	c-0.6,9.4-0.7,18.9-0.7,28.3c0,20-0.1,40-0.1,59.9c0,4.3,0,4.4,4.5,4.4c8.2,0,16.4,0.1,24.5,0.1c4.3,0,4.3,0,4.3-4.5
	c-0.2-14.2-0.4-28.3-0.5-42.5c0-2-0.1-4,0.6-5.9c1.4-3.5,4.3-5.7,7.8-5.8c3.7,0,6.8,2.4,8,6.2c0.6,1.9,0.6,3.9,0.6,5.9
	c0.1,14,0.2,28,0.3,42c0,5-0.4,4.7,4.7,4.7C544.9,491,566.5,491,588.1,491z M995.5,821c-0.1-30.7-4.2-51.6-12.8-71.5
	c-28.7-66.3-97.8-104.3-170-94.7c-38.7,5.1-72.2,21.7-99,50.2c-38.5,41-53.5,89.7-42.2,145c14.7,72,77.8,124,154.2,125.7
	c26.2,0.6,51.4-4.5,74.8-16.2C961.2,929,992.4,879.4,995.5,821z M724.6,373.4c1.1,5.9,1.9,11.4,2,17c0.7,32,1.3,63.9,2,95.9
	c0,1.1,0.1,2.2,0.1,3.3c0,1.6,0.7,2.3,2.3,2.3c11.1,0,22.2,0,33.2,0.1c1.9,0,2.6-0.9,2.5-2.6c-0.1-1.3,0-2.5,0-3.8
	c-0.1-30.7-0.2-61.4-0.4-92.1c0-2.9-0.2-5.8-0.2-8.7c0.1-4.6-2.5-7.4-6.2-9.4c-2.1-1.2-4.5-1.8-6.8-1.8
	C743.7,373.3,734.3,373.4,724.6,373.4z"/>
<path class="st1" d="M148.9,413.6c12.1,0,23.3,0.1,34.6,0c37.8-0.4,75.6-0.8,113.3-1.4c10.9-0.2,20.8,2,29.6,8.7
	c6.5,5,9.8,11.5,10.2,19.6c0,0.9,0,1.8,0,2.7c0.3,69,0.5,138,0.8,207.1c0,7.3-0.7,14.5-3.6,21.2c1.6,1.6,3.3,1,4.8,1
	c12.7,0.1,25.4,0.1,38.1,0.2c1.6,0,3.3,0,4.9,0.1c4.6,0.5,7.8,4,7.8,8.3c0,4.1-3,7.5-7.3,8.2c-5.1,0.9-5.2,0.9-5.2,6.1
	c0,36.9-0.1,73.7-0.1,110.6c0,1.8,0.1,3.7-0.2,5.4c-0.7,4.6-4.2,7.7-8.5,7.6c-4.1-0.1-7.3-2.8-8.1-7.4c-0.3-2-0.3-4-0.3-6
	c0.1-36.3,0.2-72.7,0.4-109c0-1.3-0.1-2.6,0-3.8c0.4-3.1-1.2-3.5-3.8-3.5c-14,0.1-28,0-42,0c-5,0-5.1,0.2-5.1,5.3
	c0.3,36.7,0.6,73.4,0.9,110.1c0,2,0.1,4-0.1,6c-0.6,4.7-4,7.9-8.2,8c-4.2,0.1-7.7-3-8.5-7.7c-0.3-1.8-0.3-3.6-0.3-5.4
	c-0.3-36.3-0.5-72.7-0.8-109c0-1.1,0-2.2,0-3.3c-0.1-4-0.1-4.1-4.2-4.1c-20.7,0-41.4,0-62.1-0.1c-2.4,0-4-0.1-4,3.3
	c0.1,35.1,0.1,70.1,0.1,105.2c0,0.2,0.2,0.3,0.4,0.7c1.1,0.9,2.6,0.5,3.9,0.5c8,0,16-0.2,24-0.2c2,0,4,0,5.9,0.5
	c3.9,1.1,6.2,4.1,6.3,7.9c0,3.8-2.2,6.9-6,8.1c-1.8,0.6-3.6,0.5-5.4,0.5c-26.7,0.1-53.4,0.3-80.1,0.4c-1.8,0-3.6,0-5.4-0.3
	c-4.1-0.7-6.8-3.9-7-7.8c-0.1-4,2.4-7.5,6.4-8.4c1.7-0.4,3.6-0.3,5.4-0.4c10.2-0.1,20.3-0.1,30.5-0.1c3.8,0,3.9-0.1,3.9-3.9
	c0-34.2,0-68.3,0-102.4c0-3.5-0.1-3.5-4.2-3.5c-28,0-55.9-0.4-83.9,0c-20.8,0.3-31.6-17.8-32.1-31.1c-0.3-8.2-0.4-16.3-0.4-24.5
	c0.2-63.2,0.4-126.4,0.6-189.6c0-3.1,0.3-6.1,0.9-9.2c2.3-10.6,9.1-16.5,19.3-19c5.7-1.4,11.5-1.6,17.3-1.3c4.1,0.2,6.4-1,8.6-4.7
	c6.9-12.1,17.1-21.1,28.6-28.6c17.8-11.5,37.4-18.4,58.2-21.8c33.1-5.5,65.9-3.6,97.8,7.3c19.5,6.7,37.1,16.5,51.5,31.5
	c7.3,7.6,12.6,16.4,16,26.3c2.2,6.6,2.5,13.5,2.5,20.5c0,8-0.1,16,0.1,24c0.7,39.4,1.5,78.8,2.3,118.2c0,2.7-1,6.2,0.7,7.9
	c2,2,5.5,0.6,8.4,0.7c5.6,0.1,11.3,0,16.9-0.1c10.4-0.1,24,8.8,26.1,20.9c0.6,3.4,1.2,6.7,1.2,10.2c-0.2,59.4-0.3,118.8-0.4,178.2
	c0,2.4,0.1,4.7-0.7,7c-1.3,3.4-4.4,5.8-7.9,5.6c-3.5-0.2-6.1-1.9-7.6-5.3c-1.1-2.6-0.9-5.3-0.9-8.1c0.2-59.2,0.4-118.4,0.6-177.6
	c0-2.2,0-4.4-0.3-6.5c-0.8-5.2-3.6-7.5-8.9-7.5c-10.4,0.1-20.7,0.3-31,0.5c-0.7,0-1.5,0.1-2.2,0.1c-7,0-10.4-3.3-10.6-10.3
	c-0.3-10-0.4-20-0.6-30c-0.9-45.4-1.8-90.8-2.6-136.2c-0.1-4.5-1.1-8.5-3.2-12.5c-5.2-10.1-12.8-18-21.9-24.6
	c-14.6-10.6-31-17.2-48.5-21.3c-33.9-7.8-67.4-6.6-100.3,4.8c-12.8,4.4-24.6,10.7-35,19.5C155.6,405.6,152.2,409,148.9,413.6z
	 M320.2,549.3c-0.2,0-0.4,0-0.6,0c0-35.6,0-71.2,0-106.7c0-6.6-2.5-9.9-8.9-11.9c-3.9-1.2-7.8-1.6-11.8-1.5
	c-52.1,0.7-104.2,1.3-156.3,1.9c-9.8,0.1-19.6,0.1-29.4,0.5c-9.2,0.3-11.1,2.5-11.2,11.5c-0.2,38.5-0.3,77-0.5,115.5
	c-0.1,30-0.2,59.9-0.3,89.9c0,5.1,0.4,10.2,2.2,15c2.2,6,6.1,8.5,12.4,8.6c0.7,0,1.4,0,2.2,0c61.7,0.1,123.4,0.2,185.2,0.3
	c1.1,0,2.2,0,3.3,0c6.6-0.3,13.1-6.5,13.9-13c0.4-3.7-0.2-7.2-0.2-10.9C320.2,615.4,320.2,582.4,320.2,549.3z"/>
<path class="st2" d="M658.4,199.4c-0.2,19.3-6.2,37.6-19.5,53.2c-23,27-61.1,32.1-90.3,11.8c-19.5-13.6-30.5-32.7-34.3-55.9
	c-3.6-21.4,0.3-41.6,12-60c10.9-17,26.1-28,46.2-31.7c18-3.3,34.7,0.7,49.7,10.9c19.2,13,30.1,31.5,34.7,54
	C658,187.1,658.3,192.7,658.4,199.4z M530.1,194.1c0,15.2,4.2,29,13,41.4c8.7,12.1,20,20.6,34.9,23.3c21.8,3.9,38.9-4.2,51.5-21.8
	c11.5-16.1,14.3-34.3,10.4-53.5c-3.7-18-12.8-32.7-28.5-42.7c-20.5-13-45.8-10.2-62.9,7C535.7,160.5,530.3,176.3,530.1,194.1z"/>
<path class="st2" d="M326,260.7c-0.2,19-6.2,37.3-19.5,52.9c-23,27-61.1,32.1-90.3,11.8c-19.5-13.6-30.5-32.7-34.4-55.9
	c-3.6-21.4,0.3-41.6,12-60c10.9-17,26.1-28,46.2-31.6c18-3.3,34.7,0.7,49.7,10.9c19.2,13,30.1,31.5,34.7,53.9
	C325.6,248.1,325.9,253.8,326,260.7z M309.1,259.4c0.2-3.8-0.4-7.6-1-11.4c-3-18.1-11.2-33.2-26.2-44.3c-9.2-6.8-19.5-10.4-31-10.1
	c-18.3,0.5-32.2,9-42.3,24c-9.5,14-12.4,29.7-10.4,46.3c2.3,18.8,10.5,34.6,25.9,46.2c22.4,16.8,51.8,13.4,69.8-8
	C304.4,289.8,308.7,275.3,309.1,259.4z"/>
<path class="st3" d="M833.6,949.5c-66.3-0.1-121.4-45.9-132.9-109.1c-11.3-61.7,23.4-125,81.8-148.8c39.8-16.3,79.3-14.9,117.1,5.5
	c36.4,19.7,58.8,50.6,66.7,91.4c14.1,72.8-34.3,144.6-110.2,158.8C848.1,948.8,839.9,949.3,833.6,949.5z M833.6,697.7
	c-17-0.1-34.6,4.2-51.3,12.4c-58,28.5-83.1,98.7-56,156c28.6,60.3,100.6,83.3,159.5,53.7c48.4-24.3,74.7-77.6,63.7-130.1
	C938.1,735.2,891,697.6,833.6,697.7z"/>
<path class="st3" d="M834.2,864.2c-8.2,8.5-15.8,16.3-23.4,24.1c-2.7,2.7-5.4,5.3-8.5,7.6c-4.1,2.9-8.3,3.2-12.8,0.8
	c-2.4-1.3-4.7-2.8-6.6-4.7c-9.1-8.9-18.2-17.8-27.2-26.7c-6.2-6.2-6.7-10.5-2.3-17.9c1.9-3.1,4.2-6,6.7-8.5c6.8-7,13.7-14,20.5-21.1
	c1.1-1.2,2.6-2,3.1-4.2c-7.5-7.3-15.2-14.8-22.8-22.2c-3-2.9-5.9-5.9-8.2-9.4c-2.4-3.7-2.5-7.5-0.7-11.4c1.3-2.8,3.1-5.3,5.3-7.5
	c8.8-8.9,17.5-17.9,26.4-26.8c6.4-6.5,10.6-6.9,18.4-2.2c3.1,1.9,5.9,4.2,8.5,6.8c7.1,7,14.4,13.9,21.4,21c2,2,3.3,2,5.2,0
	c7.3-7.6,14.7-15.1,22.1-22.6c2.8-2.9,5.7-5.6,9-7.9c4-2.7,8-3,12.3-0.8c2.5,1.2,4.7,2.7,6.7,4.7c9.2,9.1,18.4,18.1,27.5,27.2
	c6,6,6.4,10.3,2.2,17.5c-1.9,3.3-4.4,6.2-7,9c-7.3,7.4-14.5,14.8-21.8,22.2c-4.2,4.3-4.2,3.3-0.1,7.4c8.2,8.2,16.5,16.4,24.5,24.7
	c6.6,6.8,9.5,12.7-0.4,23.1c-9,9.5-18.4,18.6-27.7,27.7c-5.8,5.7-10.2,6.1-17.1,2c-3.5-2-6.5-4.6-9.3-7.5
	C850.1,880.5,842.4,872.7,834.2,864.2z M899.1,773.2c0.3-2.2-1.1-3.4-2.4-4.7c-5.6-5.5-11.1-11-16.7-16.5c-3.9-3.8-5.5-3.7-9.7,0
	c-0.8,0.7-1.5,1.5-2.3,2.3c-7.5,7.6-15,15.3-22.5,22.9c-7.6,7.7-13.8,7.9-21.5,0.4c-7.7-7.5-15.3-15-23-22.4c-1-1-2.1-2.1-3.3-2.9
	c-2.6-1.7-4.5-1.6-6.8,0.6c-6.1,6-12.1,12.1-18,18.2c-2.6,2.8-2.5,4.7-0.2,7.7c0.9,1.1,2,2.1,3,3.2c8.2,8,16.4,16,24.5,24
	c5.6,5.6,5.6,9.7,0.1,15.5c-0.5,0.5-1,1-1.5,1.6c-8.1,8.3-16.2,16.7-24.3,25c-5.3,5.5-5.3,6.8,0,12c4.7,4.6,9.3,9.2,14,13.7
	c5.5,5.4,7,5.4,12.4-0.1c0.4-0.4,0.8-0.8,1.1-1.2c7.7-7.9,15.4-15.9,23.2-23.8c5.5-5.6,9.6-5.8,15.7-0.9c1.7,1.4,3.2,2.9,4.8,4.5
	c7.7,7.7,15.4,15.4,23.2,23c3.9,3.8,6,3.7,9.7,0.1c5.4-5.3,10.8-10.7,16.2-16.2c4-4,4-5.8,0-10.1c-3.2-3.4-6.7-6.7-10-10
	c-5.4-5.4-10.8-10.7-16.2-16.2c-4.8-4.8-4.9-7.7-1.6-13.5c1.7-3,3.9-5.7,6.3-8.1c7.5-7.6,15-15.3,22.5-22.9
	C897.5,777.1,899,775.5,899.1,773.2z"/>
<path class="st4" d="M72.5,485.9l14.7,14.7c3.5,3.5,9.1,3.5,12.6,0l14.7-14.7c3.5-3.5,3.5-9.1,0-12.6l-14.7-14.7
	c-3.5-3.5-9.1-3.5-12.6,0l-14.7,14.7C69,476.8,69,482.4,72.5,485.9z"/>
<path class="st4" d="M72.5,528.7l14.7,14.7c3.5,3.5,9.1,3.5,12.6,0l14.7-14.7c3.5-3.5,3.5-9.1,0-12.6l-14.7-14.7
	c-3.5-3.5-9.1-3.5-12.6,0l-14.7,14.7C69,519.6,69,525.2,72.5,528.7z"/>
<path class="st3" d="M684.1,939.6l17.3,17.3c2.5,2.5,6.6,2.5,9.1,0l17.3-17.3c2.5-2.5,2.5-6.6,0-9.1l-17.3-17.3
	c-2.5-2.5-6.6-2.5-9.1,0l-17.3,17.3C681.6,933,681.6,937,684.1,939.6z"/>
<circle class="st5" cx="831.7" cy="813.8" r="170"/>
</svg>
