<?xml version="1.0" encoding="utf-8"?>
<!-- Generator: Adobe Illustrator 28.0.0, SVG Export Plug-In . SVG Version: 6.00 Build 0)  -->
<svg version="1.1" id="Capa_1" xmlns="http://www.w3.org/2000/svg" xmlns:xlink="http://www.w3.org/1999/xlink" x="0px" y="0px"
	 viewBox="0 0 1080 1080" style="enable-background:new 0 0 1080 1080;" xml:space="preserve">
<style type="text/css">
	.st0{fill:#FF5500;}
	.st1{fill:#6EE1EB;}
	.st2{fill:none;stroke:#FF5500;stroke-width:20;stroke-miterlimit:10;}
</style>
<path d="M651.1,575.4c-43,0-86.1-0.8-129.2,0.3c-28.9,0.7-57.7,0.3-86.5,0.8c-1.6,0-3.3,0.1-4.9-0.1c-4.4-0.7-7.2-4.2-7.2-8.7
	c0-4.5,2.9-7.9,7.4-8.5c1.6-0.2,3.3-0.1,4.9-0.1c69.6,0,139.1,0.7,208.7-0.3c54.6-0.8,109.3-0.4,163.9-0.8c5.2,0,5.3,0,5.3-5
	c0-7.5,0.1-14.9,0-22.3c0-4.2-0.1-4.3-4.3-4.3c-16.2,0-32.3,0.3-48.5-0.1c-87.3-2.2-174.7,0.1-262-1.3c-24.1-0.4-48.2-0.2-72.4-0.8
	c-5.9-0.1-8.5-2.7-8.5-8.2c0-5.4,2.5-8,8-8.1c6.2-0.1,12.4,0,18.5,0c5.1,0,5.1-0.1,5.1-5.1c0-26.5-0.1-53,0.1-79.6
	c0.1-19,5.7-36.2,17.6-51.3c8.3-10.6,18.7-18.6,30-25.6c17.1-10.7,36-17,55.6-21c6.5-1.3,13.1-2.3,19.8-2.8
	c5.8-0.4,11.5-0.8,17.3-0.9c18.5-0.3,36.7,2,54.6,7c17.3,4.8,33.3,12.3,47.7,23c7,5.2,13.2,11.4,18.3,18.4c1.7,2.3,3.4,2.9,5.9,2.8
	c10.7,0,21.5-0.3,32.2,0.1c11.6,0.4,21.4,5.1,28.5,14.5c3.6,4.8,4.8,10.4,4.8,16.4c0,32.7,0,65.4,0,98.1c0,7.7-0.6,7.1,7,7.1
	c10.2,0,20.3,0,30.5,0c7.9,0,11.5,3.7,11.5,11.8c0,14.7,0,29.4,0,44.1c0,7-2.1,9.2-8.9,10.7c-3.8,0.8-7.5,0.9-11.3,0.9
	c-4.8,0.1-4.8,0.1-4.8,4.9c0,21.8,0,43.6,0,65.4c0,1.5,0,2.9,0,4.4c0.2,3.5,0.9,4.6,4.2,3.7c6.9-1.8,14.1,0.1,21-1.9
	c1.5-0.4,3.3-0.3,4.8,0.3c1.9,0.8,3.9,0.7,5.9,0.6c20.1-0.5,39,4.9,57.5,12c15.5,6,29.8,14.1,43,24.2c18.5,14.1,33.5,31.2,45.2,51.4
	c10.2,17.6,16.8,36.5,20.7,56.3c2.2,11,2.6,22.2,2.5,33.5c-0.1,22.2-4.8,43.4-12.9,63.9c-6.9,17.5-16.6,33.4-28.5,47.9
	c-15.8,19.1-34.8,34.2-56.8,45.5c-12.6,6.5-25.6,11.9-39.5,15.2c-15.7,3.8-31.6,5.6-47.8,5.6c-19.4,0-38.2-3.3-56.4-9.5
	c-19.9-6.7-38.3-16.4-54.4-30.1c-13.7-11.7-26.3-24.3-36.2-39.5c-12.9-19.7-21.3-41.1-25.9-64.1c-3.2-15.5-3-31.4-2.2-47.1
	c0.5-9.5,2.6-18.9,4.9-28.2c0.3-1.4,0.7-2.8,1-4.2c0.2-1.1-0.3-1.8-1.4-1.8c-1.6-0.1-3.3-0.1-4.9-0.1c-56.5,0-113,0-169.5,0
	c-3,0-5.8,0.1-7.8-2.7c-1.8-2.5-3-5-1.8-8.1c1.2-3.1,3.5-5,6.8-5.5c1.6-0.2,3.3-0.1,4.9-0.1c44.9,0,89.7,0.3,134.6-0.2
	c14.1-0.2,28.2-0.8,42.4-0.8c2.7,0,4-1.2,4.8-3.4c3.2-8.5,7.9-16.3,12.6-24c4.3-7.2,9.4-13.7,14.7-20.2c4.6-5.7,9.7-10.8,14.9-15.8
	c14.1-13.2,29.5-24.3,47.3-32.3c10.5-4.7,21.1-8.7,32-12c2.3-0.7,2.8-1.8,2.8-3.8c-0.1-5.1,0-10.2,0-15.3c0-3.2-0.3-6.5,0.8-9.7
	c0.3-1,0.3-2.2,0.2-3.2c-2.1-14.6-0.5-29.3-1-44c0-1.5-0.1-2.9,0-4.4c0.2-2.9-1.2-3.9-3.9-3.7c-1.3,0.1-2.5,0-3.8,0
	C737.6,575.4,694.3,575.4,651.1,575.4C651.1,575.4,651.1,575.4,651.1,575.4z M466.9,464.1c0,12.7,0,25.4,0,38.1c0,5.6,0,5.6,5.8,5.6
	c7.3,0,14.5,0,21.8,0c5.1,0,5.1-0.1,5.1-5.2c0-14,0-28,0-42c0-1.5-0.1-2.9,0.1-4.4c0.5-3.8,3.4-6.7,7.1-7.3c3.9-0.6,6.9,1,8.9,4.7
	c1.2,2.2,1.4,4.4,1.4,6.8c0,13.6,0,27.2,0,40.9c0,6.8-0.3,6.4,6.6,6.4c36.5,0,73,0.1,109.5,0c5.6,0,11.1,1.5,16.8,1.1
	c5.1-0.3,5.5-0.5,5.5-5.8c0-11.8,0-23.6-0.1-35.4c0-1.4,0-3-0.5-4.3c-1.2-3.2-0.1-6.1,1-8.9c1.5-3.6,5.2-5.2,9.5-4.4
	c3,0.6,6.3,4.1,6.2,7.3c-0.3,9.4,1.7,18.8,1.2,28.2c-0.3,6.2-0.1,12.4,0,18.5c0,4.6,0.1,4.7,4.5,4.7c9.3,0.1,18.5,0,27.8,0
	c4.7,0,4.9-0.1,4.8-5c-0.2-10.9-0.2-21.7-0.8-32.6c-1-18.8,0.1-37.7-1.2-56.5c-0.4-5.8-0.4-11.5-2.2-17.1c-2.4-7.5-6-14.4-11.2-20.3
	c-10.6-12.1-23.7-20.6-38.5-26.8c-16.3-6.9-33.5-10.4-51-11.5c-14-0.9-28.2-0.6-42.2,1.8c-15.6,2.7-30.7,6.8-45.1,13.5
	c-14.4,6.6-26.7,16-37,28c-6.7,7.8-11.4,17.1-12.5,27.3c-0.8,8.2-1.8,16.5-1.4,24.9C467.2,444.5,466.9,454.3,466.9,464.1z
	 M830.4,670.1c-7.1-0.7-17,1.2-26.8,2.7c-10,1.6-19.7,4.6-29.2,8.1c-19,7.1-36.3,17.2-51.6,30.6c-8.4,7.4-16.1,15.6-22.9,24.7
	c-10.7,14.3-19.1,29.8-24.9,46.8c-6.1,17.8-9,36.1-8.5,54.9c0.2,8.8,1.3,17.6,3,26.3c3.8,20,11.4,38.5,22.3,55.6
	c7,11,15.6,20.8,25.2,29.7c5.6,5.2,11.3,10.1,17.6,14.4c14.1,9.7,29.5,16.9,45.9,22c14.3,4.4,28.9,6.1,43.7,7
	c5.6,0.4,11.2-0.5,16.8-0.8c8.9-0.5,17.6-2.2,26.2-4.2c14.7-3.4,28.5-9.1,41.8-16.4c19-10.5,35.4-23.9,48.9-40.8
	c13.7-17.1,23.8-36.3,30-57.4c4.3-14.5,6.1-29.3,6.5-44.3c0.2-7.5-1-15.1-1.9-22.6c-1.7-13.8-5.3-27-10.9-39.6
	c-9.5-21.4-22.5-40.3-40.5-55.8c-13.3-11.4-27.6-21-43.8-27.7C876.7,674.6,855.4,670.3,830.4,670.1z M764.5,422.2L764.5,422.2
	c0-6.2-0.2-12.4,0.1-18.5c0.3-6-0.8-10.3-10-12.5c-9.6-2.4-19.5-0.7-29.2-1.1c-1.7-0.1-2,0.9-1.7,2.5c0.7,3.7,1.4,7.5,1.5,11.2
	c0.3,11.6,0.6,23.1,0.9,34.7c0.7,21.9,0.2,43.8,1.3,65.7c0,0.4,0,0.7,0,1.1c-0.2,2.6,1.1,3.5,3.6,3.5c10.3-0.1,20.7-0.1,31,0
	c2.5,0,3.7-1,3.5-3.5c-0.1-1.3,0-2.5,0-3.8c-0.5-19.9,1-39.9-0.9-59.8C764,435.4,764.5,428.8,764.5,422.2z"/>
<path d="M148.1,429.9c2.2,0.9,4,0.5,5.8,0.5c18.7,0,37.4,0.5,56.1-0.1c31-1.1,62-1.1,93-0.9c11.9,0.1,21.5,5.7,28.5,15.4
	c2.9,4,3.5,8.6,3.5,13.4c0,33.4-0.9,66.9,0.3,100.2c1.2,35.8,0.2,71.5,0.8,107.2c0.1,6.8-0.3,13.3-2.7,19.8c-1.3,3.5-0.2,5,3.6,4.2
	c7.4-1.5,14.7,0.7,22.1,0.2c7.2-0.5,14.5-0.2,21.8,0c3.9,0.1,7.3,3.9,7.5,7.9c0.1,4-3,7.6-7.2,8.3c-1.7,0.3-3.9-0.7-5.2,0.9
	c-1.4,1.6-0.6,3.8-0.6,5.8c0,36.9,0,73.7,0,110.6c0,1.6,0.1,3.3-0.1,4.9c-0.5,4.3-3.8,7.3-8,7.5c-4.3,0.3-7.1-1.8-8.6-5.9
	c-0.6-1.8-0.8-3.5-0.8-5.3c0-20.5-0.8-41.1,0.2-61.6c0.8-16.7,0.3-33.3,0.8-50c0-1.1-0.1-2.2,0-3.3c0.2-2.5-0.9-3.8-3.5-3.6
	c-0.7,0-1.5,0-2.2,0c-13.1,0-26.1,0-39.2,0c-6,0-6.3,0.3-6.3,6c0,17.1-0.8,34.2,0.2,51.2c1.3,20.2,0.2,40.3,0.8,60.4
	c0,0.9,0,1.8,0,2.7c-0.2,5.7-3.4,9.2-8.5,9.3c-4,0.1-8.4-4.3-8.9-8.9c-0.1-1.4,0-2.9,0-4.4c0-25.6,0.1-51.2-0.1-76.8
	c-0.1-11.9-1.4-23.9-0.9-35.8c0.1-2.9-1.2-3.7-3.9-3.7c-20.7,0.1-41.4,0.1-62.1,0c-2.8,0-4,1-3.8,3.8c0.1,2.5,0,5.1,0,7.6
	c0,30.5,0,61,0,91.5c0,1.5,0,2.9,0,4.4c0,1.8,0.8,2.7,2.6,2.7c4.2,0,8.5,0.5,12.5-0.3c5.4-1.1,10.9-0.7,16.3-0.6
	c3.1,0,6.2,1.3,7.8,4.3c3,5.8,0.8,11.2-6,12.9c-1.4,0.3-2.9,0.1-4.4,0.1c-19.6,0-39.2,0.1-58.8,0c-6.9,0-13.7,1.7-20.6,1.1
	c-2.2-0.2-4.3-0.4-6.4-1c-5.3-1.4-6.7-4.8-6.2-9.9c0.4-3.7,4.2-6.5,8.7-6.5c10.7,0,21.4,0,32.1,0c4.8,0,4.9-0.1,4.9-4.8
	c0-33.4,0-66.8,0-100.3c0-4.9-0.1-5-5.3-5c-28,0-55.9-0.1-83.9,0c-12,0-20-6.3-26.1-15.9c-3.6-5.7-5-11.9-4.7-18.7
	c0.6-12.1-1.5-24.2-1-36.4c2.4-59,0.4-118,1.1-177c0.2-13.3,7.8-22.4,20.1-25.6c5.9-1.5,11.9-1.2,17.8-1.1c3.9,0.1,6.1-1,8.1-4.7
	c5.2-9.4,12.6-17.1,21.2-23.6c18.5-13.9,39.3-22.1,61.8-26.4c9.6-1.8,19.2-3.6,29-3.2c3.1,0.1,6-1.3,9.1-1.1
	c25,1.3,49.6,4.3,73,14.3c12.4,5.3,24.1,11.8,34.5,20.4c10.9,9.1,19.3,20.1,23.7,33.9c1.5,4.6,2.3,9.5,2.4,14.4c0,3.5,0,6.9,0,10.4
	c-0.1,26.9,0.9,53.7,1.5,80.5c0.4,18.3,0.2,36.6,0.7,54.9c0,0.7,0,1.5,0,2.2c0.4,8.8,0.5,8.9,9.4,8.9c4.5,0,9.1,0.5,13.6-0.1
	c7.5-1,13.5,2.2,19.5,5.6c5,3,8.1,7.9,9.6,13.4c0.9,3.2,1.4,6.7,1.4,10.2c-0.1,60.3-0.1,120.6-0.1,180.9c0,1.3,0.1,2.6-0.1,3.8
	c-0.6,4.3-5,8.5-8.7,8.5c-3.7,0-8.1-4.4-8.6-8.6c-0.1-1.2,0-2.5,0-3.8c0-44-0.5-87.9,0.3-131.9c0.2-15.4,0.5-30.8,0.8-46.2
	c0-1.1,0.1-2.2,0-3.3c-1.1-9.1-2.7-11.5-11.5-11.2c-10.7,0.4-21.4,0.2-32.1,0.1c-6.3,0-9.7-3.1-9.6-9.2c0-18.3-1.8-36.6-1.2-54.9
	c0.2-5.3,0.4-10.6-0.1-15.8c-1.7-20.1-0.1-40.3-1.3-60.4c-0.6-11.1-0.9-22.1-0.7-33.1c0.2-10-4-17.8-9.7-25.3
	c-10.8-14.2-25.8-22.3-41.8-29.1c-11.2-4.8-23-7.6-35-9.5c-4.9-0.8-10-1.4-15.1-1.6c-5.2-0.2-10.4-1.1-15.7-0.9
	c-21.8,0.9-43.2,3.8-63.5,12.5C171.6,408.8,158.4,416.9,148.1,429.9z M318.7,566.2c-0.8-32.1,1.1-70.2-1-108.3
	c-0.2-4.3-2.2-7-5.4-8.7c-3.8-2-7.9-3.5-12.4-3.5c-5.6,0-11.2,0.8-16.8,0.9c-26.6,0.8-53.3-0.1-80,1c-31.1,1.3-62.4-0.7-93.6,1.3
	c-5.9,0.4-8.8,3.1-8.9,9.1c-0.6,36.8,0.5,73.6-0.8,110.5c-1.1,29.2-0.2,58.5-0.2,87.7c0,6.2,0,12.3,0.9,18.4
	c1.2,8.1,5.6,14.3,15.8,14.3c62.3-0.2,124.6-0.1,186.8-0.1c9.9,0,15.5-5.6,15.5-15.3C318.7,639.7,318.7,605.9,318.7,566.2z"/>
<path d="M858.2,112.2c0,10.7,0.7,21.5-0.2,32.1c-1.5,19.2-0.5,38.4-0.9,57.6c-0.1,6.2-3.6,9.5-9.5,9.4c-5.6-0.1-9-3.4-9-9.3
	c0-24-0.1-47.9,0.1-71.9c0-4.3,1.3-8.6,1-12.9c-0.3-3.6-1-4.5-4.3-5c-6.8-0.9-9.8,1.7-9.8,8.7c-0.1,13.3-0.3,26.5,0,39.8
	c0.4,18.1-0.8,36.2-1.1,54.4c-0.1,4.6-4.5,9.1-8.9,9.3c-4.1,0.2-8.8-3.8-9.5-8.2c-0.2-1.4-0.1-2.9-0.1-4.4c0-19.6,0-39.2,0-58.8
	c0-1.4,0-2.9,0-4.4c0-0.9-0.2-1.8-1.1-2.3c-5.1-2.9-11.9,0.8-11.9,6.6c-0.1,12.2,0.7,24.4-0.2,36.5c-1.5,21.2-0.4,42.4-0.8,63.6
	c0,2.1-0.3,4-1.4,5.7c-2,3.2-5.8,5.3-8.6,4.7c-4.7-1-8.1-4.5-8.5-8.8c-0.1-0.9,0-1.8,0-2.7c0-31.8,0-63.6,0-95.3
	c0-6.1,1.8-11.8,4.9-17c4.8-8.2,12.8-11.5,21.6-13.1c6.4-1.1,7-1.1,7.2-7.8c0.1-3.9,1.2-7.4,2.8-10.9c4.3-9.2,11.9-13.2,21.6-14
	c1.8-0.2,3.6-0.1,5.5,0c2.7,0.1,4-1.2,4-3.9c0-3.6,1.3-6.8,3.1-9.7c3.4-5.7,8.6-8.7,15.1-9.2c6.4-0.4,12.6-0.1,18.5,3.1
	c7.8,4.1,12.5,10.2,13.4,19.1c0,0.5-0.1,1.2,0.2,1.6c1.3,2.3-0.2,5.5,1.8,7.1c1.8,1.5,4.6,0.4,6.9,0.7c7.9,0.7,20.8,9.4,23.7,20.1
	c0.8,3,1.4,6,1.3,9.1c-0.1,2.5-0.3,5.1,0.7,7.5c0.3,0.8,0.4,1.9,0.2,2.7c-1.9,7.2-0.8,14.4-0.9,21.7c-0.3,16.3-1.6,32.6-1.2,48.9
	c0.1,4.9-3.1,8.7-7.6,10c-3.6,1-7.1-0.4-9.8-4c-1.3-1.8-2-3.9-2-6.1c0-3.8-0.6-7.6,0.6-11.4c0.5-1.5,0.4-3.2,0.3-4.9
	c-0.3-12.4,0.4-24.9,0-37.3c-0.3-8,1.8-15.9,1.1-23.9c-0.4-4.6-0.3-9.5-4.7-12.7c-1.3-1-2.7-1.9-4.3-2.2c-4.8-1.1-6.2,0.1-6.2,5
	c0,6.5,0.3,13.1-0.1,19.6c-1.2,18.8-1,37.7-1,56.5c0,3.6-1.6,6.3-4.3,8.4c-4.8,3.7-11.1,2-13.6-3.5c-2.6-5.7-1.9-11.8-1.3-17.7
	c0.2-2.5,0.6-5,0.7-7.5c0-2.7,0-5.4,0-8.2c-0.2-25,1.9-50,1.1-75.1c-0.1-2.4-0.2-4.5-1.9-6.5c-2.5-2.9-5.5-3.2-8.9-2.6
	c-2.2,0.4-3.4,1.7-3.4,4.2c0.1,5.1,0,10.2,0,15.2C856.7,109.3,856.7,110.7,858.2,112.2z"/>
<path d="M935.6,289.9c1.8,40.3-33.6,73.1-72.3,73c-39.9-0.1-73-32.9-72.7-73.1c0.2-20.9,8-38.4,22.9-52.7
	c13.8-13.4,31-19.9,49.7-19.9c19.7,0,37.8,6.9,51.8,21.3C928.6,252.7,936.6,269.6,935.6,289.9z M861.9,343.3
	c5.3-0.1,9.8,0.1,14.2-1.1c7.7-2.2,15-5.4,21.3-10.5c2.8-2.2,2.8-3.5,0.3-6.2c-0.5-0.5-1-1.1-1.6-1.5c-5.9-4.8-11.8-9.5-17.8-14.2
	c-10.2-8.1-20.3-16.2-30.5-24.3c-9-7.2-18.1-14.4-27.1-21.6c-1.8-1.4-3.1-1.6-4.4,0.6c-0.6,1.1-1.3,2.1-1.8,3.3
	c-3.8,8.9-5.3,18.1-4.4,27.9c1.3,13.7,7,25.1,16.9,34.2C836.9,338.8,848.8,343.9,861.9,343.3z M863.3,236.4c-0.5,0-1.1,0-1.6,0
	c-9.8-0.4-18.4,3.3-26.7,7.9c-3.8,2.1-3.7,3.8-0.1,6.7c4.1,3.3,8.2,6.5,12.2,9.8c11.8,9.5,23.6,19.1,35.4,28.5
	c8.4,6.8,17,13.5,25.4,20.2c3.5,2.9,4.7,2.7,6-1.6c4.2-13.4,4.4-26.5-1.5-39.6C902.8,247.3,886,237.5,863.3,236.4z"/>
<path d="M657.7,214.3c-1.2,19.7-6,37.3-17.9,52.6c-10.8,14-24.9,22.4-42,25.9c-13.7,2.8-26.9,0.6-39.5-5.2c-8.6-4-16.5-9.1-23-16.1
	c-9.5-10.1-16-21.9-20.2-35c-3.5-11-4.3-22.4-3.3-33.8c1.2-14.5,6.1-27.9,14.4-39.8c9.2-13.2,21.3-22.8,36.7-27.5
	c7.5-2.3,15.2-3.5,23.4-2.7c8,0.8,15.6,2.4,23.1,5.3c7.3,2.8,13.4,7.3,19.1,12.2c16,13.7,24.5,31.5,27.9,52
	C657,206.3,657.3,210.7,657.7,214.3z M529.2,210.8c0,3.4-0.5,7,0.1,10.3c2.6,16,9.3,29.9,21.5,41c12.1,11.1,25.9,15.8,42.2,13.7
	c14.2-1.8,25.2-9.2,33.6-20.1c12.4-16.1,15.8-34.7,12.1-54.4c-1.8-9.8-5.6-19.1-11.7-27.2c-12.2-16.1-27.5-25.4-48.6-23.9
	c-12.5,0.9-22.8,5.9-31.2,14.4C534.6,177.2,528.7,192.9,529.2,210.8z"/>
<path d="M179.1,274.4c-0.1-22.4,5.9-40,18.1-55.1c11.7-14.4,26.7-23.7,45.7-25.5c22.1-2.1,40.6,5.2,56.5,20.4
	c14,13.5,21.5,30.3,24.6,49.1c2.7,16.4,0.3,32.5-6.5,47.6c-8.5,19.2-22.3,33.3-42.5,40.3c-16.5,5.7-33,4.9-49-2.6
	c-8.8-4.1-16.8-9.2-23.4-16.4c-9.5-10.3-16.2-22.2-20.1-35.6C180.1,288.5,178.8,280.2,179.1,274.4z M196.5,273.7
	c-0.6,5.4,0.9,12.6,3,19.8c3.6,12.4,10.7,22.5,20.3,31c13.3,11.6,28.7,15.8,45.9,11.5c15.9-4,27-14.4,34.5-28.6
	c7.5-14.1,9.1-29.3,6.2-44.8c-2.4-12.9-7.9-24.6-17.1-34c-11.8-12.2-25.9-18.9-43.6-17.4c-12.1,1.1-22.1,5.7-30.4,13.9
	C202.4,237.7,196.4,253.4,196.5,273.7z"/>
<path d="M969.1,166.7c17.6,0.3,23.8,10.7,25.1,23c0.6,6.1-2.2,12-5,17.5c-5.6,11.4-13.5,21.4-20.2,32.1c-5.3,8.5-9.8,17.3-9.5,27.8
	c0.1,4.5-3,7.8-7,8.4c-3.7,0.6-7.7-2.1-9.3-6c-1.4-3.3-1.3-6.8-0.9-10.2c1.3-10.8,5.3-20.6,10.7-29.9c6.1-10.5,13.9-19.9,19-31
	c1-2.1,2-4.3,2.6-6.6c1-3.8-0.4-5.4-4.3-5.6c-3.4-0.2-6.2,0.8-9,3c-6.1,4.9-10.7,11.2-15.3,17.4c-4.3,5.8-10.7,6.4-15.3,1.4
	c-3-3.2-3.4-5.9-1.6-9.9c1.7-3.7,4.2-6.8,6.7-9.9c6-7.5,12.4-14.6,21.4-18.8C961.2,167.6,965.2,166.2,969.1,166.7z"/>
<path d="M858.2,112.2c-1.5-1.5-1.5-2.9,0-4.4C859.7,109.3,859.7,110.7,858.2,112.2z"/>
<path class="st0" d="M967.3,827.5c0.2,34.1-10.2,61.9-29.1,86.7c-10.5,13.7-23.6,24.4-38.4,33.2c-16.1,9.6-33.5,15.5-52,17.8
	c-9.2,1.2-18.5,1.8-28.1,0.7c-12.3-1.4-24.3-3.7-35.9-7.9c-15.2-5.5-28.6-13.8-41-24.1c-10.6-8.8-19.1-19.3-26.2-30.9
	c-9.1-14.8-15.2-30.8-17.7-48.1c-1.2-8-2.6-16.1-2.1-24.3c0.9-14.3,3.1-28.3,8.1-41.8c5.5-15,12.9-28.8,23.1-41
	c7-8.3,14.7-16.1,23.5-22.6c15.3-11.4,32.3-19.3,50.8-23.9c13.1-3.2,26.4-4.8,39.8-3.8c15.5,1.2,30.6,4.8,45.1,10.9
	c18.8,7.9,34.5,19.9,47.9,35c14.3,16.2,23.7,35,28.7,56C966.3,809.6,967.8,819.8,967.3,827.5z M832,715c-3.8,0.2-9.5-0.1-15.3,0.9
	c-20.8,3.4-39.7,10.9-56.2,24.2c-16.7,13.4-29.8,29.4-37.7,49.5c-4.3,11-7.5,22.4-8.3,34.1c-0.5,9-0.7,18.1,0.8,27.1
	c2,11.9,5.1,23.4,10.6,34c7.2,13.9,16.3,26.3,28.5,36.6c19.4,16.3,41.6,25.5,66.5,27.7c17.8,1.5,35.3-1,52.2-7.4
	c14.2-5.5,27-13.2,38.2-23.4c12.9-11.7,22.7-25.7,29.7-41.8c6.2-14.2,8.8-29,9.7-44.2c0.5-8.5-0.7-17-2.5-25.3
	c-3.9-17.9-11-34.3-22.9-48.7c-10.3-12.5-22.2-22.8-36.6-30.3C871.6,719.1,853.5,714.2,832,715z"/>
<path class="st0" d="M874.1,915.5c-5.9-0.3-10.7-3.3-14.8-7.2c-7.7-7.4-15.2-15.1-22.8-22.7c-3.9-3.8-4.2-3.9-7.8-0.1
	c-6.5,6.8-13.7,13-19.6,20.4c-2.3,2.9-5.6,5.2-8.7,7.3c-5.6,3.7-11,3.2-16.9-2.2c-10.4-9.6-20.5-19.4-30.5-29.4
	c-4.9-4.9-5.2-11-1.5-16.9c2.3-3.7,4.8-7.2,8-10.2c6.6-6.5,13.1-13.1,19.6-19.6c3.2-3.2,3.2-3.3,0.1-6.4c-6.9-7-13.9-13.9-20.8-20.8
	c-1.4-1.4-2.9-2.8-4.2-4.3c-7-7.8-7.3-14.2-0.1-21.8c10-10.5,20.4-20.7,30.8-30.8c3-3,6.8-4,11-2.2c3.3,1.4,6.6,3,9.2,5.5
	c8.2,7.7,16.2,15.5,24.3,23.2c3.7,3.5,3.7,3.6,7.2,0.1c8.4-8.3,16.7-16.7,25-25c9.2-9.1,14.9-8.8,24.2-0.2
	c9.9,9.1,19.1,18.9,28.6,28.4c4,4,4.6,8.4,2.3,13.4c-2.1,4.5-5,8.4-8.4,11.9c-7.4,7.5-14.9,14.9-22.3,22.4c-3.3,3.3-3.3,3.4,0.1,6.8
	c7.3,7.3,14.6,14.6,22,22c0.9,0.9,1.8,1.8,2.7,2.7c7.9,8.4,8.5,14.2-0.2,23.4c-9.2,9.8-19,19-28.4,28.6
	C880,913.9,877.5,915.7,874.1,915.5z M872.1,894.7c2,0.3,3.5-0.5,4.9-1.9c5.7-5.8,11.6-11.5,17.3-17.4c2.5-2.5,2.7-4.3,0.7-7.2
	c-0.9-1.3-2.1-2.5-3.2-3.7c-8.1-8.1-16.2-16.2-24.2-24.3c-4.8-4.9-5.1-8.1-1.9-14c1.5-2.8,3.4-5.1,5.6-7.3
	c7.2-7.2,14.4-14.4,21.5-21.6c1-1,2.1-2,3-3.2c2.5-3.4,2.3-6.2-0.6-9.2c-4.3-4.4-8.7-8.7-13.1-13.1c-7.7-7.7-8.4-7.7-16,0
	c-8.2,8.2-16.4,16.5-24.7,24.6c-4.5,4.4-10.8,4.8-15.3,1.1c-3.7-3.2-7.5-6.2-11-9.7c-5.6-5.9-11.5-11.6-17.3-17.3
	c-3.3-3.3-5.5-3.3-8.8,0c-5.7,5.6-11.3,11.2-16.9,17c-2.6,2.7-2.8,5.2-0.8,8.3c0.9,1.3,2,2.6,3.2,3.6c8.9,7.5,16.8,16,25.1,24.1
	c6.2,6.1,3.9,9.7,0.6,14.2c-0.8,1-1.8,1.8-2.7,2.7c-7.3,7.3-14.6,14.7-21.9,22c-1.7,1.7-3.2,3.4-4.4,5.5c-1.8,3-1.8,4.9,0.6,7.3
	c5.8,6,11.7,11.9,17.7,17.7c2.8,2.7,5.3,2.7,8-0.1c8.7-9,17.8-17.6,26.3-26.8c5-5.3,7.3-6.9,14.5-2c1.7,1.1,3.1,2.5,4.5,3.9
	c8,7.9,15.9,15.9,23.9,23.9C868.2,893.3,869.6,895.1,872.1,894.7z"/>
<path class="st1" d="M71.7,522.3L86.4,537c3.5,3.5,9.1,3.5,12.6,0l14.7-14.7c3.5-3.5,3.5-9.1,0-12.6L99,495c-3.5-3.5-9.1-3.5-12.6,0
	l-14.7,14.7C68.2,513.2,68.2,518.8,71.7,522.3z"/>
<path class="st1" d="M71.7,565.1l14.7,14.7c3.5,3.5,9.1,3.5,12.6,0l14.7-14.7c3.5-3.5,3.5-9.1,0-12.6L99,537.8
	c-3.5-3.5-9.1-3.5-12.6,0l-14.7,14.7C68.2,556,68.2,561.6,71.7,565.1z"/>
<path class="st0" d="M702,969.8l17.3,17.3c2.5,2.5,6.6,2.5,9.1,0l17.3-17.3c2.5-2.5,2.5-6.6,0-9.1l-17.3-17.3
	c-2.5-2.5-6.6-2.5-9.1,0L702,960.7C699.5,963.2,699.5,967.3,702,969.8z"/>
<circle class="st2" cx="830.4" cy="831.6" r="172"/>
</svg>
