<?xml version="1.0" encoding="utf-8"?>
<!-- Generator: Adobe Illustrator 28.0.0, SVG Export Plug-In . SVG Version: 6.00 Build 0)  -->
<svg version="1.1" id="Capa_1" xmlns="http://www.w3.org/2000/svg" xmlns:xlink="http://www.w3.org/1999/xlink" x="0px" y="0px"
	 viewBox="0 0 1080 1080" style="enable-background:new 0 0 1080 1080;" xml:space="preserve">
<style type="text/css">
	.st0{fill:#090909;}
	.st1{fill:#0A0A0A;}
	.st2{fill:#090A0A;}
	.st3{fill:#6EE1EB;}
	.st4{fill:#29E4A5;}
	.st5{fill:none;stroke:#29E4A5;stroke-width:19;stroke-miterlimit:10;}
</style>
<path class="st0" d="M807.4,649.8c3.8,0.3,6.8-0.5,9.8-0.7c16.5-1.2,33.2-1.6,49.4,1.8c58.8,12.3,103.4,44.2,129.2,99.2
	c37.4,79.9,9.3,174.7-65.5,223.8c-34.7,22.8-72.9,33-114.3,30c-45.2-3.3-84.2-21-115.9-53.7c-27.6-28.4-43.5-62.6-47.9-102
	c-2.5-21.9-0.7-43.5,4.9-64.8c0.3-1,0.8-2,0.4-3.5c-1.7-0.6-3.7-0.3-5.6-0.3c-55.4,0.1-110.8,0.3-166.2,0.5c-2.2,0-4.4,0-6.5-0.2
	c-4.4-0.6-7.4-3.9-7.5-8c-0.1-4.2,3.1-7.9,7.6-8.5c2-0.3,4-0.2,6-0.2c57.4-0.2,114.8-0.4,172.2-0.6c0.9,0,1.8-0.1,2.7,0
	c3.1,0.5,4.3-1,5.5-3.8c9.4-21.8,22.6-40.9,39.5-57.5c22.5-22.1,49-37.1,79.2-45.9c1.2-0.3,2.4-0.8,3.7-1c1.8-0.3,2.5-1.3,2.4-3
	c0-1.1,0-2.2,0-3.3c-0.1-24.2-0.2-48.3-0.4-72.5c0-0.9-0.1-1.8,0-2.7c0.2-2.2-1-2.8-2.9-2.7c-1.5,0.1-2.9,0-4.4,0
	c-114.4,0.3-228.9,0.7-343.3,1c-2,0-4,0.1-6,0c-5.8-0.4-9.3-3.8-9.2-8.7c0.1-4.7,3.5-7.9,9-8.3c1.1-0.1,2.2,0,3.3,0
	c124.6-0.4,249.2-0.8,373.8-1.1c5.5,0,4.6-0.1,4.6-4.7c0-7.6,0-15.3,0-22.9c0-4.3,0-4.2-4.5-4.3c-35.8-0.2-71.6-0.5-107.3-0.6
	c-90.3-0.4-180.5-0.8-270.8-1.1c-1.6,0-3.3,0-4.9-0.1c-5.4-0.4-8.7-3.8-8.6-8.6c0.1-4.6,3.4-7.9,8.5-8.1c5.8-0.2,11.6-0.1,17.4-0.1
	c1.3,0,2.5-0.1,3.8,0c1.9,0.1,2.5-0.9,2.5-2.6c0-1.3,0-2.5,0-3.8c0.1-26.3,0.3-52.7,0.1-79c-0.1-22.5,8.1-41.4,23.6-57.3
	c15.3-15.7,33.9-26.1,54.5-32.9c43.7-14.4,87.4-14.6,130.7,1.5c20.4,7.5,38.3,19,51.6,36.7c1.5,2.1,3.2,2.4,5.5,2.5
	c11.6,0.2,23.2-0.1,34.8,0.6c10.6,0.7,19.1,5.2,25.7,13.5c4.1,5.2,5.5,11.4,5.5,17.9c0,32.5,0,65,0.1,97.5c0,0.9,0,1.8,0,2.7
	c0.1,4,0.1,4,4.3,4c9.8,0,19.6,0,29.4,0.1c2.3,0,4.7,0.2,7,0.6c5,0.8,7.6,3.6,7.9,8.8c0.2,3.1,0.1,6.2,0.1,9.3
	c0,12.3,0,24.7,0.1,37.1c0,6.8-2.8,10.1-9.5,10.8c-3.8,0.4-7.6,0.5-11.4,0.7c-4,0.2-4.1,0.2-4.1,4.3c0,20.9,0.1,41.8,0.1,62.7
	C807.4,641.8,807.4,645.6,807.4,649.8z M587.8,502.7c0,0.2,0,0.4,0,0.6c21.6,0,43.2,0,64.8,0c4.7,0,4.8,0,4.7-4.8
	c-0.2-13.6-0.5-27.2-0.7-40.9c0-2-0.1-4,0.2-6c0.7-4.1,3.9-6.8,7.9-6.9c4-0.1,7.4,2.5,8.3,6.5c0.4,1.8,0.3,3.6,0.4,5.4
	c0.3,14.4,0.7,28.7,0.9,43c0,2.8,0.7,3.9,3.7,3.8c6.9-0.2,13.8,0,20.7,0c3.5,0,6.9,0,10.3,0c1.9,0,2.7-0.7,2.5-2.5
	c-0.1-1.3-0.1-2.5-0.1-3.8c-0.6-30.3-1.1-60.7-1.8-91c-0.1-3-0.5-6.1-1.2-9.1c-3.3-14.2-11.2-25.4-22.2-34.7
	c-10.8-9.1-23.2-15.5-36.5-20c-29-9.9-58.7-11.3-88.7-6.2c-20.9,3.5-40.7,10.5-58.4,22.5c-9.7,6.6-18,14.5-24.7,24.3
	c-7.5,11-9.3,23.5-9.4,36.3c-0.3,26.5-0.1,53-0.2,79.6c0,2.8,0.8,3.8,3.7,3.7c8.4-0.1,16.7,0,25.1,0c4.8,0,4.7,0.4,4.6-4.8
	c-0.2-14-0.4-28-0.5-42c0-2-0.2-4,0.5-5.9c1.3-3.8,4.5-6.1,8.1-6.1c3.7,0.1,6.7,2.6,7.9,6.4c0.6,2,0.5,4,0.6,5.9
	c0.1,10.2,0.2,20.3,0.3,30.5c0,4.4,0.1,8.7,0,13.1c0,2,0.6,3.1,2.8,2.9c1.1-0.1,2.2,0,3.3,0C545.6,502.7,566.7,502.7,587.8,502.7z
	 M995.5,833.2c0-30.6-4.7-53.2-12.8-71.9c-28.8-66.3-97.8-104.3-170-94.7c-38.7,5.1-72.2,21.7-99,50.2c-38.5,41-53.5,89.7-42.2,145
	c14.7,72,77.8,124,154.2,125.7c26.2,0.6,51.4-4.5,74.8-16.2C961.2,940.8,992.4,891.2,995.5,833.2z M724.4,384.6
	c1.3,5.8,2,11,2.2,16.2c0.5,22.9,0.9,45.8,1.3,68.6c0.2,10.4,0.6,20.7,0.8,31c0,2.3,0.7,3.2,3.1,3.2c10.7-0.1,21.4,0,32.2,0.1
	c2.1,0,3-0.8,2.8-2.9c-0.1-1.1,0-2.2,0-3.3c-0.1-31.1-0.2-62.1-0.4-93.2c0-2.5-0.2-5.1-0.2-7.6c0.1-5.3-2.9-8.4-7.4-10.3
	c-1.3-0.6-2.8-0.9-4.2-1.1C744.6,384.4,734.7,385.1,724.4,384.6z"/>
<path class="st1" d="M149,425.1c2,0.8,3.4,0.5,4.9,0.5c47.6-0.5,95.2-1,142.8-1.7c11.1-0.2,21.2,2,30.1,9c6.1,4.8,9.2,11,9.8,18.7
	c0.1,1.1,0.1,2.2,0.1,3.3c0.3,69,0.5,138.1,0.8,207.1c0,7.3-0.6,14.5-3.7,21.3c1.5,1.5,3.2,1,4.7,1c12.9,0.1,25.8,0.1,38.7,0.2
	c1.5,0,2.9,0,4.4,0.1c4.7,0.5,7.9,3.9,7.9,8.2c0,4.1-3,7.5-7.2,8.3c-1.6,0.3-3.6-0.6-4.7,0.7c-1.4,1.6-0.6,3.8-0.6,5.8
	c-0.1,36.9-0.1,73.8-0.2,110.6c0,2,0,4-0.4,6c-0.9,4.1-4.3,6.7-8.2,6.7c-4,0-7-2.6-8.1-6.8c-0.5-2.2-0.4-4.3-0.4-6.5
	c0.1-36.3,0.2-72.7,0.4-109c0-1.3-0.1-2.6,0-3.8c0.4-2.9-1-3.7-3.7-3.6c-14,0.1-28,0-42,0c-5.1,0-5.2,0.2-5.1,5.2
	c0.3,36.7,0.6,73.4,0.9,110.1c0,2,0.1,4-0.1,6c-0.5,4.7-3.9,7.9-8.1,8.1c-4.2,0.2-7.7-2.9-8.5-7.6c-0.3-1.8-0.3-3.6-0.3-5.4
	c-0.3-36.9-0.5-73.8-0.9-110.6c0-6.6,0.7-5.8-5.8-5.8c-20.2,0-40.3,0-60.5,0c-3.9,0-4,0.1-4,3.8c0,34.3,0,68.7,0,103
	c0,0.9-0.1,1.8,0.6,2.7c9,0,18,0,27.1,0c2,0,4,0,6,0.4c4.5,0.9,7,4.2,6.9,8.5c-0.1,4-2.8,7.1-7,7.9c-1.4,0.3-2.9,0.2-4.3,0.2
	c-26.7,0.1-53.4,0.3-80.1,0.4c-1.8,0-3.6,0-5.4-0.2c-4.1-0.7-6.9-3.8-7-7.8c-0.2-4.2,2.6-7.8,6.8-8.6c1.6-0.3,3.2-0.2,4.9-0.2
	c10.2,0,20.3,0,30.5-0.1c3.9,0,4-0.1,4-3.8c0-34.2,0-68.3,0-102.5c0-3.5-0.1-3.6-4.1-3.6c-28,0-55.9-0.1-83.9-0.1
	c-17.9,0-31.7-13.4-32.2-31.4c-0.2-8-0.4-16-0.4-24c0.2-63.4,0.4-126.8,0.6-190.2c0-2.9,0.3-5.8,0.9-8.6c2.3-10.6,9-16.6,19.3-19.1
	c5.3-1.3,10.8-1.8,16.2-1.4c4.9,0.4,7.7-1,10.3-5.5c6.7-11.7,16.7-20.5,28-27.8c17.8-11.6,37.4-18.4,58.2-21.9
	c33.1-5.5,65.9-3.6,97.8,7.3c19.5,6.7,37.1,16.4,51.6,31.4c7.3,7.6,12.6,16.4,16,26.3c2,5.9,2.5,12.1,2.5,18.3
	c-0.3,17.8,0.5,35.6,0.8,53.4c0.6,31.2,1.1,62.5,1.7,93.7c0.1,7.2-0.5,5.9,6.3,6c6.4,0,12.7,0.1,19.1-0.2
	c10.7-0.4,24.9,8.9,26.8,21.3c0.5,3.2,1.1,6.4,1.1,9.7c-0.1,59.4-0.3,118.8-0.4,178.2c0,2,0.1,4-0.4,6c-1.1,4.1-4.3,6.8-8.1,6.8
	c-3.9,0-7.1-2.7-8.2-6.8c-0.6-2.3-0.4-4.7-0.4-7c0.2-58.9,0.4-117.7,0.6-176.6c0-2,0.1-4-0.1-6c-0.6-6.2-3.5-8.7-9.6-8.6
	c-10.4,0.1-20.7,0.3-31.1,0.5c-0.4,0-0.7,0-1.1,0c-7.7,0.1-11-3.1-11.2-10.7c-0.4-16-0.7-32-1-48c-0.8-39.8-1.5-79.6-2.2-119.3
	c-0.1-4-1.4-7.4-3.1-10.9c-5.1-10.1-12.8-18-21.9-24.6c-14.6-10.6-31-17.3-48.5-21.3c-33.9-7.8-67.4-6.7-100.3,4.7
	c-12.8,4.4-24.6,10.6-35,19.5C155.6,417.3,152.2,420.7,149,425.1z M320.2,561.1c-0.2,0-0.4,0-0.6,0c0-35.6-0.1-71.2,0.1-106.8
	c0-6.4-3.9-10.5-9-12c-3.9-1.2-7.8-1.6-11.8-1.5c-60.3,0.8-120.5,1.5-180.8,2.2c-2.5,0-5.1,0.1-7.6,0.4c-6.2,0.7-8.5,3.3-8.5,9.7
	c-0.3,68.6-0.6,137.3-0.8,205.9c0,3.6,0.3,7.2,0.9,10.8c1.7,10.4,5.8,13.9,16.5,13.9c61.4,0.1,122.7,0.2,184.1,0.3
	c1.3,0,2.5,0,3.8,0c6.6-0.3,13.1-6.4,13.9-13c0.5-3.7-0.2-7.2-0.2-10.9C320.2,627.2,320.2,594.2,320.2,561.1z"/>
<path class="st2" d="M658.4,211.3c-0.2,18.8-6.1,36.9-19.1,52.4c-23.2,27.6-61.7,32.7-91.1,11.9c-19.3-13.6-30.1-32.6-33.9-55.6
	c-3.6-21.4,0.3-41.6,12-60c10.9-17,26.1-28,46.2-31.7c18-3.3,34.7,0.7,49.7,10.9c19.2,13,30.1,31.5,34.7,54
	C658,198.8,658.3,204.4,658.4,211.3z M530.1,202.1c0,19.1,4.2,33,13.2,45.2c10.4,14.2,24.1,23.3,42,23.9c22.2,0.8,38-10.4,48.3-29.4
	c7.5-13.7,9.5-28.5,6.8-43.9c-3.6-20.1-13.3-36.4-31.3-46.9c-19.6-11.4-43.5-8.4-59.8,7.4C535.9,171.4,530.2,187.6,530.1,202.1z"/>
<path class="st2" d="M326,272.1c-0.2,19.2-6.1,37.3-19.2,52.8c-23.2,27.5-61.7,32.6-91.1,11.8c-19.2-13.6-30-32.7-33.9-55.7
	c-3.5-21.2,0.3-41.3,11.8-59.5c11-17.4,26.6-28.6,47.1-32.2c17.6-3.1,34,0.9,48.7,10.8c19.4,13,30.4,31.6,35,54.3
	C325.6,259.9,325.9,265.5,326,272.1z M197.7,266.8c-0.1,15.2,4.2,29,13,41.4c8.7,12.1,20.1,20.6,34.9,23.3
	c21.8,3.9,38.9-4.2,51.5-21.8c11.5-16.1,14.4-34.3,10.4-53.5c-3.7-18-12.8-32.7-28.5-42.7c-20.5-13.1-45.8-10.2-62.9,7
	C203.3,233.2,197.9,249,197.7,266.8z"/>
<path class="st3" d="M72.9,518.6l14.7,14.7c3.5,3.5,9.1,3.5,12.6,0l14.7-14.7c3.5-3.5,3.5-9.1,0-12.6l-14.7-14.7
	c-3.5-3.5-9.1-3.5-12.6,0L72.9,506C69.4,509.5,69.4,515.1,72.9,518.6z"/>
<path class="st3" d="M72.9,561.4l14.7,14.7c3.5,3.5,9.1,3.5,12.6,0l14.7-14.7c3.5-3.5,3.5-9.1,0-12.6l-14.7-14.7
	c-3.5-3.5-9.1-3.5-12.6,0l-14.7,14.7C69.4,552.3,69.4,557.9,72.9,561.4z"/>
<path class="st4" d="M703.2,966.1l17.3,17.3c2.5,2.5,6.6,2.5,9.1,0l17.3-17.3c2.5-2.5,2.5-6.6,0-9.1l-17.3-17.3
	c-2.5-2.5-6.6-2.5-9.1,0L703.2,957C700.6,959.5,700.6,963.6,703.2,966.1z"/>
<path class="st4" d="M970.7,818.4c0.2,34.9-10.3,63.3-29.7,88.5c-10.7,14-24.2,24.9-39.4,33.9c-15,8.8-31.1,14.5-48.5,16.9
	c-8,1.1-16,2.4-24,2c-23.6-1.2-45.9-6.9-66.4-19.2c-9.8-5.9-19-12.7-27-20.8c-13.6-13.8-23.8-29.7-30.4-48.1
	c-4.2-11.5-6.6-23.1-7.8-35.3c-2.9-29.8,4.5-57,19.6-82.5c10.4-17.7,24.5-32,41.5-43.4c16.3-11,34.4-18.1,53.8-21.5
	c10.1-1.8,20.4-2.8,30.6-2c15.8,1.2,31,4.6,45.8,10.7c12.6,5.3,24,12.1,34.2,20.9c12.4,10.7,23.2,22.9,31,37.6
	c7,13.3,12.3,27.1,14.8,41.9C970.1,805.9,971,813.5,970.7,818.4z M834.2,704.6c-5.6-0.5-12.8,0.1-19.8,1.5
	c-19.9,4-38.2,11.4-54.1,24.4c-9.3,7.8-17.8,16.3-24.9,26.3c-5.1,7.1-9,14.7-12.3,22.7c-4.7,11.5-8,23.3-8.7,35.6
	c-0.5,8.5-0.5,17.1,0.7,25.9c2.3,16.8,7.9,32.3,16.9,46.6c6.4,10.1,14,19.2,23.3,27c10.1,8.5,21.4,15.1,33.6,19.8
	c14.5,5.6,29.6,8.2,45.2,7.9c11.6-0.1,22.7-2.1,33.9-5.4c17.2-5.2,32.3-14.1,45.6-26c12.9-11.5,22.6-25.4,29.7-41.3
	c7.1-15.7,9.5-32.2,10.5-49.1c0.2-3.3-1.2-6.5-1.1-9.8c0.2-4.8-0.9-9.4-1.9-14.1c-2.5-11.8-7-22.7-12.7-33.3
	c-6.9-12.7-16.2-23.4-27.2-32.2C889.3,713.5,864.3,703.9,834.2,704.6z"/>
<path class="st4" d="M933.1,788.7c-0.1,6.1-2.1,11.5-6.6,15.8c-31,30.9-61.9,62.1-93.1,92.8c-6.4,6.3-13,12.4-21,16.8
	c-7.6,4.3-14.6,3.9-21.5-1.1c-2.6-1.9-5.4-3.9-7.7-6.2c-15.6-16.1-31.4-32-47-48.2c-4.2-4.4-7.7-9.3-10.9-14.5
	c-4.4-7.3-3.7-15.6,2.4-22.2c7-7.5,14.3-14.8,21.9-21.8c4-3.7,9-5.8,14.3-6.9c4.6-0.9,8.6,1.5,12.3,4c3.4,2.4,6.6,5.2,9.5,8.3
	c4.8,4.9,9.6,9.6,14.4,14.4c3.9,3.8,4.1,3.8,7.9-0.1c16.6-16.6,33.5-33.3,50-50c7-7.1,14.4-13.6,21.7-20.4
	c7.9-7.4,18.7-7.2,26.2,0.5c7.2,7.4,15.2,14,21.2,22.4C930.7,777.3,933.3,782.5,933.1,788.7z M916.5,787.9c0.2-3.1-1.2-5.5-3.2-7.5
	c-5-5-9.8-9.9-14.8-14.9c-6-6-7.3-6-13.5-0.1c-0.9,0.9-2,1.7-2.7,2.7c-2.6,4.1-6.4,7.1-9.6,10.5c-16.7,17.4-34.6,33.7-50.7,51.6
	c-7.1,7.9-15,15.2-22.6,22.7c-1,1-2.1,2.1-3.3,2.8c-3.7,2.1-8.6,1.3-11.1-1.7c-2.3-2.8-2.5-7.6-0.1-10.7c1.3-1.7,2.9-3.3,4.7-4.8
	c2.2-1.9,2-3.4,0-5.4c-6.2-6-12.3-12.2-18.5-18.3c-4.6-4.5-8.3-4.6-13.6-0.7c-5.6,4.1-10,9.1-14.9,13.9c-1,1-1.6,2.4-2.5,3.5
	c-1.6,2.2-1.3,4.4,0.3,6.6c3.1,4.1,6.1,8.3,9.7,12c13.1,13.2,26.3,26.4,39.4,39.4c1.5,1.5,3,3.3,4.8,4.7c2.4,1.8,5.2,4.1,8.5,3.2
	c4.7-1.1,8.9-3,12.7-6.3c4.8-4.1,8.8-8.7,13.2-13.2c27.1-27.4,54.4-54.5,81.6-81.7c1.2-1.2,2.3-2.5,3.7-3.2
	C916.2,792,916.7,790,916.5,787.9z"/>
<path class="st4" d="M834.6,870.8l17.5,17.5c2.5,2.5,6.7,2.5,9.2,0l17.5-17.5c2.5-2.5,2.5-6.7,0-9.2L861.4,844
	c-2.5-2.5-6.7-2.5-9.2,0l-17.5,17.4C832.1,864.1,832.1,868.1,834.6,870.8z"/>
<circle class="st5" cx="831.7" cy="826.4" r="171"/>
</svg>
