<?xml version="1.0" encoding="utf-8"?>
<!-- Generator: Adobe Illustrator 28.0.0, SVG Export Plug-In . SVG Version: 6.00 Build 0)  -->
<svg version="1.1" id="Capa_1" xmlns="http://www.w3.org/2000/svg" xmlns:xlink="http://www.w3.org/1999/xlink" x="0px" y="0px"
	 viewBox="0 0 1080 1080" style="enable-background:new 0 0 1080 1080;" xml:space="preserve">
<style type="text/css">
	.st0{fill:#0C0C0C;}
	.st1{fill:#FFFFFF;}
	.st2{fill:#FF5500;}
	.st3{fill:#6EE1EB;}
	.st4{fill:none;stroke:#FF5500;stroke-width:20;stroke-miterlimit:10;}
</style>
<path class="st0" d="M754.1,635.1c5.7-0.8,11.3-1.7,17-2.5c12.5-1.7,25-1.8,37.5-0.7c44.4,4,82.4,21.9,113.4,53.9
	c27.6,28.5,43.3,62.7,47.6,102.2c7.8,71.2-29.4,141.1-93.2,176.2c-31.7,17.4-65.7,25.2-101.7,22.6c-45.8-3.4-85.1-21.5-117.1-54.6
	c-15.7-16.2-27.5-35.1-35.9-56c-1.8-4.6-1.8-4.6-7-4.6c-99.5-0.4-199.1-0.8-298.6-1.2c-19.3-0.1-38.5-0.3-57.8-0.2
	c-26.6,0.2-45.9-18.5-52.5-36.5c-1.8-5-2.6-10.2-2.6-15.5c0-135,0-269.9,0-404.9c0-108.3,0-216.5,0-324.8c0-6.4,1.1-12.6,2.3-18.9
	c0.6-3.4,2.3-6.5,4.3-9.4c7.3-10.8,17.5-17.1,30.2-19.6c4.6-0.9,9.4-1.2,14.1-1.2c87-0.7,174-1.3,261-2c60.5-0.5,121-0.8,181.4-1.5
	c18-0.2,33.6,5,46.2,18.1c6.8,7.1,10.7,15.6,10.7,25.5c-0.5,116.2,0.1,232.5,0,348.7c0,67,0.1,134,0.2,201.1
	C753.7,631.2,753.4,633,754.1,635.1z M220.5,394.2c0,102.4,0,204.9,0,307.3c0,1.6,0,3.3,0,4.9c0,1.3,0.6,2,2,2c1.1,0,2.2,0,3.3,0
	c137.5,0,275-0.1,412.5,0c3.4,0,5.6-0.9,7.7-3.7c11.6-15.8,25.7-29.1,41.7-40.4c13.9-9.8,29-17.1,45-22.8c2.9-1,4.8-2.3,4.1-5.7
	c-0.1-0.7,0-1.4,0-2.2c-0.1-182.7-0.3-365.5-0.4-548.2c0-1.8,0.2-3.7-0.1-5.4c-0.6-4.8-1.2-9.8-4.8-13.6c-7.7-8-17-13-28.3-13.3
	c-7.1-0.2-14.2-0.2-21.2-0.2C540,54,398.1,55.1,256.3,56.2c-4.7,0-9.4,0.5-14.1,1.2c-9.1,1.4-18.8,11.2-20.7,20.3
	c-1.2,5.9-1.1,11.9-1.1,17.9C220.4,195.1,220.5,294.6,220.5,394.2z M632.1,725.4c-2.5,0-4.5,0-6.4,0c-94.6,0-189.2,0-283.8,0
	c-38.7,0-77.3,0-116,0c-6.1,0-5.4-0.9-5.4,5.6c0,19.4,0,38.9,0,58.3c0,9.8,0,19.6,0,29.4c0,3.6-0.1,7.4,1.9,10.6
	c8.6,14.2,20.4,23.6,37.7,23.7c115.7,0.6,231.3,1.2,347,1.7c1.6,0,3.3-0.1,4.9,0.1c2.4,0.2,2.8-1,2.3-3c-0.2-0.9-0.4-1.8-0.6-2.7
	c-2.3-11-3.7-22.2-3.9-33.5c-0.4-23.5,3.6-46.2,12.1-68.1C624.8,740.2,628.2,733.1,632.1,725.4z M954.3,811.1
	c-1.3-54.2-20.2-95.7-59.2-127.2c-52-42.1-124.6-47.5-183.9-14.4c-23.7,13.3-43.4,31.1-58,54c-28.9,45.5-35.1,94-16.3,144.7
	c22,59.3,79,100.8,147.3,102.3c26.2,0.6,51.4-4.5,74.8-16.2C919.6,923.8,950.8,874.2,954.3,811.1z"/>
<path class="st1" d="M220.5,394.2c0-99.5,0-199.1,0-298.6c0-6-0.2-12,1.1-17.9c1.9-9.1,11.6-18.8,20.7-20.3
	c4.7-0.7,9.3-1.2,14.1-1.2C398.1,55.1,540,54,681.9,53c7.1-0.1,14.2-0.1,21.2,0.2c11.3,0.3,20.6,5.3,28.3,13.3
	c3.6,3.8,4.2,8.7,4.8,13.6c0.2,1.8,0.1,3.6,0.1,5.4c0.1,182.7,0.3,365.5,0.4,548.2c0,0.7-0.1,1.5,0,2.2c0.6,3.4-1.2,4.6-4.1,5.7
	c-16,5.7-31.1,13-45,22.8c-16,11.3-30.1,24.6-41.7,40.4c-2.1,2.8-4.3,3.7-7.7,3.7c-137.5-0.1-275,0-412.5,0c-1.1,0-2.2,0-3.3,0
	c-1.3,0-2-0.6-2-2c0-1.6,0-3.3,0-4.9C220.5,599.1,220.5,496.6,220.5,394.2z M481.5,586.6C481.5,586.6,481.5,586.6,481.5,586.6
	c40.7-0.7,81.3-1.3,122-1.9c5.1-0.1,10.2-0.1,15.2-0.3c4.4-0.1,7.5-2.1,8.7-6.7c0.7-2.6,1.7-5.2,2-7.9c2.3-18.4-1-35.8-9.4-52.2
	c-11.2-22.1-28.4-38.5-49.8-50.4c-45-25.1-92.6-29.9-142.1-17c-25.7,6.7-48.6,18.9-67.2,38.3c-18.7,19.4-29,42.3-28,69.7
	c0.3,8,1.8,15.9,2.9,23.7c0.6,4.4,3.2,6.5,7.9,6.7c3.3,0.2,6.5-0.1,9.8-0.2C396.1,587.9,438.8,587.3,481.5,586.6z M560.3,327.2
	c-0.1-2.3-0.3-5.4-0.5-8.5c-0.1-1.1-0.2-2.2-0.3-3.2c-4.5-26.4-17.6-47.1-40.4-61.7c-32.3-20.6-75.9-14.9-101.8,13.6
	c-28.6,31.5-29.3,80.3-1.2,113.1c21.5,25,49,35.3,81.5,28.1C534.8,400.4,560.3,366.9,560.3,327.2z M483.5,106.1c0-0.3,0-0.6,0-0.9
	c-7.1,0-14.2,0.2-21.2-0.1c-5.3-0.2-10,2.8-10.3,8.1c-0.3,5.1,3.6,8.6,10.2,8.7c14.5,0.3,29,0.5,43.5,0.8c1.3,0,2.6,0,3.8-0.3
	c3.9-0.9,6.7-4.4,6.6-8.3c-0.1-3.9-3-7.2-7-7.9c-1.1-0.2-2.2-0.2-3.3-0.2C498.4,106.1,491,106.1,483.5,106.1z M690.6,114.8
	c0-7.4-5.4-12.4-13.4-12.4c-7,0-11.7,4.3-11.8,10.7c0,7.7,5.8,13.7,13.2,13.6C685.6,126.6,690.5,121.7,690.6,114.8z"/>
<path class="st1" d="M632.1,725.4c-3.9,7.7-7.3,14.8-10.2,22.2c-8.6,21.9-12.5,44.6-12.1,68.1c0.2,11.3,1.6,22.4,3.9,33.5
	c0.2,0.9,0.4,1.8,0.6,2.7c0.5,2,0,3.2-2.3,3c-1.6-0.1-3.3,0-4.9-0.1c-115.7-0.6-231.3-1.1-347-1.7c-17.3-0.1-29.2-9.5-37.7-23.7
	c-1.9-3.2-1.9-7-1.9-10.6c0-9.8,0-19.6,0-29.4c0-19.4,0-38.9,0-58.3c0-6.4-0.7-5.6,5.4-5.6c38.7,0,77.3,0,116,0
	c94.6,0,189.2,0,283.8,0C627.6,725.4,629.5,725.4,632.1,725.4z M483.2,796.5c0,0.2,0,0.4,0,0.6c18.3,0,36.6,0,55,0
	c2.4,0,4.7,0.1,7-0.9c3.3-1.3,5.2-4.1,5.2-7.6c0-3.4-1.9-6.3-5.1-7.7c-2.2-1-4.6-0.9-7-0.9c-36.3-0.1-72.6-0.2-108.8-0.3
	c-1.4,0-2.9-0.1-4.3,0.1c-4.6,0.6-7.7,4.1-7.6,8.4c0.1,4.2,3.1,7.4,7.4,8c1.6,0.2,3.3,0.2,4.9,0.2
	C447.7,796.5,465.4,796.5,483.2,796.5z"/>
<path class="st0" d="M481.5,586.6c-42.7,0.7-85.3,1.3-128,2c-3.3,0.1-6.5,0.3-9.8,0.2c-4.7-0.2-7.3-2.3-7.9-6.7
	c-1.1-7.9-2.6-15.7-2.9-23.7c-1-27.4,9.4-50.3,28-69.7c18.6-19.4,41.5-31.5,67.2-38.3c49.5-13,97.2-8.1,142.1,17
	c21.3,11.9,38.5,28.4,49.8,50.4c8.4,16.4,11.6,33.8,9.4,52.2c-0.3,2.7-1.3,5.3-2,7.9c-1.2,4.6-4.3,6.6-8.7,6.7
	c-5.1,0.2-10.2,0.2-15.2,0.3C562.8,585.4,522.1,586,481.5,586.6C481.5,586.6,481.5,586.6,481.5,586.6z M481.8,571.9
	C481.8,571.9,481.8,571.9,481.8,571.9c29.6-0.4,59.2-0.9,88.8-1.3c13.3-0.2,26.5-0.5,39.8-0.8c4.5-0.1,4.5-0.1,4.8-4.5
	c1-13.7-1.3-26.7-7.2-39.1c-8.3-17.3-21.2-30.7-37-41.3c-22.5-15.1-47.5-23.2-74.3-25.7c-31.9-3.1-62.6,1.2-91.6,15.4
	c-18.4,9-34.2,21.4-45.3,38.9c-11.2,17.6-15.2,36.7-10.5,57.3c0.5,2.4,1.5,3.5,4,3.2c1.1-0.1,2.2-0.1,3.3-0.1
	C398.3,573.2,440,572.6,481.8,571.9z"/>
<path class="st0" d="M560.3,327.2c0,39.7-25.5,73.1-62.7,81.4c-32.5,7.2-59.9-3.1-81.5-28.1c-28.2-32.7-27.4-81.6,1.2-113.1
	c25.9-28.5,69.4-34.2,101.8-13.6c22.8,14.6,35.8,35.3,40.4,61.7c0.2,1.1,0.3,2.2,0.3,3.2C560,321.8,560.1,324.9,560.3,327.2z
	 M410.2,329.2c0.3,17.2,8.6,35.9,25.5,50.5c32.7,28.2,81.3,19.2,101.8-18.7c14.7-27.2,9.2-62.5-13.5-84.7
	c-16.8-16.5-37.1-23.3-60.3-18.9C431.9,263.5,410.2,291,410.2,329.2z"/>
<path class="st0" d="M483.5,106.1c7.4,0,14.9,0,22.3,0c1.1,0,2.2,0,3.3,0.2c4,0.8,6.9,4,7,7.9c0.1,3.9-2.6,7.4-6.6,8.3
	c-1.2,0.3-2.5,0.3-3.8,0.3c-14.5-0.2-29-0.4-43.5-0.8c-6.6-0.2-10.5-3.6-10.2-8.7c0.3-5.3,5-8.3,10.3-8.1c7.1,0.3,14.2,0.1,21.2,0.1
	C483.5,105.5,483.5,105.8,483.5,106.1z"/>
<path class="st0" d="M690.6,114.8c0,7-5,11.8-12.1,11.9c-7.4,0.1-13.2-6-13.2-13.6c0-6.4,4.8-10.7,11.8-10.7
	C685.1,102.3,690.6,107.4,690.6,114.8z"/>
<path class="st0" d="M483.2,796.5c-17.8,0-35.6,0-53.3,0c-1.6,0-3.3,0-4.9-0.2c-4.4-0.6-7.3-3.9-7.4-8c-0.1-4.4,3-7.8,7.6-8.4
	c1.4-0.2,2.9-0.1,4.3-0.1c36.3,0.1,72.6,0.2,108.8,0.3c2.4,0,4.7,0,7,0.9c3.2,1.4,5.1,4.3,5.1,7.7c0,3.4-2,6.2-5.2,7.6
	c-2.2,0.9-4.6,0.9-7,0.9c-18.3,0-36.6,0-55,0C483.2,796.9,483.2,796.7,483.2,796.5z"/>
<path class="st2" d="M791.8,944.3c-66.1-0.1-121.2-46-132.6-109.2c-11.2-61.8,23.5-125,81.9-148.8c39.6-16.2,78.9-14.9,116.6,5.3
	c36.6,19.7,59.3,50.7,67.2,91.6C938.9,856,890.5,927.9,814.5,942C806.5,943.5,798.3,944.1,791.8,944.3z M674,811.5
	c0,30.2,11.7,59.3,32.2,80.3c37.7,38.5,95.8,46.6,143.3,19.9c54-30.4,75.8-96.4,50.3-152.4c-22.1-48.5-75.7-75.2-129.6-64.6
	C714.6,705.8,674,755,674,811.5z"/>
<path class="st1" d="M481.8,571.9c-41.8,0.7-83.5,1.3-125.3,2c-1.1,0-2.2-0.1-3.3,0.1c-2.5,0.3-3.4-0.8-4-3.2
	c-4.7-20.6-0.7-39.7,10.5-57.3c11.1-17.5,26.8-29.8,45.3-38.9c29-14.2,59.7-18.5,91.6-15.4c26.8,2.6,51.8,10.7,74.3,25.7
	c15.8,10.6,28.6,23.9,37,41.3c6,12.4,8.3,25.5,7.2,39.1c-0.3,4.4-0.4,4.4-4.8,4.5c-13.3,0.3-26.5,0.6-39.8,0.8
	C541,571,511.4,571.5,481.8,571.9C481.8,571.9,481.8,571.9,481.8,571.9z"/>
<path class="st1" d="M410.2,329.2c0-38.2,21.7-65.7,53.6-71.8c23.2-4.5,43.5,2.4,60.3,18.9c22.7,22.3,28.1,57.5,13.5,84.7
	c-20.5,37.9-69.1,46.9-101.8,18.7C418.8,365.1,410.5,346.4,410.2,329.2z"/>
<path class="st2" d="M793.1,859.5c-2.8,1.2-4,3.1-5.5,4.6c-7.7,7.7-15.3,15.5-22.9,23.3c-0.3,0.3-0.5,0.5-0.8,0.8
	c-7.4,6.5-13.5,7-20.7,0.3c-10.5-9.7-20.7-19.9-30.8-30.1c-4.2-4.3-4.6-8.7-1.9-14c2-3.9,4.6-7.4,7.7-10.5
	c7.2-7.4,14.5-14.8,21.6-22.3c2.6-2.7,2.6-2.8-0.1-5.5C731.5,798,723,790,715,781.6c-8.1-8.4-7.9-14.8,0.1-23.2
	c9.1-9.4,18.3-18.7,27.5-28c5.8-5.8,9.9-6.3,17.1-2.2c3.3,1.9,6.3,4.3,9,7c7,6.9,14,13.7,21,20.5c2.9,2.8,2.7,3.8,6.3,0.1
	c7.2-7.4,14.5-14.8,21.7-22.2c2.5-2.6,5.2-5.1,8.1-7.3c4.6-3.5,9.3-3.5,14.2-0.7c2.2,1.3,4.2,2.8,6,4.6c8.9,8.8,17.8,17.6,26.7,26.5
	c6.4,6.4,6.8,10.6,2.1,18.4c-1.9,3.1-4.2,5.9-6.8,8.5c-7.5,7.6-15,15.3-22.5,22.9c-2.8,2.9-2.8,2.9,0.1,5.9
	c8.3,8.4,16.7,16.6,25,25.1c6.8,7,9.9,13-0.6,23.9c-8.8,9.2-17.9,18-27,26.9c-6,5.9-10.4,6.4-17.5,2.1c-3.5-2.1-6.5-4.6-9.3-7.5
	C808.5,875.2,800.7,867.3,793.1,859.5z M856.3,848.9c-0.2-1.6-1.3-3.1-2.5-4.4c-2.5-2.6-5.1-5.2-7.7-7.7
	c-6.3-6.3-12.7-12.5-18.9-18.8c-4.8-4.9-5-7.7-1.7-13.5c1.7-3,3.9-5.7,6.3-8.1c7-7.1,13.9-14.3,21-21.4c6.7-6.6,6-8.6,0.1-14
	c-5-4.5-9.5-9.5-14.4-14.1c-3.9-3.8-5.6-3.7-9.7,0c-0.9,0.9-1.8,1.8-2.7,2.7c-7.6,7.8-15.3,15.5-22.9,23.3c-1.8,1.8-3.6,3.7-6.2,4.3
	c-4.9,1.2-9.2,0.8-13.1-3c-8.2-8.2-16.6-16.2-24.9-24.4c-4.4-4.4-7.1-5.2-11.7-0.1c-4.7,5.2-9.9,10.1-14.8,15.2
	c-4.1,4.3-4.2,6.2,0.1,10.5c5.4,5.4,10.9,10.7,16.3,16c3.6,3.6,7.4,7,10.9,10.7c4.1,4.3,4,8.6,0.2,13.1c-0.8,1-1.7,1.8-2.6,2.8
	c-8,8.2-16,16.4-23.9,24.6c-1.1,1.2-2.3,2.3-3.2,3.7c-1.4,2.2-1.6,4.4,0.4,6.4c6.4,6.2,12.7,12.5,19.1,18.7c2,1.9,4.2,2,6.4,0.2
	c1.3-1,2.5-2.1,3.6-3.3c7.8-7.9,15.5-15.9,23.2-23.8c6.6-6.7,10.7-6.9,17.7-0.7c1.4,1.2,2.6,2.5,3.9,3.8
	c7.2,7.2,14.4,14.4,21.6,21.5c1,1,2,2.1,3.2,2.9c2.2,1.3,4.4,1.6,6.5-0.4c6.3-6.3,12.6-12.6,18.9-18.9
	C855.7,851.8,856.3,850.6,856.3,848.9z"/>
<path class="st3" d="M177.7,205.3l22,22c5.2,5.2,13.7,5.2,18.9,0l22-22c5.2-5.2,5.2-13.7,0-18.9l-22-22c-5.2-5.2-13.7-5.2-18.9,0
	l-22,22C172.5,191.6,172.5,200.1,177.7,205.3z"/>
<path class="st3" d="M177.7,269.4l22,22c5.2,5.2,13.7,5.2,18.9,0l22-22c5.2-5.2,5.2-13.7,0-18.9l-22-22c-5.2-5.2-13.7-5.2-18.9,0
	l-22,22C172.5,255.7,172.5,264.2,177.7,269.4z"/>
<path class="st2" d="M664.3,953.3l17.3,17.3c2.5,2.5,6.6,2.5,9.1,0l17.3-17.3c2.5-2.5,2.5-6.6,0-9.1l-17.3-17.3
	c-2.5-2.5-6.6-2.5-9.1,0l-17.3,17.3C661.8,946.7,661.8,950.8,664.3,953.3z"/>
<circle class="st4" cx="790.2" cy="807.5" r="171.5"/>
</svg>
