<?xml version="1.0" encoding="utf-8"?>
<!-- Generator: Adobe Illustrator 28.0.0, SVG Export Plug-In . SVG Version: 6.00 Build 0)  -->
<svg version="1.1" id="Capa_1" xmlns="http://www.w3.org/2000/svg" xmlns:xlink="http://www.w3.org/1999/xlink" x="0px" y="0px"
	 viewBox="0 0 1080 1080" style="enable-background:new 0 0 1080 1080;" xml:space="preserve">
<style type="text/css">
	.st0{fill:#070808;}
	.st1{fill:#FFFFFF;}
	.st2{fill:#FCFCFC;}
	.st3{fill:#FF5500;}
	.st4{fill:#6EE1EB;}
	.st5{fill:none;stroke:#FF5500;stroke-width:19;stroke-miterlimit:10;}
</style>
<path class="st0" d="M626.1,735.9c-9.8,4.7-19.1,9.4-28.7,13.7c-26.5,11.8-52.9,23.8-80.5,33c-16.2,5.4-32.7,9.8-49.8,10.9
	c-18.9,1.2-37.3-2-55.2-7.5c-19.5-5.9-37.9-14.6-56.3-23.1c-14.6-6.8-29.2-13.7-43.8-20.6c-1.4-0.7-2.7-1.9-4.6-1.5
	c-0.1,0.5-0.3,1-0.3,1.5c-1,8.9-5.9,13.2-15,12.4c-8-0.7-15.9-1.6-23.8-2.5c-27.2-3-54.5-6.1-81.8-8.4c-15.9-1.3-31.8-3.3-47.5-6.2
	c-9.5-1.7-13-6.1-13-15.7c-0.5-68.7-1-137.3-1.4-206c0-2.4,0.1-4.7,0.3-7.1c0.7-8.3,5.2-13.8,13.3-15.8c9.2-2.3,18.7-2.4,28.1-3
	c14.7-0.8,29.4-1.1,44.1-1.8c10.2-0.5,17.5,3.6,22.2,12.6c1.3,2.6,2.7,5.2,3.7,7.9c1,2.7,2.4,3.6,5.3,2.8c9.9-2.9,20.1-4.6,30.3-6.7
	c21.4-4.4,42.8-4.9,64.4-1.4c7.9,1.3,15.7,2.6,23.5,4.4c22.8,5.4,43.6,15.7,63.8,27.2c18.6,10.6,37.3,21,55.4,32.4
	c3.6,2.3,6.1,2.2,9.6-0.3c30.4-21.2,61-41.9,91.4-63.2c20.3-14.2,50.4-12.3,67.3-0.3c5,3.6,3.3,3.5,8.3,0.1
	c18.8-12.7,38.5-13.6,59-4.9c3.9,1.6,7.2,4.1,10.4,6.9c1.4,1.2,2.5,1.5,4.3,0.7c18.6-8.9,37-6.6,55.1,1.8c7.1,3.3,13.4,8,18.8,13.7
	c1.4,1.5,2.6,2.1,4.7,1.6c17.9-3.9,33.3,1.6,46.7,13.4c7.7,6.8,13,15.1,15.1,25.3c2,9.4-0.8,17.1-8.3,23.2
	c-17.4,14.3-34.6,28.8-51.9,43.2c-0.8,0.7-1.6,1.4-3.1,2.6c2.6,0.4,4.6,1,6.7,1c13.6,0.2,26.5,4.2,39.1,8.8
	c63.7,23.5,103.7,68.4,116,135.3c10.3,55.7-5.2,105.5-42.3,148.1c-30.3,34.8-69,55.4-114.7,60.9c-58.5,7.1-109.6-9.9-151.4-51.8
	c-28.3-28.3-44.2-62.9-48.7-102.8c-3.5-31.4,1.4-61.5,14-90.4c0.5-1.2,1-2.3,1.4-3.5C626.2,736.9,626.2,736.8,626.1,735.9z
	 M643.9,706.3c-0.6-0.1-1.1-0.3-1.6-0.2c-11.4,1.3-22.8,1.9-34.2,2.3c-24.8,0.8-49.3-2-73.6-6.8c-5.4-1.1-8.2-4.6-7.4-9
	c0.7-4.3,4.4-6.4,10-5.8c14.8,1.5,29.5,3.7,44.4,4.3c25.3,1.1,50.4-0.2,75.5-3.8c3.1-0.4,5.4-1.7,7.5-3.9c6.7-6.7,14-12.7,21.7-18.2
	c16.1-11.5,33.7-19.8,52.5-25.9c1.4-0.4,2.8-0.7,4-1.8c-3.7-2.5-7.9-3.7-12.1-4.9c-13.9-3.7-28.2-5.1-42.5-6.4
	c-33.6-2.9-67.3-6.1-101-8c-13.9-0.8-27.8-2.9-41.5-6c-29.3-6.6-56.3-19.1-81.9-34.4c-18.6-11-37.3-21.8-56.1-32.4
	c-15.2-8.6-30.9-16-48-20.3c-23.9-6-48.1-9.4-72.8-5.9c-9.9,1.4-19.7,3.3-29.5,4.9c-4.6,0.8-9.3,1.6-13.8,2.9
	c-0.2,1.9,0.6,3.3,1.2,4.8c9.1,25.1,16.8,50.6,24.6,76.1c10.9,35.7,23.9,70.8,31.9,107.4c0.5,2.4,1.9,3.6,4,4.7
	c31.7,15.2,63.3,30.8,95.9,44c16.9,6.9,34.5,11.3,52.8,12.3c20.4,1.2,39.6-4.2,58.6-10.5c19.8-6.5,38.9-15,58-23.2
	c23-9.9,45.4-21,68.2-31.3C641.3,710.6,643.2,709.2,643.9,706.3z M954,815c-0.2-32.5-5.2-55.3-15.7-76.9
	c-30.4-62.8-97.8-97.9-167.5-88.5c-38.5,5.2-71.8,21.6-98.5,50c-38.7,41.1-53.7,89.9-42.3,145.5c14.7,71.5,77.4,123.6,153.9,125.4
	c26.2,0.6,51.4-4.4,74.8-16.1C919.6,923.9,950.9,874.1,954,815z M790.1,533.2c-9.6-9.7-23.5-15.5-37.2-15.8
	c-8-0.2-15.6,0.7-21.6,6.8c-0.9,0.9-2,1.5-3.1,2.2c-33.9,24.3-67.9,48.6-101.8,72.9c-1.5,1.1-3.4,1.9-4.6,4c3.5,0.4,6.5,0.8,9.6,1.1
	c18.4,1.6,36.9,3.1,55.3,4.8c2.8,0.3,4.7-0.2,6.9-1.9c30.7-23.6,61.4-47.1,92.1-70.6C787.1,535.7,788.5,534.5,790.1,533.2z
	 M714.6,612.4c4.6,0.8,7.8,1.2,10.9,1.9c12.2,2.4,24.2,5.6,33.6,14.2c4.6,4.3,9.1,5,14.7,3.8c0.9-0.2,1.8-0.3,2.7-0.3
	c1.9,0,3.4-0.7,4.9-2c23-19.2,46-38.3,69-57.4c2.5-2,3.1-4.4,2.5-7.2c-0.4-1.7-0.9-3.5-1.8-5.1c-7.4-14.1-19.6-20.8-35.1-22.1
	c-2.9-0.2-5.3,1-7.5,2.6c-3.1,2.2-6.2,4.4-9.2,6.7c-22.8,17.4-45.5,34.8-68.2,52.2C725.9,603.7,720.7,607.7,714.6,612.4z
	 M554.2,596.8c2.1,0.5,3.1,0.8,4.2,1c9.9,1.5,19.8,2.7,29.7,3.9c3.7,0.4,6.5-0.2,9.5-2.4c36.5-26.3,73.1-52.4,109.7-78.6
	c1.4-1,3.2-1.7,4-3.3c-0.1-1.1-0.8-1.4-1.4-1.7c-7.8-4.4-16.3-5.8-25.1-5.9c-7-0.1-12.7,3-18.3,7.1c-29.1,21-58.5,41.7-87.8,62.5
	C570.7,585,562.9,590.5,554.2,596.8z M501.8,579.2c8.9,3.7,17.8,7.3,26.6,11.1c2.8,1.2,4.8,0.8,7.4-1c32-22.9,64.2-45.7,96.3-68.6
	c1.4-1,3.2-1.7,4-3.4c-0.2-0.4-0.3-0.8-0.6-1c-15.4-6.7-30.4-9.7-45.7,1.1c-27.6,19.5-55.5,38.4-83.3,57.6
	C504.8,576.2,502.8,576.8,501.8,579.2z"/>
<path class="st0" d="M641.8,213.9c0,19.2-0.1,38.5,0,57.7c0,4.3,0.7,8.7,0.8,13c0.7,27-6.4,52.1-18.7,75.8
	c-17.9,34.4-43.2,61.7-77.6,80c-13.2,7-27.2,11.9-42.2,13.5c-19.9,2.1-38.5-2.7-56.3-11.3c-34.4-16.8-59.9-43-78.7-75.9
	c-11.6-20.4-19.1-42.2-21.5-65.7c-0.8-8-0.9-15.9,0-23.9c0.2-1.8,0.3-3.6,0.3-5.4c0.1-37.9,0.2-75.9,0.2-113.8c0-2-0.1-4-0.2-6
	c-0.1-5.8,2.9-9.2,8.8-9.5c6.5-0.4,13.1-0.2,19.6-1.1c34.9-4.9,68.6-13.6,99.7-30.8c3.8-2.1,7.5-4.5,11.1-6.9
	c5.1-3.4,9.9-4.1,15.7-0.9c24.2,13.4,49.8,23.5,76.3,31.4c10,3,20.3,3.8,30.4,5.9c7.8,1.6,15.6,3.3,23.6,3.5
	c5.2,0.1,8.1,3.6,8.4,8.8c0.1,1.6,0,3.3,0,4.9c0,18.9,0,37.8,0,56.6C641.7,213.9,641.7,213.9,641.8,213.9z M485.3,123.4
	c-7.5,4.1-13.7,8.1-20.5,11.2c-24.1,11.1-49.6,17.3-75.5,21.8c-7,1.2-14,2.4-21.1,2.3c-2.2,0-3.4,0.8-3.2,3.2c0.1,0.9,0,1.8,0,2.7
	c-0.1,31.6-0.2,63.2-0.3,94.8c0,6.4-0.6,5.8,5.9,5.8c36.5,0.1,73,0.2,109.5,0.3c1.3,0,2.5,0,3.8,0c1.4,0,2-0.6,1.9-2
	c0-0.9,0-1.8,0-2.7c-0.2-43.9-0.3-87.9-0.5-131.8C485.3,127.5,485.3,125.9,485.3,123.4z M504.3,437c2-0.3,3.8-0.6,5.5-0.9
	c10.2-2.1,19.9-5.6,29-10.6c42.6-23.8,69.9-59.7,83-106.5c2.2-8,3.6-16.2,3.6-24.5c-1.7-1.1-3.4-0.6-5-0.6
	c-37.4,0.2-74.8,0.3-112.3,0.5c-0.9,0-1.8,0.1-2.7,0c-1.9-0.1-2.6,0.8-2.5,2.6c0.1,0.9,0,1.8,0,2.7c0.2,44,0.4,87.9,0.7,131.9
	C503.8,433.1,503.4,434.8,504.3,437z"/>
<path class="st1" d="M643.9,706.3c-0.6,2.9-2.6,4.3-5,5.4c-22.8,10.2-45.2,21.4-68.2,31.3c-19.2,8.2-38.2,16.7-58,23.2
	c-19,6.3-38.2,11.6-58.6,10.5c-18.3-1-35.8-5.5-52.8-12.3c-32.6-13.2-64.2-28.8-95.9-44c-2.1-1-3.5-2.2-4-4.7
	c-8-36.6-21-71.7-31.9-107.4c-7.8-25.5-15.5-51-24.6-76.1c-0.5-1.5-1.4-2.9-1.2-4.8c4.5-1.4,9.2-2.2,13.8-2.9
	c9.8-1.7,19.6-3.5,29.5-4.9c24.7-3.5,48.9-0.1,72.8,5.9c17,4.3,32.8,11.7,48,20.3c18.8,10.6,37.5,21.3,56.1,32.4
	c25.6,15.3,52.6,27.8,81.9,34.4c13.7,3.1,27.5,5.2,41.5,6c33.7,1.9,67.3,5.1,101,8c14.3,1.2,28.6,2.7,42.5,6.4
	c4.2,1.1,8.4,2.3,12.1,4.9c-1.2,1.1-2.6,1.3-4,1.8c-18.8,6-36.4,14.4-52.5,25.9c-7.7,5.5-15,11.5-21.7,18.2
	c-2.1,2.2-4.4,3.4-7.5,3.9c-25.1,3.6-50.2,4.9-75.5,3.8c-14.9-0.7-29.6-2.8-44.4-4.3c-5.6-0.6-9.3,1.5-10,5.8c-0.8,4.4,2,7.9,7.4,9
	c24.3,4.8,48.8,7.6,73.6,6.8c11.4-0.4,22.9-0.9,34.2-2.3C642.8,706.1,643.3,706.2,643.9,706.3z"/>
<path class="st2" d="M790.1,533.2c-1.6,1.3-3,2.5-4.4,3.6c-30.7,23.5-61.4,47-92.1,70.6c-2.2,1.7-4.2,2.2-6.9,1.9
	c-18.4-1.7-36.9-3.2-55.3-4.8c-3.1-0.3-6.1-0.7-9.6-1.1c1.2-2.1,3.1-2.9,4.6-4c33.9-24.3,67.9-48.6,101.8-72.9
	c1-0.7,2.2-1.4,3.1-2.2c6-6.1,13.7-7,21.6-6.8C766.6,517.7,780.5,523.5,790.1,533.2z"/>
<path class="st2" d="M714.6,612.4c6.1-4.7,11.3-8.7,16.4-12.6c22.7-17.4,45.5-34.8,68.2-52.2c3-2.3,6.1-4.5,9.2-6.7
	c2.2-1.6,4.6-2.9,7.5-2.6c15.5,1.3,27.6,8,35.1,22.1c0.8,1.6,1.4,3.3,1.8,5.1c0.6,2.8,0,5.1-2.5,7.2c-23.1,19-46.1,38.2-69,57.4
	c-1.5,1.2-2.9,2-4.9,2c-0.9,0-1.8,0.2-2.7,0.3c-5.5,1.2-10,0.4-14.7-3.8c-9.3-8.6-21.4-11.8-33.6-14.2
	C722.4,613.6,719.2,613.2,714.6,612.4z"/>
<path class="st2" d="M554.2,596.8c8.8-6.2,16.6-11.8,24.4-17.4c29.3-20.8,58.6-41.5,87.8-62.5c5.7-4.1,11.3-7.1,18.3-7.1
	c8.8,0.1,17.3,1.5,25.1,5.9c0.6,0.3,1.3,0.6,1.4,1.7c-0.8,1.6-2.5,2.2-4,3.3c-36.6,26.2-73.2,52.4-109.7,78.6
	c-3,2.2-5.8,2.8-9.5,2.4c-9.9-1.2-19.8-2.4-29.7-3.9C557.3,597.6,556.3,597.3,554.2,596.8z"/>
<path class="st2" d="M501.8,579.2c1-2.3,3-3,4.6-4.1c27.8-19.2,55.7-38.1,83.3-57.6c15.3-10.8,30.3-7.8,45.7-1.1
	c0.2,0.1,0.3,0.6,0.6,1c-0.9,1.6-2.6,2.3-4,3.4c-32.1,22.8-64.2,45.6-96.3,68.6c-2.6,1.8-4.6,2.3-7.4,1
	C519.6,586.5,510.7,582.9,501.8,579.2z"/>
<path class="st2" d="M485.3,123.4c0,2.5,0,4.1,0,5.6c0.2,43.9,0.3,87.9,0.5,131.8c0,0.9,0,1.8,0,2.7c0.1,1.3-0.5,2-1.9,2
	c-1.3,0-2.5,0-3.8,0c-36.5-0.1-73-0.2-109.5-0.3c-6.5,0-5.9,0.7-5.9-5.8c0.1-31.6,0.2-63.2,0.3-94.8c0-0.9,0.1-1.8,0-2.7
	c-0.2-2.4,1-3.2,3.2-3.2c7.1,0.1,14.1-1.1,21.1-2.3c26-4.6,51.5-10.7,75.5-21.8C471.6,131.5,477.8,127.5,485.3,123.4z"/>
<path class="st2" d="M504.3,437c-0.9-2.2-0.6-3.8-0.6-5.4c-0.2-44-0.5-87.9-0.7-131.9c0-0.9,0-1.8,0-2.7c-0.1-1.8,0.6-2.7,2.5-2.6
	c0.9,0,1.8,0,2.7,0c37.4-0.2,74.8-0.4,112.3-0.5c1.6,0,3.3-0.5,5,0.6c0,8.3-1.4,16.5-3.6,24.5c-13.1,46.8-40.4,82.7-83,106.5
	c-9.1,5.1-18.8,8.5-29,10.6C508.1,436.4,506.3,436.6,504.3,437z"/>
<path class="st3" d="M792,944.3c-66.2,0-121.9-46.4-132.9-109.4c-10.3-59.2,20.2-119.1,74.8-145.2c41.7-20,83.8-19.5,124.5,2.4
	c36.3,19.7,58.7,50.8,66.5,91.5c13.9,72.5-34.5,144.5-110.7,158.5C806.4,943.5,798.4,944.1,792,944.3z M783.2,692.4
	c-14.8,0-38.1,7.5-59,22.3c-46.8,33.3-63.4,95.6-39.3,146.3c28.4,59.8,100.1,83.2,159.2,53.6c48.9-24.5,75.4-79,63.7-131
	C895.8,729.6,849.4,692.4,783.2,692.4z"/>
<path class="st3" d="M742,808.9c-1.1-2.3-3.3-3.7-5.1-5.5c-7.3-7.3-14.7-14.5-22.1-21.8c-0.8-0.8-1.5-1.6-2.2-2.5
	c-4.5-5.9-4.8-10.1-0.8-16.5c1-1.7,2.3-3.2,3.7-4.7c8.8-9,17.5-17.9,26.4-26.8c6.6-6.6,10.8-7.1,18.8-2.1c2.9,1.8,5.6,4,8.1,6.5
	c6.9,6.7,13.8,13.4,20.7,20.2c3.8,3.7,3.2,3.7,7.1-0.2c8.6-8.6,17.1-17.3,25.7-25.9c0.1-0.1,0.3-0.3,0.4-0.4c8-7.2,14.3-7.4,22-0.1
	c10,9.5,19.8,19.3,29.4,29.1c4.8,4.9,5.1,9.2,1.8,15.3c-2.1,3.9-4.9,7.2-7.9,10.3c-8.3,8.4-16.5,16.8-25,25.5c1.5,1.6,2.7,3,4.1,4.4
	c7.9,8,15.9,15.9,23.8,23.9c0.6,0.6,1.2,1.3,1.8,2c5.3,6.6,6,11.8,0.4,18.2c-10.2,11.8-21.6,22.6-33.1,33.1c-3.3,3.1-7.6,3.1-11.8,1
	c-4.3-2.1-8-5-11.4-8.3c-6.8-6.8-13.6-13.6-20.5-20.4c-1.3-1.3-2.3-2.8-4.4-3.7c-7.5,7.7-15.1,15.5-22.6,23.3
	c-2.8,2.9-5.7,5.6-9,7.9c-4,2.7-8,2.9-12.3,0.7c-2.6-1.3-4.9-3-7-5.1c-8.9-8.8-17.9-17.5-26.8-26.3c-6.4-6.4-6.9-10.7-2.2-18.4
	c1.8-3,4-5.6,6.4-8.1c6.8-7,13.7-14,20.5-21.1C740,811.5,741.4,810.6,742,808.9z M833.1,873c1.5,0,2.6-1.3,3.8-2.4
	c5.4-5.4,10.8-10.8,16.2-16.2c4.2-4.3,4.3-6.1,0.1-10.5c-5.6-5.7-11.3-11.3-16.9-17c-3.3-3.3-6.8-6.6-10-10
	c-3.7-3.9-3.8-7.3-1.2-11.8c1.9-3.3,4.2-6.3,6.9-9c7.1-7.1,14-14.2,21-21.4c0.9-0.9,1.8-1.8,2.6-2.7c2.8-3.3,2.7-5.5-0.3-8.5
	c-5.6-5.7-11.3-11.3-17-16.9c-3.7-3.6-5.4-3.5-9.3-0.1c-1,0.8-1.8,1.8-2.7,2.7c-7.8,7.9-15.5,15.8-23.3,23.7
	c-6.5,6.6-13.2,6.6-20,0.1c-7.8-7.6-15.6-15.2-23.4-22.8c-1.2-1.1-2.3-2.3-3.7-3.2c-1.9-1.3-4.1-1.7-6,0.1
	c-6.4,6.4-12.8,12.9-19.1,19.4c-1.9,2-1.9,4.3-0.2,6.4c1,1.3,2.1,2.5,3.3,3.6c7.6,7.5,15.3,15,23,22.5c1.2,1.1,2.4,2.2,3.4,3.5
	c3.2,3.9,3.3,7.9,0.2,11.9c-0.9,1.1-1.9,2.2-3,3.2c-8,8.2-16,16.4-23.9,24.6c-6.2,6.4-6.2,7.2,0.3,13.6c4.7,4.6,9.3,9.2,14,13.7
	c4.3,4.2,6.2,4.2,10.5,0c5.5-5.5,10.9-11.2,16.4-16.7c3.4-3.5,6.8-7.1,10.3-10.5c4-3.8,7.7-4.1,12.3-1.1c2.1,1.4,4,3.2,5.8,4.9
	c7.9,7.8,15.7,15.6,23.6,23.4C828.5,871.4,830.2,873,833.1,873z"/>
<path class="st4" d="M321.8,521.9l22,22c5.2,5.2,13.7,5.2,18.9,0l22-22c5.2-5.2,5.2-13.7,0-18.9l-22-22c-5.2-5.2-13.7-5.2-18.9,0
	l-22,22C316.6,508.2,316.6,516.7,321.8,521.9z"/>
<path class="st4" d="M255.8,521.9l22,22c5.2,5.2,13.7,5.2,18.9,0l22-22c5.2-5.2,5.2-13.7,0-18.9l-22-22c-5.2-5.2-13.7-5.2-18.9,0
	l-22,22C250.6,508.2,250.6,516.7,255.8,521.9z"/>
<path class="st3" d="M656.2,944.4l17.3,17.3c2.5,2.5,6.6,2.5,9.1,0l17.3-17.3c2.5-2.5,2.5-6.6,0-9.1L682.6,918
	c-2.5-2.5-6.6-2.5-9.1,0l-17.3,17.3C653.6,937.8,653.6,941.9,656.2,944.4z"/>
<circle class="st5" cx="790.1" cy="808.9" r="171.5"/>
</svg>
