<?xml version="1.0" encoding="utf-8"?>
<!-- Generator: Adobe Illustrator 28.0.0, SVG Export Plug-In . SVG Version: 6.00 Build 0)  -->
<svg version="1.1" id="Capa_1" xmlns="http://www.w3.org/2000/svg" xmlns:xlink="http://www.w3.org/1999/xlink" x="0px" y="0px"
	 viewBox="0 0 1080 1080" style="enable-background:new 0 0 1080 1080;" xml:space="preserve">
<style type="text/css">
	.st0{fill:#070808;}
	.st1{fill:#FFFFFF;}
	.st2{fill:#FDFDFD;}
	.st3{fill:#29E4A5;}
	.st4{fill:#6EE1EB;}
	.st5{fill:none;stroke:#29E4A5;stroke-width:20;stroke-miterlimit:10;}
</style>
<path class="st0" d="M806.1,631.4c2.9,0.4,4.9,1,7,1c10.9-0.1,21.2,3.1,31.3,6.3c65.2,21.1,107.5,64.5,122.3,131.7
	c12.8,58.1-2.6,110.2-41.6,154.9c-30.1,34.4-68.5,54.8-113.9,60.3c-59.1,7.2-110.6-10.1-152.7-52.7c-27.7-28.1-43.3-62.3-47.7-101.5
	c-3.6-31.5,1.4-61.8,14-90.9c0.5-1.2,1.6-2.4,1.2-4.5c-1.8,0.8-3.3,1.5-4.9,2.3c-34,16.8-68.7,32-104.5,44.5
	c-14.9,5.2-30.2,9-46,10.5c-20.2,1.9-39.8-1.5-59-7.3c-19.3-5.9-37.5-14.5-55.8-22.9c-14.6-6.8-29.2-13.7-43.8-20.6
	c-1.4-0.7-2.7-1.8-4.4-1.7c-0.7,0.3-0.7,0.9-0.8,1.4c-0.9,9.3-5.9,13.5-15.3,12.6c-8.1-0.8-16.2-1.7-24.4-2.6
	c-26.9-2.8-53.8-6-80.7-8.2c-16.1-1.3-32.1-3.3-48-6.2c-9.1-1.7-12.7-6.1-12.8-15.4c-0.5-68.8-1-137.7-1.4-206.5
	c0-2.4,0.2-4.7,0.3-7.1c0.6-7.9,5.2-13.4,13-15.5c4.6-1.2,9.3-1.6,14-2c17.7-1.5,35.5-1.6,53.3-2.5c2.9-0.1,5.8-0.1,8.7-0.2
	c7.9-0.1,13.4,4,17.4,10.3c1.8,2.9,3.3,6.1,4.7,9.2c2,4.2,2,4.4,6.3,3.2c11.8-3.2,23.7-5.3,35.7-7.5c19.5-3.6,39-3.4,58.5-0.3
	c7.7,1.2,15.4,2.6,23,4.3c20.9,4.8,40.1,13.8,58.6,24.2c20.6,11.5,41.1,23.1,61.1,35.6c3.4,2.1,5.8,2,9.1-0.3
	c30.5-21.3,61.3-42.2,91.8-63.5c20.2-14.1,50.3-12.1,67.3,0c4.7,3.4,3.2,3.3,7.8,0.1c18.7-12.8,38.4-13.8,59-5.2
	c3.9,1.6,7.3,4.1,10.4,6.8c1.5,1.4,2.8,1.7,4.8,0.7c15.1-7.4,30.5-6.9,46-1.7c10.5,3.5,19.7,9.2,27.4,17.2c1.3,1.4,2.4,2.4,4.6,1.9
	c16.6-3.8,31.2,0.7,44.3,11c9.1,7.2,15.5,16.3,17.8,27.8c1.9,9.2-0.8,16.7-8.1,22.8c-16.5,13.6-33,27.4-49.4,41.1
	C810.1,627.9,808.4,629.4,806.1,631.4z M243.3,527.4c0.5,1.4,0.7,2.3,1,3.1c10.7,30.3,19.8,61.1,29.4,91.7
	c9.6,30.4,20.3,60.6,27.2,91.8c0.8,3.6,2.6,5.5,5.8,7.1c22.9,11,45.8,21.9,68.9,32.4c17.2,7.8,34.5,15.3,53,19.5
	c16.1,3.7,32.3,5.4,48.6,2.4c16.3-3,32.1-7.5,47.6-13.4c33.1-12.6,65.2-27.4,97.2-42.3c5.7-2.7,11.5-5.4,17.3-8
	c2.4-1.1,3.9-2.7,4.6-5.3c-8.9,0.6-17.4,1.5-26,1.8c-16.5,0.7-33.1,0.9-49.5-1.1c-11.3-1.4-22.6-3.5-33.9-5.3
	c-1.5-0.2-2.8-0.6-4.1-1.5c-2.7-1.8-3.9-4.3-3.4-7.5c0.5-3.2,2.6-5.1,5.7-5.9c1.5-0.4,2.9-0.1,4.3,0.1c10.1,1.2,20.2,2.7,30.3,3.5
	c28.3,2.3,56.6,1.4,84.8-2.1c5.7-0.7,10.4-2.6,14.8-6.9c18-17.6,39.4-30.2,63-38.8c4.2-1.6,8.5-3,13.1-4.6c-4-2.8-8.1-4-12.3-5.1
	c-13.9-3.7-28.2-5.1-42.5-6.4c-33.6-2.9-67.3-6-101-8.1c-18.1-1.1-36.1-3.7-53.6-9c-24.2-7.4-47.2-17.6-68.9-30.7
	c-18.5-11.2-37.3-21.8-56.1-32.4c-15.5-8.8-31.5-16.4-48.9-20.8c-23.9-6-48.1-9.4-72.8-5.9c-7.5,1.1-15,2.6-22.5,3.8
	C257.5,524.4,250.6,525.5,243.3,527.4z M954,815.7c-0.1-30.8-4.2-51.7-12.9-71.6c-28.8-66.4-98-104.2-170.1-94.7
	c-38.5,5.1-71.9,21.5-98.6,49.9c-39.1,41.6-54,90.8-42.1,147c14.5,68.4,75.5,122.3,153.9,124.1c26.2,0.6,51.4-4.5,74.8-16.3
	C919.7,923.7,950.8,874.1,954,815.7z M620.9,603.3c4.5,0.5,7.5,0.9,10.6,1.2c18.3,1.6,36.5,3.1,54.8,4.8c2.9,0.3,5.1-0.2,7.4-2
	c30.5-23.5,61.1-46.9,91.6-70.3c1.6-1.2,3.4-2.2,4.6-4.1c-7.9-8-17.7-12.5-28.6-14.5c-11.9-2.2-23.2-1.6-32.4,7.5
	c-0.1,0.1-0.3,0.2-0.5,0.3c-34.1,24.4-68.2,48.8-102.3,73.2C624.8,600.4,623.3,601.5,620.9,603.3z M715.6,612.6
	c3.5,0.6,6.5,1.1,9.5,1.6c12.6,2.4,24.9,5.8,34.6,14.7c4.2,3.9,8.2,4.5,13.2,3.5c1.2-0.3,2.5-0.5,3.8-0.5c2,0,3.4-0.9,4.8-2.1
	c22.9-19.1,45.8-38.1,68.7-57.1c2.4-2,3.3-4.3,2.6-7.1c-0.4-1.8-0.9-3.5-1.7-5.1c-5.9-12-16-18.3-28.6-21.4
	c-6.2-1.5-11.8-1-16.7,3.7c-1.4,1.4-3.3,2.3-4.9,3.5c-27.3,20.9-54.5,41.7-81.7,62.6C718.1,609.8,716.4,610.4,715.6,612.6z
	 M711.8,517.3c-1-0.8-1.3-1.3-1.8-1.5c-7.9-4.6-16.7-6-25.6-6c-7,0-12.6,3.1-18.3,7.2c-30.9,22.3-62,44.3-93.1,66.3
	c-6,4.3-12.1,8.6-18.1,12.9c0.9,1.3,2.1,1.3,3.1,1.5c9.7,1.4,19.4,2.6,29.1,3.9c4.6,0.6,7.9-0.5,11.5-3.1
	c33.3-24,66.6-47.8,100-71.6C702.9,523.8,707.1,520.7,711.8,517.3z M636.3,516.8c-8.7-5.1-18-6.4-27.5-6.2
	c-7.3,0.1-13.4,2.9-19.4,7.1c-27.4,19.4-55.2,38.2-82.8,57.3c-1.6,1.1-3.6,1.8-4.7,4.1c9.1,3.8,18.1,7.4,27,11.3
	c2.8,1.2,4.6,0.5,6.9-1.1c32-22.9,64.2-45.7,96.3-68.5C633.4,519.7,635.2,519,636.3,516.8z"/>
<path class="st0" d="M641.8,213.8c0,19.2-0.1,38.5,0,57.7c0,4.3,0.7,8.7,0.8,13c0.7,27-6.3,52.1-18.6,75.8
	c-17.8,34.4-43.1,61.7-77.5,80.1c-12.9,6.9-26.6,11.7-41.1,13.5c-16.7,2-32.8-1-48.4-7.2c-25.3-10.1-46.3-26.2-64.1-46.6
	c-22.8-26.1-38.2-55.9-44-90.3c-1.9-11-2.4-22-1.1-33.1c0.2-1.6,0.2-3.3,0.2-4.9c0.1-37.9,0.2-75.9,0.2-113.8c0-2-0.1-4-0.2-6
	c-0.1-5.9,2.8-9.2,8.7-9.6c5.6-0.4,11.2-0.1,16.9-0.8c30.8-3.7,60.6-11.3,88.9-24.1c8.6-3.9,16.9-8.3,24.6-13.8
	c5.3-3.7,10.2-4,16.1-0.8c24,13.4,49.5,23.3,75.8,31.2c10,3,20.3,3.9,30.4,5.9c7.8,1.6,15.6,3.3,23.6,3.5c5.2,0.1,8.2,3.5,8.5,8.8
	c0.1,0.9,0,1.8,0,2.7c0,19.6,0,39.2,0,58.8C641.7,213.8,641.7,213.8,641.8,213.8z M485.5,124.6c-1.9-1.1-3,0.3-4.1,1
	c-5.2,3-10.3,6.2-15.7,8.6c-30.7,13.8-63,21.5-96.5,24.5c-4,0.4-4.1,0.3-4.1,4.5c-0.1,32.5-0.2,65-0.3,97.5c0,4.4,0.1,4.5,4.5,4.5
	c37.4,0.1,74.8,0.2,112.2,0.3c5.1,0,4.4,0.2,4.4-4.9c-0.1-36.5-0.3-73-0.4-109.5C485.5,142.3,485.5,133.4,485.5,124.6z M503.2,436.4
	c2.9,0.5,4.6,0.1,6.4-0.3c10.2-2.1,19.9-5.7,29-10.6c30.1-16,52.4-39.9,68.6-69.5c9.7-17.7,16.1-36.5,17.9-56.7
	c0.6-6.2,1.2-5.6-5-5.6c-37.2,0.2-74.5,0.4-111.7,0.5c-1.1,0-2.2,0-3.3,0c-1.6,0-2.3,0.8-2.2,2.4c0,1.1,0,2.2,0,3.3
	c0.1,21.8,0.1,43.6,0.2,65.4C503.2,388.9,503.2,412.5,503.2,436.4z"/>
<path class="st1" d="M243.3,527.4c7.3-2,14.2-3,21.2-4.2c7.5-1.2,15-2.7,22.5-3.8c24.7-3.5,48.9-0.1,72.8,5.9
	c17.4,4.4,33.4,12,48.9,20.8c18.8,10.6,37.6,21.3,56.1,32.4c21.6,13.1,44.6,23.4,68.9,30.7c17.5,5.3,35.5,7.9,53.6,9
	c33.7,2.1,67.3,5.2,101,8.1c14.3,1.2,28.6,2.7,42.5,6.4c4.2,1.1,8.4,2.3,12.3,5.1c-4.6,1.6-8.9,3-13.1,4.6
	c-23.6,8.7-44.9,21.2-63,38.8c-4.4,4.3-9.1,6.2-14.8,6.9c-28.2,3.4-56.5,4.4-84.8,2.1c-10.1-0.8-20.2-2.3-30.3-3.5
	c-1.4-0.2-2.8-0.5-4.3-0.1c-3.1,0.9-5.1,2.8-5.7,5.9c-0.5,3.2,0.7,5.7,3.4,7.5c1.2,0.8,2.6,1.2,4.1,1.5c11.3,1.8,22.5,3.9,33.9,5.3
	c16.4,2,33,1.8,49.5,1.1c8.5-0.3,17-1.2,26-1.8c-0.7,2.6-2.2,4.2-4.6,5.3c-5.8,2.6-11.5,5.3-17.3,8c-32,15-64.1,29.7-97.2,42.3
	c-15.5,5.9-31.3,10.5-47.6,13.4c-16.3,3-32.6,1.3-48.6-2.4c-18.5-4.2-35.8-11.8-53-19.5c-23.1-10.5-46-21.4-68.9-32.4
	c-3.2-1.5-5-3.4-5.8-7.1c-6.9-31.2-17.6-61.3-27.2-91.8c-9.6-30.6-18.7-61.4-29.4-91.7C244,529.7,243.8,528.8,243.3,527.4z"/>
<path class="st2" d="M620.9,603.3c2.5-1.8,3.9-2.9,5.3-3.9c34.1-24.4,68.2-48.8,102.3-73.2c0.1-0.1,0.3-0.2,0.5-0.3
	c9.3-9.1,20.5-9.8,32.4-7.5c10.9,2.1,20.7,6.5,28.6,14.5c-1.2,1.9-3,2.9-4.6,4.1c-30.5,23.4-61.1,46.8-91.6,70.3
	c-2.4,1.8-4.5,2.3-7.4,2c-18.3-1.7-36.5-3.2-54.8-4.8C628.4,604.2,625.4,603.8,620.9,603.3z"/>
<path class="st2" d="M715.6,612.6c0.8-2.2,2.4-2.8,3.7-3.8c27.2-20.9,54.5-41.8,81.7-62.6c1.6-1.2,3.5-2.1,4.9-3.5
	c4.8-4.8,10.5-5.3,16.7-3.7c12.6,3.1,22.7,9.5,28.6,21.4c0.8,1.6,1.3,3.4,1.7,5.1c0.6,2.9-0.2,5.1-2.6,7.1c-23,19-45.9,38-68.7,57.1
	c-1.4,1.2-2.8,2.1-4.8,2.1c-1.3,0-2.5,0.2-3.8,0.5c-5,1-9,0.4-13.2-3.5c-9.6-8.9-22-12.3-34.6-14.7
	C722.1,613.6,719.1,613.2,715.6,612.6z"/>
<path class="st2" d="M711.8,517.3c-4.7,3.4-8.9,6.5-13.2,9.5c-33.3,23.9-66.7,47.7-100,71.6c-3.6,2.6-6.9,3.7-11.5,3.1
	c-9.7-1.3-19.4-2.5-29.1-3.9c-1-0.2-2.2-0.2-3.1-1.5c6.1-4.3,12.1-8.6,18.1-12.9c31-22.1,62.2-44,93.1-66.3
	c5.6-4.1,11.3-7.3,18.3-7.2c9,0.1,17.7,1.4,25.6,6C710.5,516.1,710.8,516.5,711.8,517.3z"/>
<path class="st2" d="M636.3,516.8c-1.2,2.2-2.9,2.9-4.4,3.9c-32.1,22.9-64.2,45.6-96.3,68.5c-2.3,1.6-4.1,2.3-6.9,1.1
	c-8.9-3.9-18-7.5-27-11.3c1.1-2.3,3.1-3,4.7-4.1c27.6-19.1,55.4-38,82.8-57.3c6-4.3,12.1-7,19.4-7.1
	C618.4,510.4,627.6,511.7,636.3,516.8z"/>
<path class="st2" d="M485.5,124.6c0,8.8,0,17.7,0,26.6c0.1,36.5,0.3,73,0.4,109.5c0,5.1,0.7,4.9-4.4,4.9
	c-37.4-0.1-74.8-0.2-112.2-0.3c-4.4,0-4.5-0.1-4.5-4.5c0.1-32.5,0.2-65,0.3-97.5c0-4.2,0.1-4.1,4.1-4.5c33.5-3,65.8-10.7,96.5-24.5
	c5.5-2.5,10.6-5.6,15.7-8.6C482.5,125,483.5,123.5,485.5,124.6z"/>
<path class="st2" d="M503.2,436.4c0-23.9,0-47.5,0-71.1c0-21.8-0.1-43.6-0.2-65.4c0-1.1,0-2.2,0-3.3c-0.1-1.6,0.6-2.4,2.2-2.4
	c1.1,0,2.2,0,3.3,0c37.2-0.2,74.5-0.4,111.7-0.5c6.2,0,5.5-0.6,5,5.6c-1.8,20.2-8.3,39-17.9,56.7c-16.3,29.7-38.6,53.5-68.6,69.5
	c-9.2,4.9-18.9,8.4-29,10.6C507.9,436.5,506.1,436.9,503.2,436.4z"/>
<path class="st3" d="M792.2,944.3c-66.4,0.1-122-46.3-133.1-109.4c-10.4-59.2,20.1-119.1,74.7-145.3c41.7-20,83.8-19.6,124.5,2.4
	c36.4,19.6,58.7,50.8,66.5,91.5c13.9,72.6-34.4,144.5-110.6,158.6C806.4,943.5,798.4,944.1,792.2,944.3z M791.7,692.4
	c-4.9,0-12,0.5-18.9,1.8c-55.8,10.5-92.3,55.2-97.8,102.2c-4.7,40.1,7.1,74.9,37.7,101.3c38.4,33.3,82.3,38.6,128.5,18.2
	c49.9-22,77.8-77.7,67-130.8C897.2,730.9,849.8,692.4,791.7,692.4z"/>
<path class="st3" d="M763.6,810.8c2.3-2.7,4.1-5,6.2-7c21.2-21.4,42.5-42.8,64.3-63.5c2-1.9,4.1-3.6,6.3-5.1
	c6.9-4.7,16.7-4,22.6,1.9c6.6,6.5,13.1,13.1,19.2,20.1c6.4,7.3,9.9,15.7,6.7,25.6c-1.6,4.8-4.8,8.5-8.3,11.9
	c-16.1,16-32.3,31.9-48.4,47.9c-11.7,11.6-23.2,23.5-35.1,35c-6.2,6.1-12.9,11.7-19.5,17.4c-1.1,1-2.3,1.7-3.6,2.5
	c-10.8,6.8-17.2,6.4-27.2-1.7c-3.1-2.5-6.1-5.2-8.8-8.1c-14.2-14.6-28.3-29.2-42.4-43.9c-4-4.2-7.4-8.9-10.4-13.9
	c-4.1-6.6-3.1-12.8,0.8-18.9c0.9-1.4,1.9-2.6,3.1-3.8c5-5.2,10.1-10.5,15.2-15.6c3.9-3.9,8.2-7.1,13.3-9.3c6.7-3,12.8-2.2,18.3,2.2
	c3.4,2.7,6.6,5.7,9.7,8.7C751.4,798.8,757,804.4,763.6,810.8z M874.3,774.9c-0.2-2.5-1.2-4.4-2.7-6.1c-5.7-6.4-11.7-12.4-17.8-18.4
	c-3-2.9-4.3-3-7.6-0.5c-1.9,1.4-3.7,3-5.3,4.7c-26.6,28.1-54.3,55-81.2,82.9c-1.1,1.2-2.3,2.4-3.5,3.4c-3.9,3-8.2,2.9-11.4-0.2
	c-3-2.9-3.3-7.7-0.4-11.4c1.3-1.7,2.9-3.3,4.6-4.7c2.1-1.8,1.7-3-0.1-4.8c-6.6-6.2-13-12.7-19.5-19c-3.8-3.7-6.9-4-11.2-1
	c-6.8,4.9-12.8,10.7-18,17.3c-2.5,3.2-2.5,4.5-0.1,7.8c3,4.3,6.2,8.5,9.9,12.3c13.1,13.1,26.1,26.3,39.2,39.4c1.5,1.5,3.2,3,4.9,4.3
	c2.9,2.2,6.1,2.6,9.8,1.7c5.3-1.4,9.4-4.6,13.2-8.3c4.6-4.4,8.8-9.1,13.3-13.7c26.7-27.2,54-53.8,81.2-80.5
	C873.2,778.6,874.2,776.9,874.3,774.9z"/>
<path class="st4" d="M321.6,521.9l22,22c5.2,5.2,13.7,5.2,18.9,0l22-22c5.2-5.2,5.2-13.7,0-18.9l-22-22c-5.2-5.2-13.7-5.2-18.9,0
	l-22,22C316.4,508.2,316.4,516.7,321.6,521.9z"/>
<path class="st4" d="M255.6,521.9l22,22c5.2,5.2,13.7,5.2,18.9,0l22-22c5.2-5.2,5.2-13.7,0-18.9l-22-22c-5.2-5.2-13.7-5.2-18.9,0
	l-22,22C250.4,508.2,250.4,516.7,255.6,521.9z"/>
<path class="st3" d="M655.9,944.4l17.3,17.3c2.5,2.5,6.6,2.5,9.1,0l17.3-17.3c2.5-2.5,2.5-6.6,0-9.1L682.4,918
	c-2.5-2.5-6.6-2.5-9.1,0l-17.3,17.3C653.4,937.8,653.4,941.9,655.9,944.4z"/>
<path class="st3" d="M778.4,865.6l17.3,17.3c2.5,2.5,6.6,2.5,9.1,0l17.3-17.3c2.5-2.5,2.5-6.6,0-9.1l-17.3-17.3
	c-2.5-2.5-6.6-2.5-9.1,0l-17.3,17.3C775.9,859,775.9,863,778.4,865.6z"/>
<circle class="st5" cx="790" cy="809.6" r="171"/>
</svg>
