<?xml version="1.0" encoding="utf-8"?>
<!-- Generator: Adobe Illustrator 28.0.0, SVG Export Plug-In . SVG Version: 6.00 Build 0)  -->
<svg version="1.1" id="Capa_1" xmlns="http://www.w3.org/2000/svg" xmlns:xlink="http://www.w3.org/1999/xlink" x="0px" y="0px"
	 viewBox="0 0 1080 1080" style="enable-background:new 0 0 1080 1080;" xml:space="preserve">
<style type="text/css">
	.st0{fill:#0C0C0C;}
	.st1{fill:#FFFFFF;}
	.st2{fill:#DBB300;}
	.st3{fill:#6EE1EB;}
	.st4{fill:none;stroke:#DBB300;stroke-width:20;stroke-miterlimit:10;}
</style>
<path class="st0" d="M753.7,635.1c6.1-0.9,11.8-1.7,17.5-2.5c12.5-1.7,25-1.8,37.5-0.7c44.4,4,82.4,21.9,113.4,53.9
	c27.6,28.5,43.3,62.8,47.6,102.2c7.8,71.2-29.4,141.1-93.2,176.2c-31.7,17.4-65.7,25.2-101.7,22.6c-45.8-3.4-85.1-21.5-117.1-54.6
	c-15.7-16.2-27.5-35.1-35.9-56c-1.8-4.6-1.8-4.6-7-4.6c-99.5-0.4-199.1-0.8-298.6-1.2c-19.3-0.1-38.5-0.3-57.8-0.2
	c-26.6,0.2-45.9-18.5-52.5-36.5c-1.8-5-2.6-10.2-2.6-15.5c0-135.3,0-270.6,0-406c0-107.9,0-215.8,0-323.7c0-6.4,1.1-12.6,2.3-18.9
	c0.7-3.6,2.5-6.8,4.6-9.8c7.3-10.5,17.4-16.7,29.9-19.1c4.6-0.9,9.4-1.2,14.1-1.2c86.8-0.7,173.6-1.3,260.5-2
	c60.7-0.5,121.3-0.8,182-1.5c18-0.2,33.6,5,46.2,18.1c6.8,7.1,10.7,15.6,10.6,25.5c-0.5,116.2,0.1,232.5,0,348.7
	c0,67,0.1,134,0.1,201.1C753.7,631.2,753.7,633,753.7,635.1z M220.5,394.2c0,102.4,0,204.9,0,307.3c0,1.5,0.1,2.9,0,4.4
	c-0.1,1.9,0.7,2.6,2.6,2.5c0.9-0.1,1.8,0,2.7,0c137.5,0,275-0.1,412.5,0c3.4,0,5.6-1,7.7-3.8c11.6-15.8,25.7-29.1,41.7-40.3
	c13.9-9.8,29-17.1,45-22.8c3-1.1,4.7-2.4,4.1-5.7c-0.1-0.7,0-1.4,0-2.2c-0.1-182.6-0.3-365.1-0.4-547.7c0-2,0.2-4-0.1-6
	c-0.7-4.8-1.2-9.8-4.9-13.5c-7.7-8-17-13-28.3-13.3c-7.1-0.2-14.2-0.2-21.2-0.2C540,54,398.1,55.1,256.2,56.1
	c-4.8,0-9.4,0.5-14.1,1.2c-9.1,1.4-18.8,11.2-20.6,20.3c-1.2,5.9-1.1,11.9-1.1,17.9C220.4,195.1,220.5,294.7,220.5,394.2z
	 M631.5,725.4c-2,0-4,0-5.9,0c-52.5,0-104.9,0-157.4,0c-80.6,0-161.2,0-241.8,0c-6.7,0-5.9-1-5.9,5.6c0,20.2,0,40.3,0,60.5
	c0,9.1,0,18.2,0,27.2c0,3.6-0.1,7.4,1.9,10.6c8.6,14.2,20.4,23.6,37.8,23.7c115.5,0.6,230.9,1.2,346.4,1.7c1.6,0,3.3,0.1,4.9,0
	c3.2-0.1,3.3-0.2,2.7-3.5c-0.1-0.5-0.2-1.1-0.3-1.6c-2.6-11.9-3.9-23.9-4.1-36.2c-0.3-29.3,6.7-56.7,19.6-82.8
	C630.1,729.1,631.6,727.8,631.5,725.4z M954,816.4c0.1-57.5-21.7-102.9-58.8-132.6c-52.3-41.8-124.8-47.4-184.1-14.2
	c-23.6,13.2-43.1,30.9-57.6,53.6c-29.3,45.8-35.5,94.7-16.2,145.7c22.2,58.9,79,99.9,146.9,101.5c26.2,0.6,51.4-4.4,74.9-16.2
	C919.6,923.8,950.8,874.2,954,816.4z"/>
<path class="st1" d="M220.5,394.2c0-99.5,0-199.1,0-298.6c0-6-0.2-12,1.1-17.9c1.9-9.1,11.6-18.8,20.6-20.3
	c4.6-0.7,9.3-1.2,14.1-1.2C398.1,55.1,540,54,681.8,53c7.1-0.1,14.2-0.1,21.2,0.2c11.3,0.3,20.6,5.3,28.3,13.3
	c3.6,3.8,4.2,8.7,4.9,13.5c0.3,2,0.1,4,0.1,6c0.1,182.6,0.3,365.1,0.4,547.7c0,0.7-0.1,1.5,0,2.2c0.6,3.3-1.1,4.7-4.1,5.7
	c-16,5.6-31.1,13-45,22.8c-16,11.3-30.1,24.6-41.7,40.3c-2.1,2.8-4.2,3.8-7.7,3.8c-137.5-0.1-275,0-412.5,0c-0.9,0-1.8-0.1-2.7,0
	c-1.8,0.1-2.7-0.6-2.6-2.5c0.1-1.4,0-2.9,0-4.4C220.5,599.1,220.5,496.7,220.5,394.2z M480.7,586.7
	C480.7,586.6,480.7,586.6,480.7,586.7c42.8-0.7,85.7-1.3,128.5-1.9c3.3,0,6.5-0.1,9.8-0.2c4.2-0.2,6.9-2.2,8.4-6.4
	c2.5-7.2,3-14.6,2.7-22c-0.8-21.4-8.6-40.2-22-56.9c-15.5-19.3-35.3-32.8-58.1-41.9c-43.7-17.3-88-18.7-132.5-3.7
	c-25.4,8.5-47.5,22.4-64.3,43.8c-13.5,17.3-20.8,36.8-20.4,59c0.2,8.6,1.7,16.9,2.9,25.4c0.6,4.7,3.3,6.8,8.2,7
	c3.3,0.1,6.5-0.1,9.8-0.2C396.1,587.9,438.4,587.3,480.7,586.7z M560.2,323.2c-1.3-26.9-14.1-52-41-69.2
	c-32.9-21.1-76.5-15.2-102.5,14c-28.8,32.4-28.5,82.1,1.3,114.7c21.4,23.4,48.1,32.8,79.2,25.9C534.7,400.5,560.5,366.7,560.2,323.2
	z M484.2,122c0,0.2,0,0.4,0,0.7c4.9,0,9.8,0,14.7,0c3.3,0,6.6,0.2,9.8-0.1c4.3-0.4,7.3-4,7.4-8.1c0-4.1-3-7.5-7.3-8.2
	c-0.7-0.1-1.4-0.2-2.2-0.2c-14.9-0.3-29.8-0.6-44.6-0.9c-1.4,0-2.9,0.1-4.3,0.5c-3.7,1.2-6,4.6-5.8,8.3c0.2,3.7,2.9,6.8,6.7,7.6
	c1.2,0.3,2.5,0.3,3.8,0.3C469.7,122,477,122,484.2,122z M690.6,114.9c0.1-7.4-5.3-12.5-13.3-12.5c-7,0-11.8,4.2-11.9,10.6
	c-0.1,7.6,5.7,13.7,13,13.8C685.4,126.7,690.5,121.8,690.6,114.9z"/>
<path class="st1" d="M631.5,725.4c0.1,2.4-1.4,3.7-2.2,5.3c-13,26.1-19.9,53.6-19.6,82.8c0.1,12.2,1.5,24.2,4.1,36.2
	c0.1,0.5,0.3,1.1,0.3,1.6c0.6,3.3,0.5,3.4-2.7,3.5c-1.6,0-3.3,0-4.9,0c-115.5-0.6-230.9-1.1-346.4-1.7c-17.3-0.1-29.2-9.5-37.8-23.7
	c-1.9-3.2-1.9-7-1.9-10.6c0-9.1,0-18.2,0-27.2c0-20.2,0-40.3,0-60.5c0-6.6-0.8-5.6,5.9-5.6c80.6,0,161.2,0,241.8,0
	c52.5,0,104.9,0,157.4,0C627.6,725.4,629.5,725.4,631.5,725.4z M483.3,796.5c0,0.2,0,0.4,0,0.6c18.1,0,36.3,0,54.4,0
	c2.2,0,4.3,0.1,6.5-0.6c3.9-1.3,6.2-4.2,6.1-8c0-3.6-2.1-6.5-5.7-7.8c-1.9-0.7-3.9-0.7-5.9-0.7c-36.6-0.1-73.3-0.2-109.9-0.3
	c-1.4,0-2.9,0-4.3,0.2c-4,0.7-6.8,4-6.9,7.9c-0.1,4.2,2.8,7.7,7,8.4c1.8,0.3,3.6,0.2,5.4,0.2C447.8,796.5,465.6,796.5,483.3,796.5z"
	/>
<path class="st0" d="M480.7,586.7c-42.3,0.6-84.6,1.3-126.9,1.9c-3.3,0.1-6.5,0.3-9.8,0.2c-5-0.2-7.6-2.3-8.2-7
	c-1.1-8.4-2.7-16.8-2.9-25.4c-0.4-22.2,6.8-41.7,20.4-59c16.7-21.4,38.8-35.3,64.3-43.8c44.6-15,88.9-13.6,132.5,3.7
	c22.8,9,42.6,22.6,58.1,41.9c13.3,16.6,21.2,35.4,22,56.9c0.3,7.4-0.2,14.8-2.7,22c-1.5,4.2-4.1,6.2-8.4,6.4
	c-3.3,0.2-6.5,0.2-9.8,0.2C566.4,585.3,523.5,586,480.7,586.7C480.7,586.6,480.7,586.6,480.7,586.7z M482,571.9
	C482,571.9,482,571.9,482,571.9c31.6-0.5,63.2-0.9,94.8-1.4c11.4-0.2,22.9-0.6,34.3-0.6c2.9,0,3.9-1,4-3.7
	c0.5-7.8,0.3-15.6-1.4-23.3c-4.9-21.3-17.2-37.7-33.8-51.3c-13.6-11.2-29.1-19-45.8-24.5c-25-8.3-50.7-10.6-76.8-7.6
	c-24.5,2.8-47.5,10.3-68,24.2c-17.5,11.9-31.2,27.1-38.1,47.6c-4.4,13-5.1,26.3-1.9,39.7c0.5,2.1,1.3,3.2,3.6,3
	c1.3-0.1,2.5-0.1,3.8-0.1C398.5,573.2,440.2,572.6,482,571.9z"/>
<path class="st0" d="M560.2,323.2c0.3,43.5-25.5,77.3-63,85.5c-31.1,6.8-57.9-2.6-79.2-25.9c-29.8-32.6-30.1-82.3-1.3-114.7
	c26-29.1,69.6-35.1,102.5-14C546.2,271.3,558.9,296.3,560.2,323.2z M410.2,329.2c0.3,17.2,8.6,35.9,25.5,50.5
	c32.7,28.2,81.3,19.2,101.8-18.7c14.7-27.2,9.2-62.5-13.5-84.7c-16.8-16.5-37.1-23.3-60.3-18.9C431.9,263.5,410.2,291,410.2,329.2z"
	/>
<path class="st0" d="M484.2,122c-7.3,0-14.5,0-21.8,0c-1.3,0-2.6-0.1-3.8-0.3c-3.8-0.8-6.5-3.9-6.7-7.6c-0.2-3.7,2-7.1,5.8-8.3
	c1.3-0.4,2.9-0.6,4.3-0.5c14.9,0.3,29.8,0.6,44.6,0.9c0.7,0,1.5,0,2.2,0.2c4.3,0.7,7.3,4.2,7.3,8.2c0,4.1-3.1,7.7-7.4,8.1
	c-3.2,0.3-6.5,0.1-9.8,0.1c-4.9,0-9.8,0-14.7,0C484.2,122.5,484.2,122.3,484.2,122z"/>
<path class="st0" d="M690.6,114.9c-0.1,6.9-5.1,11.8-12.2,11.8c-7.4,0-13.2-6.1-13-13.8c0.1-6.4,4.9-10.6,11.9-10.6
	C685.2,102.4,690.6,107.5,690.6,114.9z"/>
<path class="st0" d="M483.3,796.5c-17.8,0-35.6,0-53.3,0c-1.8,0-3.7,0.1-5.4-0.2c-4.3-0.7-7.1-4.2-7-8.4c0.1-3.9,2.9-7.2,6.9-7.9
	c1.4-0.3,2.9-0.2,4.3-0.2c36.6,0.1,73.3,0.2,109.9,0.3c2,0,4,0,5.9,0.7c3.6,1.3,5.7,4.1,5.7,7.8c0,3.8-2.2,6.7-6.1,8
	c-2.1,0.7-4.3,0.6-6.5,0.6c-18.1,0-36.3,0-54.4,0C483.3,796.9,483.3,796.7,483.3,796.5z"/>
<path class="st2" d="M791.9,944.3c-66.1,0-121.1-45.8-132.7-109c-11.3-61.6,23.4-125,81.7-148.9c39.8-16.3,79.3-15,117.1,5.5
	c36.4,19.7,58.9,50.6,66.8,91.3c14.1,72.8-34.2,144.7-110.2,158.9C806.6,943.5,798.4,944.1,791.9,944.3z M791.3,927.2
	c5.6,0.2,12.3-0.4,18.9-1.5c64.7-11.2,106.3-69.8,99.6-129.2c-4.9-44-28-75.7-68.2-94c-30.8-14.1-62.3-13.6-93.6-1
	c-51.1,20.5-81.9,76.1-72.4,130C685.5,887.2,733.3,927.2,791.3,927.2z"/>
<path class="st1" d="M482,571.9c-41.8,0.7-83.5,1.3-125.3,2c-1.3,0-2.6-0.1-3.8,0.1c-2.3,0.2-3.1-0.9-3.6-3
	c-3.1-13.4-2.5-26.7,1.9-39.7c6.9-20.5,20.6-35.7,38.1-47.6c20.5-14,43.5-21.4,68-24.2c26.1-3,51.8-0.7,76.8,7.6
	c16.7,5.5,32.2,13.3,45.8,24.5c16.6,13.6,28.9,30,33.8,51.3c1.8,7.7,1.9,15.5,1.4,23.3c-0.2,2.7-1.2,3.7-4,3.7
	c-11.4,0.1-22.9,0.4-34.3,0.6C545.2,571,513.6,571.5,482,571.9C482,571.9,482,571.9,482,571.9z"/>
<path class="st1" d="M410.2,329.2c0-38.2,21.7-65.7,53.6-71.8c23.2-4.5,43.5,2.4,60.3,18.9c22.7,22.3,28.1,57.5,13.5,84.7
	c-20.5,37.9-69.1,46.9-101.8,18.7C418.8,365.1,410.5,346.4,410.2,329.2z"/>
<path class="st2" d="M794.1,836.8c-17.8,0-32.4-14.3-32.5-31.9c-0.1-17.2,14.1-31.4,31.5-31.5c18.1-0.1,32.7,14.3,32.7,32.2
	C825.7,822.9,811.7,836.8,794.1,836.8z M793.5,790.3c-8.1-0.1-14.7,6.2-14.8,14.2c-0.2,8.5,6.9,15.6,15.5,15.5
	c8.1-0.1,14.6-6.5,14.6-14.5C808.9,797.2,802,790.4,793.5,790.3z"/>
<path class="st2" d="M722.3,837.9c-17.8,0.1-32.5-14.2-32.7-31.8c-0.2-17.2,14-31.5,31.3-31.7c18.1-0.2,32.8,14.2,32.8,32.1
	C753.8,823.8,739.9,837.8,722.3,837.9z M721.7,791.4c-8.1-0.1-14.7,6.1-14.9,14.1c-0.2,8.5,6.8,15.6,15.4,15.6
	c8.1-0.1,14.6-6.4,14.7-14.4C737,798.4,730.1,791.5,721.7,791.4z"/>
<path class="st2" d="M864.4,836.8c-17.8,0.1-32.3-14.2-32.4-31.9c0-17.4,13.9-31.4,31.4-31.6c18-0.1,33,14.5,32.8,32.2
	C896,822.8,881.9,836.7,864.4,836.8z M879.1,805.2c-0.1-8.3-7.1-15-15.6-14.8c-8.1,0.1-14.6,6.6-14.7,14.5c0,8.1,7.1,15.1,15.4,15.2
	C872.5,820,879.2,813.4,879.1,805.2z"/>
<path class="st3" d="M180.7,204.1l22,22c5.2,5.2,13.7,5.2,18.9,0l22-22c5.2-5.2,5.2-13.7,0-18.9l-22-22c-5.2-5.2-13.7-5.2-18.9,0
	l-22,22C175.5,190.4,175.5,198.9,180.7,204.1z"/>
<path class="st3" d="M180.7,268.2l22,22c5.2,5.2,13.7,5.2,18.9,0l22-22c5.2-5.2,5.2-13.7,0-18.9l-22-22c-5.2-5.2-13.7-5.2-18.9,0
	l-22,22C175.5,254.6,175.5,263,180.7,268.2z"/>
<path class="st2" d="M667.3,952.2l17.3,17.3c2.5,2.5,6.6,2.5,9.1,0l17.3-17.3c2.5-2.5,2.5-6.6,0-9.1l-17.3-17.3
	c-2.5-2.5-6.6-2.5-9.1,0L667.3,943C664.8,945.6,664.8,949.7,667.3,952.2z"/>
<circle class="st4" cx="790.1" cy="809.2" r="171"/>
</svg>
