<?xml version="1.0" encoding="utf-8"?>
<!-- Generator: Adobe Illustrator 28.0.0, SVG Export Plug-In . SVG Version: 6.00 Build 0)  -->
<svg version="1.1" id="Capa_1" xmlns="http://www.w3.org/2000/svg" xmlns:xlink="http://www.w3.org/1999/xlink" x="0px" y="0px"
	 viewBox="0 0 1080 1080" style="enable-background:new 0 0 1080 1080;" xml:space="preserve">
<style type="text/css">
	.st0{fill:#0C0C0C;}
	.st1{fill:#FFFFFF;}
	.st2{fill:#29E4A5;}
	.st3{fill:#6EE1EB;}
	.st4{fill:none;stroke:#29E4A5;stroke-width:19;stroke-miterlimit:10;}
</style>
<path class="st0" d="M754.1,635.1c5.9-0.8,11.8-1.7,17.7-2.5c12.5-1.7,25-1.7,37.5-0.6c38.6,3.5,72.7,17.8,101.8,43.4
	c34.2,30,53.9,67.9,58.6,113.3c6.8,66.5-24.3,131-80.7,168c-34.7,22.8-72.9,33.1-114.2,30.1c-45.6-3.3-84.7-21.4-116.7-54.3
	c-15.7-16.2-27.6-35-36-55.9c-2-5-2-5-7.2-5c-103.2-0.4-206.3-0.8-309.5-1.2c-15.6-0.1-31.2-0.3-46.9-0.1
	c-26.6,0.2-45.8-18.6-52.3-36.1c-1.8-5-2.8-10.1-2.8-15.4c0-152.9,0-305.9,0-458.8c0-90.8,0-181.6,0-272.5c0-6.2,0.9-12.4,2.5-18.3
	c2.5-8.9,8.3-15.5,15.9-20.8c9.3-6.5,19.8-8.7,30.9-8.8c14.9-0.2,29.8-0.4,44.7-0.5c133.1-1,266.3-1.9,399.4-2.9
	c15.1-0.1,28.7,3.3,40.5,12.9c10.8,8.8,16.3,19.7,16.3,33.9c-0.2,117.3-0.1,234.7-0.1,352c0,64.7,0.1,129.3,0.2,194
	C753.7,630.9,753.4,632.9,754.1,635.1z M220.5,394.6c0,102.3,0,204.5,0,306.8c0,1.1,0.1,2.2,0,3.3c-0.3,2.7,0.6,4.2,3.6,3.7
	c0.5-0.1,1.1,0,1.6,0c137.5,0,275-0.1,412.5,0c3.7,0,5.9-1.3,8-4.1c22-29,50.1-49.6,84.3-62c6.3-2.3,6.3-2.3,6.3-9
	c-0.1-182.4-0.3-364.7-0.4-547.1c0-2,0.2-4-0.1-6c-0.6-4.9-1.2-9.8-4.8-13.6c-7.7-8.1-16.9-13-28.3-13.4c-7.1-0.2-14.2-0.2-21.2-0.2
	c-143,1.1-285.9,2.2-428.9,3.2c-3.9,0-7.6,0.7-11.3,1.3c-8.8,1.4-18.4,11.2-20.2,20.1c-1.2,5.9-1.1,11.9-1.1,17.9
	C220.4,195.2,220.5,294.9,220.5,394.6z M631.9,725.9c-2.4-0.8-4.4-0.5-6.3-0.5c-75.5,0-151.1,0-226.6,0c-57.7,0-115.5,0-173.2,0
	c-5.8,0-5.3-0.7-5.3,5.2c0,20.9,0,41.8,0,62.6c0,8.7,0,17.4,0,26.1c0,3.5,0,7,1.9,10.1c8.6,14.2,20.5,23.5,37.8,23.6
	c115.3,0.6,230.6,1.1,345.9,1.7c2,0,4,0,6,0.1c1.9,0.1,2.7-0.6,2.3-2.6c-0.2-1.1-0.5-2.1-0.7-3.2c-4.6-21.2-5.1-42.4-1.9-63.8
	C614.9,764.4,621.9,744.9,631.9,725.9z M954.3,810.6c-1.5-54-20.3-95.3-59.1-126.7c-52-42.2-124.6-47.6-184-14.4
	c-23.7,13.3-43.4,31.1-58,54.1c-29,45.7-35.2,94.4-16,145.2c22.2,59,79.2,100.2,147.3,101.7c26,0.5,51-4.5,74.3-16.1
	C919.7,923.8,950.9,874.1,954.3,810.6z"/>
<path class="st1" d="M220.5,394.6c0-99.7,0-199.4,0-299.2c0-6-0.2-12,1.1-17.9c1.8-8.8,11.4-18.6,20.2-20.1
	c3.7-0.6,7.5-1.3,11.3-1.3c143-1,285.9-2.1,428.9-3.2c7.1-0.1,14.2-0.1,21.2,0.2c11.3,0.4,20.5,5.3,28.3,13.4
	c3.6,3.8,4.2,8.7,4.8,13.6c0.2,2,0.1,4,0.1,6c0.1,182.4,0.3,364.7,0.4,547.1c0,6.8,0,6.8-6.3,9c-34.2,12.4-62.3,33-84.3,62
	c-2.2,2.9-4.3,4.1-8,4.1c-137.5-0.1-275-0.1-412.5,0c-0.5,0-1.1-0.1-1.6,0c-3,0.5-3.9-1-3.6-3.7c0.1-1.1,0-2.2,0-3.3
	C220.5,599.2,220.5,496.9,220.5,394.6z M480.7,586.7C480.7,586.6,480.7,586.6,480.7,586.7c42.8-0.7,85.7-1.3,128.5-1.9
	c3.3,0,6.5-0.1,9.8-0.2c4.2-0.2,6.9-2.2,8.4-6.4c2.5-7.2,3-14.6,2.7-22c-0.8-21.4-8.6-40.2-22-56.9c-15.5-19.3-35.3-32.8-58.1-41.9
	c-43.7-17.3-88-18.7-132.5-3.7c-25.4,8.5-47.5,22.4-64.3,43.8c-13.5,17.3-20.8,36.8-20.4,59c0.2,8.6,1.7,16.9,2.9,25.4
	c0.6,4.7,3.3,6.8,8.2,7c3.3,0.1,6.5-0.1,9.8-0.2C396.1,587.9,438.4,587.3,480.7,586.7z M560.3,326.5c-0.2-2.6-0.2-6.9-0.9-11
	c-4.4-26.4-17.5-47.2-40.3-61.7c-32.4-20.6-75.8-15-101.8,13.5c-28.7,31.6-29.4,80.7-0.9,113.5c21.5,24.7,48.8,34.9,81.1,27.8
	C534.8,400.4,560.2,367,560.3,326.5z M483.9,106.1c0-0.3,0-0.5,0-0.8c-5.3,0-10.5,0-15.8,0c-2.7,0-5.5-0.2-8.2,0
	c-4.7,0.4-7.9,3.8-8,8.1c-0.1,4.3,3,7.7,7.6,8.4c1.1,0.2,2.2,0.2,3.3,0.2c14.2,0.3,28.3,0.5,42.5,0.7c1.4,0,2.9,0,4.3-0.3
	c3.9-0.9,6.6-4.5,6.4-8.4c-0.2-3.7-2.9-6.9-6.6-7.7c-1.1-0.2-2.2-0.3-3.2-0.3C498.8,106.1,491.3,106.1,483.9,106.1z M690.6,114.6
	c-0.1-7.4-5.6-12.4-13.6-12.3c-7,0.1-11.7,4.5-11.6,10.9c0.1,7.7,6,13.6,13.3,13.5C685.8,126.5,690.6,121.6,690.6,114.6z"/>
<path class="st1" d="M631.9,725.9c-10,19-17,38.5-20.1,59.3c-3.2,21.4-2.7,42.7,1.9,63.8c0.2,1.1,0.4,2.1,0.7,3.2
	c0.4,1.9-0.4,2.6-2.3,2.6c-2-0.1-4-0.1-6-0.1c-115.3-0.6-230.6-1.1-345.9-1.7c-17.3-0.1-29.2-9.5-37.8-23.6c-1.9-3-1.9-6.6-1.9-10.1
	c0-8.7,0-17.4,0-26.1c0-20.9,0-41.8,0-62.6c0-5.9-0.5-5.2,5.3-5.2c57.7,0,115.5,0,173.2,0c75.5,0,151.1,0,226.6,0
	C627.5,725.4,629.5,725,631.9,725.9z M484,780.1c0-0.1,0-0.2,0-0.3c-18.5,0-37,0.2-55.5-0.1c-7.2-0.1-11,3.7-10.9,8.5
	c0,4.7,3.6,8.4,10.6,8.4c37,0.1,74,0.4,111,0.5c1.4,0,2.9-0.1,4.3-0.4c4.3-1,6.8-3.9,6.9-7.9c0.1-4.2-2.6-7.4-7.1-8.4
	c-1.8-0.4-3.6-0.3-5.4-0.3C519.9,780.1,502,780.1,484,780.1z"/>
<path class="st0" d="M480.7,586.7c-42.3,0.6-84.6,1.3-126.9,1.9c-3.3,0.1-6.5,0.3-9.8,0.2c-5-0.2-7.6-2.3-8.2-7
	c-1.1-8.4-2.7-16.8-2.9-25.4c-0.4-22.2,6.8-41.7,20.4-59c16.7-21.4,38.8-35.3,64.3-43.8c44.6-15,88.9-13.6,132.5,3.7
	c22.8,9,42.6,22.6,58.1,41.9c13.3,16.6,21.2,35.4,22,56.9c0.3,7.4-0.2,14.8-2.7,22c-1.5,4.2-4.1,6.2-8.4,6.4
	c-3.3,0.2-6.5,0.2-9.8,0.2C566.4,585.3,523.5,586,480.7,586.7C480.7,586.6,480.7,586.6,480.7,586.7z M497.3,571.7
	c22.4-0.3,60.4-0.8,98.3-1.4c5.3-0.1,10.5-0.5,15.8-0.4c2.6,0,3.7-1,3.7-3.4c0-1.1,0.1-2.2,0.2-3.3c1-17.5-3.8-33.4-13.5-47.8
	c-12.6-18.8-29.8-32.2-50.2-41.3c-43.2-19.4-87.4-21.1-132-5.6c-22.2,7.7-41.4,20.2-55.7,39.2c-14.1,18.8-19.8,39.7-14.6,63.1
	c0.5,2.4,1.4,3.6,3.9,3.3c1.1-0.1,2.2-0.1,3.3-0.1C398.2,573.2,440,572.6,497.3,571.7z"/>
<path class="st0" d="M560.3,326.5c-0.1,40.5-25.5,73.9-62.8,82.1c-32.3,7.1-59.6-3-81.1-27.8c-28.5-32.8-27.8-81.9,0.9-113.5
	c25.9-28.5,69.4-34.1,101.8-13.5c22.8,14.6,35.9,35.3,40.3,61.7C560.1,319.7,560.1,323.9,560.3,326.5z M410.2,324
	c-0.1,21.8,9.2,42,25.7,56c32.9,28,81.4,18.8,101.7-19.2c14.5-27.2,8.9-62.6-13.9-84.7c-16.9-16.4-37.2-23.1-60.3-18.5
	C431.8,263.7,410.3,291,410.2,324z"/>
<path class="st0" d="M483.9,106.1c7.4,0,14.9,0,22.3,0c1.1,0,2.2,0.1,3.2,0.3c3.7,0.8,6.4,4,6.6,7.7c0.2,3.9-2.5,7.4-6.4,8.4
	c-1.4,0.3-2.9,0.3-4.3,0.3c-14.2-0.2-28.3-0.5-42.5-0.7c-1.1,0-2.2-0.1-3.3-0.2c-4.7-0.7-7.8-4.1-7.6-8.4c0.1-4.3,3.4-7.7,8-8.1
	c2.7-0.2,5.4,0,8.2,0c5.3,0,10.5,0,15.8,0C483.9,105.6,483.9,105.8,483.9,106.1z"/>
<path class="st0" d="M690.6,114.6c0.1,7-4.8,11.9-11.9,12.1c-7.4,0.2-13.3-5.8-13.3-13.5c0-6.4,4.6-10.8,11.6-10.9
	C685,102.2,690.5,107.2,690.6,114.6z"/>
<path class="st0" d="M484,780.1c18,0,35.9,0,53.9,0c1.8,0,3.7,0,5.4,0.3c4.5,0.9,7.1,4.2,7.1,8.4c-0.1,4-2.6,7-6.9,7.9
	c-1.4,0.3-2.9,0.4-4.3,0.4c-37-0.2-74-0.5-111-0.5c-6.9,0-10.5-3.6-10.6-8.4c0-4.9,3.7-8.6,10.9-8.5c18.5,0.3,37,0.1,55.5,0.1
	C484,779.9,484,780,484,780.1z"/>
<path class="st2" d="M791.8,944.3c-66.1-0.1-121.2-46-132.6-109.2c-11.2-61.8,23.4-125,81.9-148.9c39.6-16.2,78.9-14.9,116.6,5.3
	c36.6,19.7,59.3,50.7,67.2,91.6c14.1,72.7-34.3,144.6-110.3,158.8C806.5,943.6,798.3,944.1,791.8,944.3z M791.4,692.4
	c-4.6,0-11.7,0.4-18.6,1.8c-55.8,10.5-92.2,55.2-97.8,102.2c-4.7,40.1,7.2,74.9,37.7,101.3c38.4,33.3,82.3,38.6,128.5,18.2
	c49.9-22,77.8-77.8,67-130.8C897.2,730.8,849.8,692.4,791.4,692.4z"/>
<path class="st1" d="M497.3,571.7c-57.3,0.9-99,1.6-140.8,2.2c-1.1,0-2.2-0.1-3.3,0.1c-2.5,0.3-3.4-0.9-3.9-3.3
	c-5.2-23.4,0.4-44.3,14.6-63.1c14.3-19,33.6-31.5,55.7-39.2c44.6-15.5,88.8-13.8,132,5.6c20.4,9.2,37.7,22.5,50.2,41.3
	c9.7,14.5,14.5,30.3,13.5,47.8c-0.1,1.1-0.2,2.2-0.2,3.3c-0.1,2.4-1.1,3.4-3.7,3.4c-5.3,0-10.5,0.4-15.8,0.4
	C557.6,570.8,519.7,571.4,497.3,571.7z"/>
<path class="st1" d="M410.2,324c0.1-32.9,21.6-60.2,53.2-66.5c23.2-4.6,43.5,2.2,60.3,18.5c22.8,22.1,28.4,57.5,13.9,84.7
	c-20.3,38-68.8,47.2-101.7,19.2C419.4,365.9,410.2,345.7,410.2,324z"/>
<path class="st2" d="M762.9,810c2.3-1.2,3.7-3.1,5.4-4.8c21.6-21.8,43.3-43.5,65.5-64.7c2-1.9,4.1-3.6,6.3-5.2c7.1-5,17-4.3,23,1.8
	c6.4,6.4,12.8,12.9,18.8,19.7c6.5,7.4,10.2,15.9,6.9,26c-1.6,4.8-4.9,8.4-8.4,11.9c-19.1,18.9-38.2,37.8-57.3,56.7
	c-8.6,8.6-17,17.4-25.8,25.8c-6.4,6.2-13.2,11.9-19.9,17.8c-1.2,1.1-2.6,1.9-4,2.8c-10.3,6.3-16.4,6-25.8-1.5
	c-3.6-2.8-6.9-5.9-10.1-9.1c-13.9-14.3-27.8-28.7-41.6-43.1c-4.3-4.5-7.9-9.5-11-14.8c-3.3-5.7-3.5-11.6,0.2-16.4
	c9-11.8,18.5-23.3,32.1-30.4c6.9-3.6,13.3-2.5,19.2,2.3c7.8,6.3,14.5,13.7,21.7,20.6C759.7,807,761.3,808.5,762.9,810z M750.3,843.1
	c-2.9-0.2-5.4-1.5-6.9-4.3c-1.6-3-1.4-6,0.5-8.8c1.4-1.9,3-3.6,4.8-5.2c2.1-1.8,2.2-3.1,0-5.2c-6.5-6.1-12.7-12.4-19.1-18.6
	c-4.1-3.9-7.2-4.3-11.6-1.1c-6.6,4.8-12.5,10.5-17.6,16.9c-2.7,3.4-2.7,4.8-0.2,8.3c3.1,4.3,6.2,8.5,9.9,12.3
	c13.1,13.1,26.1,26.3,39.2,39.4c1.5,1.5,3.2,3,4.9,4.3c2.8,2.1,5.8,2.6,9.3,1.6c3.2-0.9,6.1-2.3,8.7-4.3c4.2-3.2,7.9-6.9,11.6-10.7
	c28.2-29.8,58-58,87-87c4.3-4.3,4.7-7.4,0.6-12.1c-5.5-6.3-11.4-12.2-17.4-18c-3.4-3.3-4.6-3.2-8.4-0.3c-3.8,2.9-6.7,6.6-10,10
	c-23.9,24.3-47.8,48.7-71.7,73c-2.2,2.2-4.3,4.4-6.5,6.5C755.4,841.8,753.3,843,750.3,843.1z"/>
<path class="st3" d="M181.5,205.3l22,22c5.2,5.2,13.7,5.2,18.9,0l22-22c5.2-5.2,5.2-13.7,0-18.9l-22-22c-5.2-5.2-13.7-5.2-18.9,0
	l-22,22C176.2,191.6,176.2,200.1,181.5,205.3z"/>
<path class="st3" d="M181.5,269.4l22,22c5.2,5.2,13.7,5.2,18.9,0l22-22c5.2-5.2,5.2-13.7,0-18.9l-22-22c-5.2-5.2-13.7-5.2-18.9,0
	l-22,22C176.2,255.7,176.2,264.2,181.5,269.4z"/>
<path class="st2" d="M668.1,953.3l17.3,17.3c2.5,2.5,6.6,2.5,9.1,0l17.3-17.3c2.5-2.5,2.5-6.6,0-9.1l-17.3-17.3
	c-2.5-2.5-6.6-2.5-9.1,0l-17.3,17.3C665.6,946.7,665.6,950.8,668.1,953.3z"/>
<path class="st2" d="M784.5,862.7l17.3,17.3c2.5,2.5,6.6,2.5,9.1,0l17.3-17.3c2.5-2.5,2.5-6.6,0-9.1L811,836.3
	c-2.5-2.5-6.6-2.5-9.1,0l-17.3,17.3C782,856.1,782,860.2,784.5,862.7z"/>
<circle class="st4" cx="790.2" cy="808.2" r="171"/>
</svg>
