<?xml version="1.0" encoding="utf-8"?>
<!-- Generator: Adobe Illustrator 28.0.0, SVG Export Plug-In . SVG Version: 6.00 Build 0)  -->
<svg version="1.1" id="Capa_1" xmlns="http://www.w3.org/2000/svg" xmlns:xlink="http://www.w3.org/1999/xlink" x="0px" y="0px"
	 viewBox="0 0 1080 1080" style="enable-background:new 0 0 1080 1080;" xml:space="preserve">
<style type="text/css">
	.st0{fill:#070808;}
	.st1{fill:#FFFFFF;}
	.st2{fill:#FDFDFD;}
	.st3{fill:#DBB300;}
	.st4{fill:#6EE1EB;}
	.st5{fill:none;stroke:#DBB300;stroke-width:20;stroke-miterlimit:10;}
</style>
<path class="st0" d="M307.3,740.7c-0.1,0.5-0.3,1-0.4,1.5c-1,9-5.9,13.2-14.9,12.4c-7.8-0.6-15.5-1.5-23.3-2.4
	c-27.6-3.1-55.2-6.2-82.9-8.5c-15.7-1.3-31.4-3.3-46.9-6.1c-9.5-1.8-13-6.1-13.1-15.6c-0.5-68.8-1-137.7-1.4-206.5
	c0-2.2,0.1-4.4,0.3-6.5c0.7-8.5,5.3-14,13.8-16c9.1-2.1,18.4-2.3,27.6-2.8c14.7-0.8,29.4-1.1,44.1-1.8c10.4-0.5,17.8,3.8,22.5,13
	c1.2,2.4,2.4,4.9,3.5,7.4c1.7,3.6,1.7,3.7,5.7,2.6c14.1-3.7,28.3-6.3,42.7-8.6c17.4-2.7,34.7-1.9,52.1,0.7c7.7,1.2,15.4,2.6,23,4.3
	c22.8,5.4,43.6,15.6,63.8,27.2c18.3,10.4,36.7,20.6,54.5,31.9c4.2,2.7,7.2,2.7,11.5-0.3c30.2-21.1,60.6-41.9,90.9-62.8
	c18.9-13,47.3-13.2,66.4-0.4c4.7,3.2,4.7,3.2,9.6-0.1c23.9-16.3,52.8-10.7,68.1,2.1c1.4,1.2,2.5,2.2,4.7,1.1c13.7-7,28-7.1,42.4-3.1
	c11.9,3.3,22.4,9.2,31.1,18.2c1.4,1.5,2.6,2.7,5,2.1c18.1-4,33.6,1.6,47.1,13.7c7.5,6.7,12.6,14.9,14.7,24.9
	c2,9.4-0.7,17.1-8.2,23.2c-17.4,14.3-34.6,28.8-51.9,43.2c-0.8,0.7-1.6,1.4-2.9,2.5c2.2,1.1,4.4,1.1,6.4,1.2
	c15.3,0.5,29.7,5.1,43.7,10.5c45.5,17.4,79.1,48,99.1,92.7c20,44.8,21.1,90.7,2.6,136C933.5,932,888.2,970,824.4,983.1
	c-63.3,13-119.2-3.9-165.2-49.7c-28.2-28.1-43.9-62.7-48.4-102.3c-3.5-31.6,1.4-61.8,14.1-90.9c0.5-1.1,0.9-2.3,1.6-3.9
	c-2.2-0.3-3.6,1-5,1.7c-34,16.8-68.6,32-104.5,44.5c-15.8,5.5-32,9.6-48.7,10.9c-19.3,1.5-38-1.8-56.3-7.4
	c-19.5-5.9-37.9-14.6-56.3-23.1c-14.6-6.8-29.2-13.7-43.8-20.6C310.4,741.6,309.2,740.3,307.3,740.7z M742.8,637.7
	c-3.8-2.4-7.8-3.7-12-4.8c-13.9-3.7-28.2-5.2-42.5-6.4c-33.6-2.9-67.3-5.9-101-8.1c-19.7-1.2-39.4-4.1-58.3-10.4
	c-22.4-7.4-44-17-64.2-29.3c-18.4-11.3-37.3-21.8-56-32.5c-15.6-8.9-31.9-16.5-49.4-21c-9.3-2.4-18.8-4.1-28.3-5.4
	c-13.7-1.9-27.5-2.3-41.3-0.7c-11,1.3-21.8,3.7-32.7,5.4c-4.6,0.7-9.2,1.4-13.7,3.1c0.4,1.2,0.6,2,0.9,2.9
	c10.8,30.3,19.8,61.1,29.4,91.7c9.6,30.4,20.3,60.6,27.2,91.8c0.8,3.6,2.5,5.6,5.7,7.1c22.9,10.9,45.8,21.9,68.9,32.3
	c17.2,7.8,34.5,15.3,53,19.5c16.1,3.7,32.3,5.4,48.6,2.4c14.1-2.6,28-6.2,41.4-11.2c35.3-13,69.3-28.7,103.3-44.6
	c5.8-2.7,11.5-5.4,17.2-8c2.4-1.1,4-2.6,4.7-5.5c-5.5,0.5-10.5,0.9-15.6,1.3c-19.2,1.4-38.5,1.4-57.7-0.2c-11.8-1-23.3-3.7-35-5.3
	c-2-0.3-4-0.7-5.6-1.9c-2.4-1.8-3.5-4.2-3-7.1c0.5-3,2.2-4.8,5.1-5.8c1.6-0.6,3.2-0.3,4.8-0.2c15,1.6,29.9,3.7,45,4.4
	c25.1,1.1,50.1-0.2,75-3.8c3-0.4,5.4-1.6,7.6-3.8c6.8-6.8,14.3-12.9,22.1-18.5c15.9-11.4,33.5-19.5,52-25.6
	C740,639,741.4,638.8,742.8,637.7z M954,815.7c-0.1-30.8-4.2-51.7-12.9-71.6c-28.8-66.4-98-104.2-170.1-94.7
	c-38.5,5.1-71.9,21.5-98.6,49.9c-39.1,41.6-54,90.8-42.1,147c14.5,68.4,75.5,122.3,153.9,124.1c26.2,0.6,51.4-4.5,74.8-16.3
	C919.7,923.7,950.8,874.1,954,815.7z M620.8,603.2c4.3,0.5,7.3,0.9,10.3,1.2c18.6,1.6,37.3,3.1,55.9,4.9c2.6,0.2,4.4-0.4,6.4-1.9
	c30.8-23.7,61.7-47.3,92.5-70.9c1.4-1,3.2-1.7,3.8-3.8c-8-7.9-17.7-12.4-28.7-14.4c-11.7-2.1-22.1-0.6-32.1,7.2
	c-18.6,14.5-38.2,27.7-57.4,41.4C655.1,578.7,638.6,590.5,620.8,603.2z M715.4,612.5c3.8,0.6,7,1.1,10.2,1.7c11.5,2.3,23,5,31.9,13
	c5.8,5.2,11.4,6.6,18.6,4.8c2.2-0.5,4.1-1.1,5.8-2.6c2.4-2.2,5-4.2,7.5-6.3c20.1-16.7,40.1-33.5,60.4-50.1c3.2-2.6,3.8-5.5,2.8-9.1
	c-0.4-1.4-1-2.7-1.6-4c-5.9-11.7-16-17.9-28.3-21c-6.2-1.5-11.8-1.1-16.7,3.7c-1.5,1.5-3.6,2.5-5.3,3.8
	c-26.8,20.5-53.6,41-80.4,61.6C718.7,609.3,716.8,610.2,715.4,612.5z M555,596.2c0.7,1.2,1.6,1.3,2.5,1.4c11,1.4,21.9,2.8,32.9,4.3
	c2.7,0.4,4.5-0.8,6.4-2.2c37.3-26.7,74.6-53.5,111.9-80.2c1-0.7,2.4-1.1,2.5-2.7c-0.4-0.3-0.7-0.7-1.2-1c-7.9-4.6-16.6-6-25.6-6
	c-7,0-12.6,3.1-18.3,7.2c-30.9,22.3-62,44.3-93.1,66.3C567,587.6,561,591.9,555,596.2z M501.9,579c9.4,4.3,18.9,8.1,28.4,12
	c2.1,0.9,3.4-0.2,4.9-1.3c32.7-23.3,65.4-46.5,98.1-69.8c1.1-0.8,2.8-1.1,2.8-2.9c-6.8-4.4-15.4-6.4-26-6.4
	c-7.5,0-13.8,2.3-20.1,6.8c-27.7,19.6-55.8,38.6-83.7,57.9C504.7,576.2,502.9,576.9,501.9,579z"/>
<path class="st0" d="M641.8,213.7c0,19.2-0.1,38.5,0,57.7c0,4.3,0.7,8.7,0.8,13c0.7,27-6.3,52.1-18.6,75.8
	c-17.9,34.6-43.4,62-78,80.4c-12.7,6.8-26.3,11.5-40.6,13.2c-16.7,2-32.8-1-48.4-7.2c-25.5-10.2-46.6-26.4-64.5-47
	c-22.6-26-37.9-55.7-43.7-89.9c-1.9-11.1-2.5-22.4-1-33.6c0.2-1.4,0.1-2.9,0.1-4.4c0.1-38.1,0.2-76.3,0.2-114.4
	c0-1.6-0.1-3.3-0.1-4.9c-0.2-6.8,2.7-10,9.6-10.3c5.3-0.3,10.5-0.1,15.8-0.7c30.8-3.7,60.6-11.3,88.9-24.1
	c8.6-3.9,16.9-8.3,24.7-13.8c5.2-3.7,10.2-4.1,16.1-0.9c24,13.4,49.5,23.3,75.8,31.2c10.1,3,20.7,3.9,31,6
	c7.6,1.5,15.2,3.2,23.1,3.4c5.2,0.2,8.3,3.5,8.6,8.7c0.1,0.9,0,1.8,0,2.7c0,19.6,0,39.2,0,58.8C641.7,213.7,641.7,213.7,641.8,213.7
	z M485.3,123.4c-7.5,4.1-13.8,8.1-20.5,11.2c-24.1,11.1-49.6,17.2-75.5,21.8c-7,1.2-14,2.4-21.1,2.3c-2.3,0-3.4,0.8-3.2,3.2
	c0.1,0.9,0,1.8,0,2.7c-0.1,31.6-0.2,63.2-0.3,94.8c0,6.4-0.6,5.7,5.9,5.8c36.5,0.1,73,0.2,109.5,0.3c1.3,0,2.5,0,3.8,0
	c1.4,0,1.9-0.6,1.9-2c0-0.9,0-1.8,0-2.7c-0.2-43.9-0.3-87.9-0.5-131.8C485.3,127.5,485.3,125.9,485.3,123.4z M503.7,437
	c10.9-1.3,20.6-4.3,29.7-8.9c48.7-24.9,78.2-64.6,90.3-117.6c1.2-5.4,2.1-10.9,1.6-16.8c-1.3,0-2.2,0-3.1,0
	c-38.1,0.2-76.3,0.4-114.4,0.6c-0.9,0-1.8,0-2.7,0c-1.3,0-2,0.6-2,2c0,1.1,0,2.2,0,3.3c0.2,44.1,0.5,88.3,0.7,132.4
	C503.7,433.4,503.7,434.8,503.7,437z"/>
<path class="st1" d="M742.8,637.7c-1.4,1.2-2.8,1.4-4.2,1.8c-18.6,6-36.1,14.2-52,25.6c-7.8,5.6-15.3,11.7-22.1,18.5
	c-2.2,2.2-4.5,3.3-7.6,3.8c-24.9,3.6-49.8,4.9-75,3.8c-15.1-0.6-30-2.8-45-4.4c-1.6-0.2-3.2-0.4-4.8,0.2c-2.8,1-4.6,2.9-5.1,5.8
	c-0.5,3,0.7,5.3,3,7.1c1.6,1.3,3.6,1.6,5.6,1.9c11.7,1.7,23.2,4.4,35,5.3c19.2,1.6,38.5,1.7,57.7,0.2c5.1-0.4,10.1-0.9,15.6-1.3
	c-0.7,2.8-2.3,4.4-4.7,5.5c-5.8,2.6-11.5,5.4-17.2,8c-34,15.9-68.1,31.6-103.3,44.6c-13.5,5-27.3,8.6-41.4,11.2
	c-16.3,3-32.6,1.2-48.6-2.4c-18.5-4.2-35.8-11.8-53-19.5c-23.1-10.4-46-21.4-68.9-32.3c-3.3-1.6-5-3.5-5.7-7.1
	c-6.9-31.2-17.6-61.3-27.2-91.8c-9.6-30.6-18.7-61.4-29.4-91.7c-0.3-0.8-0.5-1.7-0.9-2.9c4.5-1.7,9.1-2.3,13.7-3.1
	c10.9-1.7,21.7-4.1,32.7-5.4c13.8-1.6,27.5-1.3,41.3,0.7c9.5,1.3,19,3,28.3,5.4c17.5,4.6,33.8,12.2,49.4,21
	c18.8,10.6,37.6,21.2,56,32.5c20.2,12.3,41.8,21.9,64.2,29.3c18.9,6.3,38.5,9.1,58.3,10.4c33.7,2.1,67.3,5.2,101,8.1
	c14.3,1.2,28.6,2.7,42.5,6.4C735,633.9,739,635.2,742.8,637.7z"/>
<path class="st2" d="M620.8,603.2c17.7-12.7,34.2-24.5,50.8-36.3c19.2-13.7,38.8-26.9,57.4-41.4c10.1-7.8,20.4-9.3,32.1-7.2
	c11,2,20.7,6.5,28.7,14.4c-0.7,2-2.5,2.7-3.8,3.8c-30.8,23.7-61.7,47.2-92.5,70.9c-2,1.5-3.8,2.2-6.4,1.9
	c-18.6-1.8-37.3-3.3-55.9-4.9C628.2,604.2,625.2,603.7,620.8,603.2z"/>
<path class="st2" d="M715.4,612.5c1.4-2.4,3.2-3.3,4.8-4.5c26.8-20.6,53.6-41.1,80.4-61.6c1.7-1.3,3.8-2.3,5.3-3.8
	c4.8-4.8,10.5-5.2,16.7-3.7c12.3,3.1,22.4,9.3,28.3,21c0.7,1.3,1.2,2.6,1.6,4c1,3.6,0.4,6.4-2.8,9.1c-20.2,16.6-40.3,33.4-60.4,50.1
	c-2.5,2.1-5.1,4.1-7.5,6.3c-1.7,1.5-3.6,2-5.8,2.6c-7.2,1.8-12.8,0.4-18.6-4.8c-8.9-8-20.4-10.6-31.9-13
	C722.4,613.6,719.2,613.2,715.4,612.5z"/>
<path class="st2" d="M555,596.2c6-4.3,12-8.6,18.1-12.9c31-22.1,62.2-44,93.1-66.3c5.6-4.1,11.3-7.2,18.3-7.2c9,0.1,17.7,1.4,25.6,6
	c0.4,0.3,0.8,0.7,1.2,1c-0.1,1.6-1.5,2-2.5,2.7c-37.3,26.7-74.6,53.5-111.9,80.2c-1.9,1.4-3.8,2.6-6.4,2.2
	c-11-1.5-21.9-2.9-32.9-4.3C556.6,597.5,555.7,597.4,555,596.2z"/>
<path class="st2" d="M501.9,579c1-2.1,2.8-2.7,4.3-3.7c27.9-19.3,56-38.4,83.7-57.9c6.3-4.4,12.6-6.7,20.1-6.8
	c10.6-0.1,19.2,2,26,6.4c0,1.8-1.7,2.2-2.8,2.9c-32.7,23.3-65.4,46.5-98.1,69.8c-1.5,1.1-2.8,2.2-4.9,1.3
	C520.8,587.1,511.2,583.3,501.9,579z"/>
<path class="st2" d="M485.3,123.4c0,2.5,0,4.1,0,5.6c0.2,43.9,0.3,87.9,0.5,131.8c0,0.9,0,1.8,0,2.7c0.1,1.3-0.5,2-1.9,2
	c-1.3,0-2.5,0-3.8,0c-36.5-0.1-73-0.2-109.5-0.3c-6.5,0-5.9,0.7-5.9-5.8c0.1-31.6,0.2-63.2,0.3-94.8c0-0.9,0.1-1.8,0-2.7
	c-0.2-2.4,0.9-3.2,3.2-3.2c7.1,0.1,14.1-1.1,21.1-2.3c25.9-4.6,51.5-10.7,75.5-21.8C471.6,131.5,477.8,127.5,485.3,123.4z"/>
<path class="st2" d="M503.7,437c0-2.2,0-3.6,0-5c-0.2-44.1-0.5-88.3-0.7-132.4c0-1.1,0-2.2,0-3.3c0-1.3,0.8-1.9,2-2
	c0.9,0,1.8,0,2.7,0c38.1-0.2,76.3-0.4,114.4-0.6c0.9,0,1.8,0,3.1,0c0.5,5.9-0.4,11.4-1.6,16.8c-12.1,53-41.7,92.7-90.3,117.6
	C524.4,432.7,514.7,435.7,503.7,437z"/>
<path class="st3" d="M792.3,944.3c-66.4,0.1-122-46.3-133.1-109.4c-10.4-59.2,20.1-119.1,74.7-145.3c41.7-20,83.8-19.6,124.5,2.4
	c36.4,19.6,58.7,50.7,66.5,91.5c13.9,72.6-34.4,144.5-110.6,158.6C806.4,943.5,798.4,944.1,792.3,944.3z M790,927.3
	c21.4,0,40.8-5,59.3-15.4c55.7-31.3,77.1-100.6,48.3-156.8c-24.7-48.2-80-72.6-133.7-59c-59.7,15.1-98.4,74.1-88.5,134.8
	C684.5,886.4,733,927.2,790,927.3z"/>
<path class="st3" d="M793.8,836.8c-17.7-0.1-32.4-14.6-32.2-32.2c0.1-17.3,14.3-31.3,31.7-31.3c18,0,32.6,14.6,32.4,32.5
	C825.6,823.1,811.4,836.9,793.8,836.8z M793.7,790.3c-8.1-0.2-14.8,6.1-15,14c-0.2,8.6,6.7,15.7,15.3,15.7c8.1,0,14.7-6.4,14.8-14.3
	C809,797.4,802.2,790.4,793.7,790.3z"/>
<path class="st3" d="M864.4,836.8c-17.8,0.1-32.3-14.2-32.4-31.9c0-17.4,13.9-31.4,31.3-31.6c18-0.1,32.9,14.5,32.8,32.2
	C896,822.8,881.9,836.7,864.4,836.8z M863.6,790.3c-8.1,0.1-14.7,6.5-14.8,14.4c-0.1,8.3,7.4,15.6,15.8,15.3
	c8.1-0.2,14.5-6.7,14.4-14.7C879.1,797,872.1,790.2,863.6,790.3z"/>
<path class="st3" d="M722.2,837.9c-17.8,0.1-32.4-14.3-32.5-31.9c-0.1-17.2,14.1-31.4,31.4-31.6c18.1-0.1,32.8,14.3,32.7,32.2
	C753.8,823.9,739.7,837.8,722.2,837.9z M736.9,806.6c0.1-8.3-6.8-15.2-15.2-15.3c-8.1-0.1-14.7,6.1-14.9,14.1
	c-0.2,8.5,6.8,15.6,15.4,15.6C730.3,821,736.8,814.6,736.9,806.6z"/>
<path class="st4" d="M316.6,519.9l22,22c5.2,5.2,13.7,5.2,18.9,0l22-22c5.2-5.2,5.2-13.7,0-18.9l-22-22c-5.2-5.2-13.7-5.2-18.9,0
	l-22,22C311.4,506.2,311.4,514.7,316.6,519.9z"/>
<path class="st4" d="M250.6,519.9l22,22c5.2,5.2,13.7,5.2,18.9,0l22-22c5.2-5.2,5.2-13.7,0-18.9l-22-22c-5.2-5.2-13.7-5.2-18.9,0
	l-22,22C245.4,506.2,245.4,514.7,250.6,519.9z"/>
<path class="st3" d="M650.9,942.4l17.3,17.3c2.5,2.5,6.6,2.5,9.1,0l17.3-17.3c2.5-2.5,2.5-6.6,0-9.1L677.3,916
	c-2.5-2.5-6.6-2.5-9.1,0l-17.3,17.3C648.4,935.8,648.4,939.9,650.9,942.4z"/>
<circle class="st5" cx="790.8" cy="808.8" r="171"/>
</svg>
