<?xml version="1.0" encoding="utf-8"?>
<!-- Generator: Adobe Illustrator 28.0.0, SVG Export Plug-In . SVG Version: 6.00 Build 0)  -->
<svg version="1.1" id="Capa_1" xmlns="http://www.w3.org/2000/svg" xmlns:xlink="http://www.w3.org/1999/xlink" x="0px" y="0px"
	 viewBox="0 0 1080 1080" style="enable-background:new 0 0 1080 1080;" xml:space="preserve">
<style type="text/css">
	.st0{fill:#090A0A;}
	.st1{fill:#FDFDFD;}
	.st2{fill:#29E4A5;}
	.st3{fill:#6EE1EB;}
	.st4{fill:none;stroke:#29E4A5;stroke-width:20;stroke-miterlimit:10;}
</style>
<path class="st0" d="M114.7,410.5c0,2.3,0,4.3,0,6.2c0.4,72.5,1.3,145,1,217.4c-0.2,44.5-0.1,89-0.4,133.5
	c-0.1,8.4-2.7,11.1-11.1,11.1c-11.6,0.1-23.3,0-34.9-0.1c-1.6,0-3.3-0.1-4.9-0.4c-6.7-1.2-9.5-4.4-9.4-11.2
	c0-45.2,0.1-90.5,0.2-135.7c0.1-46.7,0.1-93.4,0.2-140.1c0.1-63.2,0.2-126.4,0.3-189.6c0-1.1,0-2.2,0-3.3c0.1-9.7,2.9-13,12.5-13.2
	c11.4-0.3,22.9-0.3,34.3-0.1c8,0.1,11.4,3.8,11.4,12c0.1,15.4,0.1,30.9,0.1,46.3c0,4.5,0,4.5,4.5,5.4c23.5,4.8,46.4,11.6,69.5,18
	c38.1,10.6,76.4,20.2,115.1,28.3c8.5,1.8,16.9,4,25.4,6c5.2,1.3,5.2,1.3,5.2-4.3c-0.1-32.7-0.3-65.4-0.3-98.1c0-3.5-1-6-3.5-8.6
	c-50.4-52.6-100.7-105.2-151-157.9c-1.5-1.6-3-3.2-4.5-4.7c-8.5-9-10.9-19.7-6.9-31.2c4.3-12.1,13.6-18.3,26.3-19.7
	c7.3-0.8,13.4,0.9,19.1,5.7c19,16.1,37,33.2,55.2,50.2c16.9,15.7,33.8,31.4,50.5,47.3c2.4,2.3,4.9,3.2,8.2,3.2
	c57.6,0.2,115.2,0.4,172.7,0.8c3.7,0,6.4-1.1,9.2-3.5c33.7-29,67.5-58,101.4-86.9c6.3-5.4,13.2-10.2,21.5-12.4
	c11.6-3,21.3,0.9,29.2,9.1c7.9,8.3,8.6,18.4,4.9,29c-2.1,6-5.7,10.8-10.1,15.3c-42,43-84,86.1-126,129.1
	c-9.9,10.1-19.8,20.3-29.7,30.4c-1.8,1.9-3.1,3.7-3,6.6c0.2,32.3,0.2,64.7,0.3,97c0,0.7,0.1,1.4,0.2,2.4c4.7,0,9-1.5,13.3-2.5
	c41.1-9.6,82.5-18.3,123.3-29.4c22.1-6,44-12.2,66.3-17.5c0.4-0.1,0.7-0.1,1.1-0.2c6.4-1.8,6.4-1.8,6.5-8.3c0-14.7,0-29.4,0-44.1
	c0-2.4,0-4.7,1.1-6.9c1.7-3.5,4.7-4.8,8.4-5c9.1-0.6,18.2-0.2,27.2-0.1c4,0,8,0.2,12,0.3c6,0.2,9,3,9.5,9c0.2,1.8,0.1,3.6,0.1,5.4
	c0.6,108.6,1.1,217.2,1.7,325.9c0,6.6,0,6.5,6.7,5.8c11.4-1.1,22.9-1.2,34.3-0.2c38.6,3.4,72.8,17.7,101.9,43.2
	c34.3,30,53.9,67.9,58.9,113.2c8,72.6-31.1,144.7-99.3,179.1c-30,15.1-61.9,21.8-95.4,19.4c-45.8-3.4-85.2-21.3-117.2-54.6
	c-27.2-28.3-43.4-62.2-47-101.3c-6-64.9,17.4-117.9,67.3-159.5c8.1-6.8,16.8-12.7,26.2-17.4c2.6-1.3,3.3-2.9,3.2-5.5
	c-0.2-2.4,0-4.7,0-7.1c0.1-75.4,0.2-150.8,0.3-226.2c0-1.8,0-3.6,0-5.3c-1.3-1-2.3-0.3-3.3,0c-36.9,10.9-73.7,21.7-111.2,30.2
	c-30.9,7.1-61.8,14.2-92.8,21.2c-2.6,0.6-3.2,1.6-3.1,3.9c0.1,12,0.1,24,0.1,36c0,30.2,0.1,60.3,0.2,90.5c0,3.3-0.2,6.5-1.6,9.6
	c-2,4.4-4.4,6-9.3,5.9c-18.9-0.2-37.8-0.4-56.7-0.7c-5-0.1-4.6-0.4-4.6,4.7c-0.3,43.4-1.4,86.8-0.6,130.2
	c0.5,28.9-29.6,54.1-62.2,44.1c-15.6-4.8-26.8-17.4-27.4-36.6c-0.5-14.5-0.5-29.1-0.5-43.6c-0.2-78.3-0.4-156.6-0.6-234.9
	c0-6.2,0-6.2-6-7.7c-23.5-6.1-47.4-10.7-71.1-16.2c-31.6-7.4-62.8-16.2-94.1-24.8c-14-3.9-28-7.7-42.1-10.8
	C119,410.7,117.2,410.2,114.7,410.5z M403.7,224.5c-7.8-2.9-9.3-4.9-9.4-13c-0.1-2.9-0.1-5.8,0.1-8.7c0.1-2.2-0.8-2.9-2.9-2.8
	c-1.1,0.1-2.2,0-3.3,0c-20.5,0-41-0.2-61.6-0.1c-7.3,0-13.3-1.9-18.6-7.3c-6.6-6.8-13.7-13-20.6-19.4c-27.7-26-55.4-51.9-83.1-77.9
	c-1.5-1.4-3-2.8-5-3c-5.2-0.4-9.8,1-13.2,5c-3.4,4-4.4,8.6-2.4,13.7c1.1,2.8,3,4.9,5,7c9.6,10,19.1,19.9,28.6,29.9
	c43.3,45.3,86.7,90.5,130,135.8c3.1,3.2,5,6.6,3.3,11.3c-0.4,1.1-0.3,2.5-0.3,3.8c0.1,34.3,0.1,68.7,0.2,103c0,4,0,4.1,4,4.7
	c16.3,2.7,32.7,4.6,49.3,4.9c8.5,0.2,17.1,0.4,25.6-0.4c16.1-1.6,32-4.5,47.9-7.1c2.2-0.4,3.4-0.9,3.2-3.3c-0.1-0.9,0-1.8,0-2.7
	c-0.1-31.8-0.1-63.6-0.2-95.4c0-1.6,0.2-3.3-0.2-4.9c-1-4.6,0.7-8,3.8-11.2c53.7-54.9,107.3-110,161-164.9c2.8-2.8,4.5-6.1,5.7-9.7
	c1.6-5,0.1-9.3-4.1-12.5c-5.4-4-10.5-4.2-16.1-0.6c-2,1.3-3.8,2.7-5.6,4.3c-35.7,30.6-71.5,61.1-107.1,91.9c-4.6,4-9.3,5.7-15.3,5.6
	c-20.5-0.3-41-0.3-61.6-0.3c-2,0-4-0.5-6.3,0.6c0.3,4,0.7,8.1,0.9,12.2c0.2,3.8-0.6,7.8-4.2,9.4c-3.9,1.7-3.8,4-3.1,7.2
	c0.4,1.6,0.6,3.2,0.9,4.8c5.5,29.2,10.7,58.5,16.6,87.7c1.1,5.7,0,9.9-3.6,13.9c-5.3,5.9-10.5,12.1-16,17.8
	c-4.3,4.5-10.1,5.8-15.4,0.8c-1.3-1.2-2.7-2.4-4-3.7c-5.4-5.4-10.6-11-16.7-15.7c-4.9-3.8-6.2-8.4-5-14.4
	C391.3,289,397.4,256.9,403.7,224.5z M954,815.2c-0.2-33.1-5.4-56.2-16.1-78.1c-30.7-62.4-97.9-96.9-166.9-87.6
	c-38.5,5.2-71.8,21.6-98.5,49.9c-38.7,41.1-53.8,89.9-42.4,145.4c14.8,71.8,77.8,123.9,154.4,125.5c26,0.5,51-4.5,74.3-16.1
	C919.6,923.9,950.9,874.2,954,815.2z M479.9,465.2c-0.8,0.1-1.3,0.2-1.9,0.2c-16.1,2.8-32.2,5.9-48.5,7c-24.2,1.7-48.3,0-72.2-3.9
	c-6.6-1.1-6.6-1.1-6.6,5.3c0.3,90.1,0.6,180.2,0.9,270.3c0,1.1,0,2.2,0,3.3c0.7,13.5,8.9,22.3,21.9,23.4c4.9,0.4,9.8-0.1,14.5-1.6
	c13.1-4.1,19.6-12.8,19.7-26.4c0.6-82.8,1.1-165.6,1.6-248.5c0-2.2-0.2-4.4,0.4-6.5c1.1-4,4.6-6.7,8.4-6.5c3.9,0.2,7.1,3,7.8,7.1
	c0.4,2.3,0.3,4.7,0.3,7.1c-0.2,30-0.4,59.9-0.6,89.9c0,4.4,0,4.4,4.4,4.5c15.4,0.1,30.9,0.2,46.3,0.2c0.7,0,1.5,0,2.2,0
	c1.5,0.1,2.4-0.5,2.4-2.2c0-1.1,0-2.2,0-3.3c-0.1-38.1-0.2-76.3-0.4-114.4C480.6,468.8,481,467.1,479.9,465.2z M98.6,565.8
	c-0.2-39.9-0.6-97.5-1-155c0-0.9-0.1-1.8,0-2.7c0.2-2.1-0.7-2.9-2.8-2.8c-5.3,0.2-10.5,0.3-15.8,0.5c-6.6,0.2-6.6,0.3-6.6,6.8
	c-0.4,83.3,0.2,166.6-0.6,250c-0.3,31.2-0.2,62.5-0.3,93.7c0,1.3,0,2.5,0,3.8c0,1.5,0.6,2.4,2.2,2.4c7.4,0.1,14.9,1,22.3,0.2
	c1.8-0.2,2.6-0.8,2.5-2.6c-0.1-0.9,0-1.8,0-2.7C98.6,699.2,98.6,641.3,98.6,565.8z M724.4,644.1c7.9-2.5,14.9-4.8,22-6.8
	c6-1.7,4.9-1,4.9-6.4c-0.4-72.3-0.8-144.5-1.2-216.8c0-0.7,0-1.5,0-2.2c-0.1-4.8-0.1-4.8-4.7-4.8c-4.9,0-9.8,0-14.7,0
	c-6.9,0.1-6.1-0.8-6.1,6.1c-0.1,75-0.2,150-0.3,225C724.4,639.9,724.4,641.8,724.4,644.1z M114.4,365.7c0,8.4,0,16.7,0,25.1
	c0,2.5,1.8,2.3,3.3,2.6c9.8,1.9,19.5,4.3,29.1,6.9c28.7,7.7,57.4,15.6,86.1,23.3c29.6,8,59.8,13.5,89.6,20.7
	c3.7,0.9,7.2,2.3,11.5,2.4c0-8.5,0-16.8,0-25.1c0-2-1.4-2.2-2.9-2.5c-5.8-1.4-11.6-3-17.4-4.3c-35.5-8.1-71.2-15.6-106.3-25.2
	c-27.3-7.5-54.4-15.5-81.9-22.1C121.9,366.7,118.5,365.4,114.4,365.7z M497.4,445.2c11.5-2.6,22.3-4.9,33-7.5
	c30.7-7.3,61.5-14,92-21.8c21.4-5.5,42.5-12.3,64-17.2c6-1.4,11.9-3,17.9-4.7c1.7-0.5,3.6-0.8,3.6-3.3c0-8.6,0-17.3,0-25.7
	c-1.5-0.5-2.3,0-3.2,0.2c-35.2,10.5-70.5,20.8-106.4,29.1c-32.6,7.6-65.3,15-98,22.4c-2.2,0.5-3.1,1.2-3,3.4
	C497.5,428.3,497.4,436.2,497.4,445.2z M350.6,422.8c0,8.2-0.1,15.3,0,22.4c0.1,6.8-0.8,5.3,5.3,6.4c13.4,2.3,26.9,3.9,40.6,4.4
	c12.2,0.5,24.3,0.8,36.4-0.6c12.6-1.4,25.1-3.6,37.7-5.6c3.2-0.5,7.3,0.1,9.2-2.2c2-2.3,0.6-6.3,0.7-9.5c0.1-5.8,0-11.5,0-18.1
	C437.2,430,394.3,431.1,350.6,422.8z M415.8,254.7c-0.2,0-0.4,0-0.6,0c-0.4,1.8-0.9,3.5-1.2,5.3c-3.6,18.5-6.8,37-11,55.4
	c-1.6,7.1-0.9,12,5.6,15.8c3.4,2,5.4,5.8,9.1,7.5c2.9-2.7,5.7-5.5,8.8-8.1c2.6-2.1,2.9-4.5,2.3-7.6c-2.3-11.4-4.3-22.8-6.5-34.1
	C420.1,277.4,417.9,266,415.8,254.7z M725.5,302.7c-0.2,0.5-0.5,0.8-0.5,1.2c-0.1,14-0.1,27.9-0.2,41.9c0,2.2,1,2.7,3,2.7
	c6,0.1,12,0.3,17.9,0.5c3.8,0.1,3.9,0.2,3.9-3.7c0-13.2-0.1-26.5-0.2-39.7c0-0.5,0-1.1,0-1.6c0-1.6-0.7-2.2-2.3-2.1
	C739.9,302.1,732.7,302.4,725.5,302.7z M97.5,325c-0.1,0-0.2,0-0.3,0c0-6.7-0.1-13.4,0-20.1c0-2.3-0.7-3.2-3.2-3
	c-6.3,0.3-12.7,0.5-19,0.6c-1.9,0-2.5,0.8-2.5,2.6c0,13.4,0,26.8,0,40.2c0,2.2,1,2.8,3,2.7c6.3-0.1,12.7-0.2,19-0.2
	c2.4,0,3.1-1,3-3.3C97.4,338,97.5,331.5,97.5,325z M749.9,377.3c0,0-0.1,0-0.1,0c0-3.1-0.1-6.2,0-9.2c0.1-2.7-0.5-3.9-3.6-3.7
	c-6.1,0.3-12.3,0.3-18.4,0.3c-2.4,0-3.1,0.9-3.1,3.2c0.1,6.3,0.1,12.7,0,19c0,2.2,0.4,3.4,3,3.3c6.5-0.1,13-0.1,19.5-0.1
	c2.1,0,2.8-0.8,2.8-2.9C749.8,383.8,749.9,380.6,749.9,377.3z M85.2,364.6C85.2,364.6,85.2,364.6,85.2,364.6c-3.1,0-6.1,0.2-9.2,0
	c-2.4-0.1-3.6,0.4-3.5,3.2c0.2,6,0.1,11.9,0,17.9c-0.1,2.3,0.6,3.2,3,3.1c6.3-0.2,12.6-0.3,19-0.3c2.3,0,3.3-0.6,3.2-3.1
	c-0.1-6-0.2-11.9,0-17.9c0.1-2.5-1-3.1-3.2-3C91.3,364.7,88.3,364.6,85.2,364.6z"/>
<path class="st0" d="M482.8,103c-0.1,35.9-28.6,64.8-64,64.8c-35.9,0-65.1-29.6-65-65.9c0.2-35.7,28.9-64.6,64.4-64.5
	C454.1,37.6,482.8,66.9,482.8,103z M466,103.2c0.1-27-21.4-49-47.8-49.1c-26.3,0-47.3,21.4-47.4,48.1c0,26.9,21.2,48.6,47.5,48.8
	C444.7,151.1,465.9,129.8,466,103.2z"/>
<path class="st1" d="M403.7,224.5c-6.3,32.4-12.4,64.4-18.7,96.5c-1.2,6,0.1,10.6,5,14.4c6,4.7,11.3,10.3,16.7,15.7
	c1.3,1.3,2.7,2.5,4,3.7c5.4,5,11.1,3.6,15.4-0.8c5.5-5.8,10.7-11.9,16-17.8c3.6-4,4.8-8.2,3.6-13.9c-5.8-29.2-11.1-58.4-16.6-87.7
	c-0.3-1.6-0.6-3.2-0.9-4.8c-0.7-3.2-0.8-5.5,3.1-7.2c3.6-1.5,4.4-5.5,4.2-9.4c-0.2-4.1-0.6-8.2-0.9-12.2c2.3-1.1,4.3-0.6,6.3-0.6
	c20.5,0,41,0,61.6,0.3c6,0.1,10.7-1.6,15.3-5.6c35.6-30.8,71.3-61.3,107.1-91.9c1.8-1.5,3.7-3,5.6-4.3c5.6-3.7,10.7-3.4,16.1,0.6
	c4.2,3.1,5.8,7.5,4.1,12.5c-1.2,3.6-2.9,6.9-5.7,9.7c-53.7,54.9-107.3,110-161,164.9c-3.2,3.3-4.9,6.6-3.8,11.2
	c0.3,1.6,0.2,3.3,0.2,4.9c0.1,31.8,0.1,63.6,0.2,95.4c0,0.9-0.1,1.8,0,2.7c0.2,2.4-1,2.9-3.2,3.3c-15.9,2.6-31.8,5.5-47.9,7.1
	c-8.5,0.9-17.1,0.6-25.6,0.4c-16.5-0.4-32.9-2.2-49.3-4.9c-3.9-0.7-4-0.8-4-4.7c-0.1-34.3-0.2-68.7-0.2-103c0-1.3-0.2-2.6,0.3-3.8
	c1.7-4.6-0.3-8.1-3.3-11.3c-43.3-45.3-86.7-90.5-130-135.8c-9.5-10-19.1-19.9-28.6-29.9c-2-2.1-3.9-4.3-5-7c-2-5.1-1-9.7,2.4-13.7
	c3.4-4,8-5.4,13.2-5c2,0.2,3.5,1.6,5,3c27.7,26,55.4,51.9,83.1,77.9c6.9,6.5,14,12.7,20.6,19.4c5.2,5.4,11.3,7.4,18.6,7.3
	c20.5-0.1,41,0,61.6,0.1c1.1,0,2.2,0.1,3.3,0c2.1-0.2,3,0.6,2.9,2.8c-0.1,2.9-0.1,5.8-0.1,8.7C394.4,219.6,395.8,221.6,403.7,224.5z
	"/>
<path class="st1" d="M479.9,465.2c1.1,1.8,0.7,3.5,0.7,5.1c0.1,38.1,0.3,76.3,0.4,114.4c0,1.1,0,2.2,0,3.3c0,1.7-0.8,2.3-2.4,2.2
	c-0.7,0-1.5,0-2.2,0c-15.4-0.1-30.9-0.1-46.3-0.2c-4.4,0-4.5-0.1-4.4-4.5c0.2-30,0.4-59.9,0.6-89.9c0-2.4,0.1-4.7-0.3-7.1
	c-0.7-4.1-3.9-6.9-7.8-7.1c-3.8-0.2-7.2,2.5-8.4,6.5c-0.6,2.1-0.4,4.3-0.4,6.5c-0.6,82.8-1.1,165.6-1.6,248.5
	c-0.1,13.6-6.6,22.3-19.7,26.4c-4.7,1.5-9.6,2-14.5,1.6c-13-1.1-21.2-10-21.9-23.4c-0.1-1.1,0-2.2,0-3.3
	c-0.3-90.1-0.6-180.2-0.9-270.3c0-6.5,0-6.4,6.6-5.3c23.9,3.9,48,5.5,72.2,3.9c16.3-1.1,32.4-4.3,48.5-7
	C478.6,465.4,479.1,465.4,479.9,465.2z"/>
<path class="st1" d="M98.6,565.8c0,75.5,0,133.4,0,191.3c0,0.9-0.1,1.8,0,2.7c0.1,1.8-0.7,2.5-2.5,2.6c-7.5,0.8-14.9-0.1-22.3-0.2
	c-1.6,0-2.3-0.8-2.2-2.4c0-1.3,0-2.5,0-3.8c0.1-31.2,0-62.5,0.3-93.7c0.8-83.3,0.2-166.6,0.6-250c0-6.5,0-6.5,6.6-6.8
	c5.3-0.2,10.5-0.2,15.8-0.5c2.1-0.1,3,0.8,2.8,2.8c-0.1,0.9,0,1.8,0,2.7C98,468.3,98.4,525.9,98.6,565.8z"/>
<path class="st1" d="M724.4,644.1c0-2.3,0-4.1,0-5.9c0.1-75,0.2-150,0.3-225c0-6.9-0.8-6.1,6.1-6.1c4.9,0,9.8,0,14.7,0
	c4.6,0,4.6,0,4.7,4.8c0,0.7,0,1.5,0,2.2c0.4,72.3,0.8,144.5,1.2,216.8c0,5.4,1.1,4.7-4.9,6.4C739.3,639.3,732.3,641.6,724.4,644.1z"
	/>
<path class="st1" d="M114.4,365.7c4-0.2,7.5,1,11,1.8c27.5,6.5,54.6,14.6,81.9,22.1c35.2,9.7,70.8,17.1,106.3,25.2
	c5.8,1.3,11.6,2.9,17.4,4.3c1.5,0.4,2.9,0.6,2.9,2.5c0,8.3,0,16.6,0,25.1c-4.2-0.1-7.8-1.5-11.5-2.4c-29.8-7.2-60-12.7-89.6-20.7
	c-28.7-7.7-57.4-15.6-86.1-23.3c-9.6-2.6-19.3-5-29.1-6.9c-1.6-0.3-3.3-0.1-3.3-2.6C114.5,382.4,114.4,374.1,114.4,365.7z"/>
<path class="st1" d="M497.4,445.2c0-9,0.1-16.9,0-24.9c0-2.3,0.8-2.9,3-3.4c32.7-7.4,65.4-14.8,98-22.4
	c35.8-8.3,71.1-18.7,106.4-29.1c0.9-0.3,1.7-0.7,3.2-0.2c0,8.4,0,17.1,0,25.7c0,2.5-1.9,2.9-3.6,3.3c-5.9,1.6-11.9,3.3-17.9,4.7
	c-21.6,4.9-42.6,11.7-64,17.2c-30.6,7.8-61.4,14.4-92,21.8C519.7,440.2,508.9,442.6,497.4,445.2z"/>
<path class="st1" d="M350.6,422.8c43.7,8.3,86.5,7.2,129.9-2.8c0,6.5,0.1,12.3,0,18.1c-0.1,3.2,1.3,7.2-0.7,9.5
	c-2,2.2-6.1,1.7-9.2,2.2c-12.5,2-25,4.2-37.7,5.6c-12.2,1.4-24.3,1.1-36.4,0.6c-13.6-0.5-27.1-2.2-40.6-4.4c-6.1-1-5.2,0.4-5.3-6.4
	C350.6,438.1,350.6,431,350.6,422.8z"/>
<path class="st1" d="M415.8,254.7c2.2,11.4,4.3,22.7,6.5,34.1c2.2,11.4,4.2,22.8,6.5,34.1c0.6,3.1,0.3,5.5-2.3,7.6
	c-3.1,2.5-5.9,5.4-8.8,8.1c-3.7-1.7-5.7-5.5-9.1-7.5c-6.5-3.8-7.2-8.8-5.6-15.8c4.1-18.4,7.3-36.9,11-55.4c0.3-1.8,0.8-3.5,1.2-5.3
	C415.3,254.7,415.5,254.7,415.8,254.7z"/>
<path class="st1" d="M725.5,302.7c7.1-0.3,14.4-0.5,21.6-0.9c1.6-0.1,2.4,0.6,2.3,2.1c0,0.5,0,1.1,0,1.6c0.1,13.2,0.2,26.5,0.2,39.7
	c0,3.9-0.1,3.8-3.9,3.7c-6-0.2-12-0.4-17.9-0.5c-1.9,0-3-0.5-3-2.7c0.1-14,0.1-27.9,0.2-41.9C725,303.5,725.3,303.2,725.5,302.7z"/>
<path class="st1" d="M97.5,325c0,6.5-0.1,13,0,19.6c0,2.3-0.6,3.3-3,3.3c-6.3,0-12.7,0.1-19,0.2c-2,0-3-0.6-3-2.7
	c0.1-13.4,0.1-26.8,0-40.2c0-1.8,0.6-2.6,2.5-2.6c6.3-0.1,12.7-0.3,19-0.6c2.4-0.1,3.2,0.7,3.2,3c-0.1,6.7,0,13.4,0,20.1
	C97.3,325,97.4,325,97.5,325z"/>
<path class="st1" d="M749.9,377.3c0,3.3-0.1,6.5,0,9.8c0.1,2.1-0.6,2.9-2.8,2.9c-6.5-0.1-13-0.1-19.5,0.1c-2.5,0-3-1.2-3-3.3
	c0.1-6.3,0.1-12.7,0-19c0-2.3,0.7-3.2,3.1-3.2c6.1,0.1,12.3,0,18.4-0.3c3-0.1,3.7,1.1,3.6,3.7c-0.2,3.1,0,6.1,0,9.2
	C749.8,377.3,749.9,377.3,749.9,377.3z"/>
<path class="st1" d="M85.2,364.6c3.1,0,6.1,0.1,9.2,0c2.2-0.1,3.2,0.5,3.2,3c-0.1,6-0.1,11.9,0,17.9c0.1,2.4-0.9,3.1-3.2,3.1
	c-6.3,0-12.6,0.1-19,0.3c-2.4,0.1-3.1-0.8-3-3.1c0.1-6,0.2-11.9,0-17.9c-0.1-2.8,1.1-3.3,3.5-3.2C79,364.8,82.1,364.7,85.2,364.6
	C85.2,364.6,85.2,364.6,85.2,364.6z"/>
<path class="st1" d="M466,103.2c-0.1,26.6-21.3,47.9-47.7,47.8c-26.3-0.1-47.5-21.9-47.5-48.8c0-26.7,21.1-48.1,47.4-48.1
	C444.6,54.2,466.1,76.2,466,103.2z"/>
<path class="st2" d="M791.8,944.3c-66.1-0.1-121.1-45.9-132.6-109.1c-11.3-61.7,23.4-125,81.8-148.9c39.8-16.3,79.3-14.9,117.1,5.5
	c36.4,19.7,58.9,50.6,66.7,91.4C938.9,856,890.5,927.8,814.6,942C806.5,943.5,798.4,944.1,791.8,944.3z M792.4,692.4
	c-17-0.1-34.6,4.1-51.4,12.3c-58.3,28.5-83.4,98.9-56.1,156.3c28.4,59.7,100,83.2,159.2,53.7c49.2-24.5,75.4-79,63.6-131.5
	C895.7,729.6,849.2,692.5,792.4,692.4z"/>
<path class="st2" d="M762.8,810c2.4-1.2,3.8-3.1,5.4-4.7c21.6-21.7,43.3-43.5,65.5-64.7c1.8-1.7,3.8-3.4,5.8-4.9
	c7.4-5.4,17.4-4.7,23.9,1.8c6.1,6.2,12.3,12.4,18.1,18.9c6.7,7.5,10.6,16,7.3,26.4c-1.6,4.8-4.9,8.4-8.4,11.9
	c-19,18.8-38,37.5-56.9,56.3c-8.9,8.8-17.5,17.9-26.5,26.6c-6.3,6-12.9,11.7-19.5,17.4c-0.9,0.8-2,1.5-3.1,2.2
	c-11,7-17.6,6.7-27.6-1.5c-3.2-2.6-6.3-5.5-9.2-8.5c-13.9-14.3-27.8-28.7-41.6-43.1c-4.3-4.5-7.9-9.4-11-14.8
	c-3.3-5.7-3.5-11.6,0.1-16.4c9-11.9,18.5-23.3,32.1-30.4c6.9-3.6,13.3-2.5,19.2,2.3c7.8,6.3,14.5,13.7,21.7,20.6
	C759.7,807,761.3,808.5,762.8,810z M750.7,823.8c-7.8-8.4-14.7-15.9-21.8-23.2c-3.4-3.5-6.6-3.7-10.7-0.7
	c-6.8,4.9-12.8,10.7-18,17.3c-2.5,3.2-2.5,4.6-0.2,7.8c3,4.3,6.2,8.5,9.9,12.3c13.2,13.3,26.4,26.5,39.6,39.8
	c1.3,1.3,2.6,2.5,4.1,3.6c3.2,2.6,6.7,3.2,10.7,1.9c2.8-0.9,5.4-2.2,7.7-3.9c4-2.9,7.5-6.3,10.9-9.9c28.7-30.3,59-59.1,88.6-88.5
	c3.4-3.4,4-6.7,0.9-10.5c-5.9-7.1-12.6-13.6-19.2-20c-2-1.9-4.1-1.9-6.3-0.2c-2.3,1.7-4.4,3.7-6.5,5.8c-9.6,9.9-19.1,19.9-28.8,29.7
	c-11,11.1-22.2,22-32.9,33.4c-6.5,6.9-13.2,13.5-19.9,20.2c-5.2,5.2-9.9,5.8-13.8,2.1c-3.9-3.7-3.2-8.9,2.1-14.2
	C748.3,825.3,749.9,824.4,750.7,823.8z"/>
<path class="st3" d="M312.4,533.4l20.4,20.4c4.9,4.8,12.7,4.8,17.5,0l20.4-20.4c4.9-4.8,4.9-12.7,0-17.5l-20.4-20.4
	c-4.9-4.9-12.7-4.9-17.5,0l-20.4,20.4C307.5,520.7,307.5,528.5,312.4,533.4z"/>
<path class="st3" d="M312.4,592.9l20.4,20.4c4.9,4.8,12.7,4.8,17.5,0l20.4-20.4c4.9-4.8,4.9-12.7,0-17.5L350.3,555
	c-4.9-4.8-12.7-4.8-17.5,0l-20.4,20.4C307.5,580.2,307.5,588.1,312.4,592.9z"/>
<path class="st2" d="M661.3,950l17.3,17.3c2.5,2.5,6.6,2.5,9.1,0L705,950c2.5-2.5,2.5-6.6,0-9.1l-17.3-17.3c-2.5-2.5-6.6-2.5-9.1,0
	l-17.3,17.3C658.8,943.4,658.8,947.5,661.3,950z"/>
<path class="st2" d="M779.7,866.6l17.3,17.3c2.5,2.5,6.6,2.5,9.1,0l17.3-17.3c2.5-2.5,2.5-6.6,0-9.1l-17.3-17.3
	c-2.5-2.5-6.6-2.5-9.1,0l-17.3,17.3C777.1,860,777.1,864,779.7,866.6z"/>
<circle class="st4" cx="790.2" cy="809.9" r="171"/>
</svg>
