<?xml version="1.0" encoding="utf-8"?>
<!-- Generator: Adobe Illustrator 28.0.0, SVG Export Plug-In . SVG Version: 6.00 Build 0)  -->
<svg version="1.1" id="Capa_1" xmlns="http://www.w3.org/2000/svg" xmlns:xlink="http://www.w3.org/1999/xlink" x="0px" y="0px"
	 viewBox="0 0 1080 1080" style="enable-background:new 0 0 1080 1080;" xml:space="preserve">
<style type="text/css">
	.st0{fill:#090A0A;}
	.st1{fill:#FDFDFD;}
	.st2{fill:#DBB300;}
	.st3{fill:#6EE1EB;}
	.st4{fill:none;stroke:#DBB300;stroke-width:20;stroke-miterlimit:10;}
</style>
<path class="st0" d="M114.7,410.5c0,2.4,0,4.3,0,6.3c0.4,72.3,1.3,144.6,1,216.9c-0.2,44.7-0.1,89.3-0.4,134
	c-0.1,8.3-2.7,11-11.1,11.1c-11.6,0.1-23.3-0.1-34.9-0.1c-2.2,0-4.4-0.2-6.5-0.8c-5.1-1.4-7.6-4.5-7.8-9.8c-0.1-1.5,0-2.9,0-4.4
	c0-40.7,0-81.4,0.1-122.1c0.2-114.1,0.5-228.1,0.6-342.2c0-11,4.2-14.4,14.3-14.4c10.5,0,21.1-0.1,31.6,0
	c9.1,0.1,12.4,3.5,12.4,12.7c0.1,15.3,0.1,30.5,0.1,45.8c0,4.4,0,4.4,4,5.2c25.4,5.2,50.3,12.5,75.3,19.6
	c39.5,11.1,79.4,20.2,119.4,29c5.5,1.2,10.9,2.7,16.4,4c4.5,1.1,4.6,1.1,4.6-3.5c0-11.8-0.1-23.6-0.1-35.4
	c-0.1-21.4-0.2-42.9-0.2-64.3c0-3.1-1-5.4-3.1-7.7c-51-53.2-102-106.6-152.9-159.9c-4.3-4.5-8.4-8.9-10.2-15.2
	c-5.5-18.7,6.3-36.6,25.7-38.8c7.9-0.9,14.5,0.7,20.6,6c18.9,16.2,37,33.3,55.2,50.3c16.7,15.6,33.5,31.2,50.1,46.9
	c2.5,2.3,4.9,3.1,8.2,3.1c57.4,0.2,114.8,0.4,172.2,0.8c3.9,0,6.8-1,9.8-3.5c33.7-29.1,67.5-58,101.3-86.9
	c6.3-5.4,13.2-10.2,21.5-12.3c11.6-2.9,21.3,0.9,29.1,9.1c7.9,8.3,8.6,18.4,4.8,29c-2.1,6-5.8,10.8-10.1,15.3
	c-42.1,43.1-84.2,86.3-126.3,129.5c-9.8,10-19.5,20-29.3,30c-1.9,1.9-3,3.8-3,6.6c0.2,32.3,0.2,64.7,0.3,97c0,0.7,0.2,1.4,0.3,2.5
	c6.8-0.7,13.3-2.4,19.7-4c37.7-9.1,75.8-16.9,113.2-27c23.5-6.3,46.8-13.1,70.5-18.6c0.4-0.1,0.7-0.2,1.1-0.3
	c5.9-1.7,5.9-1.7,5.9-7.7c0-15.1,0-30.2,0-45.2c0-3,0.3-5.8,2.3-8.2c1.9-2.2,4.4-3,7.3-3.2c9.1-0.6,18.2-0.2,27.2-0.1
	c4,0,8,0.1,12,0.3c6,0.2,8.9,3.1,9.4,9c0.2,1.8,0.1,3.6,0.1,5.4c0.6,108.4,1.1,216.9,1.7,325.3c0,2.2-0.3,4.3,0.4,6.7
	c2.5,0.5,4.9-0.4,7.4-0.6c16.5-1.1,33.2-1.5,49.4,1.9c56.7,11.8,100.2,42.2,126.8,94.3c32.9,64.5,21.8,143.2-27.1,197.4
	c-30.5,33.8-68.4,54.4-113.5,59.9c-59.4,7.3-111-10.1-153.1-53c-27.6-28.1-43.2-62.4-47.5-101.6c-3.9-35.1,2.4-68.4,18.5-99.7
	c17-33.2,42.1-58.9,74.8-76.9c2.9-1.6,3.6-3.4,3.6-6.4c0-21.8,0.1-43.6,0.1-65.4c0.1-55.8,0.1-111.5,0.2-167.3c0-1.8,0-3.6,0-5.3
	c-1.3-0.8-2.3-0.2-3.3,0.1c-36.9,10.9-73.7,21.7-111.2,30.2c-30.9,7.1-61.8,14.3-92.8,21.2c-3.2,0.7-3.1,2.3-3.1,4.5
	c0,14.9,0.1,29.8,0.1,44.7c0,27.1,0.1,54.1,0.1,81.2c0,3.1-0.2,6.2-1.4,9.1c-2,4.7-4.5,6.4-9.6,6.4c-18.9-0.2-37.8-0.4-56.7-0.7
	c-5-0.1-4.6-0.4-4.6,4.8c-0.3,43.2-1.4,86.5-0.6,129.7c0.5,26.6-23.9,47.5-47.8,46.8c-12.8-0.4-23.8-4.2-32.5-13.8
	c-6.1-6.8-8.5-15-9.3-23.9c-0.4-4.2-0.4-8.3-0.4-12.5c-0.3-89-0.5-178-0.8-267c0-6.2,0-6.1-6.1-7.7c-23.4-6-47.1-10.6-70.5-16.1
	c-31.8-7.4-63.2-16.2-94.7-25c-14-3.9-28-7.7-42.1-10.8C118.9,410.7,117.2,410.2,114.7,410.5z M403.6,224.6c-7.8-3-9.3-4.9-9.4-13
	c-0.1-2.4,0.1-4.7,0-7.1c0-4.4,0-4.4-4.4-4.4c-19.8-0.1-39.6-0.5-59.4,0c-10.1,0.2-17.8-2.9-25.2-9.9
	C271.8,158.3,238,127,204.3,95.4c-1.6-1.5-3.3-3.1-5.6-3.1c-5.6-0.2-10.4,1.5-13.7,6.3c-3.2,4.7-3.2,9.5-0.5,14.4
	c1.2,2.3,3.1,4,4.8,5.9c52.6,55,105.2,109.9,157.9,164.9c3.1,3.2,5,6.6,3.4,11.3c-0.4,1.1-0.3,2.5-0.3,3.8
	c0.1,34.3,0.1,68.7,0.2,103c0,4.1,0,4.2,4.4,4.9c17,2.8,34.2,4.4,51.4,5c24.4,0.8,48-4.1,71.8-7.8c1.6-0.2,2.1-1.1,2.1-2.6
	c0-1.1,0-2.2,0-3.3c-0.1-32-0.1-63.9-0.2-95.9c0-1.3,0.2-2.6-0.1-3.8c-1.3-5.2,0.9-8.9,4.5-12.6c53.6-54.8,107.1-109.7,160.6-164.5
	c2.9-3,4.6-6.5,5.7-10.4c1-3.7,0.1-7.2-2.7-10c-5.1-5.2-11.6-6-17.8-2c-2,1.3-3.9,2.7-5.6,4.3c-35.7,30.6-71.5,61.1-107.1,91.9
	c-4.6,4-9.3,5.7-15.3,5.6c-20.5-0.3-41-0.2-61.6-0.3c-1.1,0-2.2,0.1-3.3,0c-2.3-0.2-3.3,0.6-3,3.1c0.4,3.4,0.7,6.9,0.8,10.3
	c0.1,4.1-1.1,7.8-5.1,9.4c-3,1.2-2.9,3-2.4,5.5c5.9,31.6,11.7,63.1,17.9,94.6c0.9,4.4,0.3,7.9-2.5,11.1c-5.8,6.7-11.6,13.5-17.7,20
	c-4.3,4.6-9.7,4.7-14.6,0.8c-2.1-1.7-4.1-3.6-6-5.5c-4.8-4.9-9.7-9.9-15.1-14.1c-4.9-3.8-6.2-8.3-5-14.4
	C391.3,289,397.4,256.9,403.6,224.6z M954,815.6c0-32.8-5.5-56.7-15.6-77.6c-30.4-62.9-98-97.9-167.5-88.5
	c-38.5,5.2-71.8,21.6-98.5,50c-38.7,41.1-53.7,89.9-42.3,145.5c14.8,71.8,77.8,123.9,154.5,125.4c26,0.5,51-4.5,74.3-16.1
	C919.6,923.8,950.9,874.1,954,815.6z M479.9,465.2c-0.8,0.1-1.3,0.2-1.9,0.2c-16.1,2.8-32.2,5.9-48.5,7c-24.2,1.7-48.3,0-72.2-3.9
	c-6.6-1.1-6.6-1.1-6.6,5.4c0.3,90.1,0.6,180.2,0.9,270.3c0,1.1,0,2.2,0,3.3c0.7,13.5,8.9,22.3,21.9,23.4c4.9,0.4,9.8-0.1,14.5-1.6
	c13.1-4.2,19.6-12.8,19.7-26.4c0.6-82.8,1.1-165.6,1.6-248.5c0-2.2-0.2-4.4,0.4-6.5c1.1-4,4.6-6.7,8.4-6.5c3.9,0.2,7.1,3,7.8,7.1
	c0.4,2.3,0.3,4.7,0.3,7.1c-0.2,30-0.4,59.9-0.6,89.9c0,4.4,0,4.4,4.4,4.5c15.4,0.1,30.9,0.2,46.3,0.2c0.7,0,1.5,0,2.2,0
	c1.6,0.1,2.4-0.5,2.4-2.2c0-1.1,0-2.2,0-3.3c-0.1-38.1-0.2-76.3-0.4-114.4C480.6,468.8,481,467.1,479.9,465.2z M98.6,566
	c-0.2-39.6-0.6-97.5-1-155.5c0-0.5-0.1-1.1,0-1.6c0.3-2.7-0.5-3.9-3.6-3.7c-6.2,0.4-12.3,0.5-18.5,0.6c-2.2,0-3.4,0.6-3.2,3.1
	c0.1,1.1,0,2.2,0,3.3c-0.4,83.5,0.2,167-0.6,250.5c-0.3,31-0.2,62.1-0.3,93.1c0,1.3,0,2.5,0,3.8c-0.1,1.7,0.5,2.7,2.4,2.8
	c7.3,0.1,14.5,1,21.8,0.2c2-0.2,3-0.7,2.8-2.9c-0.1-0.9,0-1.8,0-2.7C98.6,699.4,98.6,641.9,98.6,566z M724.4,643.4
	c1.8,0.8,3.1-0.2,4.4-0.6c5.9-1.9,11.7-3.8,17.6-5.6c4.9-1.4,4.9-1.3,4.9-6.4c-0.4-72.1-0.8-144.2-1.2-216.2c0-1.3-0.1-2.6,0-3.8
	c0.3-2.7-0.6-3.9-3.6-3.8c-5.3,0.2-10.5,0.1-15.8,0.1c-6.9,0.1-6-0.7-6,6.1c-0.1,75-0.2,150-0.3,225
	C724.4,640,724.4,641.8,724.4,643.4z M333.9,446.3c0-8,0-16.2,0-24.3c0-2.2-1.3-2.6-3-3c-12-2.8-23.9-6-36-8.6
	c-33.9-7.1-67.5-15.4-100.9-24.6c-24.5-6.7-48.8-14-73.6-19.5c-1.9-0.4-3.8-1.1-6.1-0.5c0,7.8,0.1,15.6,0,23.4
	c0,2.6,0.6,3.7,3.5,4.2c9.8,1.7,19.5,4.3,29.1,6.8c35,9.3,69.8,19.5,105.1,28.1c26.3,6.4,52.9,11.2,79,18.1
	C331.9,446.7,332.8,446.9,333.9,446.3z M497.4,444.8c2-0.3,3.4-0.4,4.8-0.7c36.7-8.5,73.4-17.1,110.1-25.7
	c26.3-6.2,51.9-14.7,78.3-20.7c4.8-1.1,9.5-2.4,14.2-3.8c1.5-0.4,3.2-0.9,3.2-3.1c0-8.7,0-17.3,0-26.2c-1.2,0.2-1.9,0.3-2.6,0.4
	c-12,3.5-24,7-36,10.6c-43.1,12.9-87,22.4-130.7,32.6c-12.9,3-25.8,5.8-38.7,8.6c-1.7,0.4-2.6,0.9-2.6,2.7
	C497.4,428,497.4,436.3,497.4,444.8z M480.5,420.5c-3.3,0.5-6,1-8.6,1.4c-14.3,2.4-28.6,5.1-43.1,6c-24,1.5-47.9-0.1-71.6-3.9
	c-2.1-0.3-4.2-0.8-6.5-0.3c0,7.4-0.1,14.4,0,21.5c0.1,6.5-1.2,5.3,5.8,6.5c12.9,2.1,25.9,3.8,38.9,4.3c12.5,0.5,25,0.9,37.5-0.5
	c13-1.4,25.8-3.8,38.8-5.7c8.9-1.4,8.9-1.4,8.9-10.5C480.5,433,480.5,426.9,480.5,420.5z M418.3,339.6c2.8-3.2,5.1-6.3,7.9-8.8
	c2.7-2.4,3.1-4.8,2.5-8.1c-2.6-13.1-5-26.3-7.5-39.5c-1.8-9.6-3.7-19.2-5.7-29.7c-0.5,1.6-0.7,2.2-0.8,2.9c-2,9.9-3.9,19.9-5.9,29.8
	c-2.3,11.7-4.6,23.4-6.9,35.2c-0.3,1.7-0.9,3.5,0.9,5C407.7,330.4,412.5,334.6,418.3,339.6z M749.7,325.3c-0.1,0-0.1,0-0.2,0
	c0-6.5,0-13.1,0-19.6c0-4-0.1-4-3.8-3.9c-5.8,0.2-11.6,0.5-17.4,0.5c-2.7,0-3.4,0.9-3.4,3.4c0.1,13,0,26.1-0.1,39.1
	c0,2.6,0.7,3.5,3.4,3.5c6,0,12,0.3,17.9,0.5c3.5,0.1,3.5,0.1,3.6-3.5C749.7,338.8,749.7,332.1,749.7,325.3z M97.5,324.7
	c-0.1,0-0.2,0-0.3,0c0-6.7,0-13.4,0-20.1c0-2-0.7-2.9-2.9-2.8c-6.3,0.3-12.7,0.5-19,0.6c-2.1,0-2.8,0.8-2.8,2.9
	c0,13.2,0.1,26.5,0,39.7c0,2.4,1,3.1,3.2,3c6.2-0.2,12.3-0.3,18.5-0.2c2.7,0,3.4-1,3.3-3.6C97.4,337.8,97.5,331.2,97.5,324.7z
	 M737.3,390C737.3,390,737.3,390,737.3,390c3.3-0.1,6.5-0.1,9.8,0c2.1,0.1,2.9-0.7,2.8-2.8c-0.1-6.7-0.2-13.4-0.1-20.1
	c0-2.2-0.9-2.8-2.9-2.7c-6.5,0.2-13,0.2-19.5,0.2c-1.8,0-2.6,0.6-2.6,2.5c0,6.7,0,13.4-0.1,20.1c0,2.1,0.8,2.9,2.9,2.9
	C730.8,390,734.1,390,737.3,390z M84.8,364.6C84.8,364.6,84.8,364.7,84.8,364.6c-3.3,0.1-6.5,0.1-9.8,0c-1.8,0-2.6,0.6-2.6,2.5
	c0.1,6.3,0.1,12.6,0,19c0,2.2,0.8,2.8,2.9,2.7c6.5-0.2,13-0.3,19.5-0.3c2.1,0,2.8-0.9,2.8-2.9c-0.1-6.1-0.1-12.3,0-18.4
	c0-2.4-1.2-2.6-3-2.6C91.3,364.7,88.1,364.6,84.8,364.6z"/>
<path class="st0" d="M482.8,102.7c0.2,35.8-28.3,64.9-63.7,65.1c-35.7,0.2-65-29-65.3-65c-0.2-36,28.5-65.3,64.1-65.3
	C453.8,37.4,482.6,66.6,482.8,102.7z M370.8,102.2c0,26.9,21.2,48.6,47.5,48.8c26.4,0.1,47.6-21.2,47.7-47.8
	c0.1-27.1-21.3-49-47.8-49.1C391.9,54.1,370.8,75.5,370.8,102.2z"/>
<path class="st1" d="M403.6,224.6c-6.3,32.4-12.4,64.5-18.7,96.5c-1.2,6.1,0.1,10.6,5,14.4c5.5,4.2,10.3,9.2,15.1,14.1
	c1.9,1.9,3.9,3.8,6,5.5c4.9,3.9,10.3,3.8,14.6-0.8c6.1-6.5,11.9-13.3,17.7-20c2.8-3.2,3.3-6.7,2.5-11.1
	c-6.1-31.5-11.9-63.1-17.9-94.6c-0.5-2.5-0.7-4.3,2.4-5.5c4-1.6,5.2-5.4,5.1-9.4c-0.1-3.4-0.4-6.9-0.8-10.3c-0.3-2.5,0.7-3.3,3-3.1
	c1.1,0.1,2.2,0,3.3,0c20.5,0.1,41,0,61.6,0.3c6,0.1,10.7-1.7,15.3-5.6c35.6-30.7,71.3-61.3,107.1-91.9c1.8-1.5,3.7-3,5.6-4.3
	c6.1-4,12.7-3.2,17.8,2c2.8,2.8,3.7,6.3,2.7,10c-1.1,3.8-2.7,7.4-5.7,10.4c-53.6,54.8-107,109.7-160.6,164.5
	c-3.6,3.7-5.8,7.3-4.5,12.6c0.3,1.2,0.1,2.5,0.1,3.8c0.1,32,0.1,63.9,0.2,95.9c0,1.1,0,2.2,0,3.3c0,1.5-0.5,2.3-2.1,2.6
	c-23.8,3.7-47.5,8.7-71.8,7.8c-17.3-0.6-34.4-2.2-51.4-5c-4.4-0.7-4.4-0.8-4.4-4.9c-0.1-34.3-0.1-68.7-0.2-103
	c0-1.3-0.1-2.6,0.3-3.8c1.6-4.6-0.3-8.1-3.4-11.3c-52.6-55-105.3-109.9-157.9-164.9c-1.8-1.8-3.6-3.6-4.8-5.9
	c-2.7-4.9-2.7-9.7,0.5-14.4c3.3-4.8,8.1-6.5,13.7-6.3c2.3,0.1,3.9,1.6,5.6,3.1c33.6,31.6,67.5,62.9,100.8,94.8
	c7.4,7.1,15.1,10.2,25.2,9.9c19.8-0.5,39.6-0.1,59.4,0c4.4,0,4.4,0.1,4.4,4.4c0,2.4-0.1,4.7,0,7.1
	C394.4,219.6,395.8,221.6,403.6,224.6z"/>
<path class="st1" d="M479.9,465.2c1.1,1.8,0.7,3.5,0.7,5.1c0.1,38.1,0.3,76.3,0.4,114.4c0,1.1,0,2.2,0,3.3c0,1.6-0.8,2.3-2.4,2.2
	c-0.7,0-1.5,0-2.2,0c-15.4-0.1-30.9-0.1-46.3-0.2c-4.4,0-4.5-0.1-4.4-4.5c0.2-30,0.4-59.9,0.6-89.9c0-2.4,0.1-4.7-0.3-7.1
	c-0.7-4.1-3.9-6.9-7.8-7.1c-3.8-0.2-7.2,2.5-8.4,6.5c-0.6,2.1-0.4,4.3-0.4,6.5c-0.6,82.8-1.1,165.6-1.6,248.5
	c-0.1,13.6-6.6,22.3-19.7,26.4c-4.7,1.5-9.6,2-14.5,1.6c-13-1.1-21.2-10-21.9-23.4c-0.1-1.1,0-2.2,0-3.3
	c-0.3-90.1-0.6-180.2-0.9-270.3c0-6.5,0-6.4,6.6-5.4c23.9,3.9,48,5.5,72.2,3.9c16.3-1.1,32.4-4.3,48.5-7
	C478.5,465.4,479.1,465.4,479.9,465.2z"/>
<path class="st1" d="M98.6,566c0,75.8,0,133.4,0,190.9c0,0.9-0.1,1.8,0,2.7c0.2,2.1-0.8,2.7-2.8,2.9c-7.3,0.7-14.5-0.1-21.8-0.2
	c-1.9,0-2.5-1-2.4-2.8c0.1-1.3,0-2.5,0-3.8c0.1-31,0-62.1,0.3-93.1c0.8-83.5,0.2-167,0.6-250.5c0-1.1,0.1-2.2,0-3.3
	c-0.3-2.4,0.9-3.1,3.2-3.1c6.2-0.1,12.3-0.2,18.5-0.6c3-0.2,3.9,1,3.6,3.7c-0.1,0.5,0,1.1,0,1.6C98,468.5,98.4,526.4,98.6,566z"/>
<path class="st1" d="M724.4,643.4c0-1.7,0-3.5,0-5.3c0.1-75,0.2-150,0.3-225c0-6.9-0.8-6.1,6-6.1c5.3,0,10.5,0.1,15.8-0.1
	c3-0.1,3.9,1.1,3.6,3.8c-0.1,1.3,0,2.5,0,3.8c0.4,72.1,0.8,144.2,1.2,216.2c0,5.1,0,5-4.9,6.4c-5.9,1.7-11.8,3.7-17.6,5.6
	C727.5,643.2,726.2,644.2,724.4,643.4z"/>
<path class="st1" d="M333.9,446.3c-1.2,0.6-2.1,0.3-2.9,0.1c-26.1-6.9-52.7-11.7-79-18.1c-35.2-8.5-70-18.8-105.1-28.1
	c-9.6-2.6-19.3-5.2-29.1-6.8c-2.9-0.5-3.5-1.6-3.5-4.2c0.1-7.8,0-15.6,0-23.4c2.3-0.6,4.2,0.1,6.1,0.5c24.8,5.6,49.1,12.8,73.6,19.5
	c33.4,9.2,67,17.5,100.9,24.6c12.1,2.5,24,5.7,36,8.6c1.8,0.4,3,0.8,3,3C333.9,430.2,333.9,438.3,333.9,446.3z"/>
<path class="st1" d="M497.4,444.8c0-8.6,0-16.9,0-25.2c0-1.8,0.9-2.4,2.6-2.7c12.9-2.8,25.8-5.6,38.7-8.6
	c43.7-10.2,87.7-19.7,130.7-32.6c12-3.6,24-7.1,36-10.6c0.7-0.2,1.4-0.2,2.6-0.4c0,8.9,0,17.6,0,26.2c0,2.2-1.7,2.7-3.2,3.1
	c-4.7,1.4-9.4,2.7-14.2,3.8c-26.3,6-52,14.5-78.3,20.7c-36.7,8.6-73.4,17.1-110.1,25.7C500.9,444.4,499.4,444.5,497.4,444.8z"/>
<path class="st1" d="M480.5,420.5c0,6.4,0,12.6,0,18.7c0,9.1,0,9.1-8.9,10.5c-12.9,2-25.8,4.3-38.8,5.7c-12.5,1.4-25,1-37.5,0.5
	c-13.1-0.5-26-2.2-38.9-4.3c-7-1.2-5.7,0-5.8-6.5c-0.1-7.1,0-14.1,0-21.5c2.4-0.5,4.5,0,6.5,0.3c23.7,3.9,47.6,5.4,71.6,3.9
	c14.5-0.9,28.8-3.7,43.1-6C474.6,421.4,477.2,421,480.5,420.5z"/>
<path class="st1" d="M418.3,339.6c-5.9-5-10.6-9.2-15.5-13.3c-1.8-1.5-1.2-3.3-0.9-5c2.3-11.7,4.6-23.4,6.9-35.2
	c2-9.9,3.9-19.9,5.9-29.8c0.1-0.6,0.4-1.3,0.8-2.9c2,10.5,3.9,20.1,5.7,29.7c2.5,13.2,4.9,26.3,7.5,39.5c0.7,3.4,0.2,5.7-2.5,8.1
	C423.4,333.3,421.1,336.5,418.3,339.6z"/>
<path class="st1" d="M749.7,325.3c0,6.7,0,13.4,0,20.1c0,3.7-0.1,3.6-3.6,3.5c-6-0.2-12-0.5-17.9-0.5c-2.6,0-3.4-0.9-3.4-3.5
	c0.1-13,0.2-26.1,0.1-39.1c0-2.6,0.7-3.4,3.4-3.4c5.8,0,11.6-0.3,17.4-0.5c3.7-0.1,3.7-0.1,3.8,3.9c0,6.5,0,13.1,0,19.6
	C749.5,325.3,749.6,325.3,749.7,325.3z"/>
<path class="st1" d="M97.5,324.7c0,6.5-0.1,13,0,19.6c0.1,2.5-0.6,3.6-3.3,3.6c-6.2-0.1-12.3,0-18.5,0.2c-2.3,0.1-3.2-0.6-3.2-3
	c0.1-13.2,0.1-26.5,0-39.7c0-2.1,0.6-2.9,2.8-2.9c6.3-0.1,12.7-0.3,19-0.6c2.2-0.1,2.9,0.7,2.9,2.8c-0.1,6.7,0,13.4,0,20.1
	C97.3,324.7,97.4,324.7,97.5,324.7z"/>
<path class="st1" d="M737.3,390c-3.3,0-6.5-0.1-9.8,0c-2.1,0.1-2.9-0.7-2.9-2.9c0.1-6.7,0.1-13.4,0.1-20.1c0-1.9,0.8-2.5,2.6-2.5
	c6.5,0,13-0.1,19.5-0.2c2,0,2.9,0.5,2.9,2.7c-0.1,6.7,0,13.4,0.1,20.1c0,2.1-0.8,2.9-2.8,2.8C743.8,389.9,740.6,390,737.3,390
	C737.3,390,737.3,390,737.3,390z"/>
<path class="st1" d="M84.8,364.6c3.3,0,6.5,0,9.8,0c1.8,0,3.1,0.2,3,2.6c-0.1,6.1-0.1,12.3,0,18.4c0,2-0.7,2.9-2.8,2.9
	c-6.5,0-13,0.1-19.5,0.3c-2,0.1-2.9-0.5-2.9-2.7c0.1-6.3,0.1-12.6,0-19c0-1.9,0.8-2.5,2.6-2.5C78.3,364.7,81.6,364.7,84.8,364.6
	C84.8,364.7,84.8,364.6,84.8,364.6z"/>
<path class="st1" d="M370.8,102.2c0-26.7,21.1-48.1,47.4-48.1c26.5,0.1,47.9,22,47.8,49.1c-0.1,26.6-21.3,47.9-47.7,47.8
	C392,150.9,370.8,129.1,370.8,102.2z"/>
<path class="st2" d="M792.1,944.3c-66.2,0.1-121.8-46.1-133-109.3c-10.1-56.5,17.4-114.4,68.4-142c43.2-23.4,87.4-24.2,130.7-1
	c36.3,19.4,58.6,50.4,66.5,90.9c14.3,73.3-34.5,145.2-110.4,159.2C806.5,943.5,798.5,944.1,792.1,944.3z M792.4,692.4
	c-17-0.1-34.6,4.1-51.4,12.3c-58.3,28.5-83.4,98.9-56.1,156.3c28.4,59.7,100,83.2,159.2,53.7c49.2-24.5,75.4-79,63.7-131.5
	C895.7,729.6,849.2,692.5,792.4,692.4z"/>
<path class="st2" d="M793.8,836.8c-17.7-0.1-32.3-14.7-32.1-32.2c0.2-17.3,14.4-31.2,31.8-31.2c18,0,32.5,14.6,32.3,32.5
	C825.6,823.2,811.3,836.9,793.8,836.8z M793.7,790.3c-8.1-0.2-14.8,6.1-15,14c-0.2,8.5,6.7,15.7,15.3,15.7c8.1,0,14.6-6.4,14.8-14.3
	C809,797.4,802.2,790.5,793.7,790.3z"/>
<path class="st2" d="M722.3,837.9c-17.8,0.1-32.4-14.2-32.6-31.8c-0.1-17.2,14.1-31.5,31.4-31.6c18.1-0.2,32.8,14.3,32.7,32.1
	C753.8,823.9,739.8,837.8,722.3,837.9z M721.7,791.4c-8.1-0.1-14.7,6.2-14.9,14.1c-0.2,8.5,6.9,15.6,15.4,15.6
	c8.1-0.1,14.6-6.5,14.7-14.4C737,798.4,730.1,791.5,721.7,791.4z"/>
<path class="st2" d="M864.2,836.8c-17.8,0-32.2-14.4-32.2-32.1c0-17.4,14-31.3,31.5-31.4c17.8,0,32.4,14.3,32.6,31.8
	C896.3,822.6,881.9,836.8,864.2,836.8z M863.7,790.3c-8.1,0-14.7,6.4-14.9,14.3c-0.2,8.3,7.3,15.6,15.8,15.4
	c8.1-0.2,14.5-6.6,14.5-14.6C879.1,797.1,872.2,790.3,863.7,790.3z"/>
<path class="st3" d="M313.4,533.4l20.4,20.4c4.9,4.8,12.7,4.8,17.5,0l20.4-20.4c4.9-4.8,4.9-12.7,0-17.5l-20.4-20.4
	c-4.9-4.9-12.7-4.9-17.5,0l-20.4,20.4C308.5,520.7,308.5,528.5,313.4,533.4z"/>
<path class="st3" d="M313.4,592.9l20.4,20.4c4.9,4.8,12.7,4.8,17.5,0l20.4-20.4c4.9-4.8,4.9-12.7,0-17.5L351.3,555
	c-4.9-4.8-12.7-4.8-17.5,0l-20.4,20.4C308.5,580.2,308.5,588.1,313.4,592.9z"/>
<path class="st2" d="M662.3,950l17.3,17.3c2.5,2.5,6.6,2.5,9.1,0L706,950c2.5-2.5,2.5-6.6,0-9.1l-17.3-17.3c-2.5-2.5-6.6-2.5-9.1,0
	l-17.3,17.3C659.8,943.4,659.8,947.5,662.3,950z"/>
<circle class="st4" cx="790.2" cy="808.9" r="171.5"/>
</svg>
