<?xml version="1.0" encoding="utf-8"?>
<!-- Generator: Adobe Illustrator 28.0.0, SVG Export Plug-In . SVG Version: 6.00 Build 0)  -->
<svg version="1.1" id="Capa_1" xmlns="http://www.w3.org/2000/svg" xmlns:xlink="http://www.w3.org/1999/xlink" x="0px" y="0px"
	 viewBox="0 0 1080 1080" style="enable-background:new 0 0 1080 1080;" xml:space="preserve">
<style type="text/css">
	.st0{fill:#090A0A;}
	.st1{fill:#FCFCFC;}
	.st2{fill:#FF5500;}
	.st3{fill:#6EE1EB;}
	.st4{fill:none;stroke:#FF5500;stroke-width:20;stroke-miterlimit:10;}
</style>
<path class="st0" d="M115.1,410.6c-0.8,2-0.4,4-0.4,5.9c0.4,72.7,1.3,145.3,1,218c-0.2,44.5-0.1,89-0.4,133.5
	c-0.1,8-2.8,10.7-10.9,10.8c-11.8,0.1-23.6,0-35.4-0.1c-2.2,0-4.4-0.3-6.4-0.9c-4.8-1.3-7.2-4.5-7.5-9.4c-0.1-1.1,0-2.2,0-3.3
	c0-41.8,0-83.6,0.1-125.3c0.2-113.3,0.5-226.7,0.6-340c0-11.4,4.3-14.6,14.6-14.6c10.5,0,21.1,0,31.6,0c3,0,5.8,0.5,8.3,2.3
	c3.3,2.4,3.9,5.9,3.9,9.7c0,15.1,0.1,30.2,0.1,45.2c0,1.1,0.1,2.2,0,3.3c-0.2,2.1,0.8,2.7,2.7,3.1c29.5,5.9,58.3,14.9,87.4,22.7
	c31.2,8.4,62.5,16.1,94.1,22.7c10.5,2.2,20.8,4.9,31.2,7.4c4.1,1,4.3,0.9,4.3-3.3c-0.1-33.6-0.3-67.2-0.3-100.8c0-3.1-1.4-5-3.4-7
	c-42.3-44.2-84.6-88.5-126.9-132.7c-9.7-10.1-19.4-20.2-29-30.4c-8.4-8.9-10.6-19.4-6.7-30.8c4.1-11.9,13.2-18.1,25.6-19.8
	c7.9-1.1,14.4,1,20.6,6.2c18.9,16.2,37,33.3,55.2,50.3c16.7,15.6,33.5,31.2,50.1,46.9c2.1,2,4.2,2.9,7.2,2.9
	c58.1,0.2,116.3,0.4,174.4,0.8c3.2,0,5.4-1,7.7-3c33.9-29.1,67.8-58.2,101.8-87.2c6.5-5.5,13.5-10.5,22-12.6c11.3-2.7,20.9,1,28.7,9
	c7.8,8.1,8.7,18,5.3,28.4c-2,6.1-5.7,11.2-10.2,15.8c-35.3,36.1-70.5,72.3-105.8,108.4c-16.7,17.2-33.5,34.3-50.3,51.5
	c-1.7,1.8-2.8,3.5-2.8,6.2c0.2,32.7,0.2,65.4,0.3,98.1c0,0.3,0.2,0.7,0.4,1.4c2,0.4,4-0.4,6.1-0.8c26.7-6.1,53.3-12.4,80.1-18.4
	c29.4-6.6,58.4-14.6,87.4-22.8c9.6-2.7,19.3-4.8,29-7.2c1.2-0.3,2.5-0.6,3.7-1c4-1.3,4-1.4,4-5.7c0-15.3,0-30.5,0.1-45.8
	c0-2.2-0.1-4.3,0.8-6.4c1.6-3.8,4.6-5.4,8.5-5.7c9.1-0.7,18.2-0.3,27.2-0.2c4.2,0,8.4,0.1,12.5,0.3c5.6,0.3,8.6,3.1,9.1,8.8
	c0.2,2,0.1,4,0.2,6c0.6,108.4,1.1,216.9,1.7,325.3c0,2.1-0.4,4.3,0.5,6.7c10.5-1.4,21-1.7,31.5-1.3c8.3,0.3,16.7,0.5,24.9,2.2
	c58.8,12.5,103.5,44.2,129.3,99.2c37.5,79.9,9.4,174.7-65.3,223.8c-34.7,22.8-72.9,33.1-114.3,30.1c-45.4-3.3-84.5-21.1-116.3-54
	c-27.4-28.4-43.2-62.4-47.6-101.6c-3.9-35.3,2.5-68.7,18.6-100.2c11.8-23.1,28-42.8,48.3-59c8.5-6.8,17.4-13.1,27.1-18.1
	c2.1-1.1,3.1-2.3,2.9-4.6c-0.1-0.9,0-1.8,0-2.7c0.1-77,0.2-154,0.3-231.1c0-1.9,0.4-3.9-0.5-6.1c-9.2,2.6-18.5,5.1-27.6,7.9
	c-43.4,13.4-87.6,23.4-131.7,33.5c-15.9,3.6-31.8,7.3-47.8,10.8c-2,0.4-2.9,1.1-2.8,3.1c0.1,1.3,0,2.5,0,3.8
	c0.1,41.1,0.1,82.1,0.2,123.2c0,3.3-0.2,6.5-1.5,9.6c-1.9,4.5-4.4,6.1-9.3,6.1c-18.5-0.2-37-0.4-55.6-0.6c-1.1,0-2.2,0.1-3.3,0
	c-1.8-0.1-2.8,0.4-2.6,2.4c0.1,1.6,0,3.3,0,4.9c-0.3,42.5-1.3,85-0.6,127.5c0.4,26.2-23.6,46.6-46.4,46.5
	c-16.3-0.1-29.3-5.7-38.1-19.8c-3.3-5.4-4.3-11.5-5-17.6c-0.5-4.1-0.4-8.3-0.4-12.5c-0.3-88.8-0.5-177.7-0.8-266.5
	c0-1.3-0.1-2.6,0-3.8c0.3-2.5-0.8-3.3-3.2-3.9c-22.7-5.8-45.6-10.4-68.4-15.6c-32.2-7.3-64-16.2-95.7-25.1
	c-15.4-4.3-30.7-8.5-46.3-12C118.7,410.7,116.9,410,115.1,410.6z M403.7,224.5c-7.8-2.9-9.3-4.9-9.4-13c-0.1-2.9-0.1-5.8,0.1-8.7
	c0.1-2.2-0.8-2.9-2.9-2.8c-1.1,0.1-2.2,0-3.3,0c-20.5,0-41-0.2-61.6-0.1c-7.3,0-13.3-1.9-18.6-7.3c-6.6-6.8-13.7-13-20.6-19.4
	c-27.7-26-55.4-51.9-83.1-77.9c-1.5-1.4-3-2.8-5-3c-5.2-0.4-9.8,1-13.2,5c-3.4,4-4.4,8.6-2.4,13.7c1.1,2.8,3,4.9,5,7
	c9.6,10,19.1,19.9,28.6,29.9c43.3,45.3,86.7,90.5,130,135.8c3.1,3.2,5,6.6,3.3,11.3c-0.4,1.1-0.3,2.5-0.3,3.8
	c0.1,34.3,0.1,68.7,0.2,103c0,4,0,4.1,4,4.7c16.3,2.7,32.7,4.6,49.3,4.9c8.5,0.2,17.1,0.4,25.6-0.4c16.1-1.6,32-4.5,47.9-7.1
	c2.7-0.4,3.3-1.5,3.1-3.9c-0.1-0.9,0-1.8,0-2.7c-0.1-31.4-0.1-62.8-0.2-94.3c0-1.6,0.3-3.3-0.1-4.9c-1.3-5.3,1-8.9,4.5-12.5
	c53.6-54.8,107.1-109.7,160.6-164.5c2.9-3,4.6-6.5,5.6-10.4c1.1-4.2-0.2-7.9-3.5-10.8c-5.4-4.6-11.1-5-17-1.2
	c-2,1.3-3.8,2.7-5.6,4.3c-35.7,30.6-71.5,61.1-107.1,91.9c-4.6,4-9.3,5.7-15.3,5.6c-20.5-0.3-41-0.2-61.6-0.3c-1.3,0-2.5,0-3.8,0
	c-1.9-0.1-2.6,0.7-2.4,2.6c0.4,3.4,0.7,6.9,0.9,10.3c0.2,3.8-0.6,7.9-4.2,9.4c-4.4,1.8-3.6,4.5-3,7.7c0.3,1.4,0.5,2.9,0.8,4.3
	c5.5,29.2,10.7,58.5,16.6,87.7c1.1,5.7,0,9.9-3.6,13.9c-5.3,5.9-10.5,12.1-16,17.8c-4.3,4.5-10.1,5.8-15.4,0.8
	c-2.3-2.1-4.6-4.2-6.7-6.4c-4.4-4.6-8.9-9.1-14-13c-4.9-3.8-6.1-8.4-4.9-14.4C391.3,289,397.4,256.9,403.7,224.5z M954,815.7
	c-0.1-30.8-4.2-51.7-12.8-71.6c-28.7-66.4-97.9-104.3-170-94.7c-38.7,5.1-72.2,21.7-98.9,50.2c-38.5,41-53.5,89.7-42.1,145
	c14.7,72,77.8,124,154.3,125.7c26.2,0.6,51.4-4.5,74.8-16.2C919.6,923.7,950.8,874.1,954,815.7z M351.5,467.6
	c-1.2,2.6-0.8,4.6-0.8,6.6c0.3,89.9,0.6,179.8,0.9,269.7c0,1.3,0,2.5,0,3.8c0.8,13.3,8.8,22,21.5,23.2c10.9,1,20.4-2.1,28.4-9.8
	c4.2-4.1,6.2-8.7,6.2-14.5c0.1-23.1,0.3-46.1,0.5-69.2c0.4-61.4,0.8-122.8,1.2-184.2c0-2-0.1-4,0.6-5.9c1.4-3.7,4.7-6.1,8.3-5.8
	c3.7,0.3,6.8,2.9,7.5,6.8c0.4,1.9,0.4,4,0.4,6c-0.1,10.7-0.3,21.4-0.3,32.1c-0.1,19.8-0.2,39.6-0.2,59.4c0,4.2,0.1,4.2,4.1,4.3
	c15.6,0.1,31.2,0.2,46.9,0.2c4.3,0,4.3,0,4.3-4.6c0-0.4,0-0.7,0-1.1c-0.1-38-0.2-75.9-0.4-113.9c0-1.8,0.5-3.6-1-5.8
	C437.2,474.7,394.3,475.8,351.5,467.6z M98.6,565.8c-0.2-39.9-0.6-97.6-1-155.4c0-0.7-0.1-1.5,0-2.2c0.2-2.4-0.8-3.2-3.2-3.1
	c-5.6,0.3-11.3,0.3-16.9,0.5c-5.8,0.2-5.1-0.6-5.2,5.4c0,0.4,0,0.7,0,1.1c-0.4,83.5,0.2,167-0.6,250.5c-0.3,31-0.2,62.1-0.3,93.1
	c0,1.3,0.1,2.5,0,3.8c-0.1,1.8,0.7,2.6,2.6,2.6c7.3,0.1,14.5,0.9,21.8,0.2c2.1-0.2,2.9-1,2.7-3c-0.1-0.9,0-1.8,0-2.7
	C98.6,699.1,98.6,641.4,98.6,565.8z M724.4,643.5c1.9,0.7,3.1-0.2,4.5-0.7c5.9-1.9,11.7-3.8,17.6-5.6c4.8-1.4,4.9-1.3,4.8-6.5
	c-0.4-72.3-0.8-144.5-1.2-216.8c0-1.5-0.1-2.9,0-4.4c0.1-1.8-0.7-2.6-2.5-2.6c-6.7,0.1-13.4,0.1-20.2,0c-2.2,0-2.9,0.9-2.8,2.9
	c0.1,1.1,0,2.2,0,3.3c-0.1,75-0.2,150-0.3,225C724.4,640,724.4,641.8,724.4,643.5z M114.4,365.7c0,8.5,0.1,16.5,0,24.5
	c0,2.5,1.3,2.9,3.3,3.2c9.8,1.8,19.5,4.3,29.1,6.9c36.6,9.8,73,20.5,109.8,29.2c24.9,5.9,50,10.6,74.8,17.1c0.8,0.2,1.7,0.6,2.6-0.5
	c0-7.6-0.1-15.4,0.1-23.2c0-2.6-1.1-3.3-3.4-3.8c-12-2.7-23.9-6-36-8.5c-32-6.7-63.6-14.4-95.1-23c-24.7-6.7-49.2-14-74-19.9
	C122,366.7,118.5,365.5,114.4,365.7z M708,365.1c-1.5-0.5-2.3,0-3.2,0.2c-22.1,6.4-44.2,12.9-66.3,19c-36,9.9-72.6,17.4-108.8,26.1
	c-9.7,2.3-19.4,4.4-29.2,6.5c-1.4,0.3-3,0.2-3,2.3c0,8.5,0,17,0,26c11.5-2.6,22.2-4.9,33-7.5c32.1-7.7,64.3-14.6,96.2-22.8
	c20-5.2,39.7-11.5,59.8-16.1c6-1.4,11.9-3.1,17.9-4.6c2.7-0.7,3.7-2.1,3.7-5C707.8,381.2,708,373.2,708,365.1z M480.5,420.5
	c-7.9,1.3-15.2,2.3-22.5,3.7c-25.7,4.8-51.6,5.3-77.6,2.8c-8.8-0.9-17.6-2.2-26.4-3.4c-2.6-0.4-3.6,0.2-3.5,3
	c0.2,6.9,0.2,13.8,0,20.7c-0.1,2.9,1,3.6,3.6,4.1c15.1,2.4,30.2,4,45.4,4.9c26.6,1.6,52.4-3.3,78.4-7.6c1.8-0.3,2.5-1,2.5-2.8
	C480.5,437.5,480.5,429.1,480.5,420.5z M415.7,254.6c-0.2,0-0.4,0.1-0.6,0.1c-0.4,1.6-0.8,3.1-1.1,4.7c-3.7,18.8-7,37.7-11.1,56.5
	c-1.5,6.7-0.8,11.5,5.4,14.8c0.3,0.2,0.5,0.5,0.8,0.7c3,2.2,5,5.7,8.7,7.1c2.8-2.6,5.4-5.3,8.4-7.7c2.7-2.2,3.3-4.6,2.6-8.1
	c-2.3-11.2-4.3-22.4-6.4-33.6C420.1,277.7,417.9,266.1,415.7,254.6z M725.5,302.7c-0.2,0.5-0.5,0.8-0.5,1.2
	c-0.1,14-0.1,27.9-0.2,41.9c0,2.2,1,2.7,3,2.7c6,0.1,12,0.3,17.9,0.5c3.9,0.1,4,0.2,3.9-3.7c0-10.2-0.1-20.3-0.2-30.5
	c0-3.4-0.1-6.9,0-10.3c0.1-2.1-0.8-2.8-2.9-2.7C739.5,302.2,732.5,302.4,725.5,302.7z M72.6,324.9C72.6,324.9,72.6,324.9,72.6,324.9
	c0,6.7,0,13.4-0.1,20.1c0,1.9,0.4,3.1,2.7,3c6.5-0.2,13-0.2,19.6-0.2c2.2,0,2.7-1,2.7-3c-0.1-13.4-0.2-26.8-0.3-40.2
	c0-2.1-0.8-2.9-2.9-2.8c-6.3,0.3-12.7,0.5-19,0.6c-2.2,0-2.8,0.9-2.8,2.9C72.6,311.8,72.6,318.4,72.6,324.9z M749.9,377.5
	c0,0-0.1,0-0.1,0c0-3.4-0.1-6.9,0-10.3c0.1-2.1-0.7-2.9-2.8-2.8c-6.5,0.2-13,0.3-19.5,0.2c-2.2,0-2.8,1-2.7,2.9
	c0,6.5,0.1,13-0.1,19.5c-0.1,2.5,1.1,3,3.3,3c6.3-0.1,12.7-0.2,19,0c2.5,0,3-1.1,3-3.3C749.8,383.7,749.9,380.6,749.9,377.5z
	 M85,388.8c0-0.1,0-0.2,0-0.3c3.3,0,6.5-0.1,9.8,0c2.1,0.1,2.9-0.7,2.9-2.8c-0.1-6.1-0.1-12.3,0-18.4c0-2.3-1.1-2.7-3-2.7
	c-6.5,0.1-13,0.1-19.5,0c-1.8,0-2.6,0.5-2.6,2.4c0.1,6.5,0,13,0,19.5c0,1.6,0.7,2.2,2.2,2.2C78.1,388.8,81.6,388.8,85,388.8z"/>
<path class="st0" d="M482.8,102.8c0.1,35.8-28.4,64.8-63.8,65c-35.7,0.2-65-29.1-65.2-65.1c-0.2-36,28.5-65.2,64.2-65.2
	C453.9,37.5,482.7,66.7,482.8,102.8z M370.8,102.1c-0.1,26.9,21.1,48.7,47.4,48.9c26.4,0.2,47.7-21.1,47.8-47.7
	c0.1-27.1-21.2-49.1-47.7-49.2C392,54.1,370.9,75.4,370.8,102.1z"/>
<path class="st1" d="M403.7,224.5c-6.3,32.4-12.4,64.4-18.7,96.5c-1.2,6,0.1,10.6,4.9,14.4c5,3.9,9.5,8.4,14,13
	c2.1,2.2,4.4,4.3,6.7,6.4c5.3,5,11.1,3.6,15.4-0.8c5.5-5.8,10.7-11.9,16-17.8c3.6-4,4.8-8.2,3.6-13.9c-5.8-29.2-11.1-58.5-16.6-87.7
	c-0.3-1.4-0.5-2.9-0.8-4.3c-0.7-3.2-1.5-5.9,3-7.7c3.6-1.5,4.4-5.5,4.2-9.4c-0.2-3.4-0.5-6.9-0.9-10.3c-0.2-1.9,0.5-2.7,2.4-2.6
	c1.3,0.1,2.5,0,3.8,0c20.5,0.1,41,0,61.6,0.3c6,0.1,10.7-1.6,15.3-5.6c35.6-30.8,71.3-61.3,107.1-91.9c1.8-1.5,3.7-3,5.6-4.3
	c5.9-3.8,11.6-3.4,17,1.2c3.4,2.9,4.6,6.6,3.5,10.8c-1,3.8-2.7,7.4-5.6,10.4c-53.6,54.8-107,109.7-160.6,164.5
	c-3.6,3.7-5.8,7.3-4.5,12.5c0.4,1.5,0.1,3.3,0.1,4.9c0.1,31.4,0.1,62.8,0.2,94.3c0,0.9-0.1,1.8,0,2.7c0.2,2.3-0.4,3.4-3.1,3.9
	c-15.9,2.5-31.8,5.5-47.9,7.1c-8.5,0.9-17.1,0.6-25.6,0.4c-16.5-0.4-32.9-2.2-49.3-4.9c-3.9-0.7-4-0.8-4-4.7
	c-0.1-34.3-0.2-68.7-0.2-103c0-1.3-0.2-2.6,0.3-3.8c1.7-4.6-0.3-8.1-3.3-11.3c-43.3-45.3-86.7-90.5-130-135.8
	c-9.5-10-19.1-19.9-28.6-29.9c-2-2.1-3.9-4.3-5-7c-2-5.1-1-9.7,2.4-13.7c3.4-4,8-5.4,13.2-5c2,0.2,3.5,1.6,5,3
	c27.7,26,55.4,51.9,83.1,77.9c6.9,6.5,14,12.7,20.6,19.4c5.2,5.4,11.3,7.4,18.6,7.3c20.5-0.1,41,0,61.6,0.1c1.1,0,2.2,0.1,3.3,0
	c2.1-0.2,3,0.6,2.9,2.8c-0.1,2.9-0.1,5.8-0.1,8.7C394.4,219.6,395.8,221.6,403.7,224.5z"/>
<path class="st1" d="M351.5,467.6c42.8,8.1,85.7,7,128.1-2.8c1.5,2.2,1,4.1,1,5.8c0.1,38,0.3,75.9,0.4,113.9c0,0.4,0,0.7,0,1.1
	c0,4.5,0,4.6-4.3,4.6c-15.6-0.1-31.2-0.1-46.9-0.2c-4.1,0-4.1-0.1-4.1-4.3c0.1-19.8,0.1-39.6,0.2-59.4c0.1-10.7,0.2-21.4,0.3-32.1
	c0-2,0-4-0.4-6c-0.7-3.8-3.8-6.5-7.5-6.8c-3.6-0.3-6.9,2.1-8.3,5.8c-0.7,1.9-0.6,3.9-0.6,5.9c-0.4,61.4-0.8,122.8-1.2,184.2
	c-0.1,23.1-0.4,46.1-0.5,69.2c0,5.8-2,10.5-6.2,14.5c-8,7.8-17.5,10.8-28.4,9.8c-12.7-1.2-20.7-9.9-21.5-23.2c-0.1-1.3,0-2.5,0-3.8
	c-0.3-89.9-0.6-179.8-0.9-269.7C350.8,472.2,350.3,470.2,351.5,467.6z"/>
<path class="st1" d="M98.6,565.8c0,75.6,0,133.3,0,191c0,0.9-0.1,1.8,0,2.7c0.2,2-0.6,2.8-2.7,3c-7.3,0.7-14.5-0.1-21.8-0.2
	c-1.8,0-2.6-0.8-2.6-2.6c0.1-1.3,0-2.5,0-3.8c0.1-31,0-62.1,0.3-93.1c0.8-83.5,0.2-167,0.6-250.5c0-0.4,0-0.7,0-1.1
	c0.1-6-0.6-5.2,5.2-5.4c5.6-0.2,11.3-0.2,16.9-0.5c2.4-0.1,3.4,0.7,3.2,3.1c-0.1,0.7,0,1.5,0,2.2C98,468.2,98.4,525.9,98.6,565.8z"
	/>
<path class="st1" d="M724.4,643.5c0-1.7,0-3.5,0-5.3c0.1-75,0.2-150,0.3-225c0-1.1,0.1-2.2,0-3.3c-0.1-2,0.6-3,2.8-2.9
	c6.7,0.1,13.4,0,20.2,0c1.9,0,2.6,0.8,2.5,2.6c-0.1,1.5,0,2.9,0,4.4c0.4,72.3,0.8,144.5,1.2,216.8c0,5.2,0,5.1-4.8,6.5
	c-5.9,1.7-11.8,3.7-17.6,5.6C727.5,643.2,726.3,644.2,724.4,643.5z"/>
<path class="st1" d="M114.4,365.7c4.1-0.2,7.5,1,11,1.9c24.9,5.9,49.4,13.2,74,19.9c31.5,8.6,63.2,16.3,95.1,23
	c12.1,2.5,24,5.8,36,8.5c2.3,0.5,3.5,1.2,3.4,3.8c-0.1,7.8-0.1,15.6-0.1,23.2c-0.8,1.1-1.8,0.7-2.6,0.5
	c-24.8-6.4-49.9-11.2-74.8-17.1c-36.9-8.7-73.2-19.5-109.8-29.2c-9.6-2.6-19.3-5-29.1-6.9c-2-0.4-3.3-0.7-3.3-3.2
	C114.5,382.2,114.4,374.2,114.4,365.7z"/>
<path class="st1" d="M708,365.1c0,8.1-0.1,16.1,0.1,24.1c0.1,2.9-1,4.3-3.7,5c-6,1.5-11.9,3.2-17.9,4.6
	c-20.2,4.6-39.8,10.9-59.8,16.1c-31.9,8.3-64.2,15.2-96.2,22.8c-10.7,2.6-21.5,4.9-33,7.5c0-9,0-17.5,0-26c0-2.1,1.6-2,3-2.3
	c9.7-2.1,19.5-4.1,29.2-6.5c36.3-8.7,72.9-16.2,108.8-26.1c22.2-6.1,44.2-12.6,66.3-19C705.7,365,706.5,364.6,708,365.1z"/>
<path class="st1" d="M480.5,420.5c0,8.7,0,17,0,25.3c0,1.8-0.7,2.5-2.5,2.8c-26,4.3-51.8,9.2-78.4,7.6c-15.2-0.9-30.4-2.5-45.4-4.9
	c-2.6-0.4-3.7-1.2-3.6-4.1c0.2-6.9,0.2-13.8,0-20.7c-0.1-2.8,0.9-3.4,3.5-3c8.8,1.3,17.6,2.6,26.4,3.4c26,2.6,51.8,2.1,77.6-2.8
	C465.3,422.8,472.6,421.8,480.5,420.5z"/>
<path class="st1" d="M415.7,254.6c2.2,11.5,4.4,23.1,6.6,34.6c2.1,11.2,4.1,22.4,6.4,33.6c0.7,3.4,0.1,5.8-2.6,8.1
	c-2.9,2.4-5.6,5.1-8.4,7.7c-3.7-1.4-5.6-4.9-8.7-7.1c-0.3-0.2-0.5-0.5-0.8-0.7c-6.2-3.4-6.9-8.2-5.4-14.8
	c4.1-18.7,7.5-37.6,11.1-56.5c0.3-1.6,0.8-3.2,1.1-4.7C415.3,254.7,415.5,254.6,415.7,254.6z"/>
<path class="st1" d="M725.5,302.7c7-0.3,14-0.5,21-0.9c2.1-0.1,2.9,0.6,2.9,2.7c-0.1,3.4,0,6.9,0,10.3c0.1,10.2,0.1,20.3,0.2,30.5
	c0,3.9-0.1,3.8-3.9,3.7c-6-0.2-12-0.4-17.9-0.5c-2,0-3-0.5-3-2.7c0.1-14,0.1-27.9,0.2-41.9C725,303.5,725.3,303.2,725.5,302.7z"/>
<path class="st1" d="M72.6,324.9c0-6.5,0.1-13,0-19.6c0-2,0.6-2.9,2.8-2.9c6.3-0.1,12.7-0.3,19-0.6c2.1-0.1,2.9,0.7,2.9,2.8
	c0.1,13.4,0.1,26.8,0.3,40.2c0,2-0.5,3-2.7,3c-6.5,0-13,0.1-19.6,0.2c-2.3,0.1-2.7-1.1-2.7-3C72.6,338.3,72.5,331.6,72.6,324.9
	C72.6,324.9,72.6,324.9,72.6,324.9z"/>
<path class="st1" d="M749.9,377.5c0,3.1-0.1,6.2,0,9.2c0.1,2.2-0.4,3.3-3,3.3c-6.3-0.1-12.7-0.1-19,0c-2.2,0-3.4-0.4-3.3-3
	c0.1-6.5,0.1-13,0.1-19.5c0-2,0.5-3,2.7-2.9c6.5,0,13-0.1,19.5-0.2c2.1-0.1,2.9,0.8,2.8,2.8c-0.1,3.4,0,6.9,0,10.3
	C749.8,377.5,749.9,377.5,749.9,377.5z"/>
<path class="st1" d="M85,388.8c-3.4,0-6.9,0-10.3,0c-1.6,0-2.3-0.6-2.2-2.2c0.1-6.5,0.1-13,0-19.5c0-2,0.9-2.4,2.6-2.4
	c6.5,0,13,0,19.5,0c1.9,0,3,0.3,3,2.7c-0.1,6.1-0.1,12.3,0,18.4c0,2.1-0.8,2.9-2.9,2.8c-3.2-0.1-6.5,0-9.8,0
	C85,388.6,85,388.7,85,388.8z"/>
<path class="st1" d="M370.8,102.1c0.1-26.7,21.2-48.1,47.5-48c26.5,0.1,47.8,22.1,47.7,49.2c-0.1,26.6-21.4,47.8-47.8,47.7
	C391.9,150.8,370.7,129,370.8,102.1z"/>
<path class="st2" d="M791.7,944.3c-66.1-0.1-121.2-46-132.6-109.2C648,773.3,682.6,710.1,741,686.3c39.6-16.2,78.9-14.9,116.6,5.3
	c36.6,19.7,59.3,50.7,67.2,91.7c14,72.7-34.3,144.6-110.3,158.8C806.5,943.5,798.3,944.1,791.7,944.3z M791.8,692.4
	c-16.5-0.2-34.3,4.1-51.2,12.4c-57.9,28.6-82.9,98.8-55.8,156c28.4,59.9,100,83.3,159.1,53.8c48.6-24.2,75-78,64.2-129.9
	C896.8,730.6,849.9,692.5,791.8,692.4z"/>
<path class="st2" d="M843,809.2c8.1,8.3,15.8,16.2,23.5,24c2.8,2.8,5.6,5.7,7.8,9c2.7,4,3,8,0.7,12.3c-1.3,2.4-2.8,4.7-4.7,6.6
	c-9.1,9.1-18.2,18.2-27.4,27.3c-6,5.9-10.4,6.3-17.5,2.1c-3.5-2.1-6.5-4.6-9.3-7.5c-7.7-7.9-15.5-15.8-23.1-23.6
	c-2.7,1.2-4,3.1-5.5,4.6c-7.7,7.7-15.3,15.5-22.9,23.3c-0.4,0.4-0.8,0.8-1.2,1.1c-6.9,6-12.2,6.2-19.6,0.7c-1.2-0.9-2.2-1.9-3.3-2.9
	c-8.8-8.6-17.7-17.3-26.4-25.9c-6.6-6.5-7-10.8-2.1-18.8c1.8-3,4-5.6,6.4-8.1c7.1-7.3,14.2-14.6,21.3-21.9c2.6-2.7,2.6-2.8-0.1-5.5
	c-8.3-8.2-16.7-16.1-24.8-24.5c-8-8.4-7.9-14.8,0.1-23.2c9.1-9.4,18.3-18.7,27.5-27.9c5.8-5.8,9.9-6.2,17.1-2.1c3.3,1.9,6.3,4.3,9,7
	c7.1,7,14.3,14,21.4,20.9c2.8,2.7,2.9,2.7,5.5,0c7.4-7.5,14.8-15,22.1-22.6c2.8-2.9,5.7-5.6,9-7.9c3.8-2.5,7.7-2.8,11.9-0.8
	c2.6,1.3,5,2.9,7.1,4.9c9,9,18.1,17.8,27.1,26.8c6.4,6.4,6.8,10.6,2,18.4c-1.9,3.1-4.2,5.9-6.8,8.5
	C859.7,792.1,851.5,800.6,843,809.2z M833.2,873c1.5,0,2.6-1.3,3.8-2.4c5.4-5.4,10.8-10.7,16.2-16.2c4.2-4.3,4.3-6.1,0.1-10.5
	c-5.6-5.7-11.3-11.3-16.9-17c-3.3-3.3-6.8-6.6-10-10c-3.7-3.9-3.8-7.3-1.2-11.8c1.9-3.3,4.2-6.3,6.9-9c7.3-7.3,14.5-14.7,21.8-22.1
	c5.3-5.4,5.3-6.9,0.1-12c-4.8-4.7-9.6-9.5-14.3-14.2c-5.1-5-6.5-5-11.6,0c-0.7,0.6-1.3,1.3-1.9,1.9c-7.5,7.6-15,15.3-22.5,22.9
	c-7,7.1-13.5,7.1-20.7,0.1c-5-4.8-9.9-9.7-14.8-14.5c-3.5-3.4-6.9-6.9-10.6-10.2c-3.2-2.8-5.3-2.8-8.1-0.1
	c-5.9,5.9-11.8,11.8-17.6,17.9c-2.9,3-2.8,4.9-0.3,8.1c0.9,1.1,2,2.1,3,3.1c8.2,8,16.4,16,24.5,24c5.4,5.3,5.4,9.6,0.2,15.1
	c-4.9,5.1-9.9,10.2-14.8,15.3c-4.3,4.4-8.7,8.8-12.9,13.3c-3.2,3.5-3.1,5.5,0.3,8.9c5.5,5.5,11.1,11,16.7,16.4
	c3.8,3.7,5.8,3.7,9.7,0c2.6-2.5,5.1-5.2,7.7-7.8c6.3-6.5,12.6-13.1,19-19.5c4.4-4.3,8.2-4.6,13.1-1.1c1.9,1.3,3.7,3,5.3,4.6
	c7.9,7.8,15.7,15.6,23.6,23.4C828.5,871.4,830.2,873,833.2,873z"/>
<path class="st3" d="M313.1,534.5l20.4,20.4c4.9,4.8,12.7,4.8,17.5,0l20.4-20.4c4.9-4.8,4.9-12.7,0-17.5L351,496.6
	c-4.9-4.9-12.7-4.9-17.5,0L313.1,517C308.2,521.8,308.2,529.7,313.1,534.5z"/>
<path class="st3" d="M313.1,594.1l20.4,20.4c4.9,4.8,12.7,4.8,17.5,0l20.4-20.4c4.9-4.8,4.9-12.7,0-17.5L351,556.1
	c-4.9-4.8-12.7-4.8-17.5,0l-20.4,20.4C308.2,581.4,308.2,589.2,313.1,594.1z"/>
<path class="st2" d="M662,951.2l17.3,17.3c2.5,2.5,6.6,2.5,9.1,0l17.3-17.3c2.5-2.5,2.5-6.6,0-9.1l-17.3-17.3
	c-2.5-2.5-6.6-2.5-9.1,0L662,942C659.5,944.6,659.5,948.7,662,951.2z"/>
<circle class="st4" cx="790.2" cy="809.2" r="171.5"/>
</svg>
