<?xml version="1.0" encoding="utf-8"?>
<!-- Generator: Adobe Illustrator 28.0.0, SVG Export Plug-In . SVG Version: 6.00 Build 0)  -->
<svg version="1.1" id="Capa_1" xmlns="http://www.w3.org/2000/svg" xmlns:xlink="http://www.w3.org/1999/xlink" x="0px" y="0px"
	 viewBox="0 0 1080 1080" style="enable-background:new 0 0 1080 1080;" xml:space="preserve">
<style type="text/css">
	.st0{fill:#0A0A0A;}
	.st1{fill:#FDFDFD;}
	.st2{fill:#FFFFFF;}
	.st3{fill:#FF5500;}
	.st4{fill:#6EE1EB;}
	.st5{fill:none;stroke:#FF5500;stroke-width:20;stroke-miterlimit:10;}
</style>
<path class="st0" d="M401.4,211.6c115.2,0,230.3,0.2,345.5-0.2c21.4-0.1,32.3,13.4,34.9,29.6c1.8,10.9-0.1,21.4-5.8,31
	c-4.2,7.1-9.8,12.6-17.7,15.4c-2.1,0.7-2.8,1.8-2.7,3.9c0.2,8,0.3,16,0.3,24c0,2.6,0.8,3.5,3.4,3.4c4.4-0.2,8.7,0,13.1,0
	c15.4,0,30.9-0.4,46.3,0c22.4,0.6,40.5,10.3,54.3,27.8c4.9,6.3,6.3,13.7,6.2,21.5c-0.2,42.5-0.2,85-0.3,127.5
	c-0.1,43.2-0.2,86.5-0.3,129.7c0,1.1,0.1,2.2,0,3.3c-0.1,2.1,0.9,2.8,2.9,2.9c4.7,0.1,9.4,0.7,14.1,0.8c10.7,0.2,20.8,3,30.8,6.2
	c65,20.8,107.5,63.7,122.7,130.6c13.3,58.5-1.9,111-41.1,156c-30.2,34.6-68.8,55-114.3,60.5c-58.5,7.1-109.6-9.9-151.4-51.8
	c-28.3-28.3-44.1-63-48.7-102.8c-1.3-10.9-0.9-21.7-0.6-32.6c0.1-3.6,0.1-3.6-3.4-3.7c-0.9,0-1.8,0-2.7,0
	c-207.1,0.6-414.1,1.3-621.2,1.9c-4.4,0-8.7,0.4-13.1,0.2c-17.4-1.1-32.1-14.5-35.7-32.2c-2.1-10-0.9-19.5,4.3-28.4
	c5-8.6,12.5-13.9,22.2-16.1c1.8-0.4,2.6-1,2.5-2.7c0-1.3,0-2.5,0-3.8c-0.2-139.7-0.4-279.3-0.6-419c0-0.7-0.1-1.5,0-2.2
	c0.5-3.3-1.1-4.9-4.2-5.9c-7.2-2.3-12.5-7.2-16.5-13.5c-8.6-14-7.8-33.6,1.9-46.8c5.5-7.5,12.9-12.2,22.2-13.2c2.5-0.3,5.1,0,7.6,0
	c115,0,229.9,0,344.9,0C401.4,212.3,401.4,212,401.4,211.6z M400.8,288.9c0,0.3,0,0.7,0,1c-110.8,0-221.6,0-332.4,0
	c-6.6,0-6.2-0.8-6.2,6.1c0.2,139.3,0.3,278.6,0.5,418c0,1.1,0.1,2.2,0,3.3c-0.1,1.8,0.6,2.6,2.5,2.6c13.3-0.1,26.5-0.1,39.8-0.1
	c2.2,0,2.9-0.9,2.8-2.9c-0.1-0.9,0-1.8,0-2.7c0.3-40.1,0.7-80.3,1-120.4c0-1.6,0-3.3,0.1-4.9c0.5-5.7,4.5-9.7,10.1-10.3
	c1.8-0.2,3.6-0.1,5.4,0c20,0.6,39.9,1.2,59.9,1c2.2,0,4.4-0.1,6.5-0.1c4.6,0.2,7.5,2.5,8.4,7c0.4,2.1,0.4,4.3,0.4,6.5
	c-0.2,40-0.4,79.9-0.7,119.9c0,1.3,0.1,2.5,0,3.8c-0.1,1.8,0.6,2.6,2.5,2.6c11.8-0.1,23.6-0.1,35.4-0.1c2,0,2.5-1,2.4-2.7
	c-0.1-0.9,0-1.8,0-2.7c-0.1-30.7-0.2-61.4-0.4-92.1c-0.1-15.4-0.3-30.9-0.2-46.3c0-7.8,3.3-11.2,10.8-11.2c22.3,0,44.7,0,67,0.3
	c10.6,0.1,13,2.8,12.9,13.4c-0.1,26.3-0.2,52.7-0.4,79c-0.1,19.1-0.2,38.1-0.2,57.2c0,5.2-0.7,4.9,5,4.9c8.7,0,17.4,0,26.2-0.1
	c7.1,0,7.1,0,7.2-7.2c0.2-64.1,0.5-128.2,0.5-192.4c0-6.1,2.3-10,7.7-12.4c2.4-1.1,5-0.9,7.5-0.9c19.3,0.2,38.5,0.3,57.8,0.5
	c2.9,0,5.8-0.1,8.7,0.1c6,0.4,8.5,3,8.8,8.9c0.1,0.9,0,1.8,0,2.7c-0.1,24.2-0.3,48.3-0.4,72.5c-0.2,41.1-0.4,82.1-0.6,123.2
	c0,4.8,0,4.8,4,4.8c30-0.1,59.9-0.3,89.9-0.5c3.8,0,3.9-0.1,3.9-3.9c0-8.9-0.1-17.8-0.1-26.7c-0.3-103.2-0.6-206.3-0.8-309.5
	c0-14,3.8-26.9,11.8-38.4c9.4-13.6,22-20.9,39-20.7c42.3,0.3,84.6,0.1,127,0.1c1.3,0,2.6-0.1,3.8,0c2.8,0.3,3.4-1.1,3.3-3.5
	c-0.2-6.5-0.3-13.1-0.4-19.6c-0.1-6.8-0.1-6.8-7.1-6.8C621.3,288.9,511.1,288.9,400.8,288.9z M742.8,688.7c1.1-1.4,1.7-2.5,2.6-3.4
	c24.2-24.2,53-40.2,86.1-48.6c8.6-2.2,17.4-3.5,26.2-4.6c3.9-0.5,3.9-0.6,3.9-4.6c0-0.4,0-0.7,0-1.1c0.2-72.7,0.4-145.3,0.6-218
	c0-6.5,0.7-5.6-5.9-5.6c-92.8-0.1-185.6-0.2-278.4-0.2c-8.1,0-6.9-1-6.9,6.8c0.2,98.3,0.5,196.5,0.8,294.8c0,1.3,0.1,2.5,0,3.8
	c-0.2,2.2,0.9,2.9,2.9,2.8c0.9-0.1,1.8,0,2.7,0c32.5-0.1,65-0.3,97.5-0.4c1.1,0,2.2,0,3.3,0c1.4,0,2.4-0.5,2.6-2
	c0.2-1.1,0.6-2.1,1-3.1c6-16.1,21.3-27,37.5-26.5C728.2,678.9,735.6,682.3,742.8,688.7z M400.7,228.4c0,0.2,0,0.5,0,0.7
	c-29.4,0-58.9,0-88.3,0c-86.3,0.1-172.6,0.4-258.9,0.4c-7.4,0-12,3.3-15.1,9.4c-3,5.9-3.7,12.1-2.1,18.5c2,8.3,7,13.4,15.6,14.5
	c5.4,0.7,10.8,1.2,16.3,1.2c147.9-0.3,295.7-0.6,443.6-0.8c78.7-0.1,157.3-0.2,236-0.2c4.1,0,7.4-1.1,10.3-3.9
	c8-7.9,10-23.3,4.2-32.9c-2.3-3.8-5.5-6.3-10-6.6c-2.9-0.2-5.8-0.3-8.7-0.3C629.2,228.4,515,228.4,400.7,228.4z M1036.8,815.7
	c-0.1-30.7-4.2-51.6-12.8-71.5c-28.7-66.3-97.8-104.3-170-94.7c-38.5,5.1-71.9,21.5-98.6,49.8c-39,41.4-54,90.5-42.3,146.5
	c14.5,69.7,76.5,123.1,154.6,124.6c26,0.5,51-4.6,74.3-16.2C1002.5,923.7,1033.7,874.1,1036.8,815.7z M568.1,777.6
	c-4.9-5.3-8.3-10.7-10.6-16.9c-2.4-6.5-2.2-13.2-2.3-19.9c-0.1-6.1,0.9-5.8-5.9-5.8c-164.9,0.5-329.8,1.1-494.7,1.6
	c-1.6,0-3.3,0-4.9,0.1c-8.7,0.5-14.7,5.6-16.3,14.1c-2.9,15.7,8.7,29.4,23.3,29.2c47.9-0.7,95.9-0.5,143.8-0.7
	c120-0.4,240.1-0.7,360.1-1.1C562.9,778.2,565.1,778.5,568.1,777.6z M716.7,385.5c0,0.2,0,0.3,0,0.5c46.3,0,92.6,0,138.9,0
	c1.3,0,2.5,0,3.8,0c2,0.1,3-0.6,2.9-2.8c-0.2-3.6-0.2-7.3-0.3-10.9c-0.5-14.6-8.5-24.1-20.8-30.9c-9.8-5.4-20.4-6-31.1-6
	c-68.7,0-137.3,0.1-206,0c-8.9,0-15.9,3.3-21.4,9.8c-8.4,9.9-12.1,21.4-11.3,34.3c0.5,7.1-0.7,6,6.4,6
	C624.1,385.5,670.4,385.5,716.7,385.5z M384.4,620.2c-0.1,0-0.2,0-0.3,0c0,31.2,0,62.5,0,93.7c0,4.8,0,4.8,4.6,4.8
	c15.6,0,31.2-0.1,46.8-0.1c4.7,0,4.8-0.1,4.8-4.7c0.3-62.1,0.6-124.2,0.9-186.3c0-4.5,0-4.5-4.4-4.5c-16-0.1-32-0.2-47.9-0.3
	c-0.7,0-1.5,0-2.2,0c-1.6-0.1-2.4,0.6-2.3,2.2c0,1.3,0,2.5,0,3.8C384.4,559.2,384.4,589.7,384.4,620.2z M255.6,649
	c0.2,0,0.3,0,0.5,0c0,22,0,43.9,0,65.9c0,4.1,0.1,4.1,4.2,4.1c16.1,0,32.3-0.1,48.4,0c2.8,0,3.7-0.8,3.6-3.7
	c-0.2-12.2,0-24.3,0-36.5c0.1-31,0.1-62,0.2-93.1c0-4.9,0-5.1-4.5-5c-16,0.1-31.9-0.4-47.9-0.9c-4.4-0.1-4.4,0-4.4,4.4
	C255.6,605.9,255.6,627.4,255.6,649z M125.7,657.7c-0.3,0-0.7,0-1,0c0,19.2,0,38.5,0,57.7c0,4.2,0,4.3,4,4.3
	c16.5-0.1,33-0.2,49.5-0.3c4,0,4-0.1,4.1-4.4c0.2-38.1,0.3-76.2,0.4-114.3c0-3.8-0.1-3.9-3.8-4c-16.3-0.4-32.6-0.7-49-1.1
	c-4.7-0.1-4.3-0.2-4.3,4.5C125.7,619.3,125.7,638.5,125.7,657.7z M647.8,777.8C647.8,777.8,647.8,777.8,647.8,777.8
	c14.5,0,29,0,43.6,0c5.4,0,4.2,0.6,5.5-4.5c1.3-5.1,2.4-10.2,4.2-15.2c1-2.7,0.5-4.1-2.2-5.4c-8.8-4.2-14.5-11.3-17.6-20.4
	c-1.7-4.9-1.7-4.9-7.1-4.9c-32.1,0.1-64.2,0.1-96.4,0.2c-1.1,0-2.2,0.1-3.3,0c-2.2-0.2-2.7,0.9-2.7,2.9c0.1,6.2,0,12.3,0.1,18.5
	c0,1.2,0.5,2.5,0.8,3.7c4.2,16.1,20.6,25.2,32.6,25.1C619.5,777.7,633.7,777.8,647.8,777.8z M696,721.3c0.2,6.1,2.9,12.4,10,16.4
	c1.6,0.9,2.5,0.8,3.3-1c1.3-3,2.8-5.9,4.4-8.7c4.6-8.4,9.7-16.6,15.7-24.2c1.7-2.1,1.4-3.3-0.7-4.8c-3.6-2.5-7.5-3.6-11.8-3.3
	C705.6,696.5,696.2,707.3,696,721.3z"/>
<path class="st1" d="M400.8,288.9c110.3,0,220.5,0,330.8,0c7,0,7,0,7.1,6.8c0.1,6.5,0.2,13.1,0.4,19.6c0.1,2.5-0.5,3.8-3.3,3.5
	c-1.3-0.1-2.5,0-3.8,0c-42.3,0-84.6,0.3-127-0.1c-17.1-0.1-29.6,7.2-39,20.7c-8,11.5-11.8,24.5-11.8,38.4
	c0.2,103.2,0.5,206.3,0.8,309.5c0,8.9,0.1,17.8,0.1,26.7c0,3.8-0.1,3.9-3.9,3.9c-30,0.2-59.9,0.3-89.9,0.5c-4,0-4-0.1-4-4.8
	c0.2-41.1,0.4-82.1,0.6-123.2c0.1-24.2,0.2-48.3,0.4-72.5c0-0.9,0-1.8,0-2.7c-0.3-5.9-2.9-8.5-8.8-8.9c-2.9-0.2-5.8-0.1-8.7-0.1
	c-19.3-0.2-38.5-0.3-57.8-0.5c-2.5,0-5.1-0.1-7.5,0.9c-5.4,2.4-7.7,6.3-7.7,12.4c-0.1,64.1-0.3,128.2-0.5,192.4c0,7.2,0,7.2-7.2,7.2
	c-8.7,0-17.4,0.1-26.2,0.1c-5.7,0-5,0.4-5-4.9c0.1-19.1,0.1-38.1,0.2-57.2c0.1-26.3,0.3-52.7,0.4-79c0-10.7-2.3-13.3-12.9-13.4
	c-22.3-0.2-44.7-0.3-67-0.3c-7.5,0-10.8,3.5-10.8,11.2c0,15.4,0.2,30.9,0.2,46.3c0.1,30.7,0.2,61.4,0.4,92.1c0,0.9-0.1,1.8,0,2.7
	c0.1,1.7-0.4,2.7-2.4,2.7c-11.8,0-23.6,0-35.4,0.1c-1.9,0-2.6-0.8-2.5-2.6c0.1-1.3,0-2.5,0-3.8c0.2-40,0.5-79.9,0.7-119.9
	c0-2.2,0-4.4-0.4-6.5c-0.8-4.5-3.8-6.9-8.4-7c-2.2-0.1-4.4,0-6.5,0.1c-20,0.3-40-0.4-59.9-1c-1.8-0.1-3.6-0.2-5.4,0
	c-5.7,0.6-9.6,4.6-10.1,10.3c-0.2,1.6-0.1,3.3-0.1,4.9c-0.3,40.1-0.7,80.3-1,120.4c0,0.9-0.1,1.8,0,2.7c0.1,2-0.6,2.9-2.8,2.9
	c-13.3,0-26.5,0-39.8,0.1c-1.9,0-2.6-0.8-2.5-2.6c0.1-1.1,0-2.2,0-3.3c-0.2-139.3-0.3-278.6-0.5-418c0-6.9-0.5-6.1,6.2-6.1
	c110.8,0,221.6,0,332.4,0C400.8,289.5,400.8,289.2,400.8,288.9z M198,546.1c16.6,0,32.4-3.7,47.2-11.1
	c47.6-23.6,72.2-78.1,58.9-129.7c-10.4-40.5-44.7-77.3-95.7-81.9c-19-1.7-37.3,1.8-54.5,10.1c-49,23.4-74.4,79.3-59.9,132
	C107.2,513.5,149.3,546.1,198,546.1z M428.4,340.5c0-0.4,0-0.7,0-1.1c27.2,0,54.5,0,81.7,0c2.4,0,4.7,0.1,7-0.7
	c3.7-1.2,5.8-3.9,5.9-7.6c0.1-3.9-2.1-6.8-5.9-8.1c-1.9-0.7-3.9-0.6-5.9-0.6c-55,0.4-110,0.7-165,1.1c-2,0-4,0.1-5.9,0.8
	c-3.5,1.3-5.8,4.4-5.8,7.8c0,3.5,2.3,6.5,5.8,7.8c2.3,0.9,4.6,0.7,7,0.7C374.3,340.5,401.4,340.5,428.4,340.5z M428.6,399.3
	c0-0.4,0-0.7,0-1.1c27.2,0,54.5,0,81.7,0c2.4,0,4.7,0.1,7-0.7c3.6-1.2,5.7-4.1,5.7-7.7c0-3.7-2-6.5-5.6-7.8
	c-1.9-0.7-3.9-0.7-5.9-0.7c-55.2,0.4-110.4,0.7-165.6,1.1c-1.8,0-3.6,0-5.4,0.6c-3.8,1.3-6.2,4.5-6.1,8.1c0.1,3.5,2.4,6.4,6,7.7
	c2.3,0.8,4.7,0.6,7,0.6C374.5,399.3,401.5,399.3,428.6,399.3z M428.4,458.6c0-0.4,0-0.7,0-1.1c27.4,0,54.8,0,82.2,0
	c1.6,0,3.3,0.1,4.9-0.2c4.6-0.6,7.6-4.1,7.5-8.5c-0.1-4.2-3.1-7.4-7.5-7.9c-1.8-0.2-3.6-0.1-5.4-0.1c-54.6,0.4-109.3,0.7-163.9,1.1
	c-1.5,0-2.9,0-4.3,0.2c-4.3,0.7-7.3,4.2-7.3,8.2c0,4,3.1,7.5,7.4,8.2c1.6,0.2,3.3,0.2,4.9,0.2C373.9,458.6,401.2,458.6,428.4,458.6z
	"/>
<path class="st2" d="M742.8,688.7c-7.2-6.4-14.6-9.8-23.3-10.1c-16.2-0.5-31.6,10.5-37.5,26.5c-0.4,1-0.8,2-1,3.1
	c-0.3,1.6-1.2,2.1-2.6,2c-1.1,0-2.2,0-3.3,0c-32.5,0.1-65,0.3-97.5,0.4c-0.9,0-1.8,0-2.7,0c-2,0.1-3.1-0.6-2.9-2.8
	c0.1-1.3,0-2.5,0-3.8c-0.3-98.3-0.6-196.5-0.8-294.8c0-7.9-1.2-6.8,6.9-6.8c92.8,0.1,185.6,0.1,278.4,0.2c6.6,0,5.9-0.9,5.9,5.6
	c-0.2,72.7-0.4,145.3-0.6,218c0,0.4,0,0.7,0,1.1c-0.1,4,0,4.1-3.9,4.6c-8.8,1.1-17.6,2.4-26.2,4.6c-33.1,8.5-61.9,24.5-86.1,48.6
	C744.5,686.2,743.9,687.4,742.8,688.7z"/>
<path class="st1" d="M400.7,228.4c114.3,0,228.5,0,342.8,0c2.9,0,5.8,0.1,8.7,0.3c4.5,0.3,7.8,2.8,10,6.6c5.8,9.6,3.8,25-4.2,32.9
	c-2.9,2.9-6.2,3.9-10.3,3.9c-78.7,0-157.3,0.1-236,0.2c-147.9,0.2-295.7,0.5-443.6,0.8c-5.5,0-10.9-0.5-16.3-1.2
	c-8.6-1.1-13.6-6.2-15.6-14.5c-1.6-6.4-0.9-12.6,2.1-18.5c3.1-6.1,7.8-9.4,15.1-9.4c86.3,0,172.6-0.2,258.9-0.4
	c29.4,0,58.9,0,88.3,0C400.7,228.9,400.7,228.6,400.7,228.4z"/>
<path class="st1" d="M568.1,777.6c-3,0.9-5.2,0.6-7.4,0.6c-120,0.4-240.1,0.8-360.1,1.1c-47.9,0.1-95.9-0.1-143.8,0.7
	c-14.6,0.2-26.2-13.5-23.3-29.2c1.6-8.4,7.6-13.6,16.3-14.1c1.6-0.1,3.3-0.1,4.9-0.1c164.9-0.5,329.8-1.1,494.7-1.6
	c6.8,0,5.8-0.3,5.9,5.8c0.1,6.7-0.1,13.3,2.3,19.9C559.8,766.8,563.2,772.2,568.1,777.6z"/>
<path class="st1" d="M716.7,385.5c-46.3,0-92.6,0-138.9,0c-7,0-5.9,1.1-6.4-6c-0.8-12.9,3-24.4,11.3-34.3c5.6-6.6,12.5-9.9,21.4-9.8
	c68.7,0.1,137.3,0.1,206,0c10.8,0,21.4,0.6,31.1,6c12.2,6.8,20.3,16.3,20.8,30.9c0.1,3.6,0.1,7.3,0.3,10.9c0.1,2.3-0.9,2.9-2.9,2.8
	c-1.3-0.1-2.5,0-3.8,0c-46.3,0-92.6,0-138.9,0C716.7,385.8,716.7,385.7,716.7,385.5z M715.1,369.1c0-0.1,0-0.2,0-0.3c8,0,16,0,24,0
	c2,0,4-0.1,5.9-0.8c3.6-1.3,5.6-4.2,5.6-7.8c0-3.7-2.1-6.4-5.7-7.8c-2.1-0.8-4.3-0.7-6.5-0.7c-16,0.2-31.9,0.4-47.9,0.6
	c-1.3,0-2.6,0-3.8,0.3c-3.8,0.7-6.5,3.8-6.7,7.5c-0.3,3.6,2.1,7.1,5.8,8.4c1.8,0.6,3.6,0.5,5.4,0.5
	C699.2,369.1,707.2,369.1,715.1,369.1z"/>
<path class="st1" d="M384.4,620.2c0-30.5,0-61,0-91.5c0-1.3,0-2.5,0-3.8c-0.1-1.6,0.8-2.3,2.3-2.2c0.7,0,1.5,0,2.2,0
	c16,0.1,32,0.2,47.9,0.3c4.4,0,4.4,0.1,4.4,4.5c-0.3,62.1-0.6,124.2-0.9,186.3c0,4.7-0.1,4.7-4.8,4.7c-15.6,0.1-31.2,0.1-46.8,0.1
	c-4.6,0-4.6,0-4.6-4.8c0-31.2,0-62.5,0-93.7C384.2,620.2,384.3,620.2,384.4,620.2z"/>
<path class="st1" d="M255.6,649c0-21.6,0-43.2,0-64.8c0-4.4,0-4.6,4.4-4.4c16,0.5,31.9,1.1,47.9,0.9c4.5,0,4.5,0.1,4.5,5
	c0,31-0.1,62-0.2,93.1c0,12.2-0.1,24.3,0,36.5c0,2.9-0.8,3.7-3.6,3.7c-16.1-0.1-32.3,0-48.4,0c-4.1,0-4.2-0.1-4.2-4.1
	c0-22,0-43.9,0-65.9C255.9,649,255.8,649,255.6,649z"/>
<path class="st1" d="M125.7,657.7c0-19.2,0-38.5,0-57.7c0-4.7-0.4-4.6,4.3-4.5c16.3,0.4,32.6,0.7,49,1.1c3.7,0.1,3.8,0.2,3.8,4
	c-0.1,38.1-0.3,76.2-0.4,114.3c0,4.3-0.1,4.4-4.1,4.4c-16.5,0.1-33,0.3-49.5,0.3c-4,0-4-0.1-4-4.3c0-19.2,0-38.5,0-57.7
	C125.1,657.7,125.4,657.7,125.7,657.7z"/>
<path class="st1" d="M647.8,777.8c-14.2,0-28.3-0.1-42.5,0c-12.1,0.1-28.4-9-32.6-25.1c-0.3-1.2-0.8-2.5-0.8-3.7
	c-0.1-6.2,0-12.3-0.1-18.5c0-2,0.5-3.1,2.7-2.9c1.1,0.1,2.2,0,3.3,0c32.1-0.1,64.2-0.1,96.4-0.2c5.4,0,5.4,0,7.1,4.9
	c3.1,9.2,8.8,16.2,17.6,20.4c2.7,1.3,3.2,2.7,2.2,5.4c-1.8,4.9-3,10.1-4.2,15.2c-1.3,5.1-0.1,4.5-5.5,4.5
	C676.8,777.9,662.3,777.8,647.8,777.8C647.8,777.8,647.8,777.8,647.8,777.8z"/>
<path class="st1" d="M696,721.3c0.2-14,9.6-24.8,21-25.7c4.3-0.3,8.2,0.8,11.8,3.3c2.1,1.5,2.3,2.7,0.7,4.8
	c-6,7.5-11.1,15.7-15.7,24.2c-1.6,2.9-3.1,5.8-4.4,8.7c-0.8,1.8-1.7,1.9-3.3,1C698.9,733.7,696.2,727.3,696,721.3z"/>
<path class="st0" d="M198,546.1c-48.7,0.1-90.8-32.6-104-80.6c-14.5-52.7,10.8-108.6,59.9-132c17.2-8.2,35.5-11.8,54.5-10.1
	c51.1,4.6,85.3,41.4,95.7,81.9c13.3,51.6-11.3,106.1-58.9,129.7C230.3,542.4,214.6,546.1,198,546.1z M290.4,425.4
	c-8.4,2.2-16,4.3-23.7,6.3c-17.7,4.7-35.4,9.4-53.1,14c-5,1.3-10.2,1.4-15.1,0.3c-9.1-2.1-14.8-8.1-17.2-17.1
	c-3.6-13.5-7.1-27-10.7-40.5c-3.4-13-6.8-25.9-10.2-39c-3,0.6-5.2,2.2-7.5,3.6c-42.6,25.7-58.9,81.5-36,125.7
	c18,34.6,47.1,52.1,86.3,50.3c28.7-1.3,51.6-14.9,68.6-37.9C286.3,471.9,292.2,450.1,290.4,425.4z M176.3,343.2
	c3,11.5,5.8,22.3,8.6,33.2c4,15.3,7.9,30.5,12,45.8c1.6,6,5.7,8.5,11.9,7.5c0.9-0.2,1.8-0.4,2.6-0.7c24.2-6.4,48.3-12.8,72.5-19.3
	c3.7-1,3.7-1.1,2.6-4.7c-11.3-38.9-48.1-66-88.6-65.2C190.7,340,183.5,340.8,176.3,343.2z"/>
<path class="st0" d="M428.4,340.5c-27.1,0-54.1,0-81.2,0c-2.4,0-4.7,0.2-7-0.7c-3.5-1.3-5.8-4.3-5.8-7.8c0-3.4,2.3-6.5,5.8-7.8
	c1.9-0.7,3.9-0.7,5.9-0.8c55-0.4,110-0.7,165-1.1c2,0,4-0.1,5.9,0.6c3.9,1.3,6.1,4.3,5.9,8.1c-0.1,3.7-2.3,6.4-5.9,7.6
	c-2.3,0.8-4.7,0.7-7,0.7c-27.2,0-54.5,0-81.7,0C428.4,339.7,428.4,340.1,428.4,340.5z"/>
<path class="st0" d="M428.6,399.3c-27.1,0-54.1,0-81.2,0c-2.3,0-4.7,0.2-7-0.6c-3.5-1.3-5.9-4.2-6-7.7c-0.1-3.6,2.4-6.8,6.1-8.1
	c1.8-0.6,3.6-0.6,5.4-0.6c55.2-0.4,110.4-0.7,165.6-1.1c2,0,4,0,5.9,0.7c3.6,1.3,5.6,4.2,5.6,7.8c0,3.7-2.1,6.5-5.7,7.7
	c-2.3,0.8-4.6,0.7-7,0.7c-27.2,0-54.5,0-81.7,0C428.6,398.6,428.6,399,428.6,399.3z"/>
<path class="st0" d="M428.4,458.6c-27.2,0-54.5,0-81.7,0c-1.6,0-3.3,0.1-4.9-0.2c-4.2-0.6-7.4-4.1-7.4-8.2c0-4,3.1-7.5,7.3-8.2
	c1.4-0.2,2.9-0.2,4.3-0.2c54.6-0.4,109.3-0.7,163.9-1.1c1.8,0,3.6-0.1,5.4,0.1c4.4,0.5,7.4,3.7,7.5,7.9c0.1,4.4-2.9,7.9-7.5,8.5
	c-1.6,0.2-3.3,0.2-4.9,0.2c-27.4,0-54.8,0-82.2,0C428.4,457.8,428.4,458.2,428.4,458.6z"/>
<path class="st3" d="M874.6,944.3c-66,0-121.7-46.4-132.7-109.5c-10.3-59.2,20.2-119.1,74.8-145.2c41.7-20,83.9-19.6,124.5,2.5
	c38.9,21.2,61.7,54.9,67.7,99c9.4,69.5-37.8,137.1-111.3,150.9C889.6,943.5,881.4,944.1,874.6,944.3z M876,692.4
	c-5,0.2-10.8,0.4-16.6,1.2c-58.1,8.3-102.1,58.3-102.5,116.9c-0.2,35,12.4,65,39,87.6c38.6,32.8,82.2,38.1,128.1,17.8
	c49.8-22,77.8-77.8,67-130.8C980,730.8,932.6,692.4,876,692.4z"/>
<path class="st0" d="M715.1,369.1c-8,0-16,0-24,0c-1.8,0-3.6,0.1-5.4-0.5c-3.6-1.3-6-4.7-5.8-8.4c0.3-3.7,3-6.8,6.7-7.5
	c1.2-0.2,2.5-0.3,3.8-0.3c16-0.2,31.9-0.4,47.9-0.6c2.2,0,4.3-0.1,6.5,0.7c3.6,1.3,5.7,4.1,5.7,7.8c0,3.7-2,6.5-5.6,7.8
	c-1.9,0.7-3.9,0.8-5.9,0.8c-8,0-16,0-24,0C715.1,368.9,715.1,369,715.1,369.1z"/>
<path class="st1" d="M290.4,425.4c1.7,24.6-4.2,46.5-18.5,65.7c-17,23-40,36.6-68.6,37.9c-39.2,1.8-68.3-15.7-86.3-50.3
	c-23-44.2-6.6-99.9,36-125.7c2.3-1.4,4.5-3,7.5-3.6c3.4,13.1,6.8,26,10.2,39c3.5,13.5,7.1,27,10.7,40.5c2.4,9,8.1,15,17.2,17.1
	c4.9,1.2,10.1,1,15.1-0.3c17.7-4.6,35.4-9.3,53.1-14C274.4,429.7,282.1,427.6,290.4,425.4z"/>
<path class="st1" d="M176.3,343.2c7.2-2.4,14.5-3.2,21.7-3.4c40.4-0.9,77.3,26.3,88.6,65.2c1,3.6,1.1,3.7-2.6,4.7
	c-24.2,6.5-48.3,12.9-72.5,19.3c-0.9,0.2-1.7,0.5-2.6,0.7c-6.1,1-10.3-1.4-11.9-7.5c-4.1-15.2-8-30.5-12-45.8
	C182.1,365.6,179.3,354.7,176.3,343.2z"/>
<path class="st3" d="M925.9,807c8.1,8.3,15.8,16.2,23.6,24.1c2.8,2.9,5.6,5.7,7.8,9c2.7,4,2.9,8.1,0.6,12.3c-1.4,2.6-3,4.9-5.1,7
	c-8.9,8.8-17.7,17.7-26.6,26.5c-6.4,6.4-10.7,6.8-18.4,2c-3.3-2-6.1-4.5-8.8-7.2c-7.8-7.8-15.7-15.6-23.5-23.4
	c-4.4,4.3-8.5,8.3-12.6,12.4c-5.1,5.1-10.2,10.4-15.3,15.5c-1.4,1.4-3.1,2.5-4.7,3.7c-3.6,2.5-7.4,2.6-11.3,0.8
	c-2.8-1.3-5.3-3.1-7.5-5.3c-8.9-8.8-17.9-17.5-26.8-26.3c-6.4-6.4-6.9-10.7-2.3-18.4c1.9-3.1,4.2-5.9,6.7-8.5
	c6.7-6.9,13.4-13.8,20.1-20.7c4.1-4.2,4.3-3.3-0.3-7.8c-7.9-7.8-15.8-15.5-23.7-23.3c-0.8-0.8-1.5-1.6-2.2-2.4
	c-4.6-5.9-4.8-10.1-0.9-16.5c1-1.7,2.3-3.3,3.7-4.7c8.7-9,17.5-17.9,26.4-26.8c6.6-6.7,10.9-7.1,18.8-2.2c2.9,1.8,5.6,4,8.1,6.5
	c7.1,7,14.3,14,21.4,20.9c2.7,2.6,2.8,2.6,5.5-0.1c8.8-8.9,17.5-18,26.5-26.6c8.4-8,14.8-7.9,23.1,0.2c9.4,9.1,18.7,18.3,27.9,27.6
	c5.7,5.8,6.2,10.1,2.1,17.1c-2,3.5-4.6,6.5-7.4,9.4C942.5,790,934.3,798.4,925.9,807z M845.6,806.5c0.1,2.6-1.1,4.7-2.9,6.6
	c-2.7,2.9-5.5,5.8-8.3,8.6c-6.6,6.8-13.2,13.5-19.7,20.3c-3.7,3.9-3.6,5.9,0.1,9.7c5.4,5.4,10.8,10.7,16.3,16
	c3.9,3.7,5.8,3.8,9.7,0.1c3-2.9,5.9-5.9,8.8-8.9c6-6.1,11.8-12.3,17.9-18.3c4.5-4.5,8.4-4.7,13.6-1c1.9,1.4,3.6,3,5.3,4.7
	c8,7.9,15.9,15.9,24,23.8c3.8,3.8,5.9,3.7,9.7-0.1c5.3-5.2,10.6-10.5,15.8-15.8c4.3-4.3,4.4-6.1,0.2-10.5c-4.9-5.1-10-10-15-15
	c-3.9-3.8-7.8-7.6-11.6-11.6c-4.2-4.4-4.4-7.4-1.4-12.7c1.9-3.4,4.3-6.2,7-9c7.5-7.6,15.1-15.2,22.5-22.9c4-4.1,3.9-6.1-0.1-10.1
	c-5.1-5.1-10.3-10.2-15.5-15.3c-4.7-4.6-6.2-4.6-10.8-0.2c-0.8,0.7-1.5,1.5-2.3,2.3c-7.6,7.8-15.3,15.5-22.9,23.3
	c-1.9,2-3.9,3.8-6.7,4.4c-4.7,1-8.9,0.3-12.5-3.3c-8.5-8.5-17.1-16.8-25.7-25.1c-4.1-3.9-6.1-3.8-10.1,0.2
	c-4.5,4.5-8.9,9.1-13.4,13.6c-7.1,7.2-7.1,7.8,0.3,15.1c7.9,7.8,15.8,15.5,23.8,23.2C843.8,800.9,845.6,803.1,845.6,806.5z"/>
<path class="st4" d="M24.4,616.2l20.4,20.4c4.8,4.8,12.7,4.8,17.5,0l20.4-20.4c4.8-4.8,4.8-12.7,0-17.5l-20.4-20.4
	c-4.8-4.8-12.7-4.8-17.5,0l-20.4,20.4C19.5,603.5,19.5,611.3,24.4,616.2z"/>
<path class="st4" d="M24.4,675.7l20.4,20.4c4.8,4.8,12.7,4.8,17.5,0l20.4-20.4c4.8-4.8,4.8-12.7,0-17.5l-20.4-20.4
	c-4.8-4.8-12.7-4.8-17.5,0l-20.4,20.4C19.5,663,19.5,670.8,24.4,675.7z"/>
<path class="st3" d="M741.3,944.8l17.3,17.3c2.5,2.5,6.6,2.5,9.1,0l17.3-17.3c2.5-2.5,2.5-6.6,0-9.1l-17.3-17.3
	c-2.5-2.5-6.6-2.5-9.1,0l-17.3,17.3C738.8,938.2,738.8,942.3,741.3,944.8z"/>
<circle class="st5" cx="873" cy="809.2" r="171.5"/>
</svg>
