<?xml version="1.0" encoding="utf-8"?>
<!-- Generator: Adobe Illustrator 28.0.0, SVG Export Plug-In . SVG Version: 6.00 Build 0)  -->
<svg version="1.1" id="Capa_1" xmlns="http://www.w3.org/2000/svg" xmlns:xlink="http://www.w3.org/1999/xlink" x="0px" y="0px"
	 viewBox="0 0 1080 1080" style="enable-background:new 0 0 1080 1080;" xml:space="preserve">
<style type="text/css">
	.st0{fill:#FFFFFF;}
	.st1{fill:#0A0A0A;}
	.st2{fill:#FDFDFD;}
	.st3{fill:#DBB300;}
	.st4{fill:#6EE1EB;}
	.st5{fill:none;stroke:#DBB300;stroke-width:20;stroke-miterlimit:10;}
</style>
<path class="st0" d="M-19,1098.2c0-372.4,0-744.8,0-1117.2c372.4,0,744.8,0,1117.2,0c0,372.4,0,744.8,0,1117.2
	C725.8,1098.2,353.4,1098.2-19,1098.2z M401,211.6c0,0.2,0,0.5,0,0.7c-80.3,0-160.6,0-240.8,0c-36.1,0-72.3,0.1-108.4,0.2
	c-9.5,0-17.3,3.9-23.3,11.1c-9,10.8-11.6,23.2-8.6,36.8c2.5,11.7,8.9,20.6,20.1,25.4c5.3,2.3,5.4,2.2,5.4,8.2
	c0.2,139.7,0.4,279.3,0.6,419c0,1.3,0,2.5,0,3.8c0,1.6-0.4,2.6-2.4,2.9c-7.4,1-13.2,5-18,10.4c-8.9,9.9-11.4,21.7-8.5,34.5
	c4.2,19.1,20.9,33.6,40.9,31.9c4.3-0.4,8.7-0.2,13.1-0.2c187.8-0.5,375.6-1.1,563.4-1.6c18-0.1,36-0.2,53.9-0.3c5.1,0,4.8,0,4.6,4.6
	c-0.4,10.5-0.6,21,0.6,31.5c4.5,39.2,19.9,73.5,47.5,101.6c42.1,42.9,93.7,60.2,153.1,53.1c38.4-4.6,72.3-20.3,100.5-46.8
	c46.8-44.1,67.4-98.6,56.1-162.1c-12.3-69-54.3-114.3-120.4-137c-11.1-3.8-22.4-7.1-34.4-7.4c-4.7-0.1-9.4-0.7-14.1-0.8
	c-2.4,0-3.3-1-3.1-3.3c0.1-1.1,0-2.2,0-3.3c0.1-26.2,0.2-52.3,0.2-78.5c0.1-59.4,0.2-118.8,0.4-178.2c0-10.2-2.9-19-9.9-26.2
	c-14.4-14.9-31.6-23.4-52.7-23.4c-18.7,0.1-37.4,0-56.1,0c-4.6,0-4.6,0-4.7-4.8c-0.1-7.3-0.1-14.5-0.3-21.8
	c-0.1-2.4,0.4-3.9,3.1-4.8c6.8-2.3,11.8-6.9,15.8-12.8c6.8-10.1,9.2-21.4,7.3-33.2c-2.6-16.6-13.7-29.9-34.7-29.8
	C631.7,211.8,516.4,211.6,401,211.6z"/>
<path class="st1" d="M401,211.6c115.3,0,230.7,0.2,346-0.1c21.1-0.1,32.2,13.2,34.7,29.8c1.9,11.9-0.5,23.1-7.3,33.2
	c-4,5.9-9,10.5-15.8,12.8c-2.7,0.9-3.1,2.3-3.1,4.8c0.2,7.3,0.2,14.5,0.3,21.8c0.1,4.8,0.1,4.8,4.7,4.8c18.7,0,37.4,0,56.1,0
	c21-0.1,38.3,8.4,52.7,23.4c7,7.3,9.9,16.1,9.9,26.2c-0.3,59.4-0.3,118.8-0.4,178.2c-0.1,26.2-0.1,52.3-0.2,78.5
	c0,1.1,0.1,2.2,0,3.3c-0.2,2.3,0.7,3.2,3.1,3.3c4.7,0.1,9.4,0.7,14.1,0.8c12,0.2,23.3,3.6,34.4,7.4c66.1,22.7,108.1,68,120.4,137
	c11.3,63.5-9.3,118-56.1,162.1c-28.2,26.5-62.1,42.2-100.5,46.8c-59.4,7.1-111-10.2-153.1-53.1c-27.6-28.1-43-62.4-47.5-101.6
	c-1.2-10.5-1-21-0.6-31.5c0.2-4.6,0.4-4.7-4.6-4.6c-18,0.1-36,0.2-53.9,0.3c-187.8,0.5-375.6,1.1-563.4,1.6c-4.4,0-8.7-0.2-13.1,0.2
	c-20,1.7-36.6-12.7-40.9-31.9c-2.8-12.8-0.4-24.6,8.5-34.5c4.8-5.3,10.6-9.3,18-10.4c1.9-0.3,2.4-1.2,2.4-2.9c0-1.3,0-2.5,0-3.8
	c-0.2-139.7-0.4-279.3-0.6-419c0-6,0-5.9-5.4-8.2c-11.2-4.9-17.6-13.8-20.1-25.4c-2.9-13.5-0.3-26,8.6-36.8
	c6-7.2,13.8-11.1,23.3-11.1c36.1-0.1,72.3-0.2,108.4-0.2c80.3,0,160.6,0,240.8,0C401,212.1,401,211.9,401,211.6z M457.7,718.1
	c1.8,0.7,3.6,0.4,5.4,0.4c28.3-0.1,56.7-0.3,85-0.5c8.2-0.1,7,1,7-6.8c-0.3-111-0.6-222-0.9-333c0-10.5,2.1-20.6,6.8-30
	c9.4-18.9,23.5-30.1,45.9-29.6c28,0.6,55.9,0.1,83.9,0.1c14.7,0,29.4,0,44.1,0c4.1,0,4.2-0.1,4.1-4.2c-0.1-6.2-0.2-12.3-0.3-18.5
	c-0.1-7.1-0.1-7.1-7.3-7.1c-200.2,0.3-400.3,0.6-600.5,0.9c-21.4,0-42.9,0.1-64.3,0.1c-4.2,0-4.2,0.1-4.3,4.1c0,0.7,0,1.5,0,2.2
	c0.1,98.8,0.3,197.6,0.4,296.4c0.1,40.7,0.1,81.4,0.1,122.1c0,5.4-0.4,5.1,4.9,5.1c11.8,0,23.6,0,35.4-0.1c4.7,0,4.7-0.1,4.8-4.7
	c0-0.4,0-0.7,0-1.1c0.3-40.1,0.7-80.3,1-120.4c0-1.5,0-2.9,0.1-4.4c0.5-6.2,4.6-10.3,10.9-10.7c1.8-0.1,3.6,0,5.4,0
	c21.1,0.7,42.1,1.5,63.2,0.8c6.8-0.2,11.6,3.1,11.3,11.1c-0.1,1.5,0,2.9,0,4.4c-0.2,28.5-0.4,57-0.6,85.6c-0.1,11.8,0,23.6-0.1,35.4
	c0,2.4,0.4,3.6,3.2,3.6c11.3-0.2,22.5-0.2,33.8-0.1c2.7,0,3.6-1,3.3-3.5c-0.1-1.1,0-2.2,0-3.3c-0.2-44.7-0.4-89.4-0.6-134.1
	c0-2.4-0.1-4.7,0.4-7.1c0.7-3.3,2.7-5.4,5.8-6.7c1.9-0.8,3.9-0.6,5.9-0.6c18.5,0,37.1,0,55.6,0c4.7,0,9.5,0,14.1,0.5
	c6.3,0.7,8.5,3.3,8.9,9.6c0.1,1.4,0,2.9,0,4.4c0,11.8-0.1,23.6-0.1,35.4c-0.2,33.4-0.3,66.8-0.5,100.3c0,5-0.5,4.7,4.7,4.7
	c8.9,0,17.8,0,26.7-0.1c7.8-0.1,6.9,1.3,6.9-6.9c0.2-64.1,0.5-128.2,0.6-192.4c0-6,1.9-10.1,7.4-12.6c2.4-1.1,4.9-1.1,7.5-1.1
	c20.9,0.2,41.8,0.3,62.7,0.5c11.3,0.1,13.1,1.9,13,13.5c-0.3,64.1-0.6,128.2-0.9,192.4C457.3,714.1,456.8,716.2,457.7,718.1z
	 M862,403.3c-1.8-0.9-3.6-0.4-5.4-0.5c-93-0.1-186-0.2-279-0.3c-6.6,0-6.6,0-6.6,6.7c0.3,98.4,0.5,196.9,0.8,295.3
	c0,0.7,0,1.5,0,2.2c0.1,3.9,0.1,4,3.8,4c2.4,0,4.7,0,7.1,0c31.1-0.1,62.1-0.3,93.2-0.3c3.1,0,5-0.6,5.7-4c1.1-4.6,3.6-8.8,6.6-12.4
	c9.9-12,22.3-17.6,38-14.4c6.2,1.3,11.3,4.7,16.5,9c1.4-1.6,2.7-3.2,4.1-4.6c11.8-11.4,24.6-21.5,39.1-29.3
	c21.9-11.8,45.1-19.7,70-22.3c5.7-0.6,5.7-0.7,5.7-6.3c0.2-72.3,0.4-144.6,0.6-216.9C862.3,407.2,862.6,405.2,862,403.3z M404,273.1
	c0-0.4,0-0.7,0-1.1c114.4,0,228.9,0,343.3,0.1c4.5,0,8.1-1.1,11.2-4.4c7.4-7.9,9.3-22,4.2-31.6c-2.4-4.5-5.9-7.3-11.1-7.5
	c-2.9-0.1-5.8-0.3-8.7-0.2c-153.1,0.2-306.3,0.5-459.4,0.8c-76.7,0.1-153.3,0.3-230,0.3c-7.1,0-11.7,3.1-14.9,9
	c-3.2,6-3.9,12.4-2.3,19c2,8.3,7,13.3,15.6,14.4c5,0.7,10.1,1.2,15.2,1.2C179.4,273.1,291.7,273.1,404,273.1z M1036.9,814.8
	c-0.2-32.5-5.3-55.5-15.9-77.3c-30.2-62-97.2-97.5-167.2-88.1c-38.5,5.2-71.8,21.6-98.5,49.9c-38.7,41.1-53.7,89.9-42.4,145.5
	c14.7,71.5,77.3,123.6,153.9,125.5c26.2,0.6,51.4-4.4,74.8-16.1C1002.4,923.9,1033.7,874.2,1036.9,814.8z M568,777.5
	c-4.8-5.3-8.2-10.7-10.5-16.9c-2.4-6.5-2.2-13.2-2.3-19.9c-0.1-6.1,0.9-5.7-5.9-5.7c-164.9,0.5-329.8,1.1-494.7,1.6
	c-1.6,0-3.3,0-4.9,0.1c-8.7,0.5-14.7,5.7-16.2,14.1c-2.9,15.6,8.7,29.4,23.4,29.2c47.9-0.7,95.9-0.5,143.8-0.7
	c120-0.4,240.1-0.7,360.1-1.1C562.9,778.2,565.1,778.5,568,777.5z M716.9,385.5c0,0.2,0,0.3,0,0.5c46.1,0,92.3,0,138.4,0
	c7,0,7.1,0,7-6.8c0-2.4-0.2-4.7-0.3-7.1c-0.5-14.4-8.4-23.8-20.4-30.5c-9.9-5.6-20.7-6.2-31.6-6.2c-68.5,0-136.9,0.1-205.4,0
	c-9.6,0-16.9,3.6-22.6,10.8c-8.6,10.8-11.7,23.1-10.4,36.7c0.2,2.3,1.2,2.7,3.1,2.6c1.3-0.1,2.5,0,3.8,0
	C624.6,385.5,670.7,385.5,716.9,385.5z M384.4,620.5c-0.1,0-0.1,0-0.2,0c0,12,0,24,0,36c0,19.4-0.1,38.9-0.1,58.3
	c0,3.8,0.1,3.9,3.9,3.9c16.2,0,32.3,0,48.5-0.1c3.8,0,3.9-0.1,3.9-4c0.1-7.6,0.1-15.3,0.2-22.9c0.2-54.5,0.5-108.9,0.7-163.4
	c0-5.2,0-5.3-5.3-5.3c-15.4-0.1-30.9-0.2-46.3-0.3c-1.1,0-2.2,0-3.3,0c-1.3,0-2,0.6-2,2c0,1.5,0,2.9,0,4.4
	C384.4,559.5,384.4,590,384.4,620.5z M312.2,650.4c0.1,0,0.1,0,0.2,0c0-21,0-42.1,0-63.1c0-6.5,1.4-6.5-6.3-6.6
	c-7.4,0-14.9,0-22.3-0.1c-7.8-0.2-15.6-0.5-23.4-0.7c-4.8-0.1-4.8-0.1-4.9,4.5c0,0.5,0,1.1,0,1.6c0.1,28.3,0.1,56.6,0.2,84.9
	c0,14.5,0.1,29,0.3,43.5c0,4.5,0.1,4.6,4.3,4.6c16,0,31.9-0.1,47.9-0.1c4.5,0,4,0,4-4.3C312.2,693.3,312.2,671.9,312.2,650.4z
	 M125.7,657.4c-0.3,0-0.7,0-1,0c0,19.2,0,38.5,0,57.7c0,4.6,0,4.6,4.2,4.6c16.5-0.1,33-0.2,49.5-0.3c3.7,0,3.8-0.1,3.9-4
	c0.2-38.3,0.3-76.5,0.4-114.8c0-3.6-0.1-3.7-4-3.8c-16.3-0.4-32.6-0.7-49-1.1c-4.2-0.1-4.1-0.2-4.1,4.1
	C125.7,618.9,125.7,638.1,125.7,657.4z M626,727.4c0,0.1,0,0.1,0,0.2c-16.1,0-32.3,0-48.4,0c-6.3,0-5.6-0.7-5.6,5.4
	c0,4.7,0,9.4,0,14.2c0,2,0.3,3.9,0.9,5.9c3,10,9.5,16.8,18.7,21.5c6.4,3.2,13.2,3.5,20.1,3.5c26.3-0.1,52.6-0.1,78.9-0.1
	c0.7,0,1.5-0.1,2.2,0c2.6,0.5,3.4-0.9,3.9-3.2c1.1-5.7,2.6-11.3,4.5-16.8c0.9-2.4,0.6-3.8-2-5c-9.2-4.3-15.2-11.7-18-21.3
	c-1-3.3-2.3-4.2-5.6-4.1C659,727.5,642.5,727.4,626,727.4z M708.2,738.6c2-3.9,3.8-7.5,5.7-11c4.6-8.5,9.7-16.6,15.7-24.2
	c1.5-1.9,1.3-3-0.6-4.4c-3.7-2.7-7.7-3.9-12.3-3.5c-13.4,1.2-23.5,16-20.1,29.6C698.3,731.4,701.8,735.9,708.2,738.6z"/>
<path class="st2" d="M457.7,718.1c-0.9-1.9-0.4-3.9-0.4-5.9c0.3-64.1,0.6-128.2,0.9-192.4c0.1-11.6-1.6-13.4-13-13.5
	c-20.9-0.2-41.8-0.4-62.7-0.5c-2.5,0-5.1,0-7.5,1.1c-5.5,2.5-7.4,6.6-7.4,12.6c-0.1,64.1-0.3,128.2-0.6,192.4c0,8.2,0.9,6.8-6.9,6.9
	c-8.9,0.1-17.8,0.1-26.7,0.1c-5.2,0-4.7,0.3-4.7-4.7c0.2-33.4,0.3-66.8,0.5-100.3c0.1-11.8,0.1-23.6,0.1-35.4c0-1.5,0.1-2.9,0-4.4
	c-0.5-6.3-2.7-8.9-8.9-9.6c-4.7-0.5-9.4-0.5-14.1-0.5c-18.5-0.1-37.1,0-55.6,0c-2,0-4-0.1-5.9,0.6c-3.1,1.2-5.1,3.3-5.8,6.7
	c-0.5,2.3-0.4,4.7-0.4,7.1c0.2,44.7,0.4,89.4,0.6,134.1c0,1.1-0.1,2.2,0,3.3c0.3,2.5-0.5,3.5-3.3,3.5c-11.3-0.1-22.5-0.1-33.8,0.1
	c-2.8,0-3.3-1.1-3.2-3.6c0.1-11.8,0.1-23.6,0.1-35.4c0.2-28.5,0.4-57,0.6-85.6c0-1.5,0-2.9,0-4.4c0.4-8-4.5-11.3-11.3-11.1
	c-21.1,0.7-42.1-0.1-63.2-0.8c-1.8-0.1-3.6-0.1-5.4,0c-6.3,0.4-10.4,4.5-10.9,10.7c-0.1,1.4-0.1,2.9-0.1,4.4
	c-0.3,40.1-0.7,80.3-1,120.4c0,0.4,0,0.7,0,1.1c-0.1,4.7-0.1,4.7-4.8,4.7c-11.8,0-23.6,0.1-35.4,0.1c-5.3,0-4.9,0.3-4.9-5.1
	c0-40.7-0.1-81.4-0.1-122.1c-0.1-98.8-0.3-197.6-0.4-296.4c0-0.7,0-1.5,0-2.2c0.1-4,0.1-4.1,4.3-4.1c21.4-0.1,42.9-0.1,64.3-0.1
	c200.2-0.3,400.3-0.6,600.5-0.9c7.2,0,7.2,0,7.3,7.1c0.1,6.2,0.3,12.3,0.3,18.5c0.1,4.2,0,4.2-4.1,4.2c-14.7,0-29.4,0-44.1,0
	c-28,0-56,0.5-83.9-0.1c-22.4-0.5-36.5,10.7-45.9,29.6c-4.7,9.4-6.8,19.5-6.8,30c0.3,111,0.6,222,0.9,333c0,7.8,1.2,6.8-7,6.8
	c-28.3,0.2-56.7,0.3-85,0.5C461.3,718.4,459.5,718.8,457.7,718.1z M197.9,546.1c16.5,0,32.6-3.8,47.3-11.1
	c46.4-23,70.9-74.9,59.8-126c-9.4-43.2-45.3-81.4-97-85.7c-19-1.6-37.2,2-54.4,10.3c-48.8,23.6-73.9,79.2-59.5,131.7
	C107.1,513.4,149.2,546.1,197.9,546.1z M428.4,340.5c0-0.4,0-0.7,0-1.1c27.2,0,54.5,0,81.7,0c2.4,0,4.7,0.1,7-0.7
	c3.7-1.2,5.8-3.9,6-7.6c0.1-3.9-2.1-6.8-5.9-8.2c-1.9-0.7-3.9-0.6-5.9-0.6c-55,0.4-110,0.7-165,1.1c-2,0-4,0.1-5.9,0.7
	c-3.5,1.3-5.8,4.3-5.8,7.8c0,3.5,2.3,6.5,5.7,7.8c2.3,0.9,4.6,0.7,7,0.7C374.3,340.5,401.3,340.5,428.4,340.5z M428.4,399.3
	c0-0.4,0-0.7,0-1.1c27.2,0,54.5,0,81.7,0c2.2,0,4.3,0.1,6.5-0.5c4-1.2,6.3-3.9,6.4-7.8c0.1-4-2.3-7.1-6.5-8.3
	c-1.8-0.5-3.6-0.4-5.4-0.4c-55,0.4-110,0.7-165,1.1c-2,0-4,0.1-5.9,0.8c-3.5,1.3-5.8,4.4-5.7,7.8c0,3.5,2.3,6.5,5.8,7.8
	c2.3,0.9,4.6,0.7,7,0.7C374.3,399.3,401.4,399.3,428.4,399.3z M428.4,458.6c0-0.4,0-0.7,0-1.1c27.4,0,54.8,0,82.2,0
	c1.6,0,3.3,0.1,4.9-0.2c4.6-0.6,7.6-4.1,7.5-8.5c-0.1-4.2-3.1-7.4-7.5-7.9c-1.8-0.2-3.6-0.1-5.4-0.1c-54.6,0.4-109.3,0.7-163.9,1.1
	c-1.6,0-3.3,0-4.9,0.3c-3.9,0.8-6.8,4.3-6.8,8.1c0,3.8,2.9,7.3,6.9,8.1c1.6,0.3,3.3,0.2,4.9,0.2C373.6,458.6,401,458.6,428.4,458.6z
	"/>
<path class="st0" d="M862,403.3c0.7,1.9,0.3,3.9,0.3,5.9c-0.2,72.3-0.4,144.6-0.6,216.9c0,5.6,0,5.7-5.7,6.3
	c-24.9,2.6-48.1,10.5-70,22.3c-14.5,7.8-27.3,17.9-39.1,29.3c-1.4,1.4-2.6,3-4.1,4.6c-5.2-4.3-10.3-7.7-16.5-9
	c-15.7-3.2-28.1,2.5-38,14.4c-3,3.7-5.5,7.8-6.6,12.4c-0.8,3.4-2.6,4-5.7,4c-31.1,0-62.1,0.2-93.2,0.3c-2.4,0-4.7,0.1-7.1,0
	c-3.7-0.1-3.7-0.1-3.8-4c0-0.7,0-1.5,0-2.2c-0.3-98.4-0.5-196.9-0.8-295.3c0-6.7,0-6.7,6.6-6.7c93,0.1,186,0.2,279,0.3
	C858.4,402.8,860.2,402.4,862,403.3z"/>
<path class="st2" d="M404,273.1c-112.3,0-224.5,0-336.8,0c-5.1,0-10.2-0.5-15.2-1.2c-8.6-1.1-13.6-6.2-15.6-14.4
	c-1.6-6.6-0.9-13,2.3-19c3.2-5.9,7.7-9,14.9-9c76.7,0,153.3-0.2,230-0.3c153.1-0.3,306.3-0.5,459.4-0.8c2.9,0,5.8,0.1,8.7,0.2
	c5.2,0.3,8.7,3,11.1,7.5c5.1,9.6,3.2,23.7-4.2,31.6c-3.1,3.3-6.7,4.4-11.2,4.4c-114.4-0.1-228.9-0.1-343.3-0.1
	C404,272.4,404,272.8,404,273.1z"/>
<path class="st2" d="M568,777.5c-2.9,1-5.1,0.6-7.3,0.6c-120,0.4-240.1,0.8-360.1,1.1c-47.9,0.1-95.9-0.1-143.8,0.7
	c-14.7,0.2-26.2-13.5-23.4-29.2c1.6-8.4,7.6-13.6,16.2-14.1c1.6-0.1,3.3-0.1,4.9-0.1c164.9-0.5,329.8-1.1,494.7-1.6
	c6.8,0,5.8-0.4,5.9,5.7c0.1,6.7-0.1,13.3,2.3,19.9C559.8,766.8,563.2,772.2,568,777.5z"/>
<path class="st2" d="M716.9,385.5c-46.1,0-92.3,0-138.4,0c-1.3,0-2.5-0.1-3.8,0c-1.9,0.1-2.9-0.3-3.1-2.6
	c-1.4-13.6,1.8-26,10.4-36.7c5.8-7.2,13.1-10.8,22.6-10.8c68.5,0.2,136.9,0.1,205.4,0c11,0,21.7,0.6,31.6,6.2
	c12,6.8,19.9,16.1,20.4,30.5c0.1,2.4,0.3,4.7,0.3,7.1c0,6.8,0,6.8-7,6.8c-46.1,0-92.3,0-138.4,0
	C716.9,385.8,716.9,385.7,716.9,385.5z M715.1,369.1c0-0.1,0-0.2,0-0.3c8,0,16,0,24,0c2,0,4-0.1,5.9-0.8c3.6-1.3,5.6-4.1,5.6-7.8
	c0-3.7-2.1-6.4-5.7-7.8c-2.1-0.8-4.3-0.7-6.5-0.7c-16,0.2-31.9,0.4-47.9,0.6c-1.3,0-2.6,0-3.8,0.3c-3.8,0.7-6.5,3.8-6.7,7.5
	c-0.3,3.6,2.1,7.1,5.8,8.4c1.8,0.6,3.6,0.5,5.4,0.5C699.2,369.1,707.2,369.1,715.1,369.1z"/>
<path class="st2" d="M384.4,620.5c0-30.5,0-61,0-91.5c0-1.5,0-2.9,0-4.4c0-1.4,0.7-2,2-2c1.1,0,2.2,0,3.3,0
	c15.4,0.1,30.9,0.2,46.3,0.3c5.3,0,5.3,0.1,5.3,5.3c-0.2,54.5-0.5,108.9-0.7,163.4c0,7.6-0.1,15.3-0.2,22.9c-0.1,3.9-0.1,4-3.9,4
	c-16.2,0.1-32.3,0.1-48.5,0.1c-3.8,0-3.9-0.1-3.9-3.9c0-19.4,0.1-38.9,0.1-58.3c0-12,0-24,0-36C384.3,620.5,384.4,620.5,384.4,620.5
	z"/>
<path class="st2" d="M312.2,650.4c0,21.4,0,42.8,0,64.2c0,4.2,0.5,4.3-4,4.3c-16,0-31.9,0.1-47.9,0.1c-4.2,0-4.3-0.1-4.3-4.6
	c-0.1-14.5-0.2-29-0.3-43.5c-0.1-28.3-0.1-56.6-0.2-84.9c0-0.5,0-1.1,0-1.6c0-4.6,0-4.7,4.9-4.5c7.8,0.2,15.6,0.6,23.4,0.7
	c7.4,0.1,14.9,0.1,22.3,0.1c7.7,0,6.2,0.1,6.3,6.6c0,21,0,42.1,0,63.1C312.4,650.4,312.3,650.4,312.2,650.4z"/>
<path class="st2" d="M125.7,657.4c0-19.2,0-38.5,0-57.7c0-4.4-0.1-4.2,4.1-4.1c16.3,0.4,32.6,0.7,49,1.1c3.9,0.1,4,0.1,4,3.8
	c-0.1,38.3-0.3,76.5-0.4,114.8c0,3.9-0.1,4-3.9,4c-16.5,0.2-33,0.3-49.5,0.3c-4.2,0-4.2-0.1-4.2-4.6c0-19.2,0-38.5,0-57.7
	C125.1,657.4,125.4,657.4,125.7,657.4z"/>
<path class="st2" d="M626,727.4c16.5,0,33,0.1,49.5-0.1c3.3,0,4.6,0.9,5.6,4.1c2.8,9.7,8.8,17,18,21.3c2.7,1.2,2.9,2.6,2,5
	c-2,5.5-3.4,11.1-4.5,16.8c-0.5,2.3-1.2,3.7-3.9,3.2c-0.7-0.1-1.4,0-2.2,0c-26.3,0-52.6,0.1-78.9,0.1c-6.9,0-13.8-0.3-20.1-3.5
	c-9.2-4.6-15.7-11.5-18.7-21.5c-0.6-1.9-0.9-3.8-0.9-5.9c0-4.7,0-9.4,0-14.2c0-6-0.7-5.4,5.6-5.4c16.1,0,32.3,0,48.4,0
	C626,727.5,626,727.5,626,727.4z"/>
<path class="st2" d="M708.2,738.6c-6.5-2.8-10-7.2-11.5-13.4c-3.4-13.5,6.6-28.4,20.1-29.6c4.5-0.4,8.6,0.7,12.3,3.5
	c1.8,1.4,2,2.5,0.6,4.4c-6,7.6-11.1,15.7-15.7,24.2C712,731.2,710.3,734.7,708.2,738.6z"/>
<path class="st1" d="M197.9,546.1c-48.7,0-90.8-32.7-103.9-80.7c-14.4-52.5,10.7-108.1,59.5-131.7c17.2-8.3,35.4-11.9,54.4-10.3
	c51.8,4.3,87.6,42.4,97,85.7c11.1,51-13.4,102.9-59.8,126C230.4,542.3,214.4,546.1,197.9,546.1z M160.5,349.4
	c-2.8,0.5-4.7,1.9-6.7,3.1c-43.3,25.5-59.9,81.6-36.8,126.3c16.6,32.2,43.5,50,79.9,50.3c37.2,0.3,64.6-17.8,82.6-50
	c9.1-16.4,12.4-34.3,10.9-53.6c-6.7,1.8-13.2,3.5-19.6,5.2c-19.1,5-38.2,10.1-57.3,15.1c-5,1.3-10.2,1.4-15.1,0.2
	c-9.1-2.2-14.7-8.2-17.1-17.2c-4.3-16.3-8.6-32.6-12.9-48.9C165.8,369.7,163.2,359.6,160.5,349.4z M176.2,343.1
	c4.2,16.2,8.3,31.8,12.4,47.4c2.7,10.5,5.6,21,8.2,31.6c1.1,4.4,3.6,7,8.1,7.7c2,0.3,3.9-0.1,5.9-0.6c14.7-3.9,29.4-7.8,44.2-11.7
	c10-2.6,19.9-5.4,29.9-8c2.1-0.5,2.8-1.3,2.1-3.4c-0.5-1.4-0.9-2.8-1.4-4.1c-12.8-34.1-36.9-54.9-72.9-61.2
	C200.6,338.7,188.5,339.7,176.2,343.1z"/>
<path class="st1" d="M428.4,340.5c-27.1,0-54.1,0-81.2,0c-2.4,0-4.7,0.2-7-0.7c-3.5-1.3-5.8-4.4-5.7-7.8c0-3.4,2.3-6.5,5.8-7.8
	c1.9-0.7,3.9-0.7,5.9-0.7c55-0.4,110-0.7,165-1.1c2,0,4-0.1,5.9,0.6c3.8,1.3,6,4.3,5.9,8.2c-0.1,3.6-2.3,6.4-6,7.6
	c-2.3,0.8-4.7,0.7-7,0.7c-27.2,0-54.5,0-81.7,0C428.4,339.7,428.4,340.1,428.4,340.5z"/>
<path class="st1" d="M428.4,399.3c-27.1,0-54.1,0-81.2,0c-2.4,0-4.7,0.2-7-0.7c-3.5-1.3-5.8-4.3-5.8-7.8c0-3.4,2.3-6.5,5.7-7.8
	c1.9-0.7,3.9-0.7,5.9-0.8c55-0.4,110-0.7,165-1.1c1.8,0,3.6-0.1,5.4,0.4c4.2,1.2,6.6,4.2,6.5,8.3c-0.1,3.8-2.4,6.6-6.4,7.8
	c-2.1,0.6-4.3,0.5-6.5,0.5c-27.2,0-54.5,0-81.7,0C428.4,398.6,428.4,399,428.4,399.3z"/>
<path class="st1" d="M428.4,458.6c-27.4,0-54.8,0-82.2,0c-1.6,0-3.3,0.1-4.9-0.2c-3.9-0.7-6.8-4.3-6.9-8.1c0-3.8,2.9-7.3,6.8-8.1
	c1.6-0.3,3.3-0.3,4.9-0.3c54.6-0.4,109.3-0.7,163.9-1.1c1.8,0,3.6-0.1,5.4,0.1c4.4,0.5,7.4,3.7,7.5,7.9c0.1,4.4-2.8,7.9-7.5,8.5
	c-1.6,0.2-3.3,0.2-4.9,0.2c-27.4,0-54.8,0-82.2,0C428.4,457.8,428.4,458.2,428.4,458.6z"/>
<path class="st3" d="M874.6,944.3c-66,0-121.6-46.4-132.7-109.4c-10.4-59.2,20.2-119.1,74.8-145.2c41.7-20,83.9-19.7,124.5,2.5
	c38.9,21.2,61.7,54.9,67.7,99c9.4,69.5-37.8,137.1-111.3,150.9C889.6,943.5,881.4,944.1,874.6,944.3z M876,692.4
	c-5,0.2-10.8,0.4-16.5,1.2c-57.9,8.3-101.9,57.8-102.6,116.3c-0.4,35.2,12.2,65.4,39,88.2c38.6,32.8,82.1,38.2,128.1,17.8
	c50.9-22.5,78.5-79.1,66.4-133.4C978.7,729.7,931.7,692.4,876,692.4z"/>
<path class="st1" d="M715.1,369.1c-8,0-16,0-24,0c-1.8,0-3.6,0.1-5.4-0.5c-3.6-1.3-6-4.7-5.8-8.4c0.3-3.7,3-6.8,6.7-7.5
	c1.2-0.2,2.5-0.3,3.8-0.3c16-0.2,31.9-0.4,47.9-0.6c2.2,0,4.3-0.1,6.5,0.7c3.6,1.3,5.7,4.1,5.7,7.8c0,3.7-2,6.5-5.6,7.8
	c-1.9,0.7-3.9,0.8-5.9,0.8c-8,0-16,0-24,0C715.1,368.9,715.1,369,715.1,369.1z"/>
<path class="st2" d="M160.5,349.4c2.7,10.2,5.3,20.3,8,30.4c4.3,16.3,8.6,32.6,12.9,48.9c2.4,9,8,15,17.1,17.2
	c4.9,1.2,10.1,1.1,15.1-0.2c19.1-5,38.2-10.1,57.3-15.1c6.4-1.7,12.9-3.4,19.6-5.2c1.6,19.3-1.7,37.2-10.9,53.6
	c-17.9,32.3-45.3,50.3-82.6,50c-36.4-0.3-63.2-18.1-79.9-50.3c-23.1-44.6-6.5-100.7,36.8-126.3C155.8,351.3,157.7,349.9,160.5,349.4
	z"/>
<path class="st2" d="M176.2,343.1c12.3-3.4,24.4-4.5,36.5-2.3c36,6.3,60.1,27.1,72.9,61.2c0.5,1.4,0.9,2.8,1.4,4.1
	c0.7,2,0,2.8-2.1,3.4c-10,2.6-20,5.3-29.9,8c-14.7,3.9-29.4,7.8-44.2,11.7c-2,0.5-3.9,1-5.9,0.6c-4.4-0.7-7-3.2-8.1-7.7
	c-2.6-10.6-5.5-21.1-8.2-31.6C184.5,375,180.5,359.4,176.2,343.1z"/>
<path class="st3" d="M946.3,837.9c-17.9,0.1-32.4-14.1-32.5-31.8c-0.1-17.4,13.8-31.5,31.2-31.7c18-0.2,33,14.4,32.9,32.1
	C977.9,823.8,963.7,837.8,946.3,837.9z M945.6,791.4c-8.1-0.1-14.8,6.2-15,14.1c-0.3,8.3,7.1,15.6,15.6,15.6
	c8.1-0.1,14.6-6.5,14.7-14.5C960.9,798.3,954.1,791.5,945.6,791.4z"/>
<path class="st3" d="M875.6,837.9c-17.7-0.1-32.4-14.6-32.3-32.1c0.1-17.2,14.3-31.3,31.7-31.3c18,0,32.6,14.6,32.4,32.4
	C907.3,824.2,893.2,837.9,875.6,837.9z M890.6,806.4c0-8.3-7-15.1-15.4-15c-8.4,0-14.9,6.6-14.7,14.9c0.2,8.2,7.3,15,15.6,14.8
	C884.2,820.9,890.6,814.4,890.6,806.4z"/>
<path class="st3" d="M804.1,839c-17.8,0.1-32.5-14.2-32.6-31.8c-0.2-17.2,14-31.5,31.3-31.7c18.1-0.2,32.8,14.2,32.8,32.1
	C835.6,824.9,821.6,838.9,804.1,839z M818.6,807.4c-0.1-8.3-7.1-15-15.5-14.9c-8.4,0.1-14.8,6.7-14.6,15c0.2,8.2,7.4,15,15.7,14.7
	C812.4,821.9,818.7,815.4,818.6,807.4z"/>
<path class="st4" d="M24.4,614.2l20.4,20.4c4.8,4.8,12.7,4.8,17.5,0l20.4-20.4c4.8-4.8,4.8-12.7,0-17.5l-20.4-20.4
	c-4.8-4.8-12.7-4.8-17.5,0l-20.4,20.4C19.5,601.5,19.5,609.3,24.4,614.2z"/>
<path class="st4" d="M24.4,673.7l20.4,20.4c4.8,4.8,12.7,4.8,17.5,0l20.4-20.4c4.8-4.8,4.8-12.7,0-17.5l-20.4-20.4
	c-4.8-4.8-12.7-4.8-17.5,0l-20.4,20.4C19.5,661,19.5,668.8,24.4,673.7z"/>
<path class="st3" d="M741.3,942.8l17.3,17.3c2.5,2.5,6.6,2.5,9.1,0l17.3-17.3c2.5-2.5,2.5-6.6,0-9.1l-17.3-17.3
	c-2.5-2.5-6.6-2.5-9.1,0l-17.3,17.3C738.8,936.2,738.8,940.3,741.3,942.8z"/>
<circle class="st5" cx="873" cy="809.1" r="171"/>
</svg>
