<?xml version="1.0" encoding="utf-8"?>
<!-- Generator: Adobe Illustrator 28.0.0, SVG Export Plug-In . SVG Version: 6.00 Build 0)  -->
<svg version="1.1" id="Capa_1" xmlns="http://www.w3.org/2000/svg" xmlns:xlink="http://www.w3.org/1999/xlink" x="0px" y="0px"
	 viewBox="0 0 1080 1080" style="enable-background:new 0 0 1080 1080;" xml:space="preserve">
<style type="text/css">
	.st0{fill:#0A0A0A;}
	.st1{fill:#FDFDFD;}
	.st2{fill:#29E4A5;}
	.st3{fill:#6EE1EB;}
	.st4{fill:none;stroke:#29E4A5;stroke-width:20;stroke-miterlimit:10;}
</style>
<path class="st0" d="M401.2,211.6c115.3,0,230.7,0.1,346-0.1c20.8-0.1,32,13.2,34.6,30c1.8,11.7-0.5,22.8-7.1,32.8
	c-4,6-9.2,10.8-16.2,13.2c-2.4,0.8-3,2-2.9,4.3c0.2,7.6,0.2,15.3,0.4,22.9c0.1,4,0.1,4.1,4.3,4.1c18.7,0,37.4,0.1,56.1,0
	c21.1-0.1,38.3,8.3,52.8,23.1c7.2,7.4,10.2,16.3,10.1,26.7c-0.3,67.2-0.3,134.4-0.5,201.6c0,18.5-0.1,37.1-0.2,55.6
	c0,6.2-0.4,5.6,5.4,5.9c8,0.4,16,0.5,23.8,2.2c56.7,12,100.3,42.2,126.9,94.3c33,64.5,22,143.1-26.8,197.4
	c-30.6,34-68.7,54.6-114,60.2c-58.7,7.2-109.9-9.9-151.9-52c-28.1-28.2-43.8-62.7-48.5-102.3c-1.3-10.9-0.9-21.7-0.6-32.6
	c0.1-3.8,0.2-3.9-3.7-3.9c-8.2,0-16.3,0.1-24.5,0.1c-197.8,0.6-395.6,1.2-593.4,1.7c-4.4,0-8.7-0.2-13.1,0.2
	c-22,2-38.1-15-41.5-33.1c-2-10.9-0.2-21,6.1-30.1c5.1-7.2,12.1-11.9,20.8-13.6c1.6-0.3,2.2-1,2.2-2.5c0-1.3,0-2.5,0-3.8
	c-0.2-139.9-0.4-279.7-0.6-419.6c0-5.8,0-5.7-5.5-8.1c-10.6-4.6-16.9-13-19.6-24c-3.4-13.4-1.2-26,7.4-37.1
	c6.5-8.4,15.2-12.3,26-12.3c34.9,0.1,69.7-0.2,104.6-0.2c81,0,162,0,243,0C401.2,212.1,401.2,211.9,401.2,211.6z M62.2,504.9
	c0.2,0,0.3,0,0.5,0c0,69.6,0,139.1,0,208.7c0,0.9,0.1,1.8,0,2.7c-0.4,3,1.1,3.6,3.8,3.6c12.2-0.1,24.3-0.1,36.5-0.1
	c4.7,0,4.7-0.1,4.8-4.7c0-0.4,0-0.7,0-1.1c0.3-40.1,0.7-80.3,1-120.4c0-1.5,0-2.9,0.1-4.4c0.5-6.2,4.6-10.3,10.9-10.7
	c2.9-0.2,5.8,0,8.7,0.1c20.2,0.8,40.3,1.1,60.5,0.9c7.6-0.1,10.5,2.8,10.7,10.4c0,1.5,0,2.9,0,4.4c-0.2,28.7-0.4,57.4-0.6,86.1
	c-0.1,11.8,0,23.6-0.1,35.4c0,2.4,0.4,3.6,3.2,3.6c11.4-0.2,22.9-0.2,34.3-0.1c2.2,0,2.9-0.8,2.7-2.9c-0.1-1.3,0-2.5,0-3.8
	c-0.2-44.7-0.4-89.4-0.6-134.1c0-2.2,0-4.4,0.3-6.5c0.7-4.4,3.6-7.1,8-7.7c1.1-0.1,2.2-0.1,3.3-0.1c19.3,0,38.5,0,57.8,0
	c4.2,0,8.4,0,12.5,0.5c6.3,0.7,8.5,3.3,8.9,9.6c0.1,1.3,0,2.5,0,3.8c0,7.8,0,15.6-0.1,23.4c-0.2,37.6-0.3,75.2-0.5,112.8
	c0,5.1-0.5,4.7,4.7,4.7c10,0,20-0.2,30,0c2.8,0,3.8-0.8,3.8-3.7c-0.1-7.8,0-15.6,0-23.4c0.2-57.4,0.5-114.8,0.5-172.2
	c0-6,1.9-10.1,7.3-12.6c2.4-1.1,4.9-1.1,7.5-1.1c20,0.2,40,0.3,59.9,0.5c2.5,0,5.1-0.1,7.6,0.1c5.4,0.5,7.7,3.1,8.1,8.4
	c0.1,1.8,0,3.6,0,5.4c-0.3,64.3-0.6,128.6-1,192.9c0,5.6-0.6,5.2,5.3,5.2c29.1-0.1,58.1-0.3,87.2-0.5c6.3,0,5.4,0.2,5.4-5.7
	c-0.1-21.4-0.2-42.9-0.2-64.3c-0.2-90.1-0.5-180.2-0.7-270.3c0-13.6,3.7-26.2,11.3-37.5c9.5-14,22.2-21.6,39.7-21.5
	c42.3,0.3,84.6,0.1,127,0.1c1.3,0,2.6-0.1,3.8,0c2.4,0.2,3.2-0.8,3.1-3.2c-0.2-6.4-0.3-12.7-0.4-19.1c-0.2-7.7-0.2-7.7-7.8-7.7
	c-199.8,0.3-399.6,0.6-599.4,0.9c-21.6,0-43.2,0.1-64.8,0.1c-4.3,0-4.3,0.1-4.4,4.1c0,0.7,0,1.5,0,2.2
	C62.2,365.7,62.2,435.3,62.2,504.9z M743,688.9c1.3-1.7,2.3-3.4,3.8-4.8c18.6-18.5,40.3-31.9,64.7-41.2c14.8-5.6,30.2-9.1,46-10.8
	c4.3-0.5,4.3-0.6,4.3-4.8c0.2-73.6,0.4-147.1,0.6-220.7c0-1.2,0.4-2.5-1-3.8c-1.2,0-2.6,0-4,0c-93.5-0.1-187.1-0.2-280.6-0.2
	c-6.5,0-5.7-0.5-5.7,5.9c0.1,40.1,0.3,80.3,0.4,120.4c0.2,58.8,0.3,117.7,0.4,176.5c0,5.2-0.8,5.4,5.3,5.3c0.4,0,0.7,0,1.1,0
	c32-0.1,63.9-0.3,95.9-0.4c1.3,0,2.5-0.1,3.8,0c1.6,0.1,2.8-0.3,3.1-2.2c0.2-1.1,0.6-2.1,1-3.1c6-16.1,21.5-26.9,37.6-26.4
	C728.4,678.9,735.8,682.4,743,688.9z M400.7,228.4c0,0.2,0,0.5,0,0.7c-29.4,0-58.9,0-88.3,0c-86.3,0.1-172.6,0.4-258.9,0.4
	c-7.4,0-12,3.3-15.1,9.4c-3,5.9-3.7,12.1-2.1,18.5c2,8.3,7,13.4,15.6,14.5c5.4,0.7,10.8,1.2,16.3,1.2c147.9-0.3,295.7-0.6,443.6-0.8
	c78.7-0.1,157.3-0.2,236-0.2c4.1,0,7.4-1.1,10.3-3.9c8-7.9,10-23.3,4.2-32.9c-2.3-3.8-5.5-6.3-10-6.6c-2.9-0.2-5.8-0.3-8.7-0.3
	C629.2,228.4,515,228.4,400.7,228.4z M1037.1,806.7c-0.4-12.9-1.8-25.5-4.8-37.9c-19.6-79.2-95.7-130.2-178.4-119.3
	c-38.5,5.1-71.9,21.5-98.5,49.9c-38.9,41.4-53.9,90.5-42.2,146.5c14.4,69.1,75.9,122.8,154.1,124.5c26,0.6,51-4.5,74.3-16.1
	C1002.4,924,1033.6,874.2,1037.1,806.7z M568.1,777.5c-4-4.5-7.2-8.8-9.4-13.9c-3.2-7.2-3.5-14.7-3.5-22.4c0-6.7,1.1-6.3-5.9-6.2
	c-164.7,0.5-329.4,1.1-494.2,1.6c-1.8,0-3.6,0-5.4,0.1c-8.6,0.5-14.7,5.7-16.2,14.2c-2.8,15.6,8.7,29.4,23.4,29.2
	c39.6-0.7,79.2-0.4,118.8-0.5c128.4-0.4,256.8-0.8,385.2-1.3C562.9,778.2,565.1,778.5,568.1,777.5z M716.8,385.5c0,0.2,0,0.3,0,0.5
	c44.5,0,89,0,133.5-0.1c3.9,0,9.2,1.9,11.4-1c2.1-2.9,0.5-8,0.4-12.2c-0.5-15.6-9.2-25.3-22.4-32.1c-9.4-4.8-19.5-5.2-29.7-5.2
	c-68.5,0-136.9,0.1-205.4-0.1c-9.6,0-16.9,3.6-22.6,10.8c-8.5,10.6-11.7,22.7-10.4,36.2c0.2,2.7,1.2,3.5,3.6,3.2
	c1.1-0.1,2.2,0,3.3,0C624.5,385.5,670.7,385.5,716.8,385.5z M384.4,620.7c-0.1,0-0.2,0-0.3,0c0,31,0,62.1,0,93.1
	c0,4.8,0,4.8,4.6,4.8c15.6,0,31.2-0.1,46.8-0.1c4.8,0,4.9-0.1,4.9-4.7c0.3-62.1,0.6-124.2,0.9-186.3c0-4.5,0-4.6-4.9-4.6
	c-13.4-0.1-26.9-0.2-40.3-0.3c-2.9,0-5.8,0.1-8.7-0.1c-2-0.1-3.1,0.5-2.9,2.7c0.1,1.3,0,2.5,0,3.8
	C384.4,559.7,384.4,590.2,384.4,620.7z M256,718.2c1.5,1.1,2.8,0.8,4.1,0.8c16,0,31.9-0.1,47.9-0.1c5.2,0,4.2-0.3,4.2-4.6
	c0.1-42.8,0.1-85.6,0.2-128.4c0-5.1,0-5.2-5.5-5.2c-13.2,0-26.5,0-39.7-0.7c-2.5-0.1-5.1-0.2-7.6-0.2c-3.9,0-3.9,0-4,3.7
	c0,0.5,0,1.1,0,1.6c0.1,42.5,0.3,84.9,0.4,127.4C256.1,714.5,256,716.5,256,718.2z M125.7,657.4c-0.3,0-0.7,0-1,0
	c0,19.4,0,38.8,0,58.2c0,4,0.1,4.1,3.7,4.1c16.7-0.1,33.4-0.2,50.1-0.3c3.7,0,3.8-0.1,3.8-4c0.2-38.3,0.3-76.5,0.4-114.8
	c0-3.6-0.1-3.7-4-3.8c-16.3-0.4-32.6-0.7-49-1.1c-4.2-0.1-4.1-0.2-4.1,4.1C125.7,618.9,125.7,638.1,125.7,657.4z M626,727.4
	c0,0.1,0,0.1,0,0.2c-12.2,0-24.3,0-36.5,0c-4.7,0-9.4,0.2-14.2,0c-2.9-0.1-3.7,1-3.6,3.8c0.2,5.4,0.1,10.9,0.1,16.3
	c0,1.8,0.4,3.6,0.9,5.3c3,10,9.5,16.9,18.7,21.5c6.4,3.2,13.2,3.5,20.1,3.5c23.8-0.1,47.5-0.1,71.3-0.1c3.4,0,6.9-0.1,10.3,0
	c2,0.1,2.8-0.8,3.2-2.7c1.4-5.6,2.9-11.2,4.5-16.8c1.1-3.9,1.2-3.9-2.3-5.7c-8.8-4.6-14.6-11.8-17.7-21.1c-1.4-4.2-1.4-4.2-5.9-4.2
	C658.7,727.4,642.4,727.4,626,727.4z M718.2,695.5c-11.3,0.1-21.5,10.6-22.1,22.9c-0.4,7.8,2.1,14.3,8.9,18.7c3,1.9,3.2,1.8,4.8-1.3
	c1.4-2.7,2.7-5.5,4.2-8.2c4.5-8.3,9.6-16.2,15.3-23.8c2-2.7,1.9-3.1-0.9-5.1C725.4,696.5,721.9,695.5,718.2,695.5z"/>
<path class="st1" d="M62.2,504.9c0-69.6,0-139.1,0-208.7c0-0.7,0-1.5,0-2.2c0.1-4,0.1-4.1,4.4-4.1c21.6-0.1,43.2-0.1,64.8-0.1
	c199.8-0.3,399.6-0.6,599.4-0.9c7.7,0,7.7,0,7.8,7.7c0.1,6.4,0.2,12.7,0.4,19.1c0.1,2.3-0.7,3.4-3.1,3.2c-1.3-0.1-2.5,0-3.8,0
	c-42.3,0-84.6,0.3-127-0.1c-17.5-0.1-30.3,7.5-39.7,21.5c-7.6,11.3-11.3,23.9-11.3,37.5c0.2,90.1,0.4,180.2,0.7,270.3
	c0.1,21.4,0.2,42.9,0.2,64.3c0,5.9,0.9,5.7-5.4,5.7c-29.1,0.1-58.1,0.3-87.2,0.5c-5.9,0-5.3,0.4-5.3-5.2c0.3-64.3,0.6-128.6,1-192.9
	c0-1.8,0.1-3.6,0-5.4c-0.4-5.4-2.7-7.9-8.1-8.4c-2.5-0.3-5.1-0.1-7.6-0.1c-20-0.2-40-0.3-59.9-0.5c-2.5,0-5.1,0-7.5,1.1
	c-5.5,2.5-7.3,6.6-7.3,12.6c0,57.4-0.3,114.8-0.5,172.2c0,7.8-0.1,15.6,0,23.4c0,2.9-0.9,3.7-3.8,3.7c-10-0.1-20,0-30,0
	c-5.1,0-4.7,0.4-4.7-4.7c0.2-37.6,0.4-75.2,0.5-112.8c0-7.8,0.1-15.6,0.1-23.4c0-1.3,0.1-2.5,0-3.8c-0.5-6.2-2.7-8.8-8.9-9.6
	c-4.1-0.5-8.3-0.5-12.5-0.5c-19.3-0.1-38.5,0-57.8,0c-1.1,0-2.2,0-3.3,0.1c-4.4,0.6-7.3,3.3-8,7.7c-0.3,2.1-0.3,4.3-0.3,6.5
	c0.2,44.7,0.4,89.4,0.6,134.1c0,1.3-0.1,2.6,0,3.8c0.2,2.1-0.6,2.9-2.7,2.9c-11.4,0-22.9,0-34.3,0.1c-2.8,0-3.2-1.2-3.2-3.6
	c0.1-11.8,0.1-23.6,0.1-35.4c0.2-28.7,0.4-57.4,0.6-86.1c0-1.5,0-2.9,0-4.4c-0.2-7.6-3.2-10.5-10.7-10.4
	c-20.2,0.2-40.3-0.1-60.5-0.9c-2.9-0.1-5.8-0.2-8.7-0.1c-6.3,0.3-10.4,4.5-10.9,10.7c-0.1,1.4-0.1,2.9-0.1,4.4
	c-0.3,40.1-0.7,80.3-1,120.4c0,0.4,0,0.7,0,1.1c-0.1,4.7-0.1,4.7-4.8,4.7c-12.2,0-24.3,0-36.5,0.1c-2.7,0-4.2-0.6-3.8-3.6
	c0.1-0.9,0-1.8,0-2.7c0-69.6,0-139.1,0-208.7C62.6,504.9,62.4,504.9,62.2,504.9z M197.7,546.1c16.6,0,32.4-3.6,47.3-11
	c47.7-23.5,72.4-78,59.2-129.6c-10.8-42.1-46.1-77.9-96.1-82.2c-19-1.6-37.2,1.9-54.5,10.2c-48.8,23.5-74.1,79.1-59.8,131.6
	C107,513.3,149,546,197.7,546.1z M429,340.5c0-0.4,0-0.7,0-1.1c27.1,0,54.1,0,81.2,0c2.2,0,4.3,0.1,6.5-0.5c4-1.2,6.3-3.9,6.4-7.8
	c0.1-3.9-2.1-6.8-6-8.1c-1.9-0.7-3.9-0.6-5.9-0.6c-55,0.4-110,0.7-165,1.1c-2,0-4,0.1-5.9,0.8c-3.5,1.3-5.8,4.4-5.7,7.8
	c0,3.5,2.3,6.5,5.8,7.8c2.3,0.9,4.6,0.7,7,0.7C374.5,340.5,401.7,340.5,429,340.5z M428.4,399.3c0-0.4,0-0.7,0-1.1
	c27.2,0,54.5,0,81.7,0c2.4,0,4.7,0.1,7-0.7c3.7-1.2,5.8-3.9,5.9-7.6c0.1-3.9-2.1-6.8-5.9-8.2c-1.9-0.7-3.9-0.6-5.9-0.6
	c-55,0.4-110,0.7-165,1.1c-2,0-4,0-5.9,0.7c-3.5,1.3-5.8,4.3-5.8,7.8c0,3.5,2.3,6.5,5.8,7.8c2.3,0.9,4.6,0.7,7,0.7
	C374.3,399.3,401.3,399.3,428.4,399.3z M428.9,458.6c0-0.4,0-0.7,0-1.1c27.4,0,54.8,0,82.2,0c1.6,0,3.3,0.1,4.9-0.2
	c4.3-0.7,7.1-4.2,7-8.4c-0.1-4.2-3.1-7.4-7.5-7.9c-2-0.2-4-0.1-6-0.1c-54.5,0.4-108.9,0.7-163.4,1.1c-1.5,0-2.9,0-4.3,0.2
	c-4.3,0.7-7.4,4.2-7.4,8.2c0,4,3.1,7.6,7.3,8.2c1.6,0.2,3.3,0.2,4.9,0.2C374.1,458.6,401.5,458.6,428.9,458.6z"/>
<path class="st1" d="M400.7,228.4c114.3,0,228.5,0,342.8,0c2.9,0,5.8,0.1,8.7,0.3c4.5,0.3,7.8,2.8,10,6.6c5.8,9.6,3.8,25-4.2,32.9
	c-2.9,2.9-6.2,3.9-10.3,3.9c-78.7,0-157.3,0.1-236,0.2c-147.9,0.2-295.7,0.5-443.6,0.8c-5.5,0-10.9-0.5-16.3-1.2
	c-8.6-1.1-13.6-6.2-15.6-14.5c-1.6-6.4-0.9-12.6,2.1-18.5c3.1-6.1,7.8-9.4,15.1-9.4c86.3,0,172.6-0.2,258.9-0.4
	c29.4,0,58.9,0,88.3,0C400.7,228.9,400.7,228.6,400.7,228.4z"/>
<path class="st1" d="M568.1,777.5c-3,1-5.1,0.7-7.3,0.7c-128.4,0.5-256.8,0.9-385.2,1.3c-39.6,0.1-79.2-0.2-118.8,0.5
	c-14.7,0.3-26.3-13.6-23.4-29.2c1.5-8.5,7.6-13.6,16.2-14.2c1.8-0.1,3.6-0.1,5.4-0.1c164.7-0.5,329.4-1.1,494.2-1.6
	c7,0,6-0.4,5.9,6.2c0,7.7,0.3,15.2,3.5,22.4C560.9,768.6,564,773,568.1,777.5z"/>
<path class="st1" d="M716.8,385.5c-46.1,0-92.3,0-138.4,0c-1.1,0-2.2-0.1-3.3,0c-2.5,0.3-3.4-0.5-3.6-3.2
	c-1.2-13.5,2-25.6,10.4-36.2c5.8-7.2,13.1-10.8,22.6-10.8c68.5,0.2,136.9,0.1,205.4,0.1c10.2,0,20.3,0.4,29.7,5.2
	c13.2,6.8,21.9,16.5,22.4,32.1c0.1,4.1,1.7,9.2-0.4,12.2c-2.2,3-7.5,1-11.4,1c-44.5,0.1-89,0.1-133.5,0.1
	C716.8,385.8,716.8,385.7,716.8,385.5z M714.6,369.1c0-0.1,0-0.2,0-0.3c8.2,0,16.3,0,24.5,0c2,0,4-0.1,5.9-0.8
	c3.6-1.3,5.7-4.1,5.7-7.8c0-3.7-2-6.5-5.6-7.8c-2.1-0.8-4.3-0.7-6.5-0.7c-16,0.2-31.9,0.4-47.9,0.6c-1.3,0-2.6,0-3.8,0.3
	c-3.8,0.7-6.5,3.8-6.8,7.5c-0.3,3.6,2.1,7.1,5.7,8.4c1.8,0.6,3.6,0.5,5.4,0.5C698.9,369.1,706.7,369.1,714.6,369.1z"/>
<path class="st1" d="M384.4,620.7c0-30.5,0-61,0-91.5c0-1.3,0.1-2.5,0-3.8c-0.2-2.2,0.9-2.8,2.9-2.7c2.9,0.1,5.8,0,8.7,0.1
	c13.4,0.1,26.9,0.2,40.3,0.3c4.9,0,4.9,0.1,4.9,4.6c-0.3,62.1-0.6,124.2-0.9,186.3c0,4.6-0.1,4.7-4.9,4.7
	c-15.6,0.1-31.2,0.1-46.8,0.1c-4.6,0-4.6,0-4.6-4.8c0-31,0-62.1,0-93.1C384.2,620.7,384.3,620.7,384.4,620.7z"/>
<path class="st1" d="M256,718.2c0-1.7,0-3.7,0-5.7c-0.1-42.5-0.3-84.9-0.4-127.4c0-0.5,0-1.1,0-1.6c0.1-3.7,0.1-3.7,4-3.7
	c2.5,0,5.1,0,7.6,0.2c13.2,0.7,26.5,0.8,39.7,0.7c5.5,0,5.5,0,5.5,5.2c-0.1,42.8-0.1,85.6-0.2,128.4c0,4.2,1,4.5-4.2,4.6
	c-16,0-31.9,0.1-47.9,0.1C258.9,719,257.5,719.3,256,718.2z"/>
<path class="st1" d="M125.7,657.4c0-19.2,0-38.5,0-57.7c0-4.4-0.1-4.2,4.1-4.1c16.3,0.4,32.6,0.7,49,1.1c3.9,0.1,4,0.1,4,3.8
	c-0.1,38.3-0.3,76.5-0.4,114.8c0,3.9-0.1,4-3.8,4c-16.7,0.2-33.4,0.3-50.1,0.3c-3.6,0-3.7-0.1-3.7-4.1c0-19.4,0-38.8,0-58.2
	C125.1,657.4,125.4,657.4,125.7,657.4z"/>
<path class="st1" d="M626,727.4c16.3,0,32.7,0,49,0c4.6,0,4.6,0,5.9,4.2c3.1,9.4,8.8,16.5,17.7,21.1c3.5,1.8,3.4,1.8,2.3,5.7
	c-1.6,5.6-3.1,11.2-4.5,16.8c-0.5,1.9-1.2,2.7-3.2,2.7c-3.4-0.1-6.9,0-10.3,0c-23.8,0-47.5,0.1-71.3,0.1c-6.9,0-13.8-0.3-20.1-3.5
	c-9.2-4.6-15.7-11.5-18.7-21.5c-0.5-1.8-0.9-3.5-0.9-5.3c0-5.4,0.1-10.9-0.1-16.3c-0.1-2.8,0.7-3.9,3.6-3.8c4.7,0.2,9.4,0,14.2,0
	c12.2,0,24.3,0,36.5,0C626,727.5,626,727.5,626,727.4z"/>
<path class="st1" d="M718.2,695.5c3.7,0,7.2,0.9,10.2,3.1c2.8,2,2.9,2.4,0.9,5.1c-5.7,7.5-10.8,15.5-15.3,23.8
	c-1.5,2.7-2.8,5.5-4.2,8.2c-1.6,3.1-1.8,3.2-4.8,1.3c-6.8-4.4-9.3-10.9-8.9-18.7C696.7,706.1,706.9,695.6,718.2,695.5z"/>
<path class="st0" d="M197.7,546.1C149,546,107,513.3,93.9,465.2c-14.3-52.5,10.9-108.1,59.8-131.6c17.2-8.3,35.4-11.8,54.5-10.2
	c49.9,4.3,85.2,40,96.1,82.2c13.2,51.5-11.6,106-59.2,129.6C230.1,542.5,214.3,546.1,197.7,546.1z M160.4,348.9
	c-3,1.7-5.4,2.9-7.7,4.3c-39.4,24-56.2,73.8-39.6,116.9c17.3,44.7,64.1,69.1,109.4,55.6c37.5-11.2,59.2-37.5,67-75.6
	c1.6-8,1.7-16.1,1-24.7c-8.2,2.2-15.9,4.2-23.6,6.3c-17.7,4.7-35.4,9.3-53.1,14c-4.8,1.3-9.8,1.4-14.6,0.4
	c-9.1-1.9-15.1-7.6-17.6-16.6c-2.3-8.2-4.4-16.5-6.6-24.7C170.2,386.4,165.4,368,160.4,348.9z M176.3,343.2
	c3.2,12.3,6.4,24.4,9.5,36.4c3.7,14,7.3,28.1,11,42.1c1.8,6.8,5.8,9.1,12.6,7.8c0.5-0.1,1-0.3,1.6-0.4c24.3-6.5,48.7-12.9,73-19.4
	c3.6-1,3.6-1.1,2.5-4.7c-11.4-38.9-48.2-66-88.6-65.1C190.7,340.1,183.4,340.8,176.3,343.2z"/>
<path class="st0" d="M429,340.5c-27.2,0-54.5,0-81.7,0c-2.4,0-4.7,0.2-7-0.7c-3.5-1.3-5.8-4.3-5.8-7.8c0-3.4,2.3-6.5,5.7-7.8
	c1.9-0.7,3.9-0.8,5.9-0.8c55-0.4,110-0.7,165-1.1c2,0,4-0.1,5.9,0.6c3.9,1.3,6.1,4.3,6,8.1c-0.1,3.8-2.4,6.6-6.4,7.8
	c-2.1,0.6-4.3,0.5-6.5,0.5c-27.1,0-54.1,0-81.2,0C429,339.7,429,340.1,429,340.5z"/>
<path class="st0" d="M428.4,399.3c-27.1,0-54.1,0-81.2,0c-2.4,0-4.7,0.2-7-0.7c-3.5-1.3-5.8-4.3-5.8-7.8c0-3.4,2.3-6.5,5.8-7.8
	c1.9-0.7,3.9-0.7,5.9-0.7c55-0.4,110-0.7,165-1.1c2,0,4-0.1,5.9,0.6c3.8,1.3,6,4.3,5.9,8.2c-0.1,3.6-2.3,6.4-5.9,7.6
	c-2.3,0.8-4.7,0.7-7,0.7c-27.2,0-54.5,0-81.7,0C428.4,398.6,428.4,399,428.4,399.3z"/>
<path class="st0" d="M428.9,458.6c-27.4,0-54.8,0-82.2,0c-1.6,0-3.3,0.1-4.9-0.2c-4.2-0.6-7.4-4.2-7.3-8.2c0-4,3.1-7.5,7.4-8.2
	c1.4-0.2,2.9-0.2,4.3-0.2c54.5-0.4,108.9-0.7,163.4-1.1c2,0,4-0.1,6,0.1c4.4,0.5,7.4,3.8,7.5,7.9c0.1,4.2-2.7,7.7-7,8.4
	c-1.6,0.3-3.3,0.2-4.9,0.2c-27.4,0-54.8,0-82.2,0C428.9,457.8,428.9,458.2,428.9,458.6z"/>
<path class="st2" d="M874.6,944.3c-65.9,0-120.8-45.6-132.6-109c-11.4-61.4,23.3-125,81.7-148.9c39.8-16.3,79.3-15,117.1,5.4
	c34.7,18.7,57,47.9,65.8,86.5c16.9,74.6-31.3,148.2-106.4,163.1C891.2,943.2,882.2,944,874.6,944.3z M874.4,692.4
	c-16.2-0.2-34.1,4.1-51,12.4c-57.9,28.6-83,98.8-55.8,156c28.3,59.8,99.9,83.3,159.1,53.9c48.6-24.2,75.1-78,64.2-129.9
	C979.7,730.6,932.8,692.5,874.4,692.4z"/>
<path class="st0" d="M714.6,369.1c-7.8,0-15.6,0-23.4,0c-1.8,0-3.6,0.1-5.4-0.5c-3.6-1.3-6-4.8-5.7-8.4c0.3-3.7,3-6.8,6.8-7.5
	c1.2-0.2,2.5-0.2,3.8-0.3c16-0.2,31.9-0.4,47.9-0.6c2.2,0,4.3-0.1,6.5,0.7c3.6,1.4,5.6,4.1,5.6,7.8c0,3.7-2.1,6.5-5.7,7.8
	c-1.9,0.7-3.9,0.8-5.9,0.8c-8.2,0-16.3,0-24.5,0C714.6,368.9,714.6,369,714.6,369.1z"/>
<path class="st1" d="M160.4,348.9c5,19.2,9.8,37.6,14.6,56c2.2,8.2,4.2,16.5,6.6,24.7c2.5,9,8.5,14.7,17.6,16.6
	c4.8,1,9.8,0.8,14.6-0.4c17.7-4.7,35.4-9.3,53.1-14c7.7-2,15.4-4.1,23.6-6.3c0.6,8.6,0.6,16.7-1,24.7c-7.8,38.1-29.5,64.4-67,75.6
	c-45.3,13.5-92.1-10.8-109.4-55.6c-16.6-43.1,0.2-92.9,39.6-116.9C154.9,351.8,157.3,350.6,160.4,348.9z"/>
<path class="st1" d="M176.3,343.2c7.2-2.5,14.4-3.2,21.6-3.4c40.4-0.9,77.3,26.2,88.6,65.1c1.1,3.7,1.1,3.7-2.5,4.7
	c-24.3,6.5-48.7,13-73,19.4c-0.5,0.1-1,0.3-1.6,0.4c-6.8,1.3-10.8-1-12.6-7.8c-3.7-14-7.3-28.1-11-42.1
	C182.6,367.6,179.5,355.5,176.3,343.2z"/>
<path class="st2" d="M850.1,810c2.3-1.3,3.7-3.2,5.4-4.8c21.6-21.8,43.3-43.5,65.5-64.7c2-1.9,4.1-3.6,6.3-5.2
	c7.1-5,16.9-4.2,23,1.8c6.4,6.4,12.8,12.9,18.8,19.7c6.4,7.3,10.1,15.5,7,25.5c-1.5,5.1-4.9,8.8-8.6,12.4
	c-19.1,18.9-38.2,37.8-57.3,56.7c-8.6,8.6-17,17.4-25.8,25.8c-6.4,6.2-13.2,11.9-19.9,17.8c-1.2,1.1-2.6,1.9-4,2.8
	c-10.3,6.3-16.4,6-25.8-1.5c-4-3.2-7.7-6.7-11.2-10.3c-13.6-13.9-27-27.9-40.5-41.9c-4.2-4.3-7.6-9.2-10.8-14.3
	c-3.5-5.8-3.9-11.8,0-16.9c9-11.8,18.5-23.3,32.1-30.4c6.9-3.6,13.3-2.4,19.2,2.4c7.8,6.3,14.5,13.7,21.7,20.6
	C846.9,807,848.5,808.5,850.1,810z M848.5,883.2c2.8-0.4,6.3-1.5,9.5-3.8c4.7-3.2,8.7-7.2,12.5-11.3c28.5-30.1,58.5-58.6,87.8-87.8
	c3.6-3.5,4.3-6.7,1.2-10.5c-6-7.3-12.8-13.9-19.6-20.4c-1.8-1.7-3.8-1.7-5.9-0.2c-2.2,1.6-4.3,3.4-6.1,5.4
	C901.3,783,873.4,810,846.4,838c-1,1-2,2.1-3.2,3c-3.9,2.9-8.3,2.7-11.4-0.4c-2.9-3-3.1-7.7-0.1-11.4c1.2-1.6,2.6-3,4.2-4.3
	c2.2-1.8,2.2-3.1,0-5.1c-6.5-6.1-12.7-12.4-19.1-18.6c-4.1-3.9-7.2-4.3-11.6-1.1c-6.7,4.8-12.5,10.5-17.6,16.9
	c-2.7,3.4-2.7,4.8-0.2,8.3c3.1,4.3,6.2,8.5,9.9,12.3c13.1,13.1,26.1,26.3,39.2,39.4c1.7,1.7,3.3,3.3,5.4,4.6
	C843.6,882.5,845.4,883.3,848.5,883.2z"/>
<path class="st3" d="M24.4,623.2l20.4,20.4c4.8,4.8,12.7,4.8,17.5,0l20.4-20.4c4.8-4.8,4.8-12.7,0-17.5l-20.4-20.4
	c-4.8-4.8-12.7-4.8-17.5,0l-20.4,20.4C19.5,610.5,19.5,618.3,24.4,623.2z"/>
<path class="st3" d="M24.4,682.7l20.4,20.4c4.8,4.8,12.7,4.8,17.5,0l20.4-20.4c4.8-4.8,4.8-12.7,0-17.5l-20.4-20.4
	c-4.8-4.8-12.7-4.8-17.5,0l-20.4,20.4C19.5,670,19.5,677.8,24.4,682.7z"/>
<path class="st2" d="M741.3,951.8l17.3,17.3c2.5,2.5,6.6,2.5,9.1,0l17.3-17.3c2.5-2.5,2.5-6.6,0-9.1l-17.3-17.3
	c-2.5-2.5-6.6-2.5-9.1,0l-17.3,17.3C738.8,945.2,738.8,949.3,741.3,951.8z"/>
<path class="st2" d="M862.7,867.6l17.3,17.3c2.5,2.5,6.6,2.5,9.1,0l17.3-17.3c2.5-2.5,2.5-6.6,0-9.1l-17.3-17.3
	c-2.5-2.5-6.6-2.5-9.1,0l-17.3,17.3C860.1,861,860.1,865,862.7,867.6z"/>
<circle class="st4" cx="873.2" cy="809.2" r="171.5"/>
</svg>
