<?xml version="1.0" encoding="utf-8"?>
<!-- Generator: Adobe Illustrator 28.0.0, SVG Export Plug-In . SVG Version: 6.00 Build 0)  -->
<svg version="1.1" id="Capa_1" xmlns="http://www.w3.org/2000/svg" xmlns:xlink="http://www.w3.org/1999/xlink" x="0px" y="0px"
	 viewBox="0 0 1080 1080" style="enable-background:new 0 0 1080 1080;" xml:space="preserve">
<style type="text/css">
	.st0{fill:#0A0B0B;}
	.st1{fill:#050606;}
	.st2{fill:#FFFFFF;}
	.st3{fill:#29E4A5;}
	.st4{fill:#6EE1EB;}
	.st5{fill:none;stroke:#29E4A5;stroke-width:20;stroke-miterlimit:10;}
</style>
<path class="st0" d="M436.1,515.8c9.4-19.3,18.5-37.7,27.4-56.1c19.7-40.4,39.4-80.9,59.1-121.3c0.2-0.5,0.5-1,0.7-1.5
	c1.8-3.7,4.7-6.2,9-5.8c4.2,0.4,6.7,3.1,8.1,7.1c4.9,13.7,9.8,27.3,14.9,40.9c12,32.5,24.2,64.9,36.1,97.5c1.1,3,2.5,4.2,5.8,4.3
	c24.5,0.5,49,1.1,73.5,1.7c18,0.4,36,0.8,53.9,1.2c5.8,0.1,5.3,0.8,5.3-5.1c0.1-64.1,0.2-128.3,0.3-192.4
	c0.1-37.8,0.1-75.6,0.2-113.4c0-5.2,0.7-10.5-0.6-15.7c-1.2-4.7-3.1-8.9-6.5-12.3c-3.2-3.2-7-5-11.7-5.1c-20-0.6-39.9-1.2-59.9-1.8
	c-4-0.1-8-0.1-12-0.3c-2.2-0.1-4.4-0.4-6.3-1.5c-2.7-1.7-4-4.1-3.9-7.3c0.1-3.2,1.7-5.5,4.4-7c2.1-1.2,4.5-1.2,6.9-1.1
	c18.3,0.5,36.7,1.1,55,1.6c3.8,0.1,7.6,0.5,11.4,0.2c19-1.3,33.7,11.9,38.1,27.9c1.2,4.4,2.1,8.8,2.1,13.4
	c-0.1,79.9-0.3,159.9-0.4,239.8c-0.1,75.8-0.2,151.5-0.3,227.3c0,2-0.5,4,0.6,6.1c8.1-1.6,16.2-3.4,24.5-4.4
	c12.3-1.4,24.7-1.6,37-0.6c38.8,3.4,73.1,17.8,102.3,43.5c34.2,30.1,53.9,68,58.5,113.3c7.7,75.6-34.3,148.6-103.6,180.9
	c-28.9,13.4-59.3,19.6-91,17.3c-46-3.4-85.5-21.5-117.6-54.9c-17.9-18.6-30.7-40.3-39-64.8c-1.9-5.7-1.9-5.7-7.7-5.8
	c-95.7-0.7-191.5-1.5-287.2-2.2c-39.2-0.3-78.5-0.6-117.7-0.8c-5.1,0-10.2-0.1-15.2-1.3c-16-3.7-24.5-13.1-26.7-29.7
	c-0.5-4.1-0.8-8.3-0.8-12.5c0.1-48,0.8-95.9,0.5-143.9c-1-166.1-0.6-332.1-0.9-498.2c0-6.7-0.6-13.4,1.1-20.1
	c3.9-14.8,12.4-25.2,27.5-29.6c2.5-0.7,5-0.9,7.5-0.9c22.7-0.6,45.4-1.2,68.1-1.8c1.8,0,3.6-0.2,5.4,0c4.8,0.5,7.9,3.7,8.1,8
	c0.2,4.4-2.6,7.7-7.5,8.5c-2.3,0.4-4.7,0.4-7,0.5c-18.5,0.5-37,0.9-55.6,1.4c-3.8,0.1-7.6,0.5-11.4,0.5c-7.1,0-12,3.6-15.5,9.4
	c-3.2,5.3-4.2,11.1-4.1,17.2c0.1,3.1,0.2,6.2,0.2,9.3c0.2,99.9,0.3,199.9,0.5,299.8c0,6.5,0,6.5,6.7,6.5c43.2,0,86.5-0.1,129.7,0.1
	c4.2,0,6.4-1.2,8.5-4.8c10.4-18.5,21.2-36.8,31.9-55.2c0.5-0.9,1.1-1.9,1.7-2.8c4.8-7.8,13.7-8.1,19.1-0.6c1.1,1.5,1.9,3.1,2.9,4.6
	c17.3,29.2,34.7,58.4,52,87.5C433.7,512.2,434.7,513.7,436.1,515.8z M612.3,844c-0.1-1.5-0.2-3.1-0.5-4.7c-1.4-8.3-2-16.6-2.1-24.9
	c-0.4-31.8,7.2-61.5,22.8-89.1c21.4-38,52.7-64.7,92.9-81.1c4.3-1.7,4.3-1.7,4.3-6.1c0-44.1,0.1-88.3,0.1-132.4
	c0-5.2,0.4-4.7-4.6-4.8c-44.8-1.1-89.7-2.2-134.5-3.2c-8.1-0.2-9.9-1.5-12.8-9.1c-15.2-41-30.5-81.9-45.8-122.9
	c-0.4-1.2-0.3-2.9-2.1-3.4c-1.5,1.3-1.9,3.1-2.7,4.7c-26.3,53.9-52.6,107.9-79,161.8c-1,2.1-2.1,4.3-3.4,6.2
	c-4.2,5.8-13.9,6.8-17.7-0.5c-0.6-1.1-1.3-2.2-1.9-3.3c-17.7-29.8-35.4-59.6-53.2-89.4c-1.1-1.8-1.8-4-3.8-5.4
	c-0.4,0.6-0.9,1.1-1.3,1.7c-10.3,17.7-20.7,35.4-30.8,53.3c-2.7,4.8-6.3,7.3-11.7,7.3c-1.8,0-3.6,0-5.4,0c-44.3,0-88.6,0-132.9,0
	c-6.9,0-6-0.9-6,6.1c0.1,50.7,0.4,101.4,0.4,152c0,53.2-0.2,106.4-0.4,159.7c0,4.2,0.1,8.3,1.2,12.4c1.5,5.4,4.5,9.3,10.2,10.9
	c3.6,1,7.1,1.5,10.7,1.4c8.5-0.2,17.1,0.3,25.6,0.4c126.6,1,253.2,1.9,379.7,2.9C609.3,844.5,610.7,844.9,612.3,844z M954,815.8
	c-0.1-31-4.3-51.9-13-71.8c-29-66.4-98.1-103.9-169.8-94.4c-38.7,5.1-72.3,21.6-99,50.2c-38.9,41.6-53.7,90.7-41.8,146.7
	c14.5,68.5,75.6,122.4,154,124.1c26,0.6,51-4.5,74.3-16.1C919.6,924.1,950.9,874.3,954,815.8z"/>
<path class="st1" d="M406.1,77.7c0.5-5,0.5-9.8,2-14.6c6.4-21,26.4-34,49.3-32c21.4,1.9,38.8,18.8,41.2,40c0.1,0.7,0.2,1.5,0.1,2.2
	c-0.3,2.4,1.1,2.6,3,2.6c6.4-0.2,12.7-0.3,19.1-0.4c12.2-0.3,24.3,0.2,36.5,1.2c24.1,1.9,36.2,18.8,37.2,38.8
	c0.6,11.4,0.6,22.9-0.2,34.3c-0.6,8.2-0.6,16.3-1.3,24.5c-0.9,9.3-3.8,17.3-11.5,23c-7.3,5.5-15.5,8.4-24.8,8.3
	c-38.5-0.5-77-0.8-115.5-1.2c-27.4-0.3-54.9-0.6-82.3-0.9c-6.2-0.1-12.4-0.7-18.3-2.4c-10.2-3-18.6-8.1-22-19.1
	c-0.7-2.1-0.9-4.2-0.9-6.4c-0.3-18.9-0.3-37.8,0.3-56.7c0.2-6.8,1.4-13.4,3.4-19.8c3.7-11.8,11.6-18.6,23.9-19.9
	c7-0.8,14.1-1.4,21.2-1.3c12.5,0.1,25-0.9,37.6,0C404.6,77.9,405.3,77.8,406.1,77.7z M452.7,102.2c1.4-0.1,2.9-0.1,4.3-0.2
	c11.4-1.2,21.6-10,24.1-20.7c2.5-11.1-2.2-22.4-12.2-28.6c-10.5-6.4-21.4-6.7-32-0.6c-16.4,9.3-18.1,31.2-3.7,43.2
	C438.8,99.9,445.3,102.3,452.7,102.2z"/>
<path class="st2" d="M612.3,844c-1.5,0.9-3,0.5-4.5,0.5c-126.6-0.9-253.2-1.8-379.7-2.9c-8.5-0.1-17-0.6-25.6-0.4
	c-3.6,0.1-7.2-0.4-10.7-1.4c-5.8-1.6-8.7-5.5-10.2-10.9c-1.1-4.1-1.2-8.2-1.2-12.4c0.1-53.2,0.4-106.4,0.4-159.7
	c0-50.7-0.3-101.4-0.4-152c0-7-0.9-6.1,6-6.1c44.3,0,88.6,0,132.9,0c1.8,0,3.6,0,5.4,0c5.4,0,9-2.5,11.7-7.3
	c10.1-17.9,20.5-35.5,30.8-53.3c0.3-0.6,0.8-1.1,1.3-1.7c2,1.4,2.7,3.5,3.8,5.4c17.7,29.8,35.4,59.6,53.2,89.4
	c0.6,1.1,1.3,2.2,1.9,3.3c3.8,7.4,13.6,6.3,17.7,0.5c1.4-1.9,2.4-4.1,3.4-6.2c26.3-53.9,52.6-107.9,79-161.8
	c0.8-1.6,1.3-3.4,2.7-4.7c1.7,0.5,1.6,2.2,2.1,3.4c15.3,40.9,30.5,81.9,45.8,122.9c2.9,7.7,4.7,8.9,12.8,9.1
	c44.8,1.1,89.7,2.2,134.5,3.2c5,0.1,4.6-0.3,4.6,4.8c0,44.1-0.1,88.3-0.1,132.4c0,4.4,0,4.3-4.3,6.1c-40.2,16.4-71.5,43.1-92.9,81.1
	c-15.6,27.6-23.2,57.4-22.8,89.1c0.1,8.4,0.7,16.7,2.1,24.9C612.1,840.9,612.1,842.5,612.3,844z"/>
<path class="st2" d="M452.7,102.2c-7.4,0.1-13.9-2.3-19.6-7c-14.4-12.1-12.7-33.9,3.7-43.2c10.7-6.1,21.6-5.8,32,0.6
	c10.1,6.2,14.8,17.5,12.2,28.6c-2.4,10.7-12.7,19.5-24.1,20.7C455.6,102.1,454.2,102.1,452.7,102.2z"/>
<path class="st3" d="M792.1,944.5c-66.2,0.1-121.9-46.3-133-109.4c-10.4-59.2,20.1-119.1,74.7-145.3c41.7-20,83.8-19.6,124.5,2.4
	c36.4,19.6,58.7,50.8,66.6,91.5c13.9,72.6-34.4,144.6-110.6,158.7C806.4,943.7,798.5,944.3,792.1,944.5z M791.2,692.5
	c-4.4,0-11.5,0.5-18.5,1.8c-55.7,10.5-92.2,55.3-97.7,102.3c-4.7,40.1,7.2,74.9,37.7,101.3c38.4,33.3,82.3,38.6,128.5,18.1
	c49.8-22.1,77.8-77.9,66.9-130.8C897.1,730.9,849.7,692.5,791.2,692.5z"/>
<path class="st3" d="M763.8,811.2c1.8-2.3,3.1-4.5,4.9-6.3c21.4-21.7,43-43.3,65.1-64.3c2-1.9,4.1-3.6,6.3-5.2
	c7.1-4.9,16.9-4.2,23,1.9c6.4,6.4,12.8,12.9,18.8,19.7c6.4,7.3,10,15.6,7,25.6c-1.5,4.9-4.7,8.5-8.2,12
	c-16.6,16.5-33.3,32.9-49.9,49.5c-11.2,11.1-22.2,22.5-33.5,33.5c-6.4,6.2-13.2,11.9-19.9,17.8c-0.5,0.5-1.2,0.9-1.8,1.3
	c-11.8,8.1-18.9,7.7-29.9-1.5c-7.8-6.6-14.4-14.3-21.5-21.6c-9.5-9.7-19-19.5-28.4-29.4c-4.2-4.3-7.6-9.2-10.7-14.4
	c-4-6.7-3.3-13.2,1.1-18.8c7.4-9.4,15.8-18.1,25.3-25.4c2.6-2,5.7-3.3,8.8-4.3c5.8-1.9,11.1-0.4,15.8,3.4
	c5.6,4.4,10.4,9.6,15.5,14.5C755.4,802.9,759.1,806.6,763.8,811.2z M874.2,775.3c0-2.9-1.4-5.1-3.2-6.9c-4.5-4.7-9-9.5-13.6-14.1
	c-7.6-7.7-8.6-7.9-15.9-0.1c-20.7,22.4-43.1,43.1-64,65.4c-6.2,6.6-12.7,13-19.2,19.4c-5.1,5-10,5.6-13.8,1.7
	c-3.5-3.6-2.9-8.6,1.7-13.4c0.9-0.9,1.7-1.9,2.7-2.7c1.8-1.5,1.7-2.7,0-4.3c-6.7-6.4-13.2-13-19.9-19.4c-3.6-3.5-6.6-3.9-10.7-1
	c-7,4.9-13,11-18.4,17.6c-2,2.5-2,5-0.2,7.4c3.1,4.2,6.2,8.5,9.9,12.3c13.3,13.4,26.6,26.8,39.9,40.2c1.4,1.4,2.9,2.7,4.5,3.9
	c2.8,2.1,5.8,2.6,9.3,1.6c3-0.8,5.8-2.1,8.3-4c3.8-2.8,7.3-6,10.5-9.5c8.7-9.5,17.8-18.6,27-27.7c20.8-20.6,41.6-41.1,62.4-61.6
	C873.2,778.7,874.1,777.1,874.2,775.3z"/>
<path class="st4" d="M138.9,352.6l22,22c5.2,5.2,13.7,5.2,18.9,0l22-22c5.2-5.2,5.2-13.7,0-18.9l-22-22c-5.2-5.2-13.7-5.2-18.9,0
	l-22,22C133.6,338.9,133.6,347.4,138.9,352.6z"/>
<path class="st4" d="M138.9,416.7l22,22c5.2,5.2,13.7,5.2,18.9,0l22-22c5.2-5.2,5.2-13.7,0-18.9l-22-22c-5.2-5.2-13.7-5.2-18.9,0
	l-22,22C133.6,403,133.6,411.5,138.9,416.7z"/>
<path class="st3" d="M664,950.7l17.3,17.3c2.5,2.5,6.6,2.5,9.1,0l17.3-17.3c2.5-2.5,2.5-6.6,0-9.1l-17.3-17.3
	c-2.5-2.5-6.6-2.5-9.1,0L664,941.5C661.5,944,661.5,948.1,664,950.7z"/>
<path class="st3" d="M776.2,865.3l17.3,17.3c2.5,2.5,6.6,2.5,9.1,0l17.3-17.3c2.5-2.5,2.5-6.6,0-9.1l-17.3-17.3
	c-2.5-2.5-6.6-2.5-9.1,0l-17.3,17.3C773.6,858.7,773.6,862.8,776.2,865.3z"/>
<circle class="st5" cx="791.2" cy="809.4" r="171"/>
</svg>
