<?xml version="1.0" encoding="utf-8"?>
<!-- Generator: Adobe Illustrator 28.0.0, SVG Export Plug-In . SVG Version: 6.00 Build 0)  -->
<svg version="1.1" id="Capa_1" xmlns="http://www.w3.org/2000/svg" xmlns:xlink="http://www.w3.org/1999/xlink" x="0px" y="0px"
	 viewBox="0 0 1080 1080" style="enable-background:new 0 0 1080 1080;" xml:space="preserve">
<style type="text/css">
	.st0{fill:#0A0B0B;}
	.st1{fill:#050606;}
	.st2{fill:#FFFFFF;}
	.st3{fill:#DBB300;}
	.st4{fill:#6EE1EB;}
	.st5{fill:none;stroke:#DBB300;stroke-width:20;stroke-miterlimit:10;}
</style>
<path class="st0" d="M436.3,515.3c9.2-18.8,18.2-37.2,27.2-55.6c19.7-40.4,39.4-80.9,59.1-121.3c0.2-0.5,0.5-1,0.7-1.5
	c1.8-3.7,4.7-6.2,9-5.8c4.2,0.4,6.7,3.1,8.1,7.1c4.9,13.7,9.8,27.3,14.9,40.9c12,32.5,24.2,64.9,36.1,97.4c1.1,3,2.5,4.2,5.8,4.3
	c24.5,0.5,49,1.1,73.5,1.7c18,0.4,36,0.8,53.9,1.2c5.8,0.1,5.3,0.8,5.3-5.1c0.1-64.1,0.2-128.2,0.3-192.4
	c0.1-37.8,0.1-75.6,0.2-113.3c0-5.2,0.7-10.5-0.6-15.7c-1.2-4.7-3.1-8.9-6.5-12.3c-3.2-3.2-7-5-11.7-5.1
	c-20.1-0.6-40.3-1.2-60.4-1.8c-4-0.1-8-0.1-12-0.3c-2.4-0.1-4.7-0.5-6.6-2.1c-4.8-3.9-3.8-11.3,1.9-13.9c2.1-0.9,4.2-1,6.4-0.9
	c18.3,0.5,36.7,1.1,55,1.6c3.8,0.1,7.6,0.5,11.4,0.2c19-1.3,33.7,11.9,38.1,27.9c1.2,4.4,2.1,8.8,2.1,13.4
	c-0.1,80.1-0.3,160.2-0.4,240.3c-0.1,75.6-0.2,151.1-0.3,226.7c0,2-0.5,4,0.6,6.1c8.1-1.6,16.2-3.4,24.5-4.4
	c12.3-1.4,24.7-1.6,37-0.6c38.8,3.4,73.1,17.8,102.3,43.5c34.2,30.1,53.9,68,58.5,113.3c7.7,75.6-34.3,148.6-103.6,180.8
	c-28.9,13.4-59.2,19.6-91,17.3c-46-3.4-85.5-21.5-117.6-54.8c-17.9-18.6-30.7-40.3-38.9-64.8c-1.9-5.7-1.9-5.7-7.7-5.7
	c-95.7-0.7-191.4-1.5-287.2-2.2c-39.2-0.3-78.5-0.6-117.7-0.8c-5.1,0-10.2-0.1-15.2-1.3c-16-3.7-24.5-13.1-26.7-29.7
	c-0.5-4.1-0.8-8.3-0.8-12.5c0.1-48,0.8-95.9,0.5-143.9c-1-166-0.6-332-0.9-498.1c0-6.7-0.6-13.4,1.1-20.1
	c3.9-14.8,12.4-25.2,27.5-29.6c2.5-0.7,5-0.9,7.5-0.9c22.7-0.6,45.4-1.2,68.1-1.8c1.8,0,3.6-0.2,5.4,0c4.8,0.5,7.9,3.7,8.1,8
	c0.2,4.4-2.6,7.7-7.5,8.5c-2.3,0.4-4.7,0.4-7,0.5c-18.5,0.5-37,0.9-55.6,1.4c-3.8,0.1-7.6,0.5-11.4,0.5c-7.1,0-12,3.6-15.5,9.4
	c-3.2,5.3-4.2,11.1-4.1,17.2c0.1,3.1,0.2,6.2,0.2,9.3c0.2,99.9,0.3,199.8,0.5,299.7c0,6.5,0,6.5,6.7,6.5c43.2,0,86.5-0.1,129.7,0.1
	c4.2,0,6.4-1.2,8.5-4.8c10.4-18.5,21.2-36.8,31.9-55.1c0.5-0.9,1.1-1.9,1.7-2.8c4.8-7.8,13.7-8.1,19.1-0.6c1.1,1.5,1.9,3.1,2.9,4.6
	c17.3,29.2,34.7,58.4,52,87.5C433.7,512.1,434.3,513.9,436.3,515.3z M368.5,436.3c-0.4,0.6-0.9,1.1-1.3,1.8
	c-10.3,17.7-20.7,35.4-30.7,53.3c-2.7,4.8-6.3,7.3-11.7,7.3c-1.8,0-3.6,0-5.4,0c-44.3,0-88.6,0-132.9,0c-6.9,0-6-0.9-6,6.1
	c0.1,49.9,0.4,99.9,0.4,149.8c0,54.1-0.2,108.2-0.4,162.4c0,4,0.1,8,1.2,11.9c1.5,5.4,4.5,9.3,10.2,10.9c3.4,0.9,6.7,1.5,10.2,1.4
	c9.6-0.3,19.2,0.4,28.9,0.4c125.5,1,251,1.9,376.5,2.8c1.6,0,3.3,0.4,5-0.5c-0.2-1.5-0.2-3.2-0.5-4.7c-1.6-9.2-2-18.4-2.1-27.7
	c-0.1-28.9,6.7-56.2,20.2-81.6c21.3-40.2,53.4-68.7,95.6-85.7c2.8-1.1,4.4-2,4.4-5.6c-0.1-44.5,0-89,0-133.5c0-4.3,0.2-4.2-4.1-4.3
	c-45-1.1-90-2.2-135.1-3.2c-8.1-0.2-9.9-1.5-12.7-9.2c-15.2-41-30.5-81.9-45.8-122.8c-0.4-1.2-0.3-2.9-2.3-3.4
	c-0.9,1.6-1.7,3.2-2.5,4.8c-26.3,53.9-52.6,107.9-78.9,161.8c-1,2.1-2,4.3-3.4,6.2c-4.2,5.8-13.9,6.8-17.7-0.6
	c-0.6-1.1-1.3-2.2-1.9-3.3c-17.7-29.8-35.4-59.6-53.2-89.3C371.2,439.8,370.5,437.7,368.5,436.3z M954,815.7
	c0-30.5-4.8-53.3-12.9-71.8C912,677.5,842.9,640,771.2,649.5c-38.7,5.1-72.3,21.6-99,50.2c-38.9,41.5-53.6,90.7-41.8,146.7
	c14.5,68.5,75.6,122.3,154,124.1c26,0.6,51-4.5,74.3-16.1C919.6,923.9,950.9,874.1,954,815.7z"/>
<path class="st1" d="M406.4,78.2c-0.2-9,1.5-16.9,5.6-24.2c9.6-17.1,30.1-26.1,49.9-22c20.4,4.3,34.7,19.9,36.7,40
	c0.4,4,0.4,4,4.3,3.9c14.9-0.4,29.8-0.8,44.7,0c5.4,0.3,10.8,1,16.2,1.9c17.7,3,27.7,18.1,29.8,31.5c1.4,8.9,0.9,17.8,0.9,26.6
	c-0.1,12.9-0.9,25.8-1.8,38.6c-0.6,8.7-3.4,16.3-10.3,21.9c-7.4,6-15.8,9.2-25.6,9.1c-48-0.5-95.9-1-143.9-1.4
	c-17.8-0.2-35.6-0.5-53.4-0.6c-6.6,0-13.1-0.7-19.4-2.5c-10-2.9-18.3-8-21.7-18.7c-0.7-2.1-1-4.2-1.1-6.4
	c-0.3-19.2-0.4-38.5,0.3-57.7c0.2-6.6,1.4-13,3.4-19.2c3.7-11.8,11.8-18.4,24.1-19.8c7.2-0.8,14.5-1.3,21.7-1.3
	C380,77.9,392.8,76.9,406.4,78.2z M452.7,102.2c1.4-0.1,2.9-0.1,4.3-0.2c11.4-1.2,21.6-10,24.1-20.7c2.5-11.1-2.2-22.4-12.2-28.6
	c-10.5-6.4-21.4-6.7-32-0.6c-16.4,9.3-18.2,31.2-3.7,43.2C438.8,100,445.3,102.3,452.7,102.2z"/>
<path class="st2" d="M368.5,436.3c2,1.4,2.7,3.5,3.8,5.4c17.7,29.8,35.4,59.6,53.2,89.3c0.6,1.1,1.3,2.2,1.9,3.3
	c3.8,7.4,13.5,6.4,17.7,0.6c1.4-1.9,2.4-4.1,3.4-6.2c26.3-53.9,52.6-107.9,78.9-161.8c0.8-1.6,1.7-3.2,2.5-4.8
	c2,0.5,1.9,2.3,2.3,3.4c15.3,40.9,30.5,81.9,45.8,122.8c2.9,7.7,4.7,9,12.7,9.2c45,1.1,90,2.2,135.1,3.2c4.2,0.1,4.1-0.1,4.1,4.3
	c-0.1,44.5-0.1,89,0,133.5c0,3.6-1.6,4.5-4.4,5.6c-42.2,17-74.4,45.5-95.6,85.7c-13.4,25.4-20.2,52.7-20.2,81.6
	c0,9.3,0.5,18.5,2.1,27.7c0.3,1.6,0.3,3.2,0.5,4.7c-1.7,0.9-3.4,0.5-5,0.5c-125.5-0.9-251-1.8-376.5-2.8c-9.6-0.1-19.2-0.7-28.9-0.4
	c-3.5,0.1-6.8-0.5-10.2-1.4c-5.8-1.5-8.7-5.4-10.2-10.9c-1.1-3.9-1.2-7.9-1.2-11.9c0.1-54.1,0.4-108.2,0.4-162.4
	c0-49.9-0.3-99.9-0.4-149.8c0-7-0.9-6.1,6-6.1c44.3,0,88.6,0,132.9,0c1.8,0,3.6,0,5.4,0c5.4,0,9-2.5,11.7-7.3
	c10.1-17.8,20.5-35.5,30.7-53.3C367.5,437.5,368,436.9,368.5,436.3z"/>
<path class="st2" d="M452.7,102.2c-7.4,0.1-13.9-2.3-19.6-7c-14.4-12.1-12.6-33.9,3.7-43.2c10.7-6.1,21.6-5.8,32,0.6
	c10.1,6.2,14.8,17.5,12.2,28.6c-2.4,10.7-12.7,19.5-24.1,20.7C455.6,102.1,454.2,102.1,452.7,102.2z"/>
<path class="st3" d="M792.3,944.3c-66.4,0.1-122.1-46.2-133.2-109.4c-10.4-59.1,20.1-119.1,74.7-145.3c41.7-20,83.8-19.6,124.5,2.4
	c36.4,19.6,58.8,50.7,66.6,91.5c13.9,72.6-34.4,144.6-110.5,158.6C806.5,943.5,798.5,944.1,792.3,944.3z M792.2,692.4
	c-17.1-0.1-34.7,4.2-51.4,12.4c-58,28.5-83.1,98.7-56,156c28.6,60.3,100.6,83.4,159.5,53.7c48.4-24.3,74.7-77.6,63.7-130.1
	C896.5,730,849.5,692.3,792.2,692.4z"/>
<path class="st3" d="M794.1,836.8c-17.8,0-32.4-14.4-32.4-32c0-17.2,14.2-31.4,31.5-31.5c18.1-0.1,32.7,14.4,32.6,32.3
	C825.7,822.9,811.6,836.8,794.1,836.8z M808.8,805.6c0.1-8.3-6.7-15.2-15.2-15.3c-8.1-0.1-14.8,6.1-15,14
	c-0.2,8.5,6.8,15.6,15.4,15.6C802.2,819.9,808.7,813.6,808.8,805.6z"/>
<path class="st3" d="M722.2,837.9c-17.8,0-32.4-14.3-32.5-31.9c-0.1-17.2,14.1-31.4,31.5-31.5c18.1-0.1,32.7,14.3,32.7,32.2
	C753.8,824,739.7,837.8,722.2,837.9z M736.9,806.7c0.1-8.3-6.7-15.2-15.1-15.3c-8.1-0.1-14.8,6.1-15,14c-0.2,8.5,6.8,15.6,15.3,15.6
	C730.2,821,736.8,814.7,736.9,806.7z"/>
<path class="st3" d="M864.5,836.8c-17.9,0.1-32.4-14.1-32.5-31.8c-0.1-17.4,13.8-31.5,31.3-31.7c18-0.2,33,14.4,32.9,32.1
	C896.1,822.7,882,836.7,864.5,836.8z M863.8,790.3c-8.1,0-14.7,6.3-15,14.2c-0.2,8.3,7.2,15.6,15.6,15.5c8.1-0.1,14.5-6.5,14.6-14.5
	C879.1,797.1,872.3,790.3,863.8,790.3z"/>
<path class="st4" d="M140.3,352.6l22,22c5.2,5.2,13.7,5.2,18.9,0l22-22c5.2-5.2,5.2-13.7,0-18.9l-22-22c-5.2-5.2-13.7-5.2-18.9,0
	l-22,22C135.1,338.9,135.1,347.4,140.3,352.6z"/>
<path class="st4" d="M140.3,416.7l22,22c5.2,5.2,13.7,5.2,18.9,0l22-22c5.2-5.2,5.2-13.7,0-18.9l-22-22c-5.2-5.2-13.7-5.2-18.9,0
	l-22,22C135.1,403,135.1,411.5,140.3,416.7z"/>
<path class="st3" d="M665.5,950.7l17.3,17.3c2.5,2.5,6.6,2.5,9.1,0l17.3-17.3c2.5-2.5,2.5-6.6,0-9.1l-17.3-17.3
	c-2.5-2.5-6.6-2.5-9.1,0l-17.3,17.3C662.9,944,662.9,948.1,665.5,950.7z"/>
<circle class="st5" cx="790.2" cy="808.9" r="170.5"/>
</svg>
