<?xml version="1.0" encoding="utf-8"?>
<!-- Generator: Adobe Illustrator 28.0.0, SVG Export Plug-In . SVG Version: 6.00 Build 0)  -->
<svg version="1.1" id="Capa_1" xmlns="http://www.w3.org/2000/svg" xmlns:xlink="http://www.w3.org/1999/xlink" x="0px" y="0px"
	 viewBox="0 0 1080 1080" style="enable-background:new 0 0 1080 1080;" xml:space="preserve">
<style type="text/css">
	.st0{fill:#0A0B0B;}
	.st1{fill:#FFFFFF;}
	.st2{fill:#FCFCFC;}
	.st3{fill:#FF5500;}
	.st4{fill:#6EE1EB;}
	.st5{fill:none;stroke:#FF5500;stroke-width:20;stroke-miterlimit:10;}
</style>
<path class="st0" d="M436.3,515.4c7.8-15.8,15.3-31.3,22.9-46.8c21.2-43.4,42.3-86.7,63.4-130.1c2.1-4.2,4.6-7.7,9.7-7.3
	c4.8,0.4,7,3.8,8.5,8.1c4.7,13.3,9.6,26.6,14.5,39.9c12,32.5,24.2,64.9,36.1,97.4c1.2,3.3,3,4.3,6.3,4.3c25.1,0.5,50.1,1.1,75.2,1.6
	c17.3,0.4,34.5,0.8,51.8,1.3c5.6,0.1,5.3,0.8,5.3-5.1c0.1-57.8,0.2-115.5,0.3-173.3c0.1-44.1,0.2-88.3,0.2-132.4
	c0-5.2,0.7-10.5-0.6-15.7c-1.2-4.7-3-8.9-6.5-12.4c-3.2-3.2-7-5-11.6-5.1c-22.9-0.6-45.7-1.3-68.6-2c-2.2-0.1-4.4,0-6.5-0.5
	c-4.5-0.9-7.2-4.2-7.1-8.4c0.1-4.2,2.9-7.3,7.5-8c1.8-0.3,3.6-0.2,5.4-0.2c22.9,0.6,45.8,1,68.6,1.8c12.9,0.4,22.8,6.5,29.7,17.4
	c4.5,7.2,6.7,15.3,6.7,23.8c-0.1,85.6-0.3,171.1-0.4,256.7c-0.1,69.9-0.2,139.9-0.3,209.8c0,2.1-0.3,4.3,0.4,6.7
	c3.9-0.8,7.5-1.5,11.2-2.3c17.8-3.6,35.7-4.3,53.7-2.3c54.8,6.2,98.3,31.8,129.2,77.4c42.4,62.4,39,145.4-7.9,205.6
	c-31.9,41-74,65-125.6,70.5c-57,6.2-106.5-11-147.5-51.3c-19.5-19.1-33.2-42-41.8-68c-1.7-5.2-1.7-5.2-7-5.2
	c-124.8-1-249.6-2-374.3-3c-12.5-0.1-25.1-0.1-37.6-0.2c-5.5,0-10.8-1.4-15.9-3.4c-12.4-4.9-17.7-15-19.4-27.4
	c-0.6-4.3-0.8-8.7-0.8-13c0.1-47.8,0.8-95.5,0.5-143.3c-1-166.2-0.6-332.4-0.9-498.6c0-6.5-0.6-13.1,1.1-19.5
	c3.8-14.3,11.9-24.6,26.4-29.3c3.2-1,6.4-1.3,9.7-1.3c21.4-0.5,42.8-1.1,64.3-1.6c2.7-0.1,5.5-0.3,8.2,0c4.9,0.5,8,3.7,8.1,8
	c0.2,4.4-2.7,7.7-7.5,8.6c-1.4,0.3-2.9,0.3-4.3,0.3c-18.2,0.4-36.3,0.8-54.5,1.3c-5.6,0.1-11.2,0.5-16.9,0.8
	c-5.9,0.3-10.1,3.6-13.3,8.3c-3.5,5.1-4.8,11-4.7,17.1c0.6,23.4,0.3,46.9,0.4,70.3c0.2,79.9,0.3,159.8,0.4,239.8
	c0,6.6,0,6.6,6.6,6.6c43.2,0,86.5-0.1,129.7,0.1c4.2,0,6.5-1.2,8.6-4.8c10.5-18.5,21.2-36.8,31.9-55.1c0.5-0.9,1.1-1.9,1.7-2.8
	c4.7-7.8,13.7-8.2,19.2-0.8c0.9,1.2,1.5,2.5,2.3,3.7c17.4,29.3,34.9,58.7,52.3,88C433.5,511.9,434.2,513.9,436.3,515.4z
	 M612.3,843.9c-0.8-6.4-2-12.8-2.3-19.3c-1.6-29.1,2.8-57.2,14.8-83.9c20.5-45.5,54.2-77.4,100.3-96.3c4.5-1.9,4.6-1.8,4.6-5.9
	c0.1-44.3,0.1-88.6,0.1-133c0-4.9,0.1-4.5-4.3-4.6c-45-1.1-90.1-2.2-135.1-3.2c-7.8-0.2-9.7-1.5-12.4-8.8
	c-15.2-41-30.5-81.9-45.7-122.9c-0.5-1.3-1-2.5-1.6-4c-2,1.5-2.4,3.3-3.2,4.9c-26.4,53.9-52.7,107.9-79,161.9c-1,2-1.9,3.9-3.1,5.7
	c-5,7.3-13.6,7.2-18.3-0.2c-0.9-1.4-1.7-2.8-2.5-4.2c-17.5-29.5-35-59-52.6-88.5c-1-1.7-1.7-3.9-3.7-5.1c-0.5,0.7-0.8,1.1-1.1,1.5
	c-10.4,17.9-20.8,35.8-31,53.7c-2.6,4.6-6.1,7-11.4,7c-1.8,0-3.6,0-5.4,0c-44.3,0-88.6,0-133,0c-6.8,0-6.2-1-6.2,6
	c0.1,50,0.4,99.9,0.4,149.9c0,54.3-0.2,108.6-0.4,162.9c0,4,0.2,8,1.3,11.9c1.5,5.2,4.5,8.9,10,10.4c3.4,0.9,6.7,1.5,10.2,1.5
	c8.3-0.1,16.7,0.3,25,0.4c126.6,1.1,253.2,1.9,379.8,2.8C608.6,844.5,610.4,845,612.3,843.9z M954,815.6c-0.1-30.8-4.3-51.7-13-71.5
	c-25-57.4-81.2-95-146.5-95.8c-29.1-0.4-56.3,6.9-82,20.6c-58.4,31.2-93.1,96.7-84.9,162.3c5.7,45.4,26.9,82.5,64.4,108.7
	c52.6,36.8,109.6,41.7,167.2,14.2C920.4,924.8,951,874,954,815.6z"/>
<path class="st0" d="M406.2,77.5c0.3-4.8,0.5-9.6,1.9-14.4c6.3-20.7,26.8-34.1,48.8-31.9c22,2.2,39.3,18.8,41.6,40.2
	c0.1,0.5,0.1,1.1,0.1,1.6c-0.2,2.3,0.7,3.1,3.1,3c6.5-0.3,13.1-0.3,19.6-0.4c11.8-0.2,23.6,0.2,35.4,1.1c24.5,2,36.6,18.7,37.6,39
	c0.6,12,0.6,24-0.3,35.9c-0.6,7.6-0.6,15.2-1.2,22.8c-0.8,9.3-3.9,17.3-11.5,23c-7.3,5.5-15.5,8.3-24.8,8.1
	c-47.9-0.6-95.9-1-143.8-1.4c-17.4-0.2-34.9-0.5-52.3-0.6c-6.9-0.1-13.8-0.6-20.5-2.6c-10-3-18.1-8.3-21.4-19
	c-0.7-2.1-0.9-4.2-0.9-6.4c-0.3-18.9-0.3-37.8,0.3-56.6c0.2-6,1.2-11.9,2.8-17.7c4-14.3,12-20.9,26.7-22.3
	c17.8-1.7,35.5-1.4,53.3-1.2C402.4,77.9,404.3,78.5,406.2,77.5z M451.4,48.1c-1.1,0.1-3.1,0.1-5.1,0.5c-11.1,2.5-19.1,8.7-22,20.1
	c-2.8,11,0.8,20.1,9.4,27.1c11.1,9.1,28,8.8,38.7-0.5c5-4.3,8.2-9.6,9-16.2C483.6,62.3,470.2,48.1,451.4,48.1z"/>
<path class="st1" d="M612.3,843.9c-1.9,1.1-3.8,0.6-5.6,0.6c-126.6-0.9-253.2-1.8-379.8-2.8c-8.3-0.1-16.7-0.5-25-0.4
	c-3.4,0-6.8-0.5-10.2-1.5c-5.6-1.5-8.5-5.2-10-10.4c-1.1-3.9-1.4-7.8-1.3-11.9c0.1-54.3,0.4-108.6,0.4-162.9
	c0-50-0.3-99.9-0.4-149.9c0-7-0.7-6,6.2-6c44.3,0,88.6,0,133,0c1.8,0,3.6-0.1,5.4,0c5.3,0.1,8.8-2.4,11.4-7
	c10.2-18,20.7-35.8,31-53.7c0.3-0.5,0.6-0.9,1.1-1.5c2,1.2,2.6,3.3,3.7,5.1c17.6,29.5,35.1,59,52.6,88.5c0.8,1.4,1.6,2.8,2.5,4.2
	c4.7,7.4,13.3,7.5,18.3,0.2c1.2-1.8,2.2-3.8,3.1-5.7c26.3-54,52.7-107.9,79-161.9c0.8-1.6,1.1-3.4,3.2-4.9c0.6,1.5,1.1,2.7,1.6,4
	c15.3,41,30.5,81.9,45.7,122.9c2.7,7.3,4.6,8.6,12.4,8.8c45,1.1,90.1,2.2,135.1,3.2c4.4,0.1,4.3-0.2,4.3,4.6
	c-0.1,44.3-0.1,88.6-0.1,133c0,4.1-0.1,4.1-4.6,5.9c-46.1,18.9-79.8,50.8-100.3,96.3c-12,26.7-16.5,54.8-14.8,83.9
	C610.4,831.1,611.5,837.5,612.3,843.9z"/>
<path class="st2" d="M451.4,48.1c18.8,0,32.2,14.2,30.1,31.1c-0.8,6.6-4.1,12-9,16.2c-10.7,9.2-27.6,9.5-38.7,0.5
	c-8.6-7-12.2-16.1-9.4-27.1c2.9-11.4,10.9-17.6,22-20.1C448.3,48.2,450.3,48.2,451.4,48.1z"/>
<path class="st3" d="M656.9,811.8c0.2-64.5,47-121,110.3-133.4c31.9-6.2,62.4-2.1,90.7,13.4c36.4,20,59.1,50.9,67,91.8
	c13.8,72.2-33.8,144-109.5,158.4c-70.4,13.4-138-30.4-154.7-100.1c-1.1-4.6-2-9.2-2.5-13.9C657.5,822.7,657.3,817.2,656.9,811.8z
	 M791.6,927.5c4.7-0.2,10.5-0.4,16.3-1.2c63.3-9.4,108.3-65.9,101.9-129.3c-4.5-44.1-27.8-75.8-68-94.1
	c-33.5-15.2-67.5-13.9-100.5,2.1c-46.8,22.7-74.9,73.6-65.4,127.2C685.7,888.1,733.5,927.5,791.6,927.5z"/>
<path class="st3" d="M792.4,860c-4.2,4.2-8.4,8.2-12.5,12.3c-5.3,5.3-10.3,10.7-15.7,15.8c-7.5,7-14,7.2-21.5,0.1
	c-10.2-9.6-20.1-19.4-29.9-29.4c-4.6-4.6-4.9-9-1.8-14.9c2-3.7,4.5-7,7.5-10c7.1-7.3,14.2-14.6,21.3-21.9c2.9-3,2.9-3,0-5.9
	c-8.1-8-16.5-15.9-24.4-24.1c-8.4-8.8-8.2-15.1,0.4-23.9c8.8-9.1,17.8-18.2,26.7-27.2c6.1-6.1,10.5-6.5,18-2
	c3.1,1.9,5.9,4.2,8.5,6.8c6.9,6.7,13.8,13.4,20.7,20.2c3.8,3.7,3.2,3.7,7.1-0.2c8.6-8.6,17.1-17.3,25.7-25.9c1.4-1.4,3-2.6,4.7-3.7
	c3.8-2.6,7.8-2.6,11.9-0.7c2.6,1.3,5,2.9,7.1,5c9,9,18.1,17.9,27.1,26.8c1.8,1.8,3.4,3.7,4.4,6.1c1.2,3.1,0.7,6.1-0.7,8.9
	c-2.1,4.3-5,8-8.3,11.4c-7.7,7.7-15.3,15.5-22.9,23.3c-2.6,2.7-2.6,2.8,0,5.5c8.4,8.5,17,16.9,25.3,25.5c6.6,6.8,9.8,12.7-0.5,23.5
	c-8.9,9.3-18.2,18.3-27.4,27.3c-5.9,5.8-10.4,6.2-17.5,1.9c-3.3-2-6.2-4.4-8.9-7.1c-7.4-7.4-14.9-14.9-22.4-22.3
	C793.6,860.8,792.9,860.4,792.4,860z M857.6,767.7c0-2-1.3-3.1-2.4-4.2c-5.6-5.5-11.1-11-16.7-16.5c-3.9-3.8-5.6-3.7-9.7,0
	c-0.9,0.9-1.8,1.8-2.7,2.7c-7.8,7.9-15.5,15.8-23.3,23.7c-2.1,2.1-4.3,3.8-7.4,4.3c-4.6,0.7-8.5-0.4-11.9-3.8
	c-8.2-8.2-16.6-16.3-24.9-24.4c-4.7-4.5-6.4-4.5-10.8,0c-5.1,5.2-10.2,10.3-15.3,15.5c-4.1,4.3-4.2,6.2,0.1,10.5
	c5.2,5.3,10.6,10.4,15.9,15.6c3.8,3.7,7.6,7.3,11.2,11.1c4.1,4.3,4,8.5,0.2,13.1c-0.7,0.8-1.5,1.6-2.3,2.4
	c-7.8,8.1-15.7,16.1-23.5,24.2c-6.9,7.1-6.8,7.7,0,14.3c4.3,4.2,8.6,8.4,12.8,12.6c5.5,5.4,7,5.4,12.4,0c0.5-0.5,1-1,1.5-1.6
	c7.7-7.9,15.4-15.9,23.2-23.8c5.1-5.1,9.1-5.3,14.8-0.9c1.6,1.2,3,2.6,4.4,4c7.9,7.8,15.7,15.7,23.6,23.4c4.4,4.3,6.2,4.3,10.4,0.1
	c5.3-5.2,10.6-10.5,15.8-15.8c4-4,4-5.9,0.1-10.1c-2.5-2.7-5.1-5.2-7.7-7.7c-6.2-6.2-12.4-12.3-18.5-18.5c-4.8-4.9-5-7.7-1.7-13.5
	c1.7-3,3.9-5.7,6.3-8.1c7.5-7.6,15-15.3,22.5-22.9C856,771.9,857.7,770.2,857.6,767.7z"/>
<path class="st4" d="M140.4,352.6l22,22c5.2,5.2,13.7,5.2,18.9,0l22-22c5.2-5.2,5.2-13.7,0-18.9l-22-22c-5.2-5.2-13.7-5.2-18.9,0
	l-22,22C135.2,338.9,135.2,347.4,140.4,352.6z"/>
<path class="st4" d="M140.4,416.7l22,22c5.2,5.2,13.7,5.2,18.9,0l22-22c5.2-5.2,5.2-13.7,0-18.9l-22-22c-5.2-5.2-13.7-5.2-18.9,0
	l-22,22C135.2,403,135.2,411.5,140.4,416.7z"/>
<path class="st3" d="M665.6,950.7l17.3,17.3c2.5,2.5,6.6,2.5,9.1,0l17.3-17.3c2.5-2.5,2.5-6.6,0-9.1L692,924.2
	c-2.5-2.5-6.6-2.5-9.1,0l-17.3,17.3C663,944,663,948.1,665.6,950.7z"/>
<circle class="st5" cx="790.4" cy="809.8" r="171.5"/>
</svg>
