<?xml version="1.0" encoding="utf-8"?>
<!-- Generator: Adobe Illustrator 28.0.0, SVG Export Plug-In . SVG Version: 6.00 Build 0)  -->
<svg version="1.1" id="Capa_1" xmlns="http://www.w3.org/2000/svg" xmlns:xlink="http://www.w3.org/1999/xlink" x="0px" y="0px"
	 viewBox="0 0 1080 1080" style="enable-background:new 0 0 1080 1080;" xml:space="preserve">
<style type="text/css">
	.st0{fill:#0A0A0A;}
	.st1{fill:#FEFEFE;}
	.st2{fill:#DBB300;}
	.st3{fill:#6EE1EB;}
	.st4{fill:none;stroke:#DBB300;stroke-width:20;stroke-miterlimit:10;}
</style>
<path class="st0" d="M622.7,221.1c2.7,0,4.7,0,6.7,0c44,0.5,87.9,1.1,131.9,1.4c12.4,0.1,21.5,5.5,28.8,14.9
	c6.6,8.5,9.8,18.5,11.7,29c1,5.4,1.3,10.8,1.3,16.3c-0.3,104.1-0.5,208.2-0.7,312.2c0,10.9-0.1,21.8-0.1,32.7c0,3.8,0.1,3.8,3.8,4.2
	c6.5,0.7,13,0.6,19.5,2c58.5,12.7,103,44.3,128.8,99c37.5,79.8,9.5,174.8-65.2,223.8c-34.7,22.8-72.9,33.1-114.2,30.1
	c-45.6-3.3-84.9-21.2-116.7-54.3c-27.3-28.4-43-62.5-47.4-101.7c-0.5-4.2-0.9-8.3-0.9-12.5c0-4.7,0.5-4.6-4.9-4.6
	c-6.4,0-12.7,0-19.1,0c-163.8-0.6-327.7-1.2-491.5-1.8c-2,0-4-0.1-6,0c-11.9,0.6-23-2.6-33.4-8c-10.1-5.3-17.5-13.4-21.7-24.1
	c-5.1-12.9-6.9-26.3-7.1-40c-0.2-8.7,0.3-17.4,0.7-26.1c0.3-6.8,2.8-9.4,9.8-9.8c6.9-0.4,13.8-0.3,20.7-0.4c3.8-0.1,3.9-0.2,4.2-3.9
	c0.1-1.6,0-3.3,0-4.9c-0.2-133.7-0.4-267.4-0.7-401.1c0-10.7-0.6-21.4,2-32c2.6-10.6,6.5-20.4,14.3-28.3
	c6.7-6.9,14.7-10.7,24.7-10.7c42.1-0.3,84.3-0.8,126.4-1.3c6.7-0.1,5.8,0.6,5.9-5.8c0-51.6,0-103.2,0-154.8c0-1.6,0-3.3,0-4.9
	c0.2-6.8,3.4-9.8,10.2-9.9c107.7-1,215.4-2,323.1-3c13.4-0.1,26.9-0.4,40.3-0.6c2.5,0,5.1,0,7.6,0.4c5.1,0.7,7.6,3.6,7.9,8.8
	c0.1,1.8,0,3.6,0,5.4c-0.1,52.7-0.3,105.4-0.4,158C622.7,216.8,622.7,218.8,622.7,221.1z M605.6,317.1c-0.1,0-0.1,0-0.2,0
	c0.3-83.5,0.7-167.1,1-250.6c0-7.3,0-7.3-7.1-7.2c-114.2,1.1-228.4,2.2-342.7,3.4c-6.8,0.1-6-1-6,6.2c0,166.7,0,333.4,0,500.1
	c0,1.3,0.1,2.5,0,3.8c-0.1,1.6,0.5,2.4,2.2,2.3c0.9,0,1.8,0,2.7,0c114.8-0.3,229.5-0.7,344.3-1c5.2,0,4.6,0.4,4.7-4.7
	c0-0.4,0-0.7,0-1.1C604.9,484.5,605.3,400.8,605.6,317.1z M431.9,637.6C431.9,637.7,431.9,637.7,431.9,637.6
	c95.4,0.1,190.7,0.1,286.1,0.1c6.7,0,6.7,0,6.7-6.6c0.5-74.5,1-148.9,1.5-223.4c0.2-32.7,0.3-65.4,0.5-98.1c0-4.8,0-4.8-4.6-4.9
	c-0.5,0-1.1,0-1.6,0c-30.5-0.4-61-0.8-91.5-1.2c-6.6-0.1-6.6-0.1-6.6,6.3c-0.2,86.3-0.5,172.5-0.7,258.8c0,0.7,0.1,1.5,0,2.2
	c-0.2,2.2,0.5,3.3,3,3.2c4.2-0.2,8.4-0.1,12.5-0.1c2.9,0,5.8-0.1,8.7,0c5,0.3,8.5,3.8,8.6,8.2c0.1,4.4-3.3,7.9-8.3,8.4
	c-2,0.2-4,0.1-6,0.1c-141.8,0.4-283.7,0.9-425.5,1.3c-1.8,0-3.6,0-5.4-0.2c-4.5-0.6-7.5-3.8-7.6-7.9c-0.1-4,2.8-7.5,7.1-8.4
	c1.4-0.3,2.9-0.3,4.3-0.3c5.3,0,10.5,0,15.8,0c6,0,5.2,0.5,5.2-5.3c0-35.8,0-71.6,0-107.3c0-51.4,0-102.8,0-154.2
	c0-5,0.5-4.8-4.7-4.7c-0.7,0-1.5,0-2.2,0c-27.4,0.4-54.8,0.8-82.3,1.1c-7,0.1-7,0.1-6.9,6.9c0.7,106.4,1.3,212.9,2,319.3
	c0,7.7-1.1,6.7,6.5,6.7C241.5,637.6,336.7,637.6,431.9,637.6z M700.9,654.5c-2,0-3.9,0-5.9,0c-185.6,0-371.2-0.1-556.9,0.1
	c-11.9,0-15.3-4.9-15.3-15.1c-0.3-88.6-0.9-177.3-1.4-265.9c-0.1-25.1-0.5-50.1-0.7-75.2c-0.1-6.7,3.1-10.1,9.8-10.3
	c18-0.3,36-0.5,53.9-0.8c15.1-0.2,30.1-0.4,45.2-0.6c4.1-0.1,4.2-0.2,4.2-4.2c0-13.4,0-26.9,0-40.3c0-4-0.1-4.1-4.2-4.1
	c-42.9,0.4-85.7,0.8-128.6,1.1c-4.1,0-7.4,1.5-10.4,4c-2.8,2.4-5,5.3-6.7,8.5c-4.4,8.4-6.3,17.3-6.3,26.7c0.1,18.9,0,37.8,0,56.7
	C77.8,455.6,78,576,78.1,696.4c0,8.4-0.4,6.9,7,6.9c80.8-0.4,161.6-0.9,242.5-1.4c105.3-0.6,210.7-1.1,316-1.5c4,0,6.6-1.2,9.2-4.3
	c7.8-9.6,16.9-17.9,26.6-25.7C686.3,664.9,693.8,660.2,700.9,654.5z M637,717.2c-2.9,0-4.7,0-6.5,0c-17.3,0.1-34.5,0.3-51.8,0.4
	c-175.6,0.9-351.2,1.7-526.8,2.6c-2,0-4,0.1-6,0c-2.2-0.1-2.8,0.9-2.8,2.9c-0.2,9.3-0.6,18.5,0.4,27.8c0.8,7.2,2.1,14.3,4.7,21.2
	c3.1,8.4,8.7,14.5,16.4,18.8c6.2,3.5,12.8,4.3,19.9,4.3c173.4,0.5,346.9,1.1,520.3,1.7c5.6,0,5.6,0,6.2-5.4
	c2.5-22.1,9.2-42.8,19.4-62.5C632.2,725.3,634.4,721.8,637,717.2z M954,815.1c-0.2-30.7-4.4-51.8-13.2-71.8
	C912,677.8,843.3,640,771.3,649.5c-38.7,5.1-72.2,21.6-99,50.1c-38.6,41.2-53.6,90-42.2,145.5c14.8,71.7,77.9,123.8,154.5,125.3
	c26,0.5,51-4.5,74.3-16.2C919.7,923.8,950.9,874,954,815.1z M622.7,238.6c0,15.8,0,31.9,0,48c2.4,0,4.6,0,6.7,0
	c20,0.3,39.9,0.6,59.9,0.9c14.9,0.2,29.8,0.4,44.7,0.7c6.6,0.1,9.9,3.7,9.7,10.4c0,1.3-0.1,2.5-0.1,3.8
	c-0.7,110.6-1.3,221.2-2,331.8c0,1.3-0.5,2.9,0.8,4.2c0.8-0.2,1.7-0.4,2.5-0.6c11.2-3,22.7-5,34.3-5.9c6.6-0.5,6.1,0.8,6.1-6.3
	c0.1-110.6,0.3-221.2,0.4-331.8c0-6.5,0.1-13.1-0.2-19.6c-0.4-9.2-2.9-17.9-8.2-25.6c-4.1-6-9.5-9.3-17.3-9.3
	c-21.8,0.1-43.6-0.5-65.4-0.6C670.9,238.5,647.1,238.6,622.7,238.6z"/>
<path class="st1" d="M605.6,317.1c-0.3,83.7-0.6,167.4-1,251.2c0,0.4,0,0.7,0,1.1c0,5.1,0.5,4.7-4.7,4.7
	c-114.8,0.3-229.5,0.7-344.3,1c-0.9,0-1.8,0-2.7,0c-1.6,0.1-2.3-0.7-2.2-2.3c0.1-1.3,0-2.5,0-3.8c0-166.7,0-333.4,0-500.1
	c0-7.1-0.8-6.1,6-6.2c114.2-1.1,228.4-2.3,342.7-3.4c7.1-0.1,7.1-0.1,7.1,7.2c-0.3,83.5-0.7,167.1-1,250.6
	C605.5,317.1,605.5,317.1,605.6,317.1z M441,137.8c0-3.3,0.2-6.6,0-9.8c-0.5-5.7-5.6-9.3-10.8-7.5c-3.6,1.3-5.4,4.1-5.7,7.9
	c-0.4,6.2-0.8,12.3-0.9,18.5c0,2.9-1.1,4-3.8,4.7c-6.9,1.8-13.4,4.6-18.5,9.9c-6.7,6.8-12.1,14.6-15.5,23.5
	c-5.4,13.9-4.7,29.9,10,41.7c9.4,7.6,19.5,13.8,30.8,18.2c9.5,3.7,18.9,7.5,27.6,12.7c5.1,3,9.7,6.5,12.4,11.9
	c6,12.5,1.4,32.9-7.8,40.9c-11.5,10.1-24.8,14.8-39.8,14.8c-8.5,0-16.5-2.5-23.3-7.9c-2.7-2.1-5.3-4.4-8.1-6.4
	c-4.5-3.1-9.3-2.4-12.1,1.4c-2.7,3.7-2,8.1,1.8,11.6c10.8,10,23.2,16.7,38.2,17.8c2.7,0.2,3.3,1.4,3.4,3.8c0,3.3,0.2,6.5,0.4,9.8
	c0.1,1.6,0.1,3.3,0.7,4.8c1.5,3.7,4.7,5.9,8.5,5.6c3.9-0.3,7.2-3.3,7.4-7.5c0.2-4.9,0-9.8-0.3-14.7c-0.1-2.1,0.4-3.4,2.7-3.8
	c10.1-1.7,18.5-7.1,26.7-13c9.9-7.1,16.4-16.3,19.1-28.2c6-25.8-1.2-45.1-24.4-57.3c-8.7-4.5-17.7-8.4-26.8-12
	c-10.6-4.2-20.2-9.8-28.5-17.6c-3.3-3.1-4.8-6.7-4.8-11.1c0-3.5,0.7-6.8,2.1-10c2.6-6.1,6.2-11.5,10.7-16.3c2-2.2,4.3-3.8,7.1-4.9
	c12.8-4.7,25.5-4.8,38.1,0.9c2.5,1.1,5,2.3,7.7,2.5c4.8,0.4,8.5-1.7,9.5-5.5c1-3.7-0.8-6.8-5.2-9c-5.8-3-12-5.2-18.3-6.8
	c-3.5-0.9-8.2-0.5-10.2-2.7C438.4,146.3,441.1,141.6,441,137.8z M428.4,495.2c0-0.3,0-0.5,0-0.8c-35.4,0-70.8,0-106.2,0
	c-0.9,0-1.8-0.1-2.7,0c-4.9,0.4-8.3,3.9-8.3,8.4c0,4.5,3.4,8,8.3,8.3c2.7,0.2,5.4,0,8.2,0c68.1,0.2,136.1,0.4,204.2,0.6
	c2.2,0,4.4,0.1,6.5-0.3c4-0.7,6.8-4.3,6.8-8.1c0-4.1-3-7.5-7.4-8.1c-1.4-0.2-2.9-0.2-4.3-0.2C498.5,495.2,463.5,495.2,428.4,495.2z
	 M425.7,430.3c0-0.2,0-0.4,0-0.6c33.2,0,66.4,0,99.6,0c2.2,0,4.4-0.1,6.5-0.5c4-0.8,6.5-3.7,6.8-7.5c0.3-3.9-2.3-7.2-6.3-8.5
	c-2-0.6-4-0.5-5.9-0.5c-66.4,0.5-132.9,0.9-199.3,1.4c-1.8,0-3.6,0-5.4,0.3c-4.5,0.8-7.2,3.9-7.2,8.2c0,4.1,2.9,7.4,7.3,8.2
	c1.8,0.3,3.6,0.2,5.4,0.2C360,430.8,392.9,430.5,425.7,430.3z"/>
<path class="st1" d="M431.9,637.6c-95.2,0-190.3,0-285.5,0c-7.6,0-6.5,1-6.5-6.7c-0.7-106.4-1.3-212.9-2-319.3c0-6.8,0-6.8,6.9-6.9
	c27.4-0.4,54.8-0.8,82.3-1.1c0.7,0,1.5,0,2.2,0c5.2,0,4.7-0.3,4.7,4.7c0,51.4,0,102.8,0,154.2c0,35.8,0,71.6,0,107.3
	c0,5.8,0.8,5.2-5.2,5.3c-5.3,0-10.5,0-15.8,0c-1.4,0-2.9,0-4.3,0.3c-4.3,0.9-7.3,4.4-7.1,8.4c0.1,4,3.2,7.2,7.6,7.9
	c1.8,0.3,3.6,0.2,5.4,0.2c141.8-0.4,283.7-0.9,425.5-1.3c2,0,4,0.1,6-0.1c5-0.4,8.4-4,8.3-8.4c-0.1-4.4-3.6-7.9-8.6-8.2
	c-2.9-0.2-5.8,0-8.7,0c-4.2,0-8.4-0.1-12.5,0.1c-2.5,0.1-3.2-0.9-3-3.2c0.1-0.7,0-1.5,0-2.2c0.2-86.3,0.5-172.5,0.7-258.8
	c0-6.4,0-6.4,6.6-6.3c30.5,0.4,61,0.8,91.5,1.2c0.5,0,1.1,0,1.6,0c4.5,0.1,4.6,0.1,4.6,4.9c-0.2,32.7-0.3,65.4-0.5,98.1
	c-0.5,74.5-1,148.9-1.5,223.4c0,6.6,0,6.6-6.7,6.6C622.6,637.7,527.2,637.7,431.9,637.6C431.9,637.7,431.9,637.7,431.9,637.6z"/>
<path class="st1" d="M700.9,654.5c-7.2,5.7-14.6,10.4-21.5,15.9c-9.7,7.7-18.8,16.1-26.6,25.7c-2.5,3.1-5.1,4.3-9.2,4.3
	c-105.3,0.4-210.7,1-316,1.5c-80.8,0.4-161.6,0.9-242.5,1.4c-7.4,0-7,1.5-7-6.9C78,576,77.8,455.6,77.7,335.2c0-18.9,0-37.8,0-56.7
	c0-9.4,1.8-18.4,6.3-26.7c1.7-3.2,3.9-6.1,6.7-8.5c3-2.5,6.4-4,10.4-4c42.9-0.3,85.7-0.8,128.6-1.1c4.1,0,4.2,0,4.2,4.1
	c0,13.4,0,26.9,0,40.3c0,4-0.1,4.2-4.2,4.2c-15.1,0.3-30.1,0.4-45.2,0.6c-18,0.3-36,0.5-53.9,0.8c-6.7,0.1-9.9,3.6-9.8,10.3
	c0.3,25.1,0.6,50.1,0.7,75.2c0.5,88.6,1.1,177.3,1.4,265.9c0,10.3,3.4,15.2,15.3,15.1c185.6-0.2,371.2-0.1,556.9-0.1
	C697,654.5,699,654.5,700.9,654.5z"/>
<path class="st1" d="M637,717.2c-2.6,4.6-4.8,8.2-6.7,11.8c-10.2,19.7-16.9,40.4-19.4,62.5c-0.6,5.5-0.6,5.5-6.2,5.4
	c-173.4-0.6-346.9-1.2-520.3-1.7c-7.1,0-13.7-0.9-19.9-4.3c-7.7-4.3-13.3-10.4-16.4-18.8c-2.5-6.9-3.9-14-4.7-21.2
	c-1-9.2-0.6-18.5-0.4-27.8c0.1-2,0.6-3,2.8-2.9c2,0.1,4,0,6,0c175.6-0.9,351.2-1.7,526.8-2.6c17.3-0.1,34.5-0.3,51.8-0.4
	C632.3,717.1,634.1,717.2,637,717.2z"/>
<path class="st1" d="M622.7,238.6c24.4,0,48.2-0.1,71.9,0c21.8,0.1,43.6,0.7,65.4,0.6c7.8,0,13.2,3.3,17.3,9.3
	c5.3,7.7,7.7,16.4,8.2,25.6c0.3,6.5,0.2,13.1,0.2,19.6c-0.1,110.6-0.3,221.2-0.4,331.8c0,7.1,0.5,5.8-6.1,6.3
	c-11.6,0.9-23,2.9-34.3,5.9c-0.9,0.2-1.7,0.4-2.5,0.6c-1.4-1.3-0.9-2.8-0.8-4.2c0.6-110.6,1.3-221.2,2-331.8c0-1.3,0.1-2.5,0.1-3.8
	c0.2-6.7-3.1-10.2-9.7-10.4c-14.9-0.3-29.8-0.5-44.7-0.7c-20-0.3-39.9-0.6-59.9-0.9c-2.1,0-4.3,0-6.7,0
	C622.7,270.5,622.7,254.4,622.7,238.6z"/>
<path class="st0" d="M441,137.8c0.1,3.8-2.6,8.4-0.1,11c2.1,2.2,6.7,1.8,10.2,2.7c6.3,1.6,12.5,3.8,18.3,6.8c4.4,2.3,6.1,5.3,5.2,9
	c-1,3.8-4.7,5.9-9.5,5.5c-2.8-0.2-5.2-1.4-7.7-2.5c-12.6-5.8-25.3-5.7-38.1-0.9c-2.8,1-5.1,2.7-7.1,4.9c-4.5,4.9-8.1,10.2-10.7,16.3
	c-1.4,3.2-2.1,6.5-2.1,10c0,4.5,1.5,8,4.8,11.1c8.3,7.8,17.9,13.5,28.5,17.6c9.1,3.6,18.1,7.5,26.8,12
	c23.3,12.1,30.4,31.4,24.4,57.3c-2.7,11.8-9.2,21.1-19.1,28.2c-8.2,5.8-16.5,11.2-26.7,13c-2.3,0.4-2.8,1.7-2.7,3.8
	c0.2,4.9,0.5,9.8,0.3,14.7c-0.2,4.1-3.5,7.1-7.4,7.5c-3.7,0.3-7-1.9-8.5-5.6c-0.6-1.6-0.7-3.2-0.7-4.8c-0.1-3.3-0.3-6.5-0.4-9.8
	c0-2.3-0.6-3.6-3.4-3.8c-15-1-27.4-7.7-38.2-17.8c-3.9-3.6-4.6-7.9-1.8-11.6c2.8-3.8,7.6-4.5,12.1-1.4c2.8,1.9,5.4,4.2,8.1,6.4
	c6.8,5.4,14.9,7.9,23.3,7.9c15,0,28.2-4.7,39.8-14.8c9.2-8,13.8-28.5,7.8-40.9c-2.6-5.4-7.3-8.9-12.4-11.9
	c-8.8-5.2-18.2-9-27.6-12.7c-11.2-4.4-21.3-10.6-30.8-18.2c-14.7-11.8-15.4-27.8-10-41.7c3.5-8.9,8.9-16.6,15.5-23.5
	c5.1-5.2,11.6-8.1,18.5-9.9c2.7-0.7,3.8-1.8,3.8-4.7c0.1-6.2,0.5-12.3,0.9-18.5c0.2-3.8,2-6.6,5.7-7.9c5.2-1.8,10.4,1.7,10.8,7.5
	C441.2,131.3,441,134.6,441,137.8z"/>
<path class="st0" d="M428.4,495.2c35,0,70.1,0,105.1,0c1.4,0,2.9,0,4.3,0.2c4.3,0.6,7.4,4,7.4,8.1c0,3.8-2.8,7.3-6.8,8.1
	c-2.1,0.4-4.3,0.3-6.5,0.3c-68.1-0.2-136.1-0.4-204.2-0.6c-2.7,0-5.5,0.2-8.2,0c-4.9-0.3-8.3-3.8-8.3-8.3c0-4.5,3.4-8,8.3-8.4
	c0.9-0.1,1.8,0,2.7,0c35.4,0,70.8,0,106.2,0C428.4,494.6,428.4,494.9,428.4,495.2z"/>
<path class="st0" d="M425.7,430.3c-32.9,0.3-65.7,0.5-98.6,0.8c-1.8,0-3.7,0.1-5.4-0.2c-4.4-0.7-7.3-4-7.3-8.2
	c0-4.2,2.7-7.4,7.2-8.2c1.8-0.3,3.6-0.3,5.4-0.3c66.4-0.5,132.9-0.9,199.3-1.4c2,0,4-0.2,5.9,0.5c4,1.3,6.6,4.6,6.3,8.5
	c-0.2,3.7-2.8,6.7-6.8,7.5c-2.1,0.4-4.3,0.5-6.5,0.5c-33.2,0-66.4,0-99.6,0C425.7,429.9,425.7,430.1,425.7,430.3z"/>
<path class="st2" d="M792.2,944.3c-66.2,0.1-121.8-46.1-133-109.3c-10.1-56.5,17.4-114.4,68.4-142c43.2-23.4,87.4-24.2,130.7-1
	c36.4,19.5,58.8,50.7,66.6,91.4c14,72.7-34.4,144.6-110.5,158.7C806.5,943.5,798.6,944.1,792.2,944.3z M794.1,692.4
	c-18.8,0-36.2,4-53.1,12.3c-58.2,28.5-83.4,98.9-56.1,156.3c28.4,59.7,100,83.2,159.2,53.6c49-24.4,75.4-79,63.7-131
	C895.8,729.6,849.4,692.5,794.1,692.4z"/>
<path class="st2" d="M793.8,836.8c-17.7-0.1-32.3-14.7-32.2-32.2c0.2-17.3,14.4-31.2,31.8-31.2c18,0,32.6,14.6,32.4,32.5
	C825.6,823.1,811.4,836.9,793.8,836.8z M793.6,790.3c-8.1-0.1-14.7,6.1-14.9,14.1c-0.2,8.5,6.8,15.6,15.4,15.6
	c8.1,0,14.6-6.4,14.7-14.4C808.9,797.3,802.1,790.4,793.6,790.3z"/>
<path class="st2" d="M832.1,804.5c0.1-17.4,14.2-31.2,31.8-31.1c17.7,0,32.4,14.6,32.4,32.1c-0.1,17.5-14.5,31.5-32.2,31.4
	C846.2,836.7,831.9,822.2,832.1,804.5z M879.1,805.5c0.1-8.3-6.7-15.1-15.2-15.2c-8.3-0.1-15.1,6.6-15,14.7
	c0.1,8.1,7.3,15.1,15.6,15C872.5,819.9,879,813.5,879.1,805.5z"/>
<path class="st2" d="M722.2,837.9c-17.8,0.1-32.4-14.3-32.6-31.8c-0.1-17.2,14.1-31.5,31.4-31.6c18.1-0.2,32.8,14.3,32.7,32.1
	C753.8,823.9,739.8,837.8,722.2,837.9z M706.8,805.6c-0.1,8.3,6.6,15.2,15,15.4c8.2,0.2,15.1-6.4,15.1-14.6
	c0-8.3-6.9-15.1-15.3-15.1C713.4,791.4,706.9,797.6,706.8,805.6z"/>
<path class="st3" d="M35,333.8L58.2,357c5.5,5.5,14.4,5.5,19.9,0l23.2-23.2c5.5-5.5,5.5-14.4,0-19.9l-23.2-23.2
	c-5.5-5.5-14.4-5.5-19.9,0L35,313.9C29.5,319.4,29.5,328.3,35,333.8z"/>
<path class="st3" d="M35,401.4l23.2,23.2c5.5,5.5,14.4,5.5,19.9,0l23.2-23.2c5.5-5.5,5.5-14.4,0-19.9l-23.2-23.2
	c-5.5-5.5-14.4-5.5-19.9,0L35,381.5C29.5,387,29.5,395.9,35,401.4z"/>
<path class="st2" d="M652.8,940l18.2,18.2c2.7,2.7,7,2.7,9.6,0l18.2-18.2c2.7-2.7,2.7-7,0-9.6l-18.2-18.2c-2.7-2.7-7-2.7-9.6,0
	l-18.2,18.2C650.1,933,650.1,937.3,652.8,940z"/>
<circle class="st4" cx="790.2" cy="809.2" r="171"/>
</svg>
