<?xml version="1.0" encoding="utf-8"?>
<!-- Generator: Adobe Illustrator 28.0.0, SVG Export Plug-In . SVG Version: 6.00 Build 0)  -->
<svg version="1.1" id="Capa_1" xmlns="http://www.w3.org/2000/svg" xmlns:xlink="http://www.w3.org/1999/xlink" x="0px" y="0px"
	 viewBox="0 0 1080 1080" style="enable-background:new 0 0 1080 1080;" xml:space="preserve">
<style type="text/css">
	.st0{fill:#0A0A0A;}
	.st1{fill:#FEFEFE;}
	.st2{fill:#29E4A5;}
	.st3{fill:#6EE1EB;}
	.st4{fill:none;stroke:#29E4A5;stroke-width:19;stroke-miterlimit:10;}
</style>
<path class="st0" d="M623.2,221.1c2.2,0,4,0,5.8,0c44,0.5,87.9,1.2,131.9,1.4c13.1,0.1,22.5,5.9,29.9,15.9c6,8.2,9.1,17.7,10.9,27.6
	c1,5.5,1.3,11.2,1.3,16.8c-0.2,91.9-0.5,183.9-0.7,275.8c-0.1,22.2-0.1,44.3-0.1,66.5c0,1.1,0.1,2.2,0,3.3c-0.3,2.6,1,3.3,3.5,3.5
	c6.5,0.5,13,0.5,19.5,1.9c58.8,12.6,103.4,44.2,129.2,99.2c37.5,79.9,9.4,174.7-65.4,223.8c-34.7,22.8-72.9,33-114.3,30.1
	c-45.4-3.3-84.5-21.1-116.3-54c-27.4-28.4-43.1-62.4-47.6-101.6c-0.6-4.9-1-9.8-0.9-14.7c0-2.1-0.8-2.8-2.9-2.8
	c-6.5,0.1-13.1,0-19.6,0c-164.6-0.6-329.1-1.2-493.7-1.8c-2.4,0-4.7,0.1-7.1,0.1c-12.9-0.4-25.1-3.5-36-10.7
	c-12.7-8.3-18.5-21-21.6-35.2c-3-13.6-3.3-27.4-2.8-41.2c0.2-4,0.3-8,0.6-12c0.4-5.8,3-8.7,8.8-9c6.9-0.4,13.8-0.3,20.7-0.4
	c5-0.1,5-0.1,5.2-5.2c0-1.1,0-2.2,0-3.3c-0.2-133.9-0.4-267.8-0.7-401.7c0-10.7-0.5-21.4,2-32c2.7-10.9,6.9-21.1,15.1-29.1
	c6.5-6.3,14.1-9.8,23.4-9.9c42-0.3,83.9-0.9,125.9-1.3c0.9,0,1.8,0,2.7,0c4-0.1,4.1-0.1,4.1-4.3c0-27.1,0-54.1,0-81.2
	c0-25.3,0-50.5,0-75.8c0-1.5,0-2.9,0-4.4c0.3-6.5,3.4-9.6,9.8-9.7c6.4-0.1,12.7-0.2,19.1-0.2c100.3-0.9,200.5-1.8,300.8-2.8
	c14.7-0.1,29.4-0.4,44.1-0.6c2.7,0,5.5,0.1,8.1,0.5c4.3,0.7,6.7,3.4,7.1,7.7c0.2,2,0.1,4,0.1,6c-0.1,52.9-0.3,105.7-0.4,158.6
	C622.7,217,622.3,219,623.2,221.1z M605.6,317.2c-0.1,0-0.1,0-0.2,0c0.3-83.7,0.7-167.5,1-251.2c0-7.7,1.2-6.8-7-6.7
	c-114,1.1-228.1,2.2-342.1,3.4c-6.6,0.1-6.6,0-6.6,6.7c0,166.4,0,332.8,0,499.2c0,6.7,0,6.7,6.5,6.7c77.5-0.3,155.1-0.5,232.6-0.8
	c36.7-0.1,73.4-0.2,110.1-0.3c5.2,0,4.7,0.5,4.8-4.6c0-0.4,0-0.7,0-1.1C604.9,484.7,605.3,400.9,605.6,317.2z M432.2,637.7
	C432.2,637.8,432.2,637.8,432.2,637.7c95.2,0.1,190.3,0.1,285.5,0.1c1.5,0,2.9-0.1,4.4,0c1.9,0.1,2.6-0.8,2.5-2.6
	c-0.1-0.9,0-1.8,0-2.7c0.7-107.2,1.3-214.4,2-321.5c0-7.1,0.8-6.1-6-6.2c-31.4-0.5-62.8-0.9-94.3-1.3c-4-0.1-4-0.1-4.1,4
	c0,1.5,0,2.9,0,4.4c-0.2,84.1-0.5,168.2-0.7,252.3c0,3.1-1,7.1,0.5,9c1.9,2.3,6.1,0.7,9.3,0.8c4.9,0.1,9.8-0.2,14.7,0.1
	c4.9,0.3,8.4,4.1,8.2,8.5c-0.1,4.3-3.4,7.5-8.1,8c-1.8,0.2-3.6,0.1-5.4,0.1c-142.2,0.4-284.4,0.9-426.6,1.3c-1.8,0-3.6,0-5.4-0.3
	c-4.2-0.7-7-3.8-7.3-7.6c-0.2-3.8,2.4-7.3,6.4-8.4c1.6-0.4,3.2-0.5,4.8-0.5c5.1-0.1,10.2,0,15.3-0.1c7-0.1,5.9,0.8,5.9-6.2
	c0-86.3,0-172.6,0-258.9c0-1.3-0.1-2.6,0-3.8c0.2-2.2-0.8-3-2.8-2.8c-0.7,0.1-1.5,0-2.2,0c-28.9,0.4-57.8,0.8-86.6,1.2
	c-0.7,0-1.5,0.1-2.2,0c-1.6-0.1-2.3,0.7-2.2,2.3c0,0.9,0,1.8,0,2.7c0.7,107.7,1.3,215.4,2,323.2c0,5-0.4,4.7,4.7,4.7
	c0.7,0,1.5,0,2.2,0C241.9,637.7,337,637.7,432.2,637.7z M701.6,654.6c-2.4,0-4.3,0-6.2,0c-75,0-150,0-225,0
	c-111.2,0-222.3-0.1-333.5,0.1c-9.2,0-14.6-4.3-13.9-13.7c0-0.5,0-1.1,0-1.6c-0.5-88.7-1-177.3-1.5-266c-0.2-25.1-0.5-50.1-0.7-75.2
	c-0.1-6.5,3.3-10,10-10.1c22.5-0.3,45-0.6,67.6-0.9c10.2-0.1,20.3-0.3,30.5-0.4c5.5-0.1,5.1,0.2,5.1-5c0-12.5,0-25.1,0-37.6
	c0-6.9,1-6.1-6-6c-41.6,0.4-83.2,0.9-124.8,1.1c-7.1,0-12.2,2.8-16.3,8.2c-2.4,3.2-4.2,6.8-5.6,10.5c-3,8-3.5,16.2-3.5,24.6
	c0.1,83.6,0.2,167.1,0.3,250.7c0.1,54.9,0.1,109.7,0.2,164.6c0,6.5,0,5.7,5.6,5.6c17.6-0.1,35.2-0.4,52.9-0.5
	c169.1-0.9,338.2-1.7,507.3-2.4c3.8,0,6.3-1.1,8.7-4c12.8-15.3,27.9-28,44.8-38.5C698.6,657.2,700.3,656.7,701.6,654.6z M636,717.9
	c-1.6-1.1-3.4-0.6-5.2-0.5c-17.3,0.1-34.5,0.3-51.8,0.4c-175.8,0.9-351.6,1.7-527.4,2.6c-2,0-4,0.1-6,0c-1.9-0.1-2.5,0.8-2.6,2.6
	c-0.5,14.9-0.6,29.8,3.4,44.4c3.2,11.8,10,20.3,21.2,25.4c5.3,2.4,10.7,2.7,16.4,2.7c110.2,0.3,220.5,0.7,330.7,1.1
	c63.4,0.2,126.8,0.5,190.2,0.7c5.3,0,5.4,0,5.8-4c2.8-25.6,10.9-49.5,23.9-71.7C635.3,720.3,636.4,719.4,636,717.9z M954,816.4
	c0-31.4-4.2-52.4-13-72.5c-29-66.5-98.1-103.8-169.7-94.3c-38.7,5.1-72.2,21.6-99,50.2c-38.5,41-53.5,89.7-42.3,145
	c14.7,72.1,77.7,124.1,154.2,125.8c26.2,0.6,51.4-4.5,74.8-16.2C919.5,924,950.7,874.4,954,816.4z M622.8,286.6c2.6,0,4.8,0,7,0
	c13.3,0.2,26.5,0.4,39.8,0.6c21.4,0.3,42.9,0.6,64.3,0.9c6.9,0.1,10.1,3.6,9.9,10.7c-0.1,2-0.1,4-0.1,6c-0.7,109.3-1.3,218.7-2,328
	c0,1.8-0.5,3.6,0.5,5.2c1.2,0.3,2.2-0.2,3.2-0.5c11.6-3,23.4-5.2,35.4-5.9c4.7-0.3,4.7,0.2,4.7-4.9c0-0.4,0-0.7,0-1.1
	c0.1-111,0.3-222,0.4-332.9c0-6.4,0.1-12.7-0.2-19.1c-0.5-9.4-3.1-18.2-8.6-26c-4-5.6-9.3-8.7-16.6-8.6c-14.2,0.2-28.3-0.2-42.5-0.3
	c-31.5-0.3-63.1-0.6-95-0.9C622.8,254.2,622.8,270.3,622.8,286.6z"/>
<path class="st1" d="M605.6,317.2c-0.3,83.7-0.6,167.5-1,251.2c0,0.4,0,0.7,0,1.1c0,5.1,0.4,4.6-4.8,4.6
	c-36.7,0.1-73.4,0.1-110.1,0.3c-77.5,0.2-155.1,0.5-232.6,0.8c-6.5,0-6.5,0-6.5-6.7c0-166.4,0-332.8,0-499.2c0-6.6,0-6.6,6.6-6.7
	c114-1.1,228.1-2.3,342.1-3.4c8.2-0.1,7-1,7,6.7c-0.3,83.7-0.7,167.5-1,251.2C605.4,317.2,605.5,317.2,605.6,317.2z M440.7,138.1
	c0.1,0,0.1,0,0.2,0c0-3.4,0.2-6.9-0.1-10.3c-0.4-4.4-3.7-7.4-7.9-7.5c-4.2-0.1-7.5,2.6-8.4,7c-0.2,1.1-0.3,2.2-0.3,3.3
	c-0.3,4.9-0.6,9.8-0.8,14.7c-0.2,5.4-0.2,5.4-5.2,6.9c-6.3,1.9-12.2,4.6-17,9.4c-6.8,6.9-12.4,14.8-15.8,23.9
	c-5.4,14.2-4.4,29.9,10.3,41.6c9.3,7.4,19.3,13.6,30.3,17.9c9.6,3.8,19.2,7.6,28.1,12.9c5.1,3,10,6.5,12.2,12.1
	c5.1,12.9,3.7,25.8-4.6,36.7c-6.6,8.7-16.2,14.3-27.2,17c-3.6,0.9-7.3,0.1-10.8,1.2c-3.3,1-6.5,0.7-9.7,0.2
	c-8-1.3-15.3-4.2-21.5-9.7c-2-1.8-4.2-3.6-6.5-4.9c-3.9-2.3-8.2-1.3-10.7,2c-2.6,3.3-2.5,7.8,0.8,10.9
	c10.4,10.1,22.5,17.1,37.3,18.6c5.2,0.5,5,0,5.3,5.8c0.2,3.6,0.1,7.3,0.5,10.9c0.6,4.7,4.4,7.6,8.7,7.4c4.3-0.2,7.4-3.6,7.7-8.3
	c0.1-1.1,0-2.2-0.1-3.3c-0.1-3.5-0.1-6.9-0.3-10.3c-0.2-2.4,0.5-3.7,3-4.1c9.9-1.7,18.1-7.1,26.2-12.7c10.1-7.1,16.7-16.6,19.4-28.6
	c5.8-25.8-1.3-44.7-24.3-56.9c-8.7-4.6-17.7-8.5-26.8-12c-10.6-4.1-20.2-9.8-28.6-17.6c-3.4-3.2-5-6.9-4.9-11.6
	c0.1-3.3,0.7-6.5,2-9.5c2.2-5.2,5.3-9.9,8.8-14.3c4.1-5.2,9.4-7.7,15.6-9.1c11.6-2.7,22.7-1.5,33.3,3.8c2.6,1.3,5.4,2,8.4,1.7
	c3.6-0.4,6.3-2.6,7-5.8c0.7-3.1-0.6-6-3.6-7.9c-0.9-0.6-1.9-1-2.9-1.5c-7.9-3.8-16.2-6.4-24.9-7.7c-2.5-0.4-3.5-1.2-3.2-3.8
	C440.4,143.5,440.5,140.8,440.7,138.1z M428.4,495.2c0-0.3,0-0.5,0-0.8c-34.3,0-68.6,0-102.9,0c-1.8,0-3.6-0.1-5.4,0
	c-5.3,0.3-8.8,3.7-8.8,8.5c0,4.7,3.6,8.1,8.9,8.3c2.5,0.1,5.1,0,7.6,0c68.1,0.2,136.1,0.4,204.2,0.6c2.2,0,4.4,0.1,6.5-0.3
	c4-0.8,6.8-4.3,6.8-8.1c0-4.1-3.1-7.5-7.4-8.1c-1.4-0.2-2.9-0.2-4.3-0.2C498.4,495.2,463.4,495.2,428.4,495.2z M426.1,430.3
	c0-0.2,0-0.4,0-0.6c33,0,66.1,0,99.1,0c2.4,0,4.7,0.1,7-0.6c3.6-1,6-3.8,6.3-7.3c0.3-3.7-2-6.9-5.7-8.3c-2.1-0.8-4.3-0.7-6.5-0.7
	c-66.4,0.5-132.9,0.9-199.3,1.4c-1.8,0-3.6,0-5.4,0.3c-4.6,0.8-7.3,3.9-7.3,8.1c0,4.2,2.8,7.5,7.2,8.2c1.8,0.3,3.6,0.2,5.4,0.2
	C360.1,430.9,393.1,430.6,426.1,430.3z"/>
<path class="st1" d="M432.2,637.7c-95.2,0-190.3,0-285.5,0c-0.7,0-1.5,0-2.2,0c-5.1,0-4.7,0.3-4.7-4.7c-0.7-107.7-1.3-215.4-2-323.2
	c0-0.9,0-1.8,0-2.7c-0.1-1.6,0.6-2.4,2.2-2.3c0.7,0,1.5,0,2.2,0c28.9-0.4,57.8-0.8,86.6-1.2c0.7,0,1.5,0.1,2.2,0
	c2.1-0.2,3,0.6,2.8,2.8c-0.1,1.3,0,2.5,0,3.8c0,86.3,0,172.6,0,258.9c0,7,1.1,6.1-5.9,6.2c-5.1,0.1-10.2,0-15.3,0.1
	c-1.6,0-3.3,0.1-4.8,0.5c-4.1,1.1-6.6,4.6-6.4,8.4c0.2,3.9,3.1,6.9,7.3,7.6c1.8,0.3,3.6,0.3,5.4,0.3c142.2-0.4,284.4-0.9,426.6-1.3
	c1.8,0,3.6,0,5.4-0.1c4.7-0.5,8-3.7,8.1-8c0.1-4.4-3.3-8.2-8.2-8.5c-4.9-0.3-9.8,0-14.7-0.1c-3.2-0.1-7.4,1.5-9.3-0.8
	c-1.5-1.9-0.5-5.9-0.5-9c0.2-84.1,0.4-168.2,0.7-252.3c0-1.5,0-2.9,0-4.4c0.1-4.1,0.1-4,4.1-4c31.4,0.4,62.8,0.8,94.3,1.3
	c6.7,0.1,6-1,6,6.2c-0.6,107.2-1.3,214.4-2,321.5c0,0.9-0.1,1.8,0,2.7c0.1,1.8-0.6,2.7-2.5,2.6c-1.4-0.1-2.9,0-4.4,0
	C622.6,637.8,527.4,637.8,432.2,637.7C432.2,637.8,432.2,637.8,432.2,637.7z"/>
<path class="st1" d="M701.6,654.6c-1.3,2.1-2.9,2.6-4.2,3.4c-17,10.5-32.1,23.2-44.8,38.5c-2.4,2.9-4.9,4-8.7,4
	c-169.1,0.7-338.2,1.6-507.3,2.4c-17.6,0.1-35.2,0.3-52.9,0.5c-5.5,0-5.6,0.9-5.6-5.6C78,643,77.9,588.1,77.9,533.2
	c-0.1-83.6-0.2-167.1-0.3-250.7c0-8.4,0.5-16.7,3.5-24.6c1.4-3.8,3.2-7.3,5.6-10.5c4.1-5.3,9.2-8.1,16.3-8.2
	c41.6-0.2,83.2-0.7,124.8-1.1c7-0.1,6-0.8,6,6c0.1,12.5,0,25.1,0,37.6c0,5.3,0.4,4.9-5.1,5c-10.2,0.2-20.3,0.3-30.5,0.4
	c-22.5,0.3-45,0.6-67.6,0.9c-6.8,0.1-10.1,3.5-10,10.1c0.3,25.1,0.6,50.1,0.7,75.2c0.5,88.7,1,177.3,1.5,266c0,0.5,0,1.1,0,1.6
	c-0.7,9.4,4.7,13.7,13.9,13.7c111.2-0.2,222.3-0.1,333.5-0.1c75,0,150,0,225,0C697.3,654.6,699.2,654.6,701.6,654.6z"/>
<path class="st1" d="M636,717.9c0.5,1.6-0.7,2.5-1.3,3.5c-13.1,22.2-21.1,46.1-23.9,71.7c-0.4,4-0.5,4-5.8,4
	c-63.4-0.2-126.8-0.5-190.2-0.7c-110.2-0.4-220.5-0.8-330.7-1.1c-5.7,0-11.1-0.3-16.4-2.7c-11.2-5.1-18-13.6-21.2-25.4
	c-4-14.6-3.9-29.4-3.4-44.4c0.1-1.8,0.7-2.6,2.6-2.6c2,0.1,4,0,6,0c175.8-0.9,351.6-1.7,527.4-2.6c17.3-0.1,34.5-0.3,51.8-0.4
	C632.6,717.3,634.4,716.7,636,717.9z"/>
<path class="st1" d="M622.8,286.6c0-16.3,0-32.4,0-48.7c31.9,0.3,63.4,0.6,95,0.9c14.2,0.1,28.3,0.5,42.5,0.3
	c7.3-0.1,12.5,3,16.6,8.6c5.6,7.7,8.1,16.6,8.6,26c0.4,6.3,0.2,12.7,0.2,19.1c-0.1,111-0.3,222-0.4,332.9c0,0.4,0,0.7,0,1.1
	c0,5.2,0,4.7-4.7,4.9c-12,0.7-23.8,2.8-35.4,5.9c-1,0.3-2,0.8-3.2,0.5c-1-1.6-0.5-3.5-0.5-5.2c0.6-109.3,1.3-218.7,2-328
	c0-2,0.1-4,0.1-6c0.2-7.1-3-10.6-9.9-10.7c-21.4-0.3-42.9-0.6-64.3-0.9c-13.3-0.2-26.5-0.4-39.8-0.6
	C627.6,286.6,625.4,286.6,622.8,286.6z"/>
<path class="st0" d="M440.7,138.1c-0.2,2.7-0.3,5.5-0.6,8.1c-0.3,2.6,0.6,3.4,3.2,3.8c8.7,1.3,17,3.9,24.9,7.7c1,0.5,2,0.9,2.9,1.5
	c3,1.9,4.2,4.8,3.6,7.9c-0.7,3.2-3.4,5.5-7,5.8c-3,0.3-5.8-0.4-8.4-1.7c-10.7-5.3-21.8-6.4-33.3-3.8c-6.2,1.4-11.6,3.9-15.6,9.1
	c-3.5,4.5-6.6,9.1-8.8,14.3c-1.3,3-1.9,6.2-2,9.5c-0.1,4.7,1.5,8.4,4.9,11.6c8.4,7.8,18,13.4,28.6,17.6c9.1,3.6,18.1,7.4,26.8,12
	c23,12.1,30.1,31.1,24.3,56.9c-2.7,12.1-9.3,21.5-19.4,28.6c-8,5.7-16.3,11-26.2,12.7c-2.5,0.4-3.2,1.7-3,4.1
	c0.3,3.4,0.2,6.9,0.3,10.3c0,1.1,0.1,2.2,0.1,3.3c-0.3,4.7-3.5,8.1-7.7,8.3c-4.3,0.2-8-2.7-8.7-7.4c-0.5-3.6-0.3-7.3-0.5-10.9
	c-0.3-5.8-0.1-5.3-5.3-5.8c-14.7-1.5-26.8-8.5-37.3-18.6c-3.2-3.1-3.3-7.6-0.8-10.9c2.6-3.3,6.8-4.2,10.7-2c2.3,1.4,4.5,3.1,6.5,4.9
	c6.2,5.5,13.5,8.4,21.5,9.7c3.2,0.5,6.4,0.8,9.7-0.2c3.5-1,7.2-0.3,10.8-1.2c11-2.7,20.6-8.3,27.2-17c8.3-10.9,9.7-23.7,4.6-36.7
	c-2.2-5.6-7.1-9-12.2-12.1c-8.9-5.3-18.5-9.2-28.1-12.9c-11.1-4.4-21-10.5-30.3-17.9c-14.8-11.8-15.7-27.4-10.3-41.6
	c3.5-9.1,9-17,15.8-23.9c4.7-4.8,10.6-7.5,17-9.4c5-1.5,4.9-1.5,5.2-6.9c0.2-4.9,0.5-9.8,0.8-14.7c0.1-1.1,0.1-2.2,0.3-3.3
	c0.9-4.4,4.2-7.1,8.4-7c4.2,0.1,7.5,3.1,7.9,7.5c0.3,3.4,0.1,6.9,0.1,10.3C440.8,138.1,440.8,138.1,440.7,138.1z"/>
<path class="st0" d="M428.4,495.2c35,0,70.1,0,105.1,0c1.5,0,2.9,0,4.3,0.2c4.3,0.6,7.4,4,7.4,8.1c0,3.8-2.8,7.4-6.8,8.1
	c-2.1,0.4-4.3,0.3-6.5,0.3c-68.1-0.2-136.1-0.4-204.2-0.6c-2.5,0-5.1,0.1-7.6,0c-5.3-0.2-8.9-3.6-8.9-8.3c0-4.7,3.5-8.2,8.8-8.5
	c1.8-0.1,3.6,0,5.4,0c34.3,0,68.6,0,102.9,0C428.4,494.7,428.4,495,428.4,495.2z"/>
<path class="st0" d="M426.1,430.3c-33,0.3-66.1,0.6-99.1,0.8c-1.8,0-3.7,0.1-5.4-0.2c-4.4-0.8-7.2-4.1-7.2-8.2
	c0-4.2,2.7-7.3,7.3-8.1c1.8-0.3,3.6-0.3,5.4-0.3c66.4-0.5,132.9-0.9,199.3-1.4c2.2,0,4.3-0.1,6.5,0.7c3.7,1.4,6,4.7,5.7,8.3
	c-0.3,3.5-2.7,6.4-6.3,7.3c-2.3,0.6-4.7,0.6-7,0.6c-33,0-66.1,0-99.1,0C426.1,429.9,426.1,430.1,426.1,430.3z"/>
<path class="st2" d="M792,944.5c-66.2,0.1-121.9-46.3-133-109.4c-10.4-59.2,20.1-119.1,74.7-145.3c41.7-20,83.8-19.6,124.5,2.4
	c36.4,19.7,58.7,50.8,66.5,91.5c13.9,72.6-34.4,144.6-110.6,158.6C806.4,943.7,798.4,944.3,792,944.5z M793.7,692.5
	c-18.7,0-36.3,4.1-53,12.4c-57.9,28.6-83,98.8-55.9,156c28.6,60.3,100.7,83.4,159.6,53.7c48.3-24.3,74.5-77.8,63.8-129.6
	C896.9,730.7,849.6,692.4,793.7,692.5z"/>
<path class="st2" d="M762.8,811.9c3-3.6,4.8-5.9,6.8-7.9c21.2-21.4,42.5-42.8,64.4-63.5c2-1.9,4.1-3.6,6.3-5.1
	c6.9-4.7,16.7-4,22.6,1.9c6.6,6.5,13.1,13.1,19.2,20.1c6.4,7.3,9.9,15.6,6.7,25.6c-1.5,4.9-4.8,8.5-8.3,11.9
	c-16.1,16-32.3,31.9-48.4,47.9c-11.7,11.7-23.2,23.5-35.1,35c-6.2,6.1-12.9,11.7-19.5,17.5c-0.9,0.8-2,1.5-3.1,2.2
	c-11.2,7.2-17.8,6.8-28.1-1.7c-8.2-6.7-15-14.8-22.4-22.3c-9.5-9.7-19-19.5-28.4-29.4c-4.2-4.3-7.6-9.2-10.7-14.4
	c-3.3-5.6-3.7-11.5,0-16.4c8.9-11.9,18.5-23.3,32-30.5c7.1-3.8,13.6-2.5,19.7,2.5c7.6,6.3,14.2,13.5,21.3,20.3
	C759.5,807.1,760.7,809,762.8,811.9z M750.7,823.8c-7.8-8.4-14.8-16-22-23.4c-3.1-3.2-6.4-3.3-10.3-0.5c-6.9,4.8-12.8,10.7-18,17.3
	c-2.6,3.2-2.6,4.6-0.3,7.8c3,4.3,6.1,8.6,9.9,12.3c13.2,13.3,26.4,26.5,39.6,39.8c1.3,1.3,2.6,2.5,4,3.6c3.2,2.6,6.7,3.2,10.7,2
	c3-0.9,5.7-2.4,8.2-4.2c4-2.9,7.4-6.4,10.8-10c28.6-30.2,58.7-58.9,88.2-88.2c3.5-3.4,3.9-6.6,1-10.5c-1.6-2.2-3.6-4.1-5.5-6.1
	c-4.3-4.4-8.6-8.9-13-13.2c-3.2-3.1-4.5-3.1-8-0.4c-2.1,1.7-4.1,3.6-6,5.5c-9.1,9.4-18.1,18.8-27.3,28.2
	c-11,11.1-22.2,21.9-32.9,33.3c-7.3,7.8-14.9,15.4-22.6,22.8c-4.2,4.1-9.2,4-12.6,0.4c-3.1-3.3-2.9-8.2,0.9-12.2
	C747.1,826.5,749.2,825,750.7,823.8z"/>
<path class="st3" d="M35.5,336.9l23.2,23.2c5.5,5.5,14.4,5.5,19.9,0l23.2-23.2c5.5-5.5,5.5-14.4,0-19.9l-23.2-23.2
	c-5.5-5.5-14.4-5.5-19.9,0L35.5,317C30,322.5,30,331.4,35.5,336.9z"/>
<path class="st3" d="M35.5,404.5l23.2,23.2c5.5,5.5,14.4,5.5,19.9,0l23.2-23.2c5.5-5.5,5.5-14.4,0-19.9l-23.2-23.2
	c-5.5-5.5-14.4-5.5-19.9,0l-23.2,23.2C30,390.1,30,399,35.5,404.5z"/>
<path class="st2" d="M653.3,943.1l18.2,18.2c2.7,2.7,7,2.7,9.6,0l18.2-18.2c2.7-2.7,2.7-7,0-9.6l-18.2-18.2c-2.7-2.7-7-2.7-9.6,0
	l-18.2,18.2C650.7,936.1,650.7,940.4,653.3,943.1z"/>
<path class="st2" d="M773.6,868.1l18.2,18.2c2.7,2.7,7,2.7,9.6,0l18.2-18.2c2.7-2.7,2.7-7,0-9.6l-18.2-18.2c-2.7-2.7-7-2.7-9.6,0
	l-18.2,18.2C770.9,861.1,770.9,865.4,773.6,868.1z"/>
<circle class="st4" cx="790.2" cy="809.4" r="171.5"/>
</svg>
