<?xml version="1.0" encoding="utf-8"?>
<!-- Generator: Adobe Illustrator 28.0.0, SVG Export Plug-In . SVG Version: 6.00 Build 0)  -->
<svg version="1.1" id="Capa_1" xmlns="http://www.w3.org/2000/svg" xmlns:xlink="http://www.w3.org/1999/xlink" x="0px" y="0px"
	 viewBox="0 0 1080 1080" style="enable-background:new 0 0 1080 1080;" xml:space="preserve">
<style type="text/css">
	.st0{fill:#0A0A0A;}
	.st1{fill:#FEFEFE;}
	.st2{fill:#FF5500;}
	.st3{fill:#6EE1EB;}
	.st4{fill:none;stroke:#FF5500;stroke-width:19;stroke-miterlimit:10;}
</style>
<path class="st0" d="M622.7,221.1c2.7,0,4.7,0,6.7,0c44,0.5,87.9,1.1,131.9,1.4c12.4,0.1,21.5,5.5,28.8,14.9
	c6.6,8.5,9.8,18.5,11.7,29c1,5.4,1.3,10.8,1.3,16.3c-0.3,104.3-0.5,208.5-0.7,312.8c0,10.7-0.1,21.4-0.1,32.2c0,3.8,0.1,3.8,3.8,4.2
	c6.5,0.7,13,0.6,19.5,2c58.5,12.7,103,44.3,128.8,99c37.6,79.8,9.5,174.8-65.2,223.8c-34.7,22.8-72.9,33.1-114.2,30.1
	c-45.6-3.3-84.9-21.2-116.7-54.3c-27.3-28.4-43-62.5-47.4-101.7c-0.5-4.2-0.9-8.3-0.9-12.5c0-4.7,0.5-4.6-4.9-4.6
	c-6.4,0-12.7,0-19.1,0c-163.8-0.6-327.7-1.2-491.5-1.8c-2,0-4-0.1-6,0c-11.9,0.6-23-2.6-33.4-8c-10.1-5.3-17.5-13.4-21.7-24.1
	c-5.1-12.9-6.9-26.3-7.1-40c-0.2-8.7,0.3-17.4,0.7-26.1c0.3-6.8,2.8-9.4,9.8-9.8c6.9-0.4,13.8-0.3,20.7-0.4c3.8-0.1,3.9-0.2,4.2-3.9
	c0.1-1.6,0-3.3,0-4.9c-0.2-133.7-0.4-267.4-0.7-401.1c0-10.7-0.6-21.4,2-32c2.6-10.6,6.5-20.4,14.3-28.3
	c6.7-6.9,14.7-10.7,24.7-10.8c42.1-0.3,84.3-0.8,126.4-1.3c6.7-0.1,5.9,0.6,5.9-5.8c0-51.6,0-103.2,0-154.8c0-1.6,0-3.3,0-4.9
	c0.2-6.8,3.4-9.8,10.2-9.9c107.7-1,215.4-2,323.1-3c13.4-0.1,26.9-0.4,40.3-0.6c2.5,0,5.1,0,7.6,0.4c5.1,0.7,7.6,3.6,7.9,8.8
	c0.1,1.8,0,3.6,0,5.4c-0.1,52.7-0.3,105.4-0.4,158C622.7,216.8,622.7,218.8,622.7,221.1z M250.7,575c2.8,0,5,0,7.2,0
	c113.5-0.3,227-0.7,340.5-1c6.2,0,6.2,0,6.3-6.4c0.6-167.3,1.2-334.5,1.8-501.8c0-7.5,1.2-6.7-6.6-6.6c-114,1.1-228.1,2.2-342.1,3.4
	c-7,0.1-7,0.1-7,6.8c0,166.3,0,332.7,0,499C250.7,570.5,250.7,572.5,250.7,575z M431.7,637.6C431.7,637.7,431.7,637.7,431.7,637.6
	c95.4,0.1,190.7,0.1,286.1,0.1c1.6,0,3.3,0,4.9,0c1.3,0,2-0.6,2-2c0-1.1,0-2.2,0-3.3c0.7-107.3,1.3-214.7,2-322c0-1.1,0-2.2,0-3.3
	c0.1-1.5-0.5-2.4-2.2-2.4c-1.3,0-2.5,0-3.8,0c-30.5-0.4-61-0.8-91.5-1.2c-6.8-0.1-6.8-0.1-6.9,6.6c-0.2,86.1-0.5,172.2-0.7,258.3
	c0,0.9,0.1,1.8,0,2.7c-0.2,2,0.5,2.9,2.8,2.9c5.6-0.2,11.3-0.1,16.9-0.1c2,0,4-0.1,6,0.2c4.3,0.7,7.3,4.4,7.2,8.3
	c-0.1,4.1-3.2,7.4-7.5,8c-1.8,0.2-3.6,0.2-5.4,0.2c-18.2,0.1-36.3,0.1-54.5,0.2c-124.2,0.4-248.5,0.8-372.7,1.1
	c-2.2,0-4.4,0.1-6.5-0.5c-3.5-0.9-6-3.9-6.3-7.4c-0.2-3.4,2-6.7,5.3-8.1c1.9-0.8,3.9-0.8,5.9-0.8c5.8,0,11.6,0,17.4,0
	c3.7,0,3.7-0.1,3.8-3.9c0-0.5,0-1.1,0-1.6c0-86.8,0-173.6,0-260.4c0-1.1,0-2.2,0-3.3c0.1-1.6-0.7-2.3-2.2-2.2c-1.3,0.1-2.5,0-3.8,0
	c-28,0.4-55.9,0.8-83.9,1.2c-6.8,0.1-6.1-1-6.1,6.1c0.3,43.2,0.5,86.4,0.8,129.7c0.4,63.9,0.8,127.9,1.2,191.8
	c0,5.8-0.6,5.3,5.2,5.3c0.5,0,1.1,0,1.6,0C241.7,637.6,336.7,637.6,431.7,637.6z M700.9,654.5c-2,0-4,0-5.9,0
	c-185.3,0-370.5,0-555.8,0c-2,0-4,0.1-6-0.1c-5.7-0.4-9.4-3.9-10.1-9.6c-0.2-1.6-0.1-3.3-0.1-4.9c-0.3-54.3-0.6-108.6-1-162.9
	c-0.5-59.8-0.2-119.5-1.2-179.3c-0.1-6.2,3.4-9.6,9.9-9.7c22.7-0.3,45.4-0.6,68.1-0.9c10.4-0.1,20.7-0.3,31.1-0.5
	c4.1-0.1,4.1-0.2,4.1-4.3c0-12.9,0-25.8,0-38.7c0-6.4,0.9-5.7-5.9-5.6c-41.6,0.4-83.2,0.9-124.8,1.1c-7.3,0-12.5,3-16.6,8.5
	c-2.3,3.1-4,6.5-5.3,10.1c-3,7.8-3.6,15.8-3.6,24.1c0.2,138.2,0.3,276.4,0.5,414.7c0,8.3-0.5,6.9,7.1,6.8
	c98.8-0.5,197.6-1.2,296.4-1.7c87.5-0.5,175.1-0.9,262.6-1.2c3.7,0,6-1.2,8.2-3.9c8.2-10,17.7-18.7,27.8-26.7
	C686.9,664.5,694.1,660,700.9,654.5z M636.4,718.1c-2-1.5-3.8-0.9-5.6-0.9c-9.8,0-19.6,0.1-29.4,0.2c-182.9,0.9-365.8,1.8-548.6,2.8
	c-2.2,0-4.4,0.1-6.5,0c-2.4-0.2-3.1,0.8-3.2,3.1c-0.2,9.1-0.6,18.2,0.4,27.2c0.9,8.7,2.2,17.4,6.3,25.2c6,11.6,15.8,19.1,28.9,19.3
	c33.4,0.6,66.8,0.2,100.2,0.4c142,0.5,284,1,426.1,1.6c5.4,0,5.4,0,5.9-4.5c2.7-23.9,9.9-46.4,21.7-67.4
	C633.9,722.7,635.1,720.4,636.4,718.1z M954,816.3c0.1-30.9-4.8-54-12.9-72.6c-29.2-66.5-98.3-103.7-169.8-94.3
	c-38.7,5.1-72.2,21.6-99,50.2c-38.5,41-53.5,89.7-42.2,145c14.7,72,77.7,124,154.2,125.8c26.2,0.6,51.4-4.5,74.8-16.2
	C919.6,923.8,950.8,874.2,954,816.3z M622.9,286.6c2.1,0,3.7,0,5.4,0c24.5,0.4,49,0.7,73.5,1.1c10.7,0.2,21.4,0.3,32.1,0.5
	c6.7,0.1,10,3.6,9.8,10.3c0,1.5-0.1,2.9-0.2,4.4c-0.7,110.4-1.3,220.8-2,331.2c0,1.4-0.5,2.9,0.8,4.2c0.8-0.2,1.7-0.3,2.5-0.6
	c11.4-3.1,23-5.1,34.8-5.9c6.1-0.4,5.7,0.6,5.7-6.2c0.1-110.8,0.3-221.5,0.4-332.3c0-6.4,0.1-12.7-0.2-19.1
	c-0.3-8.3-2.5-16.1-6.7-23.3c-4.4-7.6-10.4-11.7-19.8-11.7c-44.5-0.1-89-0.7-133.5-1.2c-2.7,0-3,0.8-3,3c0,14.7-0.1,29.4-0.1,44.1
	C622.5,285.5,622.7,286,622.9,286.6z"/>
<path class="st1" d="M250.7,575c0-2.6,0-4.6,0-6.6c0-166.3,0-332.7,0-499c0-6.8,0-6.7,7-6.8c114-1.1,228.1-2.3,342.1-3.4
	c7.8-0.1,6.6-0.9,6.6,6.6c-0.6,167.3-1.2,334.5-1.8,501.8c0,6.4,0,6.4-6.3,6.4c-113.5,0.3-227,0.7-340.5,1
	C255.7,575.1,253.5,575,250.7,575z M440.7,138.2c0.1,0,0.1,0,0.2,0c0-3.4,0.1-6.9,0-10.3c-0.2-3.4-2-5.9-5.1-7.1
	c-3.1-1.2-6.1-0.8-8.6,1.6c-1.8,1.7-2.6,3.9-2.8,6.3c-0.3,6-0.8,12-0.9,18c0,3.1-1,4.4-4,5.1c-7,1.7-13.4,4.6-18.5,9.9
	c-6.5,6.7-11.8,14.3-15.3,23c-5.6,13.9-5,30.2,10,42.2c9.5,7.5,19.6,13.7,30.8,18.1c9.5,3.7,18.9,7.5,27.6,12.7
	c5.1,3,10,6.4,12.2,12c5.1,12.9,3.7,25.8-4.5,36.7c-6.6,8.8-16.2,14.3-27.2,17.1c-3.6,0.9-7.3,0.2-10.8,1.2c-3.5,1-6.8,0.7-10.2,0.2
	c-7.8-1.3-15-4.2-21-9.5c-2-1.8-4.2-3.6-6.5-4.9c-3.9-2.3-8.2-1.4-10.8,1.8c-2.7,3.4-2.5,8,1,11.3c10.7,10.2,23,17,37.9,18.4
	c4,0.4,4,0.4,4.3,4.5c0.2,3.8,0.2,7.6,0.5,11.4c0.3,3.5,2.1,6.2,5.5,7.5c3,1.2,5.7,0.6,8.1-1.5c2.3-1.9,3-4.4,2.9-7.3
	c-0.1-4.4-0.1-8.7-0.4-13.1c-0.2-2.3,0.8-3.3,2.9-3.7c9.9-1.7,18.1-7,26.2-12.7c10.3-7.2,16.9-16.9,19.6-29.1
	c5.6-25.7-1.5-44.3-24.3-56.4c-8.8-4.7-18-8.6-27.3-12.2c-10.2-4-19.5-9.5-27.7-16.9c-3.8-3.4-5.6-7.4-5.4-12.5c0.1-3.1,0.7-6.1,2-9
	c2.3-5.4,5.4-10.2,9.1-14.8c3.4-4.1,7.5-6.7,12.6-8.1c12-3.3,23.7-2.9,35,2.6c3.1,1.5,6.4,2.7,10,2.2c3.3-0.4,5.9-2.7,6.6-5.7
	c0.7-3.1-0.5-6-3.5-7.9c-0.9-0.6-1.9-1.1-2.9-1.5c-7.9-3.8-16.2-6.5-24.8-7.7c-3-0.4-3.7-1.6-3.3-4.2
	C440.5,143.3,440.6,140.7,440.7,138.2z M428.3,495.2c0-0.3,0-0.5,0-0.8c-34.3,0-68.6,0-102.9,0c-1.8,0-3.6-0.1-5.4,0
	c-5.3,0.3-8.8,3.7-8.8,8.5c0,4.5,3.4,7.9,8.4,8.3c2.7,0.2,5.4,0,8.2,0c68.1,0.2,136.1,0.4,204.2,0.6c2.2,0,4.4,0.1,6.5-0.3
	c4-0.8,6.8-4.3,6.7-8.1c-0.1-4.1-3.1-7.4-7.4-8c-1.4-0.2-2.9-0.2-4.3-0.2C498.4,495.2,463.4,495.2,428.3,495.2z M426.3,430.2
	c0-0.2,0-0.4,0-0.6c33,0,66.1,0,99.1,0c2.2,0,4.4-0.1,6.5-0.5c4-0.8,6.5-3.8,6.7-7.5c0.2-3.9-2.3-7.2-6.3-8.5c-2-0.6-4-0.5-5.9-0.4
	c-66.4,0.5-132.9,0.9-199.3,1.4c-1.8,0-3.6,0-5.4,0.3c-4.5,0.8-7.2,4-7.2,8.2c0,4.1,2.9,7.4,7.3,8.2c1.8,0.3,3.6,0.2,5.4,0.2
	C360.2,430.8,393.2,430.5,426.3,430.2z"/>
<path class="st1" d="M431.7,637.6c-95,0-190,0-285,0c-0.5,0-1.1,0-1.6,0c-5.8,0-5.2,0.5-5.2-5.3c-0.4-63.9-0.8-127.9-1.2-191.8
	c-0.3-43.2-0.6-86.4-0.8-129.7c0-7.1-0.7-6,6.1-6.1c28-0.4,55.9-0.8,83.9-1.2c1.3,0,2.5,0,3.8,0c1.6-0.1,2.3,0.6,2.2,2.2
	c-0.1,1.1,0,2.2,0,3.3c0,86.8,0,173.6,0,260.4c0,0.5,0,1.1,0,1.6c-0.1,3.9-0.1,3.9-3.8,3.9c-5.8,0.1-11.6,0-17.4,0c-2,0-4,0-5.9,0.8
	c-3.4,1.4-5.6,4.7-5.3,8.1c0.2,3.5,2.8,6.5,6.3,7.4c2.1,0.6,4.3,0.5,6.5,0.5c124.2-0.4,248.5-0.8,372.7-1.1
	c18.2-0.1,36.3-0.1,54.5-0.2c1.8,0,3.6,0,5.4-0.2c4.4-0.6,7.4-3.9,7.5-8c0.1-4-2.9-7.6-7.2-8.3c-2-0.3-4-0.2-6-0.2
	c-5.6,0-11.3-0.1-16.9,0.1c-2.2,0.1-2.9-0.8-2.8-2.9c0.1-0.9,0-1.8,0-2.7c0.2-86.1,0.5-172.2,0.7-258.3c0-6.7,0-6.7,6.9-6.6
	c30.5,0.4,61,0.8,91.5,1.2c1.3,0,2.5,0.1,3.8,0c1.7,0,2.2,0.8,2.2,2.4c0,1.1,0,2.2,0,3.3c-0.7,107.3-1.3,214.7-2,322
	c0,1.1,0,2.2,0,3.3c0,1.3-0.7,2-2,2c-1.6,0-3.3,0-4.9,0C622.4,637.7,527,637.7,431.7,637.6C431.7,637.7,431.7,637.7,431.7,637.6z"/>
<path class="st1" d="M700.9,654.5c-6.8,5.5-14,10-20.6,15.2c-10.2,8-19.6,16.7-27.8,26.7c-2.2,2.8-4.6,3.9-8.2,3.9
	c-87.5,0.3-175.1,0.7-262.6,1.2c-98.8,0.5-197.6,1.2-296.4,1.7c-7.5,0-7.1,1.5-7.1-6.8c-0.2-138.2-0.3-276.4-0.5-414.7
	c0-8.2,0.6-16.3,3.6-24.1c1.4-3.6,3-7,5.3-10.1c4.1-5.6,9.3-8.5,16.6-8.5c41.6-0.2,83.2-0.7,124.8-1.1c6.8-0.1,5.9-0.8,5.9,5.6
	c0,12.9,0,25.8,0,38.7c0,4.1-0.1,4.2-4.1,4.3c-10.3,0.2-20.7,0.3-31.1,0.5c-22.7,0.3-45.4,0.6-68.1,0.9c-6.5,0.1-10,3.5-9.9,9.7
	c1,59.7,0.8,119.5,1.2,179.3c0.4,54.3,0.7,108.6,1,162.9c0,1.6-0.1,3.3,0.1,4.9c0.7,5.6,4.4,9.2,10.1,9.6c2,0.2,4,0.1,6,0.1
	c185.3,0,370.5,0,555.8,0C696.9,654.5,698.9,654.5,700.9,654.5z"/>
<path class="st1" d="M636.4,718.1c-1.3,2.3-2.6,4.7-3.9,7c-11.8,21-19,43.4-21.7,67.4c-0.5,4.6-0.5,4.6-5.9,4.5
	c-142-0.5-284-1.1-426.1-1.6c-33.4-0.1-66.8,0.3-100.2-0.4c-13.1-0.3-22.8-7.7-28.9-19.3c-4.1-7.8-5.4-16.5-6.3-25.2
	c-1-9-0.6-18.1-0.4-27.2c0.1-2.3,0.8-3.3,3.2-3.1c2.2,0.1,4.4,0,6.5,0c182.9-0.9,365.8-1.8,548.6-2.8c9.8,0,19.6-0.2,29.4-0.2
	C632.6,717.2,634.4,716.6,636.4,718.1z"/>
<path class="st1" d="M622.9,286.6c-0.2-0.6-0.4-1.1-0.4-1.6c0-14.7,0.1-29.4,0.1-44.1c0-2.2,0.3-3,3-3c44.5,0.6,89,1.1,133.5,1.2
	c9.4,0,15.4,4.1,19.8,11.7c4.2,7.2,6.3,15,6.7,23.3c0.3,6.3,0.2,12.7,0.2,19.1c-0.1,110.8-0.3,221.5-0.4,332.3
	c0,6.8,0.5,5.8-5.7,6.2c-11.8,0.8-23.4,2.9-34.8,5.9c-0.9,0.2-1.7,0.4-2.5,0.6c-1.3-1.4-0.8-2.9-0.8-4.2
	c0.6-110.4,1.3-220.8,2-331.2c0-1.5,0.1-2.9,0.2-4.4c0.2-6.7-3.1-10.1-9.8-10.3c-10.7-0.2-21.4-0.3-32.1-0.5
	c-24.5-0.4-49-0.7-73.5-1.1C626.6,286.5,625,286.6,622.9,286.6z"/>
<path class="st0" d="M440.7,138.2c-0.2,2.5-0.3,5.1-0.6,7.6c-0.4,2.7,0.3,3.8,3.3,4.2c8.7,1.2,16.9,3.9,24.8,7.7
	c1,0.5,2,0.9,2.9,1.5c2.9,1.9,4.2,4.8,3.5,7.9c-0.7,3-3.3,5.2-6.6,5.7c-3.6,0.5-6.8-0.7-10-2.2c-11.3-5.5-23-5.9-35-2.6
	c-5,1.4-9.2,4-12.6,8.1c-3.7,4.5-6.9,9.4-9.1,14.8c-1.2,2.9-1.8,5.8-2,9c-0.2,5.1,1.6,9.1,5.4,12.5c8.2,7.4,17.5,12.9,27.7,16.9
	c9.3,3.6,18.4,7.5,27.3,12.2c22.8,12.1,29.9,30.7,24.3,56.4c-2.7,12.2-9.3,21.9-19.6,29.1c-8.1,5.7-16.3,11-26.2,12.7
	c-2.1,0.4-3.1,1.3-2.9,3.7c0.3,4.3,0.3,8.7,0.4,13.1c0.1,2.9-0.7,5.4-2.9,7.3c-2.4,2-5.2,2.6-8.1,1.5c-3.4-1.3-5.2-4-5.5-7.5
	c-0.3-3.8-0.3-7.6-0.5-11.4c-0.2-4.1-0.3-4.1-4.3-4.5c-15-1.4-27.3-8.2-37.9-18.4c-3.5-3.3-3.7-7.9-1-11.3c2.6-3.3,6.9-4.1,10.8-1.8
	c2.3,1.4,4.5,3.1,6.5,4.9c6,5.4,13.2,8.2,21,9.5c3.4,0.6,6.8,0.8,10.2-0.2c3.5-1,7.2-0.3,10.8-1.2c11-2.7,20.6-8.3,27.2-17.1
	c8.2-10.9,9.6-23.8,4.5-36.7c-2.2-5.6-7.2-9-12.2-12c-8.8-5.2-18.2-9-27.6-12.7c-11.3-4.4-21.3-10.6-30.8-18.1
	c-15-12-15.6-28.2-10-42.2c3.5-8.7,8.8-16.3,15.3-23c5.1-5.3,11.5-8.2,18.5-9.9c3-0.7,4-2.1,4-5.1c0-6,0.5-12,0.9-18
	c0.1-2.5,0.9-4.6,2.8-6.3c2.5-2.3,5.6-2.8,8.6-1.6c3.1,1.2,5,3.7,5.1,7.1c0.2,3.4,0,6.9,0,10.3C440.9,138.2,440.8,138.2,440.7,138.2
	z"/>
<path class="st0" d="M428.3,495.2c35,0,70.1,0,105.1,0c1.5,0,2.9,0,4.3,0.2c4.4,0.6,7.4,3.9,7.4,8c0,3.8-2.7,7.4-6.7,8.1
	c-2.1,0.4-4.3,0.3-6.5,0.3c-68.1-0.2-136.1-0.4-204.2-0.6c-2.7,0-5.5,0.2-8.2,0c-5-0.3-8.4-3.8-8.4-8.3c0-4.7,3.5-8.2,8.8-8.5
	c1.8-0.1,3.6,0,5.4,0c34.3,0,68.6,0,102.9,0C428.3,494.7,428.3,494.9,428.3,495.2z"/>
<path class="st0" d="M426.3,430.2c-33,0.3-66.1,0.6-99.1,0.8c-1.8,0-3.7,0.1-5.4-0.2c-4.4-0.7-7.3-4-7.3-8.2c0-4.2,2.7-7.4,7.2-8.2
	c1.8-0.3,3.6-0.3,5.4-0.3c66.4-0.5,132.9-0.9,199.3-1.4c2,0,4-0.2,5.9,0.4c4,1.2,6.6,4.6,6.3,8.5c-0.2,3.7-2.8,6.7-6.7,7.5
	c-2.1,0.4-4.3,0.5-6.5,0.5c-33,0-66.1,0-99.1,0C426.3,429.9,426.3,430.1,426.3,430.2z"/>
<path class="st2" d="M792.1,944.3c-66.2,0.1-121.8-46.2-133-109.3c-10.5-59.1,20-119.1,74.7-145.3c41.7-20,83.8-19.6,124.5,2.3
	c36.2,19.5,58.6,50.4,66.5,90.9c14.3,73.3-34.5,145.2-110.4,159.2C806.5,943.5,798.5,944.1,792.1,944.3z M791.3,927.2
	c7.7,0.3,16.5-0.8,25.2-2.8c61.6-14.1,99.9-71.2,93.2-128.4c-5.1-43.5-27.9-75-67.6-93.3c-30.9-14.3-62.6-13.9-94.1-1.2
	c-51.1,20.5-81.9,76-72.4,130C685.4,887.2,733.2,927.2,791.3,927.2z"/>
<path class="st2" d="M792.6,859c-8.2,8.5-15.7,16.2-23.2,23.8c-2.4,2.5-4.9,4.8-7.6,7c-4.9,4.2-10.1,4.3-15.6,0.9
	c-1.9-1.2-3.6-2.5-5.1-4C732.1,877.8,723,869,714,860c-6.2-6.1-6.6-10.5-2.2-18c1.9-3.1,4.2-5.9,6.7-8.5c7-7.1,13.9-14.3,20.9-21.5
	c3.1-3.2,3.1-3.2,0-6.3c-8.1-8-16.5-15.9-24.4-24.1c-8.2-8.6-8-14.9,0.3-23.6c9-9.3,18-18.4,27.1-27.6c5.9-5.9,10-6.3,17-2.2
	c3.3,1.9,6.3,4.3,9,7c6.9,6.7,13.8,13.4,20.7,20.2c4,3.9,3.2,4.1,7.5-0.2c7.1-7.2,14.2-14.6,21.3-21.8c2.4-2.4,5-4.7,7.7-6.9
	c4.5-3.6,9.3-3.6,14.2-0.8c2.2,1.3,4.2,2.8,6,4.6c8.9,8.8,17.8,17.6,26.7,26.5c6.4,6.4,6.8,10.6,2.1,18.3c-1.9,3.1-4.2,5.9-6.8,8.5
	c-7.6,7.8-15.2,15.6-22.9,23.3c-2.1,2-2,3.2,0.1,5.2c8.6,8.4,17,16.9,25.4,25.4c0.4,0.4,0.8,0.8,1.1,1.2c6.6,7.7,6.8,13.8-0.2,21.2
	c-9.8,10.2-19.9,20.2-30.1,30c-4.5,4.3-8.8,4.5-14.5,1.5c-3.9-2.1-7.3-4.8-10.4-7.9C808.8,875.5,800.9,867.4,792.6,859z
	 M792.4,839.3c3.5,0.3,6.4,2.6,9,5.1c5.1,4.9,10.1,10,15.1,15c3.9,3.8,7.6,7.8,11.6,11.5c3.3,3,5.5,3,8.5,0
	c5.8-5.7,11.6-11.5,17.3-17.3c3.1-3.2,3.2-5,0.3-8.5c-2.3-2.6-4.8-5-7.2-7.4c-6.7-6.7-13.4-13.3-20.1-20c-4.5-4.6-4.6-7.5-1.5-13.1
	c2.1-3.7,4.9-6.7,7.8-9.7c7.2-7.4,14.6-14.7,21.7-22.2c3.7-3.9,3.7-6,0-9.7c-5.5-5.5-11-11-16.7-16.5c-3.5-3.4-5.2-3.4-8.9-0.3
	c-1,0.8-1.8,1.8-2.7,2.7c-7.8,7.9-15.5,15.8-23.3,23.7c-6.8,6.9-13.4,7-20.3,0.4c-7.8-7.6-15.6-15.2-23.4-22.8
	c-1.2-1.1-2.3-2.3-3.7-3.2c-2-1.3-4.1-1.6-6,0.2c-6.4,6.4-12.8,12.9-19.1,19.4c-1.9,2-1.8,4.3-0.1,6.4c1,1.3,2.1,2.5,3.3,3.6
	c7.6,7.5,15.3,15,23,22.5c7.9,7.7,7.9,10.9,0.1,18.9c-8.2,8.5-16.5,16.9-24.7,25.4c-4.5,4.7-4.5,6.4,0.1,10.8
	c4.5,4.5,9.1,8.9,13.6,13.4c6.8,6.7,7.6,6.7,14.4-0.2c7.9-8,15.7-16.1,23.6-24.2C786.3,841.2,788.6,839.3,792.4,839.3z"/>
<path class="st3" d="M34.9,340.8L58.1,364c5.5,5.5,14.4,5.5,19.9,0l23.2-23.2c5.5-5.5,5.5-14.4,0-19.9L78,297.7
	c-5.5-5.5-14.4-5.5-19.9,0l-23.2,23.2C29.4,326.4,29.4,335.3,34.9,340.8z"/>
<path class="st3" d="M34.9,408.4l23.2,23.2c5.5,5.5,14.4,5.5,19.9,0l23.2-23.2c5.5-5.5,5.5-14.4,0-19.9L78,365.3
	c-5.5-5.5-14.4-5.5-19.9,0l-23.2,23.2C29.4,394,29.4,402.9,34.9,408.4z"/>
<path class="st2" d="M654.7,945l18.2,18.2c2.7,2.7,7,2.7,9.6,0l18.2-18.2c2.7-2.7,2.7-7,0-9.6l-18.2-18.2c-2.7-2.7-7-2.7-9.6,0
	l-18.2,18.2C652,938,652,942.3,654.7,945z"/>
<circle class="st4" cx="791.4" cy="808.7" r="171"/>
</svg>
