<?xml version="1.0" encoding="utf-8"?>
<!-- Generator: Adobe Illustrator 28.0.0, SVG Export Plug-In . SVG Version: 6.00 Build 0)  -->
<svg version="1.1" id="Capa_1" xmlns="http://www.w3.org/2000/svg" xmlns:xlink="http://www.w3.org/1999/xlink" x="0px" y="0px"
	 viewBox="0 0 633 633" style="enable-background:new 0 0 633 633;" xml:space="preserve">
<style type="text/css">
	.st0{fill:#060707;}
	.st1{fill:#FEFEFE;}
	.st2{fill:#29E4A5;}
	.st3{fill:#6EE1EB;}
	.st4{fill:none;stroke:#29E4A5;stroke-width:14;stroke-miterlimit:10;}
</style>
<path class="st0" d="M331.3,486.1c0.1-1.7,0.2-4.8,0.5-7.9c0.1-1-0.1-1.6-0.8-2.3c-19.6-20.1-39.2-40.1-58.7-60.2
	c-0.7-0.7-1.2-0.8-2.2-0.6c-20.5,4.2-41.1,8.4-61.6,12.5c-20.4,4.1-40.8,8.3-61.1,12.4c-3.2,0.6-6.3,1.3-9.5,1.9
	c-4.3,0.8-7.2-2-6.3-6.3c3.5-16.9,7-33.8,10.5-50.7c3.3-15.6,6.5-31.3,9.8-46.9c1.9-9.2,3.8-18.3,5.7-27.5c0.6-2.8,0.5-5.7,0.8-8.6
	c0.1-0.8-0.6-1.2-1-1.6c-14.7-14.9-29.4-29.8-44.2-44.7c-17.2-17.4-34.4-34.8-51.7-52.2c-1.4-1.4-2.4-2.8-2-4.9
	c0.2-1.5,1-2.5,2.6-2.9c11.9-3.3,23.6-7.2,35.4-11c47.9-15.1,95.8-30.2,143.7-45.3c54.5-17.2,108.9-34.4,163.4-51.6
	c35.6-11.2,71.2-22.5,106.7-33.7c2.4-0.8,4.8-1.5,7.3-1.7c3.9-0.4,5.8,2.1,4.7,5.8c-3.8,11.9-7.6,23.9-11.3,35.8
	c-18.6,58.9-37.2,117.8-55.8,176.8c-12,38.1-24,76.1-36.1,114.2c-0.5,1.7-0.5,1.7,1.2,1.5c8.4-1.1,16.8-1.1,25.2-0.3
	c3,0.3,6,0.5,8.9,1.2c15.2,3.6,29.4,9.5,41.8,19.2c19.4,15.2,31.8,34.9,36.6,59.1c4,19.8,2,39.1-5.8,57.7
	c-10.4,24.9-28.1,43.1-52.6,54.5c-16.8,7.8-34.5,11-53,9.2c-25.3-2.4-46.9-12.8-64.6-31.3c-3.3-3.4-6.4-7-9-10.9
	c-8.2-12.1-13.8-25.2-16.3-39.6C331.7,499.3,331.2,493.4,331.3,486.1z M495,80.9c-0.7-0.1-1,0.4-1.5,0.7
	c-19.5,13.4-39,26.9-58.5,40.3c-30.5,21-61,42.1-91.5,63.1c-33.8,23.3-67.6,46.6-101.4,69.9c-24.4,16.8-48.7,33.6-73.1,50.4
	c-0.7,0.5-1.1,1-1.2,1.8c-1.1,5.3-2.2,10.6-3.3,15.8c-4.7,22.7-9.4,45.3-14.1,68c-2.7,13-5.4,25.9-8.1,38.9
	c-0.2,1.1-0.2,1.6,1.2,1.3c16.8-3.5,33.7-6.9,50.6-10.3c22.9-4.7,45.9-9.4,68.8-14c3.2-0.6,5.5-1.9,7.5-4.7
	c25.5-36.7,51.3-73.3,76.9-109.9c21.9-31.2,43.8-62.5,65.7-93.7c27.2-38.8,54.4-77.6,81.6-116.4C494.8,81.8,495.3,81.5,495,80.9z
	 M73.7,202c0.1,0.7,0.6,0.9,1,1.3c20.2,20.5,40.5,41,60.7,61.5c9.9,10,19.8,20,29.7,30.1c0.8,0.8,1.3,0.9,2.3,0.2
	c1.5-1.2,3.2-2.2,4.8-3.4c38.8-26.8,77.7-53.6,116.5-80.4c33.8-23.3,67.6-46.6,101.4-69.9c33.1-22.8,66.3-45.7,99.4-68.5
	c1.4-1,2.9-2,4.3-3c-0.1-0.1-0.1-0.3-0.2-0.4C353.6,113.7,213.7,157.8,73.7,202z M505.1,84.2c-0.1,0-0.2-0.1-0.3-0.1
	c-4.4,6.2-8.7,12.4-13.1,18.7c-24.9,35.6-49.9,71.1-74.8,106.7c-21.1,30.1-42.2,60.2-63.3,90.3c-25,35.6-49.9,71.2-74.9,106.8
	c-0.7,1-0.7,1.6,0.2,2.5c18,18.4,35.9,36.8,53.9,55.2c0.3,0.3,0.5,0.8,1.1,0.8c0.1-0.3,0.2-0.6,0.2-0.9c2.3-8.9,5.5-17.3,10-25.4
	c7.4-13.3,17.3-24.4,29.6-33.3c10.3-7.6,21.8-12.9,34.1-16.3c0.9-0.2,1.3-0.7,1.6-1.6c14.5-45.9,29-91.8,43.5-137.7
	c16.7-53,33.5-106,50.2-159C503.7,88.6,504.4,86.4,505.1,84.2z M440,395c-21,0-36.1,3.9-50.2,11.5c-6.7,3.6-12.9,8-18.6,13.2
	c-30.3,27.5-39.1,71.2-21.6,107.2c9.9,20.4,25.5,35,46.3,43.8c15.9,6.7,32.5,8.7,49.6,6.2c17.2-2.5,32.6-9.1,46-20.1
	c20-16.3,31.7-37.3,34.3-63.1c2-19.4-1.8-37.7-11.9-54.3C495.9,410.2,469.1,396.2,440,395z"/>
<path class="st1" d="M495,80.9c0.2,0.6-0.2,1-0.5,1.4c-27.2,38.8-54.4,77.6-81.6,116.4c-21.9,31.2-43.8,62.5-65.7,93.7
	c-25.7,36.6-51.4,73.2-76.9,109.9c-2,2.9-4.2,4.1-7.5,4.7c-23,4.6-45.9,9.3-68.8,14c-16.9,3.4-33.7,6.8-50.6,10.3
	c-1.4,0.3-1.4-0.2-1.2-1.3c2.7-13,5.4-25.9,8.1-38.9c4.7-22.7,9.4-45.3,14.1-68c1.1-5.3,2.2-10.5,3.3-15.8c0.2-0.8,0.6-1.4,1.2-1.8
	c24.4-16.8,48.8-33.6,73.1-50.4c33.8-23.3,67.6-46.6,101.4-69.9c30.5-21,61-42.1,91.5-63.1c19.5-13.4,39-26.9,58.5-40.3
	C494,81.2,494.4,80.7,495,80.9z"/>
<path class="st1" d="M73.7,202c140-44.2,280-88.3,420-132.5c0.1,0.1,0.1,0.3,0.2,0.4c-1.4,1-2.9,2-4.3,3
	c-33.1,22.8-66.3,45.7-99.4,68.5c-33.8,23.3-67.6,46.6-101.4,69.9c-38.8,26.8-77.7,53.6-116.5,80.4c-1.6,1.1-3.3,2.2-4.8,3.4
	c-0.9,0.7-1.5,0.6-2.3-0.2c-9.9-10.1-19.8-20.1-29.7-30.1c-20.3-20.5-40.5-41-60.7-61.5C74.3,203,73.8,202.7,73.7,202z"/>
<path class="st1" d="M505.1,84.2c-0.7,2.2-1.4,4.5-2.1,6.7c-16.7,53-33.5,106-50.2,159c-14.5,45.9-29,91.8-43.5,137.7
	c-0.3,0.9-0.7,1.3-1.6,1.6c-12.3,3.4-23.8,8.7-34.1,16.3c-12.2,9-22.1,20-29.6,33.3c-4.5,8-7.7,16.5-10,25.4
	c-0.1,0.3-0.2,0.6-0.2,0.9c-0.6,0-0.8-0.5-1.1-0.8c-18-18.4-35.9-36.8-53.9-55.2c-0.9-0.9-0.9-1.5-0.2-2.5
	c25-35.6,50-71.2,74.9-106.8c21.1-30.1,42.2-60.2,63.3-90.3c24.9-35.6,49.9-71.1,74.8-106.7c4.4-6.2,8.7-12.4,13.1-18.7
	C504.9,84.1,505,84.1,505.1,84.2z"/>
<path class="st2" d="M358,484.2c1.5-28.2,15.8-52.1,44.8-66.1c21.4-10.4,43.4-10.4,65-0.3c22.1,10.3,36.2,27.7,41.5,51.5
	c7.6,34.3-8.4,68.2-39.6,84.9c-31.4,16.8-70.4,9.6-93.6-17.4C364.1,522.7,358.3,506.3,358,484.2z M435.7,420
	c-5.2,0.1-10.2,0.6-15.2,1.8c-21.5,5.3-37.3,17.8-46.6,37.8c-8.6,18.4-8.8,37.3-0.2,55.8c16,34.7,56.9,47.7,90.1,31
	c21.5-10.8,34.1-28.5,37.4-52.5c1.8-12.9-0.1-25.4-6.1-37C482.7,432.9,462.4,421.2,435.7,420z"/>
<path class="st2" d="M396,470.1c2.9,0,4.9,0.8,6.7,2.3c5,4.1,9.3,8.8,14,13.3c1.5,1.4,1.5,1.4,2.9,0c12-12,23.9-24.1,36.2-35.8
	c1.8-1.7,3.5-3.4,5.4-4.9c4.3-3.3,10.3-2.9,14,0.9c3.3,3.4,6.7,6.8,9.9,10.4c3.7,4.1,6,8.7,4.5,14.5c-0.7,2.7-2.3,4.8-4.2,6.7
	c-4.4,4.4-9,8.8-13.4,13.3c-10.3,10.7-21.1,20.9-31.4,31.6c-4.2,4.4-8.8,8.3-13.3,12.4c-2,1.8-4.2,3.1-6.7,4.1
	c-3,1.2-5.8,0.9-8.6-0.8c-3.5-2.2-6.5-4.9-9.2-7.9c-7.5-8.1-15.5-15.6-22.9-23.8c-2.2-2.4-4.3-5-5.8-7.9c-2.2-4.2-2-8.1,1.1-11.7
	c3.8-4.4,7.7-8.6,12.1-12.3C389.9,472,393,470.4,396,470.1z M416.4,528.6c2.4-0.1,4.3-0.8,6-2c2.4-1.6,4.6-3.6,6.6-5.8
	c8.6-9.5,18.2-18.1,27-27.5c2.1-2.3,4.4-4.4,6.7-6.6c5.6-5.6,11.2-11.2,16.9-16.7c1.8-1.8,2.2-3.8,0.6-5.8c-1.1-1.4-2.3-2.7-3.6-4
	c-2.4-2.5-4.8-4.9-7.3-7.3c-1.4-1.3-2.1-1.3-3.7-0.3c-0.5,0.3-0.9,0.6-1.3,1c-4,3.8-7.7,8-11.6,12c-7.5,7.8-15.5,15.2-22.9,23.1
	c-5,5.3-9.8,10.6-15.1,15.6c-2.2,2.1-5,2.2-6.9,0.3c-1.9-1.9-1.8-4.7,0.2-6.9c0.9-1.1,2-2,2.9-3.2c0.4-0.6,0.5-0.9-0.1-1.3
	c-4-3.9-7.9-7.8-11.9-11.6c-1.9-1.9-3.8-2.1-5.9-0.5c-4,2.9-7.5,6.4-10.6,10.2c-0.7,0.9-1,2-0.4,3.2c1.3,2.9,3.4,5.3,5.5,7.5
	c8,8.2,16,16.3,24.1,24.3C412.9,527.5,414.4,528.7,416.4,528.6z"/>
<path class="st3" d="M143.3,307.9l12.2,12.2c2.9,2.9,7.6,2.9,10.5,0l12.2-12.2c2.9-2.9,2.9-7.6,0-10.5l-12.2-12.2
	c-2.9-2.9-7.6-2.9-10.5,0l-12.2,12.2C140.4,300.3,140.4,305,143.3,307.9z"/>
<path class="st3" d="M138.7,341.3l12.2,12.2c2.9,2.9,7.6,2.9,10.5,0l12.2-12.2c2.9-2.9,2.9-7.6,0-10.5l-12.2-12.2
	c-2.9-2.9-7.6-2.9-10.5,0l-12.2,12.2C135.8,333.7,135.8,338.4,138.7,341.3z"/>
<path class="st2" d="M360.4,566.6l10.3,10.3c1.5,1.5,3.9,1.5,5.4,0l10.3-10.3c1.5-1.5,1.5-3.9,0-5.4l-10.3-10.3
	c-1.5-1.5-3.9-1.5-5.4,0l-10.3,10.3C358.9,562.6,358.9,565.1,360.4,566.6z"/>
<path class="st2" d="M427.9,518.3l9.6,9.6c1.4,1.4,3.7,1.4,5.1,0l9.6-9.6c1.4-1.4,1.4-3.7,0-5.1l-9.6-9.6c-1.4-1.4-3.7-1.4-5.1,0
	l-9.6,9.6C426.5,514.6,426.5,516.9,427.9,518.3z"/>
<circle class="st4" cx="433.6" cy="486.5" r="97.5"/>
</svg>
