<?xml version="1.0" encoding="utf-8"?>
<!-- Generator: Adobe Illustrator 28.0.0, SVG Export Plug-In . SVG Version: 6.00 Build 0)  -->
<svg version="1.1" id="Capa_1" xmlns="http://www.w3.org/2000/svg" xmlns:xlink="http://www.w3.org/1999/xlink" x="0px" y="0px"
	 viewBox="0 0 632.1 632.1" style="enable-background:new 0 0 632.1 632.1;" xml:space="preserve">
<style type="text/css">
	.st0{fill:#060707;}
	.st1{fill:#FEFEFE;}
	.st2{fill:#FF5500;}
	.st3{fill:#6EE1EB;}
	.st4{fill:none;stroke:#FF5500;stroke-width:14;stroke-miterlimit:10;}
</style>
<path class="st0" d="M531.9,475.4c-0.1,9.4-1.1,18.4-3.7,27.1c-8.8,29.5-27,51.4-54.5,65.3c-16.3,8.3-33.8,12-52.1,10.9
	c-27.3-1.6-50.6-12.2-69.5-32c-3.3-3.5-6.4-7.1-9.1-11.1c-6.3-9.3-11.1-19.4-14.2-30.2c-3.4-12-4.3-24.2-3.2-36.6
	c0.1-1-0.2-1.6-0.9-2.3c-18.7-19.1-37.3-38.3-56-57.4c-1.1-1.1-2.2-2.4-3.2-3.6c-0.5-0.6-1.1-0.8-1.9-0.6
	c-35.8,7.3-71.5,14.6-107.3,21.8c-8.9,1.8-17.7,3.6-26.6,5.4c-4.7,1-7.5-2-6.6-6.6c6.8-32.9,13.7-65.9,20.5-98.8
	c1.9-9.1,3.8-18.1,5.7-27.2c0.6-2.9,0.5-5.8,0.8-8.7c0.1-0.8-0.5-1.2-1-1.7c-11.7-11.9-23.5-23.8-35.3-35.7
	c-8.2-8.3-16.6-16.5-24.7-25c-12.1-12.7-24.6-24.9-36.8-37.4c-1.4-1.4-2.5-3-2.1-5.1c0.3-1.5,1-2.4,2.5-2.8c9.4-2.6,18.7-5.7,28-8.6
	c48.8-15.4,97.5-30.9,146.3-46.1c12.9-4,25.9-8,38.8-12.1c59.9-18.9,119.7-37.7,179.6-56.7c21.1-6.7,42.2-13.4,63.3-20
	c1.9-0.6,3.8-1,5.8-1.2c3.6-0.3,5.6,2.3,4.5,5.7c-3.9,12.2-7.7,24.4-11.6,36.6c-4.9,15.4-9.7,30.7-14.5,46.1
	c-15.1,47.9-30.4,95.7-45.3,143.6c-4.4,14.2-8.8,28.4-13.2,42.5c-6.5,20.6-13,41.2-19.6,61.8c-0.4,1.3-0.4,1.7,1.1,1.5
	c8.6-1.2,17.1-1.2,25.7-0.4c3.2,0.3,6.3,0.6,9.4,1.3c15.1,3.8,29.2,9.6,41.5,19.3c19.7,15.4,32.2,35.4,37.2,59.9
	C531.3,462.5,531.8,469.1,531.9,475.4z M490.6,67.1c-0.6,0-1,0.4-1.5,0.7c-14.8,10.3-29.6,20.4-44.4,30.7
	c-14.4,10.1-29,19.9-43.5,29.8c-45.1,31-90.2,62-135.2,93.3c-34.1,23.7-68.3,47.2-102.6,70.7c-2.5,1.7-4.1,3.5-4.3,6.5
	c0,0.7-0.3,1.4-0.4,2.1c-4.1,19.6-8.2,39.2-12.3,58.8c-4.2,20-8.3,40-12.5,60c-0.4,1.7-0.3,1.7,1.5,1.4c19.8-4,39.5-8.1,59.3-12.1
	c21.4-4.4,42.8-8.7,64.2-13c1.6-0.3,2.6-1.1,3.4-2.4c1.8-3,3.8-5.9,5.8-8.8c16.7-23.8,33.3-47.7,50.1-71.4
	c20.8-29.3,41.3-58.9,62-88.3c23-32.8,45.9-65.5,68.8-98.3c13.6-19.4,27.2-38.9,40.9-58.3C490.4,68.1,490.8,67.7,490.6,67.1z
	 M489.5,56c-0.9-0.4-1.4,0-2,0.2c-13.8,4.4-27.5,8.8-41.3,13.1c-62.3,19.6-124.6,39.4-187,58.9c-57.8,18-115.6,36.5-173.3,54.7
	c-6.6,2.1-13.3,4.2-19.9,6.3c-1.2,0.4-1.1,0.6-0.3,1.4c7.7,8,15.6,15.9,23.4,23.9c22.4,23,45.1,45.7,67.6,68.5
	c1.6,1.6,1.6,1.6,3.6,0.3c36.2-25.2,72.6-50.1,108.9-75.3c39.2-27.2,78.3-54.3,117.8-81.1c20.7-14,41.3-28.2,61.7-42.7
	c7.4-5.2,14.9-10.3,22.3-15.4C477,64.5,483.2,60.3,489.5,56z M500.5,70.3c-0.2,0.2-0.3,0.4-0.5,0.6c-13.8,19.5-27.3,39.3-41.3,58.7
	c-4.2,5.9-8.2,11.9-12.3,17.8c-12.6,18.3-25.4,36.4-38.2,54.6c-26.5,37.7-52.8,75.6-79.5,113.2c-19.1,26.9-37.9,54-56.9,81
	c-0.7,1-0.7,1.6,0.2,2.6c18.2,18.6,36.4,37.3,54.6,55.9c0.3,0.3,0.5,0.8,1.2,0.8c0.1-0.3,0.2-0.6,0.2-0.9c2.3-8.9,5.5-17.5,10-25.5
	c7.5-13.5,17.6-24.8,30-33.9c10.4-7.7,22-13.1,34.5-16.5c0.9-0.2,1.3-0.7,1.6-1.6c6.7-21.4,13.6-42.7,20.3-64.1
	c7.7-24.7,15.6-49.4,23.2-74.2c11.5-37.6,23.6-74.9,35.5-112.4c5.8-18.2,11.5-36.5,17.3-54.7C500.5,71.4,500.9,70.9,500.5,70.3z
	 M435.5,384.6c-21.5,0-36.9,3.7-51.1,11.7c-28.3,15.9-45,40-49.1,72.3c-2.2,17.6,0.7,34.4,8.9,50.1c15.4,29.5,40.1,46,73,50
	c18.4,2.2,36.2-1.2,52.6-9.8c29.9-15.7,47.6-40.3,51.8-74c2.3-18.9-1.4-36.9-10.9-53.4C492.8,400.8,465.4,386.1,435.5,384.6z"/>
<path class="st1" d="M490.6,67.1c0.3,0.7-0.2,1-0.5,1.4c-13.6,19.4-27.2,38.9-40.9,58.3c-23,32.8-45.9,65.5-68.8,98.3
	c-20.6,29.5-41.2,59-62,88.3c-16.8,23.7-33.5,47.6-50.1,71.4c-2,2.9-4,5.8-5.8,8.8c-0.8,1.3-1.8,2.1-3.4,2.4
	c-21.4,4.3-42.8,8.7-64.2,13c-19.8,4-39.5,8.1-59.3,12.1c-1.8,0.4-1.8,0.3-1.5-1.4c4.2-20,8.3-40,12.5-60
	c4.1-19.6,8.2-39.2,12.3-58.8c0.1-0.7,0.4-1.4,0.4-2.1c0.1-3,1.8-4.8,4.3-6.5c34.2-23.5,68.5-47,102.6-70.7
	c44.9-31.3,90-62.3,135.2-93.3c14.5-9.9,29.1-19.8,43.5-29.8c14.7-10.3,29.6-20.4,44.4-30.7C489.5,67.5,489.9,67.1,490.6,67.1z"/>
<path class="st1" d="M489.5,56c-6.3,4.3-12.4,8.6-18.5,12.8c-7.5,5.1-15,10.2-22.3,15.4c-20.4,14.5-41,28.7-61.7,42.7
	c-39.5,26.7-78.6,53.9-117.8,81.1c-36.3,25.1-72.7,50.1-108.9,75.3c-2,1.4-2,1.4-3.6-0.3c-22.6-22.8-45.2-45.6-67.6-68.5
	c-7.8-8-15.6-15.9-23.4-23.9c-0.8-0.8-0.8-1.1,0.3-1.4c6.7-2,13.3-4.2,19.9-6.3c57.8-18.3,115.5-36.7,173.3-54.7
	c62.4-19.4,124.7-39.3,187-58.9c13.8-4.3,27.5-8.7,41.3-13.1C488,56,488.6,55.6,489.5,56z"/>
<path class="st1" d="M500.5,70.3c0.4,0.6,0,1.1-0.1,1.5c-5.7,18.2-11.5,36.5-17.3,54.7c-11.9,37.4-24,74.8-35.5,112.4
	c-7.6,24.8-15.5,49.5-23.2,74.2c-6.7,21.4-13.5,42.7-20.3,64.1c-0.3,0.9-0.7,1.3-1.6,1.6c-12.5,3.4-24.1,8.8-34.5,16.5
	c-12.4,9.1-22.5,20.4-30,33.9c-4.5,8.1-7.7,16.6-10,25.5c-0.1,0.3-0.2,0.6-0.2,0.9c-0.6,0-0.9-0.5-1.2-0.8
	c-18.2-18.6-36.4-37.3-54.6-55.9c-0.9-0.9-0.9-1.5-0.2-2.6c19-27,37.8-54.1,56.9-81c26.7-37.6,53-75.5,79.5-113.2
	c12.8-18.2,25.6-36.3,38.2-54.6c4.1-6,8.1-12,12.3-17.8c14-19.4,27.5-39.2,41.3-58.7C500.2,70.7,500.3,70.5,500.5,70.3z"/>
<path class="st2" d="M352.2,473.4c1.6-27.3,16.2-51.1,45.3-65.5c15.3-7.5,31.7-9.6,48.4-5.9c25.1,5.5,43.5,19.8,54.2,43.3
	c8.5,18.5,9.2,37.6,2.3,56.7c-7.5,20.6-21.4,35.8-41.4,45.1c-12.9,6-26.4,8.4-40.4,6.7c-26.5-3.3-46.5-16.5-59.4-40
	C355,502.8,352.2,490.9,352.2,473.4z M429.6,410c-3.8,0-9,0.5-14.1,1.7c-21.7,5.4-37.8,18-47.2,38.3c-9,19.6-8.9,39.4,1.1,58.6
	c15.1,28.8,48.1,42.5,79.1,32.8c20.5-6.4,35-19.7,43.6-39.2c5.3-12,6.5-24.7,4.2-37.6C490.5,433.1,463,410.1,429.6,410z"/>
<path class="st2" d="M452.4,525.1c-1.6-0.1-3.5-1.1-5.2-2.5c-5.5-4.7-10.4-10.1-15.6-15.1c-1.9-1.9-1.9-1.9-3.8,0
	c-4,4.1-7.9,8.3-11.9,12.4c-1.5,1.5-3.1,3.1-5,4.2c-1.9,1.1-3.8,1.2-5.8,0.4c-1.6-0.7-3.1-1.6-4.4-2.9c-5.3-5.2-10.6-10.4-15.8-15.5
	c-3.6-3.5-3.8-5.6-1.2-9.9c1-1.7,2.2-3.3,3.6-4.7c4.3-4.4,8.6-8.9,13-13.3c0.7-0.8,1-1.2,0.1-2.1c-4.4-4.2-8.7-8.3-13-12.6
	c-1.5-1.5-3.1-3.1-4.2-5c-1.2-2.1-1.3-4.1-0.3-6.3c0.7-1.5,1.6-2.9,2.8-4.1c5.2-5.3,10.4-10.6,15.6-15.8c3.5-3.5,5.9-3.8,10.2-1.3
	c1.8,1,3.3,2.3,4.8,3.7c4.4,4.3,8.7,8.5,13.1,12.8c0.8,0.8,1.3,0.8,2.1,0c4.6-4.8,9.1-9.6,13.9-14.2c1.5-1.4,2.7-3.1,4.6-4.1
	c2-1.1,3.9-1.2,6-0.3c1.6,0.7,3,1.6,4.3,2.8c5.3,5.3,10.7,10.5,16,15.8c3.2,3.2,3.5,5.7,1.3,9.7c-1.1,1.9-2.4,3.5-3.9,5.1
	c-4.6,4.7-9.3,9.5-13.9,14.1c-0.8,0.8-0.9,1.2,0,2.1c4.5,4.4,9,8.8,13.5,13.3c1.6,1.6,3.2,3.3,4.3,5.3c1.2,2.3,1,4.5-0.4,6.6
	c-1.1,1.7-2.4,3.1-3.8,4.5c-4.8,4.8-9.6,9.6-14.4,14.3C456.9,523.9,455.2,525.1,452.4,525.1z M467,453c0.1-0.8-0.5-1.4-1.1-1.9
	c-3.4-3.3-6.7-6.7-10.1-10c-1.9-1.9-3-1.9-5-0.2c-1.5,1.4-2.8,2.9-4.2,4.4c-3.8,4-7.7,8-11.6,11.8c-2.6,2.6-7,2.5-9.6,0.1
	c-1.2-1.1-2.3-2.2-3.5-3.4c-4-3.9-7.9-7.7-11.9-11.6c-2.1-2-3.4-2-5.4,0c-2.9,2.9-5.7,5.8-8.6,8.7c-3.2,3.2-3.2,4,0,7.2
	c5,4.8,9.9,9.7,14.9,14.5c2.6,2.5,2.6,5.2,0.1,7.8c-1.5,1.6-3,3.2-4.6,4.7c-3.9,4-7.8,8-11.6,12c-1.9,2-2,3.4,0.1,5.2
	c3.3,2.8,6.2,6,9.4,8.9c2.5,2.4,3.5,2.4,6,0c0.2-0.2,0.4-0.4,0.6-0.6c4.8-4.9,9.7-9.7,14.5-14.6c0.3-0.3,0.6-0.6,0.9-0.8
	c1.8-1.4,3.7-1.5,5.7-0.4c0.8,0.5,1.7,1.1,2.4,1.7c2.8,2.6,5.4,5.3,8.2,7.9c2.5,2.3,4.7,4.9,7.1,7.3c2,2,3.3,2,5.3,0
	c2.5-2.5,5-5,7.5-7.5c0.4-0.4,0.8-0.7,1.2-1c3-2.1,3.2-3.8,0.6-6.5c-3-3-6-6-9.1-9.1c-2.1-2.1-4.3-4.2-6.4-6.4
	c-1.7-1.8-2.2-4.1-1.2-5.9c1.1-1.8,2-3.6,3.5-5.1c4.8-4.7,9.4-9.6,14.1-14.4C466.3,455.3,467,454.4,467,453z"/>
<path class="st3" d="M137.8,300l12.2,12.2c2.9,2.9,7.6,2.9,10.5,0l12.2-12.2c2.9-2.9,2.9-7.6,0-10.5l-12.2-12.2
	c-2.9-2.9-7.6-2.9-10.5,0l-12.2,12.2C134.9,292.4,134.9,297.1,137.8,300z"/>
<path class="st3" d="M133.1,333.4l12.2,12.2c2.9,2.9,7.6,2.9,10.5,0l12.2-12.2c2.9-2.9,2.9-7.6,0-10.5l-12.2-12.2
	c-2.9-2.9-7.6-2.9-10.5,0L133.1,323C130.3,325.8,130.3,330.5,133.1,333.4z"/>
<path class="st2" d="M353.9,556.4l10.6,10.6c1.5,1.5,4.1,1.5,5.6,0l10.6-10.6c1.5-1.5,1.5-4.1,0-5.6l-10.6-10.6
	c-1.5-1.5-4-1.5-5.6,0l-10.6,10.6C352.4,552.3,352.4,554.8,353.9,556.4z"/>
<circle class="st4" cx="429.2" cy="476.6" r="97.5"/>
</svg>
