<?xml version="1.0" encoding="utf-8"?>
<!-- Generator: Adobe Illustrator 28.0.0, SVG Export Plug-In . SVG Version: 6.00 Build 0)  -->
<svg version="1.1" id="Capa_1" xmlns="http://www.w3.org/2000/svg" xmlns:xlink="http://www.w3.org/1999/xlink" x="0px" y="0px"
	 viewBox="0 0 632.1 638.4" style="enable-background:new 0 0 632.1 638.4;" xml:space="preserve">
<style type="text/css">
	.st0{fill:#060707;}
	.st1{fill:#FEFEFE;}
	.st2{fill:#DBB300;}
	.st3{fill:#6EE1EB;}
	.st4{fill:none;stroke:#DBB300;stroke-width:14;stroke-miterlimit:10;}
</style>
<path class="st0" d="M327.7,496.3c0.1-1.5,0.2-4.6,0.5-7.7c0.1-1-0.1-1.6-0.8-2.3c-5.6-5.7-11.2-11.3-16.7-17.1
	c-13.9-14.9-28.4-29.2-42.5-43.9c-0.9-0.9-1.6-1.1-2.8-0.8c-36.3,7.4-72.6,14.8-108.8,22.1c-8.3,1.7-16.6,3.4-24.9,5
	c-4.5,0.9-7.4-2-6.5-6.4c4.1-19.7,8.2-39.4,12.3-59.1c4.4-21.2,8.8-42.5,13.2-63.7c0.8-4,1.3-8,1.6-12.1c0.1-0.9-0.4-1.4-0.9-2
	c-10.2-10.3-20.4-20.7-30.7-31c-22.2-22.4-44.3-44.8-66.5-67.2c-1-1-1.9-2.1-2.1-3.6c-0.3-2.1,0.6-3.6,2.7-4.3
	c21.1-6.2,41.9-13.1,62.9-19.7c12-3.7,23.9-7.5,35.8-11.3c43.7-13.7,87.3-27.5,131-41.2c74.7-23.5,149.4-47.1,224-70.7
	c2.9-0.9,5.7-2.3,8.9-2.5c3.9-0.3,6,2.3,4.8,6.1c-3.9,12.1-7.7,24.3-11.5,36.4c-18.8,59.7-37.7,119.3-56.5,179
	c-12.2,38.6-24.3,77.1-36.5,115.7c-0.5,1.7-0.5,1.7,1.3,1.5c8.5-1.1,17-1.1,25.6-0.3c3,0.3,6.1,0.5,9.1,1.3
	c14.8,3.5,28.6,9.2,40.8,18.3c17.7,13.3,30,30.5,36.3,51.7c7.2,24.5,5.5,48.5-5.3,71.7c-10.6,22.8-27.4,39.8-50.1,50.5
	c-28.3,13.3-57.1,14.1-86.1,2.2c-13.2-5.4-24.6-13.5-34.3-23.9c-3.3-3.5-6.4-7.1-9.1-11.1c-7.6-11.2-13.1-23.4-15.8-36.7
	C328.4,512.1,327.6,505,327.7,496.3z M493.6,86c-0.7,0-1,0.4-1.4,0.7c-31.5,21.7-63,43.4-94.5,65.1c-29.7,20.5-59.5,41-89.2,61.5
	c-30.3,20.9-60.6,41.8-90.9,62.7c-18,12.4-36.1,24.9-54.1,37.3c-0.7,0.5-1.1,1.1-1.3,2c-2.4,10.6-4.2,21.4-6.9,31.9
	c-1.4,5.5-2.4,11.1-3.5,16.6c-5.2,25.2-10.5,50.4-15.7,75.6c-0.3,1.6-0.3,1.6,1.4,1.3c6.3-1.3,12.5-2.5,18.8-3.8
	c12.4-2.5,24.8-5,37.1-7.6c21.7-4.4,43.4-8.9,65.1-13.2c3.3-0.6,5.5-1.9,7.4-4.7c18.6-26.9,37.4-53.6,56.2-80.3
	c28.2-40.2,56.3-80.4,84.5-120.6c28.8-41,57.5-82.1,86.3-123.1C493.3,87.1,493.8,86.7,493.6,86z M492.3,75c-0.1-0.1-0.1-0.3-0.2-0.4
	c-141.9,44.7-283.7,89.5-425.7,134.2c0.5,0.5,0.8,0.9,1.2,1.3c30.6,30.9,61,62,91.8,92.7c0.9,0.9,1.4,0.9,2.4,0.2
	c13.2-9.2,26.5-18.3,39.7-27.4c49-33.8,97.9-67.5,146.9-101.3c45.4-31.3,90.8-62.6,136.2-93.9C487.2,78.5,489.8,76.7,492.3,75z
	 M330.3,475.7c0.2-0.7,0.3-1,0.4-1.3c2.2-9.1,5.5-17.7,10.1-25.9c7.5-13.4,17.6-24.7,29.9-33.7c10.4-7.7,22-13.1,34.6-16.5
	c0.9-0.2,1.3-0.7,1.6-1.6c4.1-12.9,8.2-25.9,12.2-38.8c18-57.1,36.1-114.3,54.1-171.4c10-31.7,20-63.4,30-95.1
	c0.2-0.6,0.6-1.3,0.3-2.2c-0.3,0.4-0.5,0.7-0.7,1c-9.6,13.7-19.2,27.3-28.8,41c-31.5,44.9-62.9,89.8-94.4,134.6
	c-35,50-70.1,100-105.2,149.9c-0.8,1.1-0.7,1.7,0.3,2.7c12.8,13.1,25.6,26.2,38.4,39.4c3,3.1,6.2,6.1,9,9.3
	C324.7,470,327.5,472.7,330.3,475.7z M437.9,404.2c-21.2,0-36.5,3.8-50.7,11.6c-21.6,11.9-36.8,29.4-44.8,52.9
	c-4.8,13.9-6.2,28.2-4.1,42.8c2.2,15.3,7.9,29.2,17.3,41.4c16,20.8,37.1,32.7,63.1,35.8c18.5,2.3,36.4-0.6,53-9
	c30.8-15.6,49-40.6,53.1-75.1c2.2-19-1.4-37.1-11-53.7C495.7,420.1,468.1,405.5,437.9,404.2z"/>
<path class="st1" d="M493.6,86c0.2,0.7-0.3,1.1-0.5,1.5c-28.8,41-57.5,82.1-86.3,123.1c-28.2,40.2-56.3,80.4-84.5,120.6
	c-18.8,26.8-37.6,53.5-56.2,80.3c-2,2.8-4.2,4.1-7.4,4.7c-21.7,4.3-43.4,8.8-65.1,13.2c-12.4,2.5-24.8,5.1-37.1,7.6
	c-6.3,1.3-12.5,2.5-18.8,3.8c-1.7,0.3-1.7,0.3-1.4-1.3c5.2-25.2,10.5-50.4,15.7-75.6c1.2-5.5,2.1-11.1,3.5-16.6
	c2.7-10.6,4.5-21.3,6.9-31.9c0.2-0.9,0.6-1.5,1.3-2c18-12.4,36.1-24.9,54.1-37.3c30.3-20.9,60.6-41.8,90.9-62.7
	c29.7-20.5,59.5-41,89.2-61.5c31.5-21.7,63-43.4,94.5-65.1C492.5,86.4,492.9,86,493.6,86z"/>
<path class="st1" d="M492.3,75c-2.5,1.8-5.1,3.6-7.6,5.3c-45.4,31.3-90.8,62.6-136.2,93.9c-49,33.8-97.9,67.5-146.9,101.3
	c-13.2,9.1-26.5,18.3-39.7,27.4c-1,0.7-1.5,0.7-2.4-0.2c-30.9-30.6-61.2-61.8-91.8-92.7c-0.4-0.4-0.7-0.7-1.2-1.3
	c142-44.8,283.9-89.5,425.7-134.2C492.2,74.7,492.3,74.8,492.3,75z"/>
<path class="st1" d="M330.3,475.7c-2.8-3-5.6-5.7-8.1-8.6c-2.8-3.2-6-6.2-9-9.3c-12.8-13.1-25.6-26.3-38.4-39.4
	c-0.9-1-1-1.6-0.3-2.7c35.1-50,70.1-99.9,105.2-149.9c31.5-44.9,62.9-89.8,94.4-134.6c9.6-13.7,19.2-27.4,28.8-41
	c0.2-0.3,0.4-0.6,0.7-1c0.3,0.9-0.1,1.5-0.3,2.2c-10,31.7-20,63.4-30,95.1c-18,57.1-36.1,114.3-54.1,171.4
	c-4.1,12.9-8.2,25.9-12.2,38.8c-0.3,0.9-0.7,1.4-1.6,1.6c-12.5,3.4-24.1,8.8-34.6,16.5c-12.4,9.1-22.4,20.3-29.9,33.7
	c-4.6,8.2-7.8,16.8-10.1,25.9C330.6,474.7,330.4,475,330.3,475.7z"/>
<path class="st2" d="M354.9,499.2c0-11,1.9-20.8,5.8-30.1c11-26.1,30.5-42,58.1-47.7c18.7-3.9,36.6-0.7,53.2,8.8
	c14.7,8.4,25.6,20.6,32,36.4c8.2,20.4,8.3,41-0.9,61.1c-11.6,25.3-31.4,40.4-58.7,45.5c-33.4,6.2-67.4-11.5-81.9-42
	C357.4,520.8,354.9,509.9,354.9,499.2z M434.6,429.4c-3.4,0.2-5.7,0.3-8,0.5c-1.7,0.2-3.4,0.4-5.1,0.7
	c-23.2,4.7-40.3,17.4-50.5,38.9c-6,12.6-7.8,25.9-5.6,39.7c4.9,30.3,30.6,53.6,61.2,55.3c18.8,1.1,35.6-4.4,49.9-16.8
	c22.8-19.7,31-52.1,16.8-80.9C481.3,442.3,460.5,430.7,434.6,429.4z"/>
<path class="st2" d="M433.5,512.8c-10.1,0-18.5-8.2-18.6-18.2c-0.1-10,8-18.2,18.1-18.2c10.2-0.1,18.7,8.2,18.7,18.3
	C451.8,504.6,443.6,512.8,433.5,512.8z M433.4,503.1c4.8,0,8.5-3.6,8.5-8.3c0-4.8-3.9-8.6-8.8-8.7c-4.8,0-8.5,3.7-8.5,8.3
	C424.6,499.2,428.5,503,433.4,503.1z"/>
<path class="st2" d="M473.5,476.4c10.2,0.1,18.6,8.4,18.5,18.5c-0.1,10-8.4,18-18.4,17.9c-10.2-0.1-18.5-8.4-18.4-18.6
	C455.3,484.3,463.5,476.3,473.5,476.4z M473.8,503.1c4.7,0,8.4-3.6,8.4-8.2c0-4.9-3.9-8.8-8.9-8.7c-4.7,0-8.4,3.7-8.5,8.2
	C464.9,499.2,468.9,503.1,473.8,503.1z"/>
<path class="st2" d="M392.1,513.4c-10.2,0-18.5-8.3-18.5-18.5c0-9.9,8.2-18,18.2-18c10.2,0,18.6,8.3,18.6,18.4
	C410.4,505.3,402.2,513.5,392.1,513.4z M392.1,503.7c4.8,0,8.5-3.6,8.5-8.3c0-4.8-3.9-8.7-8.8-8.7c-4.8,0-8.5,3.7-8.6,8.3
	C383.3,499.8,387.2,503.7,392.1,503.7z"/>
<path class="st3" d="M142.1,322.1l12.2,12.2c2.9,2.9,7.6,2.9,10.5,0l12.2-12.2c2.9-2.9,2.9-7.6,0-10.5l-12.2-12.2
	c-2.9-2.9-7.6-2.9-10.5,0l-12.2,12.2C139.2,314.5,139.2,319.2,142.1,322.1z"/>
<path class="st3" d="M137.5,355.5l12.2,12.2c2.9,2.9,7.6,2.9,10.5,0l12.2-12.2c2.9-2.9,2.9-7.6,0-10.5l-12.2-12.2
	c-2.9-2.9-7.6-2.9-10.5,0l-12.2,12.2C134.6,348,134.6,352.6,137.5,355.5z"/>
<path class="st2" d="M358.2,579.6l9.6,9.6c1.4,1.4,3.7,1.4,5.1,0l9.6-9.6c1.4-1.4,1.4-3.7,0-5.1l-9.6-9.6c-1.4-1.4-3.7-1.4-5.1,0
	l-9.6,9.6C356.8,575.9,356.8,578.2,358.2,579.6z"/>
<circle class="st4" cx="431.3" cy="496.8" r="97.5"/>
</svg>
