<?xml version="1.0" encoding="utf-8"?>
<!-- Generator: Adobe Illustrator 28.0.0, SVG Export Plug-In . SVG Version: 6.00 Build 0)  -->
<svg version="1.1" id="Capa_1" xmlns="http://www.w3.org/2000/svg" xmlns:xlink="http://www.w3.org/1999/xlink" x="0px" y="0px"
	 viewBox="0 0 1080 1080" style="enable-background:new 0 0 1080 1080;" xml:space="preserve">
<style type="text/css">
	.st0{fill:#090909;}
	.st1{fill:#FEFEFE;}
	.st2{fill:#FF5500;}
	.st3{fill:#6EE1EB;}
	.st4{fill:none;stroke:#FF5500;stroke-width:20;stroke-miterlimit:10;}
</style>
<path class="st0" d="M729.2,642.5c6.4-1.9,12.7-4.1,19.2-5.7c21.2-5.4,42.6-6.8,64.3-4.4c77.1,8.5,124.1,59.1,143.1,103.5
	c19.2,44.9,20.7,90.5,2.3,135.6c-24.7,60.5-70,98.5-133.8,111.6c-63,13-118.6-4-164.9-49.3c-15.3-15-27-32.7-35.3-52.5
	c-1.4-3.4-3.1-4.4-6.8-4.4c-91.4-0.3-182.7-0.6-274.1-1.1c-11.2-0.1-21.5-3.2-29.5-11.7c-5.8-6.2-9-13.5-9.3-22.1
	c-0.1-4.2,0-8.4,0-12.5c-0.2-127.9-0.6-255.7-0.5-383.6c0-16.4,0.2-33.1,4.6-49.2c9.9-35.7,30.4-63.4,62.5-82.4
	c19.4-11.5,40.4-17.7,62.6-20.7c3-0.4,6.8,1.1,8.9-1.1c1.8-1.9,2-5.3,3.1-8c5.2-13.1,13.6-23.9,24.6-32.8
	c15.6-12.6,33.7-20,53.3-23.1c29.3-4.6,57.6-0.9,84.1,12.7c19.1,9.8,34.8,23.3,43.8,43.1c2.8,6.1,5.8,8,12.4,7.8
	c17.2-0.7,34.5-0.4,51.8-0.5c1.3,0,2.5-0.1,3.8,0c6,0.4,9.4,3.5,9.9,9.5c0.4,4,0.2,8,0.2,12c0,2.4-0.3,4.7-0.3,7.1
	c-0.2,105.5-0.4,211.1-0.5,316.6C728.8,638.7,728.4,640.5,729.2,642.5z M616.1,859.3c-0.4-1.8-0.9-3.8-1.4-5.7
	c-5.9-24-6.9-48.2-2.3-72.4c10.3-54.2,39.8-95.4,86.6-124.3c3.1-1.9,6.3-3.5,9.7-5c2.4-1,3.4-2.5,3.1-5c-0.1-0.9,0-1.8,0-2.7
	c0.2-71.9,0.3-143.9,0.5-215.8c0.1-37.4,0.1-74.8,0.1-112.3c0-7.3-0.1-7.3-7.1-7.3c-86.8,0.4-173.6,0.8-260.5,1.2
	c-4.7,0-9.4,0.4-14.1,1.1c-20.2,3-39,9.6-56.1,20.9c-27,17.7-43.8,42.5-50.6,73.9c-2.7,12.4-3.2,25.1-3.2,37.9
	c0.3,131.5,0.4,263,0.4,394.5c0,12.5,9.6,19.4,18.1,19.9c3.4,0.2,6.9,0.4,10.3,0.4c87.2,0.4,174.4,0.8,261.6,1.2
	C612.7,860,614.4,860.4,616.1,859.3z M954.2,806.8c-0.4-12.9-1.7-25.5-4.8-37.9c-19.7-79.4-95.8-130.3-178.3-119.4
	c-38.5,5.1-71.5,21.9-98.7,49.8c-45.2,46.3-58.4,115.1-33.3,174.5c23.2,55.1,78,95.2,145.2,96.6c26.2,0.6,51.4-4.5,74.8-16.3
	C919.7,923.7,950.8,874.1,954.2,806.8z M636.1,292.7c-0.2-3.3-1.7-5-2.8-6.8c-8-12.9-19.1-22.2-32.5-29.1
	c-25.5-13.1-52.4-16.3-80.4-10.4c-16.1,3.4-30.6,10-42.9,21.2c-7.6,6.9-13.5,15-16.9,25.1C519.2,292.7,577.4,292.7,636.1,292.7z"/>
<path class="st0" d="M273.3,639.6c-0.3,32.8-0.6,80.2-1,127.6c0,6-0.2,12-0.2,18c0,2.3-0.5,4.3-1.4,6.3c-9,22.6-18.1,45.1-27,67.7
	c-1.5,3.8-3.6,6.7-7.8,7.7c-4.4,1-8.4-0.8-10.5-4.8c-0.6-1.1-1-2.3-1.4-3.5c-7.6-21.5-15.1-43.1-22.8-64.6
	c-1.7-4.8-1.2-9.7-1.4-14.5c-0.1-2.5,0.2-5.1,0.3-7.6c0.7-99.9,1.4-199.8,2.1-299.7c0-6,0.5-12,1.8-17.8
	c3.7-16.9,17.1-28.4,33.1-28.8c16.3-0.4,30.4,10.4,35.2,27.1c1.7,6,2.3,12.1,2.2,18.3C274,522.2,273.7,573.6,273.3,639.6z
	 M234.2,836.8c0.9-2.1,1.6-3.6,2.2-5.1c5.7-14.3,11.4-28.6,17.2-42.9c1.3-3.1,1.8-6.2,1.9-9.5c0.1-26.3,0.2-52.7,0.4-79
	c0.3-51.4,0.7-102.8,1-154.2c0-5.7,0.4-5-4.8-5.1c-9.3-0.1-18.5-0.3-27.8-0.3c-6.9,0-6-0.8-6,6.1c-0.6,75.7-1.1,151.5-1.8,227.2
	c-0.1,8.5,0.7,16.5,4,24.4c2.7,6.5,4.7,13.3,7,20C229.7,824.3,231.9,830.2,234.2,836.8z M238.2,483.2c0,0.1,0,0.3,0,0.4
	c5.4,0,10.9,0,16.3,0c1.5,0,3,0.1,3-2.1c0.2-8.9,0.5-17.9-2.4-26.3c-2.4-7.1-7.6-12-15.4-12.9c-7.2-0.9-12.6,2.4-16.6,8.3
	c-2.2,3.2-3.3,6.8-3.8,10.6c-0.8,6.1-0.2,12.3-0.7,18.4c-0.2,3,1.1,3.7,3.8,3.6C227.7,483.1,233,483.2,238.2,483.2z M238.2,523.8
	c0,0.1,0,0.1,0,0.2c5.4,0,10.9,0,16.3,0c1.7,0,2.7-0.4,2.6-2.4c0-6.2,0-12.3,0.1-18.5c0-2-1-2.4-2.7-2.5
	c-11.1-0.2-22.1-0.5-33.2-0.8c-2-0.1-2.9,0.5-2.9,2.7c0.1,6.2,0,12.3-0.1,18.5c0,2.2,0.8,2.8,2.9,2.8
	C227,523.7,232.6,523.8,238.2,523.8z"/>
<path class="st0" d="M550.1,83.4c17.7,0.4,36.9,8.1,51.8,25.1c22.2,25.3,21.7,62-1,86.9c-28,30.8-78.2,32.4-108.1,3.5
	C461.5,168.7,467,119,504.3,95.3C517,87.2,530.1,83.4,550.1,83.4z M544.8,202.6c13.9,0.1,26.5-4,37.4-12.7
	c22.7-18,25.6-49.4,6.7-70.9c-22.7-25.8-67-24.8-88.5,2c-15.9,19.8-14.6,46.8,3.3,64.8C515,197.1,528.9,202.4,544.8,202.6z"/>
<path class="st1" d="M616.1,859.3c-1.7,1.1-3.4,0.7-5,0.7c-87.2-0.4-174.4-0.8-261.6-1.2c-3.4,0-6.9-0.2-10.3-0.4
	c-8.5-0.5-18.1-7.5-18.1-19.9c0.1-131.5-0.1-263-0.4-394.5c0-12.8,0.4-25.5,3.2-37.9c6.9-31.4,23.6-56.2,50.6-73.9
	c17.1-11.3,35.9-17.9,56.1-20.9c4.7-0.7,9.4-1,14.1-1.1c86.8-0.4,173.6-0.8,260.5-1.2c7,0,7.1,0,7.1,7.3c0,37.4,0,74.8-0.1,112.3
	c-0.1,71.9-0.3,143.9-0.5,215.8c0,0.9-0.1,1.8,0,2.7c0.3,2.5-0.7,4-3.1,5c-3.3,1.4-6.6,3.1-9.7,5c-46.8,28.9-76.3,70-86.6,124.3
	c-4.6,24.2-3.6,48.4,2.3,72.4C615.2,855.5,615.6,857.4,616.1,859.3z M454.1,468.4c-0.4-5.2-2-10.9-4.8-16.3
	c-3.3-6.3-7.8-11.6-14.4-14.3c-5.2-2.1-9.5-3.8-9.2-10.8c0.2-3.7-3.7-5.9-7.4-5.6c-3.6,0.2-6.3,2.8-6.8,6.6
	c-0.2,1.6-0.2,3.3-0.2,4.9c0.1,2.6-0.6,4.2-3.3,5.5c-10.2,5-16.5,13.4-20,24c-4.3,13.1-1.2,23.2,9.5,32c3.7,3.1,7.7,5.3,12.3,6.7
	c6.4,2,12.7,4.4,18.5,7.8c5.1,3,7.5,7.7,7.1,13.7c-0.4,5.6-3.1,9.9-8,12.1c-13.1,6-25.5-1.8-28.6-11.7c-0.6-1.9-1.1-3.9-2.1-5.6
	c-1.9-3.4-5.8-4.7-9.4-3.6c-3.4,1-5.7,4-5.7,7.7c0,1.8,0.4,3.6,0.9,5.3c3,10.9,10,18.5,20.1,22.9c4.9,2.1,8.8,4,7.7,10.1
	c0,0.2,0.1,0.4,0.1,0.5c1,3.7,4.2,6.3,7.9,6.4c3.9,0.1,7.3-2.7,8.2-6.7c0.2-0.7,0.4-1.5,0.2-2.2c-1.1-4.7,1.5-6.3,5.5-7.2
	c3.4-0.8,6.2-2.9,8.8-5.2c17.4-15.5,14.2-41.5-6.3-52.5c-5.9-3.1-12.1-5.8-18.5-7.7c-3.9-1.2-7.3-3.2-10.2-6
	c-2.3-2.2-3.3-4.8-2.9-7.8c0.9-7.2,4.1-13.3,10.3-17.2c9.2-5.7,16.6-3.5,21.9,4.8c1.7,2.6,2.6,5.6,3.3,8.6c0.2,0.9,0.2,1.8,0.4,2.7
	c1,5.1,4.2,7.9,8.5,7.3C451.6,477.4,454.1,474.1,454.1,468.4z M518.3,627.9c0,0.2,0,0.5,0,0.7c37.6,0,75.2,0,112.8,0
	c2.2,0,4.4,0.1,6.5-0.3c3.9-0.7,6.8-4.3,6.8-8.1c0-3.8-2.9-7.3-6.9-8c-1.8-0.3-3.6-0.3-5.4-0.3c-20-0.1-40-0.1-59.9-0.2
	c-55.6-0.2-111.2-0.4-166.7-0.6c-2.3,0-4.7-0.2-7,0.7c-3.7,1.5-5.8,4.8-5.4,8.6c0.4,3.5,2.8,6.4,6.5,7.1c2.1,0.4,4.3,0.4,6.5,0.4
	C443.5,627.9,480.9,627.9,518.3,627.9z M518.3,674.4c0-0.2,0-0.3,0-0.5c-37.6,0-75.2,0-112.8,0c-2,0-4,0-6,0.3
	c-3.6,0.6-6.1,3.6-6.5,7.1c-0.4,3.6,1.6,6.7,4.9,8.3c1.9,0.9,3.9,0.9,5.9,0.9c76.3,0.3,152.6,0.6,228.9,0.9c2,0,4,0,5.9-0.7
	c3.5-1.3,5.8-4.3,5.8-7.8c0-3.5-2.3-6.5-5.7-7.8c-2.3-0.9-4.6-0.7-7-0.7C593.9,674.4,556.1,674.4,518.3,674.4z M558.7,498.5
	C558.7,498.5,558.7,498.5,558.7,498.5c23.1-0.1,46.1-0.1,69.2-0.1c2.4,0,4.7,0.1,7-0.7c3.6-1.2,5.7-4,5.8-7.7c0-3.7-2-6.5-5.5-7.9
	c-2.5-1-5-0.7-7.5-0.7c-44.9,0-89.7,0-134.6,0c-2.5,0-5.1-0.1-7.6,0c-3.3,0.1-5.8,1.8-7.4,4.8c-3.1,5.8,1.8,12.6,9.3,12.5
	C511.1,498.3,534.9,498.5,558.7,498.5z"/>
<path class="st1" d="M636.1,292.7c-58.7,0-116.9,0-175.5,0c3.4-10.1,9.3-18.2,16.9-25.1c12.3-11.1,26.9-17.8,42.9-21.2
	c28-5.9,54.9-2.7,80.4,10.4c13.3,6.8,24.5,16.2,32.5,29.1C634.4,287.7,635.9,289.4,636.1,292.7z"/>
<path class="st1" d="M234.2,836.8c-2.4-6.6-4.5-12.5-6.7-18.5c-2.4-6.7-4.3-13.5-7-20c-3.3-7.9-4.1-15.9-4-24.4
	c0.7-75.7,1.2-151.5,1.8-227.2c0.1-6.9-0.9-6.1,6-6.1c9.3,0.1,18.5,0.2,27.8,0.3c5.2,0.1,4.8-0.6,4.8,5.1
	c-0.4,51.4-0.7,102.8-1,154.2c-0.2,26.3-0.3,52.7-0.4,79c0,3.3-0.6,6.4-1.9,9.5c-5.8,14.3-11.5,28.6-17.2,42.9
	C235.9,833.2,235.2,834.6,234.2,836.8z"/>
<path class="st1" d="M238.2,483.2c-5.3,0-10.5-0.1-15.8,0c-2.7,0.1-4-0.6-3.8-3.6c0.5-6.1-0.1-12.3,0.7-18.4
	c0.5-3.8,1.7-7.4,3.8-10.6c4-5.8,9.4-9.1,16.6-8.3c7.8,0.9,12.9,5.8,15.4,12.9c2.9,8.5,2.6,17.5,2.4,26.3c0,2.2-1.5,2.1-3,2.1
	c-5.4,0-10.9,0-16.3,0C238.2,483.5,238.2,483.3,238.2,483.2z"/>
<path class="st1" d="M238.2,523.8c-5.6,0-11.2-0.1-16.9,0c-2.1,0-2.9-0.6-2.9-2.8c0.1-6.2,0.2-12.3,0.1-18.5c0-2.2,0.9-2.8,2.9-2.7
	c11.1,0.3,22.1,0.6,33.2,0.8c1.7,0,2.7,0.5,2.7,2.5c-0.1,6.2-0.2,12.3-0.1,18.5c0,2-0.9,2.4-2.6,2.4c-5.4-0.1-10.9,0-16.3,0
	C238.2,523.9,238.2,523.9,238.2,523.8z"/>
<path class="st1" d="M544.8,202.6c-15.9-0.1-29.9-5.4-41.2-16.8c-17.9-18-19.2-45-3.3-64.8c21.5-26.8,65.9-27.7,88.5-2
	c18.9,21.5,16,52.8-6.7,70.9C571.3,198.6,558.8,202.7,544.8,202.6z"/>
<path class="st0" d="M454.1,468.4c0,5.8-2.5,9.1-6.5,9.6c-4.2,0.6-7.4-2.2-8.5-7.3c-0.2-0.9-0.2-1.8-0.4-2.7c-0.7-3-1.6-6-3.3-8.6
	c-5.4-8.4-12.7-10.5-21.9-4.8c-6.2,3.8-9.4,10-10.3,17.2c-0.4,3.1,0.6,5.6,2.9,7.8c2.9,2.8,6.3,4.9,10.2,6
	c6.4,1.9,12.6,4.6,18.5,7.7c20.6,10.9,23.7,36.9,6.3,52.5c-2.6,2.3-5.4,4.4-8.8,5.2c-4,0.9-6.6,2.4-5.5,7.2c0.2,0.7,0,1.5-0.2,2.2
	c-0.9,3.9-4.3,6.7-8.2,6.7c-3.7-0.1-6.9-2.7-7.9-6.4c0-0.2-0.1-0.4-0.1-0.5c1-6.2-2.9-8-7.7-10.1c-10.1-4.4-17.1-12.1-20.1-22.9
	c-0.5-1.7-0.9-3.6-0.9-5.3c0-3.8,2.3-6.7,5.7-7.7c3.6-1.1,7.5,0.2,9.4,3.6c1,1.7,1.5,3.7,2.1,5.6c3,9.8,15.4,17.6,28.6,11.7
	c4.9-2.2,7.6-6.5,8-12.1c0.4-6-2-10.7-7.1-13.7c-5.8-3.4-12.1-5.8-18.5-7.8c-4.6-1.4-8.6-3.7-12.3-6.7c-10.7-8.9-13.8-18.9-9.5-32
	c3.5-10.6,9.8-19,20-24c2.6-1.3,3.4-2.9,3.3-5.5c-0.1-1.6,0-3.3,0.2-4.9c0.5-3.8,3.2-6.4,6.8-6.6c3.7-0.3,7.5,1.9,7.4,5.6
	c-0.3,7,4,8.7,9.2,10.8c6.6,2.7,11.1,8,14.4,14.3C452.1,457.4,453.7,463.2,454.1,468.4z"/>
<path class="st0" d="M518.3,627.9c-37.4,0-74.8,0-112.2,0c-2.2,0-4.4,0-6.5-0.4c-3.7-0.7-6.1-3.6-6.5-7.1c-0.4-3.8,1.7-7,5.4-8.6
	c2.3-0.9,4.6-0.7,7-0.7c55.6,0.2,111.2,0.4,166.7,0.6c20,0.1,40,0.1,59.9,0.2c1.8,0,3.7-0.1,5.4,0.3c4,0.7,6.8,4.2,6.9,8
	c0,3.8-2.8,7.4-6.8,8.1c-2.1,0.4-4.3,0.3-6.5,0.3c-37.6,0-75.2,0-112.8,0C518.3,628.4,518.3,628.1,518.3,627.9z"/>
<path class="st0" d="M518.3,674.4c37.8,0,75.6,0,113.3,0c2.4,0,4.7-0.1,7,0.7c3.5,1.3,5.7,4.4,5.7,7.8c0,3.5-2.3,6.5-5.8,7.8
	c-1.9,0.7-3.9,0.7-5.9,0.7c-76.3-0.3-152.6-0.6-228.9-0.9c-2,0-4,0-5.9-0.9c-3.3-1.6-5.3-4.8-4.9-8.3c0.4-3.5,2.9-6.5,6.5-7.1
	c1.9-0.4,4-0.3,6-0.3c37.6,0,75.2,0,112.8,0C518.3,674,518.3,674.2,518.3,674.4z"/>
<path class="st0" d="M558.7,498.5c-23.8,0-47.6-0.2-71.4,0.1c-7.5,0.1-12.4-6.6-9.3-12.5c1.6-3,4-4.6,7.4-4.8c2.5-0.1,5.1,0,7.6,0
	c44.9,0,89.7,0,134.6,0c2.5,0,5.1-0.2,7.5,0.7c3.6,1.4,5.6,4.2,5.5,7.9c0,3.7-2.2,6.5-5.8,7.7c-2.3,0.8-4.7,0.7-7,0.7
	C604.8,498.4,581.7,498.4,558.7,498.5C558.7,498.5,558.7,498.5,558.7,498.5z"/>
<path class="st2" d="M792.1,944.3c-66.2,0.1-121.9-46.3-132.9-109.4c-10.4-59.2,20.1-119.1,74.7-145.3c41.7-20,83.8-19.6,124.5,2.4
	c36.4,19.7,58.7,50.8,66.5,91.5c13.9,72.6-34.4,144.5-110.6,158.6C806.4,943.5,798.4,944.1,792.1,944.3z M793.8,692.4
	c-19.5,0-38.3,4.6-55.5,13.6c-56.6,29.6-80.3,98.8-53.4,155.2c28.6,59.8,100.3,82.9,159.3,53.3c48.4-24.3,74.7-77.6,63.7-130
	C896.6,730,849.5,692.3,793.8,692.4z"/>
<path class="st2" d="M742.5,808.8c-8-7.8-15.7-15.3-23.4-22.7c-2.7-2.7-5.3-5.4-7.6-8.5c-3.1-4.3-3.2-8.7-0.7-13.3
	c1.3-2.4,2.9-4.6,4.8-6.5c8.8-8.9,17.6-17.9,26.4-26.8c6.4-6.4,10.6-6.9,18.4-2.2c3.1,1.9,5.9,4.2,8.5,6.8c7.1,7,14.4,13.9,21.4,21
	c2.1,2.1,3.3,1.9,5.2-0.1c7.3-7.6,14.7-15.1,22.1-22.6c2.8-2.9,5.7-5.6,9-7.9c4-2.7,8.1-2.9,12.3-0.7c2.5,1.2,4.7,2.7,6.6,4.7
	c9.2,9.1,18.4,18.1,27.5,27.2c6,6,6.4,10.2,2.1,17.5c-1.9,3.3-4.4,6.2-7.1,9c-7.5,7.6-15,15.3-22.5,22.9c-2.9,2.9-2.9,3,0,5.9
	c8.3,8.4,16.7,16.7,25,25.1c0.3,0.3,0.5,0.5,0.8,0.8c7.2,8.2,7.3,14.5-0.5,22.4c-9.4,9.6-18.9,19.1-28.5,28.5
	c-5.3,5.2-9.7,5.5-16.2,1.8c-3.7-2.1-6.9-4.7-9.8-7.7c-7.7-7.9-15.5-15.8-23-23.5c-2.7,0.8-3.8,2.6-5.1,3.9
	c-7.8,7.9-15.5,15.8-23.3,23.7c-0.1,0.1-0.3,0.3-0.4,0.4c-8.1,7.3-14.4,7.4-22.4-0.2c-9.7-9.2-19.3-18.7-28.8-28.2
	c-5.2-5.3-5.6-9.7-2-16.2c2-3.7,4.7-6.9,7.6-9.9C726.6,825.3,734.3,817.3,742.5,808.8z M753.2,872.7c2.2-0.1,3.8-1.6,5.4-3.2
	c5.4-5.4,10.7-10.9,16-16.4c3.6-3.6,7-7.4,10.7-10.9c4-3.8,7.7-4.1,12.3-1c2.1,1.4,4,3.2,5.8,5c8,7.9,15.9,15.9,24,23.8
	c4.1,4,6.1,4,10.1,0.1c5.3-5.2,10.6-10.5,15.8-15.8c4.2-4.2,4.3-6.1,0-10.5c-5.7-5.9-11.5-11.6-17.3-17.3c-3.2-3.2-6.5-6.3-9.6-9.6
	c-3.6-3.9-3.8-7.2-1.1-11.9c1.9-3.3,4.2-6.3,7-9c7.4-7.5,14.8-15,22.1-22.5c4.7-4.9,4.7-6.6,0-11.2c-4.8-4.7-9.6-9.4-14.3-14.2
	c-5.6-5.5-6.8-5.5-12.4,0.1c-0.5,0.5-1,1-1.5,1.5c-7.5,7.6-15,15.3-22.5,22.9c-6.9,6.9-13.4,7-20.4,0.4c-1.6-1.5-3.1-3-4.7-4.6
	c-6.5-6.3-13-12.7-19.5-19c-4.9-4.8-6.5-4.7-11.2,0c-4.3,4.4-8.7,8.8-13,13.2c-6.9,7-6.9,7.8,0.2,14.8c8.2,8,16.4,16,24.5,24
	c3.8,3.8,4.6,7.5,2.4,11.2c-0.9,1.5-2.2,2.9-3.4,4.2c-8.2,8.5-16.4,16.9-24.7,25.4c-1.1,1.2-2.3,2.3-3.3,3.7
	c-1.8,2.6-1.7,4.5,0.6,6.8c6,6.1,12.1,12,18.3,18C750.3,871.9,751.4,872.7,753.2,872.7z"/>
<path class="st3" d="M281.4,426l22,22c5.2,5.2,13.7,5.2,18.9,0l22-22c5.2-5.2,5.2-13.7,0-18.9l-22-22c-5.2-5.2-13.7-5.2-18.9,0
	l-22,22C276.2,412.4,276.2,420.8,281.4,426z"/>
<path class="st3" d="M281.4,490.2l22,22c5.2,5.2,13.7,5.2,18.9,0l22-22c5.2-5.2,5.2-13.7,0-18.9l-22-22c-5.2-5.2-13.7-5.2-18.9,0
	l-22,22C276.2,476.5,276.2,485,281.4,490.2z"/>
<path class="st2" d="M661.2,948.9l17.3,17.3c2.5,2.5,6.6,2.5,9.1,0l17.3-17.3c2.5-2.5,2.5-6.6,0-9.1l-17.3-17.3
	c-2.5-2.5-6.6-2.5-9.1,0l-17.3,17.3C658.7,942.3,658.7,946.4,661.2,948.9z"/>
<circle class="st4" cx="791.2" cy="808.9" r="171"/>
</svg>
