<?xml version="1.0" encoding="utf-8"?>
<!-- Generator: Adobe Illustrator 28.0.0, SVG Export Plug-In . SVG Version: 6.00 Build 0)  -->
<svg version="1.1" id="Capa_1" xmlns="http://www.w3.org/2000/svg" xmlns:xlink="http://www.w3.org/1999/xlink" x="0px" y="0px"
	 viewBox="0 0 1080 1080" style="enable-background:new 0 0 1080 1080;" xml:space="preserve">
<style type="text/css">
	.st0{fill:#090A0A;}
	.st1{fill:#FEFEFE;}
	.st2{fill:#DBB300;}
	.st3{fill:#6EE1EB;}
	.st4{fill:none;stroke:#DBB300;stroke-width:19;stroke-miterlimit:10;}
</style>
<path class="st0" d="M287.6,773.1c-3,2.7-5.5,5.3-8.4,7.5c-21.8,16.2-44.9,15-64.6-3.6c-4-3.8-4-3.8-9.1-1.4
	c-26.7,12.1-53.5,24.3-80.2,36.4c-2.2,1-4.2,2.1-6.8,1.5c-4.5-1-6.9-4.3-6.9-9.7c0.1-16.3,0.3-32.7,0.5-49c0-1.5-0.1-2.9,0.1-4.4
	c0.2-2.5-0.4-3.5-3.3-3.2c-17.3,1.6-32.1-4.4-45.2-15.1c-10.3-8.4-17.4-19.1-20.5-32c-3-12.6-1.5-24.8,5.8-36
	c35.4-54.3,70.6-108.7,105.9-163c3.3-5,6.2-10.2,9.8-15.1c10.4-14.1,24.6-23.4,39.8-31.4c17.2-9,35.3-16,53.1-23.8
	c22.9-10,45.8-20.2,69.1-29.2c7.4-2.8,12.4-7,16.9-13.3c76.2-106.8,152.7-213.6,229-320.3c1.1-1.5,1.8-3.1,2.6-4.7
	c2.2-4.4,6.5-5.8,11.1-3.8c1.5,0.6,2.9,1.5,4.2,2.4c24,15.3,48.1,30.6,72.1,45.9c10.1,6.4,10.8,10,4.1,19.7
	C599.4,226,532,324.6,464.7,423.2c-1.1,1.6-2.1,3.3-3.6,5.5c39.1,11.5,77.8,23,116.2,34.3c1.7-0.8,1.3-2.1,1.3-3
	c0.1-18,14.1-30.3,31-30.2c35.4,0.2,70.8,0.2,106.3,0.3c13.8,0.1,23.5,6.6,27.4,18.2c1.3,3.8,1.8,7.8,1.5,11.8
	c-1,12.9-0.6,25.8-0.6,38.7c-0.2,44.3-0.3,88.6-0.4,133c0,1.8,0,3.6,0,5.3c1.9,0.9,3.5,0.1,5-0.3c21.2-5.3,42.7-6.9,64.3-4.3
	c57.5,6.9,102.2,34.7,132.5,84c40.4,65.8,31.7,150.9-20.3,208.8c-30.6,34-68.6,54.7-113.9,60.2c-59.4,7.3-111-10.2-153.1-53.1
	c-27.6-28.2-43-62.5-47.5-101.7c-1.1-9.4-0.8-18.8-0.8-28.3c0-3.7,0-3.7-3.6-4.1c-7.5-0.8-14.6-3-20.4-8.1c-1.7-1.5-3.5-1.7-5.5-1.6
	c-9.1,0.1-18.2,0.2-27.2,0.4c-44.9,0.8-89.7,1.6-134.6,2.2c-13.4,0.2-26.9,0-39.8-4.7c-2.9-1.1-6-1.9-8.6-3.4
	c-3-1.8-4.5-0.4-6.4,1.6c-10.2,10.3-22.8,14.5-37,14.1c-9.5-0.2-17.5-4.3-24.8-10C296.6,784.4,292.1,779.3,287.6,773.1z
	 M576.9,641.1c0.6-61.3,1-108.4,1.5-155.4c0-4.8,0-4.8-4.6-6.2c-0.5-0.2-1.1-0.3-1.6-0.4c-38.8-11.4-77.5-22.9-116.3-34.3
	c-5-1.5-5-1.5-7.8,2.6c-16.9,24.7-33.8,49.5-50.7,74.2c-1.6,2.3-2.9,4.4-1.2,7.3c0.7,1.3,0.4,3.2,0.3,4.8
	c-0.7,27.8-1.5,55.5-2.3,83.3c-0.1,2.8-0.6,5.4-1.4,8c-4.8,16-14.6,26.3-31.9,28.7c-7.3,1-14.5,0.8-21.7,0.8
	c-54.1,0-108.2,0-162.3,0c-3.1,0-6.2,0.2-9.3,0.1c-11.4-0.4-19.8,4.6-25.7,14.2c-0.8,1.2-1.6,2.4-2.3,3.7c-6.1,12-7.4,24.1-1.3,36.6
	c3.9,8,10.1,13.6,17.6,18c3.4,2,6.9,2.9,10.8,2.9c53.4,0.2,106.8,0.5,160.2,0.8c1.6,0,3.3,0.3,4.9-0.1c5.9-1.5,9.6,1.3,12.7,6
	c4.4,6.7,9.4,12.9,15,18.6c7.6,7.6,16.5,13,26.8,15.9c10.6,3,21.2,3.6,32.2,3.3c49-1.2,98-1.8,147.1-2.5c1.8,0,3.6-0.1,5.4-0.1
	c4.3-0.2,4.3-0.2,4.4-4.5C576.1,720.5,576.5,673.7,576.9,641.1z M186.2,637.4c2.6,0,4,0,5.5,0c33.2,0,66.5-0.1,99.7,0.1
	c4.7,0,7.4-1.2,10.1-5.2C382.7,513.2,464,394.2,545.3,275.2c34.3-50.2,68.6-100.4,102.9-150.6c2.9-4.3,3.5-3.9-1.2-6.8
	c-19.3-12.3-38.6-24.6-57.9-36.8c-3.4-2.2-3.5-2.2-5.8,1.1c-4.8,6.6-9.5,13.3-14.3,19.9C442.8,278.4,316.6,454.8,190.3,631.2
	C189.1,633,188,634.7,186.2,637.4z M594.1,611.8c-0.2,0-0.5,0-0.7,0c0,26.1,0.1,52.3,0,78.4c-0.1,25.1-0.6,50.1-0.8,75.2
	c-0.1,10.2,4.5,14.9,14.6,15.9c5,0.5,5,0.5,6-4.4c4.3-20.2,11.5-39.3,22.3-56.9c21-34.4,50.3-59.2,87.4-74.8
	c2.7-1.2,3.8-2.4,3.8-5.5c0.2-59.6,0.5-119.1,0.8-178.7c0-1.3,0-2.6-0.1-3.8c-0.6-5.3-3.7-8.7-8.9-9.6c-2.3-0.4-4.7-0.5-7-0.5
	c-33.2-0.2-66.5-0.4-99.7-0.6c-1.5,0-2.9-0.1-4.4,0c-8.3,0.4-11.7,4-11.7,12.2C595.2,509.7,594.6,560.8,594.1,611.8z M954,815.1
	c-0.2-32.7-5.3-55.7-15.9-77.5c-30.1-62-97.2-97.5-167.1-88.2c-38.5,5.2-71.9,21.6-98.5,49.9c-38.7,41.1-53.8,89.9-42.4,145.4
	c14.7,71.9,77.8,123.9,154.4,125.6c26,0.6,51-4.5,74.3-16.1C919.6,924,950.8,874.2,954,815.1z M317.6,424.3
	c-0.2-0.2-0.5-0.4-0.7-0.6c-2,0.8-4,1.6-6,2.4c-22.5,9.6-45,19.3-67.5,28.9c-14.4,6.1-28.4,12.7-42,20.5c-11,6.4-20,14.4-26.8,25.6
	c-14.4,23.5-29.9,46.4-44.9,69.5c-22.3,34.4-44.6,68.9-66.9,103.3c-5,7.6-5.2,15.9-2.6,24c5.8,17.8,19.3,27.5,36.6,32.6
	c3.9,1.2,8.2,1.6,12.4,0.8c4-0.8,4.5-1.3,4.5-5.3c0.1-7.3,0.3-14.5,0.2-21.8c-0.2-16.5,4.9-31.3,14-45c7.7-11.7,18.4-18.5,31.8-20.8
	c4.1-0.7,6.4-2.5,8.6-5.6c40.8-57.2,81.7-114.3,122.6-171.4C299.9,449.1,308.7,436.7,317.6,424.3z M318.7,636.8
	c1.1,0.3,1.6,0.5,2,0.5c11.1,0,22.1,0,33.2,0c2.5,0,5-0.5,7.5-1c10.6-2.4,16.1-9.2,15.9-19.9c0-1.4,0.1-2.9,0.1-4.4
	c0.5-19.6,1.1-39.2,1.5-58.8c0-1.1,0.9-2.6-1.1-3.2C358.3,578.9,338.6,607.7,318.7,636.8z M129.3,791.5c24.3-11,48.1-21.8,71.9-32.7
	c-1.2-3.1-2.5-5.5-3.2-8.1c-0.8-2.7-2.2-3.7-5-3.6c-6.3,0.2-12.7-0.2-19,0.1c-14.4,0.5-26.5-4.9-36.8-14.5c-2.4-2.2-4.7-4.6-7.8-7.7
	C129.3,747.6,129.3,769.1,129.3,791.5z M294.8,747.8c3.6,11.3,8.8,20.6,17.6,27.6c10.9,8.7,26.8,9.1,38,0.8c1.2-0.9,2.8-1.7,3-3.6
	c-7.5-6.4-13.9-13.9-19.7-21.8c-1.2-1.6-2.2-3.1-4.7-3.1C317.9,747.8,306.6,747.8,294.8,747.8z M215,747.5
	c3.7,10.6,10.5,17.7,19.3,23.3c5.2,3.3,11,4.5,17.1,4c8.9-0.7,16.3-4.7,22.8-10.4c6.2-5.4,6.4-7.1,3.2-14.4
	c-0.7-1.7-1.6-2.6-3.6-2.5C254.5,747.5,235.1,747.5,215,747.5z"/>
<path class="st1" d="M576.9,641.1c-0.3,32.5-0.8,79.4-1.3,126.2c0,4.3-0.1,4.3-4.4,4.5c-1.8,0.1-3.6,0.1-5.4,0.1
	c-49,0.8-98,1.4-147.1,2.5c-11,0.3-21.7-0.3-32.2-3.3c-10.4-2.9-19.3-8.3-26.8-15.9c-5.7-5.7-10.7-11.9-15-18.6
	c-3-4.7-6.7-7.5-12.7-6c-1.5,0.4-3.3,0.1-4.9,0.1c-53.4-0.3-106.8-0.6-160.2-0.8c-4,0-7.5-1-10.8-2.9c-7.5-4.4-13.8-10-17.6-18
	c-6-12.4-4.7-24.6,1.3-36.6c0.7-1.3,1.5-2.5,2.3-3.7c5.9-9.6,14.3-14.6,25.7-14.2c3.1,0.1,6.2-0.1,9.3-0.1c54.1,0,108.2,0,162.3,0
	c7.3,0,14.5,0.2,21.7-0.8c17.3-2.4,27-12.7,31.9-28.7c0.8-2.6,1.3-5.3,1.4-8c0.7-27.8,1.5-55.5,2.3-83.3c0-1.6,0.4-3.6-0.3-4.8
	c-1.7-3-0.4-5,1.2-7.3c16.9-24.7,33.8-49.4,50.7-74.2c2.8-4.1,2.8-4.1,7.8-2.6c38.8,11.4,77.5,22.9,116.3,34.3
	c0.5,0.2,1.1,0.3,1.6,0.4c4.6,1.4,4.6,1.4,4.6,6.2C577.9,532.8,577.5,579.8,576.9,641.1z"/>
<path class="st1" d="M186.2,637.4c1.8-2.6,3-4.4,4.2-6.1c126.2-176.4,252.5-352.9,378.7-529.3c4.8-6.6,9.5-13.3,14.3-19.9
	c2.4-3.3,2.4-3.3,5.8-1.1c19.3,12.3,38.6,24.5,57.9,36.8c4.7,3,4.1,2.6,1.2,6.8c-34.3,50.2-68.6,100.4-102.9,150.6
	c-81.3,119-162.7,238-243.8,357.1c-2.7,4-5.5,5.3-10.1,5.2c-33.2-0.2-66.5-0.1-99.7-0.1C190.2,637.4,188.7,637.4,186.2,637.4z"/>
<path class="st1" d="M594.1,611.8c0.5-51,1-102,1.5-153c0.1-8.2,3.5-11.7,11.7-12.2c1.4-0.1,2.9,0,4.4,0c33.2,0.2,66.5,0.4,99.7,0.6
	c2.4,0,4.7,0.1,7,0.5c5.2,0.9,8.3,4.3,8.9,9.6c0.1,1.3,0.1,2.5,0.1,3.8c-0.3,59.6-0.6,119.1-0.8,178.7c0,3.1-1.1,4.3-3.8,5.5
	c-37.1,15.6-66.4,40.4-87.4,74.8c-10.8,17.7-18,36.7-22.3,56.9c-1,4.9-1,4.9-6,4.4c-10.1-1-14.7-5.7-14.6-15.9
	c0.1-25.1,0.6-50.1,0.8-75.2c0.1-26.1,0-52.3,0-78.4C593.6,611.8,593.9,611.8,594.1,611.8z"/>
<path class="st1" d="M317.6,424.3c-8.9,12.4-17.7,24.8-26.6,37.2c-40.9,57.1-81.8,114.3-122.6,171.4c-2.2,3.1-4.5,4.9-8.6,5.6
	c-13.4,2.4-24.1,9.2-31.8,20.8c-9.1,13.7-14.3,28.4-14,45c0.1,7.3-0.1,14.5-0.2,21.8c-0.1,4.1-0.6,4.6-4.5,5.3
	c-4.2,0.8-8.5,0.4-12.4-0.8c-17.2-5.1-30.8-14.9-36.6-32.6c-2.6-8.1-2.4-16.4,2.6-24c22.3-34.4,44.6-68.8,66.9-103.3
	c15-23.1,30.5-46,44.9-69.5c6.8-11.1,15.7-19.2,26.8-25.6c13.5-7.8,27.6-14.4,42-20.5c22.5-9.6,45-19.3,67.5-28.9c2-0.8,4-1.6,6-2.4
	C317.1,423.9,317.4,424.1,317.6,424.3z"/>
<path class="st1" d="M318.7,636.8c19.9-29.1,39.6-58,59.3-86.8c1.9,0.6,1.1,2.2,1.1,3.2c-0.5,19.6-1,39.2-1.5,58.8
	c0,1.5-0.2,2.9-0.1,4.4c0.2,10.8-5.3,17.5-15.9,19.9c-2.5,0.6-5,1-7.5,1c-11.1,0-22.1,0-33.2,0C320.2,637.3,319.8,637.1,318.7,636.8
	z"/>
<path class="st1" d="M129.3,791.5c0-22.4,0-43.9,0-66.6c3.1,3.1,5.4,5.5,7.8,7.7c10.4,9.6,22.4,15,36.8,14.5
	c6.3-0.2,12.7,0.1,19-0.1c2.8-0.1,4.2,0.9,5,3.6c0.7,2.6,2,5,3.2,8.1C177.4,769.6,153.6,780.4,129.3,791.5z"/>
<path class="st1" d="M294.8,747.8c11.8,0,23.1,0.1,34.3-0.1c2.5,0,3.5,1.5,4.7,3.1c5.8,8,12.1,15.4,19.7,21.8
	c-0.3,1.9-1.8,2.7-3,3.6c-11.2,8.3-27.1,7.9-38-0.8C303.6,768.3,298.4,759.1,294.8,747.8z"/>
<path class="st1" d="M215,747.5c20.1,0,39.5,0,58.9,0c2,0,2.8,0.9,3.6,2.5c3.2,7.3,3,9-3.2,14.4c-6.5,5.7-13.9,9.7-22.8,10.4
	c-6.1,0.5-11.9-0.8-17.1-4C225.5,765.2,218.7,758,215,747.5z"/>
<path class="st2" d="M792.1,944.3c-66.3,0-121.3-45.8-132.9-109.1c-11.3-61.6,23.4-125,81.8-148.9c39.8-16.3,79.3-15,117.1,5.5
	c36.4,19.7,58.9,50.6,66.8,91.3C938.9,856,890.6,927.8,814.6,942C806.6,943.5,798.4,944.1,792.1,944.3z M794,692.4
	c-20.4-0.1-39.5,4.8-57.4,14.5c-55.4,30-78.2,98.4-51.7,154.1c28.4,59.7,100,83.2,159.2,53.6c48.9-24.5,75.3-79,63.7-131
	C895.7,729.6,849.4,692.4,794,692.4z"/>
<path class="st2" d="M793.8,836.8c-17.7-0.1-32.3-14.7-32.2-32.2c0.2-17.3,14.4-31.2,31.8-31.2c18,0,32.6,14.6,32.4,32.5
	C825.6,823.1,811.4,836.9,793.8,836.8z M778.7,804.6c-0.1,8.3,6.7,15.2,15.1,15.3c8.3,0.1,15-6.5,15-14.7c-0.1-8.3-7-15.1-15.5-15
	C785.2,790.3,778.8,796.6,778.7,804.6z"/>
<path class="st2" d="M721.8,837.9c-17.7-0.1-32.3-14.7-32.2-32.2c0.2-17.3,14.4-31.2,31.8-31.2c18,0,32.6,14.6,32.3,32.5
	C753.6,824.2,739.4,838,721.8,837.9z M721.4,791.4c-8.2,0.1-14.6,6.4-14.6,14.4c0,8.3,6.8,15.2,15.2,15.3c8.3,0.1,15-6.6,14.9-14.7
	C736.8,798,729.8,791.3,721.4,791.4z"/>
<path class="st2" d="M864.4,836.8c-17.8,0.1-32.3-14.2-32.4-31.9c0-17.4,13.8-31.4,31.3-31.6c18-0.1,32.9,14.5,32.8,32.2
	C896.1,822.8,881.9,836.7,864.4,836.8z M879.1,805.2c-0.1-8.3-7.1-15-15.5-14.9c-8.1,0.1-14.7,6.5-14.7,14.4
	c0,8.1,7.1,15.2,15.4,15.2C872.5,820.1,879.2,813.4,879.1,805.2z"/>
<path class="st3" d="M350,519.9l22,22c5.2,5.2,13.7,5.2,18.9,0l22-22c5.2-5.2,5.2-13.7,0-18.9l-22-22c-5.2-5.2-13.7-5.2-18.9,0
	l-22,22C344.8,506.3,344.8,514.7,350,519.9z"/>
<path class="st3" d="M350,584.1l22,22c5.2,5.2,13.7,5.2,18.9,0l22-22c5.2-5.2,5.2-13.7,0-18.9l-22-22c-5.2-5.2-13.7-5.2-18.9,0
	l-22,22C344.8,570.4,344.8,578.8,350,584.1z"/>
<path class="st2" d="M655.6,943.4l17.3,17.3c2.5,2.5,6.6,2.5,9.1,0l17.3-17.3c2.5-2.5,2.5-6.6,0-9.1L682,916.9
	c-2.5-2.5-6.6-2.5-9.1,0l-17.3,17.3C653.1,936.8,653.1,940.8,655.6,943.4z"/>
<circle class="st4" cx="790.2" cy="809.2" r="171.2"/>
</svg>
