<?xml version="1.0" encoding="utf-8"?>
<!-- Generator: Adobe Illustrator 28.0.0, SVG Export Plug-In . SVG Version: 6.00 Build 0)  -->
<svg version="1.1" id="Capa_1" xmlns="http://www.w3.org/2000/svg" xmlns:xlink="http://www.w3.org/1999/xlink" x="0px" y="0px"
	 viewBox="0 0 1080 1080" style="enable-background:new 0 0 1080 1080;" xml:space="preserve">
<style type="text/css">
	.st0{fill:#090A0A;}
	.st1{fill:#FFFFFF;}
	.st2{fill:#FDFDFD;}
	.st3{fill:#DBB300;}
	.st4{fill:#6EE1EB;}
	.st5{fill:none;stroke:#DBB300;stroke-width:19;stroke-miterlimit:10;}
</style>
<path class="st0" d="M753.7,538.7c3.9,0.4,7.6,0.9,11.4,1.3c4.2,0.5,8.1,1.9,12.1,3.2c7.7,2.4,11.2,7.5,9.3,17.5
	c-1.7,9.1-4,18.1-6.1,27.1c-3.3,14.7-6.7,29.3-10,43.8c0.9,1,1.8,0.9,2.7,0.8c13.2-1.4,26.5-1.5,39.7,0
	c53.6,6.3,96.5,31.4,127.3,75.7c44.1,63.4,40.4,148.7-8.6,209.6c-30.2,37.5-69.2,60.5-117,67.3c-60.6,8.6-113.2-8.8-156.3-52.4
	c-27.7-28.1-43.1-62.4-47.6-101.6c-0.5-4.5-1-9-0.9-13.6c0-1.9-0.7-2.6-2.6-2.5c-1.6,0.1-3.3,0-4.9,0c-65.4,0.4-130.8,0.7-196.2,1.1
	c-8.7,0.1-17.4,1.4-26.1,0.1c-5.6-0.8-11.1-2-16.2-4.3c-10.4-4.6-15.6-12.5-15.7-23.9c-0.2-31.8-0.5-63.6-0.7-95.4
	c0-2.4-0.2-4.7,0.5-7c1.2-3.7,3.9-5.9,7.5-6c4-0.2,6.9,1.9,8.3,5.7c0.8,2.3,0.7,4.7,0.7,7c0.2,30.5,0.4,61,0.6,91.5
	c0,1.5,0.1,2.9,0.1,4.4c-0.1,4.2,2,6.8,5.8,8.3c4.4,1.8,9,3,13.8,3c73-1.3,146-0.6,219-1.5c6.6-0.1,6.5-0.1,7.2-6.7
	c2.2-19.8,8.1-38.6,16.5-56.7c0.8-1.7,2.2-3.3,2.1-5.6c-2-0.8-4-0.4-5.9-0.4c-58.8,0.2-117.7,0.4-176.5,0.7c-3.8,0-7.5-0.1-10.9-2.5
	c-4.3-3-5.7-6.6-4.6-11.7c2.6-12.2,5.1-24.5,7.7-36.8c1.6-7.5,3.2-14.9,4.7-22.4c0.3-1.4,0.8-2.8,0.3-4.3c-1.7-0.8-3.6-0.4-5.4-0.4
	c-46.3-0.3-92.6-0.6-138.9-1c-8.5-0.1-16.5-2.2-23.5-7.2c-14.5-10.2-24.2-23.9-28.9-41c-1.2-4.2-1.3-8.6-1.3-13
	c0-36.1,0-72.3,0-108.4c0-5.1-0.1-10.2-0.3-15.2c-0.7-14.7,3-28.5,9-41.6c11.2-24.8,27.6-45.5,49.6-61.7
	c9.1-6.7,19.1-11.9,30.1-14.8c2.5-0.7,4.9-1.1,7.5-1.1c39.8-0.3,79.6-0.6,119.3-0.9c2.3,0,4.7-0.2,7,0.6c3.7,1.3,6.2,4.5,6.1,8.1
	c-0.1,3.5-2.4,6.4-5.9,7.7c-2.3,0.9-4.7,0.7-7,0.7c-37.2,0.2-74.5,0.6-111.7,0.5c-9.6,0-18.2,2.5-26.4,7.1
	c-15.9,9.1-28.5,21.8-39.1,36.5c-9.5,13.2-16.9,27.5-20.3,43.6c-0.5,2.3-0.8,4.6-0.8,7c0,44.3,0,88.6,0.1,133
	c0,16.4,13.6,36.3,28.9,42.3c2.2,0.9,4.5,1.2,6.9,1.2c48.3,0.1,96.6,0.3,144.9,0.4c4.5,0,4.5,0,5.4-4c5.3-25.8,10.7-51.5,16-77.3
	c0.2-0.9,0.6-1.7,0-2.7c-1.8-0.6-3.8-0.3-5.8-0.3c-31.2-0.2-62.5-0.3-93.7-0.4c-3.9,0-7.5-0.7-10.9-2.7c-2.9-1.7-4.6-4.1-4.9-7.4
	c-0.2-1.8-0.2-3.6-0.2-5.4c-0.3-18-0.5-36-0.8-53.9c0-1.6,0-3.3,0.3-4.9c0.7-4.2,3.7-6.9,7.8-7c4.2-0.2,7.7,2.5,8.6,6.8
	c0.4,1.8,0.3,3.6,0.3,5.4c0.3,16,0.5,32,0.8,47.9c0.1,4.2,0.1,4.3,4.1,4.3c27.2,0.1,54.5,0.1,81.7,0.2c0.8,0,1.8,0.4,2.6-0.9
	c-1.4-1.4-2.9-3-4.4-4.4c-10.9-10.7-21.8-21.3-32.8-32c-1.3-1.3-2.6-2.6-3.6-4.1c-2.3-3.5-1.7-7.7,1.1-10.5c2.6-2.6,6.7-3.2,10-1.2
	c1.7,1,3.1,2.5,4.5,3.9c12.5,12.2,25,24.3,37.5,36.5c1,1,2.1,1.9,3.4,3.2c1.1-1.4,1.3-2.8,1.6-4.2c11.6-55.9,23.3-111.9,34.9-167.8
	c1.6-7.7,3.1-8.9,10.9-9.2c2.9-0.1,5.8-0.2,8.7-0.2c83.7,0.3,167.5,0.6,251.2,0.8c1.3,0,2.5,0,3.8,0.1c4.6,0.5,7.2,2.9,8,7.4
	c0.6,3.5,0.1,6.9-0.6,10.3c-11.8,58.3-23.6,116.6-35.4,174.9C753.8,536.4,753.8,537.5,753.7,538.7z M731.9,641.6
	c-2.3-1.3-3.9-2.2-5.4-3c-23.3-13.1-38-45.3-22.9-72.7c6.5-11.9,16-20,28.6-24.6c2.5-0.9,4.2-1.7,4.3-4.6c0-1.1,0.5-2.1,0.7-3.2
	c10.1-50.1,20.2-100.3,30.4-150.4c1.6-7.8,3.1-15.6,4.7-23.7c-2.7,0-4.8,0-7,0c-78.6-0.2-157.3-0.5-235.9-0.7c-0.9,0-1.8,0.1-2.7,0
	c-2.6-0.3-3.9,0.6-4.4,3.4c-0.9,5.5-2.3,11-3.4,16.5c-11.1,53.1-22.1,106.2-33.1,159.3c-10.7,51.7-21.5,103.3-32.2,155
	c-1.3,6.3-2.6,12.7-4,19.4c2,0,3.4,0,4.9,0c60.8-0.3,121.7-0.6,182.5-0.8c3.1,0,4.8-1.1,6.6-3.5c18.2-24.9,40.7-44.7,68.9-57.8
	C718.5,647.2,724.7,644.4,731.9,641.6z M954,815.6c-0.1-56.8-21.8-102.1-58.7-131.7c-52.4-42-124.9-47.6-184.4-14.3
	c-25.7,14.4-46.4,34.3-61.4,59.6c-21.3,36-28.3,74.8-19.5,115.8c15.2,71.7,78,123.8,154.6,125.4c26,0.5,51-4.5,74.3-16.2
	C919.7,923.8,950.9,874.1,954,815.6z M752.4,556.1c-2.2,0-4.4-0.1-6.5,0c-11.5,0.3-19.9,6-25.9,15.4c-6,9.4-7.2,19.5-3.4,30.1
	c4,11.1,11.5,19.1,21.8,24.6c3.2,1.7,6.6,3,10.3,3.3c4.7,0.4,4.8,0.4,5.8-4c2.7-11.6,5.3-23.3,8-34.9c2.1-9.3,4.3-18.7,6.4-28
	c1-4.3,0.9-4.2-3.5-5.4C761.1,556.1,756.7,556.4,752.4,556.1z"/>
<path class="st0" d="M806.9,92.4c32.3,0.6,63.2,8.5,90.4,27.9c18.5,13.2,32.5,30.1,39.3,52.1c8,26.1,3.7,50.6-11.2,73.3
	c-13.1,19.9-31.2,33.8-52.9,43c-46.8,19.8-93.5,19.1-139.6-2.5c-3-1.4-5-1.3-7.8,0.6c-15.8,10.7-33.4,16.4-52.2,18.8
	c-2.5,0.3-5.1,0.2-7.6-0.4c-7.1-1.9-9.9-8.5-6.1-14.9c0.9-1.5,2.2-2.9,3.4-4.3c8.6-10.6,16.1-21.9,22-34.3c1.5-3.2,1.5-5.4-0.4-8.4
	c-8.9-14.1-13.5-29.6-13.3-46.4c0.2-18.4,6.2-34.9,16.7-49.8c13.3-18.7,31.1-31.7,51.9-40.9C760.7,96.8,783.1,92.8,806.9,92.4z
	 M683.9,285.6c1.7,0.6,2.5,0.2,3.4,0c12.6-3.3,24.1-9.2,34.6-16.7c4.8-3.4,8.7-3,13.5-0.5c44.6,22.8,89.9,23.4,135.2,2.5
	c17.1-7.9,31.5-19.6,41.5-35.8c15.6-25.1,15.6-50.4,0-75.5c-8.7-14.1-21.1-24.4-35.4-32.4c-17-9.5-35.3-14.9-54.7-16.8
	c-27.9-2.8-54.7,1.2-80,13.3c-18.4,8.8-34,21.1-44.3,39c-13.5,23.6-13.3,47.3,0.2,70.9c1.4,2.4,3,4.5,4.4,6.9
	c1.6,2.7,1.9,5.5,0.5,8.3C697,261.2,692.1,274.2,683.9,285.6z"/>
<path class="st0" d="M491.4,59.3c56.2-0.1,107.4,38.4,122.7,93.7c18,65-19.3,131.9-84.4,151.5c-61.4,18.5-127.4-10.9-154.6-69
	c-28.9-61.6-2.3-135.2,59.4-164C451.9,63.4,470.2,59.2,491.4,59.3z M601.6,184.4c0.1-11-2.1-23.5-6.6-35.5
	C572,86.5,497.7,57.8,438.5,88.5c-52,27-72.7,89.1-47.2,141.7c22.7,46.8,76.6,72.1,127.4,59.6C567.8,277.8,601.5,235.7,601.6,184.4z
	"/>
<path class="st1" d="M731.9,641.6c-7.2,2.7-13.4,5.5-19.5,8.4c-28.1,13.2-50.7,32.9-68.9,57.8c-1.8,2.4-3.5,3.5-6.6,3.5
	c-60.8,0.2-121.7,0.5-182.5,0.8c-1.4,0-2.9,0-4.9,0c1.4-6.7,2.7-13.1,4-19.4c10.7-51.7,21.4-103.3,32.2-155
	c11-53.1,22.1-106.2,33.1-159.3c1.1-5.5,2.5-11,3.4-16.5c0.5-2.8,1.8-3.7,4.4-3.4c0.9,0.1,1.8,0,2.7,0c78.6,0.2,157.3,0.5,235.9,0.7
	c2.2,0,4.3,0,7,0c-1.6,8.2-3.1,16-4.7,23.7c-10.1,50.1-20.2,100.3-30.4,150.4c-0.2,1.1-0.7,2.1-0.7,3.2c-0.1,2.9-1.8,3.8-4.3,4.6
	c-12.6,4.5-22.1,12.7-28.6,24.6c-15.1,27.4-0.4,59.6,22.9,72.7C728,639.5,729.6,640.3,731.9,641.6z"/>
<path class="st2" d="M752.4,556.1c4.3,0.3,8.7,0,13,1.1c4.4,1.1,4.4,1.1,3.5,5.4c-2.1,9.4-4.3,18.7-6.4,28
	c-2.7,11.6-5.3,23.3-8,34.9c-1,4.5-1.1,4.4-5.8,4c-3.7-0.3-7.1-1.6-10.3-3.3c-10.2-5.5-17.8-13.5-21.8-24.6
	c-3.8-10.6-2.6-20.7,3.4-30.1c6-9.4,14.4-15.1,25.9-15.4C748.1,556,750.2,556.1,752.4,556.1z"/>
<path class="st2" d="M683.9,285.6c8.3-11.5,13.1-24.4,19-36.9c1.4-2.9,1.1-5.7-0.5-8.3c-1.4-2.3-3-4.5-4.4-6.9
	c-13.6-23.6-13.8-47.3-0.2-70.9c10.3-17.9,25.9-30.2,44.3-39c25.4-12.2,52.1-16.1,80-13.3c19.4,1.9,37.7,7.3,54.7,16.8
	c14.3,8,26.7,18.4,35.4,32.4c15.5,25.1,15.6,50.4,0,75.5c-10.1,16.2-24.4,27.9-41.5,35.8c-45.4,20.9-90.6,20.3-135.2-2.5
	c-4.9-2.5-8.8-2.9-13.5,0.5c-10.5,7.5-21.9,13.4-34.6,16.7C686.4,285.8,685.6,286.3,683.9,285.6z M787.7,209.9
	c-8.6-9.1-16.6-17.7-24.7-26.2c-1.4-1.4-2.7-2.9-4.4-4c-3.3-2.2-7.2-1.8-10,0.8c-2.9,2.7-3.7,6.9-1.5,10.4c1.1,1.8,2.7,3.4,4.1,5
	c9.4,10.1,18.9,20.1,28.3,30.1c5.8,6.2,10.1,6.4,16,0.2c16.2-16.9,32.4-33.8,48.5-50.8c1.2-1.3,2.5-2.7,3.4-4.2
	c1.9-3.4,1.2-7.3-1.6-9.9c-2.6-2.4-6.4-3-9.6-1.2c-1.4,0.8-2.6,1.9-3.7,3.1c-4.3,4.4-8.6,8.9-12.8,13.3
	C809.2,187.5,798.7,198.5,787.7,209.9z"/>
<path class="st1" d="M601.6,184.4c-0.1,51.3-33.8,93.4-82.9,105.4c-50.8,12.4-104.7-12.8-127.4-59.6
	c-25.5-52.6-4.9-114.7,47.2-141.7c59.2-30.7,133.5-2,156.6,60.4C599.5,161,601.7,173.4,601.6,184.4z"/>
<path class="st3" d="M791.9,944.3c-66.1,0-121-45.7-132.7-109c-11.4-61.5,23.3-125,81.7-148.9c39.8-16.3,79.3-15,117.1,5.4
	c36.2,19.6,58.8,50.3,66.7,90.8c14.5,73.8-34.7,145.7-110.6,159.6C806.3,943.6,798.3,944.1,791.9,944.3z M791.8,692.4
	c-16.7-0.1-34.4,4.2-51.1,12.4c-57.9,28.5-83,98.7-55.9,156c28.6,60.3,100.7,83.3,159.6,53.7c48.3-24.4,74.5-77.8,63.8-129.6
	C896.9,730.5,849.6,692.3,791.8,692.4z"/>
<path class="st0" d="M787.7,209.9c10.9-11.4,21.5-22.4,32-33.4c4.3-4.5,8.5-8.9,12.8-13.3c1.1-1.2,2.4-2.3,3.7-3.1
	c3.2-1.8,7-1.2,9.6,1.2c2.8,2.6,3.5,6.5,1.6,9.9c-0.9,1.6-2.1,2.9-3.4,4.2c-16.1,16.9-32.3,33.9-48.5,50.8c-5.9,6.2-10.2,6-16-0.2
	c-9.4-10.1-18.9-20.1-28.3-30.1c-1.5-1.6-3-3.2-4.1-5c-2.2-3.5-1.4-7.7,1.5-10.4c2.8-2.6,6.8-3,10-0.8c1.6,1.1,3,2.6,4.4,4
	C771.1,192.2,779.2,200.8,787.7,209.9z"/>
<path class="st3" d="M794,836.8c-17.8,0-32.4-14.4-32.4-32c0-17.2,14.2-31.4,31.6-31.5c18.1-0.1,32.7,14.4,32.6,32.3
	C825.7,823,811.6,836.8,794,836.8z M793.3,790.3c-8.2,0.1-14.6,6.4-14.6,14.4c-0.1,8.3,6.7,15.2,15.2,15.3c8.3,0.1,15-6.5,15-14.7
	C808.7,797,801.8,790.2,793.3,790.3z"/>
<path class="st3" d="M721.8,837.9c-17.7-0.1-32.3-14.8-32.1-32.3c0.2-17.3,14.5-31.2,31.9-31.1c18,0,32.5,14.7,32.2,32.6
	C753.6,824.3,739.3,838,721.8,837.9z M736.9,806.6c0.1-8.3-6.8-15.1-15.2-15.2c-8.1-0.1-14.7,6.2-14.9,14.1
	c-0.2,8.5,6.9,15.6,15.5,15.5C730.3,821,736.8,814.6,736.9,806.6z"/>
<path class="st3" d="M864.4,836.8c-17.8,0.1-32.3-14.2-32.4-31.9c0-17.4,13.9-31.4,31.3-31.6c18-0.1,32.9,14.5,32.8,32.2
	C896,822.8,881.9,836.7,864.4,836.8z M879.1,805.3c0-8.3-7-15.1-15.4-15c-8.1,0-14.7,6.4-14.8,14.3c-0.1,8.3,7.4,15.6,15.8,15.4
	C872.8,819.8,879.1,813.3,879.1,805.3z"/>
<path class="st4" d="M231.2,487.5l22,22c5.2,5.2,13.7,5.2,18.9,0l22-22c5.2-5.2,5.2-13.7,0-18.9l-22-22c-5.2-5.2-13.7-5.2-18.9,0
	l-22,22C225.9,473.9,225.9,482.3,231.2,487.5z"/>
<path class="st4" d="M231.2,551.7l22,22c5.2,5.2,13.7,5.2,18.9,0l22-22c5.2-5.2,5.2-13.7,0-18.9l-22-22c-5.2-5.2-13.7-5.2-18.9,0
	l-22,22C225.9,538,225.9,546.4,231.2,551.7z"/>
<path class="st3" d="M661.3,951.8l17.3,17.3c2.5,2.5,6.6,2.5,9.1,0l17.3-17.3c2.5-2.5,2.5-6.6,0-9.1l-17.3-17.3
	c-2.5-2.5-6.6-2.5-9.1,0l-17.3,17.3C658.8,945.2,658.8,949.2,661.3,951.8z"/>
<circle class="st5" cx="790.1" cy="808.9" r="170.5"/>
</svg>
