<?xml version="1.0" encoding="utf-8"?>
<!-- Generator: Adobe Illustrator 28.0.0, SVG Export Plug-In . SVG Version: 6.00 Build 0)  -->
<svg version="1.1" id="Capa_1" xmlns="http://www.w3.org/2000/svg" xmlns:xlink="http://www.w3.org/1999/xlink" x="0px" y="0px"
	 viewBox="0 0 1080 1080" style="enable-background:new 0 0 1080 1080;" xml:space="preserve">
<style type="text/css">
	.st0{fill:#090909;}
	.st1{fill:#FEFEFE;}
	.st2{fill:#DBB300;}
	.st3{fill:#6EE1EB;}
	.st4{fill:none;stroke:#DBB300;stroke-width:20;stroke-miterlimit:10;}
</style>
<path class="st0" d="M728.7,642.8c8.2-2.7,15.7-5.1,23.5-6.9c20-4.6,40.3-5.8,60.6-3.4c53.7,6.3,96.5,31.3,127.3,75.7
	c44.1,63.4,40.4,148.7-8.6,209.6c-30.2,37.5-69.2,60.5-117,67.3c-60.6,8.6-113-9-156.4-52.4c-14.8-14.8-26.1-32.1-34.1-51.4
	c-1.5-3.5-3.3-4.3-6.9-4.3c-91.2-0.3-182.4-0.7-273.5-1c-7,0-13.7-1.4-20-4.5c-11.5-5.6-17.7-15.2-19.1-27.8
	c-0.4-3.8-0.2-7.6-0.2-11.4c-0.3-128.8-0.6-257.6-0.6-386.4c0-16.4,0.2-33.1,4.7-49.2c9.8-35.5,30.3-63.1,62.1-82.1
	c19.5-11.7,40.7-17.9,63.1-20.9c3-0.4,6.7,1.1,8.9-1.1c1.8-1.9,2-5.3,3-8c5.2-13.1,13.7-23.9,24.6-32.7
	c15.5-12.5,33.4-19.8,52.8-22.9c30.1-4.8,59-0.9,86.1,13.5c20.1,10.7,36,25.6,44.6,47.3c1.1,2.8,3.1,2.6,5.3,2.6
	c18.2-0.1,36.3-0.3,54.5-0.4c1.8,0,3.6-0.1,5.4,0c6.5,0.3,10,3.6,10.5,10.1c0.2,3.3,0.4,6.5,0.2,9.8c-0.6,9.6-0.3,19.2-0.3,28.9
	c-0.2,98.8-0.3,197.7-0.5,296.5C728.7,638.8,728.7,640.4,728.7,642.8z M616,859.5c-0.4-1.8-0.9-3.8-1.3-5.7
	c-5.9-24-6.9-48.2-2.3-72.4C622.7,727.1,652.2,686,699,657c3.2-2,6.7-3.7,10.1-5.2c2-0.9,2.8-2.1,2.6-4.2c-0.1-1.1,0-2.2,0-3.3
	c0.2-71.9,0.3-143.9,0.5-215.8c0.1-37.2,0.1-74.5,0.1-111.7c0-7.9-0.1-7.9-7.6-7.8c-85.7,0.4-171.5,0.8-257.2,1.2
	c-19.3,0.1-37.8,4.1-55.3,12.2c-34.3,15.8-57.2,41.7-67.1,78.3c-3.8,14.1-4.4,28.6-4.3,43.2c0.3,131.5,0.4,263.1,0.4,394.6
	c0,12.5,9.6,19.4,18.1,20c3.4,0.2,6.9,0.4,10.3,0.4c87.2,0.4,174.4,0.8,261.6,1.2C612.6,860.1,614.3,860.6,616,859.5z M954,815.2
	c-0.2-32.6-5.2-55.4-15.7-77c-30.4-62.9-98-97.9-167.5-88.5c-38.5,5.2-71.4,22-98.6,49.9c-44.3,45.5-57.8,112.8-34.4,171.6
	c22.6,56.4,77.8,97.8,146.1,99.5c26.2,0.6,51.4-4.4,74.8-16.1C919.6,924,950.9,874.3,954,815.2z M636.1,292.8
	c-0.1-3-1.4-4.5-2.4-6.2c-7.9-13.1-19.2-22.6-32.7-29.6c-23.1-12-47.7-15.7-73.4-11.9c-15.1,2.2-29.2,7.3-41.8,16
	c-10.5,7.3-18.9,16.4-23.9,28.3c-0.4,1-1.6,2.1-0.7,3.4C519.3,292.8,577.4,292.8,636.1,292.8z"/>
<path class="st0" d="M273.3,638.6c-0.3,33.8-0.6,81.2-1,128.6c-0.1,6.2-0.2,12.3-0.2,18.5c0,1.9-0.4,3.6-1.1,5.3
	c-9.2,22.9-18.3,45.8-27.4,68.7c-0.4,1-0.8,2-1.4,2.9c-2.1,3.4-5.4,4.8-9.3,4.6c-3.6-0.2-6.2-2.1-7.6-5.3c-1-2.3-1.8-4.8-2.6-7.1
	c-6.8-19.3-13.5-38.7-20.5-57.9c-2.1-5.6-2.4-11.3-2.4-17.1c0-3.3,0.3-6.5,0.3-9.8c0.7-99.4,1.4-198.7,2.1-298.1
	c0-5.8,0.5-11.6,1.8-17.3c3.6-16.8,17-28.5,32.9-29c16.3-0.5,30.5,10.3,35.3,26.9c1.8,6,2.3,12.1,2.3,18.3
	C274,522.1,273.7,573.5,273.3,638.6z M234,836.4c1.7-1.8,2.1-3.7,2.8-5.5c5.6-13.8,11-27.6,16.6-41.4c1.5-3.6,2.1-7.2,2.1-11.1
	c0.4-77.4,0.9-154.8,1.4-232.2c0-0.9-0.1-1.8,0-2.7c0.2-1.9-0.7-2.5-2.5-2.5c-4.2,0-8.4-0.1-12.5-0.1c-6.9-0.1-13.8-0.1-20.7-0.3
	c-2,0-3.1,0.6-2.9,2.8c0.1,0.7,0,1.5,0,2.2c-0.6,78.7-1.2,157.3-1.8,236c0,3.5,0.4,6.8,1.7,10.1c3.6,9.7,6.9,19.5,10.3,29.3
	C230.3,826,232.1,831.1,234,836.4z M237.9,483.3c0,0.1,0,0.3,0,0.4c5.6,0,11.2,0,16.8,0c1.6,0,2.8-0.3,2.8-2.3
	c0.2-8.5,0.4-17.1-2.1-25.3c-2.3-7.4-7.4-12.6-15.3-13.7c-7.4-1-13,2.4-17,8.4c-2,3-3.2,6.5-3.7,10.1c-0.9,6.3-0.4,12.7-0.8,19
	c-0.2,2.7,1,3.4,3.5,3.4C227.4,483.2,232.6,483.3,237.9,483.3z M237.6,523.9c0,0.1,0,0.1,0,0.2c5.6,0,11.2,0,16.9,0
	c1.7,0,2.7-0.4,2.7-2.4c0-6.2,0-12.3,0.1-18.5c0-2-0.9-2.4-2.6-2.5c-11.1-0.2-22.1-0.5-33.2-0.8c-2-0.1-2.9,0.5-2.9,2.7
	c0.1,6.2,0,12.3-0.1,18.5c0,2.2,0.8,2.8,2.8,2.8C226.7,523.8,232.2,523.9,237.6,523.9z"/>
<path class="st0" d="M545.5,83.3c18,0.2,34.3,5.6,48.2,17.1c32.1,26.6,32.6,73.3,1.3,100.6c-26.4,23.1-67.1,24.7-95.3,3.7
	c-37-27.6-36.4-80.5,1.3-107.4C514.4,87.9,529.2,83.2,545.5,83.3z M545.2,202.6c13.7,0,26.1-4.1,36.9-12.6
	c22.9-18.1,25.8-49.7,6.6-71.3c-22.7-25.5-66.7-24.4-88.2,2.1c-15.1,18.6-15,44,0.5,62C512.5,196.3,527.6,202.4,545.2,202.6z"/>
<path class="st1" d="M616,859.5c-1.7,1.1-3.4,0.7-5,0.7c-87.2-0.4-174.4-0.8-261.6-1.2c-3.4,0-6.9-0.2-10.3-0.4
	c-8.5-0.5-18.1-7.5-18.1-20c0.1-131.5-0.1-263.1-0.4-394.6c0-14.6,0.6-29.1,4.3-43.2c9.9-36.6,32.8-62.5,67.1-78.3
	c17.5-8.1,36-12.1,55.3-12.2c85.7-0.4,171.5-0.8,257.2-1.2c7.6,0,7.6,0,7.6,7.8c0,37.2,0,74.5-0.1,111.7
	c-0.1,71.9-0.3,143.9-0.5,215.8c0,1.1-0.1,2.2,0,3.3c0.2,2.1-0.6,3.3-2.6,4.2c-3.5,1.5-6.9,3.3-10.1,5.2
	c-46.8,28.9-76.3,70.1-86.6,124.3c-4.6,24.2-3.6,48.4,2.3,72.4C615.2,855.7,615.6,857.6,616,859.5z M435.5,520.2
	c0,7.4-2.7,12.3-8.3,14.7c-13.1,5.8-25.7-2.1-28.5-12.6c-0.5-1.8-0.9-3.5-2-5c-2.1-3.1-5.6-4.3-9.1-3.4c-3.5,0.9-5.8,3.8-6,7.6
	c-0.1,2,0.4,3.9,1,5.9c3.2,11.3,10.7,18.9,21.3,23.2c4.4,1.8,7.2,3.7,6.4,8.8c-0.1,0.3,0.1,0.7,0.2,1.1c1,3.9,4.4,6.7,8.3,6.6
	c3.9-0.1,7.2-3,7.9-7c0.2-1.2,0.3-2.5,0.2-3.8c-0.2-2.5,0.4-3.9,3.3-4.5c3.5-0.7,6.8-2.4,9.7-4.7c18.7-14.8,16.4-42.3-4.7-53.6
	c-6.1-3.2-12.4-5.9-19.1-7.9c-3.7-1.1-6.9-3.1-9.7-5.8c-2.6-2.5-3.5-5.4-3-8.9c1-6.2,3.8-11.5,8.7-15.2c8.4-6.4,18-5.9,23.9,4.5
	c1.9,3.4,2.7,7.1,3.4,10.8c0.9,4.9,4,7.4,8.1,7c4-0.4,6.8-3.7,6.7-8.5c-0.3-7.4-2.5-14.3-6.6-20.5c-3.8-5.8-8.7-10.5-15.3-12.4
	c-4.4-1.3-6.5-3.2-5.8-7.8c0.1-0.5-0.2-1.1-0.3-1.6c-1-3.8-3.8-6-7.4-5.9c-3.8,0.1-6.6,2.8-7,7c-0.2,1.6-0.2,3.3-0.2,4.9
	c0.1,2.4-0.7,3.8-3.1,5c-10.2,5-16.6,13.3-20.1,23.9c-4.4,13.1-1.4,23.3,9.2,32.1c3.8,3.2,8,5.5,12.8,7c6.1,1.9,11.9,4.3,17.5,7.3
	C432.7,511.3,435.4,515.6,435.5,520.2z M518.9,612c0-0.3,0-0.5,0-0.8c-38,0-75.9,0-113.9,0c-2,0-4-0.2-5.9,0.5
	c-4,1.3-6.4,4.7-6.1,8.6c0.3,3.7,3,6.7,6.9,7.3c2,0.3,4,0.4,6,0.4c75.6,0.2,151.1,0.5,226.7,0.7c1.3,0,2.6,0,3.8-0.1
	c4.7-0.5,7.9-3.9,8-8.1c0.1-4.3-3.2-7.8-7.8-8.3c-1.6-0.2-3.3-0.1-4.9-0.1C594.1,612,556.5,612,518.9,612z M518.9,674.5
	c0-0.2,0-0.3,0-0.5c-37.8,0-75.6,0-113.3,0c-2,0-4,0-6,0.3c-3.6,0.6-6.1,3.6-6.5,7.1c-0.4,3.6,1.5,6.7,4.9,8.3
	c1.9,0.9,3.9,0.9,5.9,0.9c76.3,0.3,152.6,0.6,228.9,0.9c1.8,0,3.6,0,5.4-0.5c3.8-1.2,6.3-4.3,6.3-7.9c0-3.7-2.4-6.8-6.2-8
	c-2.1-0.7-4.3-0.6-6.5-0.6C594.1,674.5,556.5,674.5,518.9,674.5z M558.8,481.5C558.8,481.5,558.8,481.5,558.8,481.5
	c-24-0.1-48-0.1-71.9-0.1c-5.9,0-9.8,3.5-9.9,8.6c0,5.1,4,8.6,9.9,8.6c2.5,0,5.1-0.1,7.6-0.1c44.3,0,88.6,0,133,0
	c2.4,0,4.7,0.2,7-0.6c3.9-1.2,6.2-4.1,6.2-8c0-3.9-2.3-6.7-6.2-8c-2.1-0.7-4.3-0.5-6.5-0.5C604.9,481.5,581.8,481.5,558.8,481.5z"/>
<path class="st1" d="M636.1,292.8c-58.7,0-116.8,0-175,0c-0.9-1.2,0.2-2.3,0.7-3.4c5-11.9,13.4-21,23.9-28.3
	c12.6-8.7,26.7-13.8,41.8-16c25.7-3.8,50.3-0.2,73.4,11.9c13.4,7,24.7,16.5,32.7,29.6C634.6,288.2,636,289.8,636.1,292.8z"/>
<path class="st1" d="M234,836.4c-1.9-5.3-3.8-10.4-5.6-15.5c-3.4-9.8-6.7-19.5-10.3-29.3c-1.2-3.3-1.7-6.6-1.7-10.1
	c0.6-78.7,1.2-157.3,1.8-236c0-0.7,0.1-1.5,0-2.2c-0.2-2.2,0.9-2.8,2.9-2.8c6.9,0.1,13.8,0.2,20.7,0.3c4.2,0,8.4,0.2,12.5,0.1
	c1.8,0,2.7,0.6,2.5,2.5c-0.1,0.9,0,1.8,0,2.7c-0.5,77.4-1,154.8-1.4,232.2c0,3.9-0.6,7.5-2.1,11.1c-5.6,13.8-11.1,27.6-16.6,41.4
	C236.1,832.7,235.7,834.7,234,836.4z"/>
<path class="st1" d="M237.9,483.3c-5.3,0-10.5-0.1-15.8,0c-2.5,0.1-3.7-0.7-3.5-3.4c0.4-6.3-0.1-12.7,0.8-19
	c0.5-3.6,1.6-7.1,3.7-10.1c4-6.1,9.6-9.5,17-8.4c7.9,1.1,13.1,6.3,15.3,13.7c2.5,8.2,2.3,16.8,2.1,25.3c0,2-1.2,2.3-2.8,2.3
	c-5.6,0-11.2,0-16.8,0C237.9,483.5,237.9,483.4,237.9,483.3z"/>
<path class="st1" d="M237.6,523.9c-5.4,0-10.9-0.1-16.3,0c-2.1,0-2.9-0.6-2.8-2.8c0.1-6.2,0.2-12.3,0.1-18.5c0-2.2,0.9-2.8,2.9-2.7
	c11.1,0.3,22.1,0.6,33.2,0.8c1.7,0,2.7,0.5,2.6,2.5c-0.1,6.2-0.2,12.3-0.1,18.5c0,2-0.9,2.4-2.7,2.4c-5.6-0.1-11.2,0-16.9,0
	C237.6,524,237.6,523.9,237.6,523.9z"/>
<path class="st1" d="M545.2,202.6c-17.6-0.1-32.7-6.3-44.2-19.7c-15.5-18-15.6-43.4-0.5-62c21.5-26.5,65.5-27.6,88.2-2.1
	c19.2,21.5,16.3,53.2-6.6,71.3C571.3,198.5,558.9,202.6,545.2,202.6z"/>
<path class="st0" d="M435.5,520.2c-0.1-4.6-2.8-8.8-7.8-11.6c-5.6-3.1-11.4-5.5-17.5-7.3c-4.8-1.5-9-3.8-12.8-7
	c-10.6-8.8-13.6-19-9.2-32.1c3.5-10.6,10-18.9,20.1-23.9c2.4-1.2,3.2-2.6,3.1-5c-0.1-1.6,0-3.3,0.2-4.9c0.5-4.1,3.3-6.8,7-7
	c3.6-0.1,6.4,2,7.4,5.9c0.1,0.5,0.4,1.1,0.3,1.6c-0.6,4.6,1.5,6.5,5.8,7.8c6.7,1.9,11.6,6.6,15.3,12.4c4,6.2,6.3,13.1,6.6,20.5
	c0.2,4.8-2.6,8.1-6.7,8.5c-4.1,0.4-7.3-2.1-8.1-7c-0.7-3.8-1.5-7.5-3.4-10.8c-5.9-10.4-15.4-10.9-23.9-4.5
	c-4.9,3.8-7.7,9.1-8.7,15.2c-0.6,3.5,0.4,6.4,3,8.9c2.8,2.7,6,4.7,9.7,5.8c6.6,2,13,4.7,19.1,7.9c21.1,11.3,23.5,38.8,4.7,53.6
	c-2.9,2.3-6.2,4-9.7,4.7c-2.8,0.6-3.5,2-3.3,4.5c0.1,1.3,0.1,2.6-0.2,3.8c-0.7,4-4,6.9-7.9,7c-3.9,0.1-7.3-2.6-8.3-6.6
	c-0.1-0.4-0.2-0.7-0.2-1.1c0.8-5.1-2-7-6.4-8.8c-10.5-4.3-18.1-11.9-21.3-23.2c-0.6-1.9-1-3.9-1-5.9c0.1-3.7,2.5-6.6,6-7.6
	c3.5-0.9,7,0.3,9.1,3.4c1,1.5,1.5,3.3,2,5c2.8,10.5,15.4,18.4,28.5,12.6C432.8,532.4,435.5,527.6,435.5,520.2z"/>
<path class="st0" d="M518.9,612c37.6,0,75.2,0,112.8,0c1.6,0,3.3-0.1,4.9,0.1c4.6,0.5,7.8,4.1,7.8,8.3c-0.1,4.3-3.3,7.6-8,8.1
	c-1.3,0.1-2.5,0.1-3.8,0.1c-75.6-0.2-151.1-0.4-226.7-0.7c-2,0-4,0-6-0.4c-3.9-0.7-6.6-3.6-6.9-7.3c-0.3-4,2.1-7.3,6.1-8.6
	c2-0.6,4-0.5,5.9-0.5c38,0,75.9,0,113.9,0C518.9,611.4,518.9,611.7,518.9,612z"/>
<path class="st0" d="M518.9,674.5c37.6,0,75.2,0,112.8,0c2.2,0,4.3-0.1,6.5,0.6c3.8,1.2,6.3,4.3,6.2,8c0,3.7-2.5,6.7-6.3,7.9
	c-1.8,0.6-3.6,0.5-5.4,0.5c-76.3-0.3-152.6-0.6-228.9-0.9c-2,0-4,0-5.9-0.9c-3.3-1.6-5.2-4.8-4.9-8.3c0.4-3.5,2.9-6.5,6.5-7.1
	c1.9-0.3,4-0.3,6-0.3c37.8,0,75.6,0,113.3,0C518.9,674.2,518.9,674.3,518.9,674.5z"/>
<path class="st0" d="M558.8,481.5c23.1,0,46.1,0,69.2,0c2.2,0,4.3-0.2,6.5,0.5c3.9,1.3,6.2,4.1,6.2,8c0,3.9-2.2,6.7-6.2,8
	c-2.3,0.7-4.7,0.6-7,0.6c-44.3,0-88.6,0-133,0c-2.5,0-5.1,0.1-7.6,0.1c-5.9,0-9.9-3.5-9.9-8.6c0-5.1,4-8.6,9.9-8.6
	C510.8,481.4,534.8,481.4,558.8,481.5C558.8,481.5,558.8,481.5,558.8,481.5z"/>
<path class="st2" d="M792.1,944.5c-66.3,0-121.3-45.8-132.9-109.1c-11.3-61.6,23.4-125,81.8-148.9c39.8-16.3,79.3-15,117.1,5.5
	c36.4,19.7,58.9,50.6,66.8,91.4c14.1,72.8-34.2,144.7-110.2,158.9C806.6,943.7,798.4,944.3,792.1,944.5z M792.5,692.5
	c-17-0.1-34.7,4.1-51.4,12.3c-58.3,28.5-83.4,98.9-56.1,156.3c28.4,59.7,100,83.2,159.2,53.7c49.2-24.5,75.4-79.1,63.7-131.5
	C895.7,729.7,849.2,692.6,792.5,692.5z"/>
<path class="st2" d="M794,837c-17.8,0-32.4-14.4-32.4-32c0-17.2,14.2-31.4,31.6-31.5c18.1-0.1,32.7,14.4,32.6,32.3
	C825.7,823.1,811.6,836.9,794,837z M808.8,805.5c0-8.3-7-15.1-15.4-15.1c-8.1,0-14.6,6.3-14.7,14.3c-0.1,8.5,7.1,15.6,15.6,15.4
	C802.4,819.9,808.8,813.5,808.8,805.5z"/>
<path class="st2" d="M721.8,838c-17.7-0.1-32.3-14.7-32.1-32.3c0.2-17.3,14.4-31.2,31.8-31.2c18,0,32.5,14.6,32.3,32.6
	C753.6,824.4,739.4,838.2,721.8,838z M721.4,791.5c-8.2,0.1-14.6,6.4-14.6,14.4c-0.1,8.3,6.7,15.2,15.1,15.3c8.3,0.1,15-6.5,15-14.7
	C736.8,798.2,729.8,791.5,721.4,791.5z"/>
<path class="st2" d="M864.4,837c-17.8,0.1-32.3-14.2-32.4-31.9c0-17.4,13.9-31.5,31.3-31.6c18-0.1,33,14.5,32.8,32.2
	C896,823,881.9,836.9,864.4,837z M863.6,790.5c-8.1,0.1-14.7,6.5-14.7,14.4c-0.1,8.3,7.5,15.5,15.9,15.3c8.1-0.3,14.4-6.7,14.4-14.7
	C879,797.1,872,790.4,863.6,790.5z"/>
<path class="st3" d="M281.3,426.2l22,22c5.2,5.2,13.7,5.2,18.9,0l22-22c5.2-5.2,5.2-13.7,0-18.9l-22-22c-5.2-5.2-13.7-5.2-18.9,0
	l-22,22C276.1,412.5,276.1,421,281.3,426.2z"/>
<path class="st3" d="M281.3,490.3l22,22c5.2,5.2,13.7,5.2,18.9,0l22-22c5.2-5.2,5.2-13.7,0-18.9l-22-22c-5.2-5.2-13.7-5.2-18.9,0
	l-22,22C276.1,476.7,276.1,485.1,281.3,490.3z"/>
<path class="st2" d="M661,949.1l17.3,17.3c2.5,2.5,6.6,2.5,9.1,0l17.3-17.3c2.5-2.5,2.5-6.6,0-9.1l-17.3-17.3
	c-2.5-2.5-6.6-2.5-9.1,0L661,940C658.5,942.5,658.5,946.6,661,949.1z"/>
<circle class="st4" cx="790.3" cy="809.4" r="171"/>
</svg>
