<?xml version="1.0" encoding="utf-8"?>
<!-- Generator: Adobe Illustrator 28.0.0, SVG Export Plug-In . SVG Version: 6.00 Build 0)  -->
<svg version="1.1" id="Capa_1" xmlns="http://www.w3.org/2000/svg" xmlns:xlink="http://www.w3.org/1999/xlink" x="0px" y="0px"
	 viewBox="0 0 1080 1080" style="enable-background:new 0 0 1080 1080;" xml:space="preserve">
<style type="text/css">
	.st0{fill:#090A0A;}
	.st1{fill:#FFFFFF;}
	.st2{fill:#FDFDFD;}
	.st3{fill:#29E4A5;}
	.st4{fill:#6EE1EB;}
	.st5{fill:none;stroke:#29E4A5;stroke-width:19;stroke-miterlimit:10;}
</style>
<path class="st0" d="M629.6,729c-2-0.8-4-0.4-5.9-0.4c-58.9,0.2-117.7,0.4-176.6,0.7c-3.8,0-7.5-0.1-10.9-2.5
	c-4.3-3-5.7-6.6-4.6-11.7c2.6-12.2,5.1-24.5,7.7-36.8c1.6-7.5,3.2-14.9,4.7-22.4c0.3-1.4,0.7-2.8,0.4-4.3c-1.8-0.8-3.6-0.4-5.4-0.4
	c-46.3-0.3-92.6-0.6-139-1c-8.5-0.1-16.5-2.2-23.5-7.2c-14.5-10.2-24.2-23.9-28.9-41c-1.2-4.2-1.3-8.6-1.3-13c0-36,0-71.9,0-107.9
	c0-5.3-0.1-10.5-0.3-15.8c-0.7-14.7,3-28.5,9-41.7c11.2-24.8,27.6-45.5,49.6-61.8c9.1-6.7,19.1-11.9,30.1-14.8
	c2.5-0.7,4.9-1.1,7.5-1.1c39.8-0.3,79.6-0.6,119.3-0.9c2.3,0,4.7-0.2,7,0.6c3.7,1.3,6.2,4.5,6.1,8.1c-0.1,3.5-2.4,6.4-5.9,7.7
	c-2.3,0.9-4.7,0.7-7,0.7c-37.2,0.2-74.5,0.6-111.7,0.5c-9.6,0-18.2,2.5-26.4,7.1c-10.9,6.1-20.2,14.2-28.5,23.4
	c-12.7,14-22.6,29.7-28.6,47.8c-2.1,6.4-3.2,12.9-3.2,19.8c0.1,43.1,0.1,86.1,0.1,129.2c0,16.4,13.6,36.3,28.9,42.3
	c2.2,0.9,4.5,1.2,6.9,1.2c48.3,0.1,96.6,0.3,145,0.4c4.5,0,4.5,0,5.4-4c5.3-25.8,10.7-51.5,16-77.3c0.2-0.9,0.5-1.7,0-2.7
	c-1.9-0.7-3.9-0.3-5.9-0.4c-31.2-0.2-62.5-0.3-93.7-0.4c-3.9,0-7.5-0.7-10.9-2.7c-2.9-1.7-4.6-4.1-4.9-7.4c-0.2-1.8-0.2-3.6-0.2-5.4
	c-0.3-18-0.5-36-0.8-54c0-1.6,0-3.3,0.3-4.9c0.7-4.2,3.7-6.9,7.8-7c4.2-0.2,7.7,2.5,8.6,6.8c0.4,1.8,0.3,3.6,0.3,5.4
	c0.3,16,0.5,32,0.8,48c0.1,4.2,0.1,4.3,4.1,4.3c27.2,0.1,54.5,0.1,81.7,0.2c0.8,0,1.7-0.1,3.7-0.2c-2.4-2.2-4-3.6-5.5-5.1
	c-10.9-10.6-21.9-21.3-32.8-32c-1.3-1.3-2.6-2.6-3.6-4.1c-2.3-3.5-1.7-7.7,1.1-10.5c2.6-2.6,6.7-3.2,10-1.2c1.7,1,3.1,2.5,4.5,3.9
	c12.5,12.2,25,24.4,37.5,36.5c1,1,2.1,1.9,3.4,3.1c1.1-1.4,1.3-2.8,1.6-4.2c11.6-56,23.3-111.9,34.9-167.9c1.6-7.7,3.1-8.9,11-9.2
	c2.9-0.1,5.8-0.2,8.7-0.2c83.7,0.3,167.5,0.6,251.2,0.8c1.3,0,2.5,0,3.8,0.1c4.6,0.5,7.2,2.9,8,7.5c0.6,3.5,0.1,6.9-0.6,10.3
	c-11.8,58.3-23.6,116.7-35.4,175c-0.2,1.1-0.2,2.1-0.4,3.4c3.9,0.4,7.6,0.8,11.4,1.3c4.2,0.5,8.1,1.9,12.1,3.2
	c7.7,2.4,11.2,7.5,9.3,17.6c-2,10.5-4.7,20.9-7,31.3c-3,13.2-6,26.5-9,39.6c1.3,1.3,2.6,0.7,3.8,0.6c12.9-1.1,25.8-1.3,38.6,0.2
	c53.6,6.4,96.5,31.4,127.3,75.7c44.1,63.4,40.4,148.7-8.6,209.6c-30.2,37.5-69.2,60.5-117,67.3c-60.6,8.6-113.2-8.8-156.3-52.5
	c-27.7-28.1-43.1-62.4-47.6-101.6c-0.5-4.5-1-9-0.9-13.6c0-1.9-0.7-2.6-2.6-2.5c-1.6,0.1-3.3,0-4.9,0c-65.4,0.4-130.8,0.7-196.2,1.1
	c-8.7,0.1-17.4,1.4-26.1,0.1c-5.6-0.8-11.1-2-16.2-4.3c-10.4-4.6-15.6-12.5-15.7-23.9c-0.2-31.8-0.5-63.6-0.7-95.4
	c0-2.4-0.2-4.7,0.6-7c1.2-3.7,3.9-5.9,7.5-6c4-0.2,6.9,1.9,8.3,5.7c0.8,2.3,0.7,4.7,0.7,7c0.2,30.3,0.4,60.7,0.6,91
	c0,1.5,0.1,2.9,0,4.4c-0.2,4.7,2.1,7.5,6.3,9.1c4.3,1.6,8.7,2.8,13.3,2.7c73-1.3,146-0.6,219.1-1.5c6.6-0.1,6.5-0.1,7.2-6.7
	c2.2-19.8,8.1-38.6,16.5-56.7C628.3,732.8,629.7,731.3,629.6,729z M772.3,359.4c-1.6,0-2.5,0-3.4,0c-80.4-0.2-160.9-0.5-241.3-0.7
	c-4.5,0-4.6,0-5.6,5.2c-5.5,26.3-11,52.6-16.4,78.8c-18.4,88.5-36.7,176.9-55,265.4c-0.3,1.3-1.2,2.7-0.2,4.1
	c0.5,0.1,1.1,0.2,1.6,0.2c61.9-0.3,123.9-0.6,185.8-0.8c2.8,0,4.2-1.2,5.6-3.2c21.7-30.2,50-51.7,84.6-65.1c1-0.4,2.7-0.2,3-2
	c-1.5-0.9-3.1-1.7-4.6-2.6c-23.1-13.1-37.9-45.2-22.6-72.8c6.5-11.7,15.8-19.8,28.2-24.3c3-1.1,4.6-2.3,4.8-5.5
	c0-1.2,0.5-2.5,0.8-3.7c9-44.3,17.9-88.5,26.9-132.8C766.9,386.3,769.5,373.2,772.3,359.4z M954,816.2
	c0.1-57.3-21.7-102.7-58.9-132.4c-52.3-41.8-124.7-47.4-184-14.2c-25.7,14.4-46.4,34.2-61.5,59.6c-21.5,36.4-28.4,75.4-19.5,116.8
	c15.1,70,77.2,123.4,155.2,124.6c25.8,0.4,50.7-4.7,73.7-16.3C919.6,923.9,950.8,874.3,954,816.2z M752.4,556.2
	c-2.4,0-4.7-0.1-7.1,0c-10.6,0.4-18.6,5.5-24.5,14c-6.8,9.7-8.3,20.2-4.4,31.5c2.6,7.4,7,13.4,12.8,18.5c5.8,5.1,12.4,8.7,20.3,9.6
	c3,0.3,4-0.8,4.7-3.6c2.6-12,5.4-24,8.2-36c2.1-9.4,4.3-18.7,6.4-28.1c0.8-3.7,0.7-3.7-3-4.7C761.5,556.2,756.9,556.5,752.4,556.2z"
	/>
<path class="st0" d="M807,92.4c32.2,0.7,62.9,8.5,90,27.7c18.7,13.3,32.8,30.3,39.6,52.5c7.9,25.9,3.7,50.3-11.1,72.8
	c-13.3,20.4-32,34.6-54.3,43.8c-46.6,19.2-92.9,18.3-138.7-3.1c-2.8-1.3-4.7-1.3-7.3,0.5c-15.7,10.8-33.4,16.5-52.2,18.9
	c-2.7,0.4-5.4,0.3-8.1-0.5c-6.8-1.9-9.6-8.4-6-14.5c0.9-1.6,2.2-2.9,3.3-4.3c8.6-10.6,16.2-21.8,22-34.3c1.6-3.3,1.6-5.7-0.4-8.9
	c-8.8-14-13.4-29.3-13.2-45.9c0.2-21.2,7.9-39.7,21.1-55.9c16.1-19.7,37.1-32.3,60.9-40.3C770.2,95.2,788.1,92.7,807,92.4z
	 M684.2,285.7c1.2,0.7,2.2,0.1,3.2-0.1c12.6-3.3,24-9.2,34.6-16.7c4.5-3.2,8.4-3.1,13-0.6c37.8,20,77.2,22.6,117.6,10
	c21-6.5,39.3-17.7,53.5-34.9c23.5-28.4,23.2-64.5-0.5-92.7c-7.3-8.7-16-15.8-25.7-21.7c-17.9-10.7-37.3-16.6-58-18.7
	c-27.9-2.8-54.7,1.2-80,13.4c-18.4,8.8-33.9,21.2-44.3,39.1c-11.3,19.4-12.9,39.7-4.7,60.7c2.2,5.6,5.2,10.8,8.7,15.7
	c2,2.8,3,5.9,1.5,9.2c-5.6,11.8-10.1,24.1-17.6,34.9C685,284.1,684.6,284.9,684.2,285.7z"/>
<path class="st0" d="M491.2,59.2c56.3-0.1,107.6,38.4,122.9,93.7c18,65-19.3,131.9-84.3,151.6c-61.4,18.5-127.4-10.9-154.7-69
	c-28.9-61.7-2.3-135.2,59.4-164C451.9,63.4,470.1,59.1,491.2,59.2z M380.4,182.8c0,15,3.1,30.3,9,43.4
	c21.9,48.8,73.8,75.5,126.5,64.3c65.1-13.8,102.3-80.3,78.5-143c-20.1-52.8-78.3-82.2-133.1-67.7
	C413.3,92.4,380.6,134.1,380.4,182.8z"/>
<path class="st1" d="M772.3,359.4c-2.7,13.8-5.3,26.9-8,40.1c-8.9,44.3-17.9,88.5-26.9,132.8c-0.3,1.2-0.7,2.5-0.8,3.7
	c-0.1,3.2-1.8,4.4-4.8,5.5c-12.4,4.5-21.7,12.6-28.2,24.3c-15.3,27.6-0.5,59.7,22.6,72.8c1.5,0.9,3.1,1.7,4.6,2.6
	c-0.4,1.9-2,1.6-3,2c-34.7,13.3-63,34.9-84.6,65.1c-1.5,2.1-2.9,3.2-5.6,3.2c-61.9,0.2-123.9,0.5-185.8,0.8c-0.5,0-1.1-0.1-1.6-0.2
	c-1-1.4-0.1-2.8,0.2-4.1c18.3-88.5,36.7-176.9,55-265.4c5.5-26.3,10.9-52.6,16.4-78.8c1.1-5.1,1.1-5.2,5.6-5.2
	c80.4,0.2,160.9,0.5,241.3,0.7C769.8,359.4,770.7,359.4,772.3,359.4z"/>
<path class="st2" d="M752.4,556.2c4.5,0.3,9.1,0,13.5,1.2c3.7,1,3.8,1,3,4.7c-2.1,9.4-4.3,18.7-6.4,28.1c-2.7,12-5.6,24-8.2,36
	c-0.6,2.8-1.6,3.9-4.7,3.6c-7.9-0.8-14.4-4.4-20.3-9.6c-5.8-5.1-10.3-11.1-12.8-18.5c-3.9-11.3-2.4-21.8,4.4-31.5
	c5.9-8.5,13.9-13.6,24.5-14C747.7,556.2,750.1,556.2,752.4,556.2z"/>
<path class="st2" d="M684.2,285.7c0.4-0.8,0.8-1.6,1.3-2.4c7.4-10.9,11.9-23.2,17.6-34.9c1.6-3.3,0.5-6.4-1.5-9.2
	c-3.5-4.9-6.5-10.1-8.7-15.7c-8.2-21-6.5-41.3,4.7-60.7c10.4-17.9,25.9-30.2,44.3-39.1c25.3-12.2,52.1-16.2,80-13.4
	c20.7,2.1,40.1,8,58,18.7c9.7,5.8,18.4,13,25.7,21.7c23.8,28.2,24,64.3,0.5,92.7c-14.2,17.2-32.5,28.4-53.5,34.9
	c-40.5,12.6-79.9,10-117.6-10c-4.7-2.5-8.5-2.6-13,0.6c-10.5,7.5-21.9,13.5-34.6,16.7C686.4,285.9,685.4,286.4,684.2,285.7z
	 M787.7,209.9c-3.1-3.3-5.8-6.1-8.5-9c-6-6.3-11.9-12.7-17.9-19c-2.7-2.8-5.8-4.5-9.7-3.2c-6.4,2.3-7.4,9.7-3.1,14.2
	c11,11.6,21.8,23.4,32.8,34.9c3.6,3.8,8.1,3.8,12.2,0.4c1-0.8,1.8-1.8,2.7-2.7c15.4-16.1,30.9-32.2,46.3-48.4
	c1.5-1.6,3.1-3.1,4.3-4.9c2.6-3.7,2.3-7.9-0.7-10.9c-3.1-3.1-7.7-3.3-11.3-0.3c-1.8,1.5-3.4,3.3-5,5
	C815.8,180.5,802,194.9,787.7,209.9z"/>
<path class="st1" d="M380.4,182.8c0.1-48.7,32.9-90.3,80.9-103c54.8-14.5,113,14.9,133.1,67.7c23.8,62.7-13.4,129.2-78.5,143
	c-52.7,11.2-104.6-15.5-126.5-64.3C383.6,213.1,380.4,197.8,380.4,182.8z"/>
<path class="st3" d="M791.9,944.5c-66.1,0-121-45.7-132.7-109c-11.4-61.5,23.3-125,81.7-149c39.8-16.3,79.3-15,117.1,5.4
	c36.2,19.6,58.8,50.3,66.7,90.8c14.5,73.8-34.7,145.7-110.6,159.6C806.3,943.7,798.3,944.3,791.9,944.5z M792.1,692.5
	c-16.3-0.2-34.2,4-51.1,12.3c-58.3,28.5-83.4,98.9-56.1,156.3c28.4,59.8,100,83.2,159.2,53.7c49-24.4,75.4-79.1,63.8-131
	C895.8,730,849.8,692.9,792.1,692.5z"/>
<path class="st0" d="M787.7,209.9c14.3-15,28.1-29.4,41.9-43.8c1.6-1.7,3.2-3.5,5-5c3.7-3,8.2-2.8,11.3,0.3c3,3,3.4,7.2,0.7,10.9
	c-1.3,1.8-2.8,3.3-4.3,4.9c-15.4,16.1-30.8,32.3-46.3,48.4c-0.9,0.9-1.7,1.9-2.7,2.7c-4.1,3.3-8.6,3.4-12.2-0.4
	c-11-11.6-21.8-23.3-32.8-34.9c-4.3-4.5-3.4-11.9,3.1-14.2c3.9-1.4,7.1,0.3,9.7,3.2c6,6.3,11.9,12.7,17.9,19
	C781.9,203.8,784.6,206.6,787.7,209.9z"/>
<path class="st3" d="M763.8,811.2c1.8-2.3,3.2-4.5,5-6.3c21.4-21.7,43-43.3,65.1-64.3c2-1.9,4.1-3.6,6.3-5.2c7.1-4.9,16.9-4.1,23,2
	c6.4,6.4,12.8,12.9,18.8,19.7c6.4,7.3,10,15.6,6.9,25.6c-1.5,4.9-4.7,8.5-8.2,12c-16.6,16.5-33.3,32.9-49.9,49.5
	c-11.2,11.1-22.2,22.5-33.5,33.5c-6.4,6.2-13.2,11.9-19.9,17.8c-0.7,0.6-1.5,1.1-2.2,1.6c-11.5,7.7-18.3,7.3-29-1.5
	c-8-6.6-14.7-14.5-22-21.9c-9.5-9.7-19-19.5-28.4-29.3c-4-4.2-7.4-8.9-10.5-13.9c-4.5-7.2-3.2-13.9,1.5-20.2
	c2.1-2.9,4.8-5.5,7.3-8.1c4.1-4.2,8.2-8.3,12.3-12.3c3.2-3.1,6.9-5.3,10.8-7.2c6.8-3.2,13-2.3,18.8,2.2c5.7,4.5,10.7,9.8,15.9,14.9
	C755.7,803.2,759.3,806.8,763.8,811.2z M750.7,823.9c-7.9-8.4-14.8-16.1-22.1-23.5c-3.1-3.2-6.4-3.2-10.3-0.4
	c-6.8,4.9-12.8,10.7-18,17.3c-2.5,3.2-2.5,4.6-0.3,7.8c3,4.3,6.2,8.6,9.9,12.3c13.2,13.3,26.4,26.5,39.6,39.8
	c1.3,1.3,2.6,2.5,4.1,3.6c3.2,2.6,6.7,3.2,10.7,1.9c3-0.9,5.7-2.4,8.2-4.2c3.9-2.9,7.4-6.4,10.8-10c28.6-30.2,58.7-58.9,88.2-88.2
	c3.5-3.4,4-6.7,0.9-10.5c-5.9-7.2-12.6-13.6-19.2-20c-2-1.9-4.1-1.9-6.3-0.3c-2.5,1.9-4.7,4-6.8,6.2c-8.9,9.3-17.8,18.6-26.9,27.8
	c-11,11.1-22.2,21.9-32.9,33.3c-7.3,7.8-14.9,15.4-22.6,22.9c-4.3,4.2-9,4.5-12.6,1.1c-3.6-3.4-3.3-8.6,0.9-13
	C747.4,826.2,749.4,824.9,750.7,823.9z"/>
<path class="st4" d="M219.3,475.7l22,22c5.2,5.2,13.7,5.2,18.9,0l22-22c5.2-5.2,5.2-13.7,0-18.9l-22-22c-5.2-5.2-13.7-5.2-18.9,0
	l-22,22C214.1,462,214.1,470.5,219.3,475.7z"/>
<path class="st4" d="M219.3,539.8l22,22c5.2,5.2,13.7,5.2,18.9,0l22-22c5.2-5.2,5.2-13.7,0-18.9l-22-22c-5.2-5.2-13.7-5.2-18.9,0
	l-22,22C214.1,526.2,214.1,534.6,219.3,539.8z"/>
<path class="st3" d="M649.4,940l17.3,17.3c2.5,2.5,6.6,2.5,9.1,0l17.3-17.3c2.5-2.5,2.5-6.6,0-9.1l-17.3-17.3
	c-2.5-2.5-6.6-2.5-9.1,0l-17.3,17.3C646.9,933.3,646.9,937.4,649.4,940z"/>
<path class="st3" d="M774.9,866.4l17.3,17.3c2.5,2.5,6.6,2.5,9.1,0l17.3-17.3c2.5-2.5,2.5-6.6,0-9.1L801.3,840
	c-2.5-2.5-6.6-2.5-9.1,0l-17.3,17.3C772.3,859.8,772.3,863.9,774.9,866.4z"/>
<circle class="st5" cx="790.2" cy="809.4" r="171.2"/>
</svg>
