<?xml version="1.0" encoding="utf-8"?>
<!-- Generator: Adobe Illustrator 28.0.0, SVG Export Plug-In . SVG Version: 6.00 Build 0)  -->
<svg version="1.1" id="Capa_1" xmlns="http://www.w3.org/2000/svg" xmlns:xlink="http://www.w3.org/1999/xlink" x="0px" y="0px"
	 viewBox="0 0 1080 1080" style="enable-background:new 0 0 1080 1080;" xml:space="preserve">
<style type="text/css">
	.st0{fill:#090A0A;}
	.st1{fill:#FFFFFF;}
	.st2{fill:#FCFCFC;}
	.st3{fill:#FF5500;}
	.st4{fill:#6EE1EB;}
	.st5{fill:none;stroke:#FF5500;stroke-width:19;stroke-miterlimit:10;}
</style>
<path class="st0" d="M455.2,531.7c-1.2-1.2-2.4-2.4-3.6-3.6c-11-10.8-22.1-21.6-33.1-32.4c-1.4-1.4-2.9-2.8-4-4.4
	c-2.3-3.4-1.8-7.6,1-10.5c2.6-2.6,6.7-3.3,10-1.3c1.7,1,3.1,2.5,4.6,3.8c12.6,12.3,25.2,24.6,37.9,36.9c0.9,0.9,1.6,2,3.4,2.5
	c0.4-1.2,0.9-2.5,1.2-3.8c11.6-55.9,23.3-111.9,34.9-167.8c0.3-1.4,0.6-2.8,1.1-4.2c0.8-2.5,2.3-3.9,5-4.4c1.6-0.3,3.2-0.7,4.8-0.7
	c3.6,0,7.3-0.2,10.9-0.1c82.8,0.3,165.7,0.6,248.5,0.7c10.1,0,14.3,4.2,12.3,15.2c-3.3,17.5-6.9,34.9-10.4,52.3
	c-8.5,42-17,83.9-25.4,125.9c-0.2,0.9-0.2,1.8-0.3,2.9c3.9,0.4,7.6,0.9,11.3,1.3c4.6,0.5,8.9,1.9,13.1,3.6c7.3,3,10.2,8,8.6,16
	c-1.9,9.4-4.2,18.8-6.3,28.1c-3.3,14.7-6.7,29.3-10,43.9c1,1.2,2.2,0.8,3.2,0.7c13.1-1.3,26.1-1.4,39.2,0.1
	c46.2,5.2,84.8,25.3,115.4,60.1c24,27.4,37.7,59.6,41.6,95.8c7.8,72.6-31.1,144.7-99.3,179.1c-30,15.1-61.9,21.8-95.4,19.4
	c-46-3.4-85.6-21.4-117.5-54.9c-27.1-28.4-42.5-62.4-46.9-101.4c-0.5-4.3-0.9-8.7-0.8-13c0-1.8-0.6-2.8-2.5-2.6
	c-1.1,0.1-2.2,0-3.3,0c-66.1,0.4-132.2,0.7-198.3,1.2c-8.5,0.1-17,1.3-25.6,0.1c-5.6-0.8-11.1-2-16.2-4.3
	c-10.4-4.6-15.6-12.4-15.7-23.8c-0.2-32-0.5-63.9-0.7-95.9c0-2.2-0.1-4.4,0.5-6.5c1.2-3.7,3.8-5.9,7.5-6.1c4-0.2,6.9,1.8,8.3,5.7
	c0.9,2.3,0.7,4.7,0.7,7c0.2,30.9,0.4,61.8,0.6,92.6c0.1,9,1.5,10.8,10.4,13.2c4.8,1.3,9.6,1.3,14.6,1.3c35.4-0.3,70.8-0.6,106.3-0.8
	c35.8-0.2,71.6-0.4,107.3-0.6c0.9,0,1.8-0.1,2.7,0c3,0.4,4.1-1,4.3-3.9c1.5-16.9,5.8-33.2,12.2-48.9c1.7-4.2,3.7-8.3,5.5-12.4
	c0.5-1.1,1.6-2.1,0.9-4.1c-1.7,0-3.6,0-5.6,0c-58.8,0.2-117.7,0.4-176.5,0.7c-3.8,0-7.5-0.1-10.9-2.4c-4.3-3-5.8-6.6-4.7-11.7
	c3.4-16,6.8-31.9,10-47.9c1-5.1,2.6-10.2,2.9-15.4c-1.9-1-3.7-0.5-5.5-0.5c-46.3-0.3-92.6-0.6-138.9-1c-8.8-0.1-16.8-2.3-24-7.4
	c-14.3-10.2-23.8-23.7-28.5-40.6c-1.2-4.4-1.4-8.9-1.3-13.5c0-35.1,0-70.1,0-105.2c0-6.2-0.1-12.4-0.4-18.5
	c-0.6-14.5,3.1-28.1,9-41.1c11.3-25,27.8-45.8,50-62.1c9-6.6,18.8-11.6,29.6-14.5c2.5-0.7,4.9-1.1,7.5-1.2
	c40-0.3,79.9-0.6,119.9-0.9c2.2,0,4.3-0.2,6.5,0.6c3.8,1.3,6.2,4.4,6.1,8.1c-0.1,3.5-2.3,6.4-5.9,7.8c-2.3,0.9-4.6,0.7-7,0.7
	c-37.4,0.2-74.8,0.6-112.2,0.5c-9.2,0-17.5,2.4-25.4,6.8c-15.5,8.6-27.8,20.9-38.3,35c-10.3,13.8-18.2,28.8-21.8,45.9
	c-0.5,2.2-0.7,4.3-0.7,6.5c0,44,0.1,87.9,0,131.9c0,6.9,1.5,13.3,4.7,19.3c4.7,9,11.1,16.6,19.8,21.9c3.8,2.3,7.8,3.5,12.4,3.5
	c47.4,0.1,94.8,0.3,142.2,0.4c0.9,0,1.8-0.1,2.7,0c2.8,0.4,3.8-0.9,4.3-3.5c1.7-8.7,3.6-17.4,5.4-26.1c3.6-17.2,7.1-34.5,10.7-51.7
	c0.2-0.9,0.5-1.7,0.1-2.7c-1.9-0.7-3.9-0.4-5.9-0.4c-31.2-0.2-62.5-0.3-93.7-0.4c-3.5,0-6.7-0.5-10-2.1c-4.1-2.1-6-5.1-6.1-9.5
	c-0.1-4.9-0.2-9.8-0.3-14.7c-0.2-14.3-0.4-28.7-0.6-43c0-1.6,0-3.3,0.2-4.9c0.7-4.3,3.7-6.9,7.7-7.1c4.2-0.2,7.8,2.4,8.6,6.7
	c0.4,1.8,0.3,3.6,0.3,5.4c0.3,16,0.5,32,0.8,47.9c0.1,4.3,0.1,4.3,4,4.4c27.2,0.1,54.5,0.1,81.7,0.2
	C453.2,532.6,454.2,533,455.2,531.7z M730.9,642c-0.1-0.7,0-0.9-0.1-1c-1.2-0.7-2.5-1.4-3.8-2.1c-13.6-8-22.7-19.4-27.4-34.5
	c-8.2-26.3,7.8-55.1,33.1-63.2c2.4-0.8,3.7-1.9,3.8-4.5c0-1.1,0.5-2.1,0.7-3.2c10.1-50.1,20.2-100.3,30.4-150.4
	c1.6-7.8,3.1-15.6,4.7-23.8c-2.3,0-4.1,0-5.9,0c-79.2-0.2-158.3-0.5-237.5-0.7c-0.9,0-1.8,0-2.7,0c-2.1-0.2-3.5,0.4-3.7,2.8
	c-0.1,0.9-0.4,1.8-0.6,2.6c-8.8,42.1-17.5,84.2-26.3,126.2c-13.7,66-27.5,132.1-41.2,198.1c-1.6,7.8-3.2,15.6-4.8,23.7
	c2.6,0,4.8,0,7,0c59.9-0.3,119.9-0.6,179.8-0.8c3.5,0,5.5-1.1,7.5-3.9c18-24.6,40.3-44.1,68-57.2C718.1,647.3,724.5,644.3,730.9,642
	z M954.3,811c-1.4-54.2-20.3-95.7-59.2-127.2c-52-42.1-124.6-47.5-183.9-14.4c-25.8,14.4-46.4,34.2-61.5,59.5
	c-21.5,36.2-28.5,75.1-19.6,116.3c15.3,71.7,78.4,124,155.3,125.2c25.8,0.4,50.7-4.7,73.7-16.2C919.6,923.7,950.8,874.1,954.3,811z
	 M752.7,556c-8.9-0.5-17.3,0.6-24.6,6.5c-8.1,6.5-13.1,14.9-13.4,25c-0.6,18,8.8,30.4,24,38.9c3.5,1.9,7.3,3,11.4,3.3
	c2.7,0.2,3.7-0.8,4.3-3.4c2-9.6,4.3-19.1,6.5-28.6c2.7-11.6,5.4-23.3,8-34.9c1-4.6,1-4.5-3.7-5.7C761,556.1,756.8,556.4,752.7,556z"
	/>
<path class="st0" d="M807,92.4c32.4,0.7,63.2,8.5,90.4,28c18.5,13.2,32.5,30.1,39.2,52.1c7.9,25.9,3.7,50.3-11,72.8
	c-13.2,20.2-31.7,34.4-53.8,43.6c-46.7,19.5-93.2,18.7-139.2-2.8c-2.8-1.3-4.7-1.3-7.3,0.5c-15.7,10.8-33.4,16.5-52.1,19
	c-2.7,0.4-5.4,0.3-8.1-0.4c-6.9-1.9-9.6-8.3-6.1-14.5c0.9-1.6,2.2-2.9,3.3-4.3c8.7-10.8,16.4-22.2,22.3-34.7
	c1.5-3.2,1.2-5.4-0.6-8.4c-8.7-14-13.4-29.3-13.2-45.9c0.2-21.2,7.9-39.7,21.1-55.9c16.1-19.7,37.1-32.3,60.9-40.3
	C770.2,95.2,788.1,92.7,807,92.4z M683.9,285.6c0.7,0.2,1.1,0.4,1.4,0.4c0.7-0.1,1.4-0.3,2.1-0.5c12.7-3.2,24-9.2,34.6-16.7
	c4.5-3.2,8.4-3.1,13-0.6c37.8,20,77.2,22.6,117.6,10c21-6.5,39.3-17.7,53.5-34.9c23.5-28.4,23.2-64.5-0.5-92.7
	c-7.3-8.7-16-15.8-25.7-21.7c-17.9-10.7-37.3-16.6-58-18.7c-27.9-2.8-54.7,1.2-80,13.4c-18.4,8.8-33.9,21.2-44.3,39
	c-11.3,19.4-12.9,39.7-4.7,60.7c2.2,5.6,5.2,10.8,8.7,15.7c2.3,3.2,2.8,6.5,1.1,10.2C697,261.8,691.8,274.3,683.9,285.6z"/>
<path class="st0" d="M491.4,59.3c56.3,0,107.5,38.5,122.8,93.8c16.9,61.5-15.2,125-75.3,148.2c-73.5,28.4-156-15.3-172.8-92.6
	c-12-55.3,16.5-112.7,68.1-137C451.7,63.4,470.1,59.1,491.4,59.3z M601.6,184.4c0.1-11.2-2.2-23.6-6.6-35.6
	c-23-62.2-97.1-90.9-156.2-60.5c-51.7,26.6-72.7,87.8-48,140.5c22.2,47.5,76.5,73.5,127.6,61.1C567.8,277.9,601.6,235.8,601.6,184.4
	z"/>
<path class="st1" d="M730.9,642c-6.4,2.3-12.8,5.3-19.1,8.3c-27.7,13.1-50,32.6-68,57.2c-2,2.8-4,3.9-7.5,3.9
	c-59.9,0.2-119.9,0.5-179.8,0.8c-2.2,0-4.3,0-7,0c1.7-8.2,3.2-16,4.8-23.7c13.7-66.1,27.5-132.1,41.2-198.1
	c8.8-42.1,17.5-84.2,26.3-126.2c0.2-0.9,0.6-1.8,0.6-2.6c0.2-2.4,1.6-3,3.7-2.8c0.9,0.1,1.8,0,2.7,0c79.2,0.2,158.3,0.5,237.5,0.7
	c1.8,0,3.6,0,5.9,0c-1.6,8.2-3.1,16-4.7,23.8c-10.1,50.1-20.2,100.3-30.4,150.4c-0.2,1.1-0.7,2.1-0.7,3.2c-0.1,2.6-1.4,3.7-3.8,4.5
	c-25.3,8.1-41.3,36.9-33.1,63.2c4.7,15.1,13.8,26.5,27.4,34.5c1.2,0.7,2.5,1.4,3.8,2.1C730.9,641.1,730.8,641.4,730.9,642z"/>
<path class="st2" d="M752.7,556c4.1,0.4,8.3,0.1,12.4,1.1c4.7,1.2,4.8,1.1,3.7,5.7c-2.7,11.6-5.4,23.3-8,34.9
	c-2.2,9.5-4.5,19-6.5,28.6c-0.6,2.6-1.5,3.6-4.3,3.4c-4.1-0.3-7.9-1.4-11.4-3.3c-15.3-8.4-24.7-20.9-24-38.9
	c0.4-10.2,5.4-18.6,13.4-25C735.3,556.6,743.7,555.5,752.7,556z"/>
<path class="st1" d="M683.9,285.6c7.9-11.3,13.1-23.9,18.7-36.2c1.7-3.8,1.2-7-1.1-10.2c-3.5-4.9-6.5-10.1-8.7-15.7
	c-8.2-21-6.5-41.3,4.7-60.7c10.4-17.9,25.9-30.2,44.3-39c25.3-12.2,52.1-16.2,80-13.4c20.7,2.1,40.1,8,58,18.7
	c9.7,5.8,18.4,13,25.7,21.7c23.8,28.1,24,64.3,0.5,92.7c-14.2,17.2-32.5,28.3-53.5,34.9c-40.5,12.6-79.9,10-117.6-10
	c-4.7-2.5-8.5-2.6-13,0.6c-10.5,7.5-21.9,13.5-34.6,16.7c-0.7,0.2-1.4,0.4-2.1,0.5C685,286.1,684.6,285.9,683.9,285.6z M787.7,209.9
	c-8.5-9.1-16.6-17.6-24.7-26.2c-1.4-1.4-2.7-2.9-4.4-4.1c-3.3-2.2-7.2-1.8-10,0.8c-3,2.7-3.7,6.9-1.5,10.4c1.1,1.8,2.7,3.4,4.1,5
	c9.4,10.1,18.9,20.1,28.3,30.2c5.8,6.2,10.1,6.4,16,0.2c16.2-16.9,32.4-33.8,48.5-50.8c1.2-1.3,2.5-2.7,3.4-4.2
	c1.9-3.4,1.2-7.3-1.5-10c-2.6-2.4-6.4-3.1-9.6-1.3c-1.4,0.8-2.6,1.9-3.8,3.1c-4.3,4.4-8.6,8.9-12.8,13.3
	C809.2,187.4,798.7,198.4,787.7,209.9z"/>
<path class="st1" d="M601.6,184.4c0,51.4-33.8,93.5-83.3,105.5c-51.1,12.4-105.4-13.6-127.6-61.1c-24.6-52.7-3.7-113.9,48-140.5
	c59.1-30.4,133.1-1.7,156.2,60.5C599.4,160.8,601.7,173.2,601.6,184.4z"/>
<path class="st3" d="M791.7,944.3c-66.1-0.1-121.2-46.2-132.5-109.2c-11.1-61.7,23.3-124.6,81.5-148.6
	c39.8-16.4,79.3-15.2,117.1,5.2c36.6,19.7,59.2,50.7,67.1,91.7c14,72.7-34.3,144.6-110.4,158.7C806.4,943.6,798.2,944.1,791.7,944.3
	z M792.1,692.4c-16.9-0.2-34.7,4.1-51.6,12.5c-57.9,28.6-82.9,98.8-55.7,156.1c28.4,59.8,100,83.2,159.2,53.7
	c49.2-24.5,75.5-79.1,63.7-131.5C895.7,729.6,849.3,692.5,792.1,692.4z"/>
<path class="st0" d="M787.7,209.9c11-11.5,21.5-22.5,32-33.5c4.3-4.5,8.5-8.9,12.8-13.3c1.1-1.2,2.4-2.3,3.8-3.1
	c3.2-1.8,7-1.2,9.6,1.3c2.8,2.6,3.5,6.5,1.5,10c-0.9,1.6-2.1,2.9-3.4,4.2c-16.1,16.9-32.3,33.9-48.5,50.8c-5.9,6.2-10.2,6-16-0.2
	c-9.4-10.1-18.9-20.1-28.3-30.2c-1.5-1.6-3-3.2-4.1-5c-2.2-3.5-1.4-7.7,1.5-10.4c2.8-2.6,6.8-3,10-0.8c1.6,1.1,3,2.6,4.4,4.1
	C771.1,192.3,779.2,200.8,787.7,209.9z"/>
<path class="st3" d="M843.2,809.4c7.9,8.1,15.6,16,23.4,23.9c2.8,2.8,5.6,5.7,7.8,9c2.7,4,2.9,8,0.7,12.3c-1.4,2.6-3,4.9-5.1,7
	c-8.9,8.8-17.7,17.7-26.6,26.5c-6.4,6.4-10.7,6.8-18.4,2.1c-3.3-2-6.2-4.5-8.8-7.2c-7.7-7.9-15.5-15.8-23.2-23.7
	c-4.7,4.5-8.9,8.5-13,12.6c-5.1,5.1-10.2,10.4-15.3,15.5c-1.4,1.4-3.1,2.5-4.7,3.7c-3.6,2.5-7.4,2.7-11.3,0.8
	c-2.6-1.3-5.1-2.8-7.2-4.9c-9.2-9-18.4-18-27.6-27.1c-6-5.9-6.5-10.3-2.2-17.5c1.9-3.3,4.3-6.2,7-9c7-7.1,13.9-14.3,20.9-21.5
	c3-3.1,3-3.1-0.2-6.3c-8.1-8-16.3-16-24.4-24.1c-0.8-0.8-1.5-1.6-2.2-2.4c-4.6-5.9-4.8-10-1-16.5c1.1-1.9,2.6-3.5,4.1-5.1
	c8.7-8.8,17.3-17.6,26-26.4c6.7-6.7,10.8-7.2,18.8-2.3c3,1.8,5.6,4,8.1,6.4c7.1,7,14.3,14,21.4,20.9c2.7,2.6,2.8,2.7,5.5,0
	c8.8-8.9,17.5-18,26.5-26.6c8.4-8.1,14.8-8,23.2,0.1c9.5,9.2,18.9,18.6,28.3,28c5.3,5.3,5.7,9.6,2.1,16.2c-2,3.7-4.7,6.9-7.6,9.9
	c-8.1,8.3-16.3,16.6-24.4,24.9C843.5,808.8,843.4,809,843.2,809.4z M762.8,808.9c0.2,3-1.8,5.4-4,7.6c-8.9,9.1-17.8,18.2-26.6,27.4
	c-4.2,4.4-4.1,6.2,0.2,10.5c5.2,5.1,10.3,10.2,15.6,15.3c4.4,4.2,6.2,4.3,10.5,0.1c5.1-5,9.9-10.1,14.9-15.2
	c3.8-3.9,7.5-7.9,11.4-11.7c4.6-4.5,8.4-4.7,13.6-0.9c1.9,1.4,3.6,3,5.3,4.7c8,7.9,15.9,15.9,24,23.8c3.9,3.8,5.9,3.7,9.7-0.1
	c5.3-5.2,10.6-10.5,15.8-15.8c4.3-4.3,4.4-6.1,0.2-10.5c-5.2-5.4-10.5-10.6-15.8-15.8c-3.6-3.6-7.3-7.1-10.8-10.8
	c-4.2-4.4-4.3-7.4-1.4-12.7c1.9-3.4,4.3-6.2,7-8.9c7.5-7.6,15.1-15.2,22.5-23c4-4.1,3.9-6.1-0.1-10.1c-5.1-5.1-10.3-10.2-15.5-15.3
	c-4.7-4.6-6.2-4.6-10.8-0.2c-0.8,0.7-1.5,1.5-2.3,2.3c-7.6,7.8-15.3,15.5-22.9,23.3c-2.1,2.1-4.2,3.9-7.3,4.5c-4.6,0.8-8.5,0-12-3.5
	c-8.5-8.5-17.1-16.8-25.7-25.1c-4.1-3.9-6.1-3.8-10.1,0.2c-4.5,4.5-8.9,9.1-13.4,13.6c-7,7.1-7,7.9,0,14.8
	c8,7.9,16.1,15.8,24.1,23.6C760.9,803.1,762.8,805.3,762.8,808.9z"/>
<path class="st4" d="M226.5,487l22,22c5.2,5.2,13.7,5.2,18.9,0l22-22c5.2-5.2,5.2-13.7,0-18.9l-22-22c-5.2-5.2-13.7-5.2-18.9,0
	l-22,22C221.2,473.4,221.2,481.8,226.5,487z"/>
<path class="st4" d="M226.5,551.2l22,22c5.2,5.2,13.7,5.2,18.9,0l22-22c5.2-5.2,5.2-13.7,0-18.9l-22-22c-5.2-5.2-13.7-5.2-18.9,0
	l-22,22C221.2,537.5,221.2,546,226.5,551.2z"/>
<path class="st3" d="M656.6,951.3l17.3,17.3c2.5,2.5,6.6,2.5,9.1,0l17.3-17.3c2.5-2.5,2.5-6.6,0-9.1L683,924.9
	c-2.5-2.5-6.6-2.5-9.1,0l-17.3,17.3C654.1,944.7,654.1,948.8,656.6,951.3z"/>
<circle class="st5" cx="790.3" cy="809.9" r="171.2"/>
</svg>
