<?xml version="1.0" encoding="utf-8"?>
<!-- Generator: Adobe Illustrator 28.0.0, SVG Export Plug-In . SVG Version: 6.00 Build 0)  -->
<svg version="1.1" id="Capa_1" xmlns="http://www.w3.org/2000/svg" xmlns:xlink="http://www.w3.org/1999/xlink" x="0px" y="0px"
	 viewBox="0 0 1080 1080" style="enable-background:new 0 0 1080 1080;" xml:space="preserve">
<style type="text/css">
	.st0{fill:#090A0A;}
	.st1{fill:#FEFEFE;}
	.st2{fill:#29E4A5;}
	.st3{fill:#6EE1EB;}
	.st4{fill:none;stroke:#29E4A5;stroke-width:19;stroke-miterlimit:10;}
</style>
<path class="st0" d="M287.6,773c-5.5,5.6-11.2,10.1-17.7,13.4c-16.9,8.5-32.9,6.9-48.2-3.8c-2.1-1.5-4.4-2.9-5.9-4.8
	c-3.4-4.4-6.7-4.2-11.5-1.9c-26.3,12.3-52.9,23.8-79.1,36.3c-6.6,3.1-14-0.9-13.7-9.2c0.7-17.2,0.5-34.5,0.7-51.8c0-3.8,0.5-4.4-4-4
	c-25.9,2.5-56.4-16.1-64.8-46.4c-3.5-12.7-2-25.1,5.5-36.6c35.2-54.2,70.4-108.4,105.6-162.6c0.7-1.1,1.5-2.1,2.1-3.2
	c10.8-19.9,27.3-33.5,47.3-43.6c15.1-7.6,30.6-14.2,46.1-20.8c25.5-10.9,50.7-22.4,76.6-32.4c7.5-2.9,12.7-7.2,17.3-13.6
	c76.1-106.7,152.4-213.3,228.7-319.9c1-1.3,1.8-2.7,2.5-4.2c2.6-5.5,7.1-7,12.6-4.1c1.1,0.6,2.2,1.3,3.2,2
	c24,15.3,48.1,30.6,72.1,45.9c9.8,6.2,10.5,9.9,4.1,19.3c-67.5,98.8-135,197.5-202.5,296.3c-1.1,1.6-2.5,3.1-3.1,5.4
	c38.9,11.5,77.6,22.9,116.1,34.2c1.4-1.1,1-2.3,1.1-3.3c0.2-17.3,13.4-29.9,30.2-29.9c17.6,0,35.2,0.1,52.9,0.2
	c17.8,0,35.6,0.1,53.4,0.1c5,0,9.8,0.4,14.3,2.6c10.6,5.2,15.8,13.9,15.4,25.4c-0.5,13.3-0.5,26.5-0.6,39.8
	c-0.2,44.7-0.3,89.4-0.4,134.1c0,1.8-0.4,3.6,0.4,5.5c4-0.1,7.7-1.6,11.6-2.4c19-3.8,38.2-4.7,57.4-2.6
	c70.6,7.7,119.7,53.4,141.3,100.4c29.5,64.4,18.1,139.8-29.4,192.6c-30.6,34-68.7,54.6-114,60.1c-58.7,7.1-109.9-10-151.9-52.1
	c-28.1-28.2-43.8-62.8-48.4-102.3c-1.1-9.6-0.9-19.2-0.7-28.8c0-2.5-0.2-3.8-3.3-4c-7.8-0.4-15-2.9-20.9-8.2
	c-1.7-1.6-3.6-1.5-5.6-1.5c-12,0.2-24,0.3-36,0.5c-42.1,0.7-84.3,1.6-126.4,2.1c-13.2,0.2-26.5-0.1-39.3-4.8c-2.9-1.1-5.9-2-8.6-3.4
	c-2.4-1.3-3.8-1-5.6,1c-6.5,7.3-14.9,11.3-24.3,13.5c-14.1,3.4-26.6,0.3-37.8-8.6C296.7,784.5,292,779.3,287.6,773z M576.9,642.5
	c0.6-62.9,1-109.6,1.5-156.3c0.1-5.4,0-5.4-5.2-6.9c-0.2-0.1-0.4-0.1-0.5-0.1c-38.9-11.5-77.9-23-116.8-34.4
	c-4.9-1.5-4.9-1.5-7.8,2.7c-16.9,24.7-33.8,49.5-50.7,74.2c-1.6,2.3-2.9,4.4-1.2,7.4c0.7,1.3,0.4,3.2,0.3,4.8
	c-0.7,27.8-1.5,55.5-2.3,83.3c-0.1,2.8-0.6,5.4-1.4,8c-4.9,16-14.7,26.3-31.9,28.6c-7.1,1-14.1,0.8-21.2,0.8c-45.6,0-91.2,0-136.7,0
	c-11.6,0-23.3,0.4-34.9,0c-12.2-0.3-20.8,5-26.9,15.2c-0.6,0.9-1.2,1.8-1.6,2.8c-6.1,12.2-7.4,24.5-1,37.1
	c3.9,7.8,10.1,13.2,17.4,17.5c3.4,2,6.9,2.9,10.8,2.9c53.4,0.2,106.8,0.5,160.2,0.8c1.6,0,3.3,0.3,4.9-0.1c6-1.5,9.6,1.3,12.7,6
	c4.4,6.7,9.4,12.9,15,18.6c7.6,7.6,16.5,12.9,26.8,15.9c10.6,3,21.2,3.6,32.2,3.3c49-1.2,98-1.8,147.1-2.5c1.8,0,3.6-0.1,5.4-0.1
	c4.3-0.2,4.3-0.2,4.3-4.6C576.1,720.3,576.6,673.3,576.9,642.5z M186.6,636.7c1.9,1.1,3.6,0.7,5.1,0.7c33.4,0,66.8-0.1,100.3,0.1
	c4.3,0,6.8-1.4,9.2-4.9C365,539,429,445.5,492.9,351.9c51.7-75.7,103.4-151.4,155.1-227.1c3.5-5.1,3.7-4.1-1.6-7.5
	c-18.4-11.7-36.7-23.4-55.1-35.1c-5.7-3.6-5.7-3.6-9.7,2.1C513.5,179.6,445.4,274.8,377.2,370C314.8,457.3,252.4,544.5,190,631.8
	C188.8,633.4,187.8,635,186.6,636.7z M594.1,611.4c-0.5,49.9-1,99.9-1.5,149.8c0,2.4,0,4.7,0.1,7.1c0.4,6.1,3.6,10,9.4,12
	c1.6,0.5,3.2,0.8,4.8,1c5.3,0.6,5.3,0.6,6.4-4.5c5-23.5,14-45.3,27.6-65.2c20.7-30.1,48-52.1,81.7-66.2c2.9-1.2,4.1-2.5,4.1-5.8
	c0.2-59.4,0.5-118.7,0.8-178.1c0-1.3,0.1-2.5-0.1-3.8c-0.5-5.6-3.6-9-9.1-9.9c-2.1-0.4-4.3-0.4-6.5-0.5
	c-33.6-0.2-67.2-0.4-100.8-0.6c-1.5,0-2.9-0.1-4.4,0.1c-7.6,0.6-10.9,4.2-11,11.8C595.2,509.4,594.6,560.4,594.1,611.4z M954,814.8
	c-0.2-32.6-5.4-55.6-16-77.3c-30-61.5-96.6-97.2-166.7-88c-38.7,5.1-72.2,21.6-99,50.1c-38.6,41.1-53.6,90-42.2,145.5
	c14.6,71,76.8,123.3,153.4,125.3c26.4,0.7,51.8-4.3,75.4-16.2C919.7,923.8,950.9,874,954,814.8z M317.6,424.3
	c-0.2-0.2-0.4-0.4-0.7-0.6c-2,0.8-4,1.5-6,2.4c-21,9-41.9,18.1-63,27c-15.9,6.7-31.5,13.8-46.5,22.4c-11,6.4-20,14.4-26.8,25.5
	c-14.4,23.5-29.9,46.4-44.9,69.5c-22.3,34.4-44.6,68.9-66.9,103.3c-5.1,7.8-5.2,16.3-2.4,24.5c5.9,17.5,19.4,27.1,36.4,32.2
	c3.9,1.2,8.2,1.6,12.4,0.8c4-0.7,4.5-1.3,4.6-5.3c0.1-7.4,0.3-14.9,0.2-22.3c-0.2-17,5.4-31.9,14.9-45.8
	c7.7-11.2,18.3-17.4,31.3-19.6c3.7-0.6,5.7-2.2,7.8-5c41-57.5,82.1-114.9,123.2-172.3C300.1,448.8,308.8,436.6,317.6,424.3z
	 M318.9,637.3c12.3,0,24.1,0,35.9,0c3.1,0,6.1-0.8,9.1-1.5c4.2-1.1,7.4-3.6,10-7.1c3.3-4.3,3.5-9.1,3.6-14.3
	c0.3-20.1,1-40.3,1.5-60.4c0-1.3,0.6-2.8-0.6-4C374.5,554.8,321.5,632.5,318.9,637.3z M129.6,725.8c-1.2,19.2-1.1,61.1,0.2,65.4
	c23.7-10.8,47.4-21.5,71.3-32.3c-1.2-3.1-2.4-5.9-3.4-8.8c-0.7-2.2-2-3-4.4-3c-6.3,0.2-12.7-0.2-19,0.1
	c-14.6,0.6-26.8-4.9-37.4-14.6C134.6,730.4,132.2,728.2,129.6,725.8z M294.8,747.8c4.6,14.3,11.8,26.1,25.6,32.4
	c10.4,4.7,25.5,1.2,33.2-7.3c-7.8-6.8-14.5-14.6-20.6-23c-0.9-1.2-1.8-2.1-3.5-2.1C318.2,747.8,306.8,747.8,294.8,747.8z M215,747.5
	c3.7,10.7,10.7,18,19.7,23.5c5.1,3.1,10.7,4.3,16.7,3.8c9.1-0.7,16.6-4.8,23.2-10.7c5.9-5.2,5.9-6.2,3-13.5
	c-0.8-2.1-1.8-3.2-4.2-3.2C254.2,747.5,235,747.5,215,747.5z"/>
<path class="st1" d="M576.9,642.5c-0.3,30.8-0.8,77.8-1.3,124.8c0,4.3-0.1,4.3-4.3,4.6c-1.8,0.1-3.6,0.1-5.4,0.1
	c-49,0.8-98,1.4-147.1,2.5c-11,0.3-21.6-0.3-32.2-3.3c-10.4-2.9-19.3-8.3-26.8-15.9c-5.7-5.7-10.7-11.9-15-18.6
	c-3-4.7-6.7-7.5-12.7-6c-1.5,0.4-3.3,0.1-4.9,0.1c-53.4-0.3-106.8-0.6-160.2-0.8c-4,0-7.5-0.9-10.8-2.9c-7.3-4.3-13.5-9.7-17.4-17.5
	c-6.4-12.6-5-24.9,1-37.1c0.5-1,1.1-1.9,1.6-2.8c6.1-10.2,14.7-15.5,26.9-15.2c11.6,0.3,23.2,0,34.9,0c45.6,0,91.2,0,136.7,0
	c7.1,0,14.1,0.2,21.2-0.8c17.3-2.3,27.1-12.7,31.9-28.6c0.8-2.6,1.3-5.3,1.4-8c0.7-27.8,1.5-55.5,2.3-83.3c0-1.6,0.4-3.6-0.3-4.8
	c-1.7-3-0.4-5,1.2-7.4c16.9-24.7,33.8-49.4,50.7-74.2c2.8-4.1,2.9-4.1,7.8-2.7c38.9,11.5,77.9,23,116.8,34.4
	c0.2,0.1,0.4,0.1,0.5,0.1c5.2,1.5,5.2,1.5,5.2,6.9C577.9,532.9,577.5,579.6,576.9,642.5z"/>
<path class="st1" d="M186.6,636.7c1.2-1.7,2.2-3.3,3.3-4.9c62.4-87.3,124.9-174.5,187.3-261.8c68.1-95.2,136.3-190.5,204.4-285.7
	c4-5.6,4-5.7,9.7-2.1c18.4,11.7,36.8,23.4,55.1,35.1c5.3,3.4,5,2.5,1.6,7.5c-51.7,75.7-103.4,151.4-155.1,227.1
	C429,445.5,365,539,301.2,632.6c-2.4,3.5-4.8,4.9-9.2,4.9c-33.4-0.2-66.8-0.1-100.3-0.1C190.2,637.3,188.6,637.7,186.6,636.7z"/>
<path class="st1" d="M594.1,611.4c0.5-51,1-102,1.6-153c0.1-7.6,3.4-11.2,11-11.8c1.4-0.1,2.9-0.1,4.4-0.1
	c33.6,0.2,67.2,0.4,100.8,0.6c2.2,0,4.4,0.1,6.5,0.5c5.5,0.9,8.6,4.4,9.1,9.9c0.1,1.3,0.1,2.5,0.1,3.8
	c-0.3,59.4-0.6,118.7-0.8,178.1c0,3.3-1.2,4.6-4.1,5.8c-33.7,14.1-61,36.1-81.7,66.2c-13.6,19.8-22.7,41.6-27.6,65.2
	c-1.1,5.1-1.1,5.1-6.4,4.5c-1.6-0.2-3.2-0.4-4.8-1c-5.8-1.9-9-5.9-9.4-12c-0.1-2.4-0.1-4.7-0.1-7.1
	C593.1,711.3,593.6,661.4,594.1,611.4z"/>
<path class="st1" d="M317.6,424.3c-8.8,12.3-17.5,24.5-26.3,36.8c-41.1,57.4-82.2,114.9-123.2,172.3c-2,2.8-4.1,4.4-7.8,5
	c-13,2.2-23.7,8.4-31.3,19.6c-9.5,13.9-15.1,28.8-14.9,45.8c0.1,7.4-0.1,14.9-0.2,22.3c-0.1,4-0.6,4.6-4.6,5.3
	c-4.2,0.8-8.5,0.3-12.4-0.8c-17-5.1-30.5-14.7-36.4-32.2c-2.8-8.3-2.7-16.7,2.4-24.5c22.3-34.4,44.6-68.8,66.9-103.3
	c15-23.2,30.5-46,44.9-69.5c6.8-11.1,15.8-19.2,26.8-25.5c14.9-8.6,30.6-15.7,46.5-22.4c21-8.9,42-18,63-27c2-0.8,4-1.6,6-2.4
	C317.1,423.9,317.4,424.1,317.6,424.3z"/>
<path class="st1" d="M318.9,637.3c2.6-4.8,55.5-82.5,59.5-87.3c1.2,1.2,0.7,2.7,0.6,4c-0.5,20.1-1.2,40.3-1.5,60.4
	c-0.1,5.2-0.3,10-3.6,14.3c-2.6,3.5-5.8,6-10,7.1c-3,0.8-6,1.5-9.1,1.5C343,637.3,331.2,637.3,318.9,637.3z"/>
<path class="st1" d="M129.6,725.8c2.6,2.4,5,4.6,7.4,6.7c10.5,9.7,22.7,15.2,37.4,14.6c6.3-0.2,12.7,0.1,19-0.1
	c2.4-0.1,3.6,0.7,4.4,3c0.9,2.9,2.2,5.7,3.4,8.8c-23.9,10.8-47.5,21.6-71.3,32.3C128.5,786.9,128.4,745,129.6,725.8z"/>
<path class="st1" d="M294.8,747.8c12,0,23.4,0,34.7,0c1.7,0,2.6,0.9,3.5,2.1c6,8.4,12.7,16.2,20.6,23c-7.7,8.6-22.8,12.1-33.2,7.3
	C306.6,773.9,299.4,762.1,294.8,747.8z"/>
<path class="st1" d="M215,747.5c20,0,39.2,0,58.4-0.1c2.5,0,3.4,1,4.2,3.2c2.8,7.4,2.8,8.3-3,13.5c-6.6,5.9-14.2,10-23.2,10.7
	c-5.9,0.4-11.6-0.7-16.7-3.8C225.7,765.4,218.7,758.2,215,747.5z"/>
<path class="st2" d="M791.9,944.3c-66.1,0-121-45.6-132.7-109c-11.4-61.5,23.3-125,81.7-148.9c39.8-16.3,79.3-15,117.1,5.4
	c36.2,19.6,58.8,50.3,66.7,90.8c14.5,73.8-34.7,145.7-110.5,159.6C806.3,943.6,798.3,944.1,791.9,944.3z M791.6,927.3
	c5.2,0.2,11.9-0.3,18.5-1.5c64.7-11.2,106.3-69.7,99.6-129.2c-4.9-44-28-75.7-68.2-94c-30.8-14.1-62.3-13.6-93.6-1
	c-51.1,20.5-81.9,76.1-72.4,130C685.4,887.2,733.2,927.2,791.6,927.3z"/>
<path class="st2" d="M763.6,810.8c2.3-2.7,4.1-5,6.1-7c21.2-21.4,42.5-42.8,64.4-63.5c2-1.9,4.1-3.6,6.3-5.1
	c6.9-4.7,16.7-4,22.6,1.9c6.6,6.5,13.1,13.1,19.2,20.1c6.4,7.3,9.9,15.6,6.7,25.6c-1.5,4.8-4.8,8.5-8.3,11.9
	c-16.1,16-32.3,31.9-48.4,47.9c-11.7,11.7-23.2,23.5-35.1,35c-6.2,6.1-12.9,11.7-19.5,17.4c-1.1,1-2.3,1.7-3.6,2.5
	c-10.8,6.8-17.2,6.4-27.2-1.7c-7.4-6-13.6-13.1-20.1-19.9c-10.2-10.6-20.5-21.1-30.7-31.7c-4.2-4.3-7.6-9.2-10.8-14.3
	c-4.1-6.6-3.1-12.8,0.8-18.9c0.9-1.4,1.9-2.6,3.1-3.8c5-5.2,10.1-10.5,15.2-15.6c3.9-3.9,8.2-7.1,13.3-9.3c6.6-3,12.8-2.3,18.4,2.2
	c3.4,2.7,6.6,5.7,9.7,8.7C751.4,798.8,757,804.4,763.6,810.8z M750.7,823.7c-7.9-8.4-14.8-16.1-22.1-23.5c-3.1-3.2-6.4-3.2-10.3-0.4
	c-6.8,4.9-12.8,10.7-18,17.3c-2.5,3.2-2.5,4.6-0.3,7.8c3,4.3,6.2,8.5,9.9,12.3c13.2,13.3,26.4,26.5,39.6,39.8c1.3,1.3,2.6,2.5,4,3.6
	c3.2,2.6,6.7,3.2,10.7,1.9c3-0.9,5.7-2.4,8.2-4.2c3.9-2.9,7.4-6.4,10.8-10c28.6-30.2,58.7-58.8,88.2-88.1c3.5-3.4,4-6.7,0.9-10.5
	c-5.9-7.2-12.6-13.6-19.2-20c-2-1.9-4.1-1.9-6.3-0.3c-2.5,1.9-4.7,4-6.8,6.2c-8.9,9.3-17.8,18.6-26.9,27.8
	c-11,11.1-22.2,21.9-32.9,33.3c-7.3,7.8-14.9,15.3-22.6,22.9c-4.3,4.2-9,4.5-12.6,1.1c-3.6-3.4-3.4-8.6,0.9-13
	C747.5,826.1,749.4,824.7,750.7,823.7z"/>
<path class="st3" d="M353.4,522.3l22,22c5.2,5.2,13.7,5.2,18.9,0l22-22c5.2-5.2,5.2-13.7,0-18.9l-22-22c-5.2-5.2-13.7-5.2-18.9,0
	l-22,22C348.1,508.6,348.1,517,353.4,522.3z"/>
<path class="st3" d="M353.4,586.4l22,22c5.2,5.2,13.7,5.2,18.9,0l22-22c5.2-5.2,5.2-13.7,0-18.9l-22-22c-5.2-5.2-13.7-5.2-18.9,0
	l-22,22C348.1,572.7,348.1,581.2,353.4,586.4z"/>
<path class="st2" d="M659,945.7l17.3,17.3c2.5,2.5,6.6,2.5,9.1,0l17.3-17.3c2.5-2.5,2.5-6.6,0-9.1l-17.3-17.3
	c-2.5-2.5-6.6-2.5-9.1,0L659,936.5C656.5,939.1,656.5,943.2,659,945.7z"/>
<path class="st2" d="M784.4,860.3l17.3,17.3c2.5,2.5,6.6,2.5,9.1,0l17.3-17.3c2.5-2.5,2.5-6.6,0-9.1l-17.3-17.3
	c-2.5-2.5-6.6-2.5-9.1,0l-17.3,17.3C781.9,853.7,781.9,857.8,784.4,860.3z"/>
<circle class="st4" cx="790.2" cy="809.2" r="171"/>
</svg>
