<?xml version="1.0" encoding="utf-8"?>
<!-- Generator: Adobe Illustrator 28.0.0, SVG Export Plug-In . SVG Version: 6.00 Build 0)  -->
<svg version="1.1" id="Capa_1" xmlns="http://www.w3.org/2000/svg" xmlns:xlink="http://www.w3.org/1999/xlink" x="0px" y="0px"
	 viewBox="0 0 1080 1080" style="enable-background:new 0 0 1080 1080;" xml:space="preserve">
<style type="text/css">
	.st0{fill:#090909;}
	.st1{fill:#FEFEFE;}
	.st2{fill:#29E4A5;}
	.st3{fill:#6EE1EB;}
	.st4{fill:none;stroke:#29E4A5;stroke-width:20;stroke-miterlimit:10;}
</style>
<path class="st0" d="M729.2,642.5c6.4-1.8,12.7-4.1,19.2-5.7c21.2-5.4,42.6-6.8,64.3-4.4c77.2,8.5,124.1,59.2,143.1,103.5
	c19.2,44.9,20.7,90.5,2.3,135.6c-24.7,60.5-70,98.5-133.8,111.6c-63,13-118.6-4-164.9-49.3c-15.3-15-27-32.7-35.3-52.5
	c-1.4-3.4-3.1-4.4-6.8-4.5c-91.4-0.3-182.7-0.6-274.1-1.1c-11.2-0.1-21.5-3.2-29.5-11.7c-5.8-6.2-9-13.5-9.3-22.1
	c-0.1-4.2,0-8.4,0-12.5c-0.2-127.9-0.6-255.7-0.5-383.6c0-16.4,0.2-33.1,4.6-49.2c9.9-35.7,30.4-63.4,62.5-82.4
	c19.4-11.5,40.4-17.7,62.6-20.7c3-0.4,6.8,1.1,8.9-1.1c1.8-1.9,2-5.3,3.1-8c5.2-13.1,13.6-23.9,24.5-32.8
	c15.6-12.6,33.7-20,53.3-23.1c29.3-4.6,57.6-0.9,84.1,12.7c19.1,9.8,34.8,23.3,43.8,43.1c2.8,6.1,5.8,8,12.4,7.8
	c17.2-0.7,34.5-0.4,51.8-0.5c1.3,0,2.5-0.1,3.8,0c6,0.4,9.4,3.5,9.9,9.5c0.4,4,0.2,8,0.2,12c0,2.5-0.3,5.1-0.3,7.6
	c-0.2,105.3-0.4,210.7-0.5,316C728.8,638.7,728.4,640.5,729.2,642.5z M615.8,859.5c0.4-1.7-0.4-3.2-0.8-4.7
	c-3.5-14-5.2-28.1-5.3-42.6c-0.1-24.9,5-48.7,15-71.4c15.4-35.1,39.9-62.5,72.4-82.7c3.8-2.4,7.9-4.4,12-6.4c1.9-0.9,2.9-2,2.7-4.1
	c-0.1-1.1,0-2.2,0-3.3c0.2-72.1,0.3-144.2,0.5-216.3c0.1-37.6,0.1-75.2,0.1-112.8c0-6.3-0.1-6.3-6.5-6.3
	c-86.1,0.4-172.2,0.8-258.3,1.2c-19.3,0.1-37.8,4.1-55.3,12.2c-34.3,15.8-57.2,41.6-67.1,78.3c-3.8,13.9-4.4,28.2-4.4,42.7
	c0.3,131.7,0.4,263.4,0.3,395.1c0,12.7,9.8,19.7,18.6,20.1c3.6,0.2,7.3,0.4,10.9,0.4c86.8,0.4,173.6,0.8,260.5,1.2
	C612.6,860,614.2,860.4,615.8,859.5z M954.2,806.8c-0.4-12.9-1.7-25.5-4.8-37.9c-19.7-79.3-95.8-130.2-178.4-119.4
	c-38.5,5.1-71.5,21.9-98.6,49.8c-44.5,45.6-58,113.4-34.4,172c22.8,56.4,78.2,97.7,146.3,99.1c26.2,0.6,51.4-4.5,74.8-16.3
	C919.7,923.7,950.8,874.1,954.2,806.8z M636.8,292.6c-4.5-9.5-10.1-16.5-16.9-22.6c-34-30.2-92.2-35.2-130.8-11.1
	c-10.3,6.4-19,14.6-24.8,25.4c-1.4,2.6-2.9,5.3-3.4,8.3C519.3,292.6,577.5,292.6,636.8,292.6z"/>
<path class="st0" d="M200.8,631.2c0.4-56.4,0.9-107.8,1.2-159.2c0-6,0.5-12,1.8-17.8c3.7-16.9,17.1-28.4,33.1-28.8
	c16.3-0.4,30.4,10.5,35.2,27.2c1.8,6.2,2.3,12.5,2.2,18.9c-0.5,73.6-0.9,147.1-1.4,220.7c-0.2,30.9-0.6,61.7-0.9,92.6
	c0,2.4-0.5,4.6-1.4,6.9c-9,22.6-18.1,45.1-27,67.7c-1.4,3.5-3.3,6.4-7.3,7.5c-4.6,1.2-8.9-0.5-11-4.8c-0.9-1.8-1.5-3.7-2.1-5.6
	c-7-20-13.9-40.1-21.2-60c-2.1-5.7-2.2-11.3-2.3-17.1c0-2.5,0.2-5.1,0.3-7.6C200.3,723.2,200.6,674.7,200.8,631.2z M234.3,837
	c6.5-16.2,12.4-31.2,18.6-46.1c1.8-4.4,2.7-8.9,2.7-13.7c0.4-77,0.9-154,1.4-231c0-1.1,0-2.2,0-3.3c0-1.4-0.6-2-2-1.9
	c-1.8,0-3.6,0-5.4-0.1c-9.3-0.1-18.5-0.2-27.8-0.4c-2.5-0.1-3.8,0.6-3.4,3.3c0.1,0.5,0,1.1,0,1.6c-0.6,78.6-1.2,157.3-1.8,235.9
	c0,3.7,0.6,7.1,1.9,10.6c3.5,9.7,6.8,19.5,10.3,29.3C230.4,826.2,232.2,831.1,234.3,837z M238.2,483.2c0,0.1,0,0.3,0,0.4
	c5.4,0,10.9,0,16.3,0c1.5,0,3,0.1,3-2.1c0.2-8.9,0.5-17.9-2.4-26.3c-2.4-7.1-7.6-12-15.4-12.9c-7.2-0.9-12.6,2.4-16.6,8.3
	c-2.2,3.2-3.3,6.8-3.8,10.6c-0.8,6.1-0.2,12.3-0.7,18.4c-0.2,3,1.1,3.7,3.8,3.6C227.7,483.1,233,483.2,238.2,483.2z M237.5,523.8
	c0,0.1,0,0.1,0,0.2c5.6,0,11.2-0.1,16.9,0c2.1,0,2.9-0.6,2.8-2.8c-0.1-6,0-12,0.1-18c0-1.8-0.6-2.6-2.5-2.6
	c-11.2-0.2-22.5-0.5-33.7-0.8c-1.9-0.1-2.6,0.7-2.5,2.5c0,6.2,0.1,12.3-0.1,18.5c-0.1,2.5,1,3,3.2,3
	C227,523.7,232.2,523.8,237.5,523.8z"/>
<path class="st0" d="M553.5,83.5c15.5,0.5,35.3,8.8,50.2,27.2c22.2,27.4,18.5,66.3-8.3,90.2c-28.7,25.5-73.9,24.9-101.9-1.3
	c-30.8-28.8-27.4-76.9,7.2-101.8C514.1,88,529.1,83.2,553.5,83.5z M545.2,202.6c13.7,0,26.1-4.1,36.9-12.6
	c22.9-18.1,25.8-49.7,6.6-71.3c-22.9-25.6-67.2-24.4-88.5,2.5c-14.8,18.6-14.5,43.7,0.8,61.6C512.5,196.3,527.6,202.4,545.2,202.6z"
	/>
<path class="st1" d="M615.8,859.5c-1.6,0.9-3.2,0.5-4.8,0.5c-86.8-0.4-173.6-0.8-260.5-1.2c-3.6,0-7.3-0.2-10.9-0.4
	c-8.8-0.4-18.6-7.4-18.6-20.1c0.1-131.7-0.1-263.4-0.3-395.1c0-14.4,0.6-28.8,4.4-42.7c9.9-36.6,32.8-62.5,67.1-78.3
	c17.5-8.1,36-12.1,55.3-12.2c86.1-0.4,172.2-0.8,258.3-1.2c6.3,0,6.5,0,6.5,6.3c0,37.6,0,75.2-0.1,112.8
	c-0.1,72.1-0.3,144.2-0.5,216.3c0,1.1-0.1,2.2,0,3.3c0.2,2.1-0.8,3.2-2.7,4.1c-4.1,2-8.2,4-12,6.4c-32.5,20.2-57,47.6-72.4,82.7
	c-10,22.7-15,46.5-15,71.4c0,14.4,1.8,28.6,5.3,42.6C615.4,856.3,616.2,857.8,615.8,859.5z M452.5,521c-0.5-12-6.1-21.4-17-27.4
	c-6-3.3-12.4-6-19-8c-3.7-1.1-7-2.9-9.8-5.6c-3-2.7-3.9-5.9-3.2-9.8c1.1-5.8,3.7-10.7,8.2-14.3c8.4-6.7,18.4-6.5,24.5,4.8
	c1.7,3.2,2.4,6.8,3.1,10.4c0.9,4.8,4.1,7.4,8.2,6.9c4-0.5,6.7-3.8,6.6-8.6c-0.1-5.7-1.8-11.1-4.2-16.2c-3.3-6.9-8.1-12.6-15.3-15.6
	c-5-2.1-9.1-3.8-8.8-10.5c0.1-3.8-3.7-6-7.3-5.8c-3.6,0.2-6.4,2.7-6.9,6.5c-0.3,1.8-0.3,3.6-0.2,5.4c0.1,2.5-0.9,3.8-3.2,5
	c-10,4.9-16.3,13.1-19.9,23.4c-4.6,13.3-1.6,23.6,9.1,32.6c3.8,3.2,8,5.5,12.8,6.9c6.3,1.9,12.3,4.3,18,7.6c5.3,3.1,7.8,8,7.2,14.2
	c-0.5,5.5-3.3,9.7-8.3,11.9c-13.1,5.7-25.7-2.2-28.5-12.7c-0.4-1.4-0.8-2.8-1.4-4.1c-1.9-3.7-5.8-5.3-9.6-4.2c-3.6,1-6,4.2-5.9,8.2
	c0.1,1.8,0.5,3.6,1,5.3c2.9,10.5,9.6,17.9,19.3,22.3c5.1,2.3,8.9,4.2,8.6,10.8c-0.2,3.9,4.3,6.6,8.1,6.5c3.9-0.2,7.2-3,7.9-7.1
	c0.2-1.2,0.3-2.6,0.1-3.8c-0.3-2.6,0.7-3.7,3.4-4.4C441.2,549,452.3,537.3,452.5,521z M518.9,611.9c0-0.3,0-0.5,0-0.8
	c-38,0-75.9,0-113.9,0c-2,0-4-0.2-5.9,0.5c-4,1.3-6.4,4.7-6,8.6c0.3,3.7,3,6.6,6.9,7.3c2,0.3,4,0.4,6,0.4
	c75.6,0.2,151.1,0.5,226.7,0.7c1.5,0,2.9,0.1,4.4-0.1c4.3-0.6,7.4-4.1,7.4-8.1c0.1-4-3-7.6-7.2-8.3c-1.8-0.3-3.6-0.2-5.4-0.2
	C594.1,611.9,556.5,611.9,518.9,611.9z M517.8,690.6c0,0.3,0,0.6,0,0.8c37.8,0,75.6,0,113.3,0c2.5,0,5.1,0.2,7.5-0.7
	c3.5-1.3,5.7-4.3,5.7-7.8c0-3.5-2.3-6.5-5.8-7.8c-2.5-0.9-5-0.7-7.5-0.7c-75.2-0.2-150.4-0.3-225.6-0.5c-1.6,0-3.3-0.1-4.9,0.1
	c-4.4,0.5-7.4,3.7-7.5,7.9c-0.1,4.2,2.7,7.6,7,8.4c1.8,0.3,3.6,0.2,5.4,0.2C443,690.6,480.4,690.6,517.8,690.6z M558.1,498.5
	C558.1,498.5,558.1,498.5,558.1,498.5c23.2-0.1,46.5-0.1,69.7-0.1c2.4,0,4.7,0.1,7-0.7c3.6-1.2,5.7-4,5.8-7.7c0-3.7-2-6.5-5.5-7.9
	c-2.5-1-5-0.7-7.5-0.7c-44.9,0-89.7,0-134.6,0c-2.5,0-5.1-0.1-7.6,0c-3.3,0.1-5.8,1.8-7.4,4.8c-3.1,5.8,1.8,12.6,9.3,12.5
	C510.9,498.3,534.5,498.5,558.1,498.5z"/>
<path class="st1" d="M636.8,292.6c-59.3,0-117.5,0-175.9,0c0.5-3,1.9-5.6,3.4-8.3c5.9-10.8,14.5-19,24.8-25.4
	c38.6-24.1,96.8-19.1,130.8,11.1C626.7,276.1,632.3,283.1,636.8,292.6z"/>
<path class="st1" d="M234.3,837c-2.1-5.9-3.9-10.8-5.7-15.8c-3.4-9.7-6.7-19.5-10.3-29.3c-1.3-3.5-1.9-6.9-1.9-10.6
	c0.7-78.6,1.2-157.3,1.8-235.9c0-0.5,0.1-1.1,0-1.6c-0.4-2.7,0.9-3.4,3.4-3.3c9.3,0.2,18.5,0.3,27.8,0.4c1.8,0,3.6,0.1,5.4,0.1
	c1.3,0,2,0.6,2,1.9c0,1.1,0,2.2,0,3.3c-0.5,77-1,154-1.4,231c0,4.8-0.9,9.3-2.7,13.7C246.8,805.8,240.8,820.8,234.3,837z"/>
<path class="st1" d="M238.2,483.2c-5.3,0-10.5-0.1-15.8,0c-2.7,0.1-4-0.6-3.8-3.6c0.5-6.1-0.1-12.3,0.7-18.4
	c0.5-3.8,1.7-7.4,3.8-10.6c4-5.8,9.4-9.1,16.6-8.3c7.8,0.9,12.9,5.8,15.4,12.9c2.9,8.5,2.6,17.5,2.4,26.3c0,2.2-1.6,2.1-3,2.1
	c-5.4,0-10.9,0-16.3,0C238.2,483.5,238.2,483.3,238.2,483.2z"/>
<path class="st1" d="M237.5,523.8c-5.3,0-10.5-0.1-15.8,0c-2.2,0-3.3-0.4-3.2-3c0.2-6.2,0.2-12.3,0.1-18.5c0-1.9,0.7-2.6,2.5-2.5
	c11.2,0.3,22.5,0.6,33.7,0.8c1.9,0,2.5,0.8,2.5,2.6c-0.1,6-0.2,12-0.1,18c0,2.2-0.8,2.8-2.8,2.8c-5.6-0.1-11.2,0-16.9,0
	C237.5,523.9,237.5,523.9,237.5,523.8z"/>
<path class="st1" d="M545.2,202.6c-17.6-0.2-32.6-6.3-44.2-19.7c-15.4-17.8-15.6-43-0.8-61.6c21.3-26.9,65.7-28.2,88.5-2.5
	c19.2,21.5,16.3,53.2-6.6,71.3C571.3,198.5,558.9,202.6,545.2,202.6z"/>
<path class="st0" d="M452.5,521c-0.1,16.3-11.3,27.9-22.3,30.6c-2.7,0.7-3.7,1.8-3.4,4.4c0.1,1.2,0.1,2.6-0.1,3.8
	c-0.7,4-3.9,6.9-7.9,7.1c-3.9,0.1-8.3-2.6-8.1-6.5c0.3-6.7-3.5-8.6-8.6-10.8c-9.7-4.3-16.4-11.8-19.3-22.3c-0.5-1.7-0.9-3.5-1-5.3
	c-0.2-4,2.2-7.1,5.9-8.2c3.9-1.1,7.7,0.5,9.6,4.2c0.7,1.3,1,2.7,1.4,4.1c2.8,10.5,15.3,18.4,28.5,12.7c5-2.1,7.8-6.3,8.3-11.9
	c0.6-6.2-1.9-11.1-7.2-14.2c-5.6-3.3-11.7-5.7-18-7.6c-4.8-1.5-9-3.8-12.8-6.9c-10.8-9-13.8-19.3-9.1-32.6
	c3.6-10.3,9.9-18.5,19.9-23.4c2.3-1.1,3.3-2.5,3.2-5c-0.1-1.8-0.1-3.6,0.2-5.4c0.5-3.8,3.3-6.3,6.9-6.5c3.6-0.2,7.4,2,7.3,5.8
	c-0.3,6.7,3.7,8.5,8.8,10.5c7.2,2.9,12,8.6,15.3,15.6c2.4,5.1,4.1,10.5,4.2,16.2c0.1,4.8-2.6,8.1-6.6,8.6c-4.1,0.5-7.3-2.1-8.2-6.9
	c-0.6-3.6-1.3-7.2-3.1-10.4c-6.1-11.3-16.1-11.5-24.5-4.8c-4.5,3.6-7.2,8.5-8.2,14.3c-0.7,3.9,0.2,7.1,3.2,9.8
	c2.9,2.6,6.1,4.5,9.8,5.6c6.6,2,13,4.7,19,8C446.4,499.6,452,509,452.5,521z"/>
<path class="st0" d="M518.9,611.9c37.6,0,75.2,0,112.8,0c1.8,0,3.7-0.1,5.4,0.2c4.2,0.6,7.3,4.2,7.2,8.3c-0.1,4.1-3.2,7.5-7.4,8.1
	c-1.4,0.2-2.9,0.1-4.4,0.1c-75.6-0.2-151.1-0.4-226.7-0.7c-2,0-4,0-6-0.4c-3.9-0.7-6.6-3.6-6.9-7.3c-0.3-4,2.1-7.3,6-8.6
	c2-0.6,4-0.5,5.9-0.5c38,0,75.9,0,113.9,0C518.9,611.3,518.9,611.6,518.9,611.9z"/>
<path class="st0" d="M517.8,690.6c-37.4,0-74.8,0-112.3,0c-1.8,0-3.7,0.1-5.4-0.2c-4.3-0.8-7.2-4.2-7-8.4c0.1-4.2,3.1-7.4,7.5-7.9
	c1.6-0.2,3.3-0.2,4.9-0.1c75.2,0.2,150.4,0.3,225.6,0.5c2.5,0,5.1-0.2,7.5,0.7c3.5,1.3,5.8,4.3,5.8,7.8c0,3.5-2.3,6.5-5.7,7.8
	c-2.5,0.9-5,0.7-7.5,0.7c-37.8,0-75.6,0-113.3,0C517.8,691.1,517.8,690.8,517.8,690.6z"/>
<path class="st0" d="M558.1,498.5c-23.6,0-47.2-0.2-70.8,0.1c-7.5,0.1-12.4-6.6-9.3-12.5c1.6-3,4-4.6,7.4-4.8c2.5-0.1,5.1,0,7.6,0
	c44.9,0,89.7,0,134.6,0c2.5,0,5.1-0.2,7.5,0.7c3.6,1.4,5.6,4.2,5.5,7.9c0,3.7-2.2,6.5-5.8,7.7c-2.3,0.8-4.7,0.7-7,0.7
	C604.6,498.4,581.4,498.4,558.1,498.5C558.1,498.5,558.1,498.5,558.1,498.5z"/>
<path class="st2" d="M792,944.3c-66.2,0-121.9-46.4-132.9-109.4c-10.3-59.2,20.2-119.1,74.8-145.3c41.7-20,83.8-19.6,124.5,2.4
	c36.3,19.7,58.7,50.8,66.5,91.5c13.9,72.6-34.5,144.5-110.7,158.6C806.4,943.6,798.4,944.1,792,944.3z M791.4,692.4
	c-4.6,0-11.7,0.5-18.6,1.8c-55.7,10.5-92.2,55.2-97.7,102.3c-4.7,40.1,7.2,74.9,37.7,101.3c38.4,33.3,82.3,38.6,128.5,18.1
	c49.8-22.1,77.8-77.9,67-130.8C897.1,730.8,849.7,692.4,791.4,692.4z"/>
<path class="st2" d="M762.9,810c2.3-1.3,3.8-3.2,5.4-4.8c21.6-21.8,43.3-43.5,65.5-64.7c2-1.9,4.1-3.6,6.3-5.2
	c7.1-4.9,16.9-4.2,23,1.9c6.4,6.4,12.8,12.9,18.8,19.7c6.4,7.3,10.1,15.5,7,25.5c-1.5,5.1-4.9,8.8-8.6,12.4
	c-19.1,18.9-38.2,37.8-57.3,56.7c-8.6,8.6-17,17.4-25.8,25.8c-6.4,6.2-13.2,11.9-19.9,17.8c-0.5,0.5-1.2,0.9-1.7,1.3
	c-11.7,8.1-19,7.7-29.9-1.4c-8-6.7-14.7-14.6-21.9-22c-9.4-9.6-18.7-19.3-28.1-29c-4.2-4.3-7.6-9.2-10.8-14.3
	c-3.5-5.8-3.9-11.9,0-16.9c9-11.8,18.5-23.3,32.1-30.4c6.9-3.6,13.3-2.4,19.2,2.4c7.7,6.3,14.5,13.7,21.7,20.6
	C759.8,807.1,761.3,808.5,762.9,810z M750.7,823.6c-7.8-8.4-14.8-16-22-23.4c-3.1-3.2-6.4-3.3-10.3-0.5c-6.8,4.8-12.8,10.7-18,17.3
	c-2.6,3.2-2.6,4.6-0.3,7.8c3,4.3,6.1,8.6,9.9,12.3c13.2,13.3,26.4,26.5,39.6,39.8c1.3,1.3,2.6,2.5,4,3.6c3.2,2.6,6.7,3.2,10.7,2
	c3-0.9,5.7-2.4,8.2-4.2c4-2.9,7.4-6.4,10.8-9.9c28.6-30.2,58.7-58.8,88.2-88.1c3.5-3.4,3.9-6.6,1-10.5c-1.6-2.2-3.6-4.1-5.5-6.1
	c-4.3-4.4-8.6-8.9-13-13.2c-3.2-3.1-4.5-3.1-8-0.4c-2.1,1.7-4.1,3.6-6,5.5c-9.1,9.4-18.1,18.8-27.3,28.1
	c-11,11.1-22.2,21.9-32.9,33.3c-7.3,7.8-14.9,15.4-22.6,22.8c-4.2,4.1-9.2,4-12.6,0.4c-3.1-3.3-2.9-8.2,0.9-12.2
	C747.2,826.3,749.3,824.8,750.7,823.6z"/>
<path class="st3" d="M283.6,427.4l22,22c5.2,5.2,13.7,5.2,18.9,0l22-22c5.2-5.2,5.2-13.7,0-18.9l-22-22c-5.2-5.2-13.7-5.2-18.9,0
	l-22,22C278.4,413.7,278.4,422.2,283.6,427.4z"/>
<path class="st3" d="M283.6,491.5l22,22c5.2,5.2,13.7,5.2,18.9,0l22-22c5.2-5.2,5.2-13.7,0-18.9l-22-22c-5.2-5.2-13.7-5.2-18.9,0
	l-22,22C278.4,477.9,278.4,486.3,283.6,491.5z"/>
<path class="st2" d="M663.4,950.3l17.3,17.3c2.5,2.5,6.6,2.5,9.1,0l17.3-17.3c2.5-2.5,2.5-6.6,0-9.1l-17.3-17.3
	c-2.5-2.5-6.6-2.5-9.1,0l-17.3,17.3C660.8,943.7,660.8,947.8,663.4,950.3z"/>
<path class="st2" d="M777.8,868.6l17.3,17.3c2.5,2.5,6.6,2.5,9.1,0l17.3-17.3c2.5-2.5,2.5-6.6,0-9.1l-17.3-17.3
	c-2.5-2.5-6.6-2.5-9.1,0l-17.3,17.3C775.2,862,775.2,866.1,777.8,868.6z"/>
<circle class="st4" cx="790.3" cy="809.2" r="171"/>
</svg>
