<?xml version="1.0" encoding="utf-8"?>
<!-- Generator: Adobe Illustrator 28.0.0, SVG Export Plug-In . SVG Version: 6.00 Build 0)  -->
<svg version="1.1" id="Capa_1" xmlns="http://www.w3.org/2000/svg" xmlns:xlink="http://www.w3.org/1999/xlink" x="0px" y="0px"
	 viewBox="0 0 1080 1080" style="enable-background:new 0 0 1080 1080;" xml:space="preserve">
<style type="text/css">
	.st0{fill:#090A0A;}
	.st1{fill:#FEFEFE;}
	.st2{fill:#FF5500;}
	.st3{fill:#6EE1EB;}
	.st4{fill:none;stroke:#FF5500;stroke-width:19;stroke-miterlimit:10;}
</style>
<path class="st0" d="M461,428.7c39.3,11.6,78.1,23,116.6,34.4c1.2-1.3,0.9-2.4,0.9-3.4c0.3-17.6,13.8-29.9,30.2-29.8
	c36,0.1,71.9,0.1,107.9,0.3c17.2,0.1,28.5,11.7,28.1,28.6c-1.4,47.2-0.4,94.5-0.9,141.7c-0.1,11.4-0.1,22.9-0.1,34.3
	c0,0.9,0.2,1.8,0.3,2.8c6.7-1.3,13.3-2.7,19.9-3.9c16.2-2.8,32.5-3.1,48.9-1.3c46.2,5.1,84.8,25.2,115.4,60.1
	c24.1,27.4,37.7,59.6,41.6,95.8c7.9,73.2-31.7,147-103.2,181.1c-28.8,13.7-59.2,19.8-90.9,17.5c-46.4-3.3-86.3-21.5-118.5-55.4
	c-25.6-26.9-40.5-59-45.9-95.6c-1.6-11-1.6-22.1-1.3-33.2c0.1-3.9,0-3.9-3.9-4.4c-7.3-0.8-14.3-2.9-19.9-7.9
	c-2.1-1.9-4.2-1.8-6.5-1.8c-34.9,0.6-69.7,1.2-104.6,1.8c-22.9,0.4-45.8,1-68.6,0.6c-12.5-0.2-24.6-2.5-35.9-7.8
	c-2.8-1.3-4.3-1-6.5,1.3c-10,10.4-22.7,14.6-36.9,14.3c-9.5-0.2-17.5-4.2-24.8-9.9c-5.6-4.4-10.2-9.7-14.6-15.7
	c-3.8,3.2-7.2,6.7-11.3,9.4c-11.4,7.3-23.5,11.4-37.2,8.2c-9.8-2.3-18-7.5-25.2-14.5c-3.3-3.2-3.4-3.2-7.3-1.4
	c-26.6,12.1-53.1,24.2-79.7,36.3c-10.6,4.8-15.4,1.7-15.3-9.9c0.2-16.7,0.3-33.4,0.5-50.1c0-4.1,0-4.2-4.1-3.8
	c-25.9,2.4-56.4-16.2-64.7-46.6c-3.5-12.7-1.9-25.1,5.5-36.6c35.2-54.2,70.4-108.4,105.6-162.6c0.7-1.1,1.5-2.1,2.1-3.2
	c10.8-19.9,27.4-33.5,47.3-43.5c15.1-7.6,30.6-14.2,46.1-20.8c25.5-10.9,50.7-22.4,76.6-32.4c7.5-2.9,12.7-7.2,17.3-13.6
	C419.9,281.3,496.2,174.7,572.5,68c1.1-1.5,1.9-3.1,2.7-4.7c2.3-4.7,6.7-6.1,11.4-3.9c1.3,0.6,2.5,1.4,3.8,2.2
	c24.2,15.4,48.4,30.8,72.6,46.2c0.2,0.1,0.3,0.2,0.4,0.3c9.1,5.9,9.9,9.8,3.9,18.6c-67.6,98.9-135.2,197.9-202.8,296.8
	C463.4,425,462.5,426.5,461,428.7z M576.9,641.9c0.6-62.4,1-109.2,1.5-156.1c0-4.8,0-4.8-4.6-6.2c-0.5-0.2-1.1-0.3-1.6-0.4
	c-38.8-11.4-77.5-22.9-116.3-34.3c-5-1.5-5-1.5-7.8,2.6c-16.9,24.7-33.8,49.5-50.7,74.2c-1.6,2.3-2.9,4.4-1.2,7.3
	c0.7,1.3,0.4,3.2,0.3,4.8c-0.7,27.8-1.5,55.6-2.3,83.3c-0.1,2.4-0.4,4.7-1.1,7c-4.7,16.8-14.7,27.5-32.7,29.8
	c-7.1,0.9-14.1,0.7-21.2,0.7c-54.1,0-108.2,0-162.3,0c-3.1,0-6.2,0.2-9.3,0.1c-11.4-0.4-19.8,4.6-25.7,14.2
	c-0.8,1.2-1.6,2.4-2.3,3.7c-6.3,12.6-7.4,25.2-0.6,38c3.9,7.3,9.9,12.4,16.9,16.5c3.4,2,6.9,2.9,10.8,2.9
	c53.4,0.2,106.8,0.5,160.2,0.8c1.6,0,3.3,0.3,4.9-0.1c5.9-1.5,9.6,1.2,12.7,6c4.4,6.7,9.4,12.9,15,18.6c7.6,7.6,16.5,13,26.8,15.9
	c10.6,3,21.2,3.6,32.2,3.3c49-1.2,98-1.8,147.1-2.5c1.8,0,3.6-0.1,5.4-0.1c4.3-0.2,4.3-0.2,4.4-4.5
	C576,720.5,576.5,673.4,576.9,641.9z M186.4,636.8c2.4,1.1,4.2,0.7,6,0.7c33.2,0,66.5,0,99.7,0.1c4.1,0,6.5-1.1,8.8-4.6
	c25-37,50.3-73.8,75.5-110.7c90.5-132.5,181.1-265,271.6-397.6c3.4-5,3.6-4.1-1.8-7.5c-18.2-11.6-36.4-23.2-54.6-34.8
	c-6-3.8-6-3.8-10.1,2C456.7,259,331.8,433.5,206.9,608.1C200.2,617.5,193.5,627,186.4,636.8z M594.1,611.6
	c-0.5,50.1-1,100.2-1.5,150.4c0,2.5,0,5.1,0.2,7.6c0.5,5,3.3,8.3,7.8,10.3c2.2,1,4.5,1.4,6.9,1.6c4.8,0.4,4.8,0.4,5.7-4.1
	c4.2-20.4,11.5-39.6,22.5-57.5c21-34.2,50.1-59,87-74.5c2.9-1.2,4.1-2.6,4.1-5.9c0.2-59.2,0.5-118.4,0.8-177.6
	c0-1.5,0.1-2.9-0.1-4.4c-0.5-5.6-3.6-9-9.2-9.9c-2.3-0.4-4.7-0.4-7-0.5c-33-0.2-66.1-0.4-99.1-0.6c-1.8,0-3.6-0.1-5.4,0.1
	c-7.6,0.6-10.9,4.2-10.9,11.8C595.1,509.5,594.6,560.6,594.1,611.6z M954,816.3c0-30.6-4.7-53.3-12.8-72
	c-28.8-66.4-98-104.3-170.1-94.7c-38.7,5.1-72.2,21.7-99,50.2c-38.5,41-53.5,89.7-42.2,145c14.7,72,77.8,124,154.3,125.7
	c26.2,0.6,51.4-4.5,74.8-16.2C919.6,923.9,950.8,874.3,954,816.3z M317.6,424.3c-0.2-0.2-0.5-0.4-0.7-0.5c-2,0.8-4,1.6-6,2.4
	c-22.5,9.6-45,19.3-67.5,28.9c-14.4,6.1-28.4,12.7-42,20.6c-11,6.4-20,14.4-26.8,25.6c-14.4,23.5-29.9,46.4-44.9,69.6
	c-22.3,34.4-44.6,68.9-66.9,103.3c-5,7.6-5.2,15.9-2.5,24c5.8,17.8,19.4,27.5,36.6,32.6c3.9,1.2,8.2,1.6,12.4,0.8
	c4-0.8,4.5-1.2,4.5-5.4c0.1-7.3,0.3-14.5,0.2-21.8c-0.2-16.6,4.9-31.3,14-45c7.7-11.7,18.4-18.4,31.8-20.8c3.8-0.7,6.1-2.1,8.3-5.1
	c41-57.5,82.1-114.9,123.2-172.4C300.1,448.9,308.8,436.6,317.6,424.3z M378.6,549.6c-7.5,9.8-57.1,82.9-59.3,87.3
	c0.5,0.8,1.3,0.5,1.9,0.5c10.7,0,21.4,0,32.1,0c3.5,0,6.9-0.7,10.2-1.5c4.2-1,7.5-3.3,10.1-6.9c3-4.1,3.9-8.5,3.9-13.7
	c0-14,0.8-27.9,1.1-41.9C378.7,565.9,378.6,558.1,378.6,549.6z M201.1,759c-1.3-3.3-2.5-6-3.4-8.7c-0.7-2.2-1.9-3.1-4.3-3
	c-6.5,0.2-13.1-0.1-19.6,0.1c-14.4,0.5-26.4-5-36.8-14.6c-2.4-2.2-4.7-4.6-7.3-7.2c-1.2,16.2-1.1,61.5,0.1,65.8
	C153.5,780.6,177.2,769.9,201.1,759z M294.8,747.9c3.9,12.8,10.3,23.2,21.4,30.3c5.8,3.7,12.1,4.8,18.8,3.9c7.1-1.1,13.8-3.1,18.8-9
	c-8-6.8-14.6-14.5-20.5-22.8c-1.2-1.6-2.4-2.4-4.5-2.4C317.7,747.9,306.7,747.9,294.8,747.9z M214.9,747.5c3.9,11,11,18.4,20.3,23.9
	c4.2,2.4,8.7,3.6,13.5,3.6c10,0.1,18.2-4.1,25.5-10.5c6.1-5.4,6.2-6.5,3.3-13.9c-0.9-2.2-1.9-3.1-4.3-3c-5.1,0.2-10.1,0-15.2,0
	C243.9,747.5,229.7,747.5,214.9,747.5z"/>
<path class="st1" d="M576.9,641.9c-0.3,31.5-0.8,78.6-1.3,125.6c0,4.3-0.1,4.3-4.4,4.5c-1.8,0.1-3.6,0.1-5.4,0.1
	c-49,0.8-98.1,1.3-147.1,2.5c-11,0.3-21.7-0.3-32.2-3.3c-10.4-2.9-19.3-8.3-26.8-15.9c-5.7-5.7-10.7-11.9-15-18.6
	c-3-4.7-6.7-7.5-12.7-6c-1.5,0.4-3.3,0.1-4.9,0.1c-53.4-0.3-106.8-0.6-160.2-0.8c-4,0-7.5-1-10.8-2.9c-7-4.1-13-9.2-16.9-16.5
	c-6.8-12.8-5.7-25.5,0.6-38c0.7-1.3,1.5-2.5,2.3-3.7c5.9-9.6,14.3-14.6,25.7-14.2c3.1,0.1,6.2-0.1,9.3-0.1c54.1,0,108.2,0,162.3,0
	c7.1,0,14.1,0.2,21.2-0.7c18-2.3,28-13,32.7-29.8c0.6-2.3,1-4.6,1.1-7c0.8-27.8,1.5-55.6,2.3-83.3c0-1.6,0.4-3.6-0.3-4.8
	c-1.7-3-0.4-5,1.2-7.3c16.9-24.7,33.8-49.4,50.7-74.2c2.8-4.1,2.8-4.1,7.8-2.6c38.8,11.4,77.5,22.9,116.3,34.3
	c0.5,0.2,1.1,0.3,1.6,0.4c4.6,1.4,4.6,1.4,4.6,6.2C577.9,532.7,577.4,579.5,576.9,641.9z"/>
<path class="st1" d="M186.4,636.8c7-9.8,13.8-19.3,20.5-28.7C331.8,433.5,456.7,259,581.5,84.4c4.1-5.8,4.1-5.8,10.1-2
	c18.2,11.6,36.4,23.2,54.6,34.8c5.3,3.4,5.2,2.5,1.8,7.5c-90.5,132.5-181.1,265-271.6,397.6C351.3,559.2,326,596,301,633
	c-2.3,3.5-4.7,4.6-8.8,4.6c-33.2-0.2-66.5-0.1-99.7-0.1C190.7,637.5,188.8,637.9,186.4,636.8z"/>
<path class="st1" d="M594.1,611.6c0.5-51,1-102.1,1.6-153.1c0.1-7.6,3.4-11.2,10.9-11.8c1.8-0.1,3.6-0.1,5.4-0.1
	c33,0.2,66.1,0.4,99.1,0.6c2.4,0,4.7,0.1,7,0.5c5.5,0.9,8.6,4.3,9.2,9.9c0.1,1.4,0.1,2.9,0.1,4.4c-0.3,59.2-0.6,118.4-0.8,177.6
	c0,3.3-1.2,4.6-4.1,5.9c-37,15.5-66,40.2-87,74.5c-10.9,17.8-18.2,37-22.5,57.5c-0.9,4.6-0.9,4.5-5.7,4.1c-2.4-0.2-4.7-0.6-6.9-1.6
	c-4.5-2-7.3-5.4-7.8-10.3c-0.3-2.5-0.3-5.1-0.2-7.6C593.1,711.8,593.6,661.7,594.1,611.6z"/>
<path class="st1" d="M317.6,424.3c-8.8,12.3-17.5,24.5-26.3,36.8c-41.1,57.4-82.2,114.9-123.2,172.4c-2.1,3-4.5,4.4-8.3,5.1
	c-13.4,2.4-24.1,9.2-31.8,20.8c-9.1,13.7-14.3,28.4-14,45c0.1,7.3-0.1,14.5-0.2,21.8c-0.1,4.1-0.6,4.6-4.5,5.4
	c-4.2,0.8-8.5,0.4-12.4-0.8c-17.2-5.1-30.8-14.9-36.6-32.6c-2.7-8.1-2.4-16.4,2.5-24c22.3-34.4,44.6-68.9,66.9-103.3
	c15-23.2,30.5-46,44.9-69.6c6.8-11.1,15.7-19.2,26.8-25.6c13.5-7.8,27.6-14.4,42-20.6c22.5-9.6,45-19.3,67.5-28.9c2-0.8,4-1.6,6-2.4
	C317.1,424,317.3,424.1,317.6,424.3z"/>
<path class="st1" d="M378.6,549.6c0,8.5,0.1,16.3,0,24c-0.3,14-1.1,27.9-1.1,41.9c0,5.2-0.9,9.5-3.9,13.7c-2.6,3.6-6,5.8-10.1,6.9
	c-3.3,0.8-6.7,1.5-10.2,1.5c-10.7,0-21.4,0-32.1,0c-0.7,0-1.4,0.2-1.9-0.5C321.5,632.5,371.1,559.4,378.6,549.6z"/>
<path class="st1" d="M201.1,759c-24,10.9-47.6,21.6-71.4,32.4c-1.2-4.4-1.3-49.6-0.1-65.8c2.7,2.6,4.9,5,7.3,7.2
	c10.4,9.6,22.4,15.1,36.8,14.6c6.5-0.2,13.1,0.1,19.6-0.1c2.4-0.1,3.6,0.8,4.3,3C198.6,753,199.8,755.6,201.1,759z"/>
<path class="st1" d="M294.8,747.9c11.9,0,22.9,0,34,0c2.1,0,3.3,0.8,4.5,2.4c5.9,8.3,12.5,16,20.5,22.8c-5.1,5.9-11.8,7.9-18.8,9
	c-6.7,1-13-0.1-18.8-3.9C305.1,771.1,298.7,760.7,294.8,747.9z"/>
<path class="st1" d="M214.9,747.5c14.8,0,28.9,0,43.1,0c5.1,0,10.1,0.2,15.2,0c2.4-0.1,3.5,0.8,4.3,3c2.9,7.4,2.8,8.6-3.3,13.9
	c-7.3,6.4-15.5,10.6-25.5,10.5c-4.8,0-9.3-1.1-13.5-3.6C225.9,765.9,218.9,758.6,214.9,747.5z"/>
<path class="st2" d="M792.2,944.5c-66.5-0.1-121.6-46-133.1-109.2c-11.2-61.8,23.5-125,81.9-148.9c39.6-16.2,78.9-14.9,116.6,5.3
	c36.6,19.7,59.3,50.7,67.2,91.7c14.1,72.7-34.3,144.7-110.3,158.8C806.5,943.7,798.3,944.3,792.2,944.5z M793.7,692.5
	c-18.7,0-36.3,4.2-53,12.4c-57.9,28.6-83,98.8-55.9,156c28.6,60.4,100.7,83.3,159.6,53.7c48.3-24.4,74.5-77.9,63.8-129.6
	C896.9,730.6,849.6,692.4,793.7,692.5z"/>
<path class="st2" d="M843.2,809.5c7.9,8.1,15.6,16,23.4,23.9c2.8,2.8,5.6,5.7,7.8,9c2.7,4,2.9,8.1,0.7,12.3
	c-1.3,2.4-2.8,4.7-4.7,6.6c-9.1,9.1-18.2,18.2-27.4,27.3c-6,5.9-10.3,6.3-17.5,2c-3.5-2.1-6.5-4.6-9.3-7.5
	c-7.7-7.9-15.5-15.8-23.1-23.7c-4.7,4.5-8.9,8.5-13,12.6c-5.1,5.1-10.2,10.4-15.3,15.5c-1.4,1.4-3.1,2.5-4.7,3.7
	c-3.6,2.5-7.4,2.7-11.3,0.8c-2.6-1.3-5.1-2.8-7.2-4.9c-9.2-9.1-18.4-18-27.6-27.1c-6-5.9-6.5-10.3-2.3-17.5c1.9-3.3,4.3-6.3,7-9
	c7-7.1,13.9-14.3,20.9-21.5c3-3.1,3-3.1-0.2-6.3c-8.1-8-16.3-16-24.4-24.1c-0.8-0.8-1.5-1.6-2.2-2.5c-4.6-5.9-4.8-10-1-16.5
	c1.1-1.9,2.6-3.5,4.1-5.1c8.7-8.8,17.3-17.6,26-26.4c6.7-6.7,10.9-7.2,18.8-2.3c3,1.8,5.6,4,8.1,6.4c7.1,7,14.3,14,21.4,20.9
	c2.7,2.7,2.8,2.7,5.5,0c8.8-8.9,17.5-18,26.5-26.6c8.4-8.1,14.8-8,23.2,0.1c9.5,9.2,18.9,18.6,28.3,28c5.3,5.3,5.7,9.6,2.1,16.2
	c-2,3.7-4.7,6.9-7.6,9.9c-8.1,8.3-16.3,16.6-24.4,24.9C843.5,809,843.4,809.1,843.2,809.5z M753.6,872.9c2.2-0.3,3.8-2.1,5.5-3.7
	c8.5-8.7,16.9-17.5,25.5-26.1c4.5-4.6,8.3-4.7,13.6-1.1c2.9,2,5.1,4.6,7.6,7c7.1,7,14.1,14.1,21.3,21.1c4.3,4.2,6.3,4.2,10.5,0
	c5.2-5.1,10.3-10.2,15.4-15.4c4.4-4.5,4.5-6.2-0.1-10.8c-4.3-4.4-8.7-8.8-13.1-13.1c-4.4-4.4-8.8-8.7-13.1-13.1
	c-4.3-4.4-4.4-7.5-1.5-12.7c1.9-3.4,4.3-6.2,7-9c7.2-7.2,14.3-14.5,21.4-21.8c1.1-1.2,2.3-2.3,3.2-3.7c1.2-2,1.3-4.1-0.5-6
	c-6.3-6.3-12.6-12.6-19-18.7c-2.5-2.3-4-2.2-6.8-0.2c-1.3,1-2.5,2.2-3.6,3.3c-7.9,8-15.8,16.1-23.7,24.1c-6.6,6.6-13.3,6.8-20,0.4
	c-7.8-7.6-15.6-15.2-23.4-22.8c-1-1-2-2.1-3.2-2.9c-2.8-2.1-4.8-2-7.3,0.4c-6.1,6-12.1,12.1-18,18.2c-2.6,2.8-2.5,4.7-0.1,7.7
	c0.9,1.1,2,2.1,3,3.2c8,7.9,16.1,15.7,24.1,23.6c6.1,6,6.1,10,0.1,16.2c-8.1,8.4-16.2,16.7-24.3,25c-1.1,1.2-2.3,2.3-3.3,3.6
	c-2.3,3-2.3,5,0.4,7.7c5.9,5.9,11.9,11.7,17.9,17.6C750.2,872,751.5,873,753.6,872.9z"/>
<path class="st3" d="M354,520.9l22,22c5.2,5.2,13.7,5.2,18.9,0l22-22c5.2-5.2,5.2-13.7,0-18.9l-22-22c-5.2-5.2-13.7-5.2-18.9,0
	l-22,22C348.8,507.3,348.8,515.7,354,520.9z"/>
<path class="st3" d="M354,585.1l22,22c5.2,5.2,13.7,5.2,18.9,0l22-22c5.2-5.2,5.2-13.7,0-18.9l-22-22c-5.2-5.2-13.7-5.2-18.9,0
	l-22,22C348.8,571.4,348.8,579.8,354,585.1z"/>
<path class="st2" d="M659.6,944.4l17.3,17.3c2.5,2.5,6.6,2.5,9.1,0l17.3-17.3c2.5-2.5,2.5-6.6,0-9.1L686,917.9
	c-2.5-2.5-6.6-2.5-9.1,0l-17.3,17.3C657.1,937.8,657.1,941.8,659.6,944.4z"/>
<circle class="st4" cx="790.2" cy="809.4" r="171"/>
</svg>
