<?xml version="1.0" encoding="utf-8"?>
<!-- Generator: Adobe Illustrator 28.0.0, SVG Export Plug-In . SVG Version: 6.00 Build 0)  -->
<svg version="1.1" id="Capa_1" xmlns="http://www.w3.org/2000/svg" xmlns:xlink="http://www.w3.org/1999/xlink" x="0px" y="0px"
	 viewBox="0 0 1080 1080" style="enable-background:new 0 0 1080 1080;" xml:space="preserve">
<style type="text/css">
	.st0{fill:#090909;}
	.st1{fill:#FDFDFD;}
	.st2{fill:#DBB300;}
	.st3{fill:#6EE1EB;}
	.st4{fill:none;stroke:#DBB300;stroke-width:20;stroke-miterlimit:10;}
</style>
<path class="st0" d="M611.6,838.9c-3.9,3.5-7.7,5.8-12.2,7.5c5.4,8.6,5.3,17.2,1.1,25.7c-4.2,8.5-10.9,14.4-20,17.3
	c-2.8,0.9-5.7,1-8.5,1.8c-2.6,0.8-4.1,2-5.2,4.6c-4.1,9.1-10.8,15.3-20.8,17.6c-3.8,0.9-7.6,1-11.3,0c-2.4-0.6-3.1,0.2-3.9,2.2
	c-3.4,8.4-9.7,13.9-18.1,17c-9.2,3.4-16.7,1-23.4-6.2c-7.8-8.4-16.1-16.3-24-24.5c-2.1-2.2-3.4-1-5,0.1
	c-13.5,8.9-27.4,17.2-40.3,26.8c-18.2,13.7-46.3,6.4-56-16.1c-1.2-2.8-1.7-6.6-3.8-8.2c-2.3-1.7-5.8,0.6-8.9,0.9
	c-16.5,1.5-29.8-5.2-36.8-18.9c-1.5-2.9-2.6-6-3.1-9.3c-0.4-2.8-1.5-3.8-4.5-4c-7.6-0.5-14.6-3-20.6-7.7
	c-8.3-6.5-13.3-14.8-13.1-25.6c0.1-3.9,0-3.9-4.3-5c-6.2-1.6-12.1-3.8-17-8.2c-9.4-8.3-13.3-18.7-12.1-31.2c0.2-1.6,0.1-3.4,0.8-4.8
	c2.1-5-0.2-8-3.9-11c-4-3.3-7.6-7.2-11.8-11.2c-4.8,8.5-9.5,16.4-13.9,24.5c-3.3,6.1-7.3,7.5-13.3,4.2
	c-18.4-10.2-36.8-20.4-55.2-30.6c-6.3-3.5-7.7-7.2-5.3-14c0.7-2,1.9-3.9,3-5.8c28.2-48.7,56.4-97.4,84.6-146
	c1.9-3.2,3.6-6.2,2.1-10.1c-0.6-1.4-0.2-3.2-0.2-4.9c-0.2-172.9-0.4-345.8-0.7-518.8c0-11,2.5-13.5,13.4-13.5
	c138.4-0.2,276.8-0.3,415.2-0.5c1.6,0,3.3-0.1,4.9,0.2c4.7,0.8,7.3,3.8,7.4,8.6c0.1,2.7-0.1,5.4-0.1,8.2c0,192.9,0,385.8-0.1,578.7
	c0,3.8,0.8,7.1,2.8,10.2c2.6,4.1,5,8.4,7.4,12.6c1.9-0.1,3-1.5,4.2-2.5c22.2-17.1,47.2-28.2,74.6-34.1c19-4.1,38.1-4.8,57.4-2.7
	c79.1,8.6,140,66.5,153.8,138.4c13.4,69.9-8.8,128.3-62.6,174.3c-28,24-61.1,37.5-97.9,40.9c-57.1,5.3-106.4-11.9-147.1-52.5
	c-25.6-25.6-40.9-56.9-47.2-92.6C612,840.6,611.9,840.3,611.6,838.9z M314.4,615.8c13.3,2.6,26.2,3.5,39.4,2.9
	c6.8-0.3,13.3-1.6,19.7-3.9c6.2-2.2,12-5,17.9-7.9c9.7-4.7,19.8-6.6,30.7-4.9c10.8,1.7,21.1,5.3,31.1,9.7c3.2,1.4,6.4,2.2,10,2.3
	c27.6,1.3,55.1,2.8,82.7,4.2c2.2,0.1,4.5,0,7.3,0c-3.5-6.2-6.7-11.6-9.8-17.1c-2.7-5-1.9-10.1,2.1-13.8c1.1-1,2.3-1.7,3.6-2.4
	c15.7-9,31.5-18,47.3-27c1.4-0.8,2.9-1.6,4.4-2.2c4-1.4,7.6-0.3,10.2,3.1c1,1.3,1.8,2.7,2.6,4.2c11.2,19.1,22.3,38.3,33.5,57.4
	c0.6,1,0.7,2.5,2.9,2.7c0-2,0-3.9,0-5.8c0-127,0.1-253.9,0.1-380.9c0-53.6,0-107.2,0-160.8c0-5.4,0.8-5.4-5.2-5.3
	c-0.2,0-0.4,0-0.5,0c-131.9,0.1-263.8,0.1-395.6,0.2c-1.1,0-2.2,0.1-3.3,0c-2.2-0.2-2.9,0.9-2.7,2.9c0.1,0.7,0,1.5,0,2.2
	c0.3,162.2,0.5,324.4,0.8,486.6c0,1.3,0,2.7,0,4.6c2.4-1.6,2.8-3.4,3.7-4.8c4-6.7,7.8-13.5,11.8-20.2c3.3-5.4,8-6.7,13.5-3.4
	c18.2,10.9,36.4,21.9,54.4,33c7.1,4.4,7.8,8.2,3.6,15.5c-4.6,8-9.3,16-13.9,24C315.7,612.3,314.3,613.6,314.4,615.8z M486.4,632.1
	c3.5,4.8,7.3,8.9,10.6,13.4c3.8,5.3,7.4,10.7,8.8,17.3c1.4,6.4-0.2,11.8-4.6,16.6c-4,4.3-9.1,6.6-14.6,7.9
	c-12.6,2.8-25.3,2.1-37.8-0.5c-14.8-3-28.8-8.6-42.4-15.2c-3.7-1.8-5.7-1-8.5,1.3C363,702.2,328,731.4,293,760.7
	c-9.9,8.3-19.8,16.5-29,25.6c-3,3-5.6,6.2-6.8,10.4c-2.2,7.9,0.6,14.9,7.3,19.5c7,4.7,10.8,5.2,18.1-0.8c0.1-0.1,0.3-0.2,0.4-0.3
	c33.7-24.7,67.3-49.4,101-74.1c1.7-1.3,3.4-2.7,5.5-3.5c3.7-1.3,7.5-0.3,9.8,2.7c2.3,3.1,2.1,7.5-0.7,10.5c-1.5,1.6-3.3,2.8-5,4.1
	c-30.7,22.6-61.5,45.1-92.2,67.7c-2.6,1.9-5.3,3.9-7.6,6.2c-4.6,4.5-5.4,10.2-3.4,16.1c2.3,6.4,7.5,10.1,13.8,12.1
	c5.5,1.7,10,0,14.6-3.4c29.2-21.8,58.6-43.5,88-65.2c1.3-1,2.6-2,4-2.8c4.1-2.3,8.6-1.4,11.2,2.2c2.4,3.3,2,7.8-1.2,10.9
	c-1.1,1.1-2.5,2.1-3.8,3.1c-26.6,19.7-53.1,39.3-79.7,59c-2.3,1.7-4.6,3.5-7,5.2c-2.9,2-3.7,4.7-2.9,8.1c1.6,7.1,5.5,12.2,12.5,14.5
	c7.5,2.5,14.5,1.8,21.1-3c24.2-17.7,48.4-35.3,72.6-52.9c1.8-1.3,3.5-2.6,5.5-3.5c3.5-1.6,7.5-0.6,9.8,2.3c2.4,3.1,2.4,7.5-0.3,10.5
	c-1.4,1.6-3.3,2.9-5,4.2c-19.4,14.1-38.7,28.2-58.1,42.3c-2.5,1.8-5,3.6-6.9,6.1c-1.9,2.5-2.4,5.1-1.2,8.1c1.8,4.4,4,8.5,7.6,11.8
	c6.6,6.2,13.9,7.1,21.7,2.4c14.2-8.5,27.6-18.1,41.6-27c2.5-1.6,3-3,1.5-5.7c-2.8-5.2-4.1-10.8-2.7-16.8c2.5-11,8.7-18.6,19.7-21.7
	c2.2-0.6,2.5-1.5,2.2-3.3c-0.4-2.3-0.8-4.6-0.6-7c1-9.9,9-19.7,18.7-22.7c4.5-1.4,4.5-1.4,4-6.5c-0.3-2.7-0.2-5.4,0.5-8.1
	c3.6-14.2,20.5-23.4,34.8-18.9c4.2,1.3,4.2,1.3,6.3-2.6c0.2-0.3,0.4-0.6,0.5-0.9c8.4-16.4,33-21.3,46-5.7c4.6,5.6,10.1,10.4,15,15.8
	c2,2.2,3.5,3.1,6.3,1.1c2.8-2,5.9-3.5,9-5.1c2.1-1.1,3.2-2.4,3.7-4.9c2-10.3,4.9-20.5,9.2-30.1c1.5-3.4,0.9-6-0.8-9
	c-7.4-12.5-14.5-25.1-21.7-37.7c-11.6-20.1-23.2-40.3-34.7-60.4c-1.1-1.9-2-3.4-4.8-3.5C535.7,634.7,511.1,633.3,486.4,632.1z
	 M954,815.1c-0.2-30.7-4.4-51.7-13.2-71.7C912,677.8,843.3,640,771.3,649.5c-38.7,5.1-72.2,21.6-99,50.1
	c-38.5,41-53.6,89.7-42.3,145c14.7,72.1,77.7,124.1,154.1,125.8c26.2,0.6,51.4-4.4,74.8-16.2C919.7,923.7,951,874,954,815.1z
	 M252.9,772.2c1.3-1,2.3-1.7,3.3-2.5c45.7-38.2,91.3-76.5,137-114.7c6.3-5.3,7.5-5.5,14.5-1.7c12.9,7.1,26.5,12.6,40.8,16.2
	c10.8,2.7,21.8,3.8,32.9,1.6c8.8-1.7,9.7-3.9,4.8-11.6c-5.3-8.4-12.1-15.4-20.1-21.3c-10.8-8-23-12.9-35.7-17
	c-12.5-4.1-24.4-3.4-36.2,3c-18,9.8-37.4,13.3-57.9,11c-8.7-1-17.2-2.9-25.7-4.3c-5.2-0.9-5.2-0.9-7.7,3.5c-9,15.5-18,31.1-27,46.6
	c-13.4,23.1-26.7,46.2-40.3,69.2c-1.6,2.7-1.6,4.2,0.8,6.4C241.9,761.4,247.1,766.7,252.9,772.2z M199.2,778.9
	c0.7-1.1,1.3-1.8,1.7-2.6c36.8-63.4,73.6-126.8,110.4-190.1c2.1-3.6,2.1-3.6-1.3-5.7c-11.9-7.3-23.9-14.5-35.8-21.7
	c-1.3-0.8-2.7-1.5-4.4-2.4c-38.3,66.1-76.5,132-114.7,198.1C170,762.8,184.6,770.8,199.2,778.9z M560.7,597.7
	c24.3,42.3,48.2,83.9,72.2,125.6c1.5-0.9,1.9-2.1,2.6-3.2c7.3-12.2,16-23.3,25.9-33.5c2.9-3,2.9-3,0.8-6.7
	c-19.7-33.9-39.4-67.7-59.2-101.5c-0.7-1.2-0.9-2.8-2.9-3.2C587.1,582.5,574.1,590,560.7,597.7z M507,805c0.5,5,3.6,9.7,7.7,13.6
	c17.5,17.1,35.1,34.1,52.7,51.2c4.7,4.6,8.1,4.8,13.5,1c1.5-1,2.8-2.3,3.9-3.7c3.5-4.4,3.4-7.9-0.6-12
	c-17.9-18.3-35.8-36.5-53.7-54.8c-2.9-3-6.5-4.7-10.4-5.6C513.4,793.1,507,797.7,507,805z M493.2,827.4c-3.7,0-7.7,4.4-7.8,9.2
	c-0.1,5.9,2.7,10.3,6.7,14.3c13.8,13.7,27.5,27.4,41.2,41.1c1,1,2,2.1,3.2,2.9c4.2,2.9,8.7,2.6,12.4-0.8c6.1-5.5,6.4-12,0.8-18.1
	c-2.7-2.9-5.7-5.6-8.6-8.3c-11.7-11.4-23.4-22.7-35.1-34.1C502.5,830.2,498.6,827.7,493.2,827.4z M557,776.5
	c-4.5,0.3-8.5,3.4-10.8,8.3c-2.1,4.5,0.5,8,3.5,11.1c10.8,11,21.6,22.1,32.4,33c5.4,5.4,7,5,13.5,2.1c5.3-2.4,6.9-7.5,4.5-12.8
	c-1.1-2.5-2.7-4.7-4.5-6.8c-9.7-11.1-20.3-21.3-30.3-32C563.4,777.3,561,776.4,557,776.5z M474.2,860.9c-7.2-0.5-12.8,8.2-9.6,15
	c1.3,2.6,3.1,4.9,5.2,6.9c5.3,5.2,10.5,10.5,15.7,15.8c5,5,10,10,14.9,15.1c2.5,2.5,5.4,3.7,8.8,2.4c6.7-2.6,9.4-9.7,6.1-16.2
	c-1.3-2.6-2.9-5-5-7.1c-9.5-9.5-19.1-18.9-28.5-28.4C479.7,862.1,477.2,861.2,474.2,860.9z"/>
<path class="st1" d="M314.4,615.8c-0.1-2.3,1.3-3.6,2.2-5.1c4.6-8,9.3-16,13.9-24c4.2-7.3,3.5-11.1-3.6-15.5
	c-18-11.2-36.2-22.1-54.4-33c-5.5-3.3-10.2-2-13.5,3.4c-4.1,6.7-7.9,13.5-11.8,20.2c-0.9,1.5-1.3,3.3-3.7,4.8c0-1.9,0-3.2,0-4.6
	c-0.3-162.2-0.5-324.4-0.8-486.6c0-0.7,0.1-1.5,0-2.2c-0.2-2,0.5-3.1,2.7-2.9c1.1,0.1,2.2,0,3.3,0c131.9-0.1,263.8-0.1,395.6-0.2
	c0.2,0,0.4,0,0.5,0c6,0,5.2,0,5.2,5.3c0,53.6,0,107.2,0,160.8c0,127-0.1,253.9-0.1,380.9c0,1.9,0,3.8,0,5.8
	c-2.2-0.2-2.4-1.7-2.9-2.7c-11.2-19.1-22.3-38.2-33.5-57.4c-0.8-1.4-1.6-2.9-2.6-4.2c-2.6-3.4-6.2-4.5-10.2-3.1
	c-1.5,0.5-3,1.4-4.4,2.2c-15.8,9-31.5,18-47.3,27c-1.3,0.7-2.5,1.5-3.6,2.4c-4,3.7-4.9,8.8-2.1,13.8c3,5.5,6.2,11,9.8,17.1
	c-2.9,0-5.1,0.1-7.3,0c-27.6-1.4-55.1-2.8-82.7-4.2c-3.5-0.2-6.8-0.9-10-2.3c-10-4.4-20.2-7.9-31.1-9.7c-10.8-1.7-21,0.2-30.7,4.9
	c-5.9,2.8-11.8,5.7-17.9,7.9c-6.4,2.3-12.9,3.5-19.7,3.9C340.7,619.4,327.7,618.4,314.4,615.8z M448.5,178.3c0-0.4,0-0.9,0-1.3
	c51.2,0,102.4,0,153.6,0c2.5,0,5.1,0.2,7.5-0.7c3.6-1.3,5.7-4.1,5.7-7.8c0-3.6-2.1-6.5-5.6-7.8c-2.5-0.9-5-0.7-7.5-0.7
	c-102.6,0.6-205.2,1.1-307.8,1.7c-1.3,0-2.6,0-3.8,0.1c-4.4,0.6-7.4,3.7-7.6,7.9c-0.2,4.3,2.9,8,7.5,8.6c1.8,0.2,3.6,0.1,5.4,0.1
	C346.8,178.3,397.6,178.3,448.5,178.3z M448,392.9c0-0.4,0-0.8,0-1.2c-51.2,0-102.4,0-153.6,0c-2,0-4-0.1-6,0.2
	c-4.3,0.5-7.4,4-7.5,8c-0.1,4,2.9,7.6,7.2,8.3c1.8,0.3,3.6,0.2,5.4,0.2c103,0.4,205.9,0.8,308.9,1.2c2,0,4,0.1,6-0.2
	c4.4-0.6,7.3-3.8,7.4-8c0.1-4.1-2.8-7.6-7.1-8.4c-1.6-0.3-3.3-0.2-4.9-0.2C551.9,392.9,499.9,392.9,448,392.9z M449,119.3
	c0,0.1,0,0.1,0,0.2c51.6-0.3,103.1-0.6,154.7-0.9c1.8,0,3.7,0,5.4-0.4c4-0.9,6.4-4.5,6.2-8.5c-0.2-3.7-2.8-6.9-6.6-7.6
	c-1.4-0.3-2.9-0.3-4.3-0.3c-103.5,0.5-207,0.9-310.5,1.4c-1.8,0-3.6,0.1-5.4,0.8c-3.5,1.4-5.6,4.4-5.5,8c0.1,3.6,2.4,6.5,5.9,7.6
	c2.1,0.7,4.3,0.6,6.5,0.6C346.6,119.8,397.8,119.6,449,119.3z M449.1,234.8c0,0.1,0,0.1,0,0.2c51.4-0.3,102.8-0.6,154.2-0.9
	c1.6,0,3.3,0,4.9-0.2c4.3-0.7,7.2-4.1,7.2-8.2c0-4.2-3-7.5-7.3-8.1c-2-0.3-4-0.2-6-0.2c-30.3,0.1-60.7,0.2-91,0.3
	c-72.3,0.3-144.6,0.7-216.8,1.1c-2,0-4,0-5.9,0.8c-3.5,1.4-5.5,4.5-5.4,8c0.1,3.5,2.4,6.4,6,7.6c2.1,0.7,4.3,0.6,6.5,0.6
	C346.7,235.4,397.9,235.1,449.1,234.8z M532.4,488.9c2.3,5.4,4.7,10.5,6.7,15.7c2.1,5.5,5.8,7.9,11.6,7.8c18-0.4,36-0.5,53.9-0.7
	c1.8,0,3.6-0.1,5.4-0.8c3.6-1.4,5.6-4.2,5.5-7.9c-0.1-3.6-2.2-6.5-5.8-7.7c-2.3-0.8-4.7-0.6-7-0.6c-14.9,0.2-29.8,0.3-44.7,0.8
	c-3.5,0.1-5.1-1-6.4-4.2c-2.7-6.9-5.7-13.7-8.8-20.5c-3.4-7.5-10-8.6-15.5-2.6c-1.9,2-3.6,4.1-5.3,6.2c-6.1,7.2-12.2,14.4-18.4,21.6
	c-0.8,1-1.6,2.8-3.4,1.4c-5-3.8-10-7.6-15.2-11.5c4.4-4.8,8.4-8.9,12.2-13.3c4.5-5.2,3.8-10.5-2.1-14.2c-6-3.8-12.1-7.4-18.2-10.9
	c-5.6-3.2-9.3-2.3-13.2,2.9c-4.5,6.1-9,12.3-13.3,18.6c-3.6,5.2-2.8,9.3,2,13.4c2.3,2,5.1,3.4,7.2,6c-6.9,7.4-13.7,14.7-20.5,22.1
	c-1.4,1.5-2.8,2.9-3.8,4.6c-2.2,3.5-1.5,7.8,1.4,10.4c2.8,2.5,6.8,2.9,10.1,0.7c1.5-1,2.8-2.3,4-3.6c6.6-7,13.1-14.1,19.7-21.1
	c2.9-3.1,2.9-3.1,6.4-0.4c6.2,4.7,12.4,9.5,18.7,14.1c6.4,4.8,10.1,4.3,15.4-1.8c5.1-5.9,10.1-11.9,15.2-17.8
	C528.1,493.3,529.6,490.9,532.4,488.9z M496.7,352.3c0-0.5,0-0.9,0-1.4c35.8,0,71.6,0,107.4,0c1.6,0,3.3,0,4.9-0.3
	c4.3-0.7,7.3-4.1,7.3-8.2c0-3.8-2.9-7.3-6.8-8.1c-1.6-0.3-3.3-0.3-4.9-0.2c-72.1,0.4-144.2,0.8-216.3,1.2c-1.8,0-3.6,0-5.4,0.7
	c-3.5,1.3-5.7,4.3-5.7,7.8c0,3.8,2.4,6.8,6.3,7.9c2.1,0.6,4.3,0.5,6.5,0.5C425.5,352.3,461.1,352.3,496.7,352.3z M496,293.9
	c0-0.4,0-0.8,0-1.2c36,0,71.9,0,107.9,0c2.3,0,4.7,0.2,7-0.8c3.4-1.5,5.6-4.6,5.4-8.1c-0.2-3.5-2.6-6.5-6.1-7.5
	c-1.9-0.6-3.9-0.6-5.9-0.5c-71.9,0.5-143.9,1-215.8,1.4c-1.3,0-2.6,0-3.8,0.2c-4.4,0.6-7.4,3.8-7.5,8c-0.1,4.1,2.8,7.6,7.1,8.3
	c1.8,0.3,3.6,0.2,5.4,0.2C425.1,293.9,460.6,293.9,496,293.9z M357.2,310.7c0-19.9-16.3-36.8-35.9-36.1
	c-22.4,0.8-35.7,18.1-35.8,36.5c-0.1,19.8,16.4,36.2,36.1,36.1C341.3,347,357.2,330.7,357.2,310.7z M344.9,524.9c0,0,0-0.1,0-0.1
	c17.4,0,34.8,0,52.2,0c1.8,0,3.7,0,5.4-0.4c4.2-0.9,6.7-4.1,6.8-8.1c0-3.9-2.5-7-6.7-8.1c-2-0.5-4-0.4-5.9-0.4
	c-34.7,0.2-69.3,0.3-104,0.5c-1.3,0-2.5,0-3.8,0.1c-4.5,0.6-7.4,3.6-7.5,7.8c-0.2,4.4,2.8,7.9,7.5,8.6c1.6,0.2,3.3,0.1,4.9,0.1
	C310.8,524.9,327.8,524.9,344.9,524.9z M343.1,467.1c0,0,0-0.1,0-0.1c17.4,0,34.8,0,52.3,0c2.2,0,4.3,0.1,6.5-0.7
	c3.8-1.4,6-4.5,5.8-8.3c-0.2-3.6-2.4-6.3-6.1-7.5c-2.3-0.8-4.7-0.6-7-0.6c-34.5,0.2-68.9,0.3-103.4,0.5c-1.6,0-3.3,0-4.9,0.3
	c-3.6,0.7-6.2,3.6-6.6,7.1c-0.4,3.6,1.4,6.7,4.8,8.4c2.1,1,4.2,0.9,6.4,0.9C308.3,467.2,325.7,467.1,343.1,467.1z"/>
<path class="st1" d="M486.4,632.1c24.7,1.3,49.3,2.6,74,3.7c2.8,0.1,3.7,1.6,4.8,3.5c11.6,20.1,23.1,40.3,34.7,60.4
	c7.2,12.6,14.4,25.2,21.7,37.7c1.8,3,2.4,5.6,0.8,9c-4.3,9.7-7.1,19.8-9.2,30.1c-0.5,2.5-1.6,3.8-3.7,4.9c-3.1,1.5-6.2,3.1-9,5.1
	c-2.8,2-4.3,1.1-6.3-1.1c-4.9-5.4-10.3-10.2-15-15.8c-13-15.5-37.5-10.6-46,5.7c-0.2,0.3-0.4,0.6-0.5,0.9c-2.1,3.9-2.1,3.9-6.3,2.6
	c-14.4-4.4-31.2,4.7-34.8,18.9c-0.7,2.7-0.7,5.4-0.5,8.1c0.5,5.1,0.5,5-4,6.5c-9.6,3-17.6,12.8-18.7,22.7c-0.2,2.4,0.2,4.7,0.6,7
	c0.3,1.9,0,2.7-2.2,3.3c-11,3.1-17.2,10.8-19.7,21.7c-1.4,6-0.1,11.6,2.7,16.8c1.5,2.7,1,4.1-1.5,5.7c-14,8.8-27.4,18.4-41.6,27
	c-7.7,4.6-15,3.8-21.7-2.4c-3.5-3.3-5.8-7.4-7.6-11.8c-1.3-3.1-0.7-5.6,1.2-8.1c1.9-2.5,4.4-4.3,6.9-6.1
	c19.4-14.1,38.7-28.2,58.1-42.3c1.8-1.3,3.6-2.6,5-4.2c2.7-3,2.8-7.4,0.3-10.5c-2.3-2.9-6.2-4-9.8-2.3c-1.9,0.9-3.7,2.2-5.5,3.5
	c-24.2,17.6-48.5,35.2-72.6,52.9c-6.6,4.8-13.6,5.6-21.1,3c-7-2.4-10.9-7.5-12.5-14.5c-0.8-3.4,0-6.1,2.9-8.1c2.4-1.7,4.7-3.5,7-5.2
	c26.6-19.7,53.1-39.3,79.7-59c1.3-1,2.7-1.9,3.8-3.1c3.1-3.1,3.6-7.6,1.2-10.9c-2.5-3.5-7-4.4-11.2-2.2c-1.4,0.8-2.7,1.8-4,2.8
	c-29.3,21.7-58.7,43.3-88,65.2c-4.6,3.4-9.1,5.2-14.6,3.4c-6.4-2-11.5-5.6-13.8-12.1c-2.1-5.8-1.3-11.5,3.4-16.1
	c2.3-2.3,5-4.2,7.6-6.2c30.7-22.6,61.5-45.1,92.2-67.7c1.8-1.3,3.6-2.6,5-4.1c2.8-3,3-7.4,0.7-10.5c-2.2-3-6.1-4.1-9.8-2.7
	c-2.1,0.8-3.7,2.2-5.5,3.5c-33.7,24.7-67.3,49.4-101,74.1c-0.1,0.1-0.3,0.2-0.4,0.3c-7.3,6.1-11.2,5.6-18.1,0.8
	c-6.7-4.6-9.6-11.5-7.3-19.5c1.2-4.2,3.8-7.4,6.8-10.4c9.1-9.1,19.1-17.3,29-25.6c34.9-29.3,69.9-58.5,104.8-87.8
	c2.8-2.3,4.8-3.1,8.5-1.3c13.5,6.6,27.5,12.2,42.4,15.2c12.6,2.6,25.2,3.3,37.8,0.5c5.6-1.2,10.7-3.5,14.6-7.9
	c4.4-4.8,5.9-10.2,4.6-16.6c-1.4-6.6-5-12-8.8-17.3C493.7,640.9,489.9,636.9,486.4,632.1z M568.5,721.6c0-3-1.3-5.3-3.8-6.9
	c-1.5-1-3.2-1.7-4.9-2.3c-18.2-6.8-37-8.8-56.2-6.7c-24.7,2.8-45.3,13.4-61.8,32c-1.4,1.6-2.7,3.4-3.5,5.5c-1.2,3.4-0.2,6.7,2.7,8.6
	c2.6,1.8,6.1,1.7,8.6-0.3c0.9-0.7,1.6-1.5,2.3-2.3c5.3-6.1,11.5-11.1,18.5-15.1c21.6-12.6,44.8-14.6,69-10.2
	c5.9,1.1,11.5,3.1,17.2,5.2C562.9,731.4,568.6,727.7,568.5,721.6z"/>
<path class="st1" d="M252.9,772.2c-5.7-5.5-11-10.8-16.5-15.7c-2.4-2.2-2.4-3.7-0.8-6.4c13.5-23,26.9-46.1,40.3-69.2
	c9-15.5,18-31.1,27-46.6c2.6-4.4,2.6-4.4,7.7-3.5c8.6,1.5,17.1,3.4,25.7,4.3c20.5,2.3,39.9-1.3,57.9-11c11.9-6.4,23.7-7.2,36.2-3
	c12.6,4.1,24.9,9,35.7,17c8,5.9,14.8,12.9,20.1,21.3c4.9,7.7,4,9.9-4.8,11.6c-11.1,2.2-22.1,1.1-32.9-1.6
	c-14.3-3.6-27.9-9.1-40.8-16.2c-6.9-3.8-8.1-3.7-14.5,1.7c-45.7,38.3-91.3,76.5-137,114.7C255.2,770.5,254.2,771.2,252.9,772.2z"/>
<path class="st1" d="M199.2,778.9c-14.7-8.1-29.2-16.2-44.2-24.4c38.3-66.1,76.4-132,114.7-198.1c1.7,0.9,3.1,1.6,4.4,2.4
	c12,7.2,23.9,14.4,35.8,21.7c3.4,2.1,3.4,2.1,1.3,5.7c-36.8,63.4-73.6,126.8-110.4,190.1C200.5,777.1,200,777.9,199.2,778.9z"/>
<path class="st1" d="M560.7,597.7c13.4-7.7,26.5-15.1,39.4-22.5c1.9,0.4,2.2,2,2.9,3.2c19.8,33.8,39.5,67.7,59.2,101.5
	c2.1,3.7,2.1,3.7-0.8,6.7c-9.9,10.2-18.6,21.3-25.9,33.5c-0.6,1-1,2.3-2.6,3.2C608.9,681.6,585,640,560.7,597.7z"/>
<path class="st1" d="M507,805c0-7.2,6.3-11.9,13.1-10.3c3.9,0.9,7.5,2.6,10.4,5.6c17.9,18.3,35.8,36.5,53.7,54.8
	c4,4.1,4.1,7.6,0.6,12c-1.1,1.4-2.5,2.7-3.9,3.7c-5.4,3.9-8.7,3.6-13.5-1c-17.6-17-35.1-34.1-52.7-51.2
	C510.6,814.6,507.6,810,507,805z"/>
<path class="st1" d="M493.2,827.4c5.4,0.4,9.3,2.9,12.8,6.3c11.7,11.4,23.4,22.8,35.1,34.1c2.9,2.8,5.9,5.4,8.6,8.3
	c5.7,6.1,5.3,12.6-0.8,18.1c-3.8,3.4-8.2,3.7-12.4,0.8c-1.2-0.8-2.2-1.9-3.2-2.9c-13.7-13.7-27.4-27.4-41.2-41.1
	c-4-4-6.9-8.4-6.7-14.3C485.5,831.8,489.5,827.4,493.2,827.4z"/>
<path class="st1" d="M557,776.5c4-0.1,6.4,0.8,8.4,2.9c10.1,10.7,20.6,21,30.3,32c1.8,2.1,3.4,4.3,4.5,6.8
	c2.4,5.3,0.8,10.4-4.5,12.8c-6.5,2.9-8.1,3.3-13.5-2.1c-10.9-11-21.6-22-32.4-33c-3-3.1-5.6-6.6-3.5-11.1
	C548.5,779.9,552.5,776.9,557,776.5z"/>
<path class="st1" d="M474.2,860.9c2.9,0.3,5.5,1.2,7.7,3.5c9.4,9.5,19,19,28.5,28.4c2.1,2.1,3.6,4.5,5,7.1
	c3.3,6.4,0.6,13.5-6.1,16.2c-3.5,1.3-6.3,0.2-8.8-2.4c-5-5-10-10-14.9-15.1c-5.2-5.3-10.4-10.6-15.7-15.8c-2.1-2.1-3.9-4.3-5.2-6.9
	C461.4,869.1,467,860.4,474.2,860.9z"/>
<path class="st0" d="M448.5,178.3c-50.8,0-101.7,0-152.5,0c-1.8,0-3.7,0.1-5.4-0.1c-4.6-0.6-7.7-4.2-7.5-8.6
	c0.2-4.1,3.2-7.3,7.6-7.9c1.3-0.2,2.5-0.1,3.8-0.1c102.6-0.6,205.2-1.1,307.8-1.7c2.5,0,5.1-0.2,7.5,0.7c3.6,1.4,5.6,4.2,5.6,7.8
	c0,3.6-2.1,6.4-5.7,7.8c-2.5,0.9-5,0.7-7.5,0.7c-51.2,0-102.4,0-153.6,0C448.5,177.5,448.5,177.9,448.5,178.3z"/>
<path class="st0" d="M448,392.9c51.9,0,103.9,0,155.8,0c1.6,0,3.3-0.1,4.9,0.2c4.3,0.7,7.2,4.2,7.1,8.4c-0.1,4.2-3,7.4-7.4,8
	c-2,0.3-4,0.2-6,0.2c-103-0.4-205.9-0.8-308.9-1.2c-1.8,0-3.7,0.1-5.4-0.2c-4.3-0.7-7.3-4.3-7.2-8.3c0.1-4.1,3.2-7.5,7.5-8
	c2-0.3,4-0.2,6-0.2c51.2,0,102.4,0,153.6,0C448,392.1,448,392.5,448,392.9z"/>
<path class="st0" d="M449,119.3c-51.2,0.3-102.4,0.6-153.6,0.9c-2.2,0-4.4,0.1-6.5-0.6c-3.5-1.2-5.8-4.1-5.9-7.6
	c-0.1-3.6,2-6.5,5.5-8c1.7-0.7,3.5-0.7,5.4-0.8c103.5-0.5,207-0.9,310.5-1.4c1.4,0,2.9,0,4.3,0.3c3.8,0.7,6.4,3.9,6.6,7.6
	c0.2,4-2.3,7.5-6.2,8.5c-1.7,0.4-3.6,0.4-5.4,0.4c-51.6,0.3-103.1,0.6-154.7,0.9C449,119.4,449,119.3,449,119.3z"/>
<path class="st0" d="M449.1,234.8c-51.2,0.3-102.4,0.6-153.6,0.9c-2.2,0-4.4,0.1-6.5-0.6c-3.6-1.2-5.9-4-6-7.6
	c-0.1-3.6,1.9-6.6,5.4-8c1.9-0.8,3.9-0.8,5.9-0.8c72.3-0.4,144.6-0.7,216.8-1.1c30.3-0.1,60.7-0.2,91-0.3c2,0,4-0.1,6,0.2
	c4.4,0.6,7.3,3.9,7.3,8.1c0,4.2-2.9,7.6-7.2,8.2c-1.6,0.3-3.3,0.2-4.9,0.2c-51.4,0.3-102.8,0.6-154.2,0.9
	C449.1,234.9,449.1,234.9,449.1,234.8z"/>
<path class="st0" d="M532.4,488.9c-2.7,1.9-4.3,4.4-6.1,6.6c-5.1,5.9-10.1,11.9-15.2,17.8c-5.3,6.1-9,6.6-15.4,1.8
	c-6.3-4.7-12.4-9.4-18.7-14.1c-3.5-2.6-3.6-2.7-6.4,0.4c-6.6,7-13.1,14.1-19.7,21.1c-1.2,1.3-2.5,2.7-4,3.6
	c-3.3,2.2-7.3,1.8-10.1-0.7c-2.9-2.6-3.6-6.9-1.4-10.4c1-1.7,2.4-3.1,3.8-4.6c6.8-7.3,13.6-14.6,20.5-22.1c-2.1-2.5-4.9-4-7.2-6
	c-4.8-4.1-5.6-8.1-2-13.4c4.3-6.3,8.7-12.5,13.3-18.6c3.9-5.2,7.6-6.1,13.2-2.9c6.2,3.5,12.2,7.1,18.2,10.9c5.9,3.7,6.6,9,2.1,14.2
	c-3.8,4.4-7.8,8.5-12.2,13.3c5.2,4,10.2,7.8,15.2,11.5c1.8,1.4,2.6-0.4,3.4-1.4c6.1-7.2,12.2-14.4,18.4-21.6
	c1.8-2.1,3.5-4.2,5.3-6.2c5.6-6,12.1-4.9,15.5,2.6c3.1,6.8,6.1,13.6,8.8,20.5c1.2,3.2,2.9,4.3,6.4,4.2c14.9-0.5,29.8-0.6,44.7-0.8
	c2.4,0,4.7-0.2,7,0.6c3.6,1.2,5.7,4.1,5.8,7.7c0.1,3.7-1.9,6.5-5.5,7.9c-1.7,0.7-3.5,0.8-5.4,0.8c-18,0.2-36,0.4-53.9,0.7
	c-5.9,0.1-9.6-2.4-11.6-7.8C537.1,499.4,534.7,494.3,532.4,488.9z M478.1,468.4c-4.1-3.4-4.1-3.4-6.9,0.4c-0.6,0.9-1.3,1.7-1.9,2.6
	c-0.7,0.9-1.1,1.8,0.1,2.7c1.1,0.8,2.1,1.4,3.2,0.1C474.5,472.3,476.3,470.4,478.1,468.4z"/>
<path class="st0" d="M496.7,352.3c-35.6,0-71.2,0-106.8,0c-2.2,0-4.4,0.1-6.5-0.5c-3.8-1.1-6.3-4.2-6.3-7.9c0-3.6,2.2-6.5,5.7-7.8
	c1.8-0.7,3.5-0.7,5.4-0.7c72.1-0.4,144.2-0.8,216.3-1.2c1.6,0,3.3-0.1,4.9,0.2c4,0.8,6.8,4.3,6.8,8.1c0,4-3,7.5-7.3,8.2
	c-1.6,0.3-3.3,0.3-4.9,0.3c-35.8,0-71.6,0-107.4,0C496.7,351.4,496.7,351.8,496.7,352.3z"/>
<path class="st0" d="M496,293.9c-35.4,0-70.8,0-106.3,0c-1.8,0-3.7,0.1-5.4-0.2c-4.3-0.7-7.2-4.2-7.1-8.3c0.1-4.2,3.1-7.4,7.5-8
	c1.3-0.2,2.5-0.2,3.8-0.2c71.9-0.5,143.9-1,215.8-1.4c2,0,4,0,5.9,0.5c3.5,1,5.9,4.1,6.1,7.5c0.2,3.4-2,6.6-5.4,8.1
	c-2.3,1-4.6,0.8-7,0.8c-36,0-71.9,0-107.9,0C496,293.1,496,293.5,496,293.9z"/>
<path class="st0" d="M357.2,310.7c0,20-15.9,36.3-35.7,36.4c-19.7,0.1-36.2-16.3-36.1-36.1c0.1-18.4,13.4-35.7,35.8-36.5
	C340.9,273.8,357.2,290.7,357.2,310.7z M321.5,291.7c-10.8,0-19.2,8.5-19.1,19.4c0,10.7,8.3,19,18.9,19c10.7,0,19.3-8.7,19.3-19.4
	C340.5,300.1,332,291.7,321.5,291.7z"/>
<path class="st0" d="M344.9,524.9c-17.1,0-34.1,0-51.2,0c-1.6,0-3.3,0.1-4.9-0.1c-4.6-0.6-7.6-4.1-7.5-8.6c0.2-4.2,3-7.3,7.5-7.8
	c1.3-0.2,2.5-0.1,3.8-0.1c34.7-0.2,69.3-0.3,104-0.5c2,0,4-0.1,5.9,0.4c4.2,1.1,6.7,4.2,6.7,8.1c0,3.9-2.6,7.1-6.8,8.1
	c-1.7,0.4-3.6,0.4-5.4,0.4c-17.4,0-34.8,0-52.2,0C344.9,524.8,344.9,524.9,344.9,524.9z"/>
<path class="st0" d="M343.1,467.1c-17.4,0-34.8,0-52.3,0c-2.2,0-4.3,0.1-6.4-0.9c-3.3-1.7-5.2-4.8-4.8-8.4c0.4-3.5,3-6.4,6.6-7.1
	c1.6-0.3,3.2-0.3,4.9-0.3c34.5-0.2,68.9-0.4,103.4-0.5c2.4,0,4.7-0.2,7,0.6c3.6,1.2,5.9,3.9,6.1,7.5c0.2,3.8-2,6.8-5.8,8.3
	c-2.1,0.8-4.3,0.7-6.5,0.7c-17.4,0-34.8,0-52.3,0C343.1,467.1,343.1,467.1,343.1,467.1z"/>
<path class="st0" d="M568.5,721.6c0,6.1-5.7,9.8-12,7.5c-5.6-2.1-11.3-4.1-17.2-5.2c-24.1-4.4-47.4-2.4-69,10.2
	c-7,4.1-13.2,9-18.5,15.1c-0.7,0.8-1.4,1.7-2.3,2.3c-2.6,2-6.1,2.1-8.6,0.3c-2.8-1.9-3.9-5.3-2.7-8.6c0.7-2.1,2-3.8,3.5-5.5
	c16.5-18.6,37.1-29.3,61.8-32c19.3-2.1,38-0.2,56.2,6.7c1.7,0.6,3.4,1.4,4.9,2.3C567.2,716.3,568.5,718.6,568.5,721.6z"/>
<path class="st2" d="M792.1,944.3c-66.2,0.1-121.8-46.3-132.9-109.4c-10.4-59.2,20.1-119.1,74.7-145.3c41.7-20,83.8-19.6,124.5,2.4
	c36.4,19.6,58.7,50.7,66.5,91.5c13.9,72.6-34.4,144.5-110.6,158.6C806.4,943.5,798.4,944.1,792.1,944.3z M791,692.4
	c-4.3,0-11.3,0.5-18.3,1.8c-55.7,10.5-92.2,55.3-97.7,102.3c-4.7,40.1,7.2,74.9,37.8,101.3c38.5,33.3,82.4,38.5,128.5,18.1
	c49.7-22,77.3-77,67-130.3C897.8,731.4,849.9,692.3,791,692.4z"/>
<path class="st1" d="M478.1,468.4c-1.8,2-3.6,3.9-5.4,5.9c-1.2,1.3-2.1,0.7-3.2-0.1c-1.2-0.9-0.8-1.8-0.1-2.7
	c0.6-0.9,1.3-1.7,1.9-2.6C474,465.1,474,465.1,478.1,468.4z"/>
<path class="st1" d="M321.5,291.7c10.5,0,18.9,8.4,19,19c0.1,10.7-8.6,19.4-19.3,19.4c-10.6,0-18.8-8.3-18.9-19
	C302.4,300.1,310.7,291.7,321.5,291.7z"/>
<path class="st2" d="M793.8,836.8c-17.7-0.1-32.3-14.7-32.1-32.2c0.2-17.3,14.4-31.2,31.8-31.2c18,0,32.5,14.6,32.3,32.5
	C825.6,823.2,811.3,836.9,793.8,836.8z M793.6,790.3c-8.1-0.1-14.8,6.1-14.9,14.1c-0.2,8.5,6.8,15.6,15.4,15.6
	c8.1,0,14.6-6.4,14.7-14.4C808.9,797.3,802.1,790.4,793.6,790.3z"/>
<path class="st2" d="M722,837.9c-17.8,0-32.4-14.5-32.3-32c0-17.2,14.3-31.3,31.6-31.4c18-0.1,32.7,14.5,32.5,32.3
	C753.7,824.1,739.6,837.9,722,837.9z M706.8,805.7c-0.1,8.3,6.6,15.2,15,15.4c8.2,0.2,15.1-6.4,15.1-14.6c0-8.3-7-15.1-15.4-15.1
	C713.4,791.4,706.9,797.7,706.8,805.7z"/>
<path class="st2" d="M832.1,805.1c-0.1-17.4,13.7-31.5,31.2-31.7c18-0.2,33,14.3,32.9,32c0,17.2-14.2,31.3-31.6,31.4
	C846.7,836.9,832.2,822.7,832.1,805.1z M864,790.3c-8.3-0.2-15.2,6.4-15.2,14.5c0,8.1,7.2,15.1,15.5,15.2c8.1,0,14.7-6.4,14.8-14.3
	C879.2,797.3,872.5,790.5,864,790.3z"/>
<path class="st3" d="M202.4,312.6l22,22c5.2,5.2,13.7,5.2,18.9,0l22-22c5.2-5.2,5.2-13.7,0-18.9l-22-22c-5.2-5.2-13.7-5.2-18.9,0
	l-22,22C197.1,298.9,197.1,307.4,202.4,312.6z"/>
<path class="st3" d="M202.4,376.8l22,22c5.2,5.2,13.7,5.2,18.9,0l22-22c5.2-5.2,5.2-13.7,0-18.9l-22-22c-5.2-5.2-13.7-5.2-18.9,0
	l-22,22C197.1,363.1,197.1,371.5,202.4,376.8z"/>
<path class="st2" d="M666,952.7l17.3,17.3c2.5,2.5,6.6,2.5,9.1,0l17.3-17.3c2.5-2.5,2.5-6.6,0-9.1l-17.3-17.3
	c-2.5-2.5-6.6-2.5-9.1,0L666,943.5C663.5,946.1,663.5,950.2,666,952.7z"/>
<circle class="st4" cx="790.2" cy="809.2" r="171"/>
</svg>
