<?xml version="1.0" encoding="utf-8"?>
<!-- Generator: Adobe Illustrator 28.0.0, SVG Export Plug-In . SVG Version: 6.00 Build 0)  -->
<svg version="1.1" id="Capa_1" xmlns="http://www.w3.org/2000/svg" xmlns:xlink="http://www.w3.org/1999/xlink" x="0px" y="0px"
	 viewBox="0 0 1080 1080" style="enable-background:new 0 0 1080 1080;" xml:space="preserve">
<style type="text/css">
	.st0{fill:#090A0A;}
	.st1{fill:#FEFEFE;}
	.st2{fill:#DBB300;}
	.st3{fill:#6EE1EB;}
	.st4{fill:none;stroke:#DBB300;stroke-width:20;stroke-miterlimit:10;}
</style>
<path class="st0" d="M775.2,659.9c1.5,0.6,2.2-0.4,3.1-0.9c21.7-12.9,44.9-22,70-25.7c15.7-2.3,31.5-2.6,47.3-1
	c35.2,3.7,66.7,16.8,93.9,39.3c36.9,30.4,58.1,69.6,63,117.2c7.8,75.4-34.4,148.6-103.7,180.7c-28.7,13.3-58.9,19.5-90.5,17.2
	c-46.2-3.3-86-21.3-118.1-55c-27.1-28.4-42.5-62.4-46.8-101.4c-1.3-12.1-1.2-24.3,0-36.4c0.1-1.3,0.2-2.5,0.3-3.8
	c0.1-1.3-0.4-2.1-1.8-2.1c-1.3,0-2.5,0-3.8,0c-194.7,0.6-389.4,1.1-584.2,1.7c-10.7,0-21.4,0.2-32-2.1c-5.7-1.3-11-3.6-15.9-6.9
	c-8.4-5.7-12.1-13.9-12-23.7c0.3-77.9,0.7-155.8,1-233.8c0.1-19.1,0.1-38.1,0.1-57.2c0-2-0.2-4,0.5-5.9c1.3-4,4.6-6.4,8.6-6.1
	c3.7,0.3,6.7,2.8,7.5,6.8c0.4,2.3,0.4,4.7,0.4,7C62,561.6,61.7,655.3,61.4,749c0,1.5,0.1,2.9,0,4.4C61,761.2,62,765.3,72.4,770
	c4.7,2.1,9.8,2.5,14.9,2.7c5.6,0.2,11.2,0.3,16.9,0.3c195.5-0.6,390.9-1.2,586.4-1.8c6.7,0,6.7,0,8.5-6.5
	c9.7-34.7,28.3-63.8,55.3-87.6c2.7-2.4,3.8-4.6,3.8-8.3c-0.3-82.1-0.4-164.2-0.6-246.3c0-0.7,0-1.5,0-2.2c-0.1-4.1-0.1-4.2-4.3-4.1
	c-18.7,0.2-37.4-0.3-56.1,0.5c-18.4,0.8-34.1-10.2-38.9-27c-1-3.5-1.2-7.1-1.2-10.8c0-20.3,0-40.7,0-61c0-5.1,0.3-4.7-4.7-4.7
	c-52.9,0.2-105.7,0.4-158.6,0.6c-4.8,0-4.9,0.1-4.8,4.6c0,8.7,0.1,17.4,0.2,26.2c0,3.8,0.1,3.8,4,3.9c7.8,0,15.6,0,23.4,0
	c30-0.1,59.9-0.1,89.9-0.2c8.7,0,16.5,2,22.9,8.2c4.5,4.3,7,9.5,7.8,15.7c1,7.8,0.8,15.6,0.8,23.4c0.5,56.9,0.9,113.7,1.4,170.6
	c0.1,6.7-0.4,13.4-2.2,19.9c-3.5,12.3-16.3,22.1-28.6,22c-37.2-0.3-74.5-0.1-111.7,0c-67.9,0.2-135.9,0.4-203.8,0.6
	c-4.5,0-9-0.2-13.4-1.6c-10.8-3.4-17.5-11.3-18.4-22.5c-0.5-6.3-1-12.6-1-19c0.2-63,0.4-126.1,0.4-189.1c0-7.5,2.4-13.8,7.4-19.3
	c4.7-5.3,10.2-8.1,17.6-8c39.8,0.1,79.6,0,119.3-0.2c20.7-0.1,41.4-0.3,62.1-0.4c1.1,0,2.2,0,3.3,0c1.6,0,2.2-0.8,2.2-2.4
	c-0.1-1.1,0-2.2,0-3.3c-0.4-40.5-0.7-81-1.1-121.5c0-0.5,0-1.1,0-1.6c-0.6-10.1-1.5-13.5-14.4-16.1c-4.6-0.9-9.4-1-14.1-1
	c-95.7,0.2-191.5,0.6-287.2,0.8c-4.9,0-9.8,0.9-14.5,2.3c-6.8,2-10,6.5-10,13.7c0.4,96.1,0.7,192.2,1.1,288.3
	c0.2,48.3,0.3,96.6,0.4,145c0,2.9,0.1,5.8,0.9,8.6c1.7,6.4,5.9,9.8,12.3,10.5c2.7,0.3,5.4,0.5,8.1,0.5c94.3,0.1,188.5,0.3,282.8,0.3
	c6.7,0,13.4-0.5,20.1-1.1c6.2-0.5,10.3-4.2,12.7-9.7c2.1-4.9,3-10.1,3.6-15.3c0.1-1.1,0-2.2,0.3-3.2c0.8-2.9,2.6-4.8,5.6-5.3
	c3.2-0.6,5.7,0.4,7.6,3.1c1,1.4,1.5,3,1.4,4.6c-0.5,12.1-1.8,24-10.8,33.3c-5.5,5.7-12,8.7-20.1,9.6c-11.4,1.3-22.8,0.8-34.2,0.8
	c-84.8,0.1-169.7,0-254.5,0c-6.7,0-13.4,0.1-20.2,0c-7.2-0.1-14-1.7-20.1-5.7c-7.4-4.8-11.5-11.4-11.9-20.3
	c-0.2-5.6-0.4-11.3-0.4-16.9c-0.4-108.4-0.8-216.9-1.3-325.3c0-7.6,1-6.6-6.7-6.5c-9.8,0-19.6,0.2-29.4,0.3c-3.1,0-6.1,0.3-9.1,1.6
	c-5.9,2.5-7.9,5.3-7.9,11.6c0,8.2,0,16.3,0.1,24.5c0.1,20.3,0.1,40.7,0.2,61c0,1.8,0.1,3.7-0.2,5.4c-0.6,4.3-4.1,7.4-8.1,7.4
	c-4,0-7.6-3-8.2-7.3c-0.3-1.8-0.2-3.6-0.2-5.4c-0.1-25.2-0.2-50.5-0.3-75.7c0-2-0.1-4-0.2-6c-0.7-10.9,3.4-19.9,11.1-27.3
	c5.2-5.1,12.2-6.3,19.2-6.4c11.6-0.2,23.2-0.2,34.9-0.3c4.7,0,4.8-0.1,4.7-4.8c-0.2-21.4,0.1-42.9-0.9-64.3
	c-0.4-9.8,0.8-19.3,6.3-27.7c6.1-9.2,14.4-14.4,25.9-14.4c98.3-0.3,196.5-0.6,294.8-0.9c7.4,0,14.9,0.6,22.2,2.2
	c2.6,0.6,5.3,1.3,7.8,2.4c9,3.8,18,11.4,17.9,27.8c-0.2,25.1,0.2,50.1,0.4,75.2c0,3.7,0.1,3.7,4.6,3.7c33.1-0.1,66.1-0.3,99.2-0.5
	c22.3-0.1,44.7-0.2,67-0.5c5.5-0.1,9.7,1.6,13.6,5.4c32.4,32.1,64.8,64.1,97.3,96.1c2.8,2.8,3.9,5.9,3.9,9.7c-0.1,18,0,36,0,53.9
	c0.1,64.3,0.2,128.6,0.4,192.9C774.9,656.2,774.6,658.2,775.2,659.9z M446.3,591.6c0-0.1,0-0.2,0-0.3c9.6,0,19.2,0,28.9,0
	c43-0.1,86.1-0.2,129.1-0.1c5.5,0,10.1-1.5,13.5-5.7c3.4-4.2,5-9.2,4.9-14.6c-0.3-36.9-0.6-73.7-0.9-110.6
	c-0.2-26.9-0.5-53.7-0.8-80.6c-0.1-9.8-5.3-14.7-14.9-14.6c-3.4,0.1-6.9,0-10.3,0c-103,0.3-205.9,0.7-308.9,1c-4.3,0-6.6,1.6-8,5.8
	c-1,3.1-1.2,6.4-1.2,9.7c-0.1,61.6-0.2,123.1-0.3,184.7c0,5.1,0.2,10.2,0.4,15.2c0.1,3.6,1.4,6.7,4.5,8.9c2.3,1.7,4.9,1.2,7.4,1.2
	C341.8,591.6,394,591.6,446.3,591.6z M1036.8,815.7c0-33-5.6-56.9-15.9-78.1c-30.2-62.1-97.3-97.4-167.2-88
	c-38.5,5.2-71.9,21.6-98.5,50c-38.9,41.5-53.8,90.5-42.1,146.5c14.4,68.6,75.4,122.5,153.6,124.4c26.2,0.6,51.4-4.4,74.8-16.1
	C1002.5,923.9,1033.7,874.1,1036.8,815.7z M747.9,399.5c-8.1-9.6-70.2-70.2-73.8-72.1c0,8.4,0,16.8,0,25.1c0,9.8,0,19.6,0,29.4
	c0,9.9,9.3,18.3,18,17.9c15.7-0.8,31.6-0.2,47.3-0.2C741.9,399.5,744.4,399.5,747.9,399.5z"/>
<path class="st0" d="M164.4,327.4c-5.1,0.1-9.2-4.4-8.5-9.3c0.2-1.8,0.9-3.5,1.5-5.2c9.8-27.7,19.5-55.4,29.3-83
	c0.5-1.4,0.9-2.8,1.7-4c3.6-5.3,10.7-5.2,14.1,0.2c0.9,1.4,1.4,2.9,2,4.5c9.6,27.2,19.2,54.3,28.8,81.5c0.4,1.2,0.9,2.4,1.2,3.6
	c1.1,4.5-1,8.6-5.2,10.1c-4,1.4-8.1,0-10.1-4.1c-1.7-3.4-2.7-7.1-4-10.7c-2.9-8.2-2.9-8.2-11.8-7.9c-7.3,0.3-14.5,0.6-21.8,0.6
	c-2.4,0-3.6,0.8-4.3,3c-1.5,4.8-3.3,9.6-5,14.4C170.9,324.8,168.2,327,164.4,327.4z M206.6,287.2c-3.7-10.4-7.3-20.4-10.8-30.5
	c-0.3,0.1-0.6,0.1-1,0.2c-3.5,10-7,19.9-10.6,30.3C192.2,287.2,199.2,287.2,206.6,287.2z"/>
<path class="st0" d="M625.3,723c0.1,4.4-2.2,7.8-5.7,8.8c-3.7,1.1-7.3-0.3-9.4-3.6c-1.8-2.9-2.6-6.4-3.8-9.6
	c-1.1-3.1-1.5-7.1-3.7-8.9c-2.5-2-6.6-0.7-10.1-0.6c-6.5,0.1-13.1,0.6-19.6,0.5c-3.4-0.1-4.8,1.4-5.6,4.4c-1.2,4-2.7,7.9-4.1,11.8
	c-0.6,1.7-1.3,3.4-2.5,4.8c-2.3,2.5-5.8,3.4-9,2.2c-3.1-1.1-5.2-4.1-5.3-7.5c-0.1-2.1,0.6-3.9,1.3-5.8c9.9-28,19.7-56,29.6-84
	c0.4-1,0.7-2.1,1.3-3c3.4-5.9,11.2-6,14.7-0.1c0.8,1.4,1.3,3,1.9,4.5c9.5,27,19.1,54,28.6,80.9C624.6,719.7,625.5,721.5,625.3,723z
	 M586.7,662.8c-0.4,0-0.7,0.1-1.1,0.1c-3.5,10-7,19.9-10.6,30.4c7.8,0,14.8,0,22.4,0C593.7,682.8,590.2,672.8,586.7,662.8z"/>
<path class="st0" d="M301.1,259.6c0,8.7,0,17.4,0,26.1c0,3.7,0.1,3.7,3.9,3.8c1.4,0,2.9-0.1,4.3,0.1c4.3,0.5,7.3,3.6,7.3,7.4
	c0,3.6-2.6,6.6-6.7,7.4c-1.1,0.2-2.2,0.2-3.3,0.2c-6.1,0.2-5.6-0.8-5.7,6.1c0,3.1,0.1,6.2-0.3,9.2c-0.6,4.8-3.9,7.7-8.3,7.7
	c-4.3,0-7.8-3.1-8.2-7.8c-0.3-3.2-0.1-6.5-0.1-9.8c0-4.5,0-4.5-4.3-4.5c-8.9,0-17.8,0-26.7,0c-2.4,0-4.7-0.1-7-0.7
	c-6.4-1.6-9.4-8.2-6.3-14.1c0.8-1.4,1.8-2.7,2.7-4.1c13.7-20.1,27.3-40.1,41-60.2c2.1-3.1,4.8-5,8.6-4.6c4.1,0.5,6.9,2.9,8.5,6.8
	c0.8,1.9,0.7,3.9,0.7,5.9c0,8.3,0,16.7,0,25C301.2,259.6,301.1,259.6,301.1,259.6z M261.7,288.5c6.9,0.3,12.8,0.6,18.7,0.8
	c3.7,0.1,3.7,0,3.7-4c0.1-8.5,0.1-17,0.1-25.5c0-0.9,0.7-2.2-1.1-2.6C276.1,267.3,269.2,277.4,261.7,288.5z"/>
<path class="st0" d="M671.5,666.1c1.7,1.4,3.5,1.3,5,1.8c12.9,4.6,21.7,13.1,24,27c2.1,12.7-2.7,23.3-12.8,30.4
	c-14.1,9.9-27.5,10.1-43.2,0.3c-4.3-2.7-7.2-6.6-9.3-11.1c-2.1-4.5-0.7-9.1,3.2-11.3c3.9-2.2,8.3-1,11.3,3.2
	c6.7,9.4,15.5,11.8,25.5,7c8.8-4.2,11.6-15.1,5.8-23c-5.6-7.8-13.6-9.7-22.6-8.9c-3.2,0.3-6.1,0.6-8.6-1.8
	c-3.6-3.4-4.2-8.1-1.3-12.3c3.3-4.8,7.5-8.9,11.6-13c2.4-2.4,4.7-4.9,6.9-7.2c-1.4-1.7-2.8-1.1-3.9-1.1c-7.1-0.1-14.2-0.2-21.2-0.3
	c-1.5,0-2.9,0-4.3-0.2c-5.2-0.8-8.2-4.1-8.1-8.6c0.1-4.5,3.4-7.7,8.6-8.2c1.8-0.2,3.6-0.1,5.4,0c12.3,0.2,24.7,0.5,37,0.8
	c1.3,0,2.6,0,3.8,0.2c6.5,1.3,9.5,7.7,6,13.3c-2.1,3.4-4.8,6.4-7.3,9.5c-1.8,2.3-3.7,4.5-5.6,6.7
	C675.5,661.4,673.6,663.6,671.5,666.1z"/>
<path class="st1" d="M446.3,591.6c-52.3,0-104.6,0-156.9,0c-2.5,0-5.1,0.5-7.4-1.2c-3.1-2.2-4.3-5.3-4.5-8.9
	c-0.2-5.1-0.4-10.2-0.4-15.2c0.1-61.6,0.2-123.1,0.3-184.7c0-3.3,0.2-6.5,1.2-9.7c1.4-4.2,3.7-5.8,8-5.8c103-0.3,205.9-0.7,308.9-1
	c3.4,0,6.9,0,10.3,0c9.6-0.2,14.8,4.8,14.9,14.6c0.3,26.9,0.6,53.7,0.8,80.6c0.3,36.9,0.6,73.7,0.9,110.6c0.1,5.5-1.5,10.4-4.9,14.6
	c-3.4,4.2-8,5.7-13.5,5.7c-43,0-86.1,0.1-129.1,0.1c-9.6,0-19.2,0-28.9,0C446.3,591.4,446.3,591.5,446.3,591.6z M442.3,565
	c3.9-0.4,6.5-2.6,7.9-6.4c1.7-4.8,3.5-9.5,5-14.4c0.7-2.3,2-3,4.3-3c7.3,0,14.5-0.3,21.8-0.6c8.8-0.3,8.8-0.3,11.8,7.9
	c1.3,3.6,2.4,7.3,4,10.7c2,4.1,6.1,5.5,10.1,4c4.1-1.5,6.2-5.5,5.1-10.1c-0.2-1.1-0.6-2.1-1-3.1c-9.6-27.3-19.3-54.7-29-82
	c-0.5-1.5-1.1-3.1-2-4.5c-3.4-5.4-10.5-5.4-14.1-0.1c-0.8,1.2-1.2,2.6-1.7,4c-9.7,27.5-19.4,55-29.1,82.5c-0.6,1.7-1.3,3.4-1.6,5.2
	C433,560.3,437,565.1,442.3,565z M541.6,498c0.6-5,1.3-9.5,1.5-13.9c0.2-3,1.2-4,4.2-3.9c8.7,0.2,17.4,0,26.1,0c2,0,4,0.1,5.9-0.7
	c3.8-1.4,5.9-4.4,5.7-8.3c-0.2-3.6-2.4-6.4-6.1-7.4c-1.4-0.4-2.9-0.6-4.3-0.6c-12.7,0-25.4,0-38.1,0.1c-4.5,0-7.5,2.5-8.6,6.8
	c-0.4,1.6-0.6,3.2-0.8,4.8c-1,9-2,18-3.1,27c-0.3,2.6,0,5,0.7,7.5c1.5,5.1,4.6,6.9,9.8,6c3.7-0.7,7.5-1.6,11.3-1.9
	c8.5-0.7,16.2,1.4,22.4,7.5c4.3,4.3,5.3,12.5,2,17c-4.6,6.3-16.4,11-25.5,6.4c-2.7-1.3-4.5-3.6-6.6-5.6c-3.5-3.4-7.9-3.6-11.3-0.7
	c-3.2,2.7-3.9,6.9-1.7,10.8c1.6,2.7,3.8,4.8,6.2,6.8c11.4,9.1,27.4,10,41.4,2c6.6-3.8,12-8.9,14.6-16.3c4.7-13.7,0-27.7-11.9-36
	c-5-3.5-10.3-5.8-16.4-6.9C553.6,497.4,548.1,497.6,541.6,498z"/>
<path class="st1" d="M747.9,399.5c-3.5,0-6,0-8.5,0c-15.8,0-31.6-0.6-47.3,0.2c-8.7,0.5-18-8-18-17.9c0-9.8,0-19.6,0-29.4
	c0-8.3,0-16.7,0-25.1C677.7,329.2,739.8,389.9,747.9,399.5z"/>
<path class="st1" d="M206.6,287.2c-7.5,0-14.5,0-22.4,0c3.6-10.3,7.1-20.3,10.6-30.3c0.3-0.1,0.6-0.1,1-0.2
	C199.4,266.7,202.9,276.8,206.6,287.2z"/>
<path class="st1" d="M586.7,662.8c3.5,10,7,20.1,10.7,30.5c-7.6,0-14.6,0-22.4,0c3.7-10.5,7.2-20.4,10.6-30.4
	C585.9,662.8,586.3,662.8,586.7,662.8z"/>
<path class="st1" d="M261.7,288.5c7.6-11.1,14.5-21.2,21.4-31.3c1.8,0.4,1.1,1.7,1.1,2.6c0,8.5,0,17-0.1,25.5c0,3.9-0.1,4.1-3.7,4
	C274.4,289.1,268.5,288.8,261.7,288.5z"/>
<path class="st0" d="M442.3,565c-5.3,0.1-9.3-4.6-8.4-9.8c0.3-1.8,1-3.5,1.6-5.2c9.7-27.5,19.4-55,29.1-82.5c0.5-1.4,0.9-2.8,1.7-4
	c3.5-5.3,10.6-5.2,14.1,0.1c0.9,1.4,1.4,2.9,2,4.5c9.7,27.3,19.3,54.7,29,82c0.4,1,0.7,2.1,1,3.1c1.1,4.5-1,8.6-5.1,10.1
	c-4,1.5-8.1,0-10.1-4c-1.7-3.4-2.8-7.1-4-10.7c-3-8.3-2.9-8.3-11.8-7.9c-7.3,0.3-14.5,0.5-21.8,0.6c-2.4,0-3.6,0.7-4.3,3
	c-1.5,4.8-3.3,9.6-5,14.4C448.8,562.3,446.2,564.6,442.3,565z M484.6,524.8c-3.9-10.4-7-20.6-11.3-31.5c-3.9,11.2-7.8,21-10.9,31.5
	C470,524.8,476.9,524.8,484.6,524.8z"/>
<path class="st0" d="M541.6,498c6.4-0.3,12-0.6,17.6,0.4c6,1.1,11.4,3.4,16.4,6.9c11.9,8.3,16.6,22.3,11.9,36
	c-2.5,7.4-8,12.5-14.6,16.3c-14,8-30,7.1-41.4-2c-2.4-1.9-4.7-4.1-6.2-6.8c-2.2-3.9-1.5-8.1,1.7-10.8c3.4-2.8,7.8-2.6,11.3,0.7
	c2.1,2,3.9,4.3,6.6,5.6c9,4.5,20.9-0.1,25.5-6.4c3.2-4.5,2.3-12.7-2-17c-6.2-6.2-13.9-8.2-22.4-7.5c-3.8,0.3-7.5,1.2-11.3,1.9
	c-5.2,1-8.3-0.9-9.8-6c-0.7-2.5-1-4.9-0.7-7.5c1.1-9,2-18,3.1-27c0.2-1.6,0.4-3.3,0.8-4.8c1.1-4.4,4.1-6.8,8.6-6.8
	c12.7-0.1,25.4-0.1,38.1-0.1c1.4,0,2.9,0.2,4.3,0.6c3.7,1,5.9,3.8,6.1,7.4c0.2,3.9-1.9,6.9-5.7,8.3c-1.9,0.7-3.9,0.7-5.9,0.7
	c-8.7,0-17.4,0.2-26.1,0c-3-0.1-4,0.9-4.2,3.9C542.9,488.5,542.2,492.9,541.6,498z"/>
<path class="st2" d="M874.8,944.3c-66.1,0.1-121.7-46.1-132.9-109.3c-9.9-55.8,16.7-112.9,66.5-140.9c43.6-24.5,88.5-25.6,132.6-2
	c36.3,19.4,58.6,50.4,66.5,90.9c14.3,73.4-34.6,145.2-110.4,159.2C889.3,943.5,881.3,944.1,874.8,944.3z M874.5,927.3
	c5.3,0.2,12-0.4,18.6-1.5c64.6-11.3,106.2-69.8,99.5-129.3c-4.9-43.8-27.9-75.4-67.8-93.8c-30.9-14.2-62.6-13.8-94.1-1.1
	c-51.1,20.6-81.9,76.3-72.2,130.1C768.4,887.4,816.1,927.2,874.5,927.3z"/>
<path class="st1" d="M484.6,524.8c-7.7,0-14.6,0-22.2,0c3.1-10.5,6.9-20.3,10.9-31.5C477.6,504.2,480.7,514.4,484.6,524.8z"/>
<path class="st2" d="M946.3,837.9c-17.9,0.1-32.4-14.1-32.5-31.8c-0.1-17.4,13.8-31.5,31.2-31.7c18-0.2,33,14.4,32.9,32.1
	C977.9,823.8,963.7,837.8,946.3,837.9z M945.6,791.4c-8.1-0.1-14.8,6.2-15,14.1c-0.3,8.3,7.1,15.6,15.6,15.6
	c8.1-0.1,14.6-6.5,14.6-14.5C960.9,798.3,954.1,791.5,945.6,791.4z"/>
<path class="st2" d="M876,837.9c-17.8,0.1-32.4-14.2-32.6-31.8c-0.2-17.2,14-31.5,31.3-31.7c18.1-0.2,32.8,14.2,32.8,32.1
	C907.5,823.9,893.5,837.8,876,837.9z M890.6,806.7c0.1-8.3-6.7-15.2-15.2-15.3c-8.1-0.1-14.8,6.1-15,14.1
	c-0.2,8.5,6.8,15.7,15.4,15.6C883.9,821,890.5,814.7,890.6,806.7z"/>
<path class="st2" d="M803.8,839c-17.8,0-32.4-14.5-32.4-32c0-17.2,14.2-31.4,31.6-31.4c18-0.1,32.7,14.5,32.6,32.3
	C835.5,825.2,821.3,839,803.8,839z M803.2,792.5c-8.2,0.1-14.6,6.3-14.7,14.4c-0.1,8.5,7.1,15.6,15.7,15.3
	c8.1-0.2,14.5-6.7,14.5-14.7C818.6,799.2,811.6,792.4,803.2,792.5z"/>
<path class="st3" d="M90.8,374.6l22,22c5.2,5.2,13.7,5.2,18.9,0l22-22c5.2-5.2,5.2-13.7,0-18.9l-22-22c-5.2-5.2-13.7-5.2-18.9,0
	l-22,22C85.6,360.9,85.6,369.4,90.8,374.6z"/>
<path class="st3" d="M90.8,438.7l22,22c5.2,5.2,13.7,5.2,18.9,0l22-22c5.2-5.2,5.2-13.7,0-18.9l-22-22c-5.2-5.2-13.7-5.2-18.9,0
	l-22,22C85.6,425,85.6,433.5,90.8,438.7z"/>
<path class="st2" d="M748.7,952.7l17.3,17.3c2.5,2.5,6.6,2.5,9.1,0l17.3-17.3c2.5-2.5,2.5-6.6,0-9.1l-17.3-17.3
	c-2.5-2.5-6.6-2.5-9.1,0l-17.3,17.3C746.1,946.1,746.1,950.2,748.7,952.7z"/>
<circle class="st4" cx="873.1" cy="808.7" r="171"/>
</svg>
