<?xml version="1.0" encoding="utf-8"?>
<!-- Generator: Adobe Illustrator 28.0.0, SVG Export Plug-In . SVG Version: 6.00 Build 0)  -->
<svg version="1.1" id="Capa_1" xmlns="http://www.w3.org/2000/svg" xmlns:xlink="http://www.w3.org/1999/xlink" x="0px" y="0px"
	 viewBox="0 0 1080 1080" style="enable-background:new 0 0 1080 1080;" xml:space="preserve">
<style type="text/css">
	.st0{fill:#090A0A;}
	.st1{fill:#FFFFFF;}
	.st2{fill:#FCFDFD;}
	.st3{fill:#29E4A5;}
	.st4{fill:#6EE1EB;}
	.st5{fill:none;stroke:#29E4A5;stroke-width:20;stroke-miterlimit:10;}
</style>
<path class="st0" d="M775.3,660c1.3,0.6,2.1-0.4,3-1c21.7-12.9,44.9-22,70-25.7c15.7-2.3,31.5-2.6,47.3-1
	c35.2,3.7,66.7,16.8,93.9,39.3c36.9,30.4,58.1,69.6,63,117.2c7.8,75.4-34.4,148.6-103.7,180.7c-28.7,13.3-58.9,19.5-90.5,17.2
	c-46.2-3.3-86-21.3-118.1-55c-27.1-28.4-42.5-62.4-46.8-101.4c-1.3-12.1-1.2-24.3,0-36.4c0.1-1.3,0.2-2.5,0.3-3.8
	c0.1-1.3-0.3-2.1-1.8-2.1c-1.3,0-2.5,0-3.8,0c-194.7,0.6-389.4,1.1-584.2,1.7c-10.7,0-21.4,0.2-32-2.1c-5.7-1.3-11-3.6-15.9-6.9
	c-8.4-5.7-12.1-13.9-12-23.7c0.3-77.7,0.7-155.5,1-233.2c0.1-19.3,0.1-38.5,0.1-57.8c0-2-0.2-4,0.5-5.9c1.3-4,4.6-6.4,8.6-6.1
	c3.7,0.3,6.7,2.8,7.5,6.8c0.4,2.3,0.4,4.7,0.4,7C62,561.6,61.7,655.3,61.4,749c0,1.5,0.1,2.9,0,4.4C61,761.1,62,765.3,72.4,770
	c4.7,2.1,9.8,2.5,14.9,2.7c5.6,0.2,11.2,0.3,16.9,0.3c195.5-0.6,390.9-1.2,586.4-1.8c6.7,0,6.7,0,8.5-6.5
	c9.7-34.7,28.3-63.8,55.3-87.6c2.7-2.4,3.8-4.6,3.8-8.3c-0.3-82.1-0.4-164.2-0.6-246.3c0-0.7,0-1.5,0-2.2c-0.1-4.1-0.1-4.2-4.3-4.1
	c-18.7,0.2-37.4-0.3-56.1,0.5c-18.4,0.8-34.1-10.1-38.9-27c-1-3.5-1.2-7.1-1.2-10.8c0-20.3,0-40.7,0-61c0-5.1,0.3-4.7-4.7-4.7
	c-52.9,0.2-105.7,0.4-158.6,0.6c-5.1,0-4.9-0.1-4.9,4.6c0.1,8.9,0.2,17.8,0.1,26.7c0,2.7,0.9,3.4,3.5,3.4c6.9-0.1,13.8-0.1,20.7-0.1
	c31.1-0.1,62.1-0.1,93.2-0.2c8.7,0,16.5,2,22.9,8.2c4.5,4.3,7,9.5,7.8,15.7c1,7.8,0.8,15.6,0.8,23.4c0.5,56.9,0.9,113.7,1.4,170.6
	c0.1,6.7-0.4,13.4-2.2,19.9c-3.6,12.5-16.3,22.1-28,22c-37.6-0.2-75.2-0.1-112.8,0c-67.8,0.2-135.5,0.4-203.3,0.6
	c-4.5,0-9-0.2-13.4-1.6c-10.8-3.4-17.5-11.3-18.4-22.5c-0.5-6.3-1-12.6-1-19c0.2-63,0.4-126.1,0.4-189.1c0-7.5,2.4-13.8,7.4-19.3
	c4.7-5.3,10.2-8.1,17.6-8c39.8,0.1,79.6,0,119.3-0.2c20.7-0.1,41.4-0.3,62.1-0.4c1.1,0,2.2,0,3.3,0c1.6,0,2.2-0.8,2.2-2.4
	c-0.1-1.1,0-2.2,0-3.3c-0.4-40.5-0.7-81-1.1-121.5c0-0.5,0-1.1,0-1.6c-0.6-10.1-1.5-13.5-14.4-16.1c-4.6-0.9-9.4-1-14.1-1
	c-95.7,0.2-191.5,0.6-287.2,0.8c-4.9,0-9.8,0.9-14.5,2.3c-6.8,2-10,6.5-10,13.7c0.4,96.1,0.7,192.2,1.1,288.3
	c0.2,48.3,0.3,96.6,0.4,145c0,2.9,0.1,5.8,0.9,8.6c1.7,6.4,5.9,9.8,12.3,10.5c2.7,0.3,5.4,0.5,8.1,0.5c94.3,0.1,188.5,0.3,282.8,0.3
	c6.7,0,13.4-0.5,20.1-1.1c6.2-0.5,10.3-4.2,12.7-9.7c2.1-4.9,3-10.1,3.6-15.3c0.1-1.1,0-2.2,0.3-3.2c0.8-2.9,2.6-4.8,5.6-5.3
	c3.2-0.6,5.7,0.4,7.6,3.1c1,1.4,1.5,3,1.4,4.6c-0.5,12.1-1.8,24-10.8,33.3c-5.5,5.7-12,8.7-20.1,9.6c-11.4,1.3-22.8,0.8-34.2,0.8
	c-84.6,0.1-169.3,0-253.9,0c-6.9,0-13.8,0.1-20.7,0c-7.2-0.1-14-1.7-20.1-5.7c-7.4-4.8-11.5-11.4-11.9-20.3
	c-0.2-5.6-0.4-11.3-0.4-16.9c-0.4-108.4-0.8-216.9-1.3-325.3c0-7.6,1-6.6-6.7-6.5c-9.8,0-19.6,0.2-29.4,0.3c-3.1,0-6.1,0.3-9.1,1.6
	c-5.9,2.5-7.9,5.3-7.9,11.6c0,8.2,0,16.3,0.1,24.5c0.1,20.3,0.1,40.7,0.2,61c0,1.8,0.1,3.7-0.2,5.4c-0.6,4.3-4.1,7.4-8.1,7.4
	c-4,0-7.6-3-8.2-7.3c-0.3-1.8-0.2-3.6-0.2-5.4c-0.1-25.2-0.2-50.5-0.3-75.7c0-2-0.1-4-0.2-6c-0.7-10.9,3.4-19.9,11.1-27.3
	c5.2-5.1,12.2-6.3,19.2-6.4c11.6-0.2,23.2-0.2,34.9-0.3c4.7,0,4.8-0.1,4.7-4.8c-0.2-21.4,0.1-42.9-0.9-64.3
	c-0.4-9.8,0.8-19.3,6.3-27.7c6.1-9.2,14.4-14.4,25.9-14.4c98.3-0.3,196.5-0.6,294.8-0.9c7.3,0,14.5,0.6,21.6,2.1
	c2.1,0.5,4.2,1,6.3,1.7c13.4,4.7,19.9,14.4,19.9,28.5c0,25.1,0.2,50.1,0.4,75.2c0,3.7,0.1,3.7,4.6,3.7c33.1-0.1,66.1-0.3,99.2-0.5
	c22.3-0.1,44.7-0.2,67-0.5c5.5-0.1,9.7,1.6,13.6,5.4c32.4,32.1,64.8,64.1,97.3,96.1c2.8,2.8,3.9,5.9,3.9,9.7c-0.1,18,0,36,0,53.9
	c0.1,64.3,0.2,128.6,0.4,192.9C774.9,656.1,774.5,658.2,775.3,660z M447.5,365c0,0.4,0,0.7,0,1.1c-53.6,0-107.1,0-160.7,0
	c-4.2,0-6.6,1.7-8,5.8c-1,3.1-1.2,6.4-1.2,9.7c-0.1,61.6-0.2,123.1-0.3,184.7c0,4.9,0.2,9.8,0.4,14.7c0.1,3.6,1.2,6.7,4.1,9.1
	c2.4,2,5.1,1.5,7.8,1.5c66.8-0.1,133.6-0.2,200.5-0.3c38.3-0.1,76.6-0.2,114.9-0.1c5.1,0,9.4-1.6,12.6-5.3c3.7-4.3,5.3-9.4,5.2-15.1
	c-0.3-36.5-0.6-73-0.9-109.5c-0.2-27.4-0.5-54.8-0.9-82.3c-0.1-8.8-5.4-14-13.8-14C553.9,365,500.7,365,447.5,365z M1036.8,815.6
	c-0.1-30.7-4.2-51.6-12.9-71.5c-28.8-66.3-97.9-104.2-170.1-94.6c-38.7,5.1-72.2,21.7-98.9,50.3c-38.7,41.4-53.5,90.3-41.9,146.1
	c14.5,69.4,76.1,122.8,154.1,124.6c26.2,0.6,51.4-4.5,74.8-16.3C1002.5,923.7,1033.7,874.1,1036.8,815.6z M747,399.5
	c0.1-0.3,0.2-0.7,0.4-1c-24.1-23.8-48.3-47.7-72.4-71.5c-0.6,0.5-0.8,0.6-0.8,0.7c0,18.5-0.4,37,0,55.5c0.2,9.6,8,16.3,17.5,16.3
	c17.1,0,34.1,0,51.2,0C744.3,399.5,745.7,399.5,747,399.5z"/>
<path class="st0" d="M164.4,327.4c-5.1,0.1-9.2-4.4-8.5-9.3c0.2-1.8,0.9-3.5,1.5-5.2c9.8-27.7,19.5-55.4,29.3-83
	c0.5-1.4,0.9-2.8,1.7-4c3.6-5.3,10.7-5.2,14.1,0.2c0.9,1.4,1.4,2.9,2,4.5c9.6,27.2,19.2,54.3,28.8,81.5c0.4,1.2,0.9,2.4,1.2,3.6
	c1.1,4.5-1,8.6-5.2,10.1c-4,1.4-8.1,0-10.1-4.1c-1.7-3.4-2.7-7.1-4-10.7c-2.9-8.2-2.9-8.2-11.8-7.9c-7.3,0.3-14.5,0.6-21.8,0.6
	c-2.4,0-3.6,0.8-4.3,3c-1.5,4.8-3.3,9.6-5,14.4C170.9,324.8,168.2,327,164.4,327.4z M206.7,287.2c-3.8-10.6-7.3-20.6-11.3-31.8
	c-4,11.3-7.5,21.3-11.1,31.8C192,287.2,199,287.2,206.7,287.2z"/>
<path class="st0" d="M625.4,723.7c-0.1,3.9-2.4,7.1-5.7,8.1c-3.8,1.2-7.8-0.3-9.7-4c-1.5-2.9-2.3-6.1-3.6-9.1
	c-1.3-3.1-1.2-7.6-4-9.1c-2.5-1.4-6.4-0.6-9.6-0.5c-6.7,0.1-13.4,0.5-20.1,0.5c-2.9,0-4.2,1.2-5,3.7c-1.4,4.3-3,8.5-4.4,12.8
	c-0.7,1.9-1.5,3.7-3.1,5c-2.6,2.3-5.6,2.6-8.6,1.3c-2.9-1.2-4.5-3.5-4.9-6.7c-0.3-2.3,0.5-4.3,1.2-6.3c9.9-28,19.7-56,29.6-84
	c0.5-1.4,1-2.7,1.9-3.9c3.5-4.9,10.5-4.8,13.8,0.2c1.1,1.6,1.7,3.6,2.4,5.5c9.5,26.8,19,53.6,28.4,80.4
	C624.6,719.7,625.6,721.8,625.4,723.7z M586.7,662.8c-0.4,0-0.7,0-1.1,0c-3.5,10-7,19.9-10.7,30.4c7.8,0,14.7,0,22.4,0
	C593.7,682.9,590.2,672.8,586.7,662.8z"/>
<path class="st0" d="M301.1,259.5c0,8.9,0.1,17.8-0.1,26.7c0,2.5,0.5,3.8,3.2,3.4c1.8-0.2,3.6-0.2,5.4,0.1c4,0.6,6.8,3.6,6.9,7.2
	c0.1,3.7-2.5,6.8-6.5,7.5c-2.1,0.4-4.3,0.3-6.5,0.3c-1.9,0-2.6,0.8-2.5,2.6c0,2.7,0,5.4,0,8.2c0,1.6,0,3.3-0.3,4.9
	c-0.8,4.5-3.9,7.3-8.1,7.3c-4.1,0-7.6-2.8-8.3-7.2c-0.4-2.3-0.2-4.7-0.2-7.1c0-1.3,0-2.5,0-3.8c-0.1-4.1-0.1-4.1-4.1-4.1
	c-8.9,0-17.8,0-26.7,0c-2.5,0-5.1-0.1-7.6-0.8c-5.8-1.6-8.8-7.9-6.2-13.4c0.8-1.6,1.9-3.1,2.9-4.6c13.7-20.1,27.4-40.1,41-60.2
	c2.2-3.3,5-5.3,9.1-4.6c4.1,0.7,6.8,3.2,8.2,7.1c0.6,1.8,0.6,3.6,0.6,5.4c0,8.3,0,16.7,0,25C301.2,259.5,301.1,259.5,301.1,259.5z
	 M284.1,256.4c-7.1,8.5-20.3,28.4-21.4,32.2c6.2,0.3,12.3,0.5,18.5,0.8c2,0.1,3-0.5,3-2.7C284.1,276.9,284.1,267.2,284.1,256.4z"/>
<path class="st0" d="M667.1,647c-1.7-1.6-3.2-1-4.6-1c-6.9-0.1-13.8-0.2-20.7-0.3c-1.5,0-2.9,0-4.3-0.2c-5.2-0.8-8.2-4.1-8.1-8.6
	c0.1-4.5,3.4-7.7,8.6-8.2c1.8-0.2,3.6-0.1,5.4,0c12.3,0.2,24.7,0.5,37,0.8c1.3,0,2.6,0,3.8,0.2c6.5,1.3,9.5,7.7,6,13.3
	c-2.1,3.4-4.8,6.4-7.3,9.5c-1.8,2.3-3.7,4.5-5.6,6.7c-1.9,2.2-3.8,4.4-5.9,6.8c1.2,1.1,2.6,1.3,3.9,1.6
	c11.6,2.7,24.8,14.2,25.5,30.5c0.4,11.2-4,20.9-13.2,27.3c-14.2,9.7-27.5,10.1-43.2,0.3c-4.1-2.6-7-6.4-9.1-10.6
	c-2.4-4.8-1.1-9.5,3-11.8c3.9-2.2,8.3-0.9,11.3,3.2c6.7,9.4,15.5,11.7,25.5,7c8.8-4.2,11.6-15.1,5.8-23c-5.6-7.8-13.6-9.7-22.6-8.9
	c-3.2,0.3-6.1,0.6-8.6-1.9c-3.6-3.4-4.2-8.1-1.3-12.3c3.3-4.8,7.5-8.9,11.6-13C662.5,651.9,664.8,649.5,667.1,647z"/>
<path class="st1" d="M447.5,365c53.2,0,106.4,0,159.6,0c8.4,0,13.7,5.2,13.8,14c0.3,27.4,0.6,54.8,0.9,82.3
	c0.3,36.5,0.6,73,0.9,109.5c0.1,5.7-1.6,10.8-5.2,15.1c-3.2,3.7-7.5,5.3-12.6,5.3c-38.3,0-76.6,0.1-114.9,0.1
	c-66.8,0.1-133.6,0.2-200.5,0.3c-2.7,0-5.4,0.5-7.8-1.5c-2.9-2.4-4-5.5-4.1-9.1c-0.1-4.9-0.4-9.8-0.4-14.7
	c0.1-61.6,0.3-123.1,0.3-184.7c0-3.3,0.2-6.5,1.2-9.7c1.3-4.2,3.7-5.8,8-5.8c53.6,0,107.1,0,160.7,0
	C447.5,365.8,447.5,365.4,447.5,365z M442.2,565c3.7-0.3,6.5-2.4,7.8-6.2c1.7-4.8,3.4-9.5,5.1-14.3c0.7-2.1,1.5-3.3,4.1-3.3
	c8,0,16-0.4,23.9-0.6c6.9-0.1,6.9-0.1,9.3,6.7c1,2.7,1.9,5.5,2.9,8.2c0.5,1.4,1,2.7,1.7,4c2.3,3.9,6.3,5.3,10.3,3.7
	c3.9-1.6,5.9-5.5,4.9-9.8c-0.3-1.4-0.9-2.8-1.3-4.1c-9.5-26.8-18.9-53.6-28.4-80.5c-0.6-1.7-1.1-3.5-2.1-5
	c-3.4-5.7-10.8-5.7-14.4-0.1c-0.7,1.1-1,2.3-1.5,3.5c-9.8,27.8-19.7,55.7-29.5,83.5c-0.5,1.5-1.2,3.1-1.4,4.7
	C433.1,560.4,437,564.9,442.2,565z M541.6,498c0.6-5.3,1.3-9.8,1.6-14.3c0.1-2.8,1.2-3.6,3.9-3.6c8.9,0.1,17.8,0,26.7,0
	c2,0,4,0,5.9-0.8c3.5-1.4,5.5-4.3,5.4-8c-0.1-3.6-2.3-6.5-5.9-7.6c-1.7-0.6-3.6-0.6-5.4-0.6c-12.3,0-24.7,0-37,0.1
	c-4.8,0-7.8,2.5-8.9,7.2c-0.4,1.6-0.6,3.2-0.7,4.8c-1,8.8-1.9,17.7-3,26.5c-0.3,2.8-0.1,5.4,0.7,8c1.4,4.7,4.6,6.6,9.5,5.7
	c3.7-0.7,7.5-1.6,11.3-1.9c8.3-0.8,15.8,1.1,22.1,7c6.2,5.7,6.2,15.2-0.3,20.5c-5.9,4.8-12.8,6.6-20.4,4.4c-3.6-1.1-6.1-3.8-8.6-6.4
	c-3.4-3.5-7.8-3.8-11.3-1c-3.5,2.7-4.1,7.1-1.7,11.2c1.5,2.5,3.6,4.5,5.9,6.4c15.9,13,37.8,7.3,49.2-3.6c11.9-11.3,10.5-31.6,1-41.5
	c-5.9-6.2-13-10.2-21.5-11.9C554.1,497.3,548.2,497.5,541.6,498z"/>
<path class="st2" d="M747,399.5c-1.4,0-2.7,0-4.1,0c-17.1,0-34.1,0-51.2,0c-9.5,0-17.3-6.7-17.5-16.3c-0.4-18.5-0.1-37,0-55.5
	c0-0.1,0.2-0.2,0.8-0.7c24.1,23.8,48.2,47.6,72.4,71.5C747.3,398.8,747.1,399.1,747,399.5z"/>
<path class="st2" d="M206.7,287.2c-7.6,0-14.7,0-22.4,0c3.6-10.4,7.1-20.4,11.1-31.8C199.3,266.6,202.9,276.6,206.7,287.2z"/>
<path class="st2" d="M586.7,662.8c3.5,10,7,20.1,10.7,30.4c-7.7,0-14.6,0-22.4,0c3.7-10.5,7.2-20.4,10.7-30.4
	C586,662.8,586.3,662.8,586.7,662.8z"/>
<path class="st2" d="M284.1,256.4c0,10.8,0,20.5,0,30.3c0,2.2-1,2.8-3,2.7c-6.1-0.3-12.3-0.5-18.5-0.8
	C263.9,284.8,277,264.9,284.1,256.4z"/>
<path class="st0" d="M442.2,565c-5.2,0-9.1-4.6-8.4-9.5c0.2-1.6,0.9-3.1,1.4-4.7c9.8-27.8,19.6-55.7,29.5-83.5
	c0.4-1.2,0.8-2.4,1.5-3.5c3.5-5.6,10.9-5.5,14.4,0.1c0.9,1.5,1.5,3.3,2.1,5c9.5,26.8,19,53.6,28.4,80.5c0.5,1.4,1,2.7,1.3,4.1
	c1,4.3-1.1,8.2-4.9,9.8c-3.9,1.6-8,0.2-10.3-3.7c-0.7-1.2-1.2-2.6-1.7-4c-1-2.7-2-5.5-2.9-8.2c-2.4-6.8-2.4-6.9-9.3-6.7
	c-8,0.2-16,0.6-23.9,0.6c-2.6,0-3.4,1.2-4.1,3.3c-1.6,4.8-3.3,9.6-5.1,14.3C448.7,562.6,446,564.7,442.2,565z M473.1,493.8
	c-3.8,10.7-7.6,20.6-10.7,31c7.7,0,14.7,0,22.1,0c-3.4-9.7-6.7-19.1-10-28.4C474.3,495.7,473.9,495.1,473.1,493.8z"/>
<path class="st0" d="M541.6,498c6.6-0.5,12.5-0.6,18.4,0.5c8.5,1.7,15.6,5.8,21.5,11.9c9.5,9.9,10.9,30.1-1,41.5
	c-11.4,10.9-33.3,16.6-49.2,3.6c-2.3-1.8-4.4-3.8-5.9-6.4c-2.5-4.2-1.8-8.5,1.7-11.2c3.5-2.7,7.8-2.5,11.3,1c2.6,2.6,5,5.3,8.6,6.4
	c7.6,2.3,14.4,0.5,20.4-4.4c6.5-5.3,6.5-14.8,0.3-20.5c-6.3-5.8-13.8-7.7-22.1-7c-3.8,0.4-7.5,1.2-11.3,1.9c-4.9,0.9-8.1-1-9.5-5.7
	c-0.8-2.6-1.1-5.3-0.7-8c1.1-8.8,2-17.7,3-26.5c0.2-1.6,0.4-3.3,0.7-4.8c1.1-4.7,4.1-7.1,8.9-7.2c12.3-0.1,24.7-0.1,37-0.1
	c1.8,0,3.6,0.1,5.4,0.6c3.6,1.2,5.8,4,5.9,7.6c0.1,3.7-1.9,6.5-5.4,8c-1.9,0.8-3.9,0.8-5.9,0.8c-8.9,0-17.8,0.1-26.7,0
	c-2.7,0-3.8,0.7-3.9,3.6C542.9,488.2,542.2,492.7,541.6,498z"/>
<path class="st3" d="M874.6,944.3c-66-0.1-120.9-45.7-132.6-109c-11.4-61.5,23.4-125.1,81.7-148.9c39.6-16.2,78.9-15,116.6,5.2
	c36.7,19.6,59.3,50.7,67.3,91.6c14.1,72.9-34.3,144.7-110.1,158.9C889.4,943.5,881.3,944.1,874.6,944.3z M874.5,927.3
	c5.4,0.2,11.9-0.4,18.4-1.5c64.5-11.1,106.3-69.6,99.7-129.2c-4.8-43.3-27.3-75-66.6-93.4c-33.8-15.9-68.4-14.8-102,1.5
	c-47.7,23.1-74.5,75.4-65.5,126.8C768.2,887.3,816.2,927.3,874.5,927.3z"/>
<path class="st2" d="M473.1,493.8c0.8,1.3,1.2,1.9,1.4,2.5c3.3,9.4,6.6,18.7,10,28.4c-7.4,0-14.4,0-22.1,0
	C465.5,514.4,469.3,504.5,473.1,493.8z"/>
<path class="st3" d="M849.2,810.8c3.1-2.1,4.6-4,6.2-5.6c21.6-21.8,43.3-43.5,65.5-64.7c1.8-1.7,3.8-3.4,5.8-4.9
	c7.4-5.4,17.4-4.7,23.9,1.8c6.1,6.2,12.3,12.4,18.1,18.9c6.6,7.4,10.5,15.7,7.4,25.9c-1.5,5.1-4.9,8.8-8.5,12.4
	c-19.2,19-38.5,38.1-57.7,57.1c-10.3,10.2-20.5,20.6-30.9,30.7c-4.3,4.2-9,7.9-13.5,11.9c-0.7,0.6-1.4,1.2-2.1,1.7
	c-12,8.6-19.5,8.2-30.7-1.4c-6.4-5.4-12-11.7-17.7-17.7c-10.6-11-21.3-21.9-31.8-32.9c-4.3-4.5-7.9-9.4-11-14.8
	c-3.3-5.7-3.5-11.6,0.2-16.4c9.1-12,18.7-23.7,32.6-30.6c6.5-3.3,12.7-2.2,18.3,2.3c7.8,6.2,14.6,13.7,21.7,20.6
	C846.6,806.8,847.8,808.9,849.2,810.8z M848,883.3c0.5-0.1,1.7-0.3,3-0.6c5.4-1.2,9.4-4.6,13.3-8.2c4.5-4.3,8.6-8.9,12.9-13.3
	c26.9-27.3,54.3-54.1,81.6-81c3.3-3.2,3.7-6.3,1.1-10.1c-0.7-1-1.6-2-2.5-2.9c-4.1-4.3-8.3-8.7-12.5-12.9c-7.9-8-8.8-8-16.7,0.3
	c-26.6,28.1-54.3,55-81.2,82.9c-1.1,1.2-2.3,2.4-3.5,3.4c-3.8,3-8.2,2.9-11.4-0.2c-3-2.9-3.3-7.7-0.4-11.4c1.3-1.7,2.9-3.3,4.6-4.7
	c2.1-1.7,1.8-3-0.1-4.8c-6.6-6.2-13-12.7-19.5-19c-3.8-3.7-6.9-4-11.2-1c-6.8,4.9-12.8,10.7-18,17.3c-2.5,3.2-2.5,4.6-0.1,7.8
	c3,4.3,6.2,8.5,9.9,12.3c13.2,13.3,26.4,26.5,39.5,39.8c1.7,1.7,3.4,3.3,5.4,4.5C843.7,882.6,845.4,883.3,848,883.3z"/>
<path class="st4" d="M90.8,373.6l22,22c5.2,5.2,13.7,5.2,18.9,0l22-22c5.2-5.2,5.2-13.7,0-18.9l-22-22c-5.2-5.2-13.7-5.2-18.9,0
	l-22,22C85.6,359.9,85.6,368.4,90.8,373.6z"/>
<path class="st4" d="M90.8,437.8l22,22c5.2,5.2,13.7,5.2,18.9,0l22-22c5.2-5.2,5.2-13.7,0-18.9l-22-22c-5.2-5.2-13.7-5.2-18.9,0
	l-22,22C85.6,424.1,85.6,432.5,90.8,437.8z"/>
<path class="st3" d="M748.7,951.7l17.3,17.3c2.5,2.5,6.6,2.5,9.1,0l17.3-17.3c2.5-2.5,2.5-6.6,0-9.1l-17.3-17.3
	c-2.5-2.5-6.6-2.5-9.1,0l-17.3,17.3C746.1,945.1,746.1,949.2,748.7,951.7z"/>
<path class="st3" d="M864.2,866.3l17.3,17.3c2.5,2.5,6.6,2.5,9.1,0l17.3-17.3c2.5-2.5,2.5-6.6,0-9.1l-17.3-17.3
	c-2.5-2.5-6.6-2.5-9.1,0l-17.3,17.3C861.6,859.7,861.6,863.8,864.2,866.3z"/>
<circle class="st5" cx="873" cy="809.2" r="171"/>
</svg>
