<?xml version="1.0" encoding="utf-8"?>
<!-- Generator: Adobe Illustrator 28.0.0, SVG Export Plug-In . SVG Version: 6.00 Build 0)  -->
<svg version="1.1" id="Capa_1" xmlns="http://www.w3.org/2000/svg" xmlns:xlink="http://www.w3.org/1999/xlink" x="0px" y="0px"
	 viewBox="0 0 1080 1080" style="enable-background:new 0 0 1080 1080;" xml:space="preserve">
<style type="text/css">
	.st0{fill:#090A0A;}
	.st1{fill:#FFFFFF;}
	.st2{fill:#FCFCFC;}
	.st3{fill:#FF5500;}
	.st4{fill:#6EE1EB;}
	.st5{fill:none;stroke:#FF5500;stroke-width:20;stroke-miterlimit:10;}
</style>
<path class="st0" d="M775.3,660c1.3,0.6,2.1-0.4,3-1c21.7-12.9,44.9-22,70-25.7c15.7-2.3,31.5-2.6,47.3-1
	c35.2,3.7,66.7,16.8,93.9,39.3c36.9,30.4,58.1,69.6,63,117.2c7.8,75.4-34.4,148.6-103.7,180.7c-28.7,13.3-58.9,19.5-90.5,17.2
	c-46.2-3.3-86-21.3-118.1-55c-27.1-28.4-42.5-62.4-46.8-101.4c-1.3-12.1-1.2-24.3,0-36.4c0.1-1.3,0.2-2.5,0.3-3.8
	c0.1-1.3-0.3-2.1-1.8-2.1c-1.3,0-2.5,0-3.8,0c-194.7,0.6-389.4,1.1-584.2,1.7c-10.7,0-21.4,0.2-32-2.1c-5.7-1.3-11-3.6-15.9-6.9
	c-8.4-5.7-12.1-13.9-12-23.7c0.3-77.9,0.7-155.8,1-233.8c0.1-19.1,0.1-38.1,0.1-57.2c0-2-0.2-4,0.5-5.9c1.3-4,4.6-6.4,8.6-6.1
	c3.7,0.3,6.7,2.8,7.5,6.8c0.4,2.3,0.4,4.7,0.4,7C62,561.6,61.7,655.3,61.4,749c0,1.5,0.1,2.9,0,4.4c-0.4,7.8,0.6,11.9,11,16.6
	c4.7,2.1,9.8,2.5,14.9,2.7c5.6,0.2,11.2,0.3,16.9,0.3c195.5-0.6,390.9-1.2,586.4-1.8c6.7,0,6.7,0,8.5-6.5
	c9.7-34.7,28.3-63.8,55.3-87.6c2.7-2.4,3.9-4.6,3.8-8.3c-0.3-82.1-0.4-164.2-0.6-246.3c0-0.7,0-1.5,0-2.2c-0.1-4.1-0.1-4.2-4.3-4.1
	c-18.7,0.2-37.4-0.3-56.1,0.5c-18.4,0.8-34.1-10.1-38.9-27c-1-3.5-1.2-7.1-1.2-10.8c0-20.3,0-40.7,0-61c0-5.1,0.3-4.7-4.7-4.7
	c-52.9,0.2-105.7,0.4-158.6,0.6c-5.1,0-4.9-0.1-4.9,4.6c0.1,8.9,0.2,17.8,0.1,26.7c0,2.7,0.9,3.4,3.5,3.4c6.9-0.1,13.8-0.1,20.7-0.1
	c31.1-0.1,62.1-0.1,93.2-0.2c8.7,0,16.5,2,22.9,8.2c4.5,4.3,7,9.5,7.8,15.7c1,7.8,0.8,15.6,0.8,23.4c0.5,56.9,0.9,113.7,1.4,170.6
	c0.1,6.7-0.4,13.4-2.2,19.9c-3.5,12.3-16.3,22.1-28.6,22c-37.2-0.3-74.5-0.1-111.7,0c-67.9,0.2-135.9,0.4-203.8,0.6
	c-4.5,0-9-0.2-13.4-1.6c-10.8-3.4-17.6-11.3-18.4-22.5c-0.5-6.3-1-12.6-1-19c0.2-63,0.4-126.1,0.4-189.1c0-7.5,2.4-13.8,7.4-19.3
	c4.7-5.3,10.2-8.1,17.6-8.1c39.8,0.1,79.6,0,119.3-0.2c20.7-0.1,41.4-0.3,62.1-0.4c1.1,0,2.2,0,3.3,0c1.6,0,2.2-0.8,2.2-2.4
	c-0.1-1.1,0-2.2,0-3.3c-0.4-40.5-0.7-81-1.1-121.5c0-0.5,0-1.1,0-1.6c-0.6-10.1-1.5-13.5-14.4-16.1c-4.6-0.9-9.4-1-14.1-1
	c-95.7,0.2-191.5,0.6-287.2,0.8c-4.9,0-9.8,0.9-14.5,2.3c-6.8,2-10,6.5-10,13.7c0.4,96.1,0.7,192.2,1.1,288.3
	c0.2,48.3,0.3,96.6,0.4,145c0,2.9,0.1,5.8,0.9,8.6c1.7,6.4,5.9,9.8,12.3,10.5c2.7,0.3,5.4,0.5,8.1,0.5c94.3,0.1,188.5,0.3,282.8,0.3
	c6.7,0,13.4-0.5,20.1-1.1c6.2-0.5,10.3-4.2,12.7-9.7c2.1-4.9,3-10.1,3.6-15.3c0.1-1.1,0-2.2,0.3-3.2c0.8-2.9,2.6-4.8,5.6-5.3
	c3.2-0.6,5.7,0.4,7.6,3.1c1,1.4,1.5,3,1.4,4.6c-0.5,12.1-1.8,24-10.8,33.3c-5.5,5.7-12,8.7-20.1,9.6c-11.6,1.3-23.2,0.8-34.8,0.8
	c-84.6,0.1-169.3,0-253.9,0c-6.7,0-13.4,0.1-20.2,0c-7.2-0.1-14-1.7-20.1-5.7c-7.4-4.8-11.5-11.4-11.9-20.2
	c-0.2-5.6-0.4-11.3-0.4-16.9c-0.4-108.4-0.8-216.9-1.3-325.3c0-7.6,1-6.6-6.7-6.5c-9.8,0-19.6,0.2-29.4,0.3c-3.1,0-6.1,0.3-9.1,1.6
	c-5.9,2.5-7.9,5.3-7.9,11.6c0,8,0,16,0.1,24c0.1,20.5,0.1,41.1,0.2,61.6c0,1.8,0.1,3.7-0.2,5.4c-0.6,4.3-4.1,7.4-8.1,7.4
	c-4,0-7.6-3-8.2-7.3c-0.3-1.8-0.2-3.6-0.2-5.4c-0.1-25.2-0.2-50.5-0.3-75.7c0-2-0.1-4-0.2-6c-0.7-10.9,3.4-19.9,11.1-27.3
	c5.2-5.1,12.2-6.3,19.2-6.4c11.6-0.2,23.2-0.2,34.9-0.3c4.7,0,4.8-0.1,4.7-4.8c-0.2-21.4,0.1-42.9-0.9-64.3
	c-0.4-9.8,0.8-19.3,6.3-27.7c6.1-9.2,14.4-14.4,25.9-14.4c98.3-0.3,196.5-0.6,294.8-0.9c7.3,0,14.5,0.6,21.6,2.1
	c2.1,0.5,4.2,1,6.3,1.7c13.4,4.7,19.9,14.4,19.9,28.5c0,25.1,0.2,50.1,0.4,75.2c0,3.7,0.1,3.7,4.6,3.7c33.1-0.1,66.1-0.3,99.2-0.5
	c22.3-0.1,44.7-0.2,67-0.5c5.5-0.1,9.7,1.6,13.6,5.4c32.4,32.1,64.8,64.1,97.3,96.1c2.8,2.8,3.9,5.9,3.9,9.7c-0.1,18,0,36,0,53.9
	c0.1,64.3,0.2,128.6,0.4,192.9C774.9,656.1,774.5,658.2,775.3,660z M447.4,365c0,0.4,0,0.7,0,1.1c-53.6,0-107.1,0-160.7,0
	c-4.2,0-6.6,1.7-7.9,5.9c-1,3.1-1.2,6.4-1.2,9.7c0,65.5-0.7,131.1,0,196.6c0.1,10.5,2.8,13.3,13.1,13.3
	c93.9-0.1,187.8-0.3,281.6-0.4c11.3,0,22.5,0,33.8-0.1c5.5,0,9.8-2.5,12.8-7c2.6-4,3.9-8.5,3.9-13.4c-0.4-35.8-0.6-71.5-0.9-107.3
	c-0.3-28.1-0.5-56.3-0.9-84.4c-0.1-8.8-5.4-14-13.9-14C553.8,365,500.6,365,447.4,365z M1037.1,806.7c-0.2-14.1-2.3-29.2-6.1-42.6
	c-21.1-75.9-95.6-125.4-177.1-114.6c-38.7,5.1-72.2,21.7-98.9,50.3c-38.7,41.4-53.5,90.3-41.8,146.1c14.5,69.3,76,122.8,154.1,124.5
	c26.2,0.6,51.4-4.5,74.8-16.3C1002.5,923.7,1033.7,874.1,1037.1,806.7z M746.8,399.5c0.2-0.4,0.4-0.7,0.6-1.1
	c-24.1-23.8-48.3-47.7-73.3-72.4c0,2.7,0,4.1,0,5.5c0,16,0,31.9,0,47.9c0,1.3-0.1,2.5,0.1,3.8c0.8,8.5,7.6,16.1,15,16.2
	C708.4,399.6,727.6,399.5,746.8,399.5z"/>
<path class="st0" d="M234.8,317.2c-0.1,4.3-2.5,7.4-5.9,8.5c-3.2,1.1-6.6,0.2-8.8-2.6c-1-1.3-1.7-2.8-2.3-4.3
	c-1.1-2.9-2.1-5.8-3.1-8.7c-2.6-7.3-2.6-7.3-10.1-7.2c-7.6,0.2-15.2,0.6-22.8,0.6c-2.7,0-3.9,0.9-4.6,3.3c-1.3,4.2-2.8,8.2-4.3,12.3
	c-0.6,1.7-1.2,3.4-2.4,4.9c-2.5,3.1-6.3,4-9.8,2.5c-3.4-1.5-5.5-5.1-4.8-8.9c0.4-2.3,1.3-4.5,2.1-6.8c9.5-26.8,18.9-53.6,28.4-80.5
	c0.1-0.2,0.2-0.3,0.2-0.5c2-5.6,4.8-8.2,9-8c4.9,0.2,7.2,3.6,8.7,7.8c9.8,27.7,19.5,55.4,29.3,83
	C234.1,314.5,234.5,316.2,234.8,317.2z M184.2,287.2c7.9,0,14.9,0,22.5,0c-3.7-10.4-7.3-20.5-11.3-31.8
	C191.4,266.7,188,276.5,184.2,287.2z"/>
<path class="st0" d="M625.4,723.6c0,4.2-2.5,7.4-6,8.3c-3.9,1-7.7-0.5-9.5-4.5c-1.8-3.8-3-7.8-4.4-11.7c-2.4-6.8-2.4-6.8-9.8-6.7
	c-7.6,0.1-15.2,0.5-22.8,0.6c-2.8,0-4.3,0.9-5.1,3.6c-1.2,4.2-2.8,8.2-4.2,12.3c-0.6,1.7-1.2,3.4-2.5,4.8c-2.4,2.7-6.2,3.6-9.4,2.3
	c-3-1.2-5-4.3-5.1-7.7c0-2.1,0.7-3.9,1.4-5.8c9.8-27.8,19.6-55.7,29.4-83.5c0.4-1.2,0.9-2.4,1.5-3.5c3.4-5.6,11-5.6,14.4-0.1
	c0.9,1.5,1.5,3.3,2.1,5c9.5,26.8,19,53.6,28.4,80.4C624.6,719.6,625.5,721.6,625.4,723.6z M597.4,693.2
	c-3.7-10.4-7.2-20.4-10.7-30.4c-0.3,0-0.7,0-1,0c-3.5,10-7,19.9-10.7,30.4C582.7,693.2,589.7,693.2,597.4,693.2z"/>
<path class="st0" d="M301.1,259.8c0,8.9,0.1,17.8,0,26.7c0,2.3,0.6,3.3,3,3.1c1.8-0.2,3.6-0.1,5.4,0.1c4.1,0.5,6.9,3.4,7.1,7
	c0.2,3.8-2.6,7.1-6.9,7.8c-1.8,0.3-3.6,0.4-5.4,0.2c-2.8-0.2-3.4,1.1-3.3,3.5c0.1,2.5,0,5.1,0,7.6c0,1.4,0,2.9-0.3,4.3
	c-0.7,4.5-3.8,7.4-7.9,7.5c-4.4,0.1-8-2.8-8.5-7.5c-0.4-3.6-0.1-7.2-0.2-10.9c-0.1-3.7-0.1-3.7-4-3.7c-8.9,0-17.8,0-26.7,0
	c-2.5,0-5.1-0.1-7.6-0.7c-6.1-1.6-9-8.1-6.2-13.7c0.6-1.1,1.3-2.2,2-3.2c14-20.5,28-41,41.9-61.6c2.1-3.1,4.9-4.9,8.7-4.4
	c4.1,0.6,6.8,3.1,8.3,6.9c0.7,1.9,0.7,3.9,0.7,5.9c0,8.3,0,16.7,0,25C301.2,259.8,301.1,259.8,301.1,259.8z M284.2,257.3
	c-0.4-0.1-0.7-0.1-1.1-0.2c-7,10.2-14,20.5-21.4,31.3c6.1,0.3,11.3,0.7,16.5,0.8c6.6,0.1,5.9,0.9,5.9-5.5c0-3.8,0-7.6,0-11.4
	C284.2,267.3,284.2,262.3,284.2,257.3z"/>
<path class="st0" d="M666.5,645.7c-7.7,0-15.5,0-23.2,0c-2.2,0-4.4,0-6.5-0.4c-4.8-0.9-7.6-4.3-7.4-8.6c0.2-4.1,3.1-7.1,7.7-7.9
	c1.1-0.2,2.2-0.2,3.3-0.2c13.8,0.3,27.6,0.6,41.4,0.8c2.8,0.1,5.4,0.8,7.4,2.8c3.4,3.3,3.6,7.8,0.1,12.3c-5,6.4-10.4,12.6-15.5,19
	c-0.7,0.8-1.7,1.4-1.9,2.7c1.1,1.3,2.8,1.1,4.3,1.6c13,4.4,21.8,12.9,24.3,26.8c2.3,12.9-2.6,23.7-12.9,30.9
	c-14,9.7-26.6,9.9-42.3,0.7c-4.5-2.6-7.6-6.7-9.9-11.3c-2.3-4.7-0.9-9.5,3.2-11.8c3.9-2.1,8.3-0.8,11.3,3.5
	c6.4,9.1,15.1,11.5,25.1,6.9c7.9-3.6,11.5-12.8,7.7-20.5c-2.3-4.6-5.8-8.4-11-10c-4.7-1.4-9.4-2.5-14.4-1.4
	c-3.8,0.9-6.8-0.6-8.9-3.8c-2.2-3.4-2.2-6.9,0-10.2c2.8-4.2,6.4-7.9,10-11.5c2.9-3,5.8-5.9,8.7-8.9
	C666.8,646.7,666.7,646.2,666.5,645.7z"/>
<path class="st1" d="M447.4,365c53.2,0,106.4,0,159.6,0c8.4,0,13.8,5.2,13.9,14c0.3,28.1,0.6,56.3,0.9,84.4
	c0.3,35.8,0.6,71.5,0.9,107.3c0,4.9-1.2,9.4-3.9,13.4c-3,4.5-7.3,7-12.8,7c-11.3,0-22.5,0-33.8,0.1c-93.9,0.1-187.8,0.3-281.6,0.4
	c-10.3,0-13-2.8-13.1-13.3c-0.6-65.5,0-131.1,0-196.6c0-3.3,0.2-6.5,1.2-9.7c1.3-4.2,3.7-5.9,7.9-5.9c53.6,0,107.1,0,160.7,0
	C447.4,365.8,447.4,365.4,447.4,365z M504.2,563.9c5.1,0,9.2-4.6,8.4-9.5c-0.3-1.8-1-3.5-1.6-5.2c-9.5-26.8-18.9-53.7-28.4-80.5
	c-0.5-1.5-1-3.1-1.8-4.5c-1.6-2.9-4.1-4.6-7.5-4.6c-3.3,0.1-5.9,1.7-7.4,4.7c-0.5,1-0.8,2-1.2,3c-9.8,27.7-19.5,55.3-29.3,83
	c-0.5,1.5-1.1,3.1-1.4,4.7c-0.8,4,1.3,7.7,5,9.2c3.7,1.5,7.7,0.4,10-3.2c0.9-1.3,1.4-2.9,2-4.4c1.5-4.3,3-8.5,4.5-12.8
	c0.5-1.4,1.1-2.5,3-2.6c9.6-0.1,19.2-0.3,28.8-0.6c2.4-0.1,3.5,0.9,4.2,3.2c1.5,4.7,3.2,9.2,4.9,13.8
	C497.7,561.5,500.4,563.6,504.2,563.9z M541.6,498c0.5-4.7,0.9-8.7,1.4-12.6c0.7-5.2,0.7-5.2,6.2-5.2c8.2,0,16.3,0,24.5-0.1
	c2,0,4,0,5.9-0.8c3.6-1.4,5.6-4.2,5.5-7.9c-0.1-3.6-2.2-6.5-5.8-7.7c-2.1-0.7-4.3-0.7-6.5-0.6c-11.1,0.1-22.1,0.3-33.2,0.2
	c-8.5-0.1-11.3,1.9-12.3,10.1c-1.2,9.7-2.2,19.5-3.3,29.2c-0.3,2.2,0.1,4.3,0.7,6.4c1.5,5.4,4.6,7.3,10.1,6.2
	c3.6-0.7,7.1-1.5,10.7-1.8c8.5-0.8,16.2,1.2,22.5,7.3c5.7,5.4,5.7,14.6-0.2,19.7c-6,5.2-13,7-20.8,4.8c-3.6-1-6.1-3.7-8.7-6.3
	c-3.4-3.5-7.8-3.8-11.3-1.1c-3.6,2.8-4.2,7.3-1.5,11.7c1.6,2.5,3.7,4.5,6,6.3c15.9,12.6,37.5,6.8,48.8-3.8c12-11.3,10.5-31.6,1-41.5
	c-5.9-6.2-13-10.2-21.5-12C554.2,497.4,548.2,497.5,541.6,498z"/>
<path class="st2" d="M746.8,399.5c-19.2,0-38.4,0.1-57.6-0.1c-7.4-0.1-14.2-7.6-15-16.2c-0.1-1.3-0.1-2.5-0.1-3.8
	c0-16,0-31.9,0-47.9c0-1.4,0-2.8,0-5.5c25,24.7,49.2,48.5,73.3,72.4C747.2,398.8,747,399.1,746.8,399.5z"/>
<path class="st2" d="M184.2,287.2c3.8-10.7,7.2-20.5,11.2-31.8c4,11.3,7.6,21.4,11.3,31.8C199.1,287.2,192.1,287.2,184.2,287.2z"/>
<path class="st2" d="M597.4,693.2c-7.7,0-14.7,0-22.4,0c3.7-10.5,7.2-20.5,10.7-30.4c0.3,0,0.7,0,1,0
	C590.2,672.8,593.7,682.9,597.4,693.2z"/>
<path class="st2" d="M284.2,257.3c0,5,0,10,0,15c0,3.8,0,7.6,0,11.4c-0.1,6.4,0.7,5.7-5.9,5.5c-5.2-0.1-10.4-0.5-16.5-0.8
	c7.4-10.8,14.4-21.1,21.4-31.3C283.4,257.2,283.8,257.3,284.2,257.3z"/>
<path class="st0" d="M504.2,563.9c-3.8-0.3-6.5-2.4-7.9-6.2c-1.7-4.6-3.5-9.2-4.9-13.8c-0.7-2.3-1.8-3.3-4.2-3.2
	c-9.6,0.3-19.2,0.5-28.8,0.6c-1.9,0-2.5,1.2-3,2.6c-1.5,4.3-3,8.6-4.5,12.8c-0.6,1.5-1.1,3.1-2,4.4c-2.3,3.5-6.3,4.7-10,3.2
	c-3.7-1.5-5.7-5.2-5-9.2c0.3-1.6,0.9-3.1,1.4-4.7c9.8-27.7,19.5-55.4,29.3-83c0.4-1,0.7-2.1,1.2-3c1.6-3,4.1-4.6,7.4-4.7
	c3.4-0.1,5.9,1.6,7.5,4.6c0.8,1.4,1.3,3,1.8,4.5c9.5,26.8,18.9,53.6,28.4,80.5c0.6,1.7,1.3,3.4,1.6,5.2
	C513.3,559.3,509.3,563.9,504.2,563.9z M484.6,524.7c-3.7-10.5-7.3-20.4-10.8-30.4c-0.3,0-0.6,0.1-0.9,0.1c-3.5,10-7,19.9-10.7,30.4
	C469.9,524.7,476.9,524.7,484.6,524.7z"/>
<path class="st0" d="M541.6,498c6.6-0.5,12.5-0.7,18.5,0.5c8.5,1.7,15.6,5.8,21.5,12c9.5,9.9,10.9,30.1-1,41.5
	c-11.3,10.7-32.9,16.5-48.8,3.8c-2.3-1.8-4.4-3.8-6-6.3c-2.7-4.4-2.2-8.8,1.5-11.7c3.5-2.7,7.8-2.4,11.3,1.1c2.6,2.6,5,5.3,8.7,6.3
	c7.8,2.2,14.8,0.4,20.8-4.8c5.9-5.1,5.8-14.3,0.2-19.7c-6.3-6.1-14-8.1-22.5-7.3c-3.6,0.3-7.2,1.1-10.7,1.8
	c-5.5,1.1-8.6-0.8-10.1-6.2c-0.6-2.1-1-4.2-0.7-6.4c1.1-9.7,2.1-19.5,3.3-29.2c1-8.2,3.8-10.2,12.3-10.1c11.1,0.1,22.1-0.1,33.2-0.2
	c2.2,0,4.4-0.1,6.5,0.6c3.6,1.2,5.8,4,5.8,7.7c0.1,3.7-1.9,6.5-5.5,7.9c-1.9,0.8-3.9,0.8-5.9,0.8c-8.2,0-16.3,0-24.5,0.1
	c-5.5,0-5.5,0-6.2,5.2C542.6,489.3,542.1,493.3,541.6,498z"/>
<path class="st3" d="M874.6,944.3c-66,0-120.9-45.7-132.6-109c-11.4-61.5,23.4-125.1,81.7-148.9c39.6-16.2,78.9-15,116.6,5.2
	c36.7,19.6,59.3,50.6,67.3,91.6c14.1,72.9-34.3,144.7-110.1,158.9C889.5,943.5,881.3,944.1,874.6,944.3z M876.7,692.4
	c-23.8,0-46.4,6.8-66.2,20c-49.1,32.5-67.4,96.2-42.8,148.4c28.5,60.3,100.5,83.5,159.5,53.8c48.3-24.3,74.6-77.7,63.9-129.5
	C979.9,730.7,932.5,692.3,876.7,692.4z"/>
<path class="st2" d="M484.6,524.7c-7.7,0-14.7,0-22.4,0c3.7-10.4,7.2-20.4,10.7-30.4c0.3,0,0.6-0.1,0.9-0.1
	C477.3,504.3,480.9,514.3,484.6,524.7z"/>
<path class="st3" d="M875.4,856.8c-8.2,8.4-15.6,16.1-23.1,23.8c-2.8,2.9-5.6,5.6-8.9,8c-4.1,2.9-8.3,3.2-12.8,0.8
	c-2.4-1.3-4.6-2.8-6.6-4.7c-9.1-8.9-18.2-17.8-27.2-26.7c-6.2-6.2-6.7-10.5-2.3-17.9c2-3.3,4.4-6.2,7.1-8.9
	c6.7-6.9,13.4-13.8,20.1-20.7c1.1-1.1,2.6-2,3.1-4.2c-7.5-7.3-15.2-14.8-22.8-22.2c-2.9-2.8-5.6-5.7-7.9-9c-2.7-4-2.9-8.1-0.7-12.3
	c1.2-2.4,2.8-4.7,4.7-6.6c8.9-9,17.8-18.1,26.8-27.2c6.4-6.4,10.6-6.9,18.4-2.2c3.1,1.9,5.9,4.2,8.5,6.8c7.1,7,14.4,13.9,21.4,21
	c2.1,2.1,3.3,1.9,5.2-0.1c7.3-7.6,14.7-15.1,22.1-22.6c2.8-2.9,5.7-5.6,9-7.9c4-2.7,8-2.9,12.3-0.8c2.5,1.2,4.7,2.7,6.6,4.7
	c9.2,9.1,18.4,18.1,27.5,27.2c6,6,6.4,10.2,2.2,17.5c-1.9,3.3-4.4,6.2-7.1,9c-7.5,7.6-15,15.3-22.5,22.9c-2.9,3-2.9,3-0.1,5.9
	c8.3,8.4,16.6,16.7,25,25.1c0.3,0.3,0.5,0.5,0.8,0.8c7.3,8.2,7.3,14.5-0.4,22.4c-9.4,9.6-18.9,19.1-28.5,28.5
	c-5.3,5.2-9.7,5.6-16.2,1.8c-3.7-2.1-6.9-4.7-9.8-7.7C891.4,873.1,883.7,865.2,875.4,856.8z M939.1,847.2c0-1.9-1.2-3.4-2.4-4.7
	c-2.5-2.6-5.1-5.2-7.7-7.8c-6.4-6.4-12.9-12.8-19.3-19.2c-4.5-4.6-4.6-7.5-1.5-13.1c2.2-3.9,5.2-7,8.2-10.1c7-7.1,14-14.2,21-21.4
	c4.2-4.3,4.1-6.3,0-10.5c-4.8-4.7-9.6-9.4-14.3-14.2c-6.1-6-7.1-6-13.2,0.1c-8.2,8.3-16.3,16.6-24.5,24.8
	c-5.8,5.8-12.8,5.9-18.8,0.4c-1.9-1.7-3.6-3.5-5.5-5.3c-6.8-6.6-13.5-13.3-20.3-19.8c-3.9-3.8-5.9-3.7-9.7,0.1
	c-5.4,5.4-10.7,10.8-16,16.3c-3.8,3.9-3.8,5.8-0.2,9.7c3,3.2,6.2,6.1,9.3,9.2c6,5.8,12,11.6,17.9,17.5c3.8,3.8,4.6,7.5,2.4,11.2
	c-0.9,1.5-2.2,2.9-3.4,4.2c-8.3,8.6-16.7,17.2-25,25.8c-1.1,1.2-2.3,2.4-3.1,3.7c-1.2,2-1.4,4.1,0.5,6c6.4,6.2,12.6,12.5,19.1,18.7
	c2.4,2.2,4.2,2.1,6.8,0.2c1.3-1,2.5-2.2,3.6-3.3c7.4-7.5,14.9-14.9,22-22.7c6.1-6.7,10.8-9.3,20.1-0.2c0.6,0.6,1.3,1.3,1.9,1.9
	c7.2,7.2,14.4,14.4,21.6,21.5c1,1,2,2.1,3.2,3c2.8,2,4.9,2.1,7.3-0.3c6.1-5.9,12.1-12,18.1-18.1C938.2,850,939.1,848.8,939.1,847.2z
	"/>
<path class="st4" d="M90.8,372.6l22,22c5.2,5.2,13.7,5.2,18.9,0l22-22c5.2-5.2,5.2-13.7,0-18.9l-22-22c-5.2-5.2-13.7-5.2-18.9,0
	l-22,22C85.6,358.9,85.6,367.4,90.8,372.6z"/>
<path class="st4" d="M90.8,436.7l22,22c5.2,5.2,13.7,5.2,18.9,0l22-22c5.2-5.2,5.2-13.7,0-18.9l-22-22c-5.2-5.2-13.7-5.2-18.9,0
	l-22,22C85.6,423,85.6,431.5,90.8,436.7z"/>
<path class="st3" d="M748.7,950.7l17.3,17.3c2.5,2.5,6.6,2.5,9.1,0l17.3-17.3c2.5-2.5,2.5-6.6,0-9.1l-17.3-17.3
	c-2.5-2.5-6.6-2.5-9.1,0l-17.3,17.3C746.1,944.1,746.1,948.2,748.7,950.7z"/>
<circle class="st5" cx="873.2" cy="809.9" r="171"/>
</svg>
