<?xml version="1.0" encoding="utf-8"?>
<!-- Generator: Adobe Illustrator 28.0.0, SVG Export Plug-In . SVG Version: 6.00 Build 0)  -->
<svg version="1.1" id="Capa_1" xmlns="http://www.w3.org/2000/svg" xmlns:xlink="http://www.w3.org/1999/xlink" x="0px" y="0px"
	 viewBox="0 0 1080 1080" style="enable-background:new 0 0 1080 1080;" xml:space="preserve">
<style type="text/css">
	.st0{fill:#090A0A;}
	.st1{fill:#FFFFFF;}
	.st2{fill:#FCFCFC;}
	.st3{fill:#FF5500;}
	.st4{fill:#6EE1EB;}
	.st5{fill:none;stroke:#FF5500;stroke-width:19;stroke-miterlimit:10;}
</style>
<path class="st0" d="M709.2,859.7c-1.4,0.9-2.8,1.8-4.3,2.7c-47,30.3-98.1,50.4-153,60.6c-32.9,6.1-66.1,8.3-99.4,6.1
	C341,921.7,245.9,878,168.1,797.7c-54.9-56.7-90.7-124.2-108.5-201c-9.3-40-12.6-80.5-9.8-121.5c6.3-92.1,38.5-174,97.9-244.7
	c61.3-73,139.1-119.4,232.2-140.3c30.9-6.9,62.3-10.5,94-9.7c123.7,3,228,49.7,311.8,140.6c52.3,56.7,85.8,123.5,101.9,198.9
	c8.8,40.8,11.4,82.1,7.8,123.7c-2.3,26.6-6.9,52.7-14,78.4c-0.2,0.7-0.4,1.3-0.6,2c-0.5,1.6-0.1,2.7,1.8,2.7c0.9,0,1.7,0.2,2.6,0.2
	c15.6,0.3,30.3,4.8,44.5,10.5c52.7,21,87.6,58.8,101.3,113.9c14,56.5,0.3,107.4-37.8,151.1c-28.3,32.5-64.6,51.6-107.5,56.8
	c-55.5,6.7-103.4-9.9-143.1-49.5c-13.5-13.5-23.8-29.3-31.7-46.8C710.5,861.9,710.3,860.7,709.2,859.7z M725.3,702.7
	c1.6-2.2,2.6-3.6,3.6-5c11.2-15.5,24.6-28.8,40.2-39.8c27-18.9,57.1-29.3,90.1-31.6c4.7-0.3,4.8-0.4,6-4.9
	c15.7-55.1,19.8-111,12.3-167.8c-5.8-43.6-18.5-85.2-37.6-124.8c-65-135.2-201.6-225.6-351.4-232.2c-33.7-1.5-67.2,1-100.3,7.9
	c-70,14.5-132.1,45-185.7,92.2C107.2,280.9,57.3,402.5,65.7,529.3c0.6,8.5,1.3,17,2.6,25.5c0.3,1.8,0.8,2.9,2.8,2.6
	c1.2-0.1,2.4,0,3.6,0c62.3,0.1,124.6,0.1,186.9,0.2c2,0,4.1,0,6.1,0.3c3.5,0.6,5.8,2.7,6.7,6.2c1,4.1,1,4.2,5,4.2
	c18.3,0.2,36.5,0.3,54.8,0.6c2.7,0,4.4-1,6.1-2.9c9.9-10.9,19.9-21.6,29.8-32.4c21.5-23.4,43-46.7,64.5-70.1c1.5-1.6,2.8-3,2.2-5.7
	c-4.3-23.1-8.4-46.3-12.5-69.5c-6.3-35.4-12.5-70.9-18.9-106.3c-5.4-29.9-10.3-59.8-16.2-89.6c-1-5,0.7-8.3,5.6-10
	c3.5-1.2,7.2-2.1,10.8-3c45.9-11.7,92.6-16.5,139.9-17.1c36.4-0.4,72.7,2.2,108.6,8.1c19.7,3.2,39.2,7.5,58.3,13.2
	c6.8,2,9.3,6.2,8.3,13.1c-4.1,26.8-8.1,53.6-12.2,80.4c-5.6,36.9-11.3,73.8-17,110.8c-5.1,33.2-10.2,66.4-15.2,99.6
	c-0.6,4.1-1.8,8.2-1.4,12.6c4.3,0.3,8.4,0.5,12.5,0.9c8.7,0.8,16.1,4.4,22.1,10.6c17.8,18.5,19.1,49.8-1.2,69.7
	c-1.3,1.2-3,2.1-3.7,3.9c12.4,8.2,19.2,15.8,24.1,26.7c3.2,7,4.2,14.4,2.9,22c-1.7,9.7-6.5,17.8-12.8,25.2
	c-4.4,5.2-9.6,9.6-15.7,13.2C713.2,680.7,721,690,725.3,702.7z M440.9,481.1c-2.1,0.8-2.9,2.2-3.9,3.3
	c-23.1,25.1-46.3,50.2-69.4,75.3c-5.8,6.3-12.1,12.2-17.1,19c-3.5,4.8-7.3,6.4-12.9,6.2c-19.1-0.4-38.2-0.6-57.3-0.8
	c-1.2,0-2.4,0-3.6,0c-1.4-0.1-2.3,0.5-2.2,2c0,1,0,2,0,3.1c-0.8,52.9-1.6,105.8-2.4,158.7c-0.2,11.9-0.4,23.9-0.6,35.8
	c-0.1,5.1,0,4.2,3.9,4.5c7.6,0.7,15.3,1.2,23,1.8c14.2,1.1,27.4,5.1,39.5,12.8c7,4.5,14.1,8.9,21.4,13c14.4,7.9,29.6,12.3,46.4,12.4
	c87.7,0,175.5,0.6,263.2,0.7c11.6,0,20.7-5.8,27.6-15.1c0.9-1.2,1.2-2.4,1.1-3.8c-1.1-10.2-0.6-20.5,0.2-30.7
	c0.2-2.4-0.6-4.3-2.1-6.1c-4-5-8.5-9.2-14.9-11.2c-4.4-1.4-5.8-4.2-4.9-8.2c0.7-3.2,2.5-5.6,5.6-6.8c1.7-0.7,3.5-1.2,5.3-1.9
	c12.9-4.8,20.6-14.2,23.7-27.4c0.9-3.7,0.7-7.4-0.6-11.1c-4.2-11.7-11.5-20.8-22.4-26.9c-1-0.6-2.1-1.1-3.1-1.8
	c-5.5-3.9-5-11.7,1-14.7c1.1-0.5,2.2-0.9,3.3-1.3c10.8-4.5,19-11.8,24.5-22.2c4.3-8.2,4.3-16.3-0.4-24.4
	c-6.6-11.5-15.6-19.7-29.2-21.9c-3.6-0.6-6-3.2-6.4-6.4c-0.4-3.4,0.9-6.1,3.8-7.8c1.9-1.1,4-1.9,6-2.7c2.7-1,5.4-2.2,7.7-4
	c18.8-15,14.1-40.1,3.1-51.5c-2.8-2.9-6.1-4.5-10.4-4.5c-15.2-0.1-30.4-0.5-45.6-0.8c-52.7-1.1-105.5-2.2-158.2-3.4
	c-9.4-0.2-18.8-0.5-28.2-0.7c-3.5-0.1-6.4-1.1-8.1-4.4c-0.8-1.7-1.4-3.5-2-5.3C443.2,495.3,442.2,488.4,440.9,481.1z M71.7,573.6
	c-0.6,2.4,0.3,4.7,0.8,7c19.5,96.1,67,175.6,141.8,239c6,5,11.9,8.1,19.7,7.1c1.5-0.2,3.1,0,4.6,0c4.4,0,8.9,0,13.3,0.1
	c2.2,0.1,3.2-0.6,3-2.9c-0.1-1,0-2,0-3.1c0.4-27,0.8-53.9,1.2-80.9c0.9-53.9,1.7-107.8,2.6-161.8c0.1-4.1,0.9-4.6-4.3-4.5
	c-0.3,0-0.7,0-1,0c-58.9-0.1-117.8-0.3-176.6-0.4C75.1,573.2,73.4,572.8,71.7,573.6z M576.4,498c2.8,0.2,4.4,0.4,6,0.4
	c15.5,0.3,31.1,0.7,46.6,1c4.4,0.1,4.4,0.1,5-4.2c2.6-17.2,5.2-34.4,7.8-51.6c4.3-28.2,8.5-56.3,12.7-84.5
	c3.6-23.6,7.2-47.2,10.7-70.8c1.5-9.9,3-19.9,4.5-29.8c0.6-4,0.5-4.1-3.1-5.6c-1.6-0.7-3.1-1.4-4.7-2.1c-9.6-4.7-17.5-11.2-23-20.4
	c-3.5-5.9-6.7-12-8.3-18.6c-1-3.9-3-5.3-6.7-5.3c-1.2,0-2.4-0.2-3.6-0.2c-12.4-0.9-24.9-1.7-37.3-2.7c-28.2-2.3-56.3-1.4-84.4,0.9
	c-5.5,0.4-5.4,0.6-7,6c-5.3,17.5-14.7,31.7-31.5,40.3c-3.5,1.8-6.9,3.7-10.7,4.8c-2.1,0.6-2.8,1.6-2.4,4c2,12.3,3.7,24.6,5.5,36.9
	c3.5,24,7.1,47.9,10.7,71.8c3.9,26.5,7.9,53,11.8,79.4c2.2,15,4.5,30,6.7,45c0.4,2.6,1.3,3.7,4.1,3.7c14.5,0.2,29,0.5,43.5,0.8
	c0.6,0,1.3,0.3,1.7-0.5c-0.4-1.1-1.6-1.1-2.4-1.5c-16-6.5-28.4-17.3-37.3-32.1c-19.2-31.9-15.3-74.4,9.4-103.1
	c15.1-17.5,34.1-27.8,57.3-28.6c27.1-0.9,48.7,10.4,64.3,32.5c14.3,20.3,18.5,43.1,13.4,67.3c-6,28.4-21.8,49.6-48.2,62.4
	C584.4,495,580.9,496.2,576.4,498z M246.6,842.4c-0.1,0.3-0.1,0.6-0.2,0.9c0.5,0.4,1.1,0.8,1.6,1.2c65.1,43.2,136.7,66.3,214.7,69.3
	c27.7,1,55.2-1,82.6-5.7c55.9-9.7,107.4-30.2,154.7-61.4c0.7-0.5,1.4-1,2.1-1.4c1.2-0.7,1.7-1.6,1.2-3c-0.9-3-1.8-6.1-2.6-9.1
	c-1.7,0.1-2.4,1.2-3.4,1.8c-8.1,4.8-16.2,9.3-26,9.9c-4.5,0.3-8.9-0.2-13.3-0.2c-58.7-0.1-117.4-0.3-176.2-0.5
	c-25.3-0.1-50.5-0.4-75.8-0.2c-20.5,0.1-39.4-5.3-57-15.7c-6.8-4-13.5-8.1-20.1-12.3c-7.5-4.7-15.5-8-24.2-9.3
	c-11.1-1.7-22.3-2.4-33.4-2.7c-0.8,1.7-0.4,3.3-0.5,4.8c-0.2,7.3-0.3,14.7-0.5,22c-0.2,7.7-4,11.4-11.9,11.5
	C254.7,842.4,250.6,842.4,246.6,842.4z M869.6,641.7c-8.2,0.4-16.2,0.7-24.1,2c-40,6.6-73.1,25.3-98.8,56.8
	c-36.7,45-44.3,107.3-19.9,158.8c27.7,58.5,91.1,94.1,159.8,84c43.4-6.4,78.9-27.2,104.4-63c32.7-46,39.8-96.4,16.9-148.3
	C981.6,672.7,933.1,645,869.6,641.7z M649.2,500.1c2.7,0,4.8-0.1,6.8,0c2.1,0.2,2.7-0.8,2.8-2.6c0-0.8,0.4-1.7,0.5-2.5
	c3.5-22.8,6.9-45.5,10.4-68.3c5.6-36.9,11.2-73.9,16.8-110.8c5.8-38.1,11.6-76.2,17.4-114.3c0.6-3.8,0.5-3.8-3-4.8
	c-1-0.3-2-0.6-2.9-0.9c-41.9-11.1-84.7-16.3-128-17.5c-30.9-0.8-61.8,0.3-92.5,4c-22.5,2.7-44.9,6.5-66.9,12.1
	c-4.5,1.1-4.5,1.2-3.6,5.8c1.9,10.7,3.9,21.5,5.8,32.2c5.6,31.6,11.2,63.1,16.8,94.7c6.4,35.8,12.7,71.5,19.1,107.3
	c3.4,19.3,6.9,38.6,10.2,57.9c0.5,2.8,1.6,3.9,4.3,3.6c1-0.1,2.1,0.3,3-0.7c-0.1-0.9-0.1-2-0.2-3c-2.5-16.9-5-33.7-7.5-50.6
	c-3.9-26.5-7.9-53-11.9-79.5c-3.6-24-7.1-47.9-10.7-71.9c-1.8-12-3.6-23.9-5.4-35.9c-0.8-5.3,0.7-8.1,5.5-10.3
	c3.1-1.4,6.2-2.7,9.4-3.9c12.7-4.9,22.7-12.9,28.9-25.3c2.5-4.9,4.6-9.9,5.4-15.4c0.8-5.9,4.7-8.7,10.2-9.9
	c5.5-1.1,11.2-1.6,16.8-1.9c25.2-1.5,50.5-2,75.7-0.2c17.2,1.2,34.3,3.3,51.4,5.6c5.7,0.8,9.3,3.7,10.7,9.4c1.1,4.5,2.8,8.8,4.7,13
	c4.8,10.7,12.1,18.9,23,23.6c2.8,1.2,5.7,2.2,8.6,3.3c4.6,1.8,6.1,4.1,5.9,9c-0.1,1.9-0.2,3.8-0.5,5.6c-3.1,20.6-6.2,41.1-9.3,61.7
	c-4,26.3-8,52.6-12,78.9c-3.9,26-7.9,51.9-11.8,77.9C651.6,483.5,650.5,491.4,649.2,500.1z M495.2,418.8c0,11.5,2.6,22.4,7.8,32.6
	c16.2,31.5,53.4,42.5,83.8,24.8c34.4-20.1,45.9-68,24.3-101.5c-17.9-27.6-52.6-36.1-80.8-19.1C506.7,369.9,496.1,391.8,495.2,418.8z
	"/>
<path class="st1" d="M725.3,702.7c-4.3-12.7-12.1-22.1-22.2-30.3c6.1-3.6,11.3-8,15.7-13.2c6.3-7.4,11.1-15.5,12.8-25.2
	c1.3-7.6,0.3-14.9-2.9-22c-4.9-10.9-11.8-18.5-24.1-26.7c0.7-1.8,2.4-2.7,3.7-3.9c20.3-19.9,18.9-51.2,1.2-69.7
	c-6-6.3-13.4-9.9-22.1-10.6c-4.1-0.4-8.1-0.6-12.5-0.9c-0.4-4.4,0.8-8.5,1.4-12.6c5-33.2,10.1-66.4,15.2-99.6
	c5.7-36.9,11.3-73.8,17-110.8c4.1-26.8,8.2-53.6,12.2-80.4c1.1-7-1.5-11.1-8.3-13.1c-19.1-5.7-38.6-10-58.3-13.2
	c-36-5.9-72.2-8.5-108.6-8.1c-47.2,0.6-94,5.5-139.9,17.1c-3.6,0.9-7.3,1.8-10.8,3c-4.9,1.7-6.6,5-5.6,10
	c6,29.8,10.8,59.7,16.2,89.6c6.4,35.4,12.6,70.9,18.9,106.3c4.1,23.2,8.2,46.3,12.5,69.5c0.5,2.7-0.7,4.1-2.2,5.7
	c-21.5,23.4-43,46.7-64.5,70.1c-9.9,10.8-19.9,21.6-29.8,32.4c-1.7,1.9-3.4,2.9-6.1,2.9c-18.3-0.3-36.5-0.4-54.8-0.6
	c-4,0-4-0.1-5-4.2c-0.9-3.6-3.2-5.6-6.7-6.2c-2-0.3-4.1-0.3-6.1-0.3c-62.3-0.1-124.6-0.2-186.9-0.2c-1.2,0-2.4-0.1-3.6,0
	c-2.1,0.2-2.6-0.8-2.8-2.6c-1.3-8.4-2-17-2.6-25.5c-8.4-126.8,41.5-248.4,136.9-332.5c53.6-47.2,115.7-77.7,185.7-92.2
	c33.1-6.9,66.5-9.3,100.3-7.9c149.8,6.6,286.4,96.9,351.4,232.2c19.1,39.7,31.8,81.2,37.6,124.8c7.5,56.7,3.5,112.7-12.3,167.8
	c-1.3,4.5-1.3,4.6-6,4.9c-32.9,2.2-63,12.7-90.1,31.6c-15.6,10.9-29.1,24.2-40.2,39.8C727.9,699.1,726.9,700.5,725.3,702.7z"/>
<path class="st1" d="M440.9,481.1c1.4,7.3,2.4,14.2,4.6,20.8c0.6,1.8,1.1,3.6,2,5.3c1.6,3.3,4.6,4.3,8.1,4.4
	c9.4,0.2,18.8,0.5,28.2,0.7c52.7,1.1,105.5,2.3,158.2,3.4c15.2,0.3,30.4,0.7,45.6,0.8c4.3,0,7.6,1.6,10.4,4.5
	c11,11.4,15.7,36.5-3.1,51.5c-2.3,1.8-4.9,3-7.7,4c-2.1,0.8-4.2,1.6-6,2.7c-2.9,1.7-4.2,4.5-3.8,7.8c0.4,3.2,2.8,5.8,6.4,6.4
	c13.6,2.3,22.6,10.5,29.2,21.9c4.7,8.1,4.7,16.2,0.4,24.4c-5.5,10.4-13.7,17.7-24.5,22.2c-1.1,0.5-2.3,0.8-3.3,1.3
	c-5.9,3.1-6.4,10.8-1,14.7c1,0.7,2.1,1.2,3.1,1.8c10.9,6.1,18.2,15.2,22.4,26.9c1.3,3.7,1.5,7.4,0.6,11.1
	c-3.2,13.2-10.8,22.6-23.7,27.4c-1.8,0.7-3.6,1.2-5.3,1.9c-3.1,1.2-5,3.5-5.6,6.8c-0.8,4.1,0.5,6.8,4.9,8.2
	c6.3,2.1,10.8,6.3,14.9,11.2c1.5,1.8,2.2,3.6,2.1,6.1c-0.8,10.2-1.3,20.4-0.2,30.7c0.2,1.4-0.2,2.7-1.1,3.8
	c-6.9,9.3-16,15.1-27.6,15.1c-87.7-0.1-175.5-0.7-263.2-0.7c-16.8,0-32-4.4-46.4-12.4c-7.3-4-14.4-8.5-21.4-13
	c-12.1-7.7-25.3-11.7-39.5-12.8c-7.7-0.6-15.3-1.1-23-1.8c-3.9-0.3-4,0.6-3.9-4.5c0.2-11.9,0.4-23.9,0.6-35.8
	c0.8-52.9,1.6-105.8,2.4-158.7c0-1,0.1-2,0-3.1c-0.1-1.6,0.8-2.1,2.2-2c1.2,0,2.4,0,3.6,0c19.1,0.3,38.2,0.4,57.3,0.8
	c5.6,0.1,9.4-1.4,12.9-6.2c5-6.9,11.3-12.7,17.1-19c23.1-25.1,46.2-50.2,69.4-75.3C437.9,483.3,438.8,481.9,440.9,481.1z"/>
<path class="st1" d="M71.7,573.6c1.7-0.7,3.5-0.4,5.1-0.4c58.9,0.1,117.8,0.3,176.6,0.4c0.3,0,0.7,0,1,0c5.2-0.1,4.4,0.4,4.3,4.5
	c-0.9,53.9-1.7,107.8-2.6,161.8c-0.4,27-0.8,53.9-1.2,80.9c0,1-0.1,2.1,0,3.1c0.2,2.3-0.9,2.9-3,2.9c-4.4-0.1-8.9-0.1-13.3-0.1
	c-1.5,0-3.1-0.2-4.6,0c-7.8,1.1-13.8-2-19.7-7.1C139.5,756.1,92,676.7,72.5,580.5C72,578.2,71.1,576,71.7,573.6z"/>
<path class="st2" d="M576.4,498c4.5-1.8,8.1-3,11.4-4.6c26.4-12.8,42.2-34,48.2-62.4c5.1-24.2,0.9-47-13.4-67.3
	c-15.5-22-37.2-33.4-64.3-32.5c-23.2,0.8-42.2,11.1-57.3,28.6c-24.7,28.7-28.6,71.2-9.4,103.1c8.9,14.8,21.3,25.6,37.3,32.1
	c0.8,0.3,2,0.4,2.4,1.5c-0.4,0.8-1.1,0.6-1.7,0.5c-14.5-0.3-29-0.6-43.5-0.8c-2.8,0-3.7-1.1-4.1-3.7c-2.1-15-4.4-30-6.7-45
	c-4-26.5-7.9-53-11.8-79.4c-3.6-23.9-7.1-47.9-10.7-71.8c-1.8-12.3-3.5-24.6-5.5-36.9c-0.4-2.5,0.3-3.4,2.4-4
	c3.8-1.1,7.2-3,10.7-4.8c16.8-8.6,26.2-22.8,31.5-40.3c1.6-5.4,1.6-5.6,7-6c28.1-2.3,56.2-3.2,84.4-0.9c12.4,1,24.8,1.8,37.3,2.7
	c1.2,0.1,2.4,0.2,3.6,0.2c3.7,0,5.7,1.4,6.7,5.3c1.6,6.6,4.8,12.7,8.3,18.6c5.5,9.3,13.4,15.8,23,20.4c1.5,0.7,3.1,1.4,4.7,2.1
	c3.6,1.6,3.7,1.6,3.1,5.6c-1.5,10-3,19.9-4.5,29.8c-3.6,23.6-7.2,47.2-10.7,70.8c-4.3,28.2-8.5,56.3-12.7,84.5
	c-2.6,17.2-5.2,34.4-7.8,51.6c-0.7,4.3-0.6,4.3-5,4.2c-15.5-0.3-31.1-0.6-46.6-1C580.7,498.4,579.1,498.2,576.4,498z M581.7,254.5
	c-0.1-12.3-9.6-22.1-21.5-21.9c-11.6,0.2-21.2,10.2-21.3,22.4c-0.1,12.2,9.5,22.3,21.2,22.2C572,277.2,581.7,266.9,581.7,254.5z"/>
<path class="st1" d="M246.6,842.4c4,0,8.1,0,12.1,0c7.8-0.1,11.7-3.7,11.9-11.5c0.2-7.3,0.3-14.7,0.5-22c0-1.5-0.3-3.1,0.5-4.8
	c11.2,0.3,22.4,1,33.4,2.7c8.7,1.3,16.7,4.5,24.2,9.3c6.6,4.2,13.3,8.3,20.1,12.3c17.6,10.3,36.4,15.8,57,15.7
	c25.3-0.1,50.5,0.1,75.8,0.2c58.7,0.2,117.4,0.3,176.2,0.5c4.4,0,8.8,0.5,13.3,0.2c9.7-0.6,17.9-5.1,26-9.9c1-0.6,1.7-1.7,3.4-1.8
	c0.9,3,1.7,6,2.6,9.1c0.4,1.4-0.1,2.3-1.2,3c-0.7,0.4-1.4,0.9-2.1,1.4c-47.3,31.2-98.9,51.7-154.7,61.4c-27.3,4.7-54.9,6.8-82.6,5.7
	c-78-3-149.7-26-214.7-69.3c-0.6-0.4-1.1-0.8-1.6-1.2C246.5,843,246.5,842.7,246.6,842.4z"/>
<path class="st2" d="M649.2,500.1c1.3-8.7,2.4-16.6,3.6-24.5c3.9-26,7.9-51.9,11.8-77.9c4-26.3,8-52.6,12-78.9
	c3.1-20.6,6.2-41.1,9.3-61.7c0.3-1.9,0.4-3.7,0.5-5.6c0.2-4.8-1.3-7.1-5.9-9c-2.8-1.1-5.8-2.1-8.6-3.3c-10.9-4.7-18.2-13-23-23.6
	c-1.9-4.2-3.6-8.5-4.7-13c-1.4-5.7-5-8.7-10.7-9.4c-17.1-2.3-34.2-4.4-51.4-5.6c-25.3-1.8-50.5-1.2-75.7,0.2
	c-5.6,0.3-11.2,0.8-16.8,1.9c-5.5,1.1-9.3,3.9-10.2,9.9c-0.8,5.5-2.9,10.5-5.4,15.4c-6.2,12.4-16.2,20.4-28.9,25.3
	c-3.2,1.2-6.3,2.5-9.4,3.9c-4.8,2.2-6.3,5-5.5,10.3c1.8,12,3.6,23.9,5.4,35.9c3.6,24,7.1,47.9,10.7,71.9c3.9,26.5,7.9,53,11.9,79.5
	c2.5,16.9,5,33.7,7.5,50.6c0.1,1,0.2,2,0.2,3c-0.9,1-2,0.6-3,0.7c-2.7,0.3-3.8-0.8-4.3-3.6c-3.3-19.3-6.8-38.6-10.2-57.9
	c-6.4-35.8-12.8-71.5-19.1-107.3c-5.6-31.6-11.2-63.1-16.8-94.7c-1.9-10.7-3.9-21.5-5.8-32.2c-0.8-4.6-0.9-4.7,3.6-5.8
	c22-5.6,44.3-9.4,66.9-12.1c30.7-3.7,61.6-4.8,92.5-4c43.3,1.1,86,6.3,128,17.5c1,0.3,2,0.6,2.9,0.9c3.6,1,3.6,1.1,3,4.8
	c-5.8,38.1-11.6,76.2-17.4,114.3c-5.6,36.9-11.2,73.9-16.8,110.8c-3.5,22.8-6.9,45.5-10.4,68.3c-0.1,0.8-0.4,1.7-0.5,2.5
	c-0.1,1.8-0.7,2.8-2.8,2.6C654,499.9,652,500.1,649.2,500.1z"/>
<path class="st2" d="M495.2,418.8c0.9-27,11.5-48.9,35.1-63.2c28.2-17,62.9-8.5,80.8,19.1c21.6,33.5,10.2,81.4-24.3,101.5
	c-30.4,17.7-67.6,6.7-83.8-24.8C497.8,441.2,495.2,430.4,495.2,418.8z M580,401.1c7.5,0,12.6,4.3,13.6,11.8
	c0.6,4.5-0.4,8.8-2.3,12.9c-0.7,1.4-1.5,2.7-2.1,4.1c-1.6,3.8-0.5,7.6,2.7,9.3c3.2,1.8,7,0.8,9.4-2.5c1.5-2.1,3-4.3,3.8-6.6
	c1.6-5.1,3.6-8.9,10-9.1c3.7-0.1,5.9-4.4,5.5-8.1c-0.4-3.7-3.3-6.5-7.1-6.9c-1-0.1-2.1-0.1-3.1,0c-1.7,0.2-2.8-0.1-3.3-2.1
	c-3-10.7-14.4-19.8-30.3-18.4c-11.2,1-19.4,8.1-21.7,19.1c-0.7,3.4-1.2,6.7-1,10.2c0.1,2.9-0.4,5.8-1.1,8.6
	c-1.5,5.6-9.8,10.4-15,8.6c-5.3-1.8-9.1-5.2-10.6-10.8c-1.8-6.8-0.3-13.2,2-19.5c0.6-1.8,1.5-3.4,1.6-5.4c0.3-6.1-5.1-9.8-10.7-7.2
	c-2.1,1-3.6,2.6-4.7,4.6c-1.3,2.4-2.5,4.9-2.7,7.7c-0.4,4.3-2.3,6.4-6.8,6c-0.6-0.1-1.3,0.2-2,0.4c-3.9,1.1-6.3,4.2-6.1,7.8
	c0.1,3.8,3.1,6.9,7.1,7.5c1,0.1,2.1,0.2,3.1,0c2.6-0.6,3.5,0.3,4.2,2.9c2.4,8.7,8.1,14.7,15.9,19.1c16.8,9.6,38.1-4.6,40.5-18.8
	c0.9-5.4,0.9-10.9,1.6-16.3C571.1,403.6,573.7,401.2,580,401.1z"/>
<path class="st0" d="M581.7,254.5c0.1,12.4-9.6,22.6-21.5,22.7c-11.8,0.1-21.4-10-21.2-22.2c0.1-12.2,9.6-22.3,21.3-22.4
	C572,232.4,581.6,242.2,581.7,254.5z"/>
<path class="st3" d="M876.6,667.9c54.4,0,106.1,43.1,116.7,102.4c9.7,54.1-17.2,108.7-66.3,134.9c-61.5,32.7-137.4,10.6-170.4-49.7
	c-33.8-61.6-9.5-140,53.6-172.9C829,672.8,849,667.8,876.6,667.9z M979.4,791.9c-0.1-4.4-0.2-9.5-1-14.6c-6.1-38.6-26.7-67-62-83.3
	c-36.2-16.7-72.2-13.9-106.1,6.9c-46.8,28.7-65.7,87.4-44.4,137.7c19.5,46,68.9,72.8,119.5,64.3
	C939.5,893.8,979.3,847.1,979.4,791.9z"/>
<path class="st0" d="M580,401.1c-6.2,0-8.8,2.4-9.7,8.7c-0.8,5.4-0.7,10.9-1.6,16.3c-2.3,14.2-23.7,28.4-40.5,18.8
	c-7.8-4.4-13.5-10.4-15.9-19.1c-0.7-2.5-1.6-3.5-4.2-2.9c-1,0.2-2.1,0.2-3.1,0c-4.1-0.6-7-3.7-7.1-7.5c-0.1-3.6,2.2-6.7,6.1-7.8
	c0.7-0.2,1.3-0.5,2-0.4c4.4,0.4,6.4-1.7,6.8-6c0.2-2.7,1.4-5.3,2.7-7.7c1.1-2,2.6-3.6,4.7-4.6c5.6-2.6,11.1,1,10.7,7.2
	c-0.1,1.9-1,3.6-1.6,5.4c-2.2,6.3-3.7,12.8-2,19.5c1.5,5.6,5.3,9,10.6,10.8c5.3,1.8,13.5-2.9,15-8.6c0.8-2.8,1.3-5.7,1.1-8.6
	c-0.1-3.4,0.3-6.8,1-10.2c2.3-11,10.5-18.2,21.7-19.1c15.8-1.4,27.3,7.7,30.3,18.4c0.6,2,1.6,2.3,3.3,2.1c1-0.1,2.1-0.1,3.1,0
	c3.8,0.4,6.7,3.3,7.1,6.9c0.4,3.6-1.8,7.9-5.5,8.1c-6.4,0.2-8.4,4-10,9.1c-0.8,2.4-2.3,4.6-3.8,6.6c-2.4,3.4-6.3,4.3-9.4,2.5
	c-3.2-1.8-4.3-5.5-2.7-9.3c0.6-1.4,1.5-2.7,2.1-4.1c2-4.1,3-8.4,2.3-12.9C592.5,405.5,587.4,401.1,580,401.1z"/>
<path class="st3" d="M868.2,743.4c8.3-7.8,16.2-15.3,24.1-22.8c2.8-2.7,5.5-5.5,8.9-7.7c3.5-2.2,7-2.3,10.7-0.6c2.6,1.3,5,2.9,7.1,5
	c8.3,8.3,16.8,16.5,25.1,24.9c5.9,5.9,6.4,10.2,2.1,17.3c-1.8,2.9-4,5.5-6.4,8c-6.7,6.8-13.4,13.6-20.1,20.5
	c-1.2,1.2-2.3,2.4-4.1,4.4c3.5,3.2,7,6.2,10.3,9.5c5.6,5.5,11.1,11.1,16.6,16.7c1.4,1.5,2.6,3.2,3.7,4.9c2.1,3.3,2.1,6.7,0.5,10.2
	c-1.2,2.5-2.6,4.8-4.6,6.7c-8.6,8.5-17.1,17.1-25.8,25.6c-5.8,5.7-9.9,6.1-16.9,1.8c-2.9-1.8-5.5-4-7.9-6.4
	c-6.8-6.8-13.5-13.5-20.3-20.2c-2.5-2.5-2.6-2.5-5.1,0.1c-7.8,7.9-15.5,15.8-23.3,23.7c-1.2,1.2-2.6,2.2-4,3.2
	c-3.9,2.8-7.9,2.8-12,0.7c-2.1-1.1-4.1-2.4-5.8-4.1c-8.6-8.5-17.3-16.9-25.9-25.5c-5.8-5.8-6.2-9.7-1.9-16.9
	c1.8-3.1,4.2-5.8,6.7-8.4c6.6-6.7,13.1-13.4,19.6-20.2c2.5-2.6,2.5-2.6-0.1-5.2c-7.8-7.7-15.7-15.2-23.3-23
	c-7.6-7.9-7.5-13.9,0-21.8c8.5-8.9,17.2-17.6,25.8-26.3c5.4-5.4,9.5-5.8,16-2c3.3,1.9,6.1,4.3,8.8,6.9
	C853.9,729.5,861.2,736.6,868.2,743.4z M840.8,790.7c0,2.6-1.1,4.6-2.8,6.4c-2.3,2.5-4.7,4.9-7.1,7.4c-6.4,6.6-12.9,13.2-19.2,19.8
	c-3.5,3.7-3.4,5.6,0.1,9.1c5.1,5.1,10.2,10.1,15.3,15c3.9,3.7,5.5,3.7,9.5-0.1c3.1-3,6-6.1,9-9.1c5.4-5.5,10.6-11.1,16.1-16.5
	c4-3.9,7.4-4.1,11.9-1c1.9,1.3,3.7,3,5.4,4.7c7.5,7.4,15,14.9,22.5,22.4c3.5,3.5,6.3,3.4,9.5-0.1c4.4-4.8,9.1-9.2,13.7-13.8
	c5.3-5.3,5.3-6.5-0.2-12c-5-5.1-10.1-10.1-15.2-15.2c-2.9-2.9-5.9-5.7-8.7-8.7c-3.8-4-4-6.8-1.3-11.5c1.8-3.1,4-5.9,6.5-8.5
	c5.9-5.9,11.7-11.9,17.6-17.9c1.7-1.7,3.5-3.3,4.9-5.2c2.2-2.8,2.2-4.7-0.3-7.2c-5.5-5.6-11.1-11.1-16.7-16.6
	c-2.8-2.7-4.7-2.7-7.6-0.3c-1.1,0.8-2,1.9-2.9,2.8c-7.4,7.5-14.8,15.1-22.3,22.6c-6,6-12.4,6.1-18.4,0.4c-1.6-1.5-3.2-3.1-4.8-4.6
	c-6.1-6-12.2-11.9-18.3-17.9c-4.6-4.5-6.2-4.4-10.6,0c-4.1,4.1-8.1,8.3-12.2,12.4c-6.6,6.7-6.6,7.3,0,13.8
	c7.5,7.4,15.1,14.8,22.7,22.2C839,785.7,840.6,787.8,840.8,790.7z"/>
<path class="st4" d="M232.3,663.6l22,22c5.2,5.2,13.7,5.2,18.9,0l22-22c5.2-5.2,5.2-13.7,0-18.9l-22-22c-5.2-5.2-13.7-5.2-18.9,0
	l-22,22C227.1,649.9,227.1,658.4,232.3,663.6z"/>
<path class="st4" d="M232.3,727.8l22,22c5.2,5.2,13.7,5.2,18.9,0l22-22c5.2-5.2,5.2-13.7,0-18.9l-22-22c-5.2-5.2-13.7-5.2-18.9,0
	l-22,22C227.1,714.1,227.1,722.5,232.3,727.8z"/>
<path class="st3" d="M741,923.7l17.3,17.3c2.5,2.5,6.6,2.5,9.1,0l17.3-17.3c2.5-2.5,2.5-6.6,0-9.1l-17.3-17.3
	c-2.5-2.5-6.6-2.5-9.1,0L741,914.5C738.5,917.1,738.5,921.2,741,923.7z"/>
<circle class="st5" cx="869.4" cy="792.8" r="160.5"/>
</svg>
