<?xml version="1.0" encoding="utf-8"?>
<!-- Generator: Adobe Illustrator 28.0.0, SVG Export Plug-In . SVG Version: 6.00 Build 0)  -->
<svg version="1.1" id="Capa_1" xmlns="http://www.w3.org/2000/svg" xmlns:xlink="http://www.w3.org/1999/xlink" x="0px" y="0px"
	 viewBox="0 0 1080 1080" style="enable-background:new 0 0 1080 1080;" xml:space="preserve">
<style type="text/css">
	.st0{fill:#090A0A;}
	.st1{fill:#FFFFFF;}
	.st2{fill:#FDFDFD;}
	.st3{fill:#DBB300;}
	.st4{fill:#6EE1EB;}
	.st5{fill:none;stroke:#DBB300;stroke-width:19;stroke-miterlimit:10;}
</style>
<path class="st0" d="M711.6,859.7c-1.5,1-3.1,1.9-4.7,2.9c-46.9,30.2-97.8,50.2-152.6,60.3c-32.9,6.1-66.1,8.3-99.4,6.1
	c-111.7-7.5-206.9-51.2-284.7-131.8c-55.8-57.9-91.8-126.7-109.1-205.2c-8.5-38.6-11.5-77.6-8.8-117c6.7-97,41.8-182.3,106.6-254.7
	c61.5-68.8,138.1-112.2,228.5-131.2c29.3-6.2,59.1-9.4,89-8.6c123.5,3,227.7,49.6,311.5,140.3c52.4,56.8,86,123.7,102.3,199.3
	c8.4,39.1,11.1,78.7,8.2,118.6c-2.1,28.3-6.8,56.2-14.5,83.5c-0.2,0.7-0.4,1.3-0.6,2c-0.5,1.7,0.1,2.5,1.9,2.7
	c4.6,0.5,9.2,0.3,13.7,1.2c71.2,13,122,63.8,135.9,128.3c16.6,76.6-23.4,154.5-95.4,188.1c-28.8,13.4-59.1,18.8-90.7,15.4
	c-40.9-4.4-75.9-21.2-104.5-50.9c-13.1-13.6-23.5-29.2-31.1-46.5C712.9,861.5,712.6,860.5,711.6,859.7z M727.6,702.2
	c1.7-1.1,2.3-2.5,3.2-3.8c11.2-15.7,24.7-29.2,40.5-40.3c27.2-19,57.4-29.6,90.5-31.8c4.5-0.3,4.6-0.3,5.8-4.6
	c6.7-23.7,11.4-47.7,13.9-72.2c4.2-42.3,2.3-84.3-6.7-125.8c-19.1-88.5-62.2-163.4-129.9-223.5C677,140,597.5,106.1,507.1,97.8
	c-30.9-2.8-61.7-1.8-92.4,2.6c-39.3,5.6-77,16.4-112.8,33.4C207.4,178.5,139.3,249,98.6,345.4c-27.9,66-36.6,134.9-28.3,206
	c0.9,7.3-0.1,6,6.5,6c61.6,0.1,123.3,0.2,184.9,0.2c1.9,0,3.8,0,5.6,0c6.2,0.2,8.6,2.2,9.7,8.2c0.3,1.7,0.8,2.5,2.5,2.5
	c1.7,0,3.4,0.1,5.1,0.1c17.1,0.2,34.1,0.2,51.2,0.5c3.3,0.1,5.3-1,7.4-3.4c13.8-15.2,27.7-30.2,41.6-45.3
	c17.2-18.7,34.4-37.5,51.7-56.1c2.3-2.4,3.2-4.5,2.5-8.1c-2.2-10.7-3.9-21.5-5.8-32.2c-7-39.3-14-78.6-21-117.8
	c-6.8-37.9-13.1-75.9-20.5-113.8c-1-4.9,0.9-8.2,5.8-9.9c2.1-0.7,4.2-1.3,6.4-1.9c47.3-12.4,95.6-17.6,144.3-18.2
	c28.2-0.4,56.3,1.3,84.3,4.7c27.6,3.4,54.9,8.5,81.6,16.4c7.8,2.3,10.2,6.1,9,14c-2,12.6-3.9,25.3-5.8,37.9
	c-3.8,25.3-7.7,50.6-11.6,75.9c-3.9,25.8-7.9,51.6-11.9,77.4c-4.7,30.7-9.4,61.4-14.1,92c-1,6.4-1.9,12.8-2.8,19.5
	c4.2,0.3,8.1,0.5,12,0.8c10.5,0.8,18.9,5.5,25.5,13.5c16.1,19.7,14.6,48.7-3.5,66.7c-1.3,1.3-2.5,2.7-3.7,4.1c0,0.1,0,0.3,0.1,0.4
	c0.5,0.4,1.1,0.8,1.7,1.1c9.9,6.1,17.1,14.5,22,25c4.4,9.6,4.8,19.4,1.1,29.3c-4.6,12.2-12.6,21.7-23.2,29.2c-1,0.7-2.6,0.9-2.9,2.7
	C715.8,680.8,723.4,690.2,727.6,702.2z M443.3,481.1c-2.1,0.9-2.9,2.2-4,3.3c-23,25-46,49.9-69,74.9c-5.9,6.4-12.3,12.4-17.4,19.4
	c-3.5,4.9-7.4,6.3-12.9,6.2c-19.1-0.4-38.2-0.6-57.3-0.8c-1.2,0-2.4,0-3.6,0c-1.5-0.1-2.2,0.5-2.2,2.1c0,1,0,2,0,3.1
	c-0.8,52.9-1.6,105.8-2.4,158.7c-0.2,12.3-0.4,24.6-0.7,36.9c-0.1,2.4,0.5,3.3,3,3.4c8,0.5,16,1.2,24,1.8
	c14.2,1.1,27.4,5.1,39.5,12.8c6.9,4.4,13.8,8.7,21,12.7c14.5,8.1,29.9,12.6,46.8,12.6c87.7,0,175.5,0.6,263.2,0.7
	c11.6,0,20.8-5.8,27.6-15.1c0.9-1.2,1.2-2.4,1-3.8c-1.1-10.1-0.6-20.1,0.2-30.2c0.2-2.6-0.4-4.6-2-6.6c-4.1-4.9-8.6-9.1-14.9-11.2
	c-5.5-1.9-6.7-7.3-3.3-12c1.2-1.5,2.6-2.6,4.5-3.2c1.8-0.6,3.6-1.2,5.3-1.8c12.6-4.9,20.1-14.2,23.2-27.2c0.9-3.7,0.7-7.4-0.6-11.1
	c-4.2-11.7-11.5-20.8-22.4-26.9c-1.3-0.8-2.8-1.4-3.9-2.4c-4.5-3.9-3.8-11,1.4-13.9c1.2-0.7,2.5-1,3.8-1.6
	c10.8-4.5,19-11.8,24.5-22.2c4.3-8.2,4.2-16.3-0.4-24.4c-6.6-11.5-15.6-19.7-29.2-21.9c-3.4-0.5-5.5-2.7-6.3-5.9
	c-0.8-3,0.7-6.5,3.7-8.3c2-1.2,4.3-2.1,6.5-2.9c2.6-0.9,5-2.1,7.2-3.8c18.8-15,14.1-40.1,3-51.5c-2.8-2.9-6.1-4.5-10.4-4.5
	c-15.2-0.1-30.4-0.5-45.6-0.8c-52.7-1.1-105.5-2.2-158.2-3.4c-9.4-0.2-18.8-0.5-28.2-0.7c-4.5-0.1-7.5-2-8.9-6.3
	c-0.4-1.1-0.7-2.3-1.1-3.4C445.7,495.3,444.7,488.4,443.3,481.1z M74.1,573.6c-0.1,0.5-0.2,1-0.2,1.5c0.3,1.9,0.6,3.7,1,5.5
	c19.6,96.5,67.4,176.2,142.7,239.6c5.4,4.6,10.8,7.2,17.9,6.4c2.9-0.3,5.8,0,8.7,0c3.6,0,7.2,0,10.8,0.1c1.7,0,2.5-0.7,2.4-2.4
	c0-0.9,0-1.7,0-2.6c1.3-81.1,2.5-162.1,3.8-243.2c0.1-4.9,1-5-4.9-5c-0.2,0-0.3,0-0.5,0c-58.9-0.1-117.8-0.3-176.6-0.4
	C77.5,573.2,75.8,572.8,74.1,573.6z M579.9,498.1c1.6,0.1,3.1,0.3,4.6,0.3c15.5,0.3,31.1,0.7,46.6,1c4.7,0.1,4.7,0.1,5.4-4.5
	c2.9-19.1,5.7-38.1,8.6-57.2c4-26.1,7.9-52.3,11.9-78.4c3.9-26,7.9-51.9,11.8-77.9c1.2-7.9,2.3-15.9,3.6-23.8
	c0.4-2.3,0.1-3.9-2.5-4.6c-1.8-0.5-3.5-1.4-5.2-2.2c-9.4-4.6-17.3-10.9-22.8-19.9c-3.4-5.6-6.2-11.4-8.3-17.5
	c-2.3-6.7-2.3-6.7-9.4-7.2c-0.5,0-1,0-1.5-0.1c-11.6-0.8-23.2-1.4-34.7-2.4c-28.8-2.6-57.6-1.6-86.4,0.7c-5.6,0.4-5.5,0.6-7.1,5.9
	c-5.2,17.5-14.7,31.8-31.5,40.4c-3.3,1.7-6.6,3.6-10.2,4.7c-2.5,0.7-3.5,1.7-3,4.6c2,12.1,3.7,24.3,5.5,36.4
	c3.5,24,7.1,47.9,10.7,71.9c3.9,26.5,7.9,53,11.9,79.5c2.2,14.8,4.4,29.7,6.6,44.5c0.6,4,0.7,4.1,4.7,4.2c14.5,0.3,29,0.6,43.5,0.8
	c0.4,0,1,0.2,1.2-0.6c-0.4-1-1.6-1.1-2.4-1.4c-15.9-6.4-28.2-17.1-37.1-31.7c-19.4-31.9-15.6-74.8,9.3-103.6
	c15-17.4,33.9-27.6,56.9-28.6c26.5-1.1,47.9,9.7,63.6,30.9c15.2,20.6,19.9,44.1,14.5,69c-6.8,31.4-24.9,53.7-55.4,65.2
	C581.9,496.7,580.5,496.5,579.9,498.1z M702.9,832.9c-1,0.7-1.8,1.3-2.7,1.9c-8.2,5-16.5,9.6-26.4,10.1c-4.5,0.3-8.9-0.2-13.3-0.2
	c-58.7-0.1-117.4-0.3-176.2-0.5c-25.3-0.1-50.5-0.3-75.8-0.2c-15.6,0-30.5-2.9-44.7-9.4c-10.1-4.6-19.5-10.5-28.9-16.4
	c-6.1-3.9-12.2-7.5-19.2-9.4c-13.7-3.8-27.8-3.8-42.1-4.7c-0.2,9.1-0.4,17.8-0.6,26.5c-0.2,8.2-3.9,11.8-12,11.8c-4,0-8,0-13.2,0
	c2.3,1.7,3.6,2.7,4.9,3.6c57.3,37.5,119.9,59.7,188.1,66.2c35.9,3.4,71.6,2,107.1-4.2c55-9.5,105.8-29.6,152.6-60
	c5.8-3.8,5.8-3.8,3.9-10.8C704.1,835.9,704.2,834.5,702.9,832.9z M871.6,641.9c-4.9,0.3-9.9,0.4-14.8,0.8c-3.1,0.2-6.1,0.6-9.1,1.1
	c-41.9,7.1-76.1,27.1-101.9,61c-39.6,52.2-41.7,123.9-3.8,176.3c36.1,49.8,86.1,69.9,146.6,62.2c44-5.7,79.9-27.5,105.4-63.9
	c32.2-45.9,38.9-96,16.1-147.5C983.9,672.5,935.3,644.9,871.6,641.9z M468.6,496c-0.1-1.6-0.1-2.6-0.3-3.6
	c-2.5-16.9-5-33.7-7.5-50.6c-3.9-26.5-7.9-53-11.9-79.5c-3.6-24-7.1-47.9-10.7-71.9c-1.8-12-3.6-23.9-5.4-35.9
	c-0.8-5.3,0.7-8.1,5.5-10.3c2.8-1.3,5.6-2.4,8.5-3.5c19-7.2,30.9-20.6,35.1-40.6c1.4-6.5,4.1-9.2,10.8-10.4
	c9.8-1.8,19.7-2.3,29.5-2.7c36.8-1.6,73.3,0.3,109.8,5.5c9.2,1.3,13.6,5.1,16.1,14c4.9,17.7,15.6,30.4,33.9,35.8
	c5.9,1.7,7.5,4.2,6.8,10.3c-1,8.5-2.2,16.9-3.5,25.3c-5.6,37.1-11.3,74.2-16.9,111.3c-5.3,35.1-10.5,70.2-15.9,105.2
	c-1,6.8-0.9,5.6,4.9,5.8c0.5,0,1,0,1.5,0c1.5,0.1,2.1-0.6,2.2-2.1c0.1-1,0.4-2,0.6-3c3.5-22.8,6.9-45.5,10.4-68.3
	c5.6-36.9,11.2-73.9,16.8-110.8c5.8-38.1,11.6-76.2,17.4-114.3c0.6-3.8,0.6-3.8-3-4.8c-1.1-0.3-2.3-0.7-3.4-1
	c-41.8-11.1-84.4-16.2-127.5-17.4c-30.9-0.8-61.8,0.3-92.5,4c-22.5,2.7-44.9,6.5-66.9,12.1c-4.5,1.2-4.5,1.2-3.7,5.8
	c2.3,12.8,4.6,25.5,6.9,38.3c5.7,31.7,11.3,63.4,17,95.2c5.9,33.4,11.9,66.8,17.8,100.2c3.5,19.5,7,38.9,10.3,58.4
	c0.5,2.7,1.5,4,4.3,3.6C466.4,495.9,467.3,496,468.6,496z M624.6,413.6c-0.3-3.9-0.3-7.4-0.8-10.7c-0.6-4.2-1.5-8.4-2.8-12.4
	c-13.9-43.2-63.8-57.3-98.2-27.8c-23.3,20-31.7,55.1-19.7,83.5c6.4,15.2,16.8,26.9,32.1,33.5c19.7,8.4,38.8,6.4,56.5-5.2
	C613.7,460.2,623.6,439,624.6,413.6z"/>
<path class="st1" d="M727.6,702.2c-4.2-12-11.8-21.4-21.5-29.2c0.2-1.8,1.8-2,2.9-2.7c10.6-7.4,18.6-17,23.2-29.2
	c3.7-9.9,3.3-19.7-1.1-29.3c-4.8-10.5-12.1-18.9-22-25c-0.6-0.4-1.1-0.7-1.7-1.1c-0.1-0.1-0.1-0.3-0.1-0.4c1.3-1.4,2.4-2.8,3.7-4.1
	c18-18,19.6-47,3.5-66.7c-6.6-8-15-12.7-25.5-13.5c-3.9-0.3-7.8-0.5-12-0.8c1-6.7,1.8-13.1,2.8-19.5c4.7-30.7,9.4-61.4,14.1-92
	c3.9-25.8,7.9-51.6,11.9-77.4c3.9-25.3,7.7-50.6,11.6-75.9c1.9-12.6,3.8-25.3,5.8-37.9c1.2-7.9-1.1-11.7-9-14
	c-26.7-7.9-54-13-81.6-16.4c-28-3.4-56.1-5.1-84.3-4.7c-48.8,0.6-97,5.8-144.3,18.2c-2.1,0.6-4.3,1.1-6.4,1.9
	c-4.9,1.7-6.7,5-5.8,9.9c7.4,37.8,13.7,75.8,20.5,113.8c7.1,39.3,14,78.6,21,117.8c1.9,10.7,3.5,21.5,5.8,32.2
	c0.7,3.5-0.2,5.7-2.5,8.1c-17.3,18.6-34.5,37.4-51.7,56.1c-13.9,15.1-27.8,30.1-41.6,45.3c-2.1,2.3-4.2,3.4-7.4,3.4
	c-17.1-0.3-34.1-0.4-51.2-0.5c-1.7,0-3.4-0.1-5.1-0.1c-1.7,0-2.2-0.8-2.5-2.5c-1-6-3.5-8-9.7-8.2c-1.9-0.1-3.8,0-5.6,0
	c-61.6-0.1-123.3-0.1-184.9-0.2c-6.7,0-5.7,1.3-6.5-6c-8.3-71.1,0.4-140,28.3-206c40.7-96.4,108.8-166.9,203.3-211.6
	c35.8-17,73.6-27.8,112.8-33.4c30.7-4.4,61.6-5.4,92.4-2.6c90.3,8.3,169.9,42.2,237.7,102.5c67.7,60.1,110.8,135,129.9,223.5
	c9,41.5,11,83.5,6.7,125.8c-2.5,24.5-7.2,48.6-13.9,72.2c-1.2,4.2-1.2,4.3-5.8,4.6c-33.1,2.2-63.4,12.7-90.5,31.8
	c-15.8,11.1-29.2,24.6-40.5,40.3C730,699.6,729.3,701.1,727.6,702.2z"/>
<path class="st1" d="M443.3,481.1c1.4,7.3,2.4,14.2,4.5,20.8c0.4,1.1,0.7,2.3,1.1,3.4c1.4,4.3,4.4,6.2,8.9,6.3
	c9.4,0.2,18.8,0.5,28.2,0.7c52.7,1.1,105.5,2.2,158.2,3.4c15.2,0.3,30.4,0.7,45.6,0.8c4.3,0,7.6,1.6,10.4,4.5
	c11,11.3,15.7,36.5-3,51.5c-2.2,1.7-4.6,2.9-7.2,3.8c-2.2,0.8-4.5,1.7-6.5,2.9c-3,1.8-4.5,5.3-3.7,8.3c0.8,3.3,2.9,5.4,6.3,5.9
	c13.6,2.2,22.6,10.4,29.2,21.9c4.7,8.1,4.7,16.2,0.4,24.4c-5.4,10.4-13.7,17.7-24.5,22.2c-1.3,0.5-2.6,0.9-3.8,1.6
	c-5.2,2.9-5.9,10-1.4,13.9c1.1,1,2.6,1.6,3.9,2.4c10.9,6.1,18.2,15.2,22.4,26.9c1.3,3.7,1.5,7.4,0.6,11.1
	c-3.1,13-10.6,22.3-23.2,27.2c-1.7,0.7-3.5,1.3-5.3,1.8c-1.9,0.6-3.4,1.7-4.5,3.2c-3.5,4.6-2.2,10.1,3.3,12
	c6.3,2.1,10.8,6.3,14.9,11.2c1.6,2,2.2,4,2,6.6c-0.8,10-1.3,20.1-0.2,30.2c0.2,1.4-0.2,2.7-1,3.8c-6.8,9.4-16,15.1-27.6,15.1
	c-87.7-0.1-175.5-0.7-263.2-0.7c-16.9,0-32.3-4.5-46.8-12.6c-7.2-4-14.1-8.3-21-12.7c-12.1-7.7-25.3-11.7-39.5-12.8
	c-8-0.6-16-1.3-24-1.8c-2.5-0.1-3.1-1.1-3-3.4c0.3-12.3,0.5-24.6,0.7-36.9c0.8-52.9,1.6-105.8,2.4-158.7c0-1,0.1-2,0-3.1
	c-0.1-1.5,0.7-2.1,2.2-2.1c1.2,0,2.4,0,3.6,0c19.1,0.3,38.2,0.4,57.3,0.8c5.5,0.1,9.4-1.3,12.9-6.2c5.1-7,11.5-13,17.4-19.4
	c23-25,46-50,69-74.9C440.4,483.3,441.2,481.9,443.3,481.1z"/>
<path class="st2" d="M74.1,573.6c1.7-0.8,3.4-0.4,5.1-0.4c58.9,0.1,117.8,0.3,176.6,0.4c0.2,0,0.3,0,0.5,0c5.9,0,5,0.1,4.9,5
	c-1.3,81.1-2.5,162.1-3.8,243.2c0,0.9-0.1,1.7,0,2.6c0.1,1.7-0.7,2.4-2.4,2.4c-3.6-0.1-7.2,0-10.8-0.1c-2.9,0-5.8-0.4-8.7,0
	c-7.1,0.8-12.5-1.8-17.9-6.4C142.3,756.8,94.5,677.1,74.9,580.6c-0.4-1.8-0.7-3.7-1-5.5C73.9,574.6,74,574.1,74.1,573.6z"/>
<path class="st2" d="M579.9,498.1c0.6-1.6,2.1-1.4,3.1-1.7c30.5-11.5,48.6-33.8,55.4-65.2c5.4-24.9,0.8-48.3-14.5-69
	c-15.7-21.2-37.1-31.9-63.6-30.9c-23,0.9-41.9,11.2-56.9,28.6c-24.9,28.8-28.7,71.7-9.3,103.6c8.9,14.6,21.2,25.3,37.1,31.7
	c0.8,0.3,2,0.4,2.4,1.4c-0.1,0.8-0.8,0.6-1.2,0.6c-14.5-0.3-29-0.5-43.5-0.8c-4-0.1-4.1-0.2-4.7-4.2c-2.2-14.8-4.4-29.7-6.6-44.5
	c-3.9-26.5-7.9-53-11.9-79.5c-3.6-24-7.1-47.9-10.7-71.9c-1.8-12.1-3.4-24.3-5.5-36.4c-0.5-3,0.5-3.9,3-4.6c3.6-1,6.9-2.9,10.2-4.7
	c16.8-8.6,26.2-22.8,31.5-40.4c1.6-5.3,1.5-5.5,7.1-5.9c28.8-2.3,57.6-3.2,86.4-0.7c11.6,1,23.2,1.6,34.7,2.4c0.5,0,1,0,1.5,0.1
	c7.1,0.5,7.1,0.5,9.4,7.2c2.1,6.1,4.9,12,8.3,17.5c5.5,9,13.4,15.3,22.8,19.9c1.7,0.8,3.4,1.8,5.2,2.2c2.7,0.7,2.9,2.3,2.5,4.6
	c-1.3,7.9-2.4,15.9-3.6,23.8c-3.9,26-7.9,51.9-11.8,77.9c-4,26.1-7.9,52.3-11.9,78.4c-2.9,19.1-5.8,38.1-8.6,57.2
	c-0.7,4.5-0.6,4.6-5.4,4.5c-15.5-0.3-31.1-0.6-46.6-1C583,498.4,581.5,498.2,579.9,498.1z M563,232.6c-11.9,0-21.6,10.2-21.6,22.6
	c0,12.1,9.3,21.9,20.9,22.1c11.9,0.2,21.7-9.9,21.9-22.4C584.2,242.6,574.8,232.6,563,232.6z"/>
<path class="st2" d="M702.9,832.9c1.4,1.5,1.2,3,1.6,4.3c1.9,7,1.9,7-3.9,10.8c-46.8,30.4-97.6,50.5-152.6,60
	c-35.5,6.1-71.2,7.6-107.1,4.2c-68.2-6.4-130.8-28.7-188.1-66.2c-1.4-0.9-2.6-1.9-4.9-3.6c5.2,0,9.2,0,13.2,0
	c8.1-0.1,11.8-3.7,12-11.8c0.2-8.7,0.4-17.4,0.6-26.5c14.3,0.8,28.4,0.8,42.1,4.7c7,1.9,13.1,5.6,19.2,9.4
	c9.3,5.9,18.7,11.8,28.9,16.4c14.2,6.4,29.1,9.4,44.7,9.4c25.3,0,50.5,0.2,75.8,0.2c58.7,0.2,117.4,0.3,176.2,0.5
	c4.4,0,8.8,0.5,13.3,0.2c9.9-0.6,18.2-5.1,26.4-10.1C701.1,834.3,701.9,833.6,702.9,832.9z"/>
<path class="st2" d="M468.6,496c-1.4,0-2.2-0.1-3,0c-2.8,0.4-3.8-0.9-4.3-3.6c-3.3-19.5-6.8-39-10.3-58.4
	c-5.9-33.4-11.9-66.8-17.8-100.2c-5.6-31.7-11.3-63.5-17-95.2c-2.3-12.8-4.6-25.5-6.9-38.3c-0.8-4.6-0.8-4.6,3.7-5.8
	c22-5.6,44.3-9.4,66.9-12.1c30.7-3.7,61.6-4.8,92.5-4c43.1,1.1,85.7,6.3,127.5,17.4c1.2,0.3,2.3,0.6,3.4,1c3.5,1,3.6,1,3,4.8
	c-5.8,38.1-11.6,76.2-17.4,114.3c-5.6,36.9-11.2,73.9-16.8,110.8c-3.5,22.8-6.9,45.5-10.4,68.3c-0.2,1-0.5,2-0.6,3
	c-0.1,1.4-0.7,2.2-2.2,2.1c-0.5,0-1,0-1.5,0c-5.8-0.2-5.9,1-4.9-5.8c5.4-35.1,10.6-70.2,15.9-105.2c5.6-37.1,11.3-74.2,16.9-111.3
	c1.3-8.4,2.5-16.9,3.5-25.3c0.7-6-0.9-8.5-6.8-10.3c-18.3-5.3-29-18.1-33.9-35.8c-2.4-8.9-6.8-12.6-16.1-14
	c-36.5-5.2-73-7.1-109.8-5.5c-9.9,0.4-19.8,0.9-29.5,2.7c-6.6,1.2-9.4,3.9-10.8,10.4c-4.3,20-16.2,33.4-35.1,40.6
	c-2.9,1.1-5.7,2.2-8.5,3.5c-4.7,2.2-6.2,5-5.5,10.3c1.8,12,3.6,23.9,5.4,35.9c3.6,24,7.1,47.9,10.7,71.9c3.9,26.5,7.9,53,11.9,79.5
	c2.5,16.9,5,33.7,7.5,50.6C468.5,493.4,468.5,494.4,468.6,496z"/>
<path class="st2" d="M624.6,413.6c-1,25.3-10.9,46.5-32.9,60.9c-17.7,11.6-36.9,13.6-56.5,5.2c-15.3-6.6-25.7-18.2-32.1-33.5
	c-11.9-28.4-3.6-63.5,19.7-83.5c34.4-29.6,84.3-15.5,98.2,27.8c1.3,4.1,2.3,8.2,2.8,12.4C624.3,406.3,624.3,409.7,624.6,413.6z
	 M582.2,401.1c6.5,0.1,12.7,3.2,13.8,11.6c0.6,4.7-0.4,9.2-2.5,13.4c-0.7,1.4-1.5,2.7-2.1,4.1c-1.4,3.6-0.3,7.2,2.7,8.9
	c3,1.8,6.8,1.1,9.1-1.9c1.5-2,3-4.2,3.9-6.6c1.9-5.2,3.5-9.9,10.7-9.9c3.4,0,5.5-4.3,5.2-7.8c-0.3-3.7-3.1-6.6-6.9-7.1
	c-1.2-0.1-2.4-0.1-3.6,0c-1.6,0.2-2.3-0.3-3-1.9c-5.6-13.4-15.5-19.5-29.6-18.6c-11.8,0.7-20.1,8-22.5,19.5c-0.7,3.2-1.1,6.4-1,9.7
	c0.1,2.8-0.3,5.4-1,8.1c-1.8,7.5-11.1,11.7-17.8,8.1c-5.9-3.1-8.6-8.1-8.7-14.6c-0.1-5.2,0.8-10.2,2.8-15c0.7-1.6,1.4-3.1,1.5-4.9
	c0.2-2.9-0.6-5.4-3.2-7.1c-2.5-1.6-5.1-1.4-7.8-0.1c-2.3,1.1-3.6,3-4.7,5.2c-1.6,3.1-2.5,6.4-3,9.7c-0.3,2.1-1.3,3-3.4,2.9
	c-0.8,0-1.7,0.1-2.5,0.2c-5.5,0.9-8.6,4.2-8.3,8.6c0.4,4.7,4.2,7.4,10,7.2c0.2,0,0.3,0,0.5-0.1c2.4-0.7,3.2,0.4,3.8,2.7
	c2.3,8.5,7.8,14.5,15.4,19c17.6,10.4,39.2-4.8,41.1-18.8c0.8-5.4,0.8-10.9,1.6-16.3C573.6,403.5,576.2,401.2,582.2,401.1z"/>
<path class="st0" d="M563,232.6c11.8,0,21.2,10,21.1,22.3c-0.1,12.4-10,22.5-21.9,22.4c-11.6-0.2-20.9-10-20.9-22.1
	C541.4,242.7,551.1,232.6,563,232.6z"/>
<path class="st3" d="M870.2,920.3c-63.2-0.1-115.5-44.7-125-105.5c-8.3-53.3,19.1-107.4,67.8-132.2c39.8-20.3,80.4-20.5,119.7,0.6
	c35.6,19.2,56.8,49.8,63.4,89.9c10.9,67.1-35,132.7-104.3,145.1C884.2,919.6,876.6,920.3,870.2,920.3z M981.9,791.8
	c-0.1-4.5-0.2-9.6-1-14.6c-6.2-38.6-26.8-66.9-62.2-83.2c-34.9-16.1-69.8-13.9-103.1,5.2c-50.9,29.3-70.4,92.9-44.8,144.8
	c21.8,44.2,70.1,67.1,117.2,59C941.9,893.7,981.8,847,981.9,791.8z"/>
<path class="st0" d="M582.2,401.1c-6.1,0.1-8.6,2.4-9.5,8.4c-0.8,5.4-0.8,10.9-1.6,16.3c-2,14.1-23.5,29.3-41.1,18.8
	c-7.5-4.4-13-10.4-15.4-19c-0.6-2.3-1.4-3.4-3.8-2.7c-0.2,0-0.3,0-0.5,0.1c-5.8,0.2-9.6-2.5-10-7.2c-0.4-4.5,2.8-7.7,8.3-8.6
	c0.8-0.1,1.7-0.3,2.5-0.2c2.1,0.1,3-0.8,3.4-2.9c0.5-3.4,1.5-6.7,3-9.7c1.1-2.2,2.5-4,4.7-5.2c2.6-1.3,5.2-1.5,7.8,0.1
	c2.6,1.6,3.4,4.1,3.2,7.1c-0.1,1.7-0.8,3.3-1.5,4.9c-2,4.8-2.9,9.8-2.8,15c0.1,6.5,2.8,11.5,8.7,14.6c6.8,3.6,16-0.6,17.8-8.1
	c0.6-2.7,1.1-5.3,1-8.1c-0.1-3.3,0.3-6.5,1-9.7c2.4-11.5,10.7-18.8,22.5-19.5c14.2-0.9,24.1,5.3,29.6,18.6c0.7,1.6,1.4,2.1,3,1.9
	c1.2-0.1,2.4-0.2,3.6,0c3.8,0.5,6.6,3.4,6.9,7.1c0.3,3.5-1.8,7.8-5.2,7.8c-7.1,0-8.8,4.7-10.7,9.9c-0.9,2.4-2.4,4.6-3.9,6.6
	c-2.3,3-6.2,3.7-9.1,1.9c-3-1.8-4.1-5.3-2.7-8.9c0.6-1.4,1.4-2.7,2.1-4.1c2.1-4.2,3.1-8.6,2.5-13.4
	C595,404.3,588.7,401.2,582.2,401.1z"/>
<path class="st3" d="M967.4,791c-0.1,16.2-13.3,29.4-29.7,29.6c-16.5,0.1-30.5-13.6-30.6-30c-0.1-16.3,13.6-30,30-29.8
	C953.9,760.9,967.5,774.5,967.4,791z M937.2,804.5c8,0.1,14.2-5.8,14.3-13.5c0-7.8-6.4-14.2-14.4-14.3c-7.7,0-13.8,5.8-13.9,13.3
	C923,797.9,929.2,804.3,937.2,804.5z"/>
<path class="st3" d="M841.2,790.1c0.1-16.3,13.4-29.4,29.8-29.4c16.6,0,30.5,13.7,30.5,30.1c0,16.3-13.8,29.8-30.2,29.7
	C854.6,820.4,841.1,806.7,841.2,790.1z M871.4,804.5c7.8,0.1,13.8-5.7,14-13.2c0.2-7.8-6.2-14.4-14.1-14.5
	c-7.8-0.2-14.3,6-14.4,13.6C856.9,798,863.4,804.4,871.4,804.5z"/>
<path class="st3" d="M803.3,761.8c16.6,0.1,30.5,13.8,30.5,30.1c0,16.3-13.8,29.8-30.2,29.7c-16.7-0.2-30.2-13.8-30.1-30.4
	C773.7,774.9,787,761.7,803.3,761.8z M803.8,805.5c7.8,0,13.8-5.7,13.9-13.3c0.1-7.8-6.2-14.3-14.1-14.5c-7.8-0.1-14.3,6-14.3,13.6
	C789.3,799.1,795.9,805.5,803.8,805.5z"/>
<path class="st4" d="M233.3,663.5l22,22c5.2,5.2,13.7,5.2,18.9,0l22-22c5.2-5.2,5.2-13.7,0-18.9l-22-22c-5.2-5.2-13.7-5.2-18.9,0
	l-22,22C228.1,649.8,228.1,658.3,233.3,663.5z"/>
<path class="st4" d="M233.3,727.6l22,22c5.2,5.2,13.7,5.2,18.9,0l22-22c5.2-5.2,5.2-13.7,0-18.9l-22-22c-5.2-5.2-13.7-5.2-18.9,0
	l-22,22C228.1,713.9,228.1,722.4,233.3,727.6z"/>
<path class="st3" d="M742,923.5l17.3,17.3c2.5,2.5,6.6,2.5,9.1,0l17.3-17.3c2.5-2.5,2.5-6.6,0-9.1l-17.3-17.3
	c-2.5-2.5-6.6-2.5-9.1,0L742,914.4C739.5,916.9,739.5,921,742,923.5z"/>
<circle class="st5" cx="869.3" cy="793.8" r="160.5"/>
</svg>
