<?xml version="1.0" encoding="utf-8"?>
<!-- Generator: Adobe Illustrator 28.0.0, SVG Export Plug-In . SVG Version: 6.00 Build 0)  -->
<svg version="1.1" id="Capa_1" xmlns="http://www.w3.org/2000/svg" xmlns:xlink="http://www.w3.org/1999/xlink" x="0px" y="0px"
	 viewBox="0 0 1080 1080" style="enable-background:new 0 0 1080 1080;" xml:space="preserve">
<style type="text/css">
	.st0{fill:#090909;}
	.st1{fill:#FDFDFD;}
	.st2{fill:#FF5500;}
	.st3{fill:#6EE1EB;}
	.st4{fill:none;stroke:#FF5500;stroke-width:20;stroke-miterlimit:10;}
</style>
<path class="st0" d="M611.7,838.7c-3.8,3.8-7.9,5.7-12.2,7.9c5.3,8.4,5.1,17,1,25.5c-4.2,8.5-10.9,14.4-20,17.3
	c-2.8,0.9-5.7,1-8.5,1.8c-2.6,0.8-4.1,2-5.3,4.6c-4,9.1-10.8,15.3-20.8,17.6c-3.8,0.9-7.6,1-11.3,0.1c-2.3-0.6-3.1,0.1-4,2.1
	c-3.4,8.4-9.7,13.9-18.1,17c-9.2,3.4-16.7,1-23.4-6.2c-7.8-8.4-16.1-16.3-24-24.5c-2.1-2.2-3.4-1-5,0.1
	c-13.9,9.2-28.1,18.1-41.7,27.7c-13.8,9.7-31.3,6.7-41.8-0.9c-7.2-5.2-11.7-12.3-14.8-20.5c-1.7-4.4-1.7-4.3-6.4-3.4
	c-6,1.1-11.9,1.3-17.8-0.1c-14.4-3.4-22.8-12.7-26.2-26.8c-0.7-3.1-1.7-4.3-5.1-4.7C294,872,284,866.8,277.4,856
	c-2.9-4.7-4.6-9.8-4.5-15.5c0.1-4.5,0-4.5-4.7-5.7c-13.1-3.2-22.4-10.7-27-23.6c-2.7-7.5-2.1-15.1-0.4-22.6c0.7-2.9,0.3-4.7-1.9-6.6
	c-4.7-4.2-9.2-8.7-14.2-13.4c-4.8,8.4-9.5,16.4-13.9,24.4c-3.3,6.1-7.3,7.5-13.3,4.2c-18.4-10.2-36.8-20.4-55.2-30.6
	c-6.4-3.5-7.7-7.2-5.3-14c0.7-2,1.9-3.9,3-5.8c28.2-48.7,56.4-97.4,84.6-146c1.9-3.2,3.6-6.2,2.1-10.1c-0.6-1.4-0.2-3.2-0.2-4.9
	c-0.2-172.9-0.4-345.8-0.7-518.8c0-11,2.5-13.5,13.4-13.6c138.4-0.2,276.8-0.3,415.2-0.5c1.6,0,3.3-0.1,4.9,0.2
	c4.7,0.8,7.3,3.8,7.5,8.6c0.1,2.7-0.1,5.4-0.1,8.2c0,192.9,0,385.8-0.1,578.7c0,3.8,0.8,7.1,2.8,10.2c2.6,4.1,5,8.4,7.4,12.6
	c1.9-0.1,3-1.5,4.2-2.5c22.2-17.1,47.2-28.2,74.6-34.1c19-4.1,38.1-4.8,57.4-2.7c79.2,8.6,139.7,66.8,154,138.4
	c11.6,58.1-3,109.9-41.9,154.4c-30.1,34.4-68.5,54.8-113.9,60.3c-59.4,7.3-110.9-10.3-153.1-53.1C632.9,906.7,618,875.4,611.7,838.7
	z M314.4,615.8c13.3,2.6,26.3,3.5,39.4,2.9c6.8-0.3,13.3-1.6,19.7-3.9c6.2-2.2,12-5,17.9-7.9c9.7-4.7,19.8-6.6,30.7-4.9
	c10.8,1.7,21.1,5.3,31.1,9.7c3,1.3,6.1,2.2,9.4,2.3c27.8,1.3,55.5,2.8,83.2,4.2c2.2,0.1,4.5,0,7.3,0c-3.5-6.2-6.7-11.6-9.8-17.2
	c-2.7-5-1.9-10.1,2.1-13.8c1.1-1,2.3-1.7,3.6-2.4c15.7-9,31.5-18,47.2-27c1.4-0.8,2.9-1.6,4.4-2.2c4-1.4,7.6-0.3,10.2,3.1
	c1,1.3,1.8,2.7,2.6,4.2c11.1,19,22.1,37.9,33.2,56.9c0.7,1.1,1,2.7,3.2,3.3c0-2.2,0-4.1,0-6c0-69,0-138.1,0.1-207.1
	c0-111.3,0.1-222.7,0.1-334c0-6.2,0.9-5.9-5.8-5.9c-131.9,0.1-263.8,0.1-395.6,0.2c-1.1,0-2.2,0.1-3.3,0c-2.2-0.2-2.9,1-2.7,2.9
	c0.1,0.7,0,1.5,0,2.2c0.3,162.2,0.5,324.4,0.8,486.6c0,1.3,0.1,2.7,0.2,4.3c2.1-1.2,2.5-2.8,3.3-4.2c4-6.7,7.8-13.5,11.8-20.2
	c3.5-5.8,8.1-7.2,13.8-3.9c18.2,10.9,36.4,21.9,54.4,33c7.1,4.4,7.8,8.2,3.6,15.5c-4.6,8-9.3,16-13.9,24
	C315.7,612.3,314.3,613.6,314.4,615.8z M485.4,632c4.3,5,8.4,8.9,11.6,13.5c3.8,5.4,7.4,10.7,8.8,17.3c1.4,6.4-0.2,11.8-4.6,16.6
	c-4,4.3-9.1,6.6-14.6,7.9c-12.6,2.8-25.3,2.1-37.8-0.5c-14.8-3-28.8-8.6-42.4-15.2c-3.6-1.8-5.7-1-8.5,1.3
	C363,702.2,328,731.4,293,760.7c-9.9,8.3-19.8,16.5-29,25.6c-3,3-5.6,6.2-6.8,10.4c-2.2,7.9,0.6,14.9,7.3,19.5
	c7,4.8,10.8,5.2,18.1-0.8c0.1-0.1,0.3-0.2,0.4-0.3c33.7-24.7,67.3-49.4,101-74.1c1.7-1.3,3.4-2.7,5.5-3.5c3.7-1.3,7.5-0.3,9.8,2.7
	c2.3,3.1,2.1,7.5-0.6,10.5c-1.5,1.6-3.3,2.8-5,4.1c-30.7,22.6-61.5,45.1-92.2,67.7c-2.6,1.9-5.3,3.9-7.6,6.2
	c-4.6,4.5-5.4,10.2-3.4,16.1c2.3,6.4,7.5,10.1,13.8,12.1c5.5,1.7,10,0,14.6-3.4c29.2-21.8,58.6-43.5,88-65.2c1.3-1,2.6-2,4-2.8
	c4.1-2.3,8.6-1.4,11.2,2.2c2.4,3.3,2,7.8-1.2,10.9c-1.1,1.1-2.5,2.1-3.8,3.1c-26.6,19.7-53.1,39.3-79.7,59c-2.3,1.7-4.6,3.5-7,5.2
	c-2.9,2-3.7,4.7-2.9,8.1c1.6,7.1,5.5,12.2,12.5,14.5c7.5,2.5,14.5,1.8,21.1-3c24.2-17.7,48.4-35.3,72.6-52.9
	c1.8-1.3,3.5-2.6,5.5-3.5c3.5-1.7,7.5-0.6,9.8,2.3c2.4,3.1,2.4,7.5-0.3,10.5c-1.4,1.6-3.3,2.9-5,4.2c-19.4,14.1-38.7,28.2-58.1,42.3
	c-2.5,1.8-5,3.6-6.9,6.1c-1.9,2.5-2.4,5.1-1.2,8.1c1.8,4.4,4,8.5,7.6,11.8c6.6,6.2,13.9,7.1,21.7,2.4c14.2-8.5,27.6-18.1,41.6-27
	c2.5-1.6,3-3,1.6-5.7c-2.8-5.2-4.1-10.8-2.7-16.8c2.5-11,8.7-18.6,19.7-21.7c2.2-0.6,2.6-1.5,2.2-3.3c-0.4-2.3-0.8-4.6-0.6-7
	c1-9.9,9-19.7,18.7-22.7c4.5-1.4,4.5-1.4,4-6.5c-0.3-2.7-0.2-5.4,0.5-8.1c3.6-14.2,20.5-23.4,34.8-18.9c4.2,1.3,4.2,1.3,6.3-2.6
	c0.2-0.3,0.4-0.6,0.5-0.9c8.4-16.4,33-21.3,46-5.8c4.6,5.6,10.1,10.4,15,15.8c2,2.2,3.5,3.1,6.3,1.1c2.8-2,5.9-3.5,9-5.1
	c2.1-1.1,3.2-2.4,3.7-4.9c2-10.3,4.9-20.5,9.2-30.1c1.5-3.4,0.9-6-0.8-9c-7.4-12.5-14.5-25.1-21.7-37.7
	c-11.6-20.1-23.2-40.3-34.7-60.4c-1.1-1.9-2-3.4-4.8-3.5C535.7,634.7,511.1,633.3,485.4,632z M954,816.2
	c0.1-30.8-4.8-53.9-12.9-72.5c-29.2-66.5-98.3-103.7-169.8-94.3c-38.7,5.1-72.2,21.6-99,50.2c-38.5,41-53.5,89.7-42.2,145
	c14.7,72.1,77.8,124,154.2,125.8c26.2,0.6,51.4-4.5,74.8-16.2C919.6,923.8,950.8,874.2,954,816.2z M252.9,772.2
	c1.3-1,2.5-1.9,3.6-2.8c45.7-38.2,91.3-76.5,137-114.7c5.8-4.9,7.2-5.1,13.5-1.7c11.8,6.4,24.1,11.6,37.1,15.3
	c12.7,3.6,25.6,5.3,38.7,2.5c6.9-1.5,7.8-3.7,4.2-9.9c-5.2-8.9-12.2-16.2-20.5-22.4c-12.6-9.3-26.8-15-41.9-18.9
	c-9.9-2.5-19.4-1.4-28.4,3.5c-4.9,2.7-10.2,4.7-15.4,6.8c-13.3,5.3-27.1,6.4-41.2,5.5c-9.5-0.6-18.6-2.8-27.9-4.4
	c-6.3-1.1-6.3-1.2-9.7,4.5c-13.9,24-27.9,48-41.9,72c-8.3,14.3-16.5,28.6-24.9,42.8c-1.3,2.2-1.6,3.6,0.6,5.5
	C241.6,761.3,247.2,766.8,252.9,772.2z M199.2,778.9c0.8-1.2,1.4-2.1,1.9-3c36.7-63.2,73.4-126.4,110.1-189.7c2.1-3.6,2.1-3.7-1.7-6
	c-11.6-7.1-23.3-14.1-34.9-21.1c-4.8-2.9-4.8-2.9-7.8,2.1c-36.4,62.8-72.7,125.6-109.1,188.4c-0.9,1.5-2.1,2.9-2.4,5.1
	C170,762.8,184.5,770.8,199.2,778.9z M560.7,597.7c24.3,42.3,48.2,84,72.5,126.1c8.2-14.1,17.4-26.2,28.1-37.2
	c2.9-3,2.9-3.1,0.8-6.7c-19.7-33.9-39.4-67.7-59.2-101.5c-0.7-1.2-1-2.8-2.9-3.3C587.2,582.5,574.1,590,560.7,597.7z M518.9,794.3
	c-9.5-0.3-14.5,7.4-10.4,15.5c1.7,3.4,3.8,6.6,6.6,9.2c6.2,5.8,12.2,11.9,18.4,17.8c11.4,11.1,22.9,22.2,34.4,33.3
	c4,3.9,6.9,4.2,11.7,1.4c1.4-0.8,2.7-1.8,3.9-3c4.3-4.3,5.8-8.9,0.1-14.5c-7.4-7.2-14.5-14.7-21.7-22.1
	c-10.3-10.5-20.6-20.9-30.8-31.5C527.4,797,523.2,795.3,518.9,794.3z M485.4,837c0.1,5,2.1,9.1,5.6,12.6c14.5,14.5,29,29,43.5,43.4
	c0.8,0.8,1.6,1.5,2.5,2.1c4.1,2.6,8.4,2.2,12-1c6.4-5.7,6.6-12.6,0.2-18.8c-14.5-14.2-29.1-28.3-43.7-42.4c-2.2-2.2-4.8-3.9-7.8-4.8
	C491,826,485.4,830.2,485.4,837z M557.2,776.5c-4.4,0.2-8.3,3.1-10.8,7.9c-2.3,4.5,0,8,3.1,11.2c10.9,11.2,21.8,22.4,32.8,33.4
	c5.1,5.2,6.9,5.2,14,1.7c4.7-2.3,6.1-7.2,4.1-12.1c-1.1-2.5-2.6-4.8-4.4-6.8c-9.8-11.2-20.5-21.6-30.7-32.4
	C563.5,777.4,561.2,776.5,557.2,776.5z M516.8,905.9c0.2-5.2-2.7-9.1-6-12.4c-9.7-10-19.7-19.8-29.6-29.6c-3.6-3.5-9.4-3.9-12.9-1.2
	c-4.3,3.3-5.8,9.5-3.2,14.1c1,1.9,2.3,3.7,3.8,5.2c10.4,10.4,20.7,20.8,31,31.3c2.8,2.8,5.8,4.6,9.7,2.7
	C513.7,913.9,516.6,910.8,516.8,905.9z"/>
<path class="st1" d="M314.4,615.8c-0.1-2.2,1.3-3.6,2.1-5.1c4.6-8,9.3-16,13.9-24c4.2-7.3,3.5-11.1-3.6-15.5
	c-18-11.2-36.2-22.1-54.4-33c-5.6-3.4-10.3-2-13.8,3.9c-4,6.7-7.8,13.5-11.8,20.2c-0.8,1.3-1.2,3-3.3,4.2c-0.1-1.7-0.2-3-0.2-4.3
	c-0.3-162.2-0.5-324.4-0.8-486.6c0-0.7,0.1-1.5,0-2.2c-0.2-2,0.4-3.1,2.7-2.9c1.1,0.1,2.2,0,3.3,0c131.9-0.1,263.8-0.1,395.6-0.2
	c6.7,0,5.8-0.4,5.8,5.9c0,111.3-0.1,222.7-0.1,334c0,69,0,138.1-0.1,207.1c0,1.9,0,3.9,0,6c-2.2-0.6-2.5-2.1-3.2-3.3
	c-11.1-19-22.1-37.9-33.2-56.9c-0.8-1.4-1.6-2.9-2.6-4.2c-2.6-3.4-6.2-4.5-10.2-3.1c-1.5,0.5-3,1.4-4.4,2.2c-15.8,9-31.5,18-47.2,27
	c-1.3,0.7-2.5,1.5-3.6,2.4c-4,3.7-4.9,8.8-2.1,13.8c3,5.5,6.3,11,9.8,17.2c-2.9,0-5.1,0.1-7.3,0c-27.7-1.4-55.5-2.9-83.2-4.2
	c-3.3-0.2-6.4-1-9.4-2.3c-10-4.4-20.2-7.9-31.1-9.7c-10.8-1.7-21,0.2-30.7,4.9c-5.9,2.8-11.8,5.7-17.9,7.9
	c-6.4,2.3-12.9,3.5-19.7,3.9C340.7,619.4,327.7,618.4,314.4,615.8z M448.5,178.3c0-0.4,0-0.9,0-1.3c51.2,0,102.4,0,153.6,0
	c2.5,0,5.1,0.2,7.5-0.7c3.6-1.3,5.7-4.1,5.7-7.8c0-3.6-2-6.5-5.6-7.8c-2.5-0.9-5-0.7-7.5-0.7c-102.6,0.6-205.2,1.1-307.8,1.7
	c-1.3,0-2.6,0-3.8,0.1c-4.4,0.6-7.4,3.7-7.6,7.9c-0.2,4.3,2.9,8,7.5,8.6c1.8,0.2,3.6,0.1,5.4,0.1
	C346.8,178.3,397.6,178.3,448.5,178.3z M448,408.5c0,0.4,0,0.8,0,1.2c51.6,0,103.1,0,154.7,0c2,0,4,0.1,6-0.2
	c4.1-0.6,6.9-3.8,7.1-7.7c0.2-3.9-2.4-7.5-6.3-8.4c-1.6-0.4-3.2-0.3-4.9-0.3c-103.9-0.4-207.7-0.8-311.6-1.2c-1.6,0-3.3-0.1-4.9,0.2
	c-4.2,0.7-7.3,4.2-7.2,8.3c0.1,3.8,2.9,7.3,6.9,8c1.8,0.3,3.6,0.3,5.4,0.3C344.9,408.5,396.4,408.5,448,408.5z M449.6,119.3
	c0,0.1,0,0.1,0,0.2c51.8-0.3,103.5-0.6,155.3-0.9c6.7,0,10.5-3.1,10.5-8.3c0-5.2-3.8-8.3-10.5-8.4c-7.6,0-15.3,0-22.9,0.1
	c-95.7,0.4-191.4,0.9-287.1,1.3c-2.2,0-4.3-0.1-6.4,0.8c-3.5,1.4-5.6,4.4-5.5,8c0.1,3.6,2.4,6.4,5.9,7.6c2.1,0.7,4.3,0.6,6.5,0.6
	C346.8,119.8,398.2,119.6,449.6,119.3z M449.7,234.8c0,0.1,0,0.1,0,0.2c51.2-0.3,102.4-0.6,153.6-0.9c1.8,0,3.7,0.1,5.4-0.3
	c4-0.8,6.7-4.2,6.6-8.2c0-4-2.8-7.3-6.8-8c-1.9-0.3-4-0.2-6-0.2c-33.4,0.1-66.8,0.2-100.2,0.3c-69.2,0.3-138.4,0.7-207.6,1
	c-2.2,0-4.3-0.1-6.4,0.8c-3.4,1.5-5.5,4.5-5.4,8c0.1,3.5,2.5,6.4,6,7.6c2.1,0.7,4.3,0.6,6.5,0.6
	C346.9,235.4,398.3,235.1,449.7,234.8z M459.6,487.8c-0.4,0.7-0.5,1.1-0.8,1.3c-6.4,6.9-12.9,13.8-19.3,20.8
	c-1.4,1.5-2.8,2.9-3.9,4.5c-2.5,3.6-2,8.1,1,10.9c3,2.8,7.5,3,11,0.3c1.3-1,2.4-2.2,3.5-3.4c6.7-7.2,13.4-14.3,20-21.6
	c1.7-1.9,2.9-2,4.9-0.4c6.8,5.4,13.8,10.7,20.8,15.8c4.9,3.6,8.9,3.1,13-1.4c3.4-3.8,6.6-7.7,9.9-11.6c4-4.7,8-9.3,12.4-14.5
	c2.5,5.7,4.7,10.8,6.9,16c2.8,6.5,5,7.9,12.1,7.9c17.8-0.2,35.6-0.4,53.4-0.7c1.4,0,2.9-0.1,4.3-0.4c4.2-1,6.7-4.1,6.6-8.2
	c0-4-2.5-7-6.8-8.1c-2-0.5-4-0.3-6-0.3c-13.4,0.2-26.9,0.4-40.3,0.6c-9,0.1-9,0.1-12.4-8c-2.4-5.7-4.7-11.4-7.4-17
	c-3.3-7.1-9.9-8-15.3-2.3c-0.7,0.8-1.4,1.6-2.1,2.5c-6.8,8-13.6,16.1-20.5,24.1c-1,1.2-1.8,2.8-3.8,3.4c-5.1-3.9-10.4-8-16-12.2
	c4.3-4.7,8.3-8.8,12.1-13.2c4.5-5.2,3.9-10.5-1.9-14.2c-6-3.8-12.1-7.4-18.2-10.9c-5.6-3.2-9.4-2.4-13.2,2.8
	c-4.5,6.1-9,12.3-13.3,18.6c-3.6,5.2-2.9,9.3,1.9,13.4C454.8,484.2,457.3,486,459.6,487.8z M497.1,352.3c0-0.4,0-0.9,0-1.3
	c35.6,0,71.2,0,106.8,0c1.6,0,3.3,0,4.9-0.2c4.4-0.6,7.4-3.9,7.5-8c0.1-4-2.9-7.6-7.2-8.3c-1.6-0.3-3.3-0.2-4.9-0.2
	c-71.9,0.4-143.9,0.8-215.8,1.2c-1.6,0-3.3,0.1-4.8,0.5c-4.1,1.1-6.6,4.5-6.4,8.4c0.2,3.8,2.7,6.6,6.6,7.7c2.2,0.6,4.3,0.4,6.5,0.4
	C425.9,352.3,461.5,352.3,497.1,352.3z M496.3,293.9c0-0.4,0-0.8,0-1.2c35.8,0,71.6,0,107.4,0c2.3,0,4.7,0.2,7-0.7
	c3.5-1.4,5.7-4.4,5.6-7.9c-0.1-3.7-2.6-6.9-6.4-7.8c-1.9-0.4-4-0.5-5.9-0.5c-10.7,0.1-21.4,0.2-32.2,0.3
	c-60.9,0.4-121.7,0.7-182.6,1.1c-1.5,0-2.9,0-4.4,0.1c-4.6,0.6-7.8,4-7.7,8.3c0.1,4.1,3.1,7.5,7.5,8.1c1.8,0.2,3.6,0.1,5.4,0.1
	C425.5,293.9,460.9,293.9,496.3,293.9z M357.2,310.5c-0.1-19.9-16.6-36.9-36.1-36c-22.7,1-35.7,18.5-35.7,36.6
	c0,19.9,16.6,36.1,36.2,35.9C341.4,346.9,357.3,330.5,357.2,310.5z M344.8,524.9c0,0,0-0.1,0-0.1c17.4,0,34.8,0,52.2,0
	c2.2,0,4.3,0.1,6.5-0.7c3.8-1.4,6-4.5,5.8-8.3c-0.2-3.5-2.5-6.3-6.1-7.5c-2.3-0.8-4.7-0.6-7-0.6c-34.5,0.2-68.9,0.3-103.4,0.5
	c-1.4,0-2.9,0-4.3,0.2c-4.2,0.6-6.9,3.7-7.1,7.7c-0.2,4,2.3,7.5,6.3,8.4c1.7,0.4,3.6,0.3,5.4,0.3
	C310.3,524.9,327.6,524.9,344.8,524.9z M343.6,467.1c0,0,0-0.1,0-0.1c17.2,0,34.5,0,51.7,0c2.2,0,4.3,0.1,6.5-0.6
	c3.8-1.4,6-4.4,5.9-8.2c-0.1-3.6-2.4-6.4-6-7.6c-2.3-0.8-4.7-0.6-7-0.6c-34.5,0.2-68.9,0.3-103.4,0.5c-1.4,0-2.9,0-4.3,0.2
	c-4.1,0.6-7,3.7-7.2,7.6c-0.2,3.9,2.3,7.5,6.3,8.4c1.7,0.4,3.6,0.4,5.4,0.4C308.8,467.2,326.2,467.1,343.6,467.1z"/>
<path class="st1" d="M485.4,632c25.7,1.3,50.4,2.7,75,3.8c2.8,0.1,3.7,1.6,4.8,3.5c11.6,20.1,23.1,40.3,34.7,60.4
	c7.2,12.6,14.4,25.2,21.7,37.7c1.8,3,2.4,5.6,0.8,9c-4.3,9.7-7.1,19.8-9.2,30.1c-0.5,2.5-1.6,3.8-3.7,4.9c-3.1,1.6-6.2,3.1-9,5.1
	c-2.8,2-4.3,1.1-6.3-1.1c-4.9-5.4-10.3-10.2-15-15.8c-13-15.5-37.5-10.6-46,5.8c-0.2,0.3-0.4,0.6-0.5,0.9c-2.1,3.9-2.1,3.9-6.3,2.6
	c-14.4-4.4-31.2,4.7-34.8,18.9c-0.7,2.7-0.7,5.4-0.5,8.1c0.5,5,0.5,5-4,6.5c-9.6,3-17.6,12.8-18.7,22.7c-0.2,2.4,0.2,4.7,0.6,7
	c0.3,1.9,0,2.7-2.2,3.3c-11,3.1-17.2,10.8-19.7,21.7c-1.4,6-0.1,11.6,2.7,16.8c1.5,2.7,1,4.1-1.6,5.7c-14,8.8-27.4,18.4-41.6,27
	c-7.7,4.6-15,3.8-21.7-2.4c-3.5-3.3-5.8-7.4-7.6-11.8c-1.3-3.1-0.7-5.6,1.2-8.1c1.9-2.5,4.4-4.3,6.9-6.1
	c19.4-14.1,38.7-28.2,58.1-42.3c1.8-1.3,3.6-2.6,5-4.2c2.7-3,2.7-7.4,0.3-10.5c-2.3-2.9-6.3-4-9.8-2.3c-1.9,0.9-3.7,2.2-5.5,3.5
	c-24.2,17.6-48.5,35.2-72.6,52.9c-6.6,4.8-13.6,5.6-21.1,3c-7-2.4-10.9-7.5-12.5-14.5c-0.8-3.4,0-6.1,2.9-8.1c2.4-1.7,4.7-3.5,7-5.2
	c26.6-19.7,53.1-39.3,79.7-59c1.3-1,2.7-1.9,3.8-3.1c3.1-3.1,3.6-7.6,1.2-10.9c-2.5-3.5-7-4.4-11.2-2.2c-1.4,0.8-2.7,1.8-4,2.8
	c-29.3,21.7-58.7,43.3-88,65.2c-4.6,3.4-9.1,5.2-14.6,3.4c-6.4-2-11.5-5.6-13.8-12.1c-2.1-5.8-1.3-11.5,3.4-16.1
	c2.3-2.3,5-4.2,7.6-6.2c30.7-22.6,61.5-45.1,92.2-67.7c1.8-1.3,3.6-2.6,5-4.1c2.8-3,3-7.4,0.6-10.5c-2.2-3-6.1-4-9.8-2.7
	c-2.1,0.8-3.7,2.2-5.5,3.5c-33.7,24.7-67.3,49.4-101,74.1c-0.1,0.1-0.3,0.2-0.4,0.3c-7.3,6-11.1,5.6-18.1,0.8
	c-6.7-4.6-9.6-11.5-7.3-19.5c1.2-4.2,3.8-7.4,6.8-10.4c9.1-9.1,19.1-17.3,29-25.6c34.9-29.3,69.9-58.5,104.8-87.8
	c2.8-2.3,4.8-3.1,8.5-1.3c13.5,6.6,27.5,12.2,42.4,15.2c12.6,2.6,25.2,3.3,37.8,0.5c5.6-1.2,10.7-3.5,14.6-7.9
	c4.4-4.8,5.9-10.2,4.6-16.6c-1.4-6.6-5-12-8.8-17.3C493.7,640.9,489.6,637,485.4,632z M516.3,704.8c-3-0.2-7.9,0.4-12.8,1
	c-24.7,2.7-45.3,13.4-61.7,32.1c-1.4,1.6-2.7,3.4-3.4,5.5c-1.1,3.2-0.1,6.3,2.4,8.3c2.5,1.9,6,2,8.6,0.1c0.9-0.6,1.7-1.4,2.4-2.2
	c6.8-8,15.1-14.1,24.6-18.5c25.3-12,51.2-11.8,77.3-3c1.4,0.5,2.7,1.2,4.1,1.6c4.4,1.2,8.7-0.9,10.3-4.9c1.5-3.9,0.1-7.9-3.8-10.3
	c-1.4-0.8-2.9-1.4-4.5-2C546.4,707.1,532.4,705.1,516.3,704.8z"/>
<path class="st1" d="M252.9,772.2c-5.7-5.5-11.3-11-17.1-16.2c-2.2-1.9-1.8-3.4-0.6-5.5c8.4-14.2,16.6-28.5,24.9-42.8
	c13.9-24,27.9-48,41.9-72c3.3-5.7,3.3-5.6,9.7-4.5c9.3,1.6,18.5,3.8,27.9,4.4c14.1,0.8,27.9-0.3,41.2-5.5c5.2-2.1,10.5-4.1,15.4-6.8
	c9-4.9,18.5-6.1,28.4-3.5c15.1,3.9,29.3,9.6,41.9,18.9c8.2,6.1,15.2,13.5,20.5,22.4c3.6,6.1,2.7,8.4-4.2,9.9
	c-13.1,2.8-26,1.1-38.7-2.5c-12.9-3.7-25.3-8.9-37.1-15.3c-6.3-3.4-7.7-3.2-13.5,1.7c-45.7,38.3-91.3,76.5-137,114.7
	C255.4,770.3,254.2,771.2,252.9,772.2z"/>
<path class="st1" d="M199.2,778.9c-14.7-8.1-29.3-16.2-43.8-24.2c0.3-2.2,1.5-3.6,2.4-5.1c36.3-62.8,72.7-125.6,109.1-188.4
	c2.9-5,2.9-5,7.8-2.1c11.6,7,23.3,14.1,34.9,21.1c3.8,2.3,3.8,2.4,1.7,6c-36.7,63.2-73.4,126.4-110.1,189.7
	C200.6,776.9,200,777.7,199.2,778.9z"/>
<path class="st1" d="M560.7,597.7c13.5-7.7,26.5-15.2,39.4-22.6c1.9,0.5,2.2,2.1,2.9,3.3c19.7,33.8,39.5,67.7,59.2,101.5
	c2.1,3.6,2.1,3.7-0.8,6.7c-10.7,11-19.9,23.1-28.1,37.2C608.8,681.6,585,639.9,560.7,597.7z"/>
<path class="st1" d="M518.9,794.3c4.3,0.9,8.5,2.7,12,6.2c10.2,10.5,20.6,21,30.8,31.5c7.2,7.4,14.3,14.9,21.7,22.1
	c5.8,5.6,4.2,10.2-0.1,14.5c-1.1,1.1-2.5,2.1-3.9,3c-4.8,2.8-7.7,2.5-11.7-1.4c-11.5-11.1-22.9-22.2-34.4-33.3
	c-6.1-5.9-12.2-12-18.4-17.8c-2.8-2.7-4.9-5.8-6.6-9.2C504.4,801.7,509.3,794.1,518.9,794.3z"/>
<path class="st1" d="M485.4,837c0-6.8,5.7-11,12.2-8.9c3,0.9,5.5,2.7,7.8,4.8c14.6,14.1,29.2,28.2,43.7,42.4
	c6.4,6.3,6.2,13.1-0.2,18.8c-3.6,3.2-7.9,3.6-12,1c-0.9-0.6-1.7-1.4-2.5-2.1c-14.5-14.5-29-29-43.5-43.4
	C487.4,846.1,485.5,842,485.4,837z"/>
<path class="st1" d="M557.2,776.5c4,0,6.3,0.9,8.1,2.8c10.2,10.8,20.9,21.2,30.7,32.4c1.8,2.1,3.3,4.3,4.4,6.8
	c2.1,4.9,0.7,9.8-4.1,12.1c-7.1,3.5-8.9,3.5-14-1.7c-11-11.1-21.9-22.3-32.8-33.4c-3-3.1-5.4-6.7-3.1-11.2
	C548.9,779.6,552.8,776.6,557.2,776.5z"/>
<path class="st1" d="M516.8,905.9c-0.2,4.9-3.1,8-7.2,10c-3.8,1.9-6.9,0.1-9.7-2.7c-10.3-10.5-20.7-20.9-31-31.3
	c-1.6-1.6-2.8-3.3-3.8-5.2c-2.5-4.6-1.1-10.8,3.2-14.1c3.5-2.7,9.3-2.3,12.9,1.2c10,9.8,19.9,19.6,29.6,29.6
	C514.1,896.7,517,900.7,516.8,905.9z"/>
<path class="st0" d="M448.5,178.3c-50.8,0-101.7,0-152.5,0c-1.8,0-3.7,0.1-5.4-0.1c-4.6-0.6-7.7-4.2-7.5-8.6
	c0.2-4.1,3.2-7.3,7.6-7.9c1.3-0.2,2.5-0.1,3.8-0.1c102.6-0.6,205.2-1.1,307.8-1.7c2.5,0,5.1-0.2,7.5,0.7c3.6,1.4,5.6,4.2,5.6,7.8
	c0,3.6-2.1,6.4-5.7,7.8c-2.5,0.9-5,0.7-7.5,0.7c-51.2,0-102.4,0-153.6,0C448.5,177.5,448.5,177.9,448.5,178.3z"/>
<path class="st0" d="M448,408.5c-51.6,0-103.1,0-154.7,0c-1.8,0-3.7,0.1-5.4-0.3c-4-0.7-6.9-4.1-6.9-8c-0.1-4.1,2.9-7.6,7.2-8.3
	c1.6-0.3,3.3-0.2,4.9-0.2c103.9,0.4,207.7,0.8,311.6,1.2c1.6,0,3.3,0,4.9,0.3c3.9,0.9,6.5,4.5,6.3,8.4c-0.2,4-2.9,7.1-7.1,7.7
	c-2,0.3-4,0.2-6,0.2c-51.6,0-103.1,0-154.7,0C448,409.3,448,408.9,448,408.5z"/>
<path class="st0" d="M449.6,119.3c-51.4,0.3-102.8,0.6-154.2,0.9c-2.2,0-4.4,0.1-6.5-0.6c-3.6-1.2-5.8-4.1-5.9-7.6
	c-0.1-3.6,2-6.5,5.5-8c2.1-0.9,4.3-0.7,6.4-0.8c95.7-0.4,191.4-0.9,287.1-1.3c7.6,0,15.3-0.1,22.9-0.1c6.7,0,10.5,3.1,10.5,8.4
	c0,5.2-3.8,8.3-10.5,8.3c-51.8,0.3-103.5,0.6-155.3,0.9C449.6,119.4,449.6,119.3,449.6,119.3z"/>
<path class="st0" d="M449.7,234.8c-51.4,0.3-102.8,0.6-154.2,0.9c-2.2,0-4.4,0.1-6.5-0.6c-3.6-1.2-5.9-4-6-7.6
	c-0.1-3.6,1.9-6.6,5.4-8c2.1-0.9,4.3-0.8,6.4-0.8c69.2-0.3,138.4-0.7,207.6-1c33.4-0.2,66.8-0.2,100.2-0.3c2,0,4-0.1,6,0.2
	c4,0.7,6.8,4.1,6.8,8c0,4-2.6,7.4-6.6,8.2c-1.8,0.3-3.6,0.3-5.4,0.3c-51.2,0.3-102.4,0.6-153.6,0.9
	C449.7,234.9,449.7,234.9,449.7,234.8z"/>
<path class="st0" d="M459.6,487.8c-2.4-1.8-4.9-3.6-7.2-5.5c-4.8-4-5.5-8.1-1.9-13.4c4.3-6.3,8.7-12.5,13.3-18.6
	c3.9-5.2,7.6-6,13.2-2.8c6.1,3.5,12.2,7.1,18.2,10.9c5.8,3.7,6.5,9,1.9,14.2c-3.8,4.4-7.8,8.5-12.1,13.2c5.5,4.2,10.8,8.3,16,12.2
	c2-0.6,2.7-2.2,3.8-3.4c6.9-8,13.7-16,20.5-24.1c0.7-0.8,1.4-1.7,2.1-2.5c5.4-5.7,11.9-4.8,15.3,2.3c2.6,5.6,5,11.3,7.4,17
	c3.4,8.1,3.4,8.1,12.4,8c13.4-0.2,26.9-0.4,40.3-0.6c2,0,4-0.2,6,0.3c4.2,1.1,6.7,4,6.8,8.1c0,4-2.4,7.1-6.6,8.2
	c-1.4,0.3-2.9,0.4-4.3,0.4c-17.8,0.2-35.6,0.5-53.4,0.7c-7,0.1-9.3-1.4-12.1-7.9c-2.2-5.1-4.4-10.3-6.9-16
	c-4.4,5.1-8.4,9.8-12.4,14.5c-3.3,3.9-6.5,7.8-9.9,11.6c-4.1,4.5-8.1,5-13,1.4c-7-5.1-14-10.4-20.8-15.8c-2-1.6-3.2-1.5-4.9,0.4
	c-6.6,7.3-13.3,14.4-20,21.6c-1.1,1.2-2.2,2.4-3.5,3.4c-3.5,2.7-7.9,2.5-11-0.3c-3-2.8-3.5-7.3-1-10.9c1.1-1.6,2.6-3.1,3.9-4.5
	c6.4-6.9,12.9-13.8,19.3-20.8C459.1,488.9,459.2,488.6,459.6,487.8z M478.2,468.3c-4.3-3.2-4.3-3.2-7,0.6c-0.6,0.9-1.2,1.8-1.9,2.6
	c-0.8,1-0.9,1.8,0.3,2.7c1.2,0.9,2.1,1.2,3.2,0C474.6,472.2,476.4,470.3,478.2,468.3z"/>
<path class="st0" d="M497.1,352.3c-35.6,0-71.2,0-106.8,0c-2.2,0-4.4,0.2-6.5-0.4c-3.9-1-6.4-3.9-6.6-7.7c-0.2-3.9,2.3-7.3,6.4-8.4
	c1.6-0.4,3.2-0.5,4.8-0.5c71.9-0.4,143.9-0.8,215.8-1.2c1.6,0,3.3-0.1,4.9,0.2c4.3,0.7,7.3,4.3,7.2,8.3c-0.1,4.1-3.1,7.4-7.5,8
	c-1.6,0.2-3.3,0.2-4.9,0.2c-35.6,0-71.2,0-106.8,0C497.1,351.4,497.1,351.8,497.1,352.3z"/>
<path class="st0" d="M496.3,293.9c-35.4,0-70.8,0-106.3,0c-1.8,0-3.7,0.1-5.4-0.1c-4.3-0.6-7.4-4-7.5-8.1c-0.1-4.3,3-7.8,7.7-8.3
	c1.4-0.2,2.9-0.1,4.4-0.1c60.9-0.4,121.7-0.7,182.6-1.1c10.7-0.1,21.4-0.2,32.2-0.3c2,0,4,0,5.9,0.5c3.8,0.9,6.4,4.1,6.4,7.8
	c0.1,3.5-2.1,6.5-5.6,7.9c-2.3,0.9-4.6,0.7-7,0.7c-35.8,0-71.6,0-107.4,0C496.3,293.1,496.3,293.5,496.3,293.9z"/>
<path class="st0" d="M357.2,310.5c0.1,20-15.8,36.4-35.5,36.6c-19.7,0.2-36.2-16.1-36.2-35.9c0-18.1,13-35.6,35.7-36.6
	C340.6,273.6,357.1,290.6,357.2,310.5z M320.8,330c10.8,0.2,19.5-8.1,19.8-18.9c0.3-10.5-8.1-19.3-18.5-19.5
	c-10.9-0.2-19.5,8.1-19.6,18.9C302.2,321.3,310.2,329.8,320.8,330z"/>
<path class="st0" d="M344.8,524.9c-17.2,0-34.5,0-51.7,0c-1.8,0-3.7,0.1-5.4-0.3c-4-0.9-6.5-4.4-6.3-8.4c0.2-4,2.9-7.1,7.1-7.7
	c1.4-0.2,2.9-0.2,4.3-0.2c34.5-0.2,68.9-0.4,103.4-0.5c2.4,0,4.7-0.2,7,0.6c3.6,1.2,5.9,4,6.1,7.5c0.2,3.8-2,6.8-5.8,8.3
	c-2.1,0.8-4.3,0.7-6.5,0.7c-17.4,0-34.8,0-52.2,0C344.8,524.8,344.8,524.9,344.8,524.9z"/>
<path class="st0" d="M343.6,467.1c-17.4,0-34.8,0-52.3,0c-1.8,0-3.7,0-5.4-0.4c-4-1-6.5-4.5-6.3-8.4c0.2-4,3.1-7,7.2-7.6
	c1.4-0.2,2.9-0.2,4.3-0.2c34.5-0.2,68.9-0.4,103.4-0.5c2.4,0,4.7-0.2,7,0.6c3.6,1.2,5.9,4,6,7.6c0.2,3.8-2.1,6.8-5.9,8.2
	c-2.1,0.8-4.3,0.6-6.5,0.6c-17.2,0-34.5,0-51.7,0C343.6,467.1,343.6,467.1,343.6,467.1z"/>
<path class="st0" d="M516.3,704.8c16.1,0.3,30.1,2.3,43.4,7.6c1.5,0.6,3.1,1.2,4.5,2c3.9,2.3,5.3,6.4,3.8,10.3
	c-1.6,4-5.9,6.1-10.3,4.9c-1.4-0.4-2.7-1.1-4.1-1.6c-26.2-8.8-52-8.9-77.3,3c-9.5,4.5-17.8,10.5-24.6,18.5c-0.7,0.8-1.5,1.6-2.4,2.2
	c-2.6,1.9-6.2,1.8-8.6-0.1c-2.6-2-3.5-5.1-2.4-8.3c0.7-2.1,2-3.9,3.4-5.5c16.4-18.7,37-29.4,61.7-32.1
	C508.4,705.2,513.3,704.6,516.3,704.8z"/>
<path class="st2" d="M792.3,944.3c-66.4,0.1-121.9-46-133.2-109.3c-10.1-56.5,17.4-114.4,68.4-142c43.2-23.4,87.4-24.2,130.7-1
	c36.4,19.5,58.8,50.7,66.6,91.4c14,72.7-34.4,144.6-110.5,158.7C806.5,943.5,798.6,944.1,792.3,944.3z M791.9,692.4
	c-5,0-12.1,0.4-19.1,1.8c-55.8,10.4-92.3,55.2-97.8,102.2c-4.7,40.1,7.1,74.9,37.6,101.3c38.4,33.3,82.3,38.6,128.5,18.2
	c50.9-22.5,78.5-79.1,66.4-133.4C895.8,729.7,848.9,692.4,791.9,692.4z"/>
<path class="st1" d="M478.2,468.3c-1.8,2-3.6,3.9-5.4,5.9c-1.1,1.2-2.1,0.9-3.2,0c-1.1-0.9-1-1.7-0.3-2.7c0.6-0.9,1.3-1.7,1.9-2.6
	C473.9,465.1,473.9,465.1,478.2,468.3z"/>
<path class="st1" d="M320.8,330c-10.5-0.2-18.5-8.7-18.3-19.5c0.2-10.8,8.7-19,19.6-18.9c10.4,0.2,18.7,9,18.5,19.5
	C340.3,321.9,331.5,330.2,320.8,330z"/>
<path class="st2" d="M792.6,859c-8.3,8.5-15.8,16.3-23.4,24.1c-2.8,2.9-5.6,5.6-9,7.9c-3.8,2.6-7.7,2.9-11.8,0.9
	c-2.6-1.3-5-2.9-7.1-4.9c-9-8.9-18.2-17.8-27.2-26.7c-6.3-6.3-6.8-10.6-2.1-18.4c1.8-3,4-5.6,6.4-8.1c6.8-7,13.7-14,20.5-21.1
	c1.1-1.2,2.5-2.1,3.2-4.1c-7.6-7.4-15.2-14.8-22.9-22.3c-2.9-2.8-5.6-5.7-7.9-9c-2.7-4-2.9-8.1-0.8-12.3c1.3-2.6,3-5,5.1-7
	c8.8-8.9,17.6-17.9,26.4-26.8c6.5-6.5,10.6-7,18.3-2.3c3.1,1.9,5.9,4.2,8.5,6.8c7.1,7,14.4,13.9,21.4,21c2,2,3.2,2.2,5.2,0.1
	c7.4-7.8,14.9-15.3,22.4-23c2.7-2.7,5.4-5.3,8.6-7.5c3.9-2.7,8-3,12.3-0.8c2.6,1.3,5,3,7.1,5c8.9,8.8,17.8,17.6,26.7,26.5
	c6.6,6.6,7,10.8,2.1,18.8c-1.8,2.9-4,5.6-6.5,8c-7.4,7.5-14.8,15-22.1,22.5c-3.8,3.9-3.7,3.1,0.2,7c8.2,8.2,16.5,16.4,24.6,24.7
	c6.7,6.9,9.5,12.7-0.3,23.1c-9,9.5-18.4,18.6-27.7,27.7c-5.8,5.7-10.2,6.1-17.1,2c-3.5-2-6.5-4.6-9.3-7.5
	C808.6,875.3,800.9,867.4,792.6,859z M752.7,746.1c-1.2,0-2.1,0.5-2.9,1.3c-6.2,6.3-12.6,12.6-18.7,19.1c-2.3,2.4-2.2,4.2-0.2,6.8
	c1,1.3,2.1,2.5,3.3,3.6c8,7.9,16.1,15.7,24.1,23.6c6.1,6.1,6.2,10.1,0.2,16.2c-7.2,7.5-14.4,14.8-21.6,22.3c-1.9,2-3.9,3.8-5.6,5.9
	c-2.9,3.4-2.9,5.4,0.2,8.5c5.6,5.7,11.3,11.3,17.1,16.8c3.6,3.5,5.5,3.4,9.3,0c0.9-0.8,1.8-1.8,2.7-2.7c7.9-8.1,15.7-16.2,23.6-24.2
	c5.1-5.2,9.1-5.4,14.8-0.9c1.6,1.2,3,2.6,4.4,4c7.6,7.5,15.3,15,22.8,22.7c5.1,5.2,7.9,4.9,12.1,0.2c4.8-5.2,10-10,15-15.1
	c4-4.1,4-5.9,0.1-10.1c-2.5-2.7-5.1-5.2-7.7-7.7c-6.2-6.2-12.4-12.3-18.5-18.5c-4.8-4.9-5-7.7-1.7-13.5c1.7-3,3.9-5.7,6.3-8.1
	c7.2-7.2,14.2-14.6,21.4-21.7c5.9-5.8,5.8-8.1,0.1-13.3c-5.1-4.6-9.8-9.7-14.8-14.5c-3.9-3.8-5.6-3.7-9.7-0.1
	c-0.9,0.9-1.8,1.8-2.7,2.7c-7.6,7.8-15.3,15.5-22.9,23.3c-1.8,1.8-3.6,3.7-6.2,4.3c-4.9,1.2-9.2,0.8-13.1-3
	c-8.3-8.3-16.9-16.5-25.3-24.8C757,747.7,755.3,746,752.7,746.1z"/>
<path class="st3" d="M201.3,310.4l22,22c5.2,5.2,13.7,5.2,18.9,0l22-22c5.2-5.2,5.2-13.7,0-18.9l-22-22c-5.2-5.2-13.7-5.2-18.9,0
	l-22,22C196.1,296.7,196.1,305.2,201.3,310.4z"/>
<path class="st3" d="M201.3,374.5l22,22c5.2,5.2,13.7,5.2,18.9,0l22-22c5.2-5.2,5.2-13.7,0-18.9l-22-22c-5.2-5.2-13.7-5.2-18.9,0
	l-22,22C196.1,360.9,196.1,369.3,201.3,374.5z"/>
<path class="st2" d="M665,950.5l17.3,17.3c2.5,2.5,6.6,2.5,9.1,0l17.3-17.3c2.5-2.5,2.5-6.6,0-9.1L691.4,924c-2.5-2.5-6.6-2.5-9.1,0
	L665,941.3C662.4,943.8,662.4,947.9,665,950.5z"/>
<circle class="st4" cx="790.2" cy="808.5" r="171"/>
</svg>
