<?xml version="1.0" encoding="utf-8"?>
<!-- Generator: Adobe Illustrator 28.0.0, SVG Export Plug-In . SVG Version: 6.00 Build 0)  -->
<svg version="1.1" id="Capa_1" xmlns="http://www.w3.org/2000/svg" xmlns:xlink="http://www.w3.org/1999/xlink" x="0px" y="0px"
	 viewBox="0 0 1080 1080" style="enable-background:new 0 0 1080 1080;" xml:space="preserve">
<style type="text/css">
	.st0{fill:#090909;}
	.st1{fill:#FDFDFD;}
	.st2{fill:#29E4A5;}
	.st3{fill:#6EE1EB;}
	.st4{fill:none;stroke:#29E4A5;stroke-width:20;stroke-miterlimit:10;}
</style>
<path class="st0" d="M224.8,768.7c-4.9,8.5-9.5,16.5-13.9,24.6c-3.3,6-7.3,7.4-13.4,4c-18.3-10.1-36.5-20.2-54.7-30.4
	c-7-3.9-8.4-8-5.3-15.3c0.7-1.7,1.7-3.2,2.6-4.8c28.3-48.8,56.6-97.7,84.9-146.5c1.7-2.9,3.3-5.5,1.8-9.1c-0.6-1.4-0.2-3.2-0.2-4.9
	c-0.2-173.1-0.4-346.2-0.7-519.3c0-0.2,0-0.4,0-0.5c0-10.1,2.7-12.9,13-12.9c69.6-0.1,139.1-0.3,208.7-0.4
	c67.9-0.1,135.9-0.1,203.8-0.2c1.3,0,2.5,0,3.8,0c9,0.1,11.7,2.9,11.7,11.7c-0.1,59.6-0.1,119.2-0.1,178.7c0,135,0,269.9-0.1,404.9
	c0,3.9,0.7,7.4,2.9,10.8c2.7,4.1,5,8.4,7.4,12.5c1.9-0.1,2.8-1.3,3.9-2.2c26.9-20.5,57.1-32.8,90.6-36.8c18.9-2.3,37.9-2.5,56.4,1.6
	c55.4,12.4,98.2,42.5,124.3,93.7c32.9,64.5,22,143.2-26.9,197.4c-30.6,34-68.7,54.6-114,60.1c-58.5,7.1-109.5-9.9-151.5-51.7
	c-25.7-25.6-41-56.8-47.4-92.5c-0.1-0.5-0.2-1-0.5-2c-4,2.7-7.8,5.3-11.9,7.2c8.9,20.1-2,39.9-23.7,43.8c-1.6,0.3-3.1,1.2-4.7,1.3
	c-2.7,0.2-3.4,1.9-4.4,4c-4.2,9.2-10.9,15.7-21.1,18c-3.4,0.8-6.9,1-10.3,0.2c-2.8-0.7-4-0.2-5.2,2.6c-3.1,7.7-9,12.7-16.4,15.9
	c-9.4,4.1-17.9,1.6-24.9-5.9c-7.8-8.4-16.1-16.3-24-24.5c-2.1-2.2-3.5-0.8-5.1,0.3c-13.8,9.1-28,17.7-41.3,27.4
	c-16.2,11.9-43,6.8-53.9-14.4c-1.2-2.4-2.3-4.9-3.3-7.5c-1.5-3.8-1.5-3.8-5.3-3c-6.5,1.4-12.9,1.5-19.4-0.1
	c-13.3-3.3-21.6-11.8-24.9-24.7c-1.3-4.9-3.3-6.4-8.1-7c-11.8-1.4-21.1-7.4-27.1-17.8c-2.8-4.8-4.2-10-3.7-15.6
	c0.2-2.6-0.5-3.6-3.3-4.2c-7.8-1.5-14.8-4.7-20.4-10.6c-7.6-8-10.7-17.5-9.6-28.5c0-0.4,0.1-0.7,0.1-1.1c0.2-3.6,2.6-7.4,1.1-10.5
	c-1.5-3.1-5-5.2-7.6-7.7C230.6,774.2,227.8,771.6,224.8,768.7z M314.4,615.9c13.2,2.5,26.2,3.5,39.3,2.9c6.8-0.3,13.3-1.6,19.7-3.8
	c6.2-2.2,12-5,17.9-7.9c9.7-4.7,19.8-6.7,30.7-4.9c10.8,1.7,21.1,5.3,31.1,9.6c2.7,1.2,5.3,2.2,8.3,2.3c28.8,1.4,57.7,2.9,86.5,4.3
	c1.5,0.1,3,0,5.3,0c-3.5-6.2-6.7-11.6-9.8-17.2c-2.7-4.9-2.1-9.7,1.7-13.4c1.3-1.3,2.9-2.2,4.4-3.1c15.4-8.9,30.9-17.7,46.3-26.5
	c1.4-0.8,2.8-1.6,4.3-2.2c4.4-1.8,8.2-0.7,11,3.2c0.9,1.2,1.5,2.5,2.3,3.7c10.9,18.7,21.7,37.3,32.6,56c0.9,1.5,1.4,3.3,3.4,4.3
	c0.8-2.1,0.4-4.1,0.4-6c0.1-157.7,0.1-315.3,0.2-473c0-23.3,0-46.5,0-69.8c0-4.2-0.1-4.2-4.1-4.3c-0.7,0-1.5,0-2.2,0
	c-131.7,0.1-263.4,0.1-395.1,0.2c-7,0-6-0.8-6,6.1c0.2,161.5,0.5,323,0.7,484.5c0,1.7,0,3.4,0,5.6c2.3-1.2,2.7-2.9,3.4-4.2
	c4.1-6.9,7.9-13.9,12.1-20.7c3.3-5.5,8-6.8,13.5-3.5c18.2,10.9,36.4,21.9,54.4,33c7.2,4.4,7.9,8.2,3.7,15.5c-4.6,8-9.3,16-13.9,24
	C315.7,612.2,314.3,613.5,314.4,615.9z M597.3,788.3c4.5-2.5,8.8-5,13.1-7.3c1.5-0.8,2.4-1.9,2.8-3.7c2.1-11.1,5.4-21.8,9.8-32.2
	c1.1-2.5,0.7-4.3-0.6-6.5c-4.3-7.2-8.4-14.5-12.5-21.7c-14.6-25.5-29.3-51-43.9-76.5c-1.7-3.1-3.5-4.6-7.4-4.7
	c-16.7-0.5-33.4-1.7-50.1-2.5c-7.4-0.4-14.8-0.7-22.2-1c0.1,2.1,1.8,2.9,2.8,4c4.9,5.1,9.2,10.7,12.9,16.9c1.9,3.2,3.1,6.5,3.9,10.1
	c1.3,6.2-0.3,11.5-4.4,16.1c-4.1,4.5-9.3,6.9-15.1,8.1c-12.6,2.8-25.3,2-37.8-0.6c-14.8-3-28.8-8.7-42.4-15.2c-3.5-1.7-5.4-1-8,1.2
	c-35,29.5-70.1,58.8-105.2,88.2c-9.6,8-19.3,16-28.2,24.9c-3,3-5.7,6-7.1,10.2c-2.5,7.6-0.1,15.6,6.8,20.1
	c7.7,5.1,11.2,4.7,18.7-0.8c33.4-24.7,67-49.2,100.5-73.8c1.6-1.2,3.2-2.5,4.9-3.4c4.1-2.2,8.7-1.2,11.1,2.3
	c2.3,3.3,1.8,7.8-1.4,10.9c-1.3,1.3-2.8,2.3-4.3,3.4c-25.6,18.8-51.2,37.6-76.8,56.4c-6.9,5-13.7,10.1-20.5,15.3
	c-3.1,2.3-5.6,5-6.4,9.1c-1.5,7.7,1.1,14,8.1,18.6c7.2,4.7,13.5,4.7,20-0.2c29.5-21.8,59-43.6,88.5-65.4c1.5-1.1,2.9-2.2,4.5-3.1
	c3.9-2.1,8.2-1.2,10.8,2.1c2.5,3.3,2.2,7.8-0.8,10.9c-1.4,1.4-3.1,2.6-4.7,3.7c-27.7,20.5-55.4,41.1-83.2,61.6
	c-1.2,0.9-2.3,1.7-3.5,2.6c-2,1.6-2.9,3.6-2.5,6.2c1.1,7.2,4.6,12.6,11.4,15.4c8,3.2,15.5,2.5,22.6-2.7c24-17.6,48.1-35.1,72.2-52.6
	c1.8-1.3,3.5-2.6,5.5-3.6c3.7-1.8,7.9-0.7,10.2,2.5c2.3,3.1,2.2,7.5-0.7,10.5c-1.3,1.4-3,2.6-4.6,3.8
	c-19.4,14.1-38.7,28.2-58.1,42.3c-2.5,1.8-5.1,3.6-7,6.1c-1.6,2.1-2.7,4.3-1.8,7.1c1.9,5.6,4.6,10.7,9.5,14.3
	c5.2,3.8,12.2,6.6,20.1,1.5c13.7-8.9,27.3-18,41-26.9c3.8-2.5,4-2.7,1.8-6.7c-7.6-14.1,1.1-33.2,16.7-37.7c2.8-0.8,3.3-1.7,2.9-4.3
	c-1.8-13.5,5.8-24.9,18.9-29.2c3.7-1.2,3.8-1.3,3.3-5.4c-0.3-3.1-0.4-6.1,0.4-9.2c3.8-14.1,20.6-23.1,35-18.6
	c3.9,1.2,3.9,1.2,5.9-2.4c4.2-7.6,10-13.2,18.8-15.3c10.9-2.6,20-0.1,27.6,8.2C585.1,775.9,591.2,782,597.3,788.3z M954,815
	c-0.2-32.5-5.3-55.4-15.7-76.9c-30.4-62.9-97.9-97.9-167.5-88.5c-38.5,5.2-71.8,21.6-98.5,50c-38.7,41.1-53.7,89.9-42.3,145.5
	c14.8,71.8,77.8,123.9,154.5,125.4c26,0.5,51-4.5,74.3-16.1C919.7,923.8,950.9,874.1,954,815z M252.9,772.3c1.7-1.3,3-2.3,4.2-3.4
	c45.5-38.1,91-76.3,136.6-114.4c5.6-4.7,7-5.1,13.1-1.6c5.7,3.3,11.7,5.7,17.7,8.4c11.3,5.1,23.1,8.8,35.4,10.3
	c8.3,1,16.7,1.4,24.8-1.3c4.8-1.6,5.5-3.2,3.3-7.6c-0.7-1.5-1.6-2.9-2.5-4.2c-5.2-7.8-11.6-14.4-19.1-20
	c-10.6-7.9-22.7-12.8-35.1-17c-12.9-4.3-25-3.8-37.2,2.8c-17.8,9.7-37.1,13.2-57.4,11c-8.3-0.9-16.5-2.8-24.7-4.1
	c-6.6-1.1-6.6-1.2-9.8,4.3c-11.4,19.6-22.8,39.2-34.2,58.8c-10.8,18.7-21.7,37.4-32.6,56c-1.4,2.3-1.7,3.9,0.6,5.9
	C241.7,761.3,247.1,766.7,252.9,772.3z M269.8,556.2c-38.4,66.4-76.6,132.2-114.8,198.2c7.5,4.2,14.5,8,21.5,11.9
	c6.8,3.8,13.7,7.5,20.4,11.4c1.8,1,3,1,3.8-1c0.4-0.8,0.9-1.6,1.3-2.4c24.3-41.9,48.7-83.8,73-125.6c12.1-20.9,24.2-41.7,36.3-62.6
	c1.1-1.9,2.4-3.4-0.6-5.2C297.3,572.9,283.8,564.7,269.8,556.2z M560.7,597.7c24.4,42.4,48.3,84,72.4,126c1.2-1.9,2.1-3.2,3-4.6
	c7-11.5,15.3-22.1,24.6-31.8c3.6-3.7,3.6-3.7,1.1-8c-19.4-33.2-38.7-66.4-58.1-99.7c-0.9-1.5-1.5-3.3-3.3-4.7
	C587.3,582.4,574.2,589.9,560.7,597.7z M507,804.9c0.4,4.9,3.2,9.3,7,13c17.9,17.5,35.8,34.9,53.8,52.3c4,3.9,6.9,4.1,11.7,1.4
	c1.9-1.1,3.5-2.5,4.9-4.2c3.8-4.6,3.7-8.2-0.4-12.5c-17.9-18.3-35.8-36.5-53.7-54.8c-2.9-3-6.5-4.7-10.4-5.5
	C513.2,793.1,507,797.8,507,804.9z M493.2,827.4c-3.9,0.1-7.8,4.5-7.9,9.3c-0.1,5,1.9,9.2,5.3,12.7c14.6,14.6,29.2,29.3,43.9,43.8
	c4.3,4.3,9.2,4.8,13.2,1.9c5.9-4.3,7.3-9.7,4.3-15.6c-0.9-1.8-2.2-3.3-3.6-4.7c-9.4-9.1-18.8-18.1-28.2-27.2
	c-5-4.8-9.9-9.6-14.8-14.4C502.2,829.9,498.3,827.7,493.2,827.4z M557.1,776.5c-4.4,0.2-8.3,3.2-10.8,8c-2.3,4.5,0.2,8,3.2,11.2
	c10.9,11.2,21.8,22.4,32.8,33.4c5.2,5.2,6.8,4.9,13.6,1.8c5-2.3,6.6-7.3,4.4-12.4c-1.2-2.7-2.8-5-4.8-7.2c-9.6-10.9-20-21-30-31.6
	C563.6,777.5,561.3,776.4,557.1,776.5z M516.8,905.8c0.2-5.2-2.7-9.1-6-12.4c-9.7-10-19.7-19.8-29.6-29.6c-3.6-3.5-9.4-3.9-12.9-1.2
	c-4.3,3.3-5.8,9.5-3.2,14.1c1,1.9,2.3,3.7,3.9,5.2c10.4,10.4,20.7,20.8,31,31.3c2.8,2.8,5.8,4.6,9.7,2.7
	C513.7,913.9,516.6,910.8,516.8,905.8z"/>
<path class="st1" d="M314.4,615.9c-0.1-2.3,1.3-3.7,2.2-5.2c4.6-8,9.3-16,13.9-24c4.2-7.2,3.5-11-3.7-15.5
	c-18.1-11.2-36.2-22.1-54.4-33c-5.4-3.3-10.1-1.9-13.5,3.5c-4.2,6.8-8,13.8-12.1,20.7c-0.8,1.3-1.2,3-3.4,4.2c0-2.2,0-3.9,0-5.6
	c-0.3-161.5-0.5-323-0.7-484.5c0-6.9-1-6.1,6-6.1c131.7-0.1,263.4-0.2,395.1-0.2c0.7,0,1.5,0,2.2,0c4,0.1,4.1,0.1,4.1,4.3
	c0,23.3,0,46.5,0,69.8c-0.1,157.7-0.1,315.3-0.2,473c0,1.9,0.4,3.9-0.4,6c-2-1.1-2.5-2.9-3.4-4.3c-10.9-18.6-21.8-37.3-32.6-56
	c-0.7-1.3-1.4-2.5-2.3-3.7c-2.8-3.9-6.6-5-11-3.2c-1.5,0.6-2.9,1.4-4.3,2.2c-15.4,8.8-30.9,17.6-46.3,26.5c-1.6,0.9-3.2,1.8-4.4,3.1
	c-3.8,3.7-4.4,8.5-1.7,13.4c3,5.5,6.2,11,9.8,17.2c-2.2,0-3.7,0.1-5.3,0c-28.8-1.4-57.7-2.9-86.5-4.3c-3-0.1-5.6-1.2-8.3-2.3
	c-10-4.3-20.2-7.9-31.1-9.6c-10.8-1.7-21,0.3-30.7,4.9c-5.9,2.8-11.8,5.7-17.9,7.9c-6.4,2.3-12.9,3.5-19.7,3.8
	C340.6,619.4,327.6,618.4,314.4,615.9z M448.7,178.3c0-0.4,0-0.9,0-1.3c50.8,0,101.7,0,152.5,0c1.5,0,2.9,0,4.4,0
	c6.2-0.3,9.9-3.6,9.7-8.7c-0.1-4.9-3.7-8-9.6-8.3c-2-0.1-4,0-6,0c-101.7,0.6-203.4,1.1-305.1,1.7c-1.5,0-2.9,0-4.3,0.2
	c-4.3,0.6-7.3,4-7.3,8.1c0,4.1,2.9,7.6,7.2,8.3c1.8,0.3,3.6,0.2,5.4,0.2C346.7,178.3,397.7,178.3,448.7,178.3z M448.5,392.9
	c0-0.4,0-0.8,0-1.2c-51.4,0-102.8,0-154.2,0c-2.2,0-4.4-0.1-6.5,0.3c-4,0.7-6.8,4.1-6.9,8c-0.1,3.8,2.8,7.4,6.7,8.2
	c1.8,0.3,3.6,0.3,5.4,0.3c103.3,0.4,206.7,0.8,310,1.2c1.8,0,3.6,0.1,5.4-0.2c4.4-0.6,7.3-3.9,7.4-8.1c0-4.1-2.9-7.6-7.2-8.3
	c-1.6-0.3-3.3-0.2-4.9-0.2C552,392.9,500.2,392.9,448.5,392.9z M449.7,101.8c0,0.5,0,0.9,0,1.4c-51.4,0-102.8,0-154.2,0
	c-2.2,0-4.3-0.2-6.5,0.5c-3.8,1.3-6.1,4.3-6.1,8.1c0.1,3.8,2.5,6.7,6.4,7.8c1.8,0.5,3.6,0.5,5.4,0.5c8.4-0.1,16.7-0.2,25.1-0.2
	c94.1-0.5,188.1-0.9,282.2-1.4c2.2,0,4.4,0.1,6.5-0.3c4-0.7,6.8-4,6.8-8c0.1-4.2-2.8-7.6-7.1-8.3c-1.6-0.2-3.3-0.2-4.9-0.2
	C552.1,101.8,500.9,101.8,449.7,101.8z M449.9,234.8c0,0.1,0,0.1,0,0.2c51.2-0.3,102.4-0.6,153.6-0.9c1.5,0,2.9,0,4.4-0.2
	c4.6-0.6,7.6-4.1,7.5-8.5c-0.1-4.2-3.1-7.4-7.5-7.9c-2.2-0.2-4.4-0.2-6.5-0.1c-87.9,0.4-175.8,0.8-263.7,1.2
	c-14.3,0.1-28.7,0.1-43,0.2c-2.2,0-4.4,0-6.4,0.9c-3.4,1.5-5.4,4.6-5.2,8.2c0.2,3.3,2.4,6.1,5.7,7.2c2.1,0.7,4.3,0.7,6.5,0.7
	C346.7,235.4,398.3,235.1,449.9,234.8z M532.2,488.6c2.4,5.6,4.7,10.8,6.9,15.9c2.8,6.5,5,8,12.1,7.9c17.8-0.2,35.6-0.4,53.4-0.7
	c1.8,0,3.6-0.1,5.4-0.7c3.8-1.5,5.8-4.5,5.6-8.4c-0.2-3.6-2.5-6.3-6.2-7.4c-2.1-0.6-4.3-0.5-6.5-0.5c-14,0.2-28,0.5-41.9,0.7
	c-7.4,0.1-7.4,0.1-10.4-7c-2.6-6-5-12.1-7.8-18c-3.3-7.1-9.8-8-15.3-2.3c-0.7,0.8-1.4,1.6-2.1,2.5c-6.8,8-13.6,16.1-20.5,24.1
	c-1,1.2-1.8,2.8-3.7,3.4c-4.5-3.4-9.1-7-13.8-10.4c-2.2-1.6-1.6-2.7-0.1-4.2c3.3-3.4,6.5-6.8,9.6-10.4c5-5.7,4.4-10.9-2-14.9
	c-5.8-3.7-11.8-7.2-17.7-10.6c-5.6-3.2-9.4-2.4-13.2,2.8c-4.5,6.1-9,12.3-13.3,18.6c-3.7,5.4-3,9.4,2.3,13.7
	c2.2,1.8,4.5,3.5,7.1,5.5c-7.1,7.6-13.9,14.9-20.7,22.2c-1.4,1.5-2.8,2.9-3.8,4.6c-2.2,3.5-1.6,7.8,1.3,10.4c2.9,2.7,7.1,3,10.5,0.6
	c1.5-1,2.7-2.4,3.9-3.7c6.7-7.2,13.4-14.3,20-21.6c1.7-1.9,2.9-2.1,4.9-0.4c6.8,5.4,13.8,10.7,20.8,15.8c4.9,3.6,9,3.1,13-1.4
	c5.2-5.8,10.2-11.9,15.2-17.8C527.3,494.2,529.6,491.6,532.2,488.6z M496.7,352.3c0-0.5,0-0.9,0-1.4c35.8,0,71.6,0,107.4,0
	c1.6,0,3.3,0,4.9-0.3c4.3-0.7,7.3-4.1,7.3-8.2c0-3.8-2.9-7.3-6.8-8.1c-1.6-0.3-3.3-0.3-4.9-0.2c-72.1,0.4-144.2,0.8-216.3,1.2
	c-1.8,0-3.6,0-5.4,0.7c-3.5,1.4-5.7,4.3-5.7,7.8c0,3.8,2.4,6.8,6.3,7.9c2.1,0.6,4.3,0.5,6.5,0.5
	C425.5,352.3,461.1,352.3,496.7,352.3z M496,293.9c0-0.4,0-0.8,0-1.2c36,0,71.9,0,107.9,0c2.3,0,4.7,0.2,7-0.8
	c3.4-1.5,5.6-4.6,5.4-8c-0.2-3.5-2.6-6.5-6.1-7.5c-1.9-0.6-3.9-0.6-5.9-0.5c-71.9,0.5-143.9,1-215.8,1.4c-1.3,0-2.6,0-3.8,0.2
	c-4.4,0.6-7.4,3.8-7.5,8c-0.1,4.1,2.8,7.6,7.1,8.3c1.8,0.3,3.6,0.2,5.4,0.2C425.1,293.9,460.6,293.9,496,293.9z M357.2,311
	c0.1-20-15.6-36.8-35.6-36.5c-21.8,0.4-35.8,17.1-36.2,36.1c-0.4,19.7,16,36.3,35.7,36.4C340.9,347.2,357.1,330.9,357.2,311z
	 M345.3,524.9c0,0,0-0.1,0-0.1c17.2,0,34.5,0,51.7,0c2.2,0,4.3,0.1,6.5-0.7c3.8-1.4,6-4.5,5.8-8.2c-0.2-3.5-2.4-6.3-6-7.5
	c-2.3-0.8-4.7-0.6-7-0.6c-34.5,0.2-68.9,0.3-103.4,0.5c-1.4,0-2.9,0-4.3,0.2c-4.2,0.6-6.9,3.6-7.1,7.7c-0.2,4,2.3,7.5,6.3,8.4
	c1.7,0.4,3.6,0.3,5.4,0.3C310.5,524.9,327.9,524.9,345.3,524.9z M343.2,467.1c0,0,0-0.1,0-0.1c17.4,0,34.8,0,52.3,0
	c2.2,0,4.3,0.1,6.4-0.7c3.6-1.4,5.7-4.1,5.8-7.7c0.1-3.8-2.3-6.8-6.1-8c-2.1-0.7-4.3-0.6-6.5-0.6c-34.7,0.2-69.3,0.3-104,0.5
	c-1.6,0-3.3,0-4.9,0.3c-3.6,0.7-6.1,3.6-6.5,7.1c-0.4,3.6,1.5,6.7,4.8,8.4c2.1,1,4.2,0.9,6.4,0.9
	C308.3,467.2,325.8,467.1,343.2,467.1z"/>
<path class="st1" d="M597.3,788.3c-6.1-6.3-12.3-12.5-18.1-18.9c-7.6-8.3-16.7-10.8-27.6-8.2c-8.8,2.1-14.6,7.7-18.8,15.3
	c-2,3.6-2,3.7-5.9,2.4c-14.4-4.5-31.3,4.5-35,18.6c-0.8,3.1-0.8,6.1-0.4,9.2c0.4,4.1,0.4,4.2-3.3,5.4c-13.2,4.3-20.7,15.7-18.9,29.2
	c0.3,2.7-0.1,3.5-2.9,4.3c-15.6,4.4-24.2,23.6-16.7,37.7c2.2,4.1,2,4.3-1.8,6.7c-13.7,8.9-27.3,18-41,26.9
	c-7.9,5.1-14.8,2.4-20.1-1.5c-4.8-3.6-7.6-8.7-9.5-14.3c-0.9-2.7,0.2-5,1.8-7.1c1.9-2.5,4.5-4.2,7-6.1
	c19.4-14.1,38.7-28.2,58.1-42.3c1.6-1.2,3.3-2.3,4.6-3.8c2.8-3,3-7.4,0.7-10.5c-2.3-3.1-6.5-4.3-10.2-2.5c-1.9,0.9-3.7,2.3-5.5,3.6
	c-24.1,17.5-48.2,35-72.2,52.6c-7.1,5.2-14.7,5.9-22.6,2.7c-6.8-2.8-10.4-8.2-11.4-15.4c-0.4-2.6,0.5-4.6,2.5-6.2
	c1.1-0.9,2.3-1.8,3.5-2.6c27.7-20.5,55.4-41.1,83.2-61.6c1.6-1.2,3.3-2.3,4.7-3.7c3.1-3.1,3.3-7.6,0.8-10.9
	c-2.5-3.3-6.8-4.2-10.8-2.1c-1.6,0.9-3,2-4.5,3.1c-29.5,21.8-59,43.6-88.5,65.4c-6.5,4.8-12.9,4.9-20,0.2c-7-4.6-9.6-10.9-8.1-18.6
	c0.8-4.1,3.4-6.8,6.4-9.1c6.8-5.2,13.7-10.2,20.5-15.3c25.6-18.8,51.2-37.6,76.8-56.4c1.5-1.1,3-2.1,4.3-3.4
	c3.2-3.1,3.7-7.5,1.4-10.9c-2.5-3.5-7-4.6-11.1-2.3c-1.7,0.9-3.3,2.2-4.9,3.4c-33.5,24.6-67.1,49.1-100.5,73.8
	c-7.5,5.5-11,5.9-18.7,0.8c-6.9-4.5-9.3-12.6-6.8-20.1c1.4-4.1,4.1-7.2,7.1-10.2c8.9-8.8,18.6-16.8,28.2-24.9
	c35.1-29.4,70.2-58.7,105.2-88.2c2.7-2.2,4.6-2.9,8-1.2c13.5,6.6,27.5,12.2,42.4,15.2c12.6,2.6,25.2,3.4,37.8,0.6
	c5.8-1.3,11-3.6,15.1-8.1c4.2-4.6,5.8-9.9,4.4-16.1c-0.8-3.6-2-7-3.9-10.1c-3.6-6.1-7.9-11.7-12.9-16.9c-1.1-1.1-2.7-1.9-2.8-4
	c7.5,0.3,14.8,0.6,22.2,1c16.7,0.9,33.4,2,50.1,2.5c3.9,0.1,5.7,1.7,7.4,4.7c14.6,25.5,29.2,51,43.9,76.5
	c4.2,7.2,8.2,14.5,12.5,21.7c1.3,2.2,1.7,4.1,0.6,6.5c-4.4,10.4-7.7,21.1-9.8,32.2c-0.3,1.8-1.2,2.9-2.8,3.7
	C606.1,783.4,601.8,785.8,597.3,788.3z M518.3,704.9c-1.8,0-3.6-0.1-5.4,0c-2.5,0.1-5.1,0.4-7.6,0.7c-24.8,2.3-45.5,12.6-62.3,31
	c-1.7,1.9-3.4,3.8-4.3,6.2c-1.5,3.6-0.5,7.1,2.6,9.1c2.7,1.8,6.4,1.6,9.1-0.7c0.5-0.5,1-1,1.5-1.6c6.8-8.1,15.1-14.1,24.6-18.6
	c25.3-12,51.2-11.8,77.3-3.1c1.9,0.6,3.6,1.7,5.7,1.9c3.9,0.4,7.4-1.7,8.7-5.1c1.4-3.5,0.4-7.4-2.8-9.7c-1.6-1.1-3.5-1.9-5.3-2.6
	C546.5,707.1,532.5,705.1,518.3,704.9z"/>
<path class="st1" d="M252.9,772.3c-5.8-5.5-11.2-10.9-16.9-16c-2.3-2.1-2-3.6-0.6-5.9c10.9-18.6,21.7-37.3,32.6-56
	c11.4-19.6,22.8-39.2,34.2-58.8c3.2-5.5,3.2-5.3,9.8-4.3c8.2,1.3,16.4,3.2,24.7,4.1c20.3,2.2,39.5-1.3,57.4-11
	c12.2-6.6,24.4-7.2,37.2-2.8c12.4,4.2,24.5,9.1,35.1,17c7.5,5.6,13.9,12.2,19.1,20c0.9,1.4,1.8,2.8,2.5,4.2c2.2,4.4,1.5,6.1-3.3,7.6
	c-8.1,2.6-16.5,2.3-24.8,1.3c-12.3-1.5-24.1-5.2-35.4-10.3c-5.9-2.7-12-5-17.7-8.4c-6-3.5-7.5-3.1-13.1,1.6
	c-45.5,38.1-91,76.3-136.6,114.4C255.9,769.9,254.6,770.9,252.9,772.3z"/>
<path class="st1" d="M269.8,556.2c14,8.5,27.4,16.7,41,24.7c3,1.8,1.7,3.2,0.6,5.2c-12.1,20.9-24.2,41.7-36.3,62.6
	c-24.3,41.9-48.6,83.8-73,125.6c-0.5,0.8-1,1.5-1.3,2.4c-0.9,2-2,2.1-3.8,1c-6.8-3.9-13.6-7.6-20.4-11.4c-7-3.9-13.9-7.7-21.5-11.9
	C193.3,688.4,231.4,622.6,269.8,556.2z"/>
<path class="st1" d="M560.7,597.7c13.5-7.7,26.7-15.2,39.7-22.7c1.8,1.4,2.4,3.1,3.3,4.7c19.4,33.2,38.7,66.4,58.1,99.7
	c2.5,4.3,2.5,4.3-1.1,8c-9.4,9.7-17.6,20.3-24.6,31.8c-0.8,1.4-1.7,2.7-3,4.6C608.9,681.7,585,640,560.7,597.7z"/>
<path class="st1" d="M507,804.9c-0.1-7,6.2-11.8,12.9-10.3c3.9,0.9,7.5,2.5,10.4,5.5c17.9,18.3,35.8,36.5,53.7,54.8
	c4.2,4.3,4.2,7.8,0.4,12.5c-1.4,1.7-3,3.1-4.9,4.2c-4.8,2.7-7.7,2.5-11.7-1.4c-18-17.4-36-34.8-53.8-52.3
	C510.3,814.2,507.4,809.7,507,804.9z"/>
<path class="st1" d="M493.2,827.4c5.1,0.3,8.9,2.5,12.3,5.8c4.9,4.8,9.9,9.6,14.8,14.4c9.4,9.1,18.8,18.2,28.2,27.2
	c1.4,1.4,2.7,2.9,3.6,4.7c3,5.9,1.6,11.2-4.3,15.6c-4,3-8.9,2.4-13.2-1.9c-14.7-14.6-29.3-29.2-43.9-43.8c-3.5-3.5-5.4-7.7-5.3-12.7
	C485.4,831.9,489.4,827.4,493.2,827.4z"/>
<path class="st1" d="M557.1,776.5c4.2-0.1,6.5,1,8.5,3.1c9.9,10.6,20.4,20.7,30,31.6c1.9,2.2,3.6,4.6,4.8,7.2
	c2.2,5.1,0.6,10.1-4.4,12.4c-6.8,3.1-8.4,3.4-13.6-1.8c-11-11.1-21.9-22.3-32.8-33.4c-3-3.1-5.5-6.7-3.2-11.2
	C548.8,779.7,552.7,776.7,557.1,776.5z"/>
<path class="st1" d="M516.8,905.8c-0.2,4.9-3.1,8-7.2,10c-3.8,1.9-6.9,0.1-9.7-2.7c-10.3-10.5-20.7-20.9-31-31.3
	c-1.6-1.6-2.8-3.3-3.9-5.2c-2.5-4.6-1.1-10.8,3.2-14.1c3.5-2.7,9.3-2.3,12.9,1.2c10,9.8,19.9,19.6,29.6,29.6
	C514.1,896.7,517,900.7,516.8,905.8z"/>
<path class="st0" d="M448.7,178.3c-51,0-102.1,0-153.1,0c-1.8,0-3.7,0.1-5.4-0.2c-4.3-0.7-7.2-4.1-7.2-8.3c0-4.1,3-7.5,7.3-8.1
	c1.4-0.2,2.9-0.2,4.3-0.2c101.7-0.6,203.4-1.1,305.1-1.7c2,0,4-0.1,6,0c5.9,0.3,9.5,3.4,9.6,8.3c0.1,5.1-3.5,8.4-9.7,8.7
	c-1.4,0.1-2.9,0-4.4,0c-50.8,0-101.7,0-152.5,0C448.7,177.5,448.7,177.9,448.7,178.3z"/>
<path class="st0" d="M448.5,392.9c51.8,0,103.5,0,155.3,0c1.6,0,3.3-0.1,4.9,0.2c4.3,0.7,7.2,4.2,7.2,8.3c0,4.2-3,7.5-7.4,8.1
	c-1.8,0.2-3.6,0.2-5.4,0.2c-103.3-0.4-206.7-0.8-310-1.2c-1.8,0-3.7,0.1-5.4-0.3c-3.9-0.8-6.7-4.4-6.7-8.2c0.1-3.9,2.9-7.3,6.9-8
	c2.1-0.3,4.3-0.3,6.5-0.3c51.4,0,102.8,0,154.2,0C448.5,392.1,448.5,392.5,448.5,392.9z"/>
<path class="st0" d="M449.7,101.8c51.2,0,102.4,0,153.6,0c1.6,0,3.3-0.1,4.9,0.2c4.3,0.7,7.2,4.1,7.1,8.3c-0.1,4-2.8,7.3-6.8,8
	c-2.1,0.4-4.3,0.3-6.5,0.3c-94.1,0.5-188.1,0.9-282.2,1.4c-8.4,0-16.7,0.1-25.1,0.2c-1.8,0-3.6,0-5.4-0.5c-3.9-1.1-6.3-4.1-6.4-7.8
	c-0.1-3.8,2.3-6.8,6.1-8.1c2.1-0.7,4.3-0.5,6.5-0.5c51.4,0,102.8,0,154.2,0C449.7,102.7,449.7,102.3,449.7,101.8z"/>
<path class="st0" d="M449.9,234.8c-51.6,0.3-103.1,0.6-154.7,0.9c-2.2,0-4.4,0.1-6.5-0.7c-3.3-1.1-5.5-3.9-5.7-7.2
	c-0.2-3.5,1.8-6.7,5.2-8.2c2.1-0.9,4.2-0.9,6.4-0.9c14.3,0,28.7-0.1,43-0.2c87.9-0.4,175.8-0.8,263.7-1.2c2.2,0,4.4-0.1,6.5,0.1
	c4.4,0.5,7.4,3.7,7.5,7.9c0.1,4.4-2.9,7.9-7.5,8.5c-1.4,0.2-2.9,0.2-4.4,0.2c-51.2,0.3-102.4,0.6-153.6,0.9
	C449.9,234.9,449.9,234.9,449.9,234.8z"/>
<path class="st0" d="M532.2,488.6c-2.6,3-4.9,5.6-7.1,8.2c-5.1,5.9-10,12-15.2,17.8c-4,4.5-8.1,5-13,1.4c-7-5.1-14-10.4-20.8-15.8
	c-2-1.6-3.2-1.4-4.9,0.4c-6.6,7.3-13.3,14.4-20,21.6c-1.2,1.3-2.5,2.7-3.9,3.7c-3.4,2.4-7.6,2.1-10.5-0.6c-2.8-2.7-3.5-7-1.3-10.4
	c1.1-1.7,2.5-3.1,3.8-4.6c6.8-7.3,13.6-14.6,20.7-22.2c-2.5-2-4.8-3.7-7.1-5.5c-5.3-4.3-6-8.2-2.3-13.7c4.3-6.3,8.7-12.5,13.3-18.6
	c3.9-5.2,7.6-6,13.2-2.8c6,3.4,11.9,6.9,17.7,10.6c6.4,4,7,9.2,2,14.9c-3.1,3.5-6.4,7-9.6,10.4c-1.5,1.6-2.1,2.7,0.1,4.2
	c4.7,3.4,9.3,6.9,13.8,10.4c1.9-0.6,2.7-2.2,3.7-3.4c6.9-8,13.7-16,20.5-24.1c0.7-0.8,1.4-1.7,2.1-2.5c5.4-5.7,12-4.8,15.3,2.3
	c2.8,5.9,5.2,12,7.8,18c3,7.1,3,7.1,10.4,7c14-0.2,28-0.4,41.9-0.7c2.2,0,4.4-0.2,6.5,0.5c3.7,1.1,6,3.8,6.2,7.4
	c0.3,3.9-1.8,6.9-5.6,8.4c-1.7,0.7-3.5,0.7-5.4,0.7c-17.8,0.2-35.6,0.5-53.4,0.7c-7,0.1-9.3-1.4-12.1-7.9
	C536.9,499.4,534.6,494.2,532.2,488.6z M478.2,468.4c-4.2-3.3-4.2-3.3-6.9,0.5c-0.6,0.9-1.3,1.7-1.9,2.6c-0.7,1-1,1.8,0.2,2.7
	c1.1,0.9,2.1,1.3,3.2,0C474.6,472.3,476.4,470.3,478.2,468.4z"/>
<path class="st0" d="M496.7,352.3c-35.6,0-71.2,0-106.8,0c-2.2,0-4.4,0.1-6.5-0.5c-3.8-1.1-6.3-4.1-6.3-7.9c0-3.6,2.2-6.5,5.7-7.8
	c1.8-0.7,3.5-0.7,5.4-0.7c72.1-0.4,144.2-0.8,216.3-1.2c1.6,0,3.3-0.1,4.9,0.2c4,0.8,6.8,4.3,6.8,8.1c0,4-3,7.5-7.3,8.2
	c-1.6,0.3-3.3,0.3-4.9,0.3c-35.8,0-71.6,0-107.4,0C496.7,351.4,496.7,351.8,496.7,352.3z"/>
<path class="st0" d="M496,293.9c-35.4,0-70.8,0-106.3,0c-1.8,0-3.7,0.1-5.4-0.2c-4.3-0.7-7.2-4.2-7.1-8.3c0.1-4.2,3.1-7.4,7.5-8
	c1.3-0.2,2.5-0.2,3.8-0.2c71.9-0.5,143.9-1,215.8-1.4c2,0,4,0,5.9,0.5c3.5,1,5.9,4.1,6.1,7.5c0.2,3.4-2,6.6-5.4,8
	c-2.3,1-4.6,0.8-7,0.8c-36,0-71.9,0-107.9,0C496,293.1,496,293.5,496,293.9z"/>
<path class="st0" d="M357.2,311c-0.1,19.9-16.3,36.2-36,36.1c-19.7-0.1-36.1-16.7-35.7-36.4c0.4-19,14.4-35.8,36.2-36.1
	C341.6,274.2,357.3,291,357.2,311z M321.2,330c10.7,0,19.3-8.7,19.3-19.3c-0.1-10.6-8.5-19-19-19c-10.8,0-19.2,8.4-19.2,19.3
	C302.4,321.7,310.6,330,321.2,330z"/>
<path class="st0" d="M345.3,524.9c-17.4,0-34.8,0-52.2,0c-1.8,0-3.7,0.1-5.4-0.3c-4-0.9-6.5-4.4-6.3-8.4c0.2-4,2.9-7,7.1-7.7
	c1.4-0.2,2.9-0.2,4.3-0.2c34.5-0.2,68.9-0.4,103.4-0.5c2.4,0,4.7-0.2,7,0.6c3.6,1.2,5.9,4,6,7.5c0.2,3.8-2.1,6.8-5.8,8.2
	c-2.1,0.8-4.3,0.7-6.5,0.7c-17.2,0-34.5,0-51.7,0C345.3,524.8,345.3,524.9,345.3,524.9z"/>
<path class="st0" d="M343.2,467.1c-17.4,0-34.8,0-52.3,0c-2.2,0-4.3,0.1-6.4-0.9c-3.3-1.7-5.2-4.8-4.8-8.4c0.4-3.5,3-6.4,6.5-7.1
	c1.6-0.3,3.2-0.3,4.9-0.3c34.7-0.2,69.3-0.4,104-0.5c2.2,0,4.3-0.1,6.5,0.6c3.9,1.2,6.2,4.2,6.1,8c0,3.6-2.2,6.4-5.8,7.7
	c-2.1,0.8-4.3,0.7-6.4,0.7c-17.4,0-34.8,0-52.3,0C343.2,467.1,343.2,467.1,343.2,467.1z"/>
<path class="st0" d="M518.3,704.9c14.3,0.2,28.2,2.2,41.5,7.5c1.8,0.7,3.7,1.5,5.3,2.6c3.2,2.3,4.2,6.2,2.8,9.7
	c-1.4,3.5-4.9,5.5-8.7,5.1c-2-0.2-3.8-1.2-5.7-1.9c-26.2-8.8-52-8.9-77.3,3.1c-9.5,4.5-17.8,10.5-24.6,18.6
	c-0.5,0.6-0.9,1.1-1.5,1.6c-2.7,2.3-6.3,2.6-9.1,0.7c-3-2-4-5.5-2.6-9.1c1-2.4,2.6-4.3,4.3-6.2c16.8-18.3,37.6-28.7,62.3-31
	c2.5-0.2,5.1-0.5,7.6-0.7C514.6,704.8,516.4,704.9,518.3,704.9z"/>
<path class="st2" d="M791.7,944.3c-66.1-0.1-121.2-46-132.6-109.2c-11.2-61.8,23.5-125,81.9-148.8c39.6-16.2,78.9-14.9,116.6,5.3
	c36.6,19.7,59.3,50.7,67.2,91.6c14,72.7-34.3,144.6-110.3,158.8C806.5,943.5,798.3,944.1,791.7,944.3z M792.1,692.4
	c-16.9-0.1-34.6,4.2-51.3,12.4c-58,28.5-83.1,98.7-56,156c28.6,60.3,100.6,83.4,159.6,53.8c48.4-24.3,74.7-77.6,63.7-130.1
	C896.6,730,849.5,692.3,792.1,692.4z"/>
<path class="st1" d="M478.2,468.4c-1.8,2-3.6,3.9-5.4,5.9c-1.1,1.3-2.1,0.8-3.2,0c-1.2-0.9-0.9-1.7-0.2-2.7c0.6-0.9,1.3-1.7,1.9-2.6
	C473.9,465.1,473.9,465.1,478.2,468.4z"/>
<path class="st1" d="M321.2,330c-10.6,0-18.8-8.3-18.8-19c0-10.9,8.3-19.3,19.2-19.3c10.5,0,18.9,8.4,19,19
	C340.6,321.4,332,330,321.2,330z"/>
<path class="st2" d="M763.6,810.8c2.4-2.7,4.2-5,6.2-7c21.2-21.4,42.5-42.8,64.3-63.5c2-1.9,4.1-3.6,6.3-5.1
	c6.9-4.7,16.7-3.9,22.6,2c6.6,6.5,13.1,13.1,19.2,20.1c6.4,7.3,9.8,15.7,6.6,25.6c-1.6,4.8-4.8,8.5-8.3,11.9
	c-16.1,16-32.3,31.9-48.4,47.9c-11.7,11.7-23.2,23.5-35.1,35c-6.2,6.1-12.9,11.7-19.5,17.4c-1.1,1-2.3,1.7-3.6,2.5
	c-10.8,6.8-17.2,6.4-27.2-1.7c-8.2-6.6-15-14.7-22.4-22.2c-9.6-9.9-19.2-19.8-28.8-29.7c-4-4.2-7.4-8.9-10.4-13.9
	c-4.1-6.6-3.1-12.8,0.9-18.9c1.5-2.3,3.4-4.2,5.3-6.2c4.7-4.8,9.4-9.6,14.1-14.4c3.5-3.5,7.6-6.1,12.1-8.2c6.6-3,12.7-2.2,18.4,2.2
	c5.6,4.3,10.4,9.6,15.5,14.5C755.3,802.6,759,806.3,763.6,810.8z M750.2,823.1c-7.5-7.9-14.5-15.7-21.9-23.2
	c-2.7-2.8-5.9-2.9-9.4-0.4c-7.3,4.9-13.3,11.2-18.9,17.9c-2,2.5-1.9,5-0.1,7.4c3.1,4.2,6.2,8.5,9.9,12.3
	c13.3,13.4,26.6,26.8,39.9,40.2c1.4,1.4,2.9,2.7,4.5,3.9c2.8,2.1,5.8,2.4,9.3,1.6c5.5-1.4,9.8-4.8,13.7-8.5
	c5.1-4.9,9.8-10.2,14.8-15.2c26.4-26.2,52.8-52.5,79.3-78.6c3.6-3.6,4.1-6.9,0.8-10.9c-5.9-6.9-12.3-13.3-18.9-19.6
	c-2.5-2.3-3.8-2.3-6.7-0.1c-2,1.5-3.9,3.2-5.7,5.1c-26.7,28.2-54.6,55.3-81.6,83.2c-1.5,1.6-3,3.2-5,4.1c-3.7,1.7-7.8,0.7-10.2-2.6
	c-2.2-3.1-2-7.3,0.7-10.6C746.6,826.7,748.8,824.6,750.2,823.1z"/>
<path class="st3" d="M202.8,306.6l22,22c5.2,5.2,13.7,5.2,18.9,0l22-22c5.2-5.2,5.2-13.7,0-18.9l-22-22c-5.2-5.2-13.7-5.2-18.9,0
	l-22,22C197.6,292.9,197.6,301.4,202.8,306.6z"/>
<path class="st3" d="M202.8,370.8l22,22c5.2,5.2,13.7,5.2,18.9,0l22-22c5.2-5.2,5.2-13.7,0-18.9l-22-22c-5.2-5.2-13.7-5.2-18.9,0
	l-22,22C197.6,357.1,197.6,365.5,202.8,370.8z"/>
<path class="st2" d="M666.5,946.7l17.3,17.3c2.5,2.5,6.6,2.5,9.1,0l17.3-17.3c2.5-2.5,2.5-6.6,0-9.1l-17.3-17.3
	c-2.5-2.5-6.6-2.5-9.1,0l-17.3,17.3C664,940.1,664,944.2,666.5,946.7z"/>
<path class="st2" d="M777.1,871.1l17.3,17.3c2.5,2.5,6.6,2.5,9.1,0l17.3-17.3c2.5-2.5,2.5-6.6,0-9.1l-17.3-17.3
	c-2.5-2.5-6.6-2.5-9.1,0L777.1,862C774.6,864.5,774.6,868.6,777.1,871.1z"/>
<circle class="st4" cx="790.2" cy="808.9" r="171"/>
</svg>
