<?xml version="1.0" encoding="utf-8"?>
<!-- Generator: Adobe Illustrator 28.0.0, SVG Export Plug-In . SVG Version: 6.00 Build 0)  -->
<svg version="1.1" id="Capa_1" xmlns="http://www.w3.org/2000/svg" xmlns:xlink="http://www.w3.org/1999/xlink" x="0px" y="0px"
	 viewBox="0 0 1080 1080" style="enable-background:new 0 0 1080 1080;" xml:space="preserve">
<style type="text/css">
	.st0{fill:#090A0A;}
	.st1{fill:#FFFFFF;}
	.st2{fill:#FDFDFD;}
	.st3{fill:#29E4A5;}
	.st4{fill:#6EE1EB;}
	.st5{fill:none;stroke:#29E4A5;stroke-width:19;stroke-miterlimit:10;}
</style>
<path class="st0" d="M696.1,859.9c-1.9,0.3-3,1.4-4.3,2.2c-48,31-100.2,51.4-156.5,61.3c-36.7,6.5-73.6,8-110.7,4.6
	c-151.8-14-284.3-107.3-349-245.5c-18.9-40.5-31.1-82.9-36.8-127.2c-22.8-178.4,69.4-351.1,230.4-431.1
	C309,104.4,350.8,91.4,394.7,85c21.5-3.2,43.1-5,64.8-4.6c118.4,2.5,219.7,45.5,302.7,129.9c58.4,59.4,95.4,130.7,112.6,212.2
	c7.5,35.6,10,71.6,8.2,107.9c-1.6,31.6-6.8,62.7-15.4,93.2c-0.2,0.7-0.4,1.3-0.5,2c1.3,1.7,3.2,1.2,4.7,1.3
	c63,5.5,113.5,46.2,135.7,94.9c35.3,77.4,7,168.5-66.7,213.3c-33.1,20.2-69.2,28.6-107.8,24.6c-40.9-4.2-76-21.1-104.4-50.9
	C714.4,894.2,707,883.7,696.1,859.9z M711.5,702c0.7-0.3,0.9-0.3,1-0.4c0.9-1.2,1.9-2.4,2.8-3.7c11.1-15.5,24.6-28.9,40.2-39.8
	c27.3-19.2,57.7-29.7,91-31.7c3.2-0.2,4.3-1.4,5.1-4.2c7.3-25.7,12.2-51.8,14.6-78.3c3.5-39.6,1.3-78.8-6.7-117.7
	c-15.8-75.9-49.7-142.8-103-199.2C680,146.5,586,103.1,475.2,96.8c-28-1.6-55.9,0.2-83.7,4.7c-38.8,6.3-76,17.6-111.3,35
	C183.8,183.9,116.2,258,77.4,358.3c-16.6,42.9-24.9,87.5-26,133.4c-0.5,20.3,0.5,40.6,3,60.8c0.7,5.9,1,4.8,5.5,4.9c0.7,0,1.4,0,2,0
	c61.8,0.1,123.6,0.1,185.4,0.2c1.9,0,3.8-0.1,5.6,0.1c4.6,0.5,7.4,2.6,8,7.2c0.4,3,1.6,3.5,4.2,3.5c18.6,0.1,37.2,0.3,55.8,0.5
	c2.5,0,4-1,5.6-2.7c31.4-34.2,62.8-68.4,94.3-102.5c1.9-2.1,2.7-4,2.2-6.8c-3.9-21.6-7.8-43.3-11.6-65c-6.3-35.6-12.6-71.2-19-106.8
	c-5.6-31-10.7-62.2-16.8-93.1c-0.8-4.1,0.8-7.6,4.6-9.2c1.4-0.6,2.9-0.9,4.4-1.4c38.7-10.6,78.2-15.9,118.1-18.2
	c31.4-1.8,62.8-1.1,94.1,1.7c26.2,2.4,52.2,6.2,77.8,12.3c8.3,2,16.5,4.2,24.7,6.5c6.1,1.7,8.5,5.5,7.9,11.9c-0.1,1-0.2,2-0.3,3.1
	c-3.5,22.8-6.9,45.5-10.4,68.3c-5.3,34.7-10.7,69.5-16,104.2c-5.8,37.8-11.5,75.5-17.3,113.3c-0.8,5.1-1.5,10.3-2.2,15.7
	c4,0.3,7.6,0.5,11.1,0.7c11.9,0.7,21.1,6.2,28,15.7c14.7,20.4,12.1,48-5.9,65.4c-1.1,1-2.6,1.7-3,3.5c0.6,0.4,1.1,0.8,1.7,1.1
	c9.6,5.9,16.7,14,21.7,24c5,10.2,5.4,20.6,1.4,31.2c-2.4,6.5-6.1,12.2-10.6,17.4c-4.5,5.2-9.5,9.7-15.8,13.2
	C699.5,680.6,707.5,689.8,711.5,702z M427.1,481.2c-1.5,0.3-2.1,1.4-2.8,2.3c-28.6,31-57.1,62-85.7,93c-0.9,1-1.9,2-2.5,3.2
	c-2.1,4-5.5,5.3-9.8,5.2c-3.1-0.1-6.1-0.1-9.2-0.2c-17.1-0.2-34.1-0.4-51.2-0.6c-5.6-0.1-4.7-0.4-4.9,5c-0.1,2.4-0.2,4.8-0.2,7.2
	c-0.7,44.2-1.4,88.4-2,132.6c-0.3,18.4-0.5,36.9-0.7,55.3c0,3.7,0,3.8,3.8,4.1c7.3,0.6,14.6,1.2,21.9,1.7c15.5,1,29.7,5.6,42.7,14.2
	c6.5,4.3,13.2,8.4,20.2,12.1c14,7.5,28.7,11.8,45,11.8c87.6,0.1,175.1,0.5,262.7,0.8c11.7,0,20.8-5.4,28-14.4
	c1.2-1.5,1.6-3.2,1.5-5.2c-0.5-9.9-0.8-19.8,0.4-29.6c0.3-2.2-0.1-4-1.5-5.7c-4.1-5.1-8.5-9.8-15-11.8c-3.1-0.9-5.6-2.8-5.6-6.4
	c0-3.7,1.7-6.6,4.9-8.4c1.5-0.8,3.2-1.1,4.8-1.7c13.6-4.9,22.1-14.3,25.2-28.5c0.8-3.8,0.5-7.4-0.9-11.1
	c-4.2-11.5-11.5-20.4-22.2-26.4c-1-0.6-2.1-1.1-3.1-1.8c-5.5-3.9-4.9-11.7,1-14.7c1.1-0.5,2.2-0.9,3.3-1.3
	c10.7-4.4,18.8-11.6,24.3-21.7c4.6-8.5,4.6-16.8-0.4-25.3c-6.7-11.2-15.6-19.3-28.9-21.5c-3.3-0.5-5.5-2.6-6.3-5.9
	c-0.7-3.3,0.5-6.5,3.6-8.3c2-1.2,4.3-2.1,6.5-2.9c2.4-0.9,4.7-1.9,6.8-3.5c19.5-15.2,14.4-40.4,3.4-51.8c-2.8-2.9-6.1-4.5-10.4-4.5
	c-15,0-30-0.4-45-0.7c-53.8-1.1-107.5-2.3-161.3-3.4c-8.5-0.2-17.1-0.5-25.6-0.7c-4.5-0.1-7.4-2.1-8.9-6.3
	c-1.5-4.4-2.6-8.8-3.7-13.3C428.5,488.4,428.5,484.7,427.1,481.2z M57.8,573.7c0,0.6,0,1.3,0.1,1.9c9,48.2,25.8,93.5,50.8,135.8
	c25.6,43.2,58,80.5,97,112c2.7,2.2,5.4,3.2,8.8,3.1c6.8-0.2,13.7,0.1,20.5,0.1c7.1,0,6.4,1,6.5-6.1c1.2-80.7,2.4-161.4,3.7-242.2
	c0-0.9,0-1.7,0-2.6c0.1-1.4-0.4-2.3-2-2.2c-1,0-2,0-3.1,0c-59.1-0.1-118.1-0.3-177.2-0.4C61.3,573.2,59.6,572.7,57.8,573.7z
	 M517.9,496.6c-0.7-1-2-1.1-3-1.5c-9.2-3.9-17.5-9.1-24.6-16.2c-15.8-15.9-24-35.2-24.3-57.4c-0.5-33.5,12.9-60.5,41.5-78.6
	c35.6-22.5,81-11.8,103.5,23.8c12.8,20.2,16.4,42.2,11.2,65.3c-7,31.4-25.4,53.4-55.9,64.7c-0.7,0.3-1.8,0.1-2.1,1.4
	c1.5,0.1,3,0.3,4.4,0.3c14.7,0.3,29.4,0.6,44,0.9c7.4,0.2,7.3,0.1,8.4-7.4c3.2-21.4,6.4-42.8,9.6-64.3c3.9-26,7.9-51.9,11.8-77.9
	c3.7-24.1,7.3-48.2,11-72.3c1-6.7,1.9-13.5,3.1-20.2c0.4-2.4-0.3-3.5-2.5-4.1c-1.5-0.4-2.8-1.2-4.2-1.8c-11.3-5.1-20-12.8-25.9-23.8
	c-2.8-5.3-5.5-10.6-6.9-16.4c-0.8-3.3-2.5-4.5-5.6-4.6c-3.4-0.2-6.8-0.5-10.2-0.7c-22.1-1.5-44.2-3.8-66.4-3.7
	c-16.6,0.1-33.1,0.7-49.6,2.2c-5.3,0.5-5.3,0.6-6.7,5.7c-6.3,22-19.9,37.3-41.5,45.2c-3.7,1.4-3.7,1.4-3.2,5
	c5.1,34.6,10.3,69.2,15.4,103.7c6.4,42.8,12.8,85.7,19.2,128.5c0.6,3.7,0.5,3.8,4.4,3.9c14.5,0.3,29,0.6,43.5,0.9
	C516.8,497.3,517.6,497.5,517.9,496.6z M687.3,832.6c-1.4,1-2.2,1.6-3.1,2.2c-8.2,5-16.5,9.6-26.4,10.1c-4.5,0.3-8.9-0.2-13.3-0.2
	c-53.6-0.1-107.2-0.3-160.8-0.4c-30.4-0.1-60.8-0.3-91.1-0.3c-17.8,0.1-34.5-4-50.2-12c-8.5-4.3-16.6-9.4-24.6-14.6
	c-6.6-4.3-13.6-7.9-21.4-9.6c-12.7-2.8-25.6-3.1-38.4-3.7c-0.9,2-0.5,3.7-0.5,5.4c-0.1,7-0.1,14-0.2,21c-0.1,8-4,11.8-12,11.9
	c-4,0-8,0-12.3,0c0.7,1.9,2,2.3,3.1,3c64.2,42.3,134.7,65,211.4,68.3c28.4,1.2,56.6-0.8,84.6-5.7c55.5-9.6,106.8-30,153.9-60.9
	c5.5-3.6,4.8-2,3-8.4C688.4,836.9,687.9,835.1,687.3,832.6z M1007.1,790.9c-0.4-8.2-0.9-16.2-2.2-24.1
	c-11.3-67.3-66-117.5-134.5-124.1c-32.1-3.1-62.4,3.3-90.7,18.8c-54.5,29.9-85.3,88.5-80,147c3.5,39,19.7,71.7,48.7,97.8
	c46.6,41.8,114.9,51.1,171.4,22.3C975.8,900.1,1004.2,853.3,1007.1,790.9z M452.8,495.3c-2.4-16.6-4.9-33.2-7.4-49.9
	c-4.3-28.7-8.6-57.4-12.9-86c-4.4-29.2-8.7-58.4-13.1-87.6c-0.9-5.9-1.8-11.8-2.5-17.7c-0.6-5.6,0.6-7.7,5.7-10
	c2.9-1.3,5.9-2.6,8.9-3.8c18.7-7.2,30-20.7,34.4-40.1c1.5-6.7,3.9-9.3,10.6-10.5c9.6-1.8,19.3-2.2,29-2.7
	c38.3-1.8,76.4,0.4,114.3,6.1c5.7,0.9,9.4,3.7,10.8,9.4c1.1,4.3,2.5,8.5,4.4,12.5c3.6,7.6,7.9,14.7,15.1,19.6
	c5,3.4,10.4,5.8,16.1,7.7c5.5,1.8,7.3,4.9,6.5,10.6c-1.1,7.6-2.2,15.2-3.4,22.8c-3.5,23.4-7.1,46.9-10.6,70.3
	c-3.9,26-7.8,51.9-11.7,77.9c-3.6,23.6-7.3,47.2-10.7,70.8c-0.8,5.7-1.8,5.1,5,5.4c2.4,0.1,3.7-0.3,4.1-3.1
	c2.6-18.2,5.5-36.4,8.2-54.6c3.9-25.6,7.8-51.3,11.7-76.9c4.3-28.2,8.6-56.3,12.9-84.5c3.9-25.8,7.8-51.6,11.8-77.4
	c0.9-5.9,1-5.9-4.9-7.5c-41.8-11.1-84.3-16.4-127.4-17.6c-34.9-1-69.6,0.5-104.2,5.2c-19.3,2.6-38.4,6.1-57.2,11
	c-3.7,1-3.7,1-3.1,4.6c2.5,14.1,4.9,28.2,7.4,42.3c6.3,35.3,12.5,70.5,18.8,105.8c6,33.7,12,67.5,18,101.2
	c2.6,14.8,5.4,29.5,7.9,44.3c0.4,2.3,1.2,3.4,3.6,3.1C450.3,495.8,451.5,496.3,452.8,495.3z M550.6,347c-9,0.1-15.5,1-21.9,3.1
	c-44.3,14.7-61.8,74.1-32.9,111.2c18.1,23.2,48.1,29.9,74.3,16.6c33.4-17,48.1-60.7,31.7-95.1C591.2,360.4,573.3,348.3,550.6,347z"
	/>
<path class="st1" d="M711.5,702c-4-12.2-12-21.4-22-29.6c6.3-3.5,11.3-8,15.8-13.2c4.5-5.2,8.2-10.9,10.6-17.4
	c4-10.6,3.6-21-1.4-31.2c-5-10-12.1-18.1-21.7-24c-0.6-0.3-1.1-0.7-1.7-1.1c0.5-1.8,2-2.5,3-3.5c18.1-17.4,20.6-45,5.9-65.4
	c-6.9-9.5-16.1-15-28-15.7c-3.6-0.2-7.1-0.4-11.1-0.7c0.8-5.4,1.5-10.6,2.2-15.7c5.7-37.8,11.5-75.5,17.3-113.3
	c5.3-34.7,10.7-69.5,16-104.2c3.5-22.8,6.9-45.5,10.4-68.3c0.2-1,0.3-2,0.3-3.1c0.5-6.4-1.8-10.2-7.9-11.9
	c-8.2-2.3-16.4-4.5-24.7-6.5c-25.6-6.1-51.6-9.9-77.8-12.3c-31.3-2.8-62.7-3.5-94.1-1.7c-39.9,2.3-79.4,7.6-118.1,18.2
	c-1.5,0.4-3,0.7-4.4,1.4c-3.7,1.7-5.4,5.2-4.6,9.2c6.2,30.9,11.2,62.1,16.8,93.1c6.4,35.6,12.7,71.2,19,106.8
	c3.9,21.7,7.7,43.3,11.6,65c0.5,2.8-0.2,4.7-2.2,6.8c-31.5,34.1-62.9,68.3-94.3,102.5c-1.6,1.7-3.1,2.7-5.6,2.7
	c-18.6-0.3-37.2-0.4-55.8-0.5c-2.6,0-3.8-0.5-4.2-3.5c-0.6-4.6-3.4-6.7-8-7.2c-1.9-0.2-3.8-0.1-5.6-0.1
	c-61.8-0.1-123.6-0.2-185.4-0.2c-0.7,0-1.4,0-2,0c-4.5-0.1-4.8,1-5.5-4.9c-2.5-20.2-3.4-40.5-3-60.8c1.1-45.9,9.4-90.6,26-133.4
	C116.2,258,183.8,183.9,280.3,136.4c35.2-17.4,72.5-28.7,111.3-35c27.7-4.5,55.7-6.3,83.7-4.7C586,103.1,680,146.5,756.3,227.1
	c53.3,56.4,87.3,123.2,103,199.2c8.1,38.8,10.3,78.1,6.7,117.7c-2.4,26.6-7.2,52.7-14.6,78.3c-0.8,2.8-1.9,4-5.1,4.2
	c-33.3,1.9-63.7,12.5-91,31.7c-15.6,11-29,24.3-40.2,39.8c-0.9,1.2-1.8,2.4-2.8,3.7C712.4,701.7,712.1,701.7,711.5,702z"/>
<path class="st1" d="M427.1,481.2c1.4,3.5,1.5,7.2,2.3,10.8c1,4.5,2.2,8.9,3.7,13.3c1.5,4.2,4.4,6.2,8.9,6.3
	c8.5,0.2,17.1,0.5,25.6,0.7c53.8,1.2,107.5,2.3,161.3,3.4c15,0.3,30,0.7,45,0.7c4.3,0,7.6,1.6,10.4,4.5c11,11.4,16,36.6-3.4,51.8
	c-2,1.6-4.3,2.6-6.8,3.5c-2.2,0.8-4.5,1.7-6.5,2.9c-3.1,1.9-4.4,5-3.6,8.3c0.7,3.4,2.9,5.4,6.3,5.9c13.4,2.2,22.3,10.2,28.9,21.5
	c5,8.4,5.1,16.8,0.4,25.3c-5.5,10.1-13.6,17.4-24.3,21.7c-1.1,0.5-2.3,0.8-3.3,1.3c-5.9,3.1-6.5,10.9-1,14.7c1,0.7,2.1,1.2,3.1,1.8
	c10.7,6,18,14.9,22.2,26.4c1.3,3.6,1.7,7.3,0.9,11.1c-3.1,14.2-11.5,23.6-25.2,28.5c-1.6,0.6-3.3,0.9-4.8,1.7
	c-3.3,1.8-5,4.6-4.9,8.4c0,3.7,2.5,5.5,5.6,6.4c6.6,2,11,6.7,15,11.8c1.4,1.7,1.7,3.5,1.5,5.7c-1.2,9.9-0.9,19.8-0.4,29.6
	c0.1,2-0.3,3.7-1.5,5.2c-7.2,9-16.3,14.4-28,14.4c-87.6-0.3-175.1-0.7-262.7-0.8c-16.2,0-30.9-4.4-45-11.8
	c-6.9-3.7-13.6-7.8-20.2-12.1c-13-8.6-27.2-13.2-42.7-14.2c-7.3-0.5-14.6-1.1-21.9-1.7c-3.9-0.3-3.9-0.4-3.8-4.1
	c0.2-18.4,0.4-36.9,0.7-55.3c0.7-44.2,1.3-88.4,2-132.6c0-2.4,0.1-4.8,0.2-7.2c0.2-5.4-0.6-5,4.9-5c17.1,0.2,34.1,0.4,51.2,0.6
	c3.1,0,6.1,0.1,9.2,0.2c4.2,0.1,7.7-1.1,9.8-5.2c0.6-1.2,1.6-2.2,2.5-3.2c28.5-31,57.1-62,85.7-93
	C425,482.6,425.6,481.5,427.1,481.2z"/>
<path class="st2" d="M57.8,573.7c1.8-1,3.5-0.5,5.1-0.5c59.1,0.1,118.1,0.3,177.2,0.4c1,0,2,0.1,3.1,0c1.6-0.1,2.1,0.8,2,2.2
	c0,0.9,0,1.7,0,2.6c-1.2,80.7-2.4,161.4-3.7,242.2c-0.1,7.1,0.6,6.1-6.5,6.1c-6.8,0-13.7-0.3-20.5-0.1c-3.5,0.1-6.1-1-8.8-3.1
	c-39-31.5-71.4-68.8-97-112c-25-42.2-41.8-87.5-50.8-135.8C57.8,575,57.9,574.3,57.8,573.7z"/>
<path class="st2" d="M517.9,496.6c-0.4,0.9-1.2,0.6-1.7,0.6c-14.5-0.3-29-0.5-43.5-0.9c-3.8-0.1-3.8-0.2-4.4-3.9
	c-6.4-42.8-12.8-85.7-19.2-128.5c-5.2-34.6-10.3-69.2-15.4-103.7c-0.5-3.6-0.5-3.6,3.2-5c21.6-8,35.3-23.2,41.5-45.2
	c1.4-5.1,1.4-5.2,6.7-5.7c16.5-1.5,33-2.1,49.6-2.2c22.2-0.2,44.3,2.1,66.4,3.7c3.4,0.2,6.8,0.5,10.2,0.7c3.1,0.1,4.8,1.3,5.6,4.6
	c1.4,5.8,4.1,11.2,6.9,16.4c5.8,11,14.6,18.7,25.9,23.8c1.4,0.6,2.7,1.4,4.2,1.8c2.2,0.6,2.9,1.7,2.5,4.1
	c-1.2,6.7-2.1,13.5-3.1,20.2c-3.7,24.1-7.3,48.2-11,72.3c-3.9,26-7.9,51.9-11.8,77.9c-3.2,21.4-6.5,42.8-9.6,64.3
	c-1.1,7.5-1,7.6-8.4,7.4c-14.7-0.3-29.4-0.6-44-0.9c-1.4,0-2.9-0.2-4.4-0.3c0.3-1.4,1.4-1.2,2.1-1.4c30.6-11.3,48.9-33.3,55.9-64.7
	c5.2-23.1,1.6-45.2-11.2-65.3c-22.5-35.6-67.9-46.3-103.5-23.8c-28.6,18.1-41.9,45-41.5,78.6c0.3,22.2,8.5,41.5,24.3,57.4
	c7.1,7.1,15.4,12.4,24.6,16.2C516,495.5,517.2,495.6,517.9,496.6z M525.6,254.9c-0.1,12.5,9.2,22.4,21,22.3
	c12,0,21.5-10.1,21.5-22.6c0-12.2-9.2-21.9-20.8-22C535.3,232.5,525.7,242.4,525.6,254.9z"/>
<path class="st2" d="M687.3,832.6c0.6,2.5,1.1,4.3,1.6,6.1c1.8,6.4,2.5,4.8-3,8.4C638.8,878,587.5,898.4,532,908
	c-28,4.9-56.2,6.9-84.6,5.7c-76.7-3.3-147.3-26-211.4-68.3c-1.1-0.7-2.4-1.1-3.1-3c4.3,0,8.3,0,12.3,0c8-0.1,11.9-3.9,12-11.9
	c0.1-7,0.1-14,0.2-21c0-1.7-0.3-3.4,0.5-5.4c12.8,0.6,25.7,0.9,38.4,3.7c7.7,1.7,14.7,5.2,21.4,9.6c8,5.2,16.1,10.3,24.6,14.6
	c15.8,8,32.4,12.1,50.2,12c30.4-0.1,60.8,0.2,91.1,0.3c53.6,0.2,107.2,0.3,160.8,0.4c4.4,0,8.8,0.5,13.3,0.2
	c9.9-0.6,18.2-5.1,26.4-10.1C685.1,834.2,685.9,833.6,687.3,832.6z"/>
<path class="st2" d="M452.8,495.3c-1.3,1-2.5,0.5-3.7,0.7c-2.4,0.3-3.2-0.7-3.6-3.1c-2.5-14.8-5.3-29.5-7.9-44.3
	c-6-33.7-12-67.5-18-101.2c-6.3-35.3-12.5-70.5-18.8-105.8c-2.5-14.1-5-28.2-7.4-42.3c-0.6-3.6-0.6-3.6,3.1-4.6
	c18.8-4.9,38-8.3,57.2-11c34.6-4.7,69.3-6.2,104.2-5.2c43.1,1.2,85.7,6.5,127.4,17.6c5.9,1.6,5.8,1.6,4.9,7.5
	c-4,25.8-7.9,51.6-11.8,77.4c-4.3,28.2-8.6,56.3-12.9,84.5c-3.9,25.6-7.8,51.3-11.7,76.9c-2.8,18.2-5.6,36.4-8.2,54.6
	c-0.4,2.8-1.7,3.2-4.1,3.1c-6.8-0.3-5.8,0.3-5-5.4c3.5-23.6,7.2-47.2,10.7-70.8c3.9-26,7.8-51.9,11.7-77.9
	c3.5-23.4,7.1-46.9,10.6-70.3c1.1-7.6,2.3-15.2,3.4-22.8c0.8-5.7-1-8.8-6.5-10.6c-5.7-1.9-11.1-4.3-16.1-7.7
	c-7.2-4.9-11.5-12-15.1-19.6c-1.9-4-3.4-8.2-4.4-12.5c-1.4-5.6-5.1-8.5-10.8-9.4c-37.9-5.7-76-7.9-114.3-6.1
	c-9.7,0.5-19.4,0.9-29,2.7c-6.7,1.3-9.1,3.8-10.6,10.5c-4.4,19.4-15.7,32.9-34.4,40.1c-3,1.2-6,2.4-8.9,3.8c-5.1,2.3-6.4,4.4-5.7,10
	c0.7,5.9,1.6,11.8,2.5,17.7c4.3,29.2,8.7,58.4,13.1,87.6c4.3,28.7,8.6,57.3,12.9,86C447.9,462.1,450.3,478.8,452.8,495.3z"/>
<path class="st2" d="M550.6,347c22.7,1.3,40.6,13.4,51.2,35.8c16.4,34.4,1.7,78.1-31.7,95.1c-26.2,13.3-56.3,6.7-74.3-16.6
	c-28.9-37.2-11.3-96.5,32.9-111.2C535.1,348,541.7,347.1,550.6,347z M566.5,401.1c8,0,13.2,4.9,13.6,12.9c0.3,4.4-0.6,8.5-2.6,12.4
	c-0.6,1.2-1.3,2.4-1.9,3.6c-1.6,3.8-0.7,7.1,2.3,9c3.1,2,7,1.3,9.5-1.9c1.6-2.2,3.3-4.5,4.1-7.1c1.6-5.2,3.8-8.8,10.1-9.1
	c3.7-0.2,5.8-4.4,5.4-8.1c-0.4-3.7-3.2-6.5-7.1-6.9c-1-0.1-2.1-0.1-3.1,0.1c-1.9,0.3-2.6-0.5-3.3-2.2c-5.5-13.4-16.5-19.8-30.8-18.3
	c-10.6,1.1-18.2,7.8-20.9,18.2c-0.9,3.7-1,7.4-1.3,11.2c-0.2,2.5-0.2,5.1-0.8,7.6c-1.9,8-11.5,12.1-18.6,7.9
	c-4.6-2.7-7.3-6.6-7.7-11.9c-0.5-5.9,0.3-11.6,2.5-17.1c0.6-1.4,1.3-2.8,1.6-4.3c0.6-3.1-0.3-5.8-3-7.6c-2.5-1.8-5.1-1.6-7.7-0.4
	c-2.1,1-3.5,2.6-4.6,4.6c-1.3,2.4-2.2,5-2.8,7.7c-1.2,5.1-1.2,5.1-6.2,5.9c-1.3,0.2-2.7,0.5-4,1c-3,1.3-4.7,4.2-4.5,7.4
	c0.1,3.2,2,5.7,5.1,7c1.5,0.6,3,0.9,4.5,0.5c3.2-0.9,4.3,0.7,4.8,3.4c0.3,1.3,0.8,2.6,1.4,3.8c5.3,11.4,18.3,19.1,29.7,17.6
	c13.1-1.7,23.2-11.7,25.6-24.9c0.8-4.4,0.5-8.9,1-13.3C557.4,403.6,560.3,401.1,566.5,401.1z"/>
<path class="st0" d="M525.6,254.9c0.1-12.5,9.7-22.5,21.7-22.4c11.6,0.1,20.8,9.8,20.8,22c0,12.5-9.5,22.6-21.5,22.6
	C534.8,277.3,525.5,267.4,525.6,254.9z"/>
<path class="st3" d="M727.8,797.3c0-62.9,44.8-116.3,105.4-127.3c55.6-10,110,16.5,135,65.9c31.3,61.8,6.3,137.8-55.9,169.9
	c-59.8,30.9-132.8,10.7-166.8-46.2C733.7,840,728.1,818.6,727.8,797.3z M743.7,801.8c0.2,20.8,8.8,44.8,26.5,65.2
	c35.2,40.5,94.3,49.4,141.1,21.4c49-29.3,68.1-90.1,44.7-141.7c-20.3-44.6-69.4-70-118.8-61.3C783.2,694.8,743.8,741.3,743.7,801.8z
	"/>
<path class="st0" d="M566.5,401.1c-6.2,0-9.1,2.5-9.9,8.7c-0.5,4.4-0.2,8.8-1,13.3c-2.4,13.2-12.5,23.2-25.6,24.9
	c-11.5,1.5-24.5-6.2-29.7-17.6c-0.6-1.2-1.1-2.5-1.4-3.8c-0.5-2.8-1.6-4.3-4.8-3.4c-1.5,0.4-3,0.1-4.5-0.5c-3.1-1.2-5-3.7-5.1-7
	c-0.1-3.2,1.6-6.1,4.5-7.4c1.2-0.5,2.6-0.8,4-1c5-0.8,5-0.8,6.2-5.9c0.7-2.7,1.5-5.2,2.8-7.7c1.1-2,2.5-3.6,4.6-4.6
	c2.6-1.3,5.3-1.4,7.7,0.4c2.6,1.9,3.5,4.6,3,7.6c-0.3,1.5-1,2.9-1.6,4.3c-2.1,5.5-3,11.2-2.5,17.1c0.5,5.3,3.2,9.3,7.7,11.9
	c7.1,4.2,16.7,0.1,18.6-7.9c0.6-2.5,0.6-5.1,0.8-7.6c0.3-3.7,0.4-7.5,1.3-11.2c2.7-10.4,10.2-17,20.9-18.2
	c14.3-1.5,25.3,4.9,30.8,18.3c0.7,1.7,1.4,2.5,3.3,2.2c1-0.2,2.1-0.2,3.1-0.1c3.9,0.4,6.7,3.2,7.1,6.9c0.4,3.7-1.7,8-5.4,8.1
	c-6.3,0.3-8.5,3.9-10.1,9.1c-0.8,2.5-2.4,4.9-4.1,7.1c-2.5,3.3-6.4,4-9.5,1.9c-3-2-3.9-5.3-2.3-9c0.5-1.3,1.3-2.4,1.9-3.6
	c2-3.9,2.9-8,2.6-12.4C579.7,406.1,574.5,401.1,566.5,401.1z"/>
<path class="st3" d="M832.1,795.1c1.8-2.2,3.1-4,4.6-5.6c20.1-20.4,40.4-40.7,61.2-60.5c5-4.8,10.3-9,18-7.7
	c3.8,0.6,7.2,1.9,9.9,4.7c5.7,5.9,11.5,11.7,17,17.8c6.3,7.1,10,15.1,6.9,24.8c-1.4,4.5-4.5,8-7.8,11.2
	c-15.5,15.4-31.1,30.7-46.6,46.1c-12.2,12.1-24.4,24.4-36.7,36.4c-3.9,3.8-8.1,7.3-12.3,10.9c-2.8,2.5-6.1,4.4-9.5,6
	c-5.5,2.7-10.8,2.3-16-1c-4.8-3.1-8.9-6.9-12.9-10.9c-13.5-13.8-26.8-27.7-40.2-41.6c-3.7-3.8-6.6-8.2-9.4-12.7
	c-4-6.4-3.2-12.7,1.1-18.1c6.8-8.5,14.4-16.4,23-23.2c2.7-2.1,5.9-3.5,9.1-4.5c4.9-1.7,9.4-0.4,13.5,2.5c3.5,2.5,6.5,5.5,9.6,8.5
	C820.2,783.5,825.7,788.8,832.1,795.1z M828.7,862.9c4,0,7.3-1.5,10.3-3.5c4.4-3,8.1-6.8,11.7-10.6c26.8-28.2,55-55,82.6-82.5
	c3.3-3.3,3.7-6.2,0.9-9.9c-1.6-2-3.3-3.9-5.1-5.7c-4-4.2-8.1-8.4-12.2-12.4c-3-2.9-4.2-2.9-7.5-0.4c-1.8,1.3-3.4,2.9-4.9,4.5
	c-25.1,26.5-51.3,52-76.7,78.2c-0.9,1-1.9,2-3,2.8c-3.3,2.5-7.6,2.3-10.3-0.3c-2.9-2.7-3.2-7.2-0.5-10.7c1.1-1.5,2.6-2.7,3.9-4.1
	c2.5-2.6,2.6-2.7,0.1-5.1c-5.8-5.8-11.7-11.5-17.6-17.2c-4.3-4.1-6.9-4.4-11.7-0.9c-5.9,4.4-11.2,9.5-15.8,15.2
	c-2.9,3.5-2.8,4.8,0,8.6c3.2,4.4,6.6,8.7,10.4,12.6c8.8,8.8,17.6,17.7,26.4,26.5c3.6,3.6,7.2,7.3,10.9,10.8
	C822.9,861.2,825.4,863.2,828.7,862.9z"/>
<path class="st4" d="M220.8,662.3l22,22c5.2,5.2,13.7,5.2,18.9,0l22-22c5.2-5.2,5.2-13.7,0-18.9l-22-22c-5.2-5.2-13.7-5.2-18.9,0
	l-22,22C215.6,648.7,215.6,657.1,220.8,662.3z"/>
<path class="st4" d="M220.8,726.5l22,22c5.2,5.2,13.7,5.2,18.9,0l22-22c5.2-5.2,5.2-13.7,0-18.9l-22-22c-5.2-5.2-13.7-5.2-18.9,0
	l-22,22C215.6,712.8,215.6,721.2,220.8,726.5z"/>
<path class="st3" d="M729.5,922.4l17.3,17.3c2.5,2.5,6.6,2.5,9.1,0l17.3-17.3c2.5-2.5,2.5-6.6,0-9.1L755.9,896
	c-2.5-2.5-6.6-2.5-9.1,0l-17.3,17.3C727,915.8,727,919.9,729.5,922.4z"/>
<path class="st3" d="M841.2,850.8l17.3,17.3c2.5,2.5,6.6,2.5,9.1,0l17.3-17.3c2.5-2.5,2.5-6.6,0-9.1l-17.3-17.3
	c-2.5-2.5-6.6-2.5-9.1,0l-17.3,17.3C838.6,844.2,838.6,848.3,841.2,850.8z"/>
<circle class="st5" cx="853.8" cy="793.6" r="160.5"/>
</svg>
