<?xml version="1.0" encoding="utf-8"?>
<!-- Generator: Adobe Illustrator 28.0.0, SVG Export Plug-In . SVG Version: 6.00 Build 0)  -->
<svg version="1.1" id="Capa_1" xmlns="http://www.w3.org/2000/svg" xmlns:xlink="http://www.w3.org/1999/xlink" x="0px" y="0px"
	 viewBox="0 0 1080 1080" style="enable-background:new 0 0 1080 1080;" xml:space="preserve">
<style type="text/css">
	.st0{fill:#DBB300;}
	.st1{fill:#090A0A;}
	.st2{fill:#0A0A0A;}
	.st3{fill:#6EE1EB;}
</style>
<path class="st0" d="M774.9,791.2c-17.9,0.1-32.3-14.1-32.4-31.8c-0.1-17.4,13.8-31.5,31.3-31.6c18-0.1,33,14.5,32.8,32.1
	C806.5,777.1,792.3,791.1,774.9,791.2z M789.5,759.6c-0.1-8.3-7.1-15-15.5-14.9c-8.1,0.1-14.7,6.6-14.7,14.5
	c0,8.1,7.1,15.2,15.4,15.2C782.9,774.5,789.6,767.8,789.5,759.6z"/>
<path class="st0" d="M704.3,791.2c-17.8-0.1-32.3-14.6-32.3-32.1c0.1-17.2,14.3-31.3,31.7-31.3c18,0,32.6,14.5,32.5,32.4
	C736,777.4,721.8,791.2,704.3,791.2z M703.9,744.6c-8.2,0-14.7,6.3-14.8,14.3c-0.1,8.5,7,15.6,15.6,15.4c8.1-0.2,14.6-6.6,14.6-14.6
	C719.2,751.5,712.3,744.6,703.9,744.6z"/>
<path class="st0" d="M632.3,792.3c-17.8-0.1-32.3-14.6-32.2-32.1c0.1-17.2,14.3-31.3,31.7-31.3c18,0,32.6,14.6,32.4,32.4
	C664.1,778.5,649.9,792.3,632.3,792.3z M617.2,760c-0.1,8.3,6.6,15.2,15,15.5c8.2,0.2,15.1-6.4,15.1-14.6c0-8.3-7-15.1-15.4-15.2
	C623.8,745.7,617.3,752,617.2,760z"/>
<path class="st1" d="M791.6,441.9c-23.6-14.3-53.7-6.1-66.4,18.7c-2.5,4.9-5.1,6.3-10.2,6.2c-19.9-0.2-39.7,0-59.6-0.1
	c-7,0-7.2-0.1-7.2-6.7c0-31.9,0.2-63.8,0.3-95.7c0-6.2,0.2-6.3,6.6-6.3c19.6,0.1,39.1,0.5,58.7,0.4c6,0,9.4,1.6,12.4,7.3
	c9.8,18.5,32.1,27.4,52.5,22.1c20.6-5.4,34.9-23.2,35.2-43.8c0.3-22.1-14.8-41-37-46.1c-21-4.8-43.6,5.8-52.4,25.8
	c-2.7,6.2-6,7.6-12,7.4c-19.2-0.6-38.5-1-57.8-1.1c-4.5,0-6.2-1-6.2-6c0.3-32.8,0.4-65.6,0.3-98.4c0-4.6,1.2-6.2,6.1-6.1
	c19,0.3,37.9,0.4,56.9-0.1c7.3-0.2,11.5,1.4,15.1,8.6c10.2,20.2,34.9,29.2,56.5,21.7c21.8-7.5,34.5-29.2,30.6-52.1
	c-3.7-21.7-23.5-38.2-46.3-37.9c-19.5,0.3-33.8,9.4-42.5,26.9c-1.5,3.1-2.7,5.4-7,5.4c-21.4-0.3-42.7-0.2-64.1-0.1
	c-4,0-5.2-1.6-5.1-5.3c0.3-9,0.6-18.1,0.4-27.1c-0.3-14.5-4.6-27.3-17.3-35.8c-8.5-5.7-17.9-8.3-28.2-8.1c-9,0.2-18.1,0.3-27.1,0.4
	c-111.1,1.1-222.1,2.2-333.2,3.2c-5.4,0.1-10.8,0.6-16.2,1.5c-22,3.8-39.4,23.4-39.3,47.9c0.6,85.2,0.2,170.4,0.2,255.6h-1.2
	c0,80.4,0,160.7,0,241.1c0,10.2,0.1,20.4,1.1,30.6c2.3,23.3,19,37.4,33.7,41.4c7.1,1.9,14.2,2.4,21.4,2.3
	c83.4-0.8,166.9-1.7,250.3-2.5c6.8-9.4,13.7-18.8,20.6-28.1c-91.9,0.9-183.8,1.8-275.7,3c-15.2,0.2-22.2-10.5-22.8-21.3
	c-0.3-6-0.6-12-0.6-18c0.2-167.4,0.5-334.8,0.8-502.2c0-17.6,3.3-21.2,21.4-22.7c4.8-0.4,9.6-0.8,14.4-0.8
	c113.5-1.2,227-2.4,340.5-3.5c5.1-0.1,10.2-0.2,15.3,0c9.6,0.4,13.5,4.7,13.5,14.2c0,89.1,0,178.2,0,267.3c-0.4,0-0.8,0-1.2,0
	c0,50.9,0,101.9,0,152.8c6.8-7.4,13.6-14.7,20.5-22c2.2-2.4,4.9-4.7,7.5-7c0-16.1,0-32.2-0.1-48.2c0-5,1.9-6,6.4-6
	c20.5,0.1,40.9,0.1,61.4-0.1c4.2,0,7,0.9,8.1,5.2c0.4,1.4,1.2,2.7,2,4c9.3,16.8,28.9,26.3,48,23.3c20.6-3.2,35.7-17.8,39.5-38
	C816.7,471.1,807.7,451.7,791.6,441.9z M767,324.7c10.6,0.1,19.1,8.6,18.9,18.8c-0.2,10.1-9.2,18.5-19.6,18.1
	c-10.2-0.4-18.4-8.6-18.4-18.4C747.9,332.8,756.5,324.5,767,324.7z M768.8,187.4c10.7,0.7,18.6,9.3,18,19.6
	c-0.5,9.7-9.5,17.6-19.5,17.3c-10.6-0.4-18.8-9-18.4-19.3C749.2,194.8,758.3,186.7,768.8,187.4z M767.4,499.5
	c-10.8,0.2-19.3-7.8-19.4-18.1c-0.1-10.1,7.7-18.1,18.1-18.4c11.2-0.4,20,7.8,19.9,18.5C785.9,491.5,777.7,499.4,767.4,499.5z"/>
<path class="st0" d="M703,912.5c-79.2,0.1-145.5-54.9-159-130.5c-13.2-73.7,27.9-148.9,97.3-177.5c47.5-19.6,94.7-18.1,140,6.2
	c43.8,23.5,70.8,60.6,80.2,109.6c16.7,86.9-41.1,172.8-131.9,189.6C720.1,911.6,710.5,912.2,703,912.5z M704.7,611.5
	c-28.8,0-55.2,8.1-79.1,24c-58.7,38.8-80.5,115-51,177.3c34.1,72.1,120.3,99.6,190.7,64.1c57.8-29.1,89.1-93,76.2-154.8
	C828,657,771.4,611.3,704.7,611.5z"/>
<path class="st1" d="M420.5,581.6c-23.8,0-47.5,0-71.3,0c-2.4,0-4.8-0.1-7.2-0.3c-10.3-1-15.2-5.8-15.6-16.2
	c-0.5-11.7-0.4-23.5-0.4-35.2c0-4.2,0.1-8.4,0.3-12.6c0.4-9.7,3.9-13.5,13.9-13.9c5.7-0.3,11.4,0.2,17.1,0.5
	c2.1,0.1,4.2,0.5,6.3,0.6c7.8,0.5,7.9,0.5,8-7.4c0.4-28,0.7-56,1-83.9c0.1-8.1,0.8-7.7-7.9-7.7c-6.9,0-13.8,0.1-20.8,0
	c-10.7-0.2-18.7-6.8-19.4-17.4c-0.8-13.2-0.7-26.5-0.5-39.7c0.1-7.6,4.3-11.8,12-13.6c3.5-0.9,7.1-1.2,10.7-1.2
	c34.3,0.1,68.6,0.1,102.9,0.2c4.2,0,8.4,0.3,12.6,0.9c6.3,0.9,9.5,4.2,10.4,10.5c0.5,3.2,0.4,6.6,0.4,9.9
	c-0.1,46.6-0.2,93.3-0.3,139.9c0,2.1,0.1,4.2,0,6.3c-0.2,3.2,1.4,4.2,4.3,4.2c9,0.1,18,0.6,27.1,0.6c12.6,0,17.5,4.6,17.6,17.2
	c0.1,14.4,0,28.9-0.2,43.3c-0.2,10.3-4.4,14.6-14.4,16.1c-6,0.9-11.9,1-18,1c-22.9-0.1-45.7,0-68.6,0
	C420.5,582.9,420.5,582.2,420.5,581.6z M444.5,443.3c0.2,0,0.5,0,0.8,0c0-25,0-50,0-74.9c0-6.3-0.1-6.4-6.4-6.5
	c-20.5-0.1-40.9-0.1-61.4-0.1c-6.3,0-12.6-0.1-19,0c-6.6,0.1-6.6,0.1-6.6,6.2c0,0.9,0,1.8,0,2.7c0.2,6.4,0.2,6.5,6.6,6.5
	c9.6,0.1,19.3-0.1,28.9,0.1c7.8,0.2,12.2,4.5,13,12.2c0.3,2.7,0.1,5.4,0.1,8.1c-0.2,34.3-0.5,68.6-0.7,102.9c0,4.8-0.3,9.6-0.9,14.4
	c-1.6,11.9-4.8,15-16.7,15.1c-7.2,0.1-14.4-0.1-21.7-0.1c-6.7,0-6.7,0-6.5,7c0.1,3.3,0.3,6.6,0.4,9.9c0,8,0.9,6.5,7.2,6.6
	c39.1,0.5,78.2,1.1,117.4,1.6c15.3,0.2,15.3,0.2,15-15.1c-0.1-6.3-0.1-6.4-6.5-6.5c-9.3-0.2-18.7,0.1-28-0.3
	c-10.4-0.4-15-5.4-14.9-15.1C444.5,493.3,444.5,468.3,444.5,443.3z"/>
<path class="st2" d="M427.1,321.4c-20.5-1-36.4-9-47.3-25.5c-17.2-25.9-8.2-59.6,19.4-74c33.3-17.3,74.3,2.5,81.1,39.1
	c5.2,27.8-14.9,55.2-43.5,59.4C433.4,321,429.7,321.2,427.1,321.4z M426.5,293.3c12.4,0.3,23.4-7.4,25.9-18.1
	c2.7-11.5-3.5-23.3-15-28.7c-16.4-7.7-35.4,1.1-38,17.6C397.1,278.9,410.1,292.9,426.5,293.3z"/>
<path class="st0" d="M703.3,964.5c-104.8,0.2-192.5-72.7-210.5-172.8c-17.5-97.5,36.9-197.1,128.8-235c62.9-25.9,125.3-24,185.2,8.3
	c57.9,31.2,93.7,80.3,106.1,145c22.2,115-54.4,228.7-174.6,251C726,963.3,713.4,964.1,703.3,964.5z M705.7,566.2
	c-38.1,0-73,10.7-104.7,31.7c-77.6,51.3-106.5,152.2-67.5,234.6c45.1,95.4,159.2,131.8,252.3,84.9
	c76.5-38.5,117.9-123.1,100.9-204.9C868.8,626.4,794,565.9,705.7,566.2z"/>
<path class="st3" d="M167.5,296.6l24.3,24.3c5.8,5.8,15.1,5.8,20.9,0l24.3-24.3c5.8-5.8,5.8-15.1,0-20.9l-24.3-24.3
	c-5.8-5.8-15.1-5.8-20.9,0l-24.3,24.3C161.7,281.5,161.7,290.8,167.5,296.6z"/>
<path class="st3" d="M167.5,367.4l24.3,24.3c5.8,5.8,15.1,5.8,20.9,0l24.3-24.3c5.8-5.8,5.8-15.1,0-20.9l-24.3-24.3
	c-5.8-5.8-15.1-5.8-20.9,0l-24.3,24.3C161.7,352.3,161.7,361.7,167.5,367.4z"/>
<path class="st0" d="M546.9,910.2l22.1,22.1c3.2,3.2,8.5,3.2,11.7,0l22.1-22.1c3.2-3.2,3.2-8.5,0-11.7l-22.1-22.1
	c-3.2-3.2-8.5-3.2-11.7,0l-22.1,22.1C543.6,901.7,543.6,906.9,546.9,910.2z"/>
</svg>
