<?xml version="1.0" encoding="utf-8"?>
<!-- Generator: Adobe Illustrator 28.0.0, SVG Export Plug-In . SVG Version: 6.00 Build 0)  -->
<svg version="1.1" id="Capa_1" xmlns="http://www.w3.org/2000/svg" xmlns:xlink="http://www.w3.org/1999/xlink" x="0px" y="0px"
	 viewBox="0 0 600 600" style="enable-background:new 0 0 600 600;" xml:space="preserve">
<style type="text/css">
	.st0{fill:#0A0A0A;}
	.st1{fill:#FEFEFE;}
	.st2{fill:#FF5500;}
	.st3{fill:#6EE1EB;}
	.st4{fill:none;stroke:#FF5500;stroke-width:13;stroke-miterlimit:10;}
</style>
<path class="st0" d="M385.6,405.5c-1.3-0.3-2.5,0.2-3.8,0.3c-11.9,0.7-23.9,1.3-35.9,1.7c-16.8,0.6-33.7,0.2-50.5,0.1
	c-11.6-0.1-23.2-0.5-34.8-0.1c-10.6,0.4-20.7,2.9-29.8,8.7c-2.6,1.6-5.4,3.1-7.6,5.3c-2.6,2.6-2.5,2,0,4.4c1.2,1.2,2.5,2.3,3.6,3.5
	c5.1,5.8,4.9,14-0.3,19.3c-14.1,14.1-28.2,28.1-42.3,42.2c-1.8,1.8-3.8,3.3-5.9,4.7c-1.7,1.1-3.6,2-5.6,2.4c-4,0.7-7.5-0.2-10.5-3.2
	c-14.5-14.7-29.2-29.3-43.8-43.9c-16.5-16.6-33-33.1-49.5-49.7c-1.6-1.7-3.2-3.4-4.7-5.2c-1.7-1.9-3-4-3.7-6.5
	c-0.9-3.4-0.6-6.7,1.9-9.5c3.9-4.4,8.2-8.4,12.5-12.5c10-9.8,20.1-19.5,30.1-29.4c2.9-2.8,6.1-5.3,9.4-7.6c4.5-3.1,7.6-3,12.1,0
	c0.7,0.5,1.4,0.9,2,1.3c0.9-0.3,1.1-1.1,1.5-1.7c2.5-3.8,5.1-7.6,8.1-11.1c9.9-11.6,19.8-23.2,31.5-33c8.6-7.2,17.9-13.5,28.4-17.8
	c11.9-4.9,24.2-6.7,37-5.6c14.1,1.2,27.2,5.5,39.8,11.7c7.2,3.6,14.6,5.4,22.6,5.4c28.1-0.1,56.3-0.1,84.4,0.1
	c10.5,0.1,19.9,3.7,28,10.5c3,2.6,5.3,5.8,7.1,9.3c0.7,1.4,1.3,1.5,2.6,0.8c3.1-1.9,6.3-3.7,9.2-5.9c11.1-8.6,20.4-19,27.8-30.9
	c2.5-4,4.9-8,7.5-11.9c3.1-4.8,7-8.8,11.7-11.9c8.8-5.8,18-7.8,28.2-4c6.9,2.6,13,6.1,17.7,11.9c2.3,2.8,3.9,5.9,4.7,9.4
	c2.6,11.7,1.7,23-3.3,34c-4.5,9.9-10.4,19-16.6,27.9c-6.8,9.6-14.4,18.4-22.7,26.7c-0.6,0.6-1.4,1.1-1.8,2.4
	c3.4,0.2,6.7,0.4,9.8,1.2c36.9,9.2,61.8,31.3,70.7,68.7c7.2,30.3-0.7,57.7-21.1,81.1c-15.6,17.8-35.4,28.2-58.9,31
	c-30.4,3.6-56.8-5.3-78.3-27.2c-16.7-17-24.8-37.9-25.1-61.8c-0.1-11.3,1.9-22.3,6-32.9C385.4,407.3,385.9,406.5,385.6,405.5z
	 M214.9,417.5c2.1-1.7,3.8-3.7,6-5.2c12.2-8.7,25.8-13.3,40.8-13.5c7.3-0.1,14.6,0,21.9,0.2c9.2,0.2,18.3,0.1,27.5,0.2
	c17.4,0.2,34.8-0.1,52.1-1c8.2-0.5,16.4-0.7,24.6-1.7c2.1-0.2,3.3-1,4.4-2.8c11.2-18.6,26.9-31.8,47.1-39.7
	c9.1-3.6,18.6-5.6,28.3-6.2c1.3-0.1,2.2-0.5,3.2-1.4c8.3-8,16.3-16.3,23.3-25.4c7.9-10.2,15.2-20.8,20.7-32.6
	c4.4-9.3,5.4-18.9,3.2-29c-0.6-2.5-1.7-4.7-3.4-6.7c-4.8-5.8-11.3-8.5-18.3-10c-2-0.4-4.1-0.3-6.1,0.2c-6.7,1.5-11.9,5.2-16.3,10.3
	c-2.4,2.8-4.3,5.9-6.1,9c-5.6,9.5-12,18.5-19.6,26.5c-7.4,7.7-15.6,14.2-25.3,18.8c-2.2,1-2.2,1-1.7,3.4c1.9,10.6-0.6,20.2-6.9,28.9
	c-1.5,2.1-3.3,3.8-5.5,5.1c-6.9,4.3-14.1,6.9-22.4,6.9c-31.8,0.3-63.6,1-95.4,1.5c-0.9,0-1.9,0-2.8-0.2c-1.8-0.4-2.9-1.8-3.1-3.6
	c-0.2-1.9,0.7-3.5,2.4-4.4c1-0.5,2.2-0.5,3.3-0.5c4.7-0.1,9.3-0.1,14-0.2c28.1-0.5,56.3-0.9,84.4-1.4c1,0,2.1,0,3.1-0.3
	c4-1.2,7.9-2.7,11.5-5c1.2-0.8,2.3-1.7,3.1-2.8c2.8-3.7,4.9-7.8,5.6-12.4c3.1-19-11.1-33.8-28.7-34c-29.7-0.4-59.5-0.2-89.2-0.3
	c-1.4,0-2.8,0.1-4.2-0.1c-6.7-1.1-13.1-3-19.2-6c-9.7-4.8-19.8-8.6-30.7-10.2c-13.4-2-26.5-1.1-39.1,4.1c-11.3,4.7-21,11.7-30,19.8
	c-8.6,7.7-16,16.5-23.7,25c-4,4.5-8,8.9-11.3,13.9c-2,3-2.1,3,0.4,5.5c22.9,22.6,45.7,45.3,68.6,67.9
	C208.5,411.2,211.7,414.3,214.9,417.5z M120.2,338.3c-2.7-0.2-4.5,1.4-6.2,3c-9.7,9.5-19.4,18.9-29.1,28.4
	c-4.7,4.6-9.5,9.2-14.3,13.9c-2,2-2.1,3.6-0.6,6c0.6,1,1.4,1.7,2.2,2.5c1.4,1.3,2.7,2.6,4,3.9c29.6,29.7,59.1,59.3,88.7,89
	c0.9,0.9,1.8,1.9,2.8,2.7c1.6,1.5,3.5,1.7,5.5,0.8c1.1-0.5,2.1-1.2,3-2c14.5-14.5,29-28.9,43.5-43.4c0.7-0.7,1.3-1.4,1.8-2.1
	c1.3-2,1.1-3.7-0.7-5.5c-21.8-21.6-43.6-43.1-65.4-64.7c-10.2-10.1-20.5-20.2-30.7-30.4C123.4,339.2,122,338.2,120.2,338.3z
	 M473.5,356c-3.7,0.4-7.4,0.4-11,0.9c-21.6,3-39.7,12.5-54.1,28.9c-22.4,25.5-27,62-11.9,91.6c15.8,30.8,49.7,49.2,86.3,43.8
	c24.1-3.5,43.7-15.2,57.7-35.1c17.5-25.1,21.2-52.4,8.8-80.5C535,372.9,508.4,357.7,473.5,356z"/>
<path class="st0" d="M250.2,132.6c-0.1-47.1,33.6-88.4,79.7-97.8c17.7-3.6,35.2-2.9,52.2,3.4c35.5,13.1,57.3,38.4,64.2,75.6
	c8.3,45.5-17,90.7-59.8,108.6c-14.6,6.1-29.7,8.7-45.5,7.5c-45.3-3.4-79.5-35.9-88.4-76C251,147,250.2,139.8,250.2,132.6z
	 M348,221.6c51.7-0.4,91-42.4,91-91c0-49.1-39.6-89.2-89.1-89.1c-50.2,0.1-91.1,41-91.1,91.2C258.9,181.9,298.7,221.7,348,221.6z"/>
<path class="st1" d="M214.9,417.5c-3.2-3.2-6.3-6.2-9.4-9.3c-22.9-22.6-45.7-45.3-68.6-67.9c-2.5-2.5-2.5-2.4-0.4-5.5
	c3.4-5,7.3-9.4,11.3-13.9c7.7-8.6,15.1-17.4,23.7-25c9.1-8.1,18.8-15.1,30-19.8c12.6-5.2,25.7-6.1,39.1-4.1
	c10.8,1.6,20.9,5.4,30.7,10.2c6.1,3,12.5,5,19.2,6c1.4,0.2,2.8,0.1,4.2,0.1c29.7,0.1,59.5-0.1,89.2,0.3c17.6,0.2,31.8,15,28.7,34
	c-0.8,4.6-2.8,8.7-5.6,12.4c-0.9,1.1-1.9,2-3.1,2.8c-3.6,2.3-7.5,3.8-11.5,5c-1,0.3-2,0.3-3.1,0.3c-28.1,0.5-56.3,0.9-84.4,1.4
	c-4.7,0.1-9.3,0.1-14,0.2c-1.1,0-2.2,0-3.3,0.5c-1.7,0.9-2.6,2.5-2.4,4.4c0.2,1.7,1.3,3.1,3.1,3.6c0.9,0.2,1.9,0.2,2.8,0.2
	c31.8-0.5,63.6-1.1,95.4-1.5c8.3-0.1,15.5-2.7,22.4-6.9c2.2-1.4,4-3.1,5.5-5.1c6.3-8.7,8.8-18.2,6.9-28.9c-0.4-2.5-0.4-2.4,1.7-3.4
	c9.7-4.6,17.9-11,25.3-18.8c7.7-8,14-17,19.6-26.5c1.9-3.1,3.8-6.2,6.1-9c4.4-5.1,9.6-8.8,16.3-10.3c2-0.5,4.1-0.6,6.1-0.2
	c7.1,1.5,13.5,4.2,18.3,10c1.7,2,2.8,4.1,3.4,6.7c2.2,10,1.2,19.6-3.2,29c-5.5,11.7-12.8,22.4-20.7,32.6
	c-7.1,9.1-15.1,17.4-23.3,25.4c-0.9,0.9-1.9,1.3-3.2,1.4c-9.8,0.7-19.2,2.7-28.3,6.2c-20.2,7.9-35.9,21.1-47.1,39.7
	c-1.1,1.8-2.3,2.5-4.4,2.8c-8.2,1-16.4,1.2-24.6,1.7c-17.4,1-34.8,1.2-52.1,1c-9.2-0.1-18.3,0-27.5-0.2c-7.3-0.2-14.6-0.3-21.9-0.2
	c-15.1,0.2-28.6,4.9-40.8,13.5C218.7,413.8,217,415.8,214.9,417.5z"/>
<path class="st1" d="M120.2,338.3c1.8-0.1,3.2,0.9,4.6,2.2c10.2,10.2,20.4,20.3,30.7,30.4c21.8,21.6,43.6,43.1,65.4,64.7
	c1.8,1.7,2,3.4,0.7,5.5c-0.5,0.8-1.1,1.5-1.8,2.1c-14.5,14.5-29,28.9-43.5,43.4c-0.9,0.9-1.9,1.6-3,2c-2,0.8-3.8,0.7-5.5-0.8
	c-1-0.9-1.9-1.8-2.8-2.7c-29.6-29.7-59.1-59.3-88.7-89c-1.3-1.3-2.7-2.6-4-3.9c-0.8-0.8-1.6-1.6-2.2-2.5c-1.5-2.4-1.4-4,0.6-6
	c4.7-4.7,9.5-9.3,14.3-13.9c9.7-9.5,19.4-18.9,29.1-28.4C115.7,339.7,117.5,338.2,120.2,338.3z M149.8,413.4c-3.3,0-5.4,3.5-3.8,6.4
	c0.3,0.6,0.9,1.2,1.4,1.7c5.9,6,11.7,12,17.6,18c0.7,0.7,1.3,1.3,2.1,1.8c1.8,1.2,3.9,0.9,5.4-0.6c1.3-1.4,1.6-3.4,0.6-5.2
	c-0.3-0.6-0.8-1.1-1.2-1.5c-6.2-6.4-12.4-12.7-18.6-19C152.3,414,151.2,413.5,149.8,413.4z"/>
<path class="st1" d="M348,221.6c-49.2,0-89.1-39.7-89.1-88.9c0-50.3,40.9-91.1,91.1-91.2c49.5-0.1,89.1,39.9,89.1,89.1
	C439,179.3,399.7,221.2,348,221.6z M353.2,80.1c0.1,0,0.2,0,0.3,0c0-2.2,0-4.5,0-6.7c0-0.9,0-1.9-0.4-2.7c-0.8-1.8-2.3-2.7-4.2-2.6
	c-1.8,0.1-3.2,1.2-3.8,2.9c-0.3,1-0.4,2-0.4,3c-0.1,4-0.1,8-0.2,12.1c0,2.5-0.1,2.5-2.4,3.1c-2.1,0.6-4.1,1.2-6,2.2
	c-10.2,5.6-14.1,14.2-13.7,24.8c0.3,6.9,3.3,12.8,9.7,16.4c3.8,2.1,7.9,3.4,12.3,3.6c2.1,0.1,4.1,0.3,6.2,0.5
	c4.8,0.4,9.1,2.2,12.5,5.6c3.2,3.2,4.5,7.1,3.8,11.5c-1.3,7.8-7.2,12.7-15.1,13.3c-8.2,0.6-14.3-3.2-19.7-8.8
	c-0.4-0.4-0.7-0.9-1.1-1.3c-1.7-1.6-4-1.9-5.6-0.7c-1.7,1.2-2.2,3.3-1.2,5.5c0.5,1.2,1.3,2.3,2.2,3.2c4.8,4.5,10,8.5,16.6,10
	c1.4,0.3,1.7,1,1.7,2.3c-0.1,3.9-0.2,7.9-0.3,11.8c0,1,0,2.1,0.2,3.1c0.4,2,2.1,3.3,4,3.3c1.8,0.1,3.4-1.1,4.1-2.8
	c0.4-1,0.4-2,0.4-3c0.1-3.9,0.1-7.9,0.3-11.8c0.1-2.1,0.1-2.1,2.1-2.5c5.6-1.1,10.5-3.4,14.2-7.8c4.2-5,6.6-10.7,6.1-17.2
	c-0.8-9.7-6.3-16.1-15-20c-4.4-2-9.2-2.5-13.9-2.7c-3.3-0.1-6.5-0.8-9.5-2.2c-2.5-1.1-4.3-3-5.2-5.6c-2.1-6.4-1-12.2,3.5-17.2
	c3.3-3.6,7.5-5.4,12.5-5.4c5.7,0,11.2,0.8,15.8,4.5c1.4,1.1,2.6,2.4,4,3.5c2,1.6,4.3,1.4,5.7-0.3c1.6-1.9,1.4-3.9-0.5-5.7
	c-1.2-1.1-2.5-2.3-3.8-3.3c-2.9-2.5-6.1-4.6-9.9-5.7c-1.5-0.5-3.1-0.9-4.6-1.1c-1.5-0.2-1.8-0.9-1.7-2.2
	C353.3,84.6,353.2,82.3,353.2,80.1z"/>
<path class="st0" d="M149.8,413.4c1.4,0,2.5,0.6,3.5,1.6c6.2,6.3,12.4,12.7,18.6,19c0.5,0.5,0.9,1,1.2,1.5c1,1.7,0.8,3.8-0.6,5.2
	c-1.4,1.5-3.6,1.8-5.4,0.6c-0.8-0.5-1.4-1.2-2.1-1.8c-5.9-6-11.8-12-17.6-18c-0.5-0.5-1-1.1-1.4-1.7
	C144.4,416.9,146.5,413.4,149.8,413.4z"/>
<path class="st2" d="M469.1,370.3c38.2,0,66.5,23.5,72.4,56c5.4,29.8-9.7,60.2-37,74.3c-26.7,13.8-58.8,9.3-80.1-11.1
	c-25.7-24.6-28.1-65-5.4-92.9C433.1,379.3,451.7,370.8,469.1,370.3z M533.7,438.7c0-1.7,0.1-3.4,0-5c-0.1-1.2-0.2-2.4-0.4-3.6
	c-3.4-21-14.6-36.5-33.9-45.4c-19.1-8.9-38.2-7.7-56.5,2.7c-26.8,15.3-38.1,48.3-26,76.7c10.7,25,37.8,39.7,65.3,35
	C512,494,533.7,468.6,533.7,438.7z"/>
<path class="st0" d="M353.2,80.1c0,2.2,0.1,4.5,0,6.7c-0.1,1.4,0.3,2,1.7,2.2c1.6,0.2,3.1,0.6,4.6,1.1c3.7,1.1,6.9,3.2,9.9,5.7
	c1.3,1.1,2.5,2.2,3.8,3.3c1.9,1.8,2.1,3.8,0.5,5.7c-1.5,1.8-3.7,1.9-5.7,0.3c-1.4-1.1-2.6-2.4-4-3.5c-4.6-3.7-10.1-4.5-15.8-4.5
	c-4.9,0-9.2,1.7-12.5,5.4c-4.5,5-5.6,10.8-3.5,17.2c0.8,2.6,2.7,4.4,5.2,5.6c3,1.4,6.2,2.1,9.5,2.2c4.8,0.1,9.5,0.7,13.9,2.7
	c8.7,3.9,14.2,10.2,15,20c0.5,6.6-1.9,12.3-6.1,17.2c-3.7,4.4-8.6,6.7-14.2,7.8c-2,0.4-2,0.4-2.1,2.5c-0.1,3.9-0.2,7.9-0.3,11.8
	c0,1,0,2.1-0.4,3c-0.7,1.8-2.3,2.9-4.1,2.8c-1.9-0.1-3.6-1.4-4-3.3c-0.2-1-0.2-2-0.2-3.1c0.1-3.9,0.1-7.9,0.3-11.8
	c0-1.3-0.2-2-1.7-2.3c-6.6-1.5-11.8-5.5-16.6-10c-1-0.9-1.7-2-2.2-3.2c-1-2.2-0.5-4.4,1.2-5.5c1.7-1.2,3.9-0.9,5.6,0.7
	c0.4,0.4,0.7,0.9,1.1,1.3c5.4,5.6,11.5,9.4,19.7,8.8c7.9-0.6,13.8-5.5,15.1-13.3c0.7-4.4-0.6-8.4-3.8-11.5
	c-3.5-3.4-7.7-5.2-12.5-5.6c-2-0.2-4.1-0.4-6.2-0.5c-4.4-0.2-8.5-1.5-12.3-3.6c-6.4-3.5-9.4-9.4-9.7-16.4
	c-0.4-10.6,3.5-19.2,13.7-24.8c1.9-1,4-1.7,6-2.2c2.3-0.6,2.3-0.6,2.4-3.1c0.1-4,0.1-8,0.2-12.1c0-1,0.1-2.1,0.4-3
	c0.6-1.7,2-2.8,3.8-2.9c1.9-0.1,3.4,0.8,4.2,2.6c0.4,0.9,0.4,1.8,0.4,2.7c0,2.2,0,4.5,0,6.7C353.4,80.1,353.3,80.1,353.2,80.1z"/>
<path class="st2" d="M472.9,411.7c4.5-4.3,8.9-8.4,13.2-12.5c1.6-1.5,3-3,4.9-4.2c1.9-1.2,3.8-1.3,5.9-0.3c1.4,0.7,2.7,1.6,3.9,2.7
	c4.6,4.5,9.2,9.1,13.7,13.6c3.2,3.2,3.5,5.6,1.1,9.5c-1,1.6-2.2,3-3.5,4.4c-3.7,3.8-7.5,7.6-11.2,11.4c-0.6,0.6-1.3,1.1-1.6,1.9
	c4,4.1,8,8.1,12,12.2c1.2,1.2,2.4,2.4,3.4,3.7c2.3,3,2.4,5.2,0.4,8.5c-0.5,0.8-1.1,1.5-1.7,2.2c-4.7,4.7-9.4,9.4-14.1,14.1
	c-3.2,3.1-5.4,3.3-9.3,1c-1.6-1-3-2.2-4.3-3.5c-3.6-3.6-7.3-7.3-10.9-10.9c-1.6-1.6-1.6-1.6-3.2,0.1c-4.2,4.3-8.4,8.5-12.6,12.8
	c-0.7,0.7-1.6,1.3-2.4,1.9c-1.9,1.3-3.8,1.3-5.8,0.4c-1.4-0.6-2.6-1.4-3.7-2.5c-4.7-4.7-9.5-9.3-14.2-13.9c-3.1-3.1-3.4-5.2-1.2-9
	c1-1.8,2.4-3.4,3.8-4.8c3.6-3.7,7.2-7.4,10.8-11.1c1.4-1.4,1.3-1.4-0.1-2.8c-4.3-4.2-8.6-8.3-12.8-12.6c-4.1-4.3-4.1-7.6,0-11.9
	c4.7-4.9,9.4-9.6,14.2-14.4c2.9-2.9,5.2-3.2,8.8-1.1c1.8,1,3.4,2.3,4.8,3.8C465.1,404.1,469.1,408,472.9,411.7z M452.6,405.4
	c-0.6,0-1.2,0.4-1.7,0.9c-3.1,3.1-6.2,6.2-9.2,9.4c-1.4,1.5-1.4,2.3-0.1,3.9c0.5,0.6,1,1.1,1.5,1.6c3.9,3.9,7.9,7.7,11.8,11.6
	c0.7,0.7,1.4,1.3,1.9,2c1.4,1.8,1.4,3.6,0.1,5.4c-0.5,0.7-1.1,1.3-1.7,1.9c-4.2,4.3-8.3,8.6-12.5,12.9c-0.5,0.5-1.1,1.1-1.5,1.7
	c-1,1.4-1,2.5,0.3,3.7c3,3.1,6.1,6.1,9.2,9c1.7,1.6,2.6,1.6,4.4,0.1c1.4-1.2,2.7-2.6,4-4c3.3-3.4,6.6-6.9,10-10.2
	c2.4-2.4,4.3-2.6,7-0.7c1,0.7,1.9,1.5,2.7,2.4c4.1,4.1,8.2,8.2,12.3,12.2c2.1,2.1,3.1,2,5.2,0c2.7-2.7,5.4-5.4,8.1-8.1
	c2.2-2.2,2.2-3.1,0-5.4c-2.6-2.7-5.3-5.3-7.9-7.9c-2-2-4-3.9-5.9-5.9c-1.9-2.1-2-3.7-0.6-6.1c1-1.8,2.3-3.4,3.8-4.8
	c3.7-3.7,7.3-7.5,11-11.2c0.6-0.6,1.2-1.2,1.6-1.9c0.7-1.1,0.7-2.1-0.3-3.1c-3.3-3.2-6.5-6.5-9.8-9.6c-1.2-1.1-2.1-1.1-3.5-0.1
	c-0.7,0.5-1.3,1.1-1.8,1.7c-4,4.1-8,8.1-12,12.2c-3.6,3.7-7,3.7-10.7,0.1c-4.1-4-8.2-8-12.2-11.9C455,406.5,454.2,405.6,452.6,405.4
	z"/>
<path class="st3" d="M235.9,110l11.2,11.2c2.6,2.7,6.9,2.7,9.6,0l11.2-11.2c2.6-2.7,2.6-6.9,0-9.6l-11.2-11.2
	c-2.6-2.7-6.9-2.7-9.6,0l-11.2,11.2C233.2,103.1,233.2,107.4,235.9,110z"/>
<path class="st3" d="M235.9,142.6l11.2,11.2c2.6,2.6,6.9,2.6,9.6,0l11.2-11.2c2.6-2.6,2.6-6.9,0-9.6l-11.2-11.2
	c-2.6-2.7-6.9-2.7-9.6,0L235.9,133C233.2,135.7,233.2,140,235.9,142.6z"/>
<path class="st2" d="M394.8,503.4l10.2,10.2c1.5,1.5,3.9,1.5,5.4,0l10.2-10.2c1.5-1.5,1.5-3.9,0-5.4l-10.2-10.2
	c-1.5-1.5-3.9-1.5-5.4,0L394.8,498C393.3,499.5,393.3,501.9,394.8,503.4z"/>
<circle class="st4" cx="472.2" cy="439.4" r="89"/>
</svg>
