<?xml version="1.0" encoding="utf-8"?>
<!-- Generator: Adobe Illustrator 28.0.0, SVG Export Plug-In . SVG Version: 6.00 Build 0)  -->
<svg version="1.1" id="Capa_1" xmlns="http://www.w3.org/2000/svg" xmlns:xlink="http://www.w3.org/1999/xlink" x="0px" y="0px"
	 viewBox="0 0 600 600" style="enable-background:new 0 0 600 600;" xml:space="preserve">
<style type="text/css">
	.st0{fill:#0A0A0A;}
	.st1{fill:#FEFEFE;}
	.st2{fill:#29E4A5;}
	.st3{fill:#6EE1EB;}
	.st4{fill:none;stroke:#29E4A5;stroke-width:13;stroke-miterlimit:10;}
</style>
<path class="st0" d="M481.7,347.9c3.8,0.2,6.9,0.4,10,1.1c37.1,9.1,62.1,31.3,71.1,68.9c7.2,30.3-0.6,57.6-21,81
	c-15.5,17.9-35.4,28.4-58.9,31.2c-30.3,3.7-56.7-5.1-78.3-26.8c-17.1-17.2-25.3-38.4-25.5-62.6c-0.1-11.2,1.9-22.2,6-32.7
	c0.3-0.8,0.8-1.5,0.5-2.5c-1.3-0.3-2.6,0.2-3.8,0.3c-12,0.7-23.9,1.3-35.9,1.7c-16.9,0.6-33.7,0.2-50.6,0.1
	c-11.6-0.1-23.2-0.5-34.8-0.1c-10.6,0.4-20.5,2.9-29.6,8.6c-2.9,1.8-6,3.5-8.4,6c-1.6,1.7-1.6,1.7,0,3.2c1.4,1.4,2.9,2.7,4.2,4.1
	c5.1,5.8,4.9,14-0.4,19.3c-14.1,14-28.1,28-42.2,42.1c-1.8,1.8-3.8,3.3-5.9,4.7c-1.8,1.2-3.7,2.1-5.9,2.5c-4,0.7-7.5-0.2-10.5-3.2
	c-14.5-14.6-29.1-29.2-43.6-43.8c-16.6-16.6-33.2-33.3-49.8-50c-2-2-3.8-4.1-5.6-6.3c-1.3-1.6-2.3-3.4-2.8-5.4
	c-0.9-3.5-0.5-6.7,1.9-9.5c3.8-4.3,8-8.2,12.1-12.1c10.3-10.1,20.7-20.1,31-30.2c2.8-2.7,5.8-5,9-7.2c4.5-3.1,7.6-3,12.1,0
	c0.7,0.5,1.4,0.9,2,1.3c0.9-0.4,1.1-1.2,1.5-1.8c2.5-3.9,5.1-7.6,8.1-11.1c9.9-11.6,19.8-23.2,31.6-33.1
	c8.7-7.2,17.9-13.5,28.4-17.9c11.9-4.9,24.3-6.7,37.1-5.6c14.1,1.2,27.3,5.5,39.8,11.8c7.2,3.6,14.6,5.4,22.7,5.4
	c28.2-0.1,56.4-0.1,84.6,0.1c10.5,0.1,20,3.7,28.1,10.6c3,2.6,5.4,5.8,7.1,9.3c0.7,1.4,1.4,1.4,2.6,0.7c3.1-1.9,6.3-3.7,9.2-5.9
	c11.1-8.7,20.4-19,27.9-30.9c2.4-3.9,4.8-7.8,7.3-11.7c3.1-4.8,7.1-9,11.9-12.2c8.8-5.8,18-7.8,28.2-4c6.7,2.5,12.7,5.9,17.3,11.5
	c2.5,3,4.3,6.3,5.1,10.2c2.5,11.6,1.6,22.8-3.3,33.7c-4.5,10-10.4,19-16.7,27.9c-6.7,9.5-14.3,18.3-22.5,26.5
	C483.5,346,482.9,346.7,481.7,347.9z M214.3,418c2.5-2.2,4.2-4.1,6.2-5.6c12.2-8.7,25.8-13.4,40.9-13.6c7.3-0.1,14.6,0,21.9,0.2
	c9.3,0.3,18.5,0.1,27.8,0.2c17.3,0.2,34.6-0.1,51.9-1c8.2-0.5,16.5-0.7,24.6-1.7c2.2-0.3,3.4-1.1,4.6-3c11.2-18.5,26.9-31.6,47-39.6
	c9.1-3.6,18.6-5.6,28.4-6.3c1.3-0.1,2.3-0.5,3.2-1.4c8.4-8.1,16.4-16.4,23.5-25.6c7.9-10.2,15.1-20.7,20.6-32.4
	c4.4-9.3,5.5-19,3.2-29c-0.6-2.5-1.7-4.7-3.4-6.7c-4.8-5.8-11.3-8.5-18.3-10.1c-2-0.4-4.1-0.3-6.1,0.1c-6.2,1.3-11.2,4.6-15.4,9.2
	c-2.7,2.9-4.8,6.2-6.8,9.6c-5.8,9.7-12.1,18.9-19.9,27.1c-7.4,7.7-15.6,14.2-25.3,18.8c-2.2,1.1-2.2,1-1.8,3.4
	c1.3,7.3,0.6,14.3-2.3,21.2c-3.2,7.5-8.3,13-15.9,16.2c-5.3,2.3-10.7,3.6-16.5,3.7c-31.8,0.4-63.7,1-95.5,1.5c-0.9,0-1.9,0-2.8-0.2
	c-1.8-0.4-2.9-1.8-3.2-3.5c-0.2-1.9,0.7-3.5,2.3-4.4c1-0.5,2.2-0.6,3.3-0.6c11.1-0.2,22.3-0.4,33.4-0.6c21.9-0.3,43.8-0.7,65.7-1
	c0.9,0,1.9,0,2.8-0.3c3.8-1.2,7.6-2.7,11-4.8c1.3-0.8,2.5-1.7,3.4-2.9c2.9-3.8,5-7.9,5.7-12.6c3-19.1-11.5-33.7-29-33.9
	c-29.6-0.3-59.2-0.2-88.8-0.3c-1.4,0-2.8,0.1-4.2-0.1c-6.3-0.9-12.5-2.6-18.2-5.4c-3.8-1.9-7.6-3.6-11.5-5.2
	c-10.4-4.2-21.2-6.6-32.5-6.7c-11.4-0.1-22.3,2.3-32.5,7.5c-11.9,6.1-22.2,14.5-31.7,23.9c-7.7,7.8-14.7,16.3-22,24.4
	c-2.5,2.8-4.7,5.8-6.8,8.9c-1.4,2.2-1.4,2.2,0.4,4c0.2,0.2,0.4,0.4,0.6,0.6c21.6,21.3,43.1,42.7,64.7,64.1
	C205.6,408.7,209.8,413.3,214.3,418z M119.8,338.3c-2.7-0.1-4.4,1.4-6.1,3.1c-9.6,9.4-19.3,18.8-28.9,28.3
	c-4.8,4.6-9.5,9.3-14.3,13.9c-2.2,2.2-2.3,3.9-0.6,6.5c0.6,0.9,1.3,1.6,2.1,2.3c1.3,1.3,2.7,2.6,4,3.9
	c29.6,29.7,59.2,59.4,88.8,89.1c0.9,0.9,1.8,1.9,2.8,2.7c1.5,1.4,3.3,1.7,5.2,0.9c1.2-0.5,2.3-1.2,3.2-2.2
	c14.4-14.4,28.9-28.8,43.3-43.3c0.7-0.7,1.3-1.4,1.8-2.1c1.5-2.2,1.3-3.8-0.6-5.7c-19.2-19-38.3-37.9-57.5-56.9
	c-12.9-12.8-25.8-25.5-38.7-38.4C123,339.2,121.6,338.3,119.8,338.3z M470.6,522.5c3.4-0.2,6.6-0.3,9.9-0.7
	c21.8-2.7,40.1-12.1,54.8-28.4c22.5-25.1,27.7-61.4,13.1-91.1c-16.1-32.7-51.5-50.9-88.2-45c-23,3.7-42,14.7-55.7,33.6
	c-19,26.2-22.8,54.9-8.9,84.3C410.3,506.4,436.6,521,470.6,522.5z"/>
<path class="st0" d="M250,132.1c0.1-47.2,33.6-88.2,80-97.8c17.8-3.7,35.5-2.8,52.5,3.5c35.4,13.3,57,38.6,63.9,75.8
	c8,43.5-15.6,88-55.8,106.8c-15.7,7.3-32.1,10.6-49.3,9.4c-37.4-2.6-68.8-25.5-83.1-58.5C252.7,158.9,250,145.8,250,132.1z
	 M347.9,221.5c51.8-0.4,91.2-42.4,91.3-91.1c0.1-49.2-39.6-89.4-89.1-89.3c-50.2,0.1-91.3,40.9-91.3,91
	C258.7,181.1,297.5,221.1,347.9,221.5z"/>
<path class="st1" d="M214.3,418c-4.5-4.7-8.7-9.3-13.2-13.7c-21.5-21.4-43.1-42.7-64.7-64.1c-0.2-0.2-0.4-0.4-0.6-0.6
	c-1.8-1.8-1.8-1.8-0.4-4c2.1-3.1,4.3-6.2,6.8-8.9c7.4-8.1,14.3-16.6,22-24.4c9.4-9.5,19.7-17.8,31.7-23.9c10.2-5.2,21-7.6,32.5-7.5
	c11.3,0.1,22.1,2.5,32.5,6.7c3.9,1.6,7.7,3.3,11.5,5.2c5.7,2.9,11.9,4.5,18.2,5.4c1.4,0.2,2.8,0.1,4.2,0.1c29.6,0.1,59.2,0,88.8,0.3
	c17.5,0.2,32,14.7,29,33.9c-0.8,4.7-2.8,8.9-5.7,12.6c-0.9,1.2-2.1,2.1-3.4,2.9c-3.4,2.1-7.2,3.6-11,4.8c-0.9,0.3-1.8,0.3-2.8,0.3
	c-21.9,0.4-43.8,0.7-65.7,1c-11.1,0.2-22.3,0.4-33.4,0.6c-1.1,0-2.2,0-3.3,0.6c-1.7,0.9-2.6,2.5-2.3,4.4c0.2,1.7,1.4,3.1,3.2,3.5
	c0.9,0.2,1.9,0.2,2.8,0.2c31.8-0.5,63.7-1.1,95.5-1.5c5.8-0.1,11.2-1.4,16.5-3.7c7.6-3.3,12.7-8.7,15.9-16.2
	c2.9-6.8,3.6-13.9,2.3-21.2c-0.4-2.4-0.4-2.4,1.8-3.4c9.7-4.6,18-11.1,25.3-18.8c7.8-8.2,14.2-17.4,19.9-27.1c2-3.4,4.1-6.7,6.8-9.6
	c4.2-4.6,9.2-7.9,15.4-9.2c2.1-0.4,4.1-0.6,6.1-0.1c7.1,1.5,13.5,4.3,18.3,10.1c1.7,2,2.8,4.2,3.4,6.7c2.2,10,1.1,19.7-3.2,29
	c-5.5,11.7-12.7,22.2-20.6,32.4c-7.1,9.2-15.2,17.5-23.5,25.6c-0.9,0.9-1.9,1.3-3.2,1.4c-9.8,0.7-19.3,2.7-28.4,6.3
	c-20.1,7.9-35.8,21.1-47,39.6c-1.1,1.9-2.3,2.7-4.6,3c-8.2,1-16.4,1.2-24.6,1.7c-17.3,1-34.6,1.2-51.9,1c-9.3-0.1-18.5,0-27.8-0.2
	c-7.3-0.2-14.6-0.3-21.9-0.2c-15.1,0.2-28.6,4.9-40.9,13.6C218.5,413.9,216.8,415.8,214.3,418z"/>
<path class="st1" d="M119.8,338.3c1.8-0.1,3.2,0.8,4.6,2.2c12.9,12.8,25.8,25.6,38.7,38.4c19.2,19,38.3,37.9,57.5,56.9
	c1.9,1.9,2.1,3.5,0.6,5.7c-0.5,0.8-1.2,1.5-1.8,2.1c-14.4,14.4-28.9,28.8-43.3,43.3c-0.9,0.9-2,1.7-3.2,2.2
	c-1.9,0.8-3.7,0.5-5.2-0.9c-1-0.9-1.9-1.8-2.8-2.7c-29.6-29.7-59.2-59.4-88.8-89.1c-1.3-1.3-2.7-2.6-4-3.9c-0.7-0.7-1.5-1.4-2.1-2.3
	c-1.7-2.6-1.6-4.3,0.6-6.5c4.7-4.7,9.5-9.3,14.3-13.9c9.6-9.4,19.3-18.8,28.9-28.3C115.3,339.7,117.1,338.2,119.8,338.3z
	 M173.3,437.9c0.1-1.6-0.9-2.8-2-4c-6.1-6.2-12.1-12.4-18.2-18.6c-0.5-0.5-1-0.9-1.5-1.2c-1.8-1-4-0.6-5.4,0.9
	c-1.3,1.4-1.5,3.5-0.4,5.2c0.3,0.5,0.8,1,1.3,1.5c5.9,6,11.8,12,17.7,18c0.7,0.7,1.5,1.5,2.3,2C169.9,443.2,173.2,441.3,173.3,437.9
	z"/>
<path class="st1" d="M347.9,221.5c-50.3-0.3-89.2-40.4-89.2-89.4c0-50.1,41.1-91,91.3-91c49.5-0.1,89.2,40,89.1,89.3
	C439,179.1,399.7,221.1,347.9,221.5z M353.2,79.8c0.1,0,0.2,0,0.3,0c0-2.2,0-4.3,0-6.5c0-0.8,0-1.7-0.2-2.5
	c-0.5-2.1-2.2-3.3-4.3-3.3c-2,0.1-3.5,1.2-4,3.3c-0.2,0.9-0.3,1.9-0.3,2.8c-0.1,4.1-0.2,8.2-0.2,12.4c0,1.5-0.3,2.2-2,2.6
	c-12.7,3.2-20.2,12.5-20.2,25.6c0,7.8,2.9,14.3,10.2,18.1c3.8,2,7.8,3.2,12,3.4c3.8,0.2,7.7,0.3,11.4,1.6c3.7,1.3,6.9,3.4,9,6.8
	c3.7,5.9,2.4,12.4-2,17.4c-4.7,5.4-14.9,7.1-21.3,3.6c-3.8-2-7.6-4.2-10.2-7.8c-0.4-0.5-0.9-1-1.4-1.3c-1.5-1-3.2-1.1-4.7-0.1
	c-1.5,0.9-2,2.5-1.6,4.4c0.3,1.6,1.2,3,2.4,4.1c4.8,4.7,10.1,8.7,16.8,10.2c1.3,0.3,1.8,0.8,1.8,2.2c-0.2,3.9-0.2,7.9-0.3,11.8
	c0,1.1-0.1,2.3,0.2,3.3c0.5,1.8,2.1,3,3.9,3.2c1.7,0.1,3.3-0.9,4.1-2.5c0.5-1,0.5-2.2,0.5-3.3c0.1-4,0.2-8.1,0.2-12.1
	c0-1.5,0.5-2.1,2-2.3c5.6-0.9,10.5-3.3,14.3-7.7c4.3-5.1,6.8-11,6.1-17.8c-0.9-9.4-6.3-15.5-14.6-19.4c-4.6-2.1-9.5-2.7-14.5-2.8
	c-3.3-0.1-6.5-0.8-9.5-2.2c-2.4-1.1-4.1-2.9-5-5.4c-2.1-6.4-1.1-12.2,3.4-17.3c3.3-3.7,7.7-5.4,12.8-5.5c7.2,0,13.7,1.8,18.8,7.2
	c0.3,0.3,0.7,0.7,1,0.9c1.9,1.4,4.1,1.3,5.5-0.4c1.6-1.9,1.5-3.9-0.4-5.7c-1.4-1.3-2.7-2.6-4.2-3.7c-2.3-1.9-4.7-3.7-7.6-4.7
	c-1.8-0.7-3.7-1.1-5.7-1.6c-3.1-0.7-2.6-0.1-2.6-3.1C353.2,83.7,353.2,81.8,353.2,79.8z"/>
<path class="st0" d="M173.3,437.9c-0.1,3.3-3.4,5.3-6.3,3.8c-0.9-0.5-1.6-1.2-2.3-2c-5.9-6-11.8-12-17.7-18
	c-0.5-0.5-0.9-0.9-1.3-1.5c-1.1-1.7-0.9-3.7,0.4-5.2c1.3-1.5,3.5-1.9,5.4-0.9c0.6,0.3,1.1,0.8,1.5,1.2c6.1,6.2,12.2,12.4,18.2,18.6
	C172.4,435.1,173.4,436.3,173.3,437.9z"/>
<path class="st2" d="M472.9,508.9c-34.7,0-63.2-24.3-68.6-57.7c-4.8-30,11.4-60.7,39.3-73.8c21.3-10,42.8-9.8,63.4,1.4
	c19.5,10.5,31.2,27.3,34.8,49.3c6.1,37.1-19.4,73-57.4,79.8C480.4,508.5,476.3,508.9,472.9,508.9z M534.1,438.6
	c0-2.6-0.1-5.5-0.6-8.4c-3.4-21.1-14.7-36.5-33.9-45.5c-19.1-8.9-38.3-7.7-56.5,2.7c-26.9,15.3-38.2,48.4-26,76.8
	c10.7,25.1,37.8,39.8,65.4,35.1C512.2,494.3,534,468.8,534.1,438.6z"/>
<path class="st0" d="M353.2,79.8c0,2,0,3.9,0,5.9c0,3-0.5,2.4,2.6,3.1c1.9,0.5,3.8,0.9,5.7,1.6c2.9,1.1,5.3,2.8,7.6,4.7
	c1.5,1.2,2.8,2.4,4.2,3.7c1.9,1.8,2,3.8,0.4,5.7c-1.4,1.6-3.6,1.8-5.5,0.4c-0.4-0.3-0.7-0.6-1-0.9c-5.1-5.5-11.5-7.3-18.8-7.2
	c-5.1,0-9.4,1.7-12.8,5.5c-4.5,5-5.5,10.9-3.4,17.3c0.8,2.5,2.6,4.3,5,5.4c3,1.4,6.2,2.1,9.5,2.2c5,0.1,9.9,0.7,14.5,2.8
	c8.3,3.9,13.7,10,14.6,19.4c0.7,6.8-1.8,12.7-6.1,17.8c-3.7,4.4-8.7,6.8-14.3,7.7c-1.5,0.3-2,0.8-2,2.3c0,4-0.1,8.1-0.2,12.1
	c0,1.1,0,2.2-0.5,3.3c-0.8,1.6-2.4,2.6-4.1,2.5c-1.8-0.1-3.4-1.4-3.9-3.2c-0.3-1.1-0.3-2.2-0.2-3.3c0.1-3.9,0.1-7.9,0.3-11.8
	c0.1-1.4-0.5-1.9-1.8-2.2c-6.7-1.6-12-5.6-16.8-10.2c-1.1-1.1-2-2.5-2.4-4.1c-0.4-1.9,0.2-3.5,1.6-4.4c1.6-1,3.2-0.9,4.7,0.1
	c0.5,0.4,1.1,0.8,1.4,1.3c2.6,3.6,6.4,5.8,10.2,7.8c6.4,3.5,16.6,1.8,21.3-3.6c4.4-5,5.6-11.4,2-17.4c-2.1-3.4-5.4-5.4-9-6.8
	c-3.7-1.3-7.5-1.4-11.4-1.6c-4.3-0.2-8.3-1.4-12-3.4c-7.2-3.9-10.2-10.4-10.2-18.1c0-13.1,7.6-22.4,20.2-25.6c1.7-0.4,2-1.1,2-2.6
	c0-4.1,0.1-8.2,0.2-12.4c0-0.9,0.1-1.9,0.3-2.8c0.5-2.1,2-3.3,4-3.3c2.1-0.1,3.8,1.1,4.3,3.3c0.2,0.8,0.2,1.7,0.2,2.5
	c0,2.2,0,4.3,0,6.5C353.4,79.8,353.3,79.8,353.2,79.8z"/>
<path class="st2" d="M525.8,422c-0.1,2.6-0.7,5.1-2.5,7.2c-1.2,1.3-2.4,2.6-3.6,3.9c-13.3,13.3-26.8,26.5-40,39.8
	c-3.6,3.6-7.4,6.8-11.2,10.2c-1.6,1.5-3.5,2.5-5.5,3.4c-2.9,1.3-5.6,1.1-8.3-0.6c-2.6-1.6-4.9-3.7-7.1-5.9
	c-7.4-7.6-14.7-15.2-22-22.8c-2.1-2.2-3.8-4.6-5.4-7.2c-1.9-3-2-6.1,0-8.7c4.4-5.9,9.3-11.5,15.8-15.3c4.1-2.4,7.8-1.7,11.3,1.4
	c3.8,3.3,7.3,7,10.9,10.5c2.7,2.5,1.9,2.3,4.2,0.1c11.3-11.3,22.5-22.7,34.2-33.7c0.9-0.8,1.8-1.7,2.7-2.4c4.1-3.2,9.4-2.8,13,0.8
	c3,3.1,6,6.2,8.9,9.3C523.9,414.7,525.7,417.9,525.8,422z M454.6,446.4c-4.4-4.3-8.3-8.2-12.3-12c-1.5-1.4-3.1-1.3-5.1,0.2
	c-3.4,2.5-6.4,5.4-9.1,8.7c-1.4,1.7-1.4,2.6-0.1,4.3c1.6,2.2,3.2,4.4,5.1,6.3c6.7,6.8,13.5,13.5,20.2,20.3c0.7,0.7,1.4,1.3,2.1,1.9
	c1.7,1.5,3.7,1.6,5.8,1c1.5-0.4,2.7-1.2,3.9-2.1c2.1-1.6,4-3.4,5.8-5.3c14.5-15.4,29.9-29.9,44.9-44.9c2.5-2.5,2.7-4,0.3-6.6
	c-2.8-3-5.7-6-8.6-8.9c-1.9-1.9-2.6-1.9-4.8-0.2c-2.1,1.6-3.7,3.7-5.5,5.6c-10,10.7-20.7,20.6-30.7,31.3c-2.9,3.2-6,6.2-9.1,9.2
	c-2.1,2-4.8,2.1-6.5,0.3c-1.7-1.7-1.6-4.2,0.4-6.3C452.2,448.1,453.4,447.4,454.6,446.4z"/>
<path class="st3" d="M240.4,114.4l11.2,11.2c2.6,2.6,6.9,2.6,9.6,0l11.2-11.2c2.6-2.7,2.6-6.9,0-9.6l-11.2-11.2
	c-2.6-2.7-6.9-2.7-9.6,0l-11.2,11.2C237.8,107.4,237.8,111.7,240.4,114.4z"/>
<path class="st3" d="M240.4,146.9l11.2,11.2c2.6,2.6,6.9,2.6,9.6,0l11.2-11.2c2.6-2.6,2.6-6.9,0-9.6l-11.2-11.2
	c-2.6-2.7-6.9-2.7-9.6,0l-11.2,11.2C237.8,140,237.8,144.3,240.4,146.9z"/>
<path class="st2" d="M399.1,507.3l8.8,8.8c1.3,1.3,3.4,1.3,4.6,0l8.8-8.8c1.3-1.3,1.3-3.4,0-4.6l-8.8-8.8c-1.3-1.3-3.4-1.3-4.6,0
	l-8.8,8.8C397.9,504,397.9,506,399.1,507.3z"/>
<path class="st2" d="M468.8,468l8.8,8.8c1.3,1.3,3.4,1.3,4.6,0l8.8-8.8c1.3-1.3,1.3-3.4,0-4.6l-8.8-8.8c-1.3-1.3-3.4-1.3-4.6,0
	l-8.8,8.8C467.5,464.6,467.5,466.7,468.8,468z"/>
<circle class="st4" cx="473.1" cy="439.3" r="89"/>
</svg>
