<?xml version="1.0" encoding="utf-8"?>
<!-- Generator: Adobe Illustrator 28.0.0, SVG Export Plug-In . SVG Version: 6.00 Build 0)  -->
<svg version="1.1" id="Capa_1" xmlns="http://www.w3.org/2000/svg" xmlns:xlink="http://www.w3.org/1999/xlink" x="0px" y="0px"
	 viewBox="0 0 600 600" style="enable-background:new 0 0 600 600;" xml:space="preserve">
<style type="text/css">
	.st0{fill:#090909;}
	.st1{fill:#FEFEFE;}
	.st2{fill:#DBB300;}
	.st3{fill:#6EE1EB;}
	.st4{fill:none;stroke:#DBB300;stroke-width:13;stroke-miterlimit:10;}
</style>
<path class="st0" d="M419.6,300.8c3.8-1.8,7.3-4,10.6-6.6c11.2-8.6,20.5-18.9,28-30.7c2.6-4,5-8.1,7.5-12.1
	c3.4-5.3,7.6-9.7,12.8-13.1c8.8-5.7,18-7.5,28.1-3.8c7,2.6,13.2,6.1,17.9,12c2.4,2.9,4,6.1,4.8,9.8c2.6,11.8,1.7,23.1-3.3,34.2
	c-6,13.2-14.1,25-23,36.4c-5.7,7.3-12.1,14.1-18.6,20.7c0.3,1,1.1,0.8,1.7,0.8c11.3,0.9,21.9,4.3,31.9,9.5
	c27.7,14.4,44.5,37,49.3,67.9c5.6,35.6-10.5,71-40.6,91.3c-18.2,12.3-38.4,17.9-60.3,16.4c-23.9-1.6-44.5-11-61.2-28.4
	c-15.1-15.8-23.4-34.7-25-56.5c-1-13.4,0.9-26.5,5.8-39c0.3-0.7,0.5-1.4,0.7-2.1c0.1-0.2,0-0.4-0.1-0.8c-4.4,0.5-8.8,0.8-13.3,1
	c-17.6,1-35.2,1.6-52.9,1.6c-10.7,0-21.4-0.1-32.1-0.2c-5.7-0.1-11.4-0.3-17.1-0.4c-7.6-0.1-15.2,0-22.7,1.5
	c-6.4,1.2-12.3,3.6-17.9,6.9c-3.4,2-6.9,3.9-9.6,6.9c-0.4,0.4-0.7,0.9-1,1.2c1.6,1.7,3.2,3.3,4.8,4.9c1.6,1.6,2.7,3.4,3.6,5.4
	c2.1,5.2,1,11-3,14.9c-14.3,14.3-28.6,28.5-42.9,42.8c-2.6,2.6-5.4,4.7-8.7,6.3c-4,1.9-9.7,1.7-14-2.6
	c-31.1-31.4-62.3-62.6-93.5-93.9c-2.3-2.4-4.6-4.8-6.6-7.4c-2.1-2.8-3.3-5.9-2.9-9.5c0.3-3.2,2.2-5.4,4.3-7.4
	c7.6-7.5,15.3-15,23-22.5c6-5.8,12-11.6,17.9-17.5c3-3,6.3-5.5,9.7-7.9c4.7-3.3,7.8-3.2,12.5,0c0.6,0.4,1.2,0.9,1.9,1.3
	c0.9-0.3,1-1.1,1.4-1.7c2.8-4.4,5.8-8.6,9.2-12.6c9.4-10.9,18.8-21.9,29.8-31.2c9.2-7.8,19.1-14.6,30.3-19.3
	c12.8-5.3,26.1-6.7,39.9-5.2c13.4,1.4,25.8,5.8,37.8,11.7c7.2,3.6,14.6,5.4,22.7,5.4c28.5-0.1,57.1,0,85.6,0.1
	c10,0,18.9,3.3,26.9,9.3c3.5,2.6,6.1,5.9,8.2,9.7C418.6,299,419,299.8,419.6,300.8z M316.1,400.4c16.8,0,32.5-0.4,48.3-1.2
	c7.9-0.4,15.9-0.7,23.8-1.6c2.5-0.3,4.2-1.1,5.6-3.5c6.5-11.1,15.1-20.4,25.6-27.9c15-10.7,31.7-16.8,50.1-18.1
	c1.5-0.1,2.7-0.5,3.8-1.6c7.7-7.5,15.2-15.1,21.9-23.5c8.8-11,16.7-22.5,22.8-35.3c4.5-9.4,5.5-19.2,3.2-29.4
	c-0.5-2.5-1.7-4.6-3.3-6.5c-3.5-4.4-8.1-7-13.3-8.8c-3.3-1.2-6.7-2.1-10.3-1.5c-7.6,1.3-13.4,5.3-18.2,11.1c-2.1,2.5-3.8,5.2-5.4,8
	c-5.9,9.9-12.4,19.3-20.4,27.6c-7.5,7.8-15.8,14.4-25.7,19c-2.1,1-2.2,1-1.7,3.3c1.1,5.7,1,11.3-0.7,16.9
	c-1.9,6.3-4.6,12.4-10.1,16.5c-6.7,5-14.1,8.2-22.8,8.3c-32.4,0.4-64.8,1.1-97.3,1.6c-0.9,0-1.9,0.1-2.8,0c-2.5-0.2-4.1-1.9-4.2-4.2
	c-0.1-2.3,1.4-4.1,3.9-4.4c1.4-0.2,2.8-0.2,4.3-0.2c32.5-0.3,65-1.3,97.5-1.4c0.9,0,1.9-0.1,2.8-0.4c4.2-1.2,8.2-2.8,11.9-5.2
	c1.4-0.9,2.6-2,3.5-3.3c3.4-4.7,5.5-9.9,5.7-15.8c0.7-18.4-13.9-30.7-30.2-30.8c-30.7-0.2-61.4-0.2-92.1-0.2c-0.8,0-1.5,0-2.3-0.1
	c-6.8-1.1-13.2-3.1-19.4-6.2c-11.8-5.9-24.1-10-37.3-11c-12.5-1-24.6,0.9-36,6.3c-11.5,5.4-21.5,13-30.7,21.7
	c-8.5,8-15.9,17.1-23.7,25.7c-3.3,3.6-6.2,7.4-9,11.4c-1.7,2.5-1.7,2.6,0.4,4.7c9.8,9.7,19.7,19.5,29.5,29.2
	c16.1,15.9,32.2,31.9,48.3,47.8c1.7,1.7,1.7,1.7,3,0.4c8.9-8.2,19.4-13.5,31.1-16.1c8.3-1.9,16.7-1.9,25.2-1.7
	C286.6,400.1,301.9,399.8,316.1,400.4z M221.2,440.1c0.1-1.3-0.8-2.1-1.7-3c-25.8-25.5-51.6-51.1-77.4-76.6
	c-6.7-6.7-13.5-13.3-20.2-20c-2.4-2.3-5.2-2.6-8-0.8c-0.9,0.6-1.7,1.3-2.4,2c-9.8,9.6-19.7,19.2-29.5,28.8
	c-4.7,4.6-9.5,9.2-14.3,13.9c-2.4,2.3-2.5,4.3-0.5,7c0.5,0.7,1.1,1.3,1.8,1.9c1.4,1.3,2.7,2.6,4.1,4c30.1,30.1,60.1,60.3,90.2,90.4
	c0.9,0.9,1.9,1.9,2.9,2.8c1.6,1.4,3.4,1.6,5.3,0.7c1.2-0.5,2.3-1.3,3.3-2.2c14.4-14.3,28.7-28.7,43.1-43c0.8-0.8,1.6-1.6,2.3-2.5
	C220.8,442.5,221.3,441.5,221.2,440.1z M388.8,442.1c0.1,6.5,0.8,12.8,2.3,19c9.8,41.5,49.3,68.4,92.1,63.3
	c20.4-2.4,38-10.9,52.2-25.8c20.9-21.9,28.9-48,22.2-77.7c-8.2-36.6-40.1-62.5-77.6-64.1c-16.4-0.7-31.9,2.6-46.1,10.7
	C405,384,390.2,409.1,388.8,442.1z"/>
<path class="st0" d="M348.6,229.1c-48.1,0-89.3-34.4-97.7-81.8c-8-45,16.1-90.5,57.7-109.4c16-7.2,32.7-10.2,50.1-8.9
	c8.2,0.6,16.3,2.2,24.1,5c32.7,12,54.4,34.6,63.5,68.2c11.7,42.8-6.8,88.2-44.6,111.6C385.7,223.8,367.1,229.1,348.6,229.1z
	 M440.9,126.9c0-3.9-0.4-8.7-1.1-13.5c-4.6-30.1-25.6-59.5-60.5-71.2c-14.2-4.7-28.7-5.9-43.5-3.4c-23.8,4.1-43.6,15.4-58.1,34.7
	c-21.6,28.8-25.9,60.5-11.4,93.6c17,38.8,58.1,59.4,99.8,51.4C409.4,210.2,440.9,172,440.9,126.9z"/>
<path class="st1" d="M316.1,400.4c-14.2-0.6-29.5-0.3-44.7-0.6c-8.4-0.2-16.9-0.1-25.2,1.7c-11.8,2.7-22.2,7.9-31.1,16.1
	c-1.4,1.2-1.3,1.3-3-0.4c-16.1-15.9-32.2-31.9-48.3-47.8c-9.8-9.7-19.7-19.5-29.5-29.2c-2.1-2.1-2.2-2.1-0.4-4.7
	c2.7-4,5.7-7.8,9-11.4c7.9-8.6,15.2-17.7,23.7-25.7c9.2-8.7,19.2-16.3,30.7-21.7c11.4-5.4,23.5-7.2,36-6.3c13.2,1,25.6,5.1,37.3,11
	c6.1,3.1,12.6,5.1,19.4,6.2c0.7,0.1,1.5,0.1,2.3,0.1c30.7,0.1,61.4,0,92.1,0.2c16.3,0.1,30.9,12.4,30.2,30.8
	c-0.2,5.9-2.4,11.1-5.7,15.8c-0.9,1.3-2.1,2.4-3.5,3.3c-3.7,2.4-7.7,4-11.9,5.2c-0.9,0.3-1.9,0.4-2.8,0.4c-32.5,0.1-65,1.1-97.5,1.4
	c-1.4,0-2.9,0-4.3,0.2c-2.5,0.4-4,2.1-3.9,4.4c0.1,2.3,1.7,4,4.2,4.2c0.9,0.1,1.9,0,2.8,0c32.4-0.6,64.8-1.2,97.3-1.6
	c8.7-0.1,16.1-3.3,22.8-8.3c5.4-4,8.2-10.1,10.1-16.5c1.7-5.5,1.8-11.2,0.7-16.9c-0.4-2.3-0.4-2.3,1.7-3.3
	c9.8-4.6,18.2-11.2,25.7-19c8-8.3,14.5-17.7,20.4-27.6c1.6-2.8,3.4-5.5,5.4-8c4.8-5.8,10.7-9.9,18.2-11.1c3.6-0.6,7,0.4,10.3,1.5
	c5.2,1.8,9.8,4.5,13.3,8.8c1.6,2,2.7,4.1,3.3,6.5c2.3,10.2,1.2,19.9-3.2,29.4c-6,12.8-14,24.3-22.8,35.3c-6.7,8.4-14.2,16-21.9,23.5
	c-1.1,1.1-2.3,1.5-3.8,1.6c-18.4,1.3-35.1,7.4-50.1,18.1c-10.4,7.5-19.1,16.8-25.6,27.9c-1.4,2.4-3.1,3.2-5.6,3.5
	c-7.9,0.9-15.9,1.2-23.8,1.6C348.6,400,332.9,400.4,316.1,400.4z"/>
<path class="st1" d="M221.2,440.1c0.1,1.3-0.4,2.3-1.2,3.2c-0.7,0.9-1.5,1.7-2.3,2.5c-14.4,14.3-28.7,28.7-43.1,43
	c-1,1-2,1.7-3.3,2.2c-1.9,0.8-3.7,0.6-5.3-0.7c-1-0.9-1.9-1.8-2.9-2.8c-30.1-30.1-60.1-60.3-90.2-90.4c-1.3-1.3-2.7-2.6-4.1-4
	c-0.6-0.6-1.2-1.2-1.8-1.9c-2-2.7-1.9-4.7,0.5-7c4.7-4.6,9.5-9.3,14.3-13.9c9.8-9.6,19.7-19.2,29.5-28.8c0.7-0.7,1.5-1.4,2.4-2
	c2.8-1.8,5.6-1.5,8,0.8c6.8,6.6,13.5,13.3,20.2,20c25.8,25.5,51.6,51.1,77.4,76.6C220.4,438,221.4,438.8,221.2,440.1z M171.8,439.2
	c0.1-1-0.5-2.1-1.4-3c-1.3-1.4-2.6-2.7-4-4.1c-5-5.1-10.1-10.3-15.1-15.4c-1.4-1.5-3-2.4-5-1.7c-3.5,1.1-4,5.2-1.5,7.8
	c6.3,6.3,12.5,12.7,18.7,19c0.6,0.6,1.3,1.2,2,1.6C168.5,444.8,171.8,442.7,171.8,439.2z"/>
<path class="st1" d="M440.9,126.9c0,45.1-31.5,83.2-74.7,91.6c-41.7,8-82.8-12.6-99.8-51.4c-14.5-33.1-10.2-64.7,11.4-93.6
	c14.5-19.3,34.3-30.6,58.1-34.7c14.7-2.5,29.3-1.4,43.5,3.4c34.9,11.7,55.8,41.2,60.5,71.2C440.5,118.2,440.9,123,440.9,126.9z
	 M353.9,76.6c0.1,0,0.2,0,0.4,0c0-2.2,0-4.4,0-6.5c0-0.9,0-1.9-0.4-2.8c-0.7-1.8-2.3-2.9-4.2-2.9c-1.8,0-3.4,1.3-4,3.1
	c-0.3,1-0.4,2-0.4,3.1c-0.1,4-0.1,8-0.2,11.9c-0.1,2.9,0.5,2.6-2.5,3.4c-3.4,0.8-6.6,2.3-9.5,4.4c-7.5,5.5-10.7,13.2-10.4,22.2
	c0.2,7.5,3.2,13.8,10.2,17.5c3,1.6,6.2,2.7,9.7,3.2c3.5,0.5,7,0.4,10.5,1c5.1,0.9,9.5,3,12.4,7.3c4.2,6,3,12.9-1.8,18.3
	c-5.3,6-15.7,6.4-21.6,3.3c-3.8-2-7.6-4.3-10.2-7.9c-0.4-0.5-0.9-1-1.5-1.3c-1.6-1-3.3-1-4.8,0.1c-1.4,1.1-1.8,2.6-1.5,4.3
	c0.2,1.4,0.9,2.5,1.8,3.5c4.9,5.2,10.5,9.3,17.5,11.1c1.6,0.4,1.9,1,1.9,2.5c-0.1,3.9-0.2,7.8-0.3,11.7c0,1,0,2.1,0.2,3.1
	c0.4,2.1,1.9,3.4,3.9,3.5c2,0.1,3.6-1,4.4-2.9c0.4-0.9,0.3-1.9,0.3-2.8c0.1-3.9,0.1-7.8,0.2-11.7c0.1-2.5,0.1-2.6,2.5-3
	c5.5-1.1,10.2-3.4,13.9-7.7c4.4-5.1,6.8-10.9,6.2-17.7c-0.8-9.9-6.5-16.2-15.3-20.2c-4.9-2.2-10.1-2.5-15.3-2.8
	c-2.8-0.1-5.4-0.8-8-1.9c-3.1-1.3-5.2-3.5-6-6.8c-1.6-6.5-0.4-12.5,4.6-17.2c6.1-5.8,18.2-6.5,25.8-1.7c2.3,1.4,4.2,3.2,6.2,5
	c2,1.7,4.3,1.6,5.8-0.1c1.7-1.9,1.6-4.1-0.5-6c-1.1-1-2.2-2-3.4-3c-3.3-2.9-7-5.2-11.3-6.3c-1.3-0.3-2.6-0.6-3.9-0.8
	c-1.3-0.2-1.7-0.8-1.6-2.1C354,81.4,353.9,79,353.9,76.6z"/>
<path class="st0" d="M171.8,439.2c0,3.5-3.3,5.6-6.2,4.1c-0.7-0.4-1.4-1-2-1.6c-6.2-6.3-12.4-12.8-18.7-19c-2.6-2.5-2-6.7,1.5-7.8
	c2.1-0.7,3.6,0.3,5,1.7c5,5.2,10,10.3,15.1,15.4c1.3,1.4,2.7,2.7,4,4.1C171.3,437.1,171.9,438.2,171.8,439.2z"/>
<path class="st2" d="M475.5,511.3c-35.5,0-64.5-24.8-69.9-58.6c-5-31.7,13.1-63.9,42.9-76.1c20.7-8.4,41.2-7.8,60.9,2.7
	c18.6,10,30.4,25.7,34.8,46.4c8.3,38.5-17.3,76.3-55.8,84c-1.9,0.4-3.9,0.8-5.9,1C479.9,511.1,477.1,511.2,475.5,511.3z M475,502.5
	c3.5,0.1,7.5-0.4,11.6-1.2c32.4-6.2,54.5-36.9,49.9-69.5c-3.1-21.5-14.8-37.1-34.4-46.3c-17.7-8.3-35.7-7.7-53.2,0.7
	c-25.6,12.4-39.7,40.9-33.9,68.1C420.9,482.7,445.3,502.5,475,502.5z"/>
<path class="st0" d="M353.9,76.6c0,2.4,0.1,4.7,0,7.1c-0.1,1.3,0.3,1.9,1.6,2.1c1.3,0.2,2.6,0.5,3.9,0.8c4.3,1.1,8,3.5,11.3,6.3
	c1.1,1,2.3,2,3.4,3c2.1,1.9,2.2,4,0.5,6c-1.5,1.7-3.9,1.8-5.8,0.1c-2-1.8-3.9-3.6-6.2-5c-7.6-4.8-19.7-4.1-25.8,1.7
	c-5,4.8-6.2,10.7-4.6,17.2c0.8,3.2,2.9,5.5,6,6.8c2.6,1,5.2,1.7,8,1.9c5.2,0.3,10.4,0.6,15.3,2.8c8.7,4,14.4,10.3,15.3,20.2
	c0.6,6.8-1.9,12.7-6.2,17.7c-3.7,4.3-8.4,6.6-13.9,7.7c-2.4,0.5-2.5,0.5-2.5,3c-0.1,3.9-0.2,7.8-0.2,11.7c0,0.9,0,1.9-0.3,2.8
	c-0.8,1.9-2.4,3-4.4,2.9c-2-0.1-3.5-1.4-3.9-3.5c-0.2-1-0.2-2.1-0.2-3.1c0.1-3.9,0.1-7.8,0.3-11.7c0.1-1.4-0.3-2.1-1.9-2.5
	c-7-1.8-12.6-5.9-17.5-11.1c-0.9-1-1.6-2.1-1.8-3.5c-0.3-1.7,0.1-3.2,1.5-4.3c1.4-1.1,3.1-1.2,4.8-0.1c0.6,0.3,1.1,0.8,1.5,1.3
	c2.6,3.7,6.4,6,10.2,7.9c5.9,3.1,16.4,2.7,21.6-3.3c4.7-5.4,6-12.3,1.8-18.3c-2.9-4.2-7.3-6.4-12.4-7.3c-3.5-0.6-7-0.4-10.5-1
	c-3.4-0.5-6.6-1.6-9.7-3.2c-7-3.7-10-10-10.2-17.5c-0.2-9,2.9-16.7,10.4-22.2c2.9-2.1,6-3.5,9.5-4.4c3-0.7,2.5-0.5,2.5-3.4
	c0.1-4,0.1-8,0.2-11.9c0-1,0.1-2.1,0.4-3.1c0.6-1.8,2.2-3,4-3.1c1.8,0,3.4,1.1,4.2,2.9c0.4,0.9,0.4,1.8,0.4,2.8c0,2.2,0,4.4,0,6.5
	C354.2,76.6,354,76.6,353.9,76.6z"/>
<path class="st2" d="M475.9,455.8c-9.3,0-16.9-7.4-16.9-16.6c0-9.1,7.2-16.4,16.3-16.5c9.4-0.1,17.2,7.5,17.1,16.8
	C492.3,448.5,485,455.7,475.9,455.8z M483.5,439.4c0-4.4-3.5-7.9-8-7.9c-4.2,0-7.7,3.3-7.8,7.4c-0.1,4.3,3.7,8.2,8.2,8.1
	C480.1,447,483.5,443.6,483.5,439.4z"/>
<path class="st2" d="M438.2,456.4c-9.3,0-16.8-7.5-16.8-16.8c0-9.1,7.4-16.3,16.5-16.4c9.3,0,16.9,7.5,17,16.6
	C454.9,449,447.4,456.4,438.2,456.4z M445.9,439.9c0-4.3-3.6-7.9-8-7.8c-4.2,0-7.7,3.4-7.7,7.5c-0.1,4.3,3.8,8.1,8.2,8
	C442.6,447.5,445.9,444.1,445.9,439.9z"/>
<path class="st2" d="M512.4,455.8c-9.3,0-16.9-7.6-16.8-16.8c0-9,7.5-16.3,16.5-16.4c9.4,0,17,7.6,16.9,16.9
	C529,448.6,521.6,455.8,512.4,455.8z M504.5,439.1c0,4.3,3.6,7.9,8,7.9c4.2,0,7.7-3.3,7.7-7.5c0.1-4.4-3.7-8.1-8.2-8
	C507.8,431.6,504.5,434.9,504.5,439.1z"/>
<path class="st3" d="M239.8,114.2l11.2,11.2c2.6,2.7,7,2.7,9.6,0l11.2-11.2c2.6-2.7,2.6-6.9,0-9.6l-11.2-11.2
	c-2.6-2.7-6.9-2.7-9.6,0l-11.2,11.2C237.1,107.3,237.1,111.6,239.8,114.2z"/>
<path class="st3" d="M239.8,146.8l11.2,11.2c2.6,2.6,7,2.6,9.6,0l11.2-11.2c2.6-2.6,2.6-6.9,0-9.6L260.5,126c-2.6-2.7-6.9-2.7-9.6,0
	l-11.2,11.2C237.1,139.8,237.1,144.1,239.8,146.8z"/>
<path class="st2" d="M398.7,506.5l10.2,10.2c1.5,1.5,3.9,1.5,5.4,0l10.2-10.2c1.5-1.5,1.5-3.9,0-5.4L414.3,491
	c-1.5-1.5-3.9-1.5-5.4,0l-10.2,10.2C397.2,502.6,397.2,505,398.7,506.5z"/>
<circle class="st4" cx="474.3" cy="439.8" r="89"/>
</svg>
