<?xml version="1.0" encoding="utf-8"?>
<!-- Generator: Adobe Illustrator 28.0.0, SVG Export Plug-In . SVG Version: 6.00 Build 0)  -->
<svg version="1.1" id="Capa_1" xmlns="http://www.w3.org/2000/svg" xmlns:xlink="http://www.w3.org/1999/xlink" x="0px" y="0px"
	 viewBox="0 0 600 600" style="enable-background:new 0 0 600 600;" xml:space="preserve">
<style type="text/css">
	.st0{fill:#0A0A0A;}
	.st1{fill:#FDFDFD;}
	.st2{fill:#29E4A5;}
	.st3{fill:#6EE1EB;}
	.st4{fill:none;stroke:#29E4A5;stroke-width:12;stroke-miterlimit:10;}
</style>
<path class="st0" d="M382.4,417.7c-16,0-32,0-48.1,0c-0.3,3.6,0.4,7,1.1,10.3c1.7,8,4.6,15.5,9.4,22.2c0.6,0.8,1.1,1.5,1.8,2.2
	c2,2.1,4.1,3.8,7.3,3.2c1.4-0.2,2.8-0.1,4.2,0c3,0.2,4.9,1.9,4.9,4.4c0,2.5-1.9,4.2-4.9,4.4c-0.7,0-1.3,0-2,0
	c-39.2,0-78.4,0.1-117.6,0.1c-0.8,0-1.7,0-2.5-0.1c-2.4-0.3-4-2.1-3.9-4.4c0-2.2,1.5-3.8,3.9-4.1c1.2-0.2,2.5-0.2,3.7-0.1
	c1.9,0.2,3.2-0.6,4.4-2c4.7-5.4,8.3-11.4,10.9-18.1c2.1-5.4,4.3-10.9,4.7-16.8c0-0.6,0.3-1.1-0.1-1.7c-0.9-0.4-1.8-0.2-2.8-0.2
	c-34.2-0.2-68.4-0.3-102.6-0.4c-4.7,0-9.4,0.3-14.1-0.9c-9.4-2.4-16-7.9-18.7-17.4c-0.6-2.2-0.7-4.5-0.7-6.7
	c-0.5-71.3-0.9-142.6-1.4-214c0-3.4,0.8-6.3,2.8-9c5-7,11.6-10.8,20.4-10.8c17.5,0,35-0.1,52.4-0.1c0.5,0,0.9,0,1.4,0
	c2.7,0,2.7,0,2.7-2.6c0-2.6,0-5.3-0.1-7.9c-0.2-11.7,0-23.4-0.5-35.1c-0.1-3.1,1.7-4.9,4.8-5.1c0.3,0,0.6,0,0.8,0
	c71.2,0.2,142.4,0.4,213.7,0.6c5.3,0,10.6,0.1,15.9,0.1c0.7,0,1.3,0,2,0c2.9,0.2,4.4,1.8,4.6,4.7c0,0.8,0,1.5,0,2.3
	c0.1,13.4,0.1,26.8,0.2,40.2c0,2.6-0.2,2.4,2.5,2.4c3.9,0,7.7-0.3,11.6-0.1c3.8,0.2,7.5,1.2,10.8,3.1c5.1,3,7.9,7.4,8,13.4
	c0.3,25,0.7,50.1,1,75.1c0.4,32.1,0.8,64.2,1.2,96.3c0,0.3,0,0.6,0,0.8c-0.2,1.4,0.5,1.7,1.8,1.8c4.1,0.1,8.3,0.2,12.4,1
	c31.5,6.1,55.3,22.7,69.1,52c19.8,42.4,4.1,92.8-36.3,117.7c-18.5,11.4-38.6,16.1-60.1,13.9c-22.5-2.3-41.9-11.6-57.6-27.9
	c-14.2-14.8-22.4-32.5-24.7-52.9c-1.2-10.6-0.5-21.1,2-31.5C382.3,419.5,382.6,418.8,382.4,417.7z M275.5,365c0-0.2,0-0.4,0-0.6
	c47.7,0,95.4,0,143.1,0c1.6,0,3.1-0.3,4.5-1.2c12.7-8,26.5-13,41.5-14.6c2.4-0.3,2.2-0.6,2.1-2.3c0-0.4,0-0.8,0-1.1
	c-0.5-33.8-0.9-67.6-1.4-101.5c-0.2-17-0.4-34-0.7-51c0-3.3,0.6-3.1-3.2-3.2c-5.8-0.1-11.5-0.2-17.3-0.3c-3.5-0.1-3.5,0-3.5,3.6
	c0.2,49.5,0.5,99,0.7,148.5c0,1.2,0.1,2.5-0.1,3.7c-0.4,2.3-2.2,3.7-4.4,3.6c-2.1,0-3.7-1.4-4.1-3.6c-0.2-1-0.2-2.1-0.2-3.1
	c-0.2-50-0.5-99.9-0.7-149.9c-0.1-24.3-0.2-48.6-0.3-72.8c0-2.7,0.1-2.5-2.4-2.5c-0.2,0-0.4,0-0.6,0c-72.1-0.2-144.2-0.4-216.2-0.6
	c-1.6,0-3.6-0.7-4.6,0.4c-1,1.1-0.3,3.1-0.3,4.7c0.3,22.6,0.6,45.2,0.9,67.7c0.4,32.9,0.8,65.7,1.2,98.6c0,0.4,0,0.8,0,1.1
	c-0.1,1,0.2,1.7,1.4,1.5c0.4,0,0.8,0,1.1,0c16.2,0.3,32.3,0.6,48.5,0.9c3.2,0.1,6.4,0,9.6,0.1c1.1,0,1.5-0.4,1.5-1.5
	c0-2-0.1-4,0.1-5.9c0.4-3.1,3.1-4.7,6-3.5c0.6,0.2,1.2,0.6,1.8,0.9c11.4,6.4,22.7,12.7,34.1,19.1c1,0.6,1.9,1.2,2.7,2
	c3,3,2.7,7.8-1,9.9c-12.2,7.1-24.3,14.1-36.6,21c-3.7,2.1-7,0.2-7.3-4.1c-0.1-1.3-0.2-2.6-0.1-4c0.1-1.4-0.4-1.8-1.8-1.8
	c-3.1,0-6.2-0.1-9.4-0.1c-16.7-0.1-33.4-0.2-50.2-0.3c-2.3,0-2.2,0-2.2,2.1c0,7-0.1,14-0.1,21c0,1.1,0,2.3-0.3,3.4
	c-0.6,1.9-2,3.1-3.9,3.1c-2,0.1-3.6-1-4.3-3c-0.4-1-0.3-2-0.3-3.1c0.1-7.3,0.1-14.5,0.2-21.8c0-3.2,0.5-2.6-2.5-3.3
	c-9.6-2.4-18-7-24.9-14c-16.9-17.3-22.4-37.9-16.6-61.2c4-15.9,13.3-28,27.9-35.8c4.6-2.5,9.5-4.1,14.7-4.9c1.4-0.2,2.1-0.7,2-2.3
	c-0.2-4.2-0.2-8.3-0.2-12.5c0-1.2-0.3-1.8-1.6-1.7c-0.6,0.1-1.1,0-1.7,0c-21.4,0-42.7,0-64.1,0c-3.8,0-3.8,0-3.8,3.7
	c0.3,47,0.5,94.1,0.8,141.1c0.1,9.5,0.2,19.1,0.3,28.6c0,2.8-0.3,2.5,2.6,2.5c0.1,0,0.2,0,0.3,0C180.1,365,227.8,365,275.5,365z
	 M409.8,373.4c-1.3-0.5-2.3-0.3-3.3-0.3c-60.9,0.1-121.8,0.3-182.7,0.4c-30.4,0.1-60.8,0.2-91.2,0.3c-3.4,0-2.9-0.4-2.9,3.1
	c0,5.3,0.1,10.6,0.1,15.9c0,5.4,2.5,9.4,6.9,12.3c3.2,2,6.7,2.9,10.5,2.9c54.5,0.2,109,0.4,163.5,0.7c24.2,0.1,48.4,0.2,72.5,0.4
	c3.1,0,2.5,0.3,3.6-2.4c4.9-11.7,11.9-22,20.9-31C408.2,374.9,408.9,374.3,409.8,373.4z M558.8,440.5c-0.3-4.4-0.4-7.6-0.7-10.7
	c-0.3-2.5-0.7-5.1-1.2-7.5c-8.3-39.1-42.8-66.1-83.2-65.6c-14.4,0.2-28,3.8-40.6,10.7c-30.2,16.5-47.3,48.9-44.4,81.2
	c1.9,21.8,11,40,27.3,54.6c25.7,22.9,63.4,27.9,94.4,12.1C541.3,499.6,557,473.8,558.8,440.5z M200,214.4c-1.2-0.5-2-0.2-2.8,0
	c-9,2-16.6,6.6-22.8,13.5c-7.7,8.6-11.8,18.8-12.6,30.3c-1.1,16.9,4.1,31.5,16.3,43.3c8.5,8.2,18.8,12.5,30.9,12.5
	c21.2,0,42.3,0.3,63.5,0.5c1.2,0,2.4,0.2,3.6,0.5c2.1,0.5,3.1,1.6,3.2,3.7c0.1,1.2,0,2.4,0,4.1c9.5-5.5,18.6-10.7,28-16.1
	c-9.4-5.2-18.3-10.2-27.2-15.2c-0.5,1-0.3,1.8-0.4,2.5c-0.2,3.5-2.4,5.8-5.9,5.9c-0.9,0-1.9,0-2.8,0c-21.7-0.2-43.4-1-65.2-0.9
	c-3.2,0-6.2-0.6-9-1.9c-5.3-2.4-9.6-6-12.7-10.9c-8.3-13-8.8-26.6-2.1-40.4c3.5-7.1,8.9-12.3,16.4-15.3c0.8-0.3,1.6-0.5,1.6-1.6
	C199.9,224.1,200,219.2,200,214.4z M338.6,455.6c-1.8-2.6-3.5-4.9-4.9-7.3c-4.9-8.8-7.4-18.3-8.2-28.3c-0.2-2.5,0.4-2.5-2.8-2.5
	c-9.1-0.1-18.1-0.1-27.2-0.2c-8.5,0-17-0.1-25.5-0.1c-2,0-2,0-2.1,1.9c-0.2,2.3-0.4,4.5-0.8,6.7c-2.1,10.1-5.7,19.5-11.7,28
	c-0.4,0.5-1,0.9-0.8,1.7C282.4,455.6,310.3,455.6,338.6,455.6z M163.7,180.2c7.2,0,14.4,0,21.5,0c4.2,0,8.3-0.1,12.5,0
	c1.4,0,1.8-0.5,1.7-1.8c-0.1-3.2-0.1-6.4-0.1-9.6c0-2.1-0.1-2.1-2.3-2.1c-17.8,0.1-35.5,0.1-53.3,0.3c-5.2,0.1-9.8,2-13.4,5.9
	c-1.3,1.4-2.2,3-2.1,5.1c0.2,2.5-0.1,2.3,2.3,2.3C141.6,180.2,152.6,180.2,163.7,180.2z M200.1,239.4c-3.4,1.6-5.7,3.6-7.6,6.1
	c-6.2,8.2-7.7,17.4-5.1,27.3c1.7,6.6,5.3,12,11.4,15.6c0.5,0.3,1,0.9,1.9,0.3C200.5,272.4,200.3,256.1,200.1,239.4z M452.5,180.2
	c0,0.1,0,0.3,0,0.4c2.3,0,4.5,0,6.8,0c1.7,0,3.8,0.8,4.9-0.2c1.3-1.1,0.3-3.4,0.4-5.1c0.4-6.3-4.4-9.3-9-9.3c-4.5,0-9,0.3-13.5,0.4
	c-1.2,0-1.4,0.5-1.4,1.5c0.1,3.6,0.1,7.2,0,10.7c0,1.3,0.5,1.6,1.7,1.6C445.7,180.2,449.1,180.2,452.5,180.2z"/>
<path class="st1" d="M275.5,365c-47.7,0-95.4,0-143.1,0c-0.1,0-0.2,0-0.3,0c-2.9,0-2.6,0.3-2.6-2.5c-0.1-9.5-0.2-19.1-0.3-28.6
	c-0.3-47-0.5-94.1-0.8-141.1c0-3.6,0-3.7,3.8-3.7c21.4,0,42.7,0,64.1,0c0.6,0,1.1,0.1,1.7,0c1.3-0.2,1.6,0.5,1.6,1.7
	c0,4.2,0,8.3,0.2,12.5c0.1,1.6-0.6,2.1-2,2.3c-5.2,0.8-10.1,2.4-14.7,4.9c-14.6,7.8-23.9,19.9-27.9,35.8c-5.8,23.4-0.3,44,16.6,61.2
	c6.9,7,15.3,11.6,24.9,14c3,0.8,2.5,0.2,2.5,3.3c0,7.3-0.1,14.5-0.2,21.8c0,1-0.1,2.1,0.3,3.1c0.7,2,2.3,3.1,4.3,3
	c1.9-0.1,3.3-1.2,3.9-3.1c0.3-1.1,0.3-2.2,0.3-3.4c0-7,0.1-14,0.1-21c0-2.1-0.1-2.2,2.2-2.1c16.7,0.1,33.4,0.2,50.2,0.3
	c3.1,0,6.2,0.1,9.4,0.1c1.3,0,1.9,0.4,1.8,1.8c-0.1,1.3,0,2.6,0.1,4c0.3,4.3,3.6,6.2,7.3,4.1c12.2-6.9,24.4-13.9,36.6-21
	c3.7-2.1,4-6.9,1-9.9c-0.8-0.8-1.7-1.4-2.7-2c-11.4-6.4-22.7-12.7-34.1-19.1c-0.6-0.3-1.2-0.6-1.8-0.9c-3-1.2-5.7,0.4-6,3.5
	c-0.2,2-0.1,4-0.1,5.9c0,1.1-0.4,1.5-1.5,1.5c-3.2-0.1-6.4-0.1-9.6-0.1c-16.2-0.3-32.3-0.6-48.5-0.9c-0.4,0-0.8,0-1.1,0
	c-1.2,0.1-1.5-0.5-1.4-1.5c0-0.4,0-0.8,0-1.1c-0.4-32.9-0.8-65.7-1.2-98.6c-0.3-22.6-0.6-45.2-0.9-67.7c0-1.6-0.7-3.6,0.3-4.7
	c1-1.1,3-0.4,4.6-0.4c72.1,0.2,144.2,0.4,216.2,0.6c0.2,0,0.4,0,0.6,0c2.5,0,2.4-0.2,2.4,2.5c0.1,24.3,0.2,48.6,0.3,72.8
	c0.2,50,0.5,99.9,0.7,149.9c0,1,0,2.1,0.2,3.1c0.4,2.2,2,3.5,4.1,3.6c2.2,0,4-1.4,4.4-3.6c0.2-1.2,0.1-2.4,0.1-3.7
	c-0.2-49.5-0.4-99-0.7-148.5c0-3.6,0-3.7,3.5-3.6c5.8,0.1,11.5,0.2,17.3,0.3c3.9,0.1,3.2-0.2,3.2,3.2c0.2,17,0.5,34,0.7,51
	c0.5,33.8,0.9,67.6,1.4,101.5c0,0.4,0,0.8,0,1.1c0.1,1.7,0.3,2.1-2.1,2.3c-15,1.6-28.8,6.6-41.5,14.6c-1.5,0.9-2.9,1.2-4.5,1.2
	c-47.7,0-95.4,0-143.1,0C275.5,364.5,275.5,364.7,275.5,365z M351.8,137c0,0.2,0,0.4,0,0.7c-17.2,0-34.4,0-51.6,0
	c-3.1,0-4.7,1.1-5.8,3.9c-0.6,1.6-0.8,3.3-0.8,5c-0.1,3.4-0.1,6.8,0,10.2c0,1.3,0.2,2.6,0.5,3.9c1,3.8,3.7,5.8,7.6,5.8
	c32.7-0.3,65.4-0.6,98-0.9c1.4,0,2.8-0.1,4.2-0.3c4.2-0.6,6.8-3.2,7.3-7.5c0.5-4.3,0.5-8.7,0-13c-0.5-4.4-4.1-8-9-7.9
	C385.5,137.1,368.7,137,351.8,137z M318.1,244.1C318.1,244.1,318.1,244.2,318.1,244.1c29-0.1,58-0.3,87-0.5c0.8,0,1.5,0,2.3-0.1
	c2.1-0.5,3.5-2.1,3.5-4.2c0-2.1-1.3-3.7-3.4-4.3c-1.1-0.3-2.2-0.2-3.4-0.2c-9.3,0.1-18.7,0.2-28,0.2c-48,0.3-95.9,0.5-143.9,0.8
	c-0.9,0-1.9,0-2.8,0.2c-2.5,0.5-3.9,2.3-3.8,4.5c0.1,2.1,1.6,3.8,4,4.1c1,0.1,2.1,0.1,3.1,0.1C261.1,244.5,289.6,244.3,318.1,244.1z
	 M252.1,134.8c0-0.2,0-0.3,0-0.5c-7,0-14,0-21,0c-3.8,0-5.5,1.8-5.6,5.5c0,0.8,0,1.7,0,2.5c0.2,12.8,0.3,25.7,0.5,38.5
	c0.1,4.8,2.4,7.1,7.2,7.1c13.2-0.1,26.4-0.3,39.7-0.5c4.1-0.1,5.6-1.6,5.7-5.7c0.1-13.5,0.2-27,0.3-40.5c0-4.6-2-6.5-6.6-6.6
	C265.5,134.7,258.8,134.8,252.1,134.8z M290.3,266.9c0-0.3,0-0.5,0-0.8c19.5,0,38.9,0,58.4,0c1.2,0,2.5,0,3.7-0.3
	c1.9-0.5,3.1-2,3.3-3.8c0.2-1.9-1-3.6-2.9-4.4c-1-0.4-2-0.3-3.1-0.3c-39,0.3-78,0.6-117,0.9c-1,0-2.1,0-3.1,0.2
	c-2.3,0.4-3.8,2.1-3.8,4.2c0,2.2,1.7,4.1,4,4.4c1,0.1,2.1,0.1,3.1,0.1C252,266.9,271.1,266.9,290.3,266.9z M351.3,200.2
	c0-0.2,0-0.3,0-0.5c17.6-0.1,35.1-0.2,52.7-0.4c1.1,0,2.3,0.1,3.4-0.2c2.2-0.6,3.5-2.1,3.5-4.2c0-2.2-1.4-3.9-3.7-4.3
	c-1-0.2-2.1-0.1-3.1-0.1c-35.5,0.3-71,0.7-106.5,1c-0.8,0-1.5,0-2.3,0.1c-2.2,0.5-3.6,2.4-3.5,4.5c0.1,2.1,1.6,3.6,3.7,4
	c0.7,0.1,1.5,0.1,2.3,0.1C315.6,200.2,333.5,200.2,351.3,200.2z M368,289C368,289,368,289,368,289c11.9,0,23.8,0,35.7,0
	c0.9,0,1.9,0,2.8-0.1c2.2-0.4,3.7-2.2,3.7-4.4c0-2-1.4-3.7-3.6-4.1c-1-0.2-2.1-0.2-3.1-0.2c-23.6,0-47.2,0-70.8,0
	c-1,0-2.1,0-3.1,0.2c-2,0.4-3.3,2-3.4,4c-0.1,2.1,1.2,3.9,3.3,4.4c1,0.2,2.1,0.2,3.1,0.2C344.4,289,356.2,289,368,289z M372,222.2
	c0-0.2,0-0.5,0-0.7c10.9,0,21.7,0,32.6,0c1.1,0,2.3,0.1,3.4-0.4c1.8-0.7,2.9-2.2,2.9-4.1c0-1.9-1.1-3.4-3-4.1
	c-1.1-0.4-2.2-0.4-3.4-0.4c-21.7,0.3-43.4,0.6-65.1,0.9c-0.8,0-1.5,0-2.3,0.2c-2.1,0.4-3.5,2.2-3.5,4.2c0,2,1.4,3.8,3.5,4.2
	c0.7,0.1,1.5,0.1,2.3,0.1C350.3,222.2,361.2,222.2,372,222.2z M379.9,303.1c0-0.2,0-0.4,0-0.5c-8.5,0-17,0-25.5,0
	c-1,0-2.1,0-3.1,0.4c-1.8,0.8-2.9,2.3-2.8,4.2c0.1,1.8,1.2,3.4,3.1,4c1,0.3,2,0.4,3.1,0.4c16.9,0.2,33.8,0.4,50.7,0.5
	c1,0,2.1,0,3.1-0.4c1.8-0.6,2.8-1.9,2.9-3.8c0.2-1.8-0.9-3.5-2.7-4.2c-1.1-0.5-2.2-0.5-3.3-0.5C396.9,303.1,388.4,303.1,379.9,303.1
	z M346.9,334.2c0,0,0,0.1,0,0.1c2.4,0,4.7,0.1,7.1,0c2.4-0.1,4.1-1.9,4.1-4.2c0.1-2.3-1.4-4.1-3.9-4.4c-0.3,0-0.6-0.1-0.8-0.1
	c-4.2-0.1-8.5-0.2-12.7-0.4c-0.9,0-1.7,0.1-2.5,0.4c-1.7,0.7-2.7,2-2.8,3.9c-0.1,1.8,1,3.5,2.8,4.2c0.9,0.3,1.8,0.5,2.8,0.5
	C343,334.2,345,334.2,346.9,334.2z M379.8,334.4c0-0.1,0-0.1,0-0.2c2.3,0,4.5,0.1,6.8,0c2.3-0.2,4-1.8,4.3-3.9c0.3-2-1-3.9-3-4.6
	c-0.7-0.2-1.5-0.4-2.2-0.4c-4,0.1-7.9,0.1-11.9,0.3c-2.8,0.1-4.5,2-4.4,4.5c0.1,2.4,1.8,4,4.5,4.1
	C375.8,334.5,377.8,334.4,379.8,334.4z M300.1,222.4c0,0.1,0,0.1,0,0.2c1.4,0,2.8,0.1,4.2,0c2.8-0.2,4.6-1.9,4.7-4.3
	c0.1-2.3-1.5-4.3-4.2-4.5c-3.3-0.2-6.6-0.3-9.9-0.1c-2.3,0.1-3.7,1.7-3.9,3.8c-0.3,2.5,1.2,4.5,4,4.9
	C296.7,222.6,298.4,222.4,300.1,222.4z M407.4,333.7c3.2,0,5-1.5,5.2-3.7c0.2-2.4-1.5-4.1-4.2-4.3c-0.9-0.1-1.9-0.1-2.8,0.1
	c-1.7,0.3-3,1.9-3,3.6c-0.1,1.6,0.9,3.1,2.5,3.7C406,333.5,407,333.7,407.4,333.7z M329.5,333.8c2.4,0,4.4-1.9,4.5-4.2
	c0-2.1-1.6-3.8-3.7-3.8c-2.5-0.1-4.6,2-4.6,4.3C325.7,332.2,327.3,333.8,329.5,333.8z M315.9,214.1c-2.1-0.1-3.8,1.5-4,3.6
	c-0.1,2.1,1.5,3.8,3.5,4c2.2,0.1,4.1-1.5,4.1-3.7C319.6,215.9,317.9,214.2,315.9,214.1z M367.9,329.3c-0.1-2.1-1.7-3.7-3.9-3.7
	c-2.1,0-3.7,1.7-3.7,3.8c0,2.2,1.8,3.9,4,3.8C366.4,333.1,368,331.4,367.9,329.3z M401.3,330.1c0-2.1-1.5-3.8-3.7-3.8
	c-2.2-0.1-4,1.6-3.9,3.9c0,2.1,1.7,3.7,3.8,3.7C399.6,333.9,401.3,332.3,401.3,330.1z"/>
<path class="st1" d="M409.8,373.4c-0.9,0.9-1.5,1.5-2.2,2.1c-9,8.9-16.1,19.2-20.9,31c-1.1,2.7-0.6,2.4-3.6,2.4
	c-24.2-0.1-48.4-0.3-72.5-0.4c-54.5-0.2-109-0.4-163.5-0.7c-3.8,0-7.3-0.9-10.5-2.9c-4.4-2.8-6.9-6.9-6.9-12.3
	c0-5.3-0.1-10.6-0.1-15.9c0-3.5-0.4-3.1,2.9-3.1c30.4-0.1,60.8-0.2,91.2-0.3c60.9-0.2,121.8-0.3,182.7-0.4
	C407.4,373.1,408.5,373,409.8,373.4z M300.8,391.8c0-2.1-1.7-3.8-3.7-3.8c-2.1-0.1-3.8,1.6-3.9,3.6c-0.1,2.2,1.7,4,3.9,4
	C299.1,395.5,300.8,393.8,300.8,391.8z M307.8,395.7c2.1,0,3.8-1.7,3.8-3.8c0-2.2-1.8-3.9-4-3.8c-2.1,0.1-3.7,1.9-3.6,3.9
	C304.1,394.1,305.7,395.7,307.8,395.7z"/>
<path class="st1" d="M200,214.4c0,4.8,0,9.7,0,14.6c0,1.2-0.8,1.3-1.6,1.6c-7.5,3-12.9,8.2-16.4,15.3c-6.7,13.8-6.2,27.4,2.1,40.4
	c3.1,4.9,7.4,8.5,12.7,10.9c2.9,1.3,5.8,1.9,9,1.9c21.7-0.1,43.4,0.7,65.2,0.9c0.9,0,1.9,0.1,2.8,0c3.5-0.2,5.7-2.4,5.9-5.9
	c0-0.7-0.2-1.5,0.4-2.5c8.9,5,17.9,10,27.2,15.2c-9.4,5.4-18.5,10.6-28,16.1c0-1.7,0.1-2.9,0-4.1c-0.2-2.1-1.2-3.2-3.2-3.7
	c-1.2-0.3-2.4-0.4-3.6-0.5c-21.2-0.2-42.3-0.5-63.5-0.5c-12.1,0-22.4-4.3-30.9-12.5c-12.2-11.8-17.4-26.4-16.3-43.3
	c0.8-11.5,4.9-21.7,12.6-30.3c6.1-6.9,13.7-11.4,22.8-13.5C198,214.2,198.8,213.9,200,214.4z"/>
<path class="st1" d="M338.6,455.6c-28.3,0-56.1,0-84,0c-0.2-0.8,0.4-1.2,0.8-1.7c5.9-8.5,9.6-17.9,11.7-28c0.5-2.2,0.6-4.5,0.8-6.7
	c0.2-1.9,0.1-2,2.1-1.9c8.5,0,17,0.1,25.5,0.1c9.1,0.1,18.1,0.1,27.2,0.2c3.2,0,2.6,0,2.8,2.5c0.8,10,3.3,19.5,8.2,28.3
	C335,450.8,336.7,453,338.6,455.6z"/>
<path class="st1" d="M163.7,180.2c-11,0-22.1,0-33.1,0c-2.4,0-2.1,0.2-2.3-2.3c-0.1-2.1,0.8-3.6,2.1-5.1c3.6-3.8,8.2-5.8,13.4-5.9
	c17.8-0.2,35.5-0.2,53.3-0.3c2.2,0,2.2,0,2.3,2.1c0.1,3.2,0,6.4,0.1,9.6c0,1.3-0.3,1.8-1.7,1.8c-4.2-0.1-8.3,0-12.5,0
	C178,180.2,170.9,180.2,163.7,180.2z"/>
<path class="st1" d="M200.1,239.4c0.2,16.8,0.4,33.1,0.6,49.2c-0.9,0.7-1.4,0-1.9-0.3c-6-3.5-9.6-8.9-11.4-15.6
	c-2.6-9.9-1.1-19.1,5.1-27.3C194.4,243,196.7,241,200.1,239.4z"/>
<path class="st1" d="M452.5,180.2c-3.4,0-6.8,0-10.2,0c-1.2,0-1.7-0.3-1.7-1.6c0.1-3.6,0-7.2,0-10.7c0-1,0.3-1.5,1.4-1.5
	c4.5-0.1,9-0.4,13.5-0.4c4.6,0,9.4,2.9,9,9.3c-0.1,1.7,0.8,4-0.4,5.1c-1.1,1-3.2,0.2-4.9,0.2c-2.3,0-4.5,0-6.8,0
	C452.5,180.5,452.5,180.3,452.5,180.2z"/>
<path class="st0" d="M351.8,137c16.8,0,33.6,0.2,50.4-0.1c4.9-0.1,8.5,3.5,9,7.9c0.5,4.3,0.5,8.7,0,13c-0.4,4.2-3.1,6.8-7.3,7.5
	c-1.4,0.2-2.8,0.3-4.2,0.3c-32.7,0.3-65.4,0.6-98,0.9c-3.9,0-6.7-2-7.6-5.8c-0.3-1.3-0.5-2.6-0.5-3.9c-0.1-3.4,0-6.8,0-10.2
	c0-1.7,0.2-3.4,0.8-5c1.1-2.9,2.7-3.9,5.8-3.9c17.2,0,34.4,0,51.6,0C351.8,137.4,351.8,137.2,351.8,137z M352,157.5
	c0-0.2,0-0.4,0-0.6c8.8,0,17.6,0,26.4,0c7.5,0,14.9-0.1,22.4-0.1c2,0,2.1-0.1,2.2-2c0.2-2.4,0.3-4.7,0.4-7.1c0.1-2,0-2-2-2
	c-22.5,0.2-45,0.4-67.4,0.6c-9.7,0.1-19.5,0.2-29.2,0.3c-2.5,0-2.5,0-2.6,2.7c-0.1,2-0.2,4-0.2,5.9c-0.1,2.3,0,2.3,2.2,2.3
	C320.1,157.5,336,157.5,352,157.5z"/>
<path class="st0" d="M318.1,244.1c-28.5,0.2-57,0.4-85.6,0.6c-1,0-2.1,0.1-3.1-0.1c-2.3-0.3-3.9-2-4-4.1c-0.1-2.2,1.4-4.1,3.8-4.5
	c0.9-0.2,1.9-0.2,2.8-0.2c48-0.3,95.9-0.5,143.9-0.8c9.3-0.1,18.7-0.2,28-0.2c1.1,0,2.3-0.1,3.4,0.2c2.1,0.6,3.4,2.2,3.4,4.3
	c0,2.1-1.4,3.7-3.5,4.2c-0.7,0.2-1.5,0.1-2.3,0.1C376.1,243.8,347.1,244,318.1,244.1C318.1,244.2,318.1,244.1,318.1,244.1z"/>
<path class="st0" d="M252.1,134.8c6.7,0,13.4,0,20.1,0c4.6,0,6.6,2,6.6,6.6c-0.1,13.5-0.2,27-0.3,40.5c0,4.1-1.6,5.6-5.7,5.7
	c-13.2,0.2-26.4,0.3-39.7,0.5c-4.8,0-7.1-2.2-7.2-7.1c-0.2-12.8-0.3-25.7-0.5-38.5c0-0.8,0-1.7,0-2.5c0.1-3.8,1.9-5.5,5.6-5.5
	c7,0,14,0,21,0C252.1,134.4,252.1,134.6,252.1,134.8z M234.4,161.1c0.1,0,0.2,0,0.3,0c0,5.2,0,10.4,0,15.6c0,2.3,0.1,2.4,2.3,2.4
	c10.1-0.1,20.2-0.1,30.3-0.2c2.4,0,2.4-0.1,2.5-2.5c0.1-10,0.1-20,0.2-30c0-0.5,0-0.9,0-1.4c0.1-0.9-0.3-1.4-1.3-1.4
	c-3.7,0-7.4,0-11-0.1c-1.2,0-1.5,0.5-1.4,1.5c0,1.5,0.1,3,0,4.5c-0.1,2.4-1.7,4-3.9,4.1c-2.3,0.1-4-1.6-4.1-4.1
	c-0.1-1.5-0.1-3,0-4.5c0.1-1.2-0.3-1.7-1.6-1.6c-3.4,0.1-6.8,0-10.2,0c-1.9,0-2,0-2,2C234.4,150.6,234.4,155.8,234.4,161.1z"/>
<path class="st0" d="M290.3,266.9c-19.2,0-38.3,0-57.5,0c-1,0-2.1,0.1-3.1-0.1c-2.4-0.3-4.1-2.2-4-4.4c0-2.1,1.6-3.9,3.8-4.2
	c1-0.2,2.1-0.2,3.1-0.2c39-0.3,78-0.6,117-0.9c1,0,2.1-0.1,3.1,0.3c1.9,0.8,3.1,2.5,2.9,4.4c-0.2,1.9-1.4,3.3-3.3,3.8
	c-1.2,0.3-2.4,0.3-3.7,0.3c-19.5,0-38.9,0-58.4,0C290.3,266.4,290.3,266.6,290.3,266.9z"/>
<path class="st0" d="M351.3,200.2c-17.9,0-35.7,0-53.6,0c-0.8,0-1.5,0-2.3-0.1c-2.2-0.3-3.6-1.9-3.7-4c-0.1-2.2,1.3-4.1,3.5-4.5
	c0.7-0.2,1.5-0.1,2.3-0.1c35.5-0.3,71-0.7,106.5-1c1,0,2.1-0.1,3.1,0.1c2.3,0.4,3.7,2.1,3.7,4.3c0,2.1-1.3,3.6-3.5,4.2
	c-1.1,0.3-2.3,0.2-3.4,0.2c-17.6,0.1-35.1,0.2-52.7,0.4C351.3,199.8,351.3,200,351.3,200.2z"/>
<path class="st0" d="M368,289c-11.8,0-23.6,0-35.4,0c-1,0-2.1,0-3.1-0.2c-2.1-0.5-3.4-2.3-3.3-4.4c0.1-2,1.4-3.5,3.4-4
	c1-0.2,2.1-0.2,3.1-0.2c23.6,0,47.2,0,70.8,0c1,0,2.1,0,3.1,0.2c2.2,0.4,3.5,2.1,3.6,4.1c0,2.1-1.4,4-3.7,4.4
	c-0.9,0.2-1.9,0.1-2.8,0.1C391.8,289,379.9,289,368,289C368,289,368,289,368,289z"/>
<path class="st0" d="M372,222.2c-10.9,0-21.7,0-32.6,0c-0.8,0-1.5,0-2.3-0.1c-2.1-0.4-3.5-2.2-3.5-4.2c0-2,1.4-3.8,3.5-4.2
	c0.7-0.2,1.5-0.1,2.3-0.2c21.7-0.3,43.4-0.6,65.1-0.9c1.1,0,2.3,0,3.4,0.4c1.8,0.7,2.9,2.2,3,4.1c0,1.9-1.1,3.4-2.9,4.1
	c-1.1,0.4-2.2,0.4-3.4,0.4c-10.9,0-21.7,0-32.6,0C372,221.7,372,222,372,222.2z"/>
<path class="st0" d="M379.9,303.1c8.5,0,17,0,25.5,0c1.1,0,2.3,0,3.3,0.5c1.8,0.8,2.8,2.4,2.7,4.2c-0.2,1.9-1.2,3.2-2.9,3.8
	c-1,0.4-2,0.4-3.1,0.4c-16.9-0.2-33.8-0.4-50.7-0.5c-1,0-2.1-0.1-3.1-0.4c-1.8-0.6-3-2.1-3.1-4c-0.1-1.9,1-3.4,2.8-4.2
	c1-0.4,2-0.4,3.1-0.4c8.5,0,17,0,25.5,0C379.9,302.8,379.9,303,379.9,303.1z"/>
<path class="st0" d="M346.9,334.2c-2,0-3.9,0-5.9,0c-1,0-1.9-0.1-2.8-0.5c-1.8-0.7-2.9-2.3-2.8-4.2c0.1-1.9,1-3.2,2.8-3.9
	c0.8-0.3,1.6-0.4,2.5-0.4c4.2,0.1,8.5,0.2,12.7,0.4c0.3,0,0.6,0,0.8,0.1c2.4,0.4,3.9,2.1,3.9,4.4c-0.1,2.3-1.7,4-4.1,4.2
	c-2.3,0.1-4.7,0-7.1,0C346.9,334.3,346.9,334.3,346.9,334.2z"/>
<path class="st0" d="M379.8,334.4c-2,0-4,0.1-5.9,0c-2.7-0.1-4.4-1.8-4.5-4.1c-0.1-2.5,1.6-4.4,4.4-4.5c4-0.2,7.9-0.3,11.9-0.3
	c0.7,0,1.5,0.1,2.2,0.4c2,0.7,3.3,2.6,3,4.6c-0.3,2.1-1.9,3.7-4.3,3.9c-2.3,0.2-4.5,0-6.8,0C379.8,334.3,379.8,334.4,379.8,334.4z"
	/>
<path class="st0" d="M300.1,222.4c-1.7,0-3.4,0.2-5.1,0c-2.8-0.4-4.3-2.4-4-4.9c0.2-2,1.7-3.7,3.9-3.8c3.3-0.2,6.6-0.2,9.9,0.1
	c2.7,0.2,4.2,2.1,4.2,4.5c-0.1,2.4-1.9,4.1-4.7,4.3c-1.4,0.1-2.8,0-4.2,0C300.1,222.5,300.1,222.5,300.1,222.4z"/>
<path class="st0" d="M407.4,333.7c-0.4,0-1.4-0.2-2.4-0.5c-1.6-0.6-2.6-2.1-2.5-3.7c0.1-1.7,1.3-3.2,3-3.6c0.9-0.2,1.9-0.2,2.8-0.1
	c2.7,0.2,4.3,1.9,4.2,4.3C412.4,332.2,410.6,333.7,407.4,333.7z"/>
<path class="st0" d="M329.5,333.8c-2.1,0-3.8-1.6-3.8-3.7c-0.1-2.4,2.1-4.4,4.6-4.3c2.1,0.1,3.7,1.7,3.7,3.8
	C333.9,331.9,331.8,333.8,329.5,333.8z"/>
<path class="st0" d="M315.9,214.1c2.1,0.1,3.7,1.8,3.7,3.9c0,2.2-1.9,3.9-4.1,3.7c-2.1-0.1-3.7-1.9-3.5-4
	C312,215.6,313.8,214,315.9,214.1z"/>
<path class="st0" d="M367.9,329.3c0.1,2.1-1.5,3.8-3.6,3.9c-2.2,0.1-4-1.6-4-3.8c0-2.1,1.6-3.8,3.7-3.8
	C366.2,325.6,367.9,327.2,367.9,329.3z"/>
<path class="st0" d="M401.3,330.1c0,2.1-1.7,3.7-3.8,3.7c-2.1,0-3.8-1.6-3.8-3.7c0-2.2,1.7-3.9,3.9-3.9
	C399.8,326.4,401.3,328,401.3,330.1z"/>
<path class="st0" d="M300.8,391.8c0,2-1.7,3.8-3.8,3.8c-2.2,0-4-1.8-3.9-4c0.1-2.1,1.8-3.7,3.9-3.6
	C299.2,388,300.8,389.7,300.8,391.8z"/>
<path class="st0" d="M307.8,395.7c-2.1,0-3.8-1.6-3.9-3.7c-0.1-2.1,1.6-3.8,3.6-3.9c2.2-0.1,4,1.6,4,3.8
	C311.6,394,309.9,395.7,307.8,395.7z"/>
<path class="st2" d="M404.2,442.7c0-33.6,23.1-62.5,55-69.9c17.2-4,33.9-2,49.4,6.5c18.9,10.4,30.7,26.5,34.8,47.8
	c7.1,37.2-17.1,74.2-55.8,82.1c-38.2,7.8-75.1-16.5-82.3-55.1C404.5,450.1,404.2,445.9,404.2,442.7z M413,444.8
	c0.1,11.6,4.8,24.9,14.5,36.2c20.5,23.7,55.8,27.9,81.8,9.7c25.4-17.7,33.9-51.3,19.9-78.4c-12.1-23.4-38.2-36.2-64.6-31.6
	C434.9,385.9,413.1,411.5,413,444.8z"/>
<path class="st1" d="M352,157.5c-16,0-31.9,0-47.9,0c-2.3,0-2.3,0-2.2-2.3c0.1-2,0.1-4,0.2-5.9c0.1-2.6,0.1-2.6,2.6-2.7
	c9.7-0.1,19.5-0.2,29.2-0.3c22.5-0.2,45-0.4,67.4-0.6c2,0,2,0,2,2c-0.1,2.4-0.2,4.7-0.4,7.1c-0.1,2-0.2,2-2.2,2
	c-7.5,0.1-14.9,0.1-22.4,0.1c-8.8,0-17.6,0-26.4,0C352,157.1,352,157.3,352,157.5z"/>
<path class="st1" d="M234.4,161.1c0-5.3,0-10.6,0-15.8c0-2,0-2,2-2c3.4,0,6.8,0.1,10.2,0c1.2,0,1.7,0.4,1.6,1.6
	c-0.1,1.5-0.1,3,0,4.5c0.1,2.5,1.9,4.2,4.1,4.1c2.2-0.1,3.7-1.7,3.9-4.1c0.1-1.5,0-3,0-4.5c0-1,0.2-1.6,1.4-1.5
	c3.7,0.1,7.4,0.1,11,0.1c1,0,1.4,0.4,1.3,1.4c0,0.5,0,0.9,0,1.4c-0.1,10-0.1,20-0.2,30c0,2.4,0,2.5-2.5,2.5
	c-10.1,0.1-20.2,0.2-30.3,0.2c-2.2,0-2.3,0-2.3-2.4c0-5.2,0-10.4,0-15.6C234.6,161.1,234.5,161.1,234.4,161.1z"/>
<path class="st2" d="M462.2,441c0.9-1,1.8-2.3,3-3.4c10.9-11.1,22-22.1,33.3-32.8c2.7-2.6,5.6-4.8,9.7-4.2c2.2,0.3,4.2,1.1,5.7,2.7
	c3.1,3.2,6.1,6.4,9.2,9.6c1.3,1.4,2.4,2.9,3.2,4.7c2.1,4.6,1.8,9-1.4,13c-0.8,1-1.7,2-2.7,2.9c-13.7,13.6-27.4,27.1-41,40.7
	c-3.6,3.6-7.5,6.9-11.2,10.4c-1.5,1.4-3.4,2.4-5.2,3.4c-3.1,1.5-6.2,1.4-9.1-0.6c-2.8-1.8-5.2-4.1-7.5-6.4
	c-7.2-7.4-14.3-14.8-21.4-22.2c-2.1-2.2-3.8-4.6-5.4-7.2c-2.3-3.6-1.9-7.2,0.6-10.3c3.7-4.6,7.9-8.9,12.5-12.6
	c0.6-0.5,1.3-0.9,1.9-1.2c5.2-2.7,8.2-2.5,12.6,1.5c3.8,3.4,7.4,7.1,11,10.6C460.4,439.9,460.9,440.6,462.2,441z M460,478.9
	c2,0,3.7-0.6,5.2-1.6c1.5-1,2.9-2.1,4.2-3.4c1.9-2,3.8-4,5.7-5.9c14.1-14.4,28.5-28.4,42.8-42.5c1.8-1.7,2.1-3.4,0.7-5.2
	c-3.1-3.9-6.7-7.4-10.4-10.8c-1-0.9-2-0.8-3.1,0c-1.2,0.8-2.2,1.8-3.2,2.8c-13.8,14.6-28.2,28.6-42.2,43.1c-0.6,0.6-1.2,1.2-1.9,1.7
	c-1.8,1.4-4.2,1.3-5.7-0.1c-1.6-1.5-1.8-4-0.3-5.9c0.6-0.8,1.4-1.5,2.1-2.3c1.4-1.5,1.4-1.5,0.1-2.8c-3.3-3.2-6.6-6.5-9.9-9.7
	c-2.2-2.1-3.6-2.2-6-0.5c-3.5,2.5-6.5,5.5-9.2,8.8c-1.4,1.8-1.4,2.5,0,4.3c1.6,2.2,3.2,4.4,5.2,6.4c6.8,6.8,13.6,13.7,20.4,20.5
	c0.9,0.9,1.8,1.7,2.8,2.4C458.1,478.7,459.1,479,460,478.9z"/>
<path class="st3" d="M109.9,231.9l11.2,11.2c2.7,2.7,7,2.7,9.6,0l11.2-11.2c2.7-2.7,2.7-7,0-9.6l-11.2-11.2c-2.7-2.7-7-2.7-9.6,0
	l-11.2,11.2C107.3,224.9,107.3,229.2,109.9,231.9z"/>
<path class="st3" d="M109.9,264.6l11.2,11.2c2.7,2.7,7,2.7,9.6,0l11.2-11.2c2.7-2.7,2.7-7,0-9.6l-11.2-11.2c-2.7-2.7-7-2.7-9.6,0
	L109.9,255C107.3,257.6,107.3,261.9,109.9,264.6z"/>
<path class="st2" d="M401.2,507.5l8.8,8.8c1.3,1.3,3.4,1.3,4.7,0l8.8-8.8c1.3-1.3,1.3-3.4,0-4.7l-8.8-8.8c-1.3-1.3-3.4-1.3-4.7,0
	l-8.8,8.8C399.9,504.2,399.9,506.2,401.2,507.5z"/>
<path class="st2" d="M469.3,470.4l8.8,8.8c1.3,1.3,3.4,1.3,4.7,0l8.8-8.8c1.3-1.3,1.3-3.4,0-4.7l-8.8-8.8c-1.3-1.3-3.4-1.3-4.7,0
	l-8.8,8.8C468,467,468,469.1,469.3,470.4z"/>
<circle class="st4" cx="473.5" cy="440.6" r="89"/>
</svg>
