<?xml version="1.0" encoding="utf-8"?>
<!-- Generator: Adobe Illustrator 28.0.0, SVG Export Plug-In . SVG Version: 6.00 Build 0)  -->
<svg version="1.1" id="Capa_1" xmlns="http://www.w3.org/2000/svg" xmlns:xlink="http://www.w3.org/1999/xlink" x="0px" y="0px"
	 viewBox="0 0 600 600" style="enable-background:new 0 0 600 600;" xml:space="preserve">
<style type="text/css">
	.st0{fill:#090909;}
	.st1{fill:#FDFDFD;}
	.st2{fill:#DBB300;}
	.st3{fill:#6EE1EB;}
	.st4{fill:none;stroke:#DBB300;stroke-width:12;stroke-miterlimit:10;}
</style>
<path class="st0" d="M383.2,418.3c-0.8-0.5-1.6-0.3-2.3-0.3c-14.5-0.1-29-0.2-43.5-0.3c-0.2,0-0.4,0-0.6,0c-2.3,0-2.3,0-2.1,2.2
	c0.4,5.3,1.4,10.5,3.2,15.5c1.9,5.4,4.1,10.6,7.6,15.2c0.5,0.7,1,1.4,1.6,2c2.1,2.4,4.4,4.1,7.8,3.5c1.2-0.2,2.5,0,3.7,0
	c3.3-0.2,5.2,2.1,5.1,4.5c0,2.3-1.9,4.6-5.3,4.3c-0.5,0-0.9,0-1.4,0c-39.3,0.1-78.5,0.2-117.8,0.2c-1,0-2.1,0-3.1-0.2
	c-2.3-0.4-3.9-2.1-3.9-4.2c0-2.2,1.6-4.1,4-4.4c1.1-0.2,2.3-0.2,3.4-0.1c2.1,0.3,3.6-0.7,4.9-2.2c4.7-5.4,8.3-11.5,10.8-18.2
	c1.7-4.5,3.5-9,4.3-13.8c0.2-1.4,0.4-2.8,0.4-4.2c-0.8-0.6-1.7-0.3-2.5-0.3c-34.4-0.2-68.8-0.3-103.2-0.5c-4.3,0-8.5,0.3-12.8-0.5
	c-10.6-1.9-18.3-9-20.5-18.8c-0.4-1.8-0.4-3.6-0.4-5.4c-0.5-71.6-1-143.2-1.5-214.7c0-3.7,0.9-6.9,3.1-9.8
	c5-6.6,11.4-10.4,19.8-10.4c18,0,36-0.2,54-0.2c3.7,0,3.1,0.2,3-3c-0.2-13.9-0.3-27.9-0.5-41.8c0-0.6-0.1-1.1,0-1.7
	c0.2-2.4,1.8-4.1,4.2-4.2c1.3-0.1,2.7,0,4,0c75.9,0.2,151.9,0.4,227.8,0.6c0.7,0,1.3,0,2,0c2.8,0.2,4.3,1.6,4.7,4.4
	c0.1,0.8,0.1,1.7,0.1,2.6c0.1,13.3,0.1,26.5,0.2,39.8c0,0.9-0.2,1.9,0.2,3c1.5,0,3.1,0.1,4.6,0c4-0.2,8-0.5,11.9,0.3
	c5.9,1.1,11,3.4,14.2,8.9c1.4,2.5,2,5.1,2,7.9c0.2,21.9,0.5,43.8,0.8,65.7c0.5,34.9,0.9,69.8,1.4,104.7c0,0.6,0,1.1,0,1.7
	c0.1,2.1,0.1,2.1,2.2,2.2c4.5,0.1,9.1,0.2,13.6,1.2c27.7,5.7,49.5,20,63.9,44.6c19.4,33.2,15.6,75.4-9.4,105.2
	c-16.1,19.2-36.7,30.8-61.5,33.9c-30.9,3.8-57.8-5.2-79.7-27.5c-15.4-15.6-23.6-34.8-25.3-56.7c-0.7-9.2,0-18.4,2.2-27.4
	C382.8,420.3,383,419.2,383.2,418.3z M271.4,323.1c-1.1,0-1.9,0-2.8,0c-11.3-0.1-22.6-0.2-33.8-0.3c-8.2-0.1-16.3-0.1-24.5-0.1
	c-2.7,0-2.5,0.3-2.5,2.6c-0.1,7-0.1,14-0.2,21c0,0.9,0,1.9-0.2,2.8c-0.4,2.1-2.3,3.5-4.3,3.5c-2,0-3.8-1.5-4.2-3.6
	c-0.2-1-0.2-2.1-0.1-3.1c0-7.3,0.1-14.6,0.2-21.9c0-1.6-0.3-2.3-2-2.7c-7.8-1.8-14.8-5.2-21-10.2c-20-15.8-28.5-43.5-20.4-68.1
	c6.9-20.7,20.7-34,42.5-38.2c1.3-0.2,1.5-0.8,1.5-1.9c-0.1-3.8-0.1-7.6-0.1-11.4c-0.1-3.6,0.3-3.2-3.2-3.2c-21.5,0-43,0-64.6,0
	c-3.7,0-3.7,0-3.7,3.8c0.3,48,0.7,95.9,1,143.9c0.1,8.6,0.1,17.3,0.1,25.9c0,3.4-0.4,3.1,3.3,3.1c0.3,0,0.6,0,0.9,0
	c27.2-0.1,54.4-0.2,81.6-0.3c68.1-0.2,136.1-0.3,204.2-0.4c2.1,0,3.8-0.5,5.5-1.6c5.1-3.3,10.6-5.9,16.2-8.1
	c7.7-3.1,15.7-5.1,23.9-5.9c2.9-0.3,2.9-0.3,2.9-3.1c-0.1-6.8-0.1-13.7-0.2-20.5c-0.5-43.1-1.1-86.3-1.6-129.4c0-1.6-0.1-3.2,0-4.8
	c0.1-1.5-0.6-1.9-2-1.9c-6.2-0.1-12.3-0.2-18.5-0.4c-3.8-0.1-3.8-0.1-3.8,3.6c0.2,49.6,0.5,99.2,0.7,148.7c0,1.3,0.1,2.7-0.1,4
	c-0.3,2.2-2.2,3.8-4.3,3.8c-2,0-3.8-1.5-4.2-3.6c-0.2-0.8-0.1-1.7-0.1-2.5c-0.4-74.3-0.7-148.7-1.1-223c0-4.1,0.7-3.6-3.6-3.6
	c-72.6-0.2-145.2-0.4-217.9-0.6c-3.8,0-3.4-0.7-3.4,3.5c0.4,31.9,0.8,63.9,1.1,95.8c0.3,24.3,0.5,48.5,0.8,72.8
	c0,2.6,0.1,2.6,2.6,2.7c18.2,0.3,36.4,0.5,54.6,0.8c1.6,0,3.7,0.6,4.7-0.2c1.3-1,0.6-3.2,0.4-4.9c-0.5-5.5,3.6-7.5,8.3-4.8
	c11,6.5,22.3,12.6,33.4,18.8c1.5,0.8,2.9,1.8,4,3.1c0.6,0.6,1,1.4,1,2.3c0.1,3.1-0.5,5.6-3.6,7.3c-7.2,3.9-14.3,8.2-21.5,12.3
	c-4.7,2.7-9.3,5.4-14.1,8c-4.4,2.4-7.5,0.7-7.7-4.3C271.7,326.8,271.5,325.1,271.4,323.1z M410.8,373.1c-1.8,0-3,0-4.1,0
	c-78.4,0.2-156.7,0.4-235.1,0.6c-13.4,0-26.7,0-40.1,0.1c-2.3,0-2.4,0-2.4,2.3c0,5.5,0.1,11,0.1,16.5c0.1,5.9,2.7,10.3,7.9,13.1
	c3,1.6,6.2,2.3,9.6,2.3c2.5,0,4.9,0,7.4,0c47.9,0.2,95.7,0.4,143.6,0.6c28.7,0.1,57.4,0.2,86.1,0.3c2.5,0,2.5,0,3.4-2.3
	c2.9-7.2,6.9-13.9,11.5-20.2C402.2,381.9,406.1,377.6,410.8,373.1z M388.9,436.2c-0.1,17.9,2.4,29.4,7.5,40.3
	c15.3,33.3,50.5,52.1,86.8,47.7c20.3-2.5,38-10.9,52.2-25.8c20.9-21.9,28.8-48,22.2-77.7c-8.2-36.6-40.1-62.5-77.7-64.1
	c-16.4-0.7-31.9,2.6-46.1,10.8C405,383.9,390.2,409.1,388.9,436.2z M199.7,213.5c-0.5,0-0.8,0-1.1,0.1
	c-13.7,2.7-23.8,10.5-30.5,22.5c-11.1,19.6-8.1,45.6,7,62.2c7.9,8.7,17.6,14.2,29.5,15.3c4.2,0.4,8.5,0.2,12.8,0.3
	c18.4,0.2,36.8,0.3,55.2,0.5c1,0,2.1,0,3.1,0.2c2.6,0.4,3.8,1.7,4,4.3c0.1,1.1-0.2,2.2,0.3,3.4c9.3-5.3,18.3-10.5,27.7-15.9
	c-9.4-5.3-18.4-10.3-27.4-15.3c-0.6,0.7-0.4,1.3-0.4,1.8c-0.1,4.6-2.3,6.7-6.9,6.7c-3.8,0-7.6-0.1-11.4-0.2
	c-18.7-0.3-37.3-0.7-56-0.8c-3.8,0-7.3-0.9-10.6-2.6c-3.2-1.7-6-3.9-8.4-6.7c-16.7-19-9.8-51.5,12.1-59.5c0.9-0.3,1.2-0.8,1.2-1.6
	C199.8,223.4,199.8,218.4,199.7,213.5z M338.6,456.1c0.2-1-0.3-1.3-0.7-1.8c-3.2-4.2-5.6-8.8-7.5-13.6c-2.6-6.8-4.2-13.8-4.6-21
	c-0.1-2-0.1-2-2.1-2.1c-0.4,0-0.8,0-1.1,0c-17.2-0.1-34.5-0.1-51.7-0.2c-0.5,0-1,0-1.4,0c-1.1-0.1-1.5,0.3-1.5,1.5
	c0,1.7-0.1,3.4-0.4,5.1c-1.9,11-5.8,21.2-12.2,30.3c-0.3,0.5-1,0.9-0.7,1.8C282.6,456.1,310.6,456.1,338.6,456.1z M163.2,179.6
	c11.3,0,22.5,0,33.8,0c2.2,0,2.3,0,2.2-2.1c0-3.1-0.1-6.3-0.1-9.4c0-2-0.1-2.1-2-2.1c-17.9,0-35.8,0-53.7,0.2
	c-5.2,0.1-9.8,2.1-13.4,6c-1.2,1.3-2.2,2.8-2.1,4.8c0.1,2.7,0,2.7,2.6,2.7C141.4,179.6,152.3,179.6,163.2,179.6z M200.1,239.1
	c-7.2,2.8-14.4,13-13.9,26c0.5,11.1,6.7,21.2,14.5,23.5C200.5,272.2,200.3,255.8,200.1,239.1z M453.7,179.6c0,0.1,0,0.2,0,0.3
	c3.3,0,6.6,0,9.9,0c1.8,0,1.8,0,1.8-1.9c0-1.7,0-3.4-0.1-5.1c-0.2-2.8-1.4-5-4-6.4c-1.9-1-3.9-1.4-6-1.4c-4.1,0.1-8.1,0.3-12.2,0.4
	c-1.3,0-1.8,0.4-1.8,1.8c0.1,3.5,0.1,7,0,10.5c0,1.4,0.5,1.8,1.8,1.8C446.7,179.6,450.2,179.6,453.7,179.6z"/>
<path class="st1" d="M271.4,323.1c0.1,2,0.3,3.7,0.4,5.4c0.2,4.9,3.4,6.7,7.7,4.3c4.7-2.6,9.4-5.3,14.1-8
	c7.1-4.1,14.2-8.3,21.5-12.3c3.1-1.7,3.8-4.2,3.6-7.3c0-0.9-0.4-1.6-1-2.3c-1.2-1.3-2.5-2.3-4-3.1c-11.2-6.2-22.4-12.3-33.4-18.8
	c-4.7-2.8-8.8-0.7-8.3,4.8c0.1,1.6,0.8,3.9-0.4,4.9c-1,0.8-3.1,0.2-4.7,0.2c-18.2-0.3-36.4-0.5-54.6-0.8c-2.6,0-2.6-0.1-2.6-2.7
	c-0.3-24.3-0.5-48.5-0.8-72.8c-0.4-31.9-0.8-63.9-1.1-95.8c0-4.2-0.4-3.5,3.4-3.5c72.6,0.2,145.2,0.4,217.9,0.6
	c4.2,0,3.5-0.5,3.6,3.6c0.4,74.3,0.7,148.7,1.1,223c0,0.9,0,1.7,0.1,2.5c0.4,2.1,2.2,3.6,4.2,3.6c2.1,0,4-1.5,4.3-3.8
	c0.2-1.3,0.1-2.6,0.1-4c-0.2-49.6-0.5-99.2-0.7-148.7c0-3.7,0-3.7,3.8-3.6c6.2,0.1,12.3,0.3,18.5,0.4c1.4,0,2.1,0.4,2,1.9
	c-0.1,1.6,0,3.2,0,4.8c0.6,43.1,1.1,86.3,1.6,129.4c0.1,6.8,0.1,13.7,0.2,20.5c0,2.8,0,2.8-2.9,3.1c-8.2,0.9-16.2,2.9-23.9,5.9
	c-5.6,2.2-11.1,4.8-16.2,8.1c-1.8,1.1-3.5,1.6-5.5,1.6c-68.1,0.1-136.1,0.3-204.2,0.4c-27.2,0.1-54.4,0.2-81.6,0.3
	c-0.3,0-0.6,0-0.9,0c-3.7,0-3.2,0.3-3.3-3.1c-0.1-8.6-0.1-17.3-0.1-25.9c-0.3-48-0.7-95.9-1-143.9c0-3.8,0-3.8,3.7-3.8
	c21.5,0,43,0,64.6,0c3.5,0,3.2-0.4,3.2,3.2c0.1,3.8,0,7.6,0.1,11.4c0,1.1-0.2,1.6-1.5,1.9c-21.8,4.2-35.7,17.5-42.5,38.2
	c-8.2,24.6,0.3,52.4,20.4,68.1c6.3,4.9,13.3,8.4,21,10.2c1.7,0.4,2.1,1.1,2,2.7c-0.1,7.3-0.2,14.6-0.2,21.9c0,1,0,2.1,0.1,3.1
	c0.4,2.1,2.1,3.6,4.2,3.6c2,0,3.9-1.4,4.3-3.5c0.2-0.9,0.2-1.9,0.2-2.8c0.1-7,0.1-14,0.2-21c0-2.3-0.2-2.6,2.5-2.6
	c8.2,0.1,16.3,0.1,24.5,0.1c11.3,0.1,22.6,0.2,33.8,0.3C269.5,323.1,270.3,323.1,271.4,323.1z M352.1,136.6c0,0,0-0.1,0-0.1
	c-12.4,0.1-24.8,0.3-37.2,0.4c-4.5,0-8.9,0.3-13.4,0c-4.6-0.3-6.7,1.7-7.2,5.8c-0.7,5.4-0.7,11,0,16.5c0.6,4.4,4.2,6.8,8.1,6.7
	c32.5-0.4,65-0.6,97.5-0.8c1.9,0,3.8-0.2,5.6-0.6c3.1-0.7,5.5-2.4,6.2-5.6c1.1-5.3,1.2-10.8,0.1-16.1c-0.9-4.3-4.3-6.7-8.7-6.6
	C386,136.2,369.1,136.4,352.1,136.6z M318.4,243.7C318.4,243.7,318.4,243.7,318.4,243.7c28.7-0.2,57.4-0.4,86.1-0.6
	c1,0,2.1,0,3.1-0.1c2.4-0.3,4.1-2.2,4-4.4c-0.1-2.2-1.8-4-4.2-4.3c-1-0.1-2.1-0.1-3.1,0c-57.5,0.4-115,0.7-172.5,1.1
	c-0.7,0-1.3,0-2,0c-2.6,0.3-4.3,2.1-4.2,4.5c0,2.3,1.6,4,4.1,4.2c0.9,0.1,1.9,0.1,2.8,0.1C261.2,244,289.8,243.9,318.4,243.7z
	 M251.9,133.9c0-0.1,0-0.2,0-0.3c-5.5,0-11,0-16.5,0c-1.7,0-3.4-0.1-5.1,0c-2.8,0.1-4.3,1.6-4.7,4.4c-0.1,0.7-0.1,1.5-0.1,2.3
	c0.1,13.1,0.2,26.1,0.4,39.2c0,0.9,0,1.7,0.1,2.5c0.5,3.1,2.9,5.3,6,5.3c13.6-0.1,27.3-0.2,40.9-0.4c4.1-0.1,5.6-1.7,5.7-5.8
	c0.1-13.4,0.2-26.7,0.3-40.1c0-5.2-1.7-7.1-6.9-7.2C265.4,133.8,258.6,133.9,251.9,133.9z M290.8,266.1
	C290.8,266.1,290.8,266.1,290.8,266.1c19.7-0.1,39.4-0.3,59.1-0.4c0.9,0,1.9,0,2.8-0.2c2.1-0.5,3.4-2.3,3.3-4.4
	c-0.1-2-1.4-3.6-3.4-4c-1-0.2-2.1-0.2-3.1-0.2c-4.5,0-9.1,0.1-13.6,0.1c-34.7,0.2-69.4,0.5-104.1,0.7c-0.9,0-1.9,0-2.8,0.3
	c-2.1,0.6-3.4,2.3-3.3,4.4c0.1,2,1.4,3.4,3.4,4c1,0.3,2.1,0.2,3.1,0.2C251.8,266.4,271.3,266.2,290.8,266.1z M351.5,199.1
	C351.5,199.1,351.5,199.1,351.5,199.1c17.9-0.1,35.8-0.3,53.7-0.5c0.9,0,1.9,0,2.8-0.2c2-0.4,3.6-2.3,3.6-4.2c0-2.1-1.6-4-3.8-4.3
	c-0.8-0.1-1.7-0.1-2.6-0.1c-35.6,0.3-71.3,0.5-106.9,0.8c-0.9,0-1.9,0-2.8,0.3c-2.2,0.5-3.5,2.2-3.6,4.2c0,2.1,1.5,3.9,3.8,4.3
	c1,0.2,2.1,0.1,3.1,0.1C316.4,199.4,334,199.3,351.5,199.1z M368.7,279.8C368.7,279.8,368.7,279.8,368.7,279.8
	c-11.9,0-23.9,0-35.8,0c-0.9,0-1.9,0-2.8,0.2c-2.1,0.5-3.5,2.3-3.5,4.3c0,2,1.5,3.7,3.6,4.1c1,0.2,2.1,0.2,3.1,0.2
	c23.7,0,47.4,0,71.1,0c0.9,0,1.9,0,2.8-0.2c2.2-0.4,3.6-1.9,3.7-4c0.1-2.2-1.3-4-3.6-4.5c-0.9-0.2-1.9-0.1-2.8-0.1
	C392.6,279.8,380.6,279.8,368.7,279.8z M372.8,221.3C372.8,221.3,372.8,221.3,372.8,221.3c10.6-0.1,21.2-0.2,31.8-0.3
	c1,0,2.1,0,3.1-0.2c2.3-0.4,3.8-2.1,3.8-4.3c0-2.1-1.6-4-3.8-4.3c-0.9-0.1-1.9-0.1-2.8-0.1c-21.6,0.2-43.2,0.5-64.8,0.7
	c-0.9,0-1.9,0-2.8,0.3c-2,0.7-3.2,2.3-3.2,4.2c0,1.9,1.3,3.5,3.2,4.2c1.1,0.4,2.2,0.3,3.4,0.3C351.4,221.6,362.1,221.4,372.8,221.3z
	 M380.6,311.2c0,0.2,0,0.4,0,0.6c8.5,0,17,0,25.6,0c0.8,0,1.5,0,2.3-0.1c2.2-0.4,3.7-2.2,3.6-4.4c-0.1-2.1-1.5-3.7-3.6-4.1
	c-0.8-0.1-1.7-0.2-2.5-0.2c-17.1-0.2-34.3-0.4-51.4-0.5c-0.6,0-1.1,0-1.7,0.1c-2.2,0.3-3.6,1.9-3.8,4c-0.1,2.2,1.2,4.1,3.5,4.5
	c0.8,0.2,1.7,0.2,2.5,0.2C363.6,311.2,372.1,311.2,380.6,311.2z M347.1,325.4c0-0.1,0-0.1,0-0.2c-2.4,0-4.7-0.1-7.1,0
	c-2.5,0.1-4.1,1.8-4.2,4.2c-0.1,2.3,1.5,4.3,3.9,4.4c4.8,0.3,9.6,0.4,14.4,0.4c1.8,0,3.3-0.9,4.1-2.6c1.3-2.9-0.6-5.9-4.1-6.2
	C351.9,325.3,349.5,325.4,347.1,325.4z M380.6,334.4C380.6,334.4,380.6,334.3,380.6,334.4c2.3-0.2,4.6-0.2,6.8-0.4
	c2.5-0.3,4-2,4-4.3c0-2.4-1.7-4.3-4.3-4.3c-4.3-0.1-8.5,0-12.8,0.2c-1.6,0-2.9,0.8-3.8,2.2c-1.8,2.9,0.2,6.4,3.8,6.7
	C376.4,334.5,378.5,334.4,380.6,334.4z M300.4,221.9C300.4,221.9,300.4,222,300.4,221.9c1.5,0.1,3,0.2,4.5,0.1
	c2.6-0.2,4.4-1.9,4.4-4.2c0.1-2.4-1.8-4.3-4.5-4.5c-3-0.1-6-0.2-9.1-0.1c-2.8,0.1-4.6,1.9-4.6,4.4c0,2.4,1.8,4.2,4.6,4.3
	C297.4,222,298.9,221.9,300.4,221.9z M408.2,333.4c0.7,0,0.9,0,1.2,0c2.1-0.2,3.6-1.5,3.9-3.4c0.3-1.9-0.9-3.6-2.9-4.2
	c-1.5-0.5-3-0.5-4.4,0c-1.7,0.6-2.7,1.9-2.7,3.6c0,1.8,1,3.3,2.8,3.8C406.9,333.4,407.7,333.4,408.2,333.4z M330.6,325.6
	c-2.3-0.1-4.5,2-4.6,4.2c-0.1,2.1,1.8,4,4,4c2.3,0,4.5-2.2,4.4-4.3C334.4,327.4,332.7,325.6,330.6,325.6z M398.1,333.8
	c2,0,3.8-1.7,3.9-3.7c0.1-2.1-1.8-4.1-3.9-4c-2,0-3.8,1.8-3.8,3.9C394.3,331.9,396.1,333.7,398.1,333.8z M319.9,217.2
	c-0.1-2-1.8-3.8-3.9-3.8c-2,0-3.8,1.8-3.8,3.8c0,2.2,1.8,4,4,3.9C318.3,221.1,320,219.3,319.9,217.2z M368.5,329.5
	c0.1-2-1.5-3.9-3.5-4.1c-2.1-0.2-4.1,1.6-4.2,3.8c-0.1,2,1.7,3.9,3.7,4C366.5,333.3,368.4,331.6,368.5,329.5z"/>
<path class="st1" d="M410.8,373.1c-4.7,4.5-8.6,8.7-12.1,13.4c-4.6,6.3-8.6,12.9-11.5,20.2c-0.9,2.3-0.9,2.3-3.4,2.3
	c-28.7-0.1-57.4-0.2-86.1-0.3c-47.9-0.2-95.7-0.4-143.6-0.6c-2.5,0-4.9,0-7.4,0c-3.4,0-6.6-0.7-9.6-2.3c-5.2-2.9-7.9-7.2-7.9-13.1
	c0-5.5-0.1-11-0.1-16.5c0-2.3,0-2.3,2.4-2.3c13.4,0,26.7,0,40.1-0.1c78.4-0.2,156.7-0.4,235.1-0.6
	C407.8,373.1,409,373.1,410.8,373.1z M308.2,395.8c2.1,0,3.7-1.8,3.7-3.8c0-2.1-1.7-3.8-3.7-3.8c-2.2,0-4,1.8-3.9,4
	C304.4,394.2,306.1,395.9,308.2,395.8z M301.1,391.9c0.1-2.1-1.5-3.8-3.6-3.9c-2.2-0.1-4,1.7-4,3.9c0,2.1,1.7,3.8,3.8,3.8
	C299.3,395.6,301,394,301.1,391.9z"/>
<path class="st1" d="M199.7,213.5c0.1,5,0.1,9.9,0.2,14.8c0,0.9-0.3,1.3-1.2,1.6c-21.9,8-28.8,40.5-12.1,59.5c2.4,2.7,5.2,5,8.4,6.7
	c3.3,1.7,6.8,2.6,10.6,2.6c18.7,0.1,37.3,0.5,56,0.8c3.8,0.1,7.6,0.2,11.4,0.2c4.6,0,6.8-2.1,6.9-6.7c0-0.5-0.2-1.1,0.4-1.8
	c8.9,5,17.9,10,27.4,15.3c-9.4,5.4-18.4,10.6-27.7,15.9c-0.5-1.3-0.2-2.4-0.3-3.4c-0.3-2.6-1.4-4-4-4.3c-1-0.2-2.1-0.2-3.1-0.2
	c-18.4-0.2-36.8-0.3-55.2-0.5c-4.3,0-8.5,0.1-12.8-0.3c-11.9-1.1-21.6-6.6-29.5-15.3c-15.1-16.7-18.1-42.7-7-62.2
	c6.8-12,16.8-19.8,30.5-22.5C198.9,213.5,199.2,213.5,199.7,213.5z"/>
<path class="st1" d="M338.6,456.1c-28,0-56,0-83.9,0c-0.3-0.9,0.4-1.3,0.7-1.8c6.4-9.2,10.3-19.3,12.2-30.3c0.3-1.7,0.4-3.4,0.4-5.1
	c0-1.1,0.4-1.5,1.5-1.5c0.5,0,0.9,0,1.4,0c17.2,0,34.5,0.1,51.7,0.2c0.4,0,0.8,0,1.1,0c1.9,0.1,2,0.1,2.1,2.1
	c0.4,7.2,1.9,14.2,4.6,21c1.9,4.9,4.3,9.5,7.5,13.6C338.2,454.8,338.8,455.1,338.6,456.1z"/>
<path class="st1" d="M163.2,179.6c-10.9,0-21.8,0-32.7,0c-2.6,0-2.5,0-2.6-2.7c-0.1-2,0.9-3.4,2.1-4.8c3.6-3.9,8.2-5.9,13.4-6
	c17.9-0.2,35.8-0.1,53.7-0.2c1.9,0,2,0,2,2.1c0.1,3.1,0.1,6.3,0.1,9.4c0,2.1,0,2.1-2.2,2.1C185.8,179.6,174.5,179.6,163.2,179.6z"/>
<path class="st1" d="M200.1,239.1c0.2,16.7,0.4,33.1,0.6,49.6c-7.8-2.3-14.1-12.4-14.5-23.5C185.6,252.1,192.8,241.9,200.1,239.1z"
	/>
<path class="st1" d="M453.7,179.6c-3.5,0-7,0-10.5,0c-1.3,0-1.8-0.4-1.8-1.8c0.1-3.5,0.1-7,0-10.5c0-1.4,0.5-1.8,1.8-1.8
	c4.1-0.1,8.1-0.3,12.2-0.4c2.1,0,4.1,0.3,6,1.4c2.6,1.4,3.8,3.6,4,6.4c0.1,1.7,0.1,3.4,0.1,5.1c0,1.9,0,1.9-1.8,1.9
	c-3.3,0-6.6,0-9.9,0C453.7,179.8,453.7,179.7,453.7,179.6z"/>
<path class="st0" d="M352.1,136.6c17-0.2,33.9-0.3,50.9-0.5c4.4,0,7.8,2.3,8.7,6.6c1.1,5.3,1,10.8-0.1,16.1
	c-0.7,3.2-3.1,4.9-6.2,5.6c-1.8,0.4-3.7,0.6-5.6,0.6c-32.5,0.2-65,0.4-97.5,0.8c-3.9,0.1-7.5-2.3-8.1-6.7c-0.7-5.5-0.7-11,0-16.5
	c0.5-4,2.6-6.1,7.2-5.8c4.4,0.3,8.9,0.1,13.4,0c12.4-0.1,24.8-0.3,37.2-0.4C352.1,136.5,352.1,136.5,352.1,136.6z M403.8,145.2
	c-0.3-0.1-0.3-0.2-0.4-0.2c-32.7,0.3-65.4,0.5-98.1,0.8c-0.5,0-0.9,0-1.4,0c-0.9,0-1.3,0.4-1.4,1.3c-0.1,2.2-0.3,4.3-0.4,6.5
	c-0.1,3.8-0.3,3.3,3,3.2c31.9-0.3,63.9-0.6,95.8-0.9c0.4,0,0.8,0,1.1,0c1,0.1,1.4-0.5,1.5-1.3C403.9,151.4,404.1,148.2,403.8,145.2z
	"/>
<path class="st0" d="M318.4,243.7c-28.6,0.2-57.2,0.3-85.8,0.5c-0.9,0-1.9,0-2.8-0.1c-2.5-0.3-4.1-1.9-4.1-4.2
	c0-2.4,1.6-4.2,4.2-4.5c0.7-0.1,1.3,0,2,0c57.5-0.4,115-0.7,172.5-1.1c1,0,2.1-0.1,3.1,0c2.4,0.3,4.1,2.1,4.2,4.3
	c0.1,2.2-1.6,4-4,4.4c-1,0.1-2.1,0.1-3.1,0.1C375.8,243.3,347.1,243.5,318.4,243.7C318.4,243.7,318.4,243.7,318.4,243.7z"/>
<path class="st0" d="M251.9,133.9c6.7,0,13.5-0.1,20.2,0c5.2,0.1,7,1.9,6.9,7.2c-0.1,13.4-0.2,26.7-0.3,40.1c0,4.1-1.5,5.7-5.7,5.8
	c-13.6,0.2-27.3,0.3-40.9,0.4c-3.2,0-5.5-2.1-6-5.3c-0.1-0.8-0.1-1.7-0.1-2.5c-0.1-13.1-0.3-26.1-0.4-39.2c0-0.8,0-1.5,0.1-2.3
	c0.3-2.8,1.9-4.2,4.7-4.4c1.7-0.1,3.4,0,5.1,0c5.5,0,11,0,16.5,0C251.9,133.6,251.9,133.8,251.9,133.9z M234.4,160.4
	c0.1,0,0.3,0,0.4,0c0,5.2,0,10.4,0,15.6c0,2.4,0,2.4,2.3,2.4c10.2-0.1,20.5-0.2,30.7-0.4c2,0,2-0.1,2-2c0.1-6.3,0.1-12.5,0.2-18.8
	c0-4.2,0.1-8.3,0.1-12.5c0-2,0-2-2-2c-3.2,0-6.4-0.1-9.7-0.1c-2.1,0-2.1,0-2.1,2.2c0,1.1,0.1,2.3,0,3.4c-0.2,2.7-1.9,4.5-4.2,4.5
	c-2.2-0.1-3.8-1.7-4-4.4c-0.1-1.4-0.1-2.8,0.1-4.3c0.1-1.3-0.4-1.7-1.6-1.7c-3.3,0-6.6-0.1-10-0.1c-2.2,0-2.2,0-2.3,2.4
	C234.4,150,234.4,155.2,234.4,160.4z"/>
<path class="st0" d="M290.8,266.1c-19.5,0.2-39.1,0.3-58.6,0.5c-1,0-2.1,0.1-3.1-0.2c-2.1-0.6-3.3-2-3.4-4c-0.1-2.1,1.1-3.8,3.3-4.4
	c0.9-0.2,1.9-0.2,2.8-0.3c34.7-0.2,69.4-0.5,104.1-0.7c4.5,0,9.1-0.1,13.6-0.1c1,0,2.1,0,3.1,0.2c2,0.4,3.3,2,3.4,4
	c0.1,2.1-1.2,3.9-3.3,4.4c-0.9,0.2-1.9,0.2-2.8,0.2C330.3,265.8,310.6,266,290.8,266.1C290.8,266.1,290.8,266.1,290.8,266.1z"/>
<path class="st0" d="M351.5,199.1c-17.5,0.2-35.1,0.4-52.6,0.5c-1,0-2.1,0.1-3.1-0.1c-2.3-0.4-3.8-2.2-3.8-4.3c0-2,1.4-3.7,3.6-4.2
	c0.9-0.2,1.9-0.3,2.8-0.3c35.6-0.3,71.3-0.6,106.9-0.8c0.9,0,1.7,0,2.6,0.1c2.2,0.3,3.8,2.2,3.8,4.3c0,2-1.5,3.8-3.6,4.2
	c-0.9,0.2-1.9,0.2-2.8,0.2C387.3,198.8,369.4,199,351.5,199.1C351.5,199.1,351.5,199.1,351.5,199.1z"/>
<path class="st0" d="M368.7,279.8c11.9,0,23.9,0,35.8,0c0.9,0,1.9,0,2.8,0.1c2.2,0.4,3.7,2.3,3.6,4.5c-0.1,2.1-1.5,3.7-3.7,4
	c-0.9,0.2-1.9,0.2-2.8,0.2c-23.7,0-47.4,0-71.1,0c-1,0-2.1,0-3.1-0.2c-2.1-0.4-3.6-2.1-3.6-4.1c0-2,1.4-3.8,3.5-4.3
	c0.9-0.2,1.9-0.2,2.8-0.2C344.8,279.8,356.8,279.8,368.7,279.8C368.7,279.8,368.7,279.8,368.7,279.8z"/>
<path class="st0" d="M372.8,221.3c-10.7,0.2-21.4,0.3-32.1,0.5c-1.1,0-2.3,0.1-3.4-0.3c-2-0.7-3.2-2.3-3.2-4.2
	c0-1.9,1.3-3.5,3.2-4.2c0.9-0.3,1.9-0.3,2.8-0.3c21.6-0.2,43.2-0.5,64.8-0.7c0.9,0,1.9-0.1,2.8,0.1c2.2,0.3,3.8,2.2,3.8,4.3
	c0,2.2-1.5,3.9-3.8,4.3c-1,0.2-2.1,0.1-3.1,0.2C394,221.1,383.4,221.2,372.8,221.3C372.8,221.3,372.8,221.3,372.8,221.3z"/>
<path class="st0" d="M380.6,311.2c-8.5,0-17,0-25.6,0c-0.8,0-1.7,0-2.5-0.2c-2.2-0.5-3.6-2.3-3.5-4.5c0.1-2.1,1.6-3.6,3.8-4
	c0.6-0.1,1.1-0.1,1.7-0.1c17.1,0.2,34.3,0.3,51.4,0.5c0.8,0,1.7,0,2.5,0.2c2.2,0.4,3.6,2,3.6,4.1c0.1,2.2-1.4,4-3.6,4.4
	c-0.7,0.1-1.5,0.1-2.3,0.1c-8.5,0-17,0-25.6,0C380.6,311.6,380.6,311.4,380.6,311.2z"/>
<path class="st0" d="M347.1,325.4c2.4,0,4.7-0.1,7.1,0c3.5,0.3,5.4,3.3,4.1,6.2c-0.8,1.7-2.3,2.6-4.1,2.6c-4.8,0-9.6-0.1-14.4-0.4
	c-2.4-0.1-3.9-2.1-3.9-4.4c0.1-2.3,1.7-4,4.2-4.2c2.4-0.1,4.7,0,7.1,0C347.1,325.3,347.1,325.4,347.1,325.4z"/>
<path class="st0" d="M380.6,334.4c-2.1,0-4.2,0.1-6.2,0c-3.7-0.3-5.7-3.8-3.8-6.7c0.9-1.4,2.2-2.1,3.8-2.2c4.3-0.1,8.5-0.2,12.8-0.2
	c2.6,0,4.3,1.9,4.3,4.3c0,2.3-1.5,4.1-4,4.3C385.1,334.2,382.9,334.2,380.6,334.4C380.6,334.3,380.6,334.4,380.6,334.4z"/>
<path class="st0" d="M300.4,221.9c-1.5,0-3,0.1-4.5,0c-2.8-0.2-4.6-1.9-4.6-4.3c0-2.5,1.8-4.3,4.6-4.4c3-0.1,6-0.1,9.1,0.1
	c2.7,0.1,4.6,2,4.5,4.5c-0.1,2.3-1.8,4.1-4.4,4.2C303.5,222.1,301.9,222,300.4,221.9C300.4,222,300.4,221.9,300.4,221.9z"/>
<path class="st0" d="M408.2,333.4c-0.5-0.1-1.3-0.1-2.1-0.3c-1.8-0.5-2.8-2-2.8-3.8c0-1.7,1-3,2.7-3.6c1.5-0.5,3-0.5,4.4,0
	c2,0.6,3.2,2.4,2.9,4.2c-0.3,1.9-1.8,3.2-3.9,3.4C409.1,333.4,408.8,333.4,408.2,333.4z"/>
<path class="st0" d="M330.6,325.6c2.1,0,3.8,1.8,3.8,3.8c0,2.2-2.2,4.3-4.4,4.3c-2.1,0-4-1.8-4-4
	C326.1,327.6,328.3,325.5,330.6,325.6z"/>
<path class="st0" d="M398.1,333.8c-2,0-3.8-1.8-3.8-3.9c0-2,1.8-3.8,3.8-3.9c2.1,0,4,1.9,3.9,4C401.9,332.1,400.1,333.8,398.1,333.8
	z"/>
<path class="st0" d="M319.9,217.2c0.1,2.1-1.6,3.8-3.7,3.9c-2.1,0.1-4-1.7-4-3.9c0-2,1.8-3.8,3.8-3.8
	C318.1,213.4,319.9,215.2,319.9,217.2z"/>
<path class="st0" d="M368.5,329.5c-0.1,2-2,3.7-4,3.6c-2-0.1-3.8-1.9-3.7-4c0.1-2.2,2.1-4,4.2-3.8
	C367,325.6,368.6,327.5,368.5,329.5z"/>
<path class="st0" d="M308.2,395.8c-2.1,0-3.8-1.6-3.9-3.7c-0.1-2.2,1.7-4,3.9-4c2.1,0,3.7,1.8,3.7,3.8
	C311.9,394.1,310.3,395.8,308.2,395.8z"/>
<path class="st0" d="M301.1,391.9c-0.1,2.1-1.8,3.8-3.8,3.7c-2.1,0-3.8-1.7-3.8-3.8c0-2.2,1.8-4,4-3.9
	C299.5,388,301.1,389.8,301.1,391.9z"/>
<path class="st2" d="M475.1,511.2c-35.1-0.1-64.3-25-69.4-58.7c-4.5-29,9.9-58.4,35.9-72.5c22.4-12.2,45.4-12.7,68-0.7
	c19.9,10.6,31.7,27.5,35.4,49.8c6.1,36.5-18.3,73.5-57.9,80.9C482.8,510.9,478.6,511.1,475.1,511.2z M472.7,379.8
	c-16.4,0.4-33,8.2-45.6,24c-20.6,25.7-17.3,63.2,7.8,84.1c19.9,16.6,42.4,19.1,66,8.6c25.5-11.3,40.3-39.6,35.4-66.8
	C531,400.6,506.1,379.8,472.7,379.8z"/>
<path class="st1" d="M403.8,145.2c0.2,3.1,0.1,6.3-0.2,9.5c-0.1,0.9-0.5,1.4-1.5,1.3c-0.4,0-0.8,0-1.1,0
	c-31.9,0.3-63.9,0.6-95.8,0.9c-3.3,0-3.2,0.6-3-3.2c0.1-2.2,0.3-4.3,0.4-6.5c0-0.9,0.4-1.4,1.4-1.3c0.5,0,0.9,0,1.4,0
	c32.7-0.3,65.4-0.5,98.1-0.8C403.5,144.9,403.6,145,403.8,145.2z"/>
<path class="st1" d="M234.4,160.4c0-5.2,0-10.4,0-15.6c0-2.4,0-2.4,2.3-2.4c3.3,0,6.6,0.1,10,0.1c1.2,0,1.7,0.4,1.6,1.7
	c-0.1,1.4-0.2,2.8-0.1,4.3c0.2,2.6,1.8,4.3,4,4.4c2.3,0.1,4-1.7,4.2-4.5c0.1-1.1,0-2.3,0-3.4c0-2.2,0-2.2,2.1-2.2
	c3.2,0,6.4,0,9.7,0.1c2,0,2,0.1,2,2c0,4.2,0,8.3-0.1,12.5c-0.1,6.3-0.1,12.5-0.2,18.8c0,2-0.1,2-2,2c-10.2,0.1-20.5,0.3-30.7,0.4
	c-2.2,0-2.3,0-2.3-2.4c0-5.2,0-10.4,0-15.6C234.7,160.4,234.5,160.4,234.4,160.4z"/>
<path class="st2" d="M475.8,455.7c-9.3,0-16.9-7.5-16.8-16.8c0-9.1,7.4-16.4,16.5-16.4c9.3,0,17,7.6,16.9,16.8
	C492.3,448.4,484.9,455.7,475.8,455.7z M483.5,439.4c0.1-4.4-3.5-7.9-7.9-8c-4.3-0.1-7.9,3.4-7.9,7.6c0,4.2,3.8,7.9,8.1,7.9
	C480,446.9,483.4,443.6,483.5,439.4z"/>
<path class="st2" d="M438.2,456.3c-9.3,0-16.9-7.5-16.8-16.8c0-9.1,7.4-16.4,16.5-16.4c9.3,0,17,7.6,16.9,16.8
	C454.8,449,447.4,456.3,438.2,456.3z M438,432c-4.2-0.1-7.7,3.2-7.9,7.3c-0.2,4.3,3.7,8.2,8.1,8.2c4.2,0,7.6-3.4,7.7-7.5
	C446,435.6,442.5,432.1,438,432z"/>
<path class="st2" d="M512.4,455.7c-9.3,0-16.9-7.6-16.8-16.8c0-9,7.5-16.3,16.6-16.3c9.4,0,17,7.6,16.9,16.9
	C528.9,448.6,521.5,455.7,512.4,455.7z M504.5,439.1c0,4.3,3.7,7.9,8.1,7.8c4.2,0,7.6-3.4,7.7-7.5c0-4.3-3.5-7.9-7.9-8
	C507.9,431.4,504.4,434.8,504.5,439.1z"/>
<path class="st3" d="M107.7,230.9l11.2,11.2c2.7,2.7,7,2.7,9.6,0l11.2-11.2c2.7-2.7,2.7-7,0-9.6L128.6,210c-2.7-2.7-7-2.7-9.6,0
	l-11.2,11.2C105.1,223.9,105.1,228.2,107.7,230.9z"/>
<path class="st3" d="M107.7,263.6l11.2,11.2c2.7,2.7,7,2.7,9.6,0l11.2-11.2c2.7-2.7,2.7-7,0-9.6l-11.2-11.2c-2.7-2.7-7-2.7-9.6,0
	l-11.2,11.2C105.1,256.6,105.1,260.9,107.7,263.6z"/>
<path class="st2" d="M398.9,506.5l8.8,8.8c1.3,1.3,3.4,1.3,4.7,0l8.8-8.8c1.3-1.3,1.3-3.4,0-4.7l-8.8-8.8c-1.3-1.3-3.4-1.3-4.7,0
	l-8.8,8.8C397.7,503.1,397.7,505.2,398.9,506.5z"/>
<circle class="st4" cx="474.4" cy="441.2" r="89"/>
</svg>
