<?xml version="1.0" encoding="utf-8"?>
<!-- Generator: Adobe Illustrator 28.0.0, SVG Export Plug-In . SVG Version: 6.00 Build 0)  -->
<svg version="1.1" id="Capa_1" xmlns="http://www.w3.org/2000/svg" xmlns:xlink="http://www.w3.org/1999/xlink" x="0px" y="0px"
	 viewBox="0 0 600 600" style="enable-background:new 0 0 600 600;" xml:space="preserve">
<style type="text/css">
	.st0{fill:#0A0A0A;}
	.st1{fill:#FFFFFF;}
	.st2{fill:#FCFCFC;}
	.st3{fill:#29E4A5;}
	.st4{fill:#6EE1EB;}
	.st5{fill:none;stroke:#29E4A5;stroke-width:11;stroke-miterlimit:10;}
</style>
<path class="st0" d="M471.6,531.9c-26-0.6-48.3-9.3-66.4-27.7c-17-17.3-25.5-38.4-25.8-62.7c-0.1-3.9,0.1-7.9,0.7-11.8
	c0.3-1.9,0.2-1.9-1.7-1.9c-0.7,0-1.3,0-2,0c-72.9-0.2-145.8-0.3-218.7-0.5c-5.3,0-10.5-0.9-15.6-2.3c-4.1-1.1-7.5-3.4-10.4-6.5
	c-3.2-3.4-4.6-7.5-4.6-12.1c0.1-29.6,0.3-59.2,0.5-88.8c0.2-39.3,0.4-78.5,0.6-117.8c0-2,0.4-3.7,1.8-5.2c1.3-1.4,2.8-2.2,4.7-2.1
	c3,0.1,6,0,9,0.1c16.9,0.3,33.8,0.5,50.7,0.8c0.6,0,1.1,0,1.7,0c2.8,0.1,4.7,1.3,6.1,3.8c4.4,8.3,9,16.5,13.4,24.7
	c8.3,15.2,16.6,30.5,24.9,45.8c1.9,3.5,4.7,5,8.6,5.4c5,0.5,9.2-1.7,13.2-4c25.8-14.6,51.6-29.2,77.4-43.9
	c18.1-10.3,36.2-20.6,54.3-30.9c1.2-0.7,2.4-1,3.7-1c23-0.1,46-0.3,69.1-0.4c3.5,0,5.1,1.9,5.9,5.5c0.2,1,0.1,2.1,0.1,3.1
	c0.4,41.2,0.8,82.5,1.2,123.7c0.1,6.8,0.2,13.5,0.2,20.3c0,1.4,0.3,1.9,1.9,1.9c5.5,0.2,11.1,0.2,16.5,1.6c37.1,9.2,62.1,31.4,71,69
	c7.2,30.4-0.6,57.8-21,81.3c-15.6,17.9-35.5,28.2-59.1,31.4c-1.3,0.2-2.6,0.4-3.9,0.5C476.9,531.6,474.1,531.8,471.6,531.9z
	 M266.3,418.6c0,0.2,0,0.3,0,0.5c37.6,0,75.2,0,112.7,0c3.7,0,2.9,0.3,3.9-3c0.1-0.4,0.2-0.7,0.3-1.1c6.3-20.8,18.4-37.4,36.1-50
	c13.3-9.4,28.1-15,44.2-16.8c2.4-0.3,2.1-0.7,2.1-2.4c0-0.6,0-1.1,0-1.7c-0.4-46.5-0.8-93-1.2-139.5c0-0.5,0-0.9,0-1.4
	c0.1-1.1-0.4-1.5-1.5-1.5c-0.6,0-1.1,0-1.7,0c-19.9,0.1-39.8,0.2-59.8,0.3c-2,0-3.8,0.4-5.6,1.5c-43.4,24.7-86.8,49.3-130.2,73.9
	c-5.4,3-11.1,4.4-17.3,4.2c-6.9-0.2-12-3.4-15.2-9.4c-12.3-22.5-24.5-45-36.7-67.5c-1.1-2-2.3-2.7-4.6-2.7
	c-17.1-0.1-34.2-0.4-51.3-0.6c-4.2,0-3.6-0.6-3.6,3.5c-0.3,65.3-0.6,130.6-0.9,195.9c0,1.4-0.2,2.8-0.2,4.2c0,3.3,0.6,6.3,3.4,8.6
	c1.7,1.4,3.5,2.6,5.5,3.3c3.9,1.4,7.8,1.7,11.9,1.7C193.2,418.6,229.7,418.6,266.3,418.6z M478.5,356.3
	c-19.7,0.2-33.3,3.4-46.9,11.3c-23.2,13.4-37.6,33.3-42.3,59.7c-3.2,17.8-0.5,34.8,7.7,50.9c15.8,30.9,49.9,49.4,86.8,44
	c24.2-3.6,43.9-15.3,58-35.3c17.6-25.2,21.3-52.7,8.8-80.9C536.1,373.3,509.4,358,478.5,356.3z"/>
<path class="st0" d="M301.1,181.9c-50.1,0-100.2,0-150.2,0c-1.6,0-3.2,0.1-4.8-0.3c-3-0.7-4.4-2.3-4.5-5.3
	c-0.2-8.6-0.6-17.3-0.3-25.9c0.3-8,6.4-13.7,14.1-14.3c1-0.1,2.1,0,3.1,0c38.3,0.2,76.7,0.4,115,0.7c3.5,0,6.9-0.3,10.4,0.5
	c4,1,7.3,2.8,9.2,6.7c0.9,1.8,0.9,3.6,1,5.5c0.1,1.9-0.8,4.4,0.5,5.7c1.2,1.1,3.6,0.4,5.4,0.4c40.9,0.6,81.7,1.1,122.6,1.7
	c8.1,0.1,16.2,0.5,24.2,0.3c6.4-0.1,11.9,5.4,12.4,12.3c0.2,2.8-0.1,5.6-0.5,8.4c-0.3,2.2-1.8,3.5-4,3.7c-0.7,0.1-1.5,0-2.3,0
	C402,181.9,351.6,181.9,301.1,181.9C301.1,181.9,301.1,181.9,301.1,181.9z M300.1,173.2c49,0,97.9,0,146.9,0c0.8,0,1.7,0,2.5,0
	c0.5,0,1-0.1,1.1-0.7c0.3-1.7,0.4-3.3-0.4-5c-0.8-1.6-2.3-1.4-3.7-1.4c-11.9-0.2-23.9-0.3-35.8-0.5c-38.4-0.5-76.8-1-115.3-1.5
	c-2.1,0-4.1-0.2-6.2-0.4c-1.9-0.2-3.3-1.4-3.7-3.3c-0.2-0.9-0.2-1.9-0.2-2.8c-0.1-2.7-0.1-5.5-0.3-8.2c-0.3-3-0.7-3.4-3.7-3.9
	c-0.6-0.1-1.3-0.2-2-0.2c-2.7,0-5.4-0.1-8.2-0.1c-37.9-0.2-75.7-0.5-113.6-0.7c-0.8,0-1.5-0.1-2.3,0c-3.5,0.3-5.7,2-5.5,6
	c0.3,6.3,0.2,12.6,0.3,18.9c0.1,4.1-0.6,3.6,3.6,3.6C202.6,173.2,251.4,173.2,300.1,173.2z"/>
<path class="st0" d="M255.8,233.4c-7.3,0-14.5-6.4-15.2-13.2c-0.4-4,1.3-7.3,3.8-10.3c1.4-1.6,3.1-3,5-4.1
	c7.8-4.4,15.5-8.8,23.3-13.2c1.4-0.8,2.9-1.3,4.5-1.4c12.3-0.3,24.6-0.7,36.9-1c3.4-0.1,4.8,0.9,6,4c0.9,2.2,0.4,4-1.5,5.5
	c-0.6,0.4-1.3,0.8-1.9,1.2c-17.3,10-34.7,19.9-52,29.9C261.7,232.5,258.6,233.1,255.8,233.4z M301.2,199.3c-7.7,0.2-15,0.4-22.4,0.6
	c-1.2,0-2.2,0.5-3.1,1.1c-7.1,4-14.2,8-21.3,12c-1.5,0.8-2.8,1.8-4.2,2.9c-1.3,1-1.8,2.4-1.2,4c1.1,2.7,5.1,5.8,8.1,4.4
	c1.4-0.7,3-1,4.4-1.8c12.4-7.2,24.9-14.3,37.3-21.5C299.6,200.6,300.4,200.4,301.2,199.3z"/>
<path class="st1" d="M266.3,418.6c-36.5,0-73.1,0-109.6,0.1c-4.1,0-8-0.3-11.9-1.7c-2.1-0.7-3.8-1.9-5.5-3.3
	c-2.7-2.2-3.4-5.3-3.4-8.6c0-1.4,0.2-2.8,0.2-4.2c0.3-65.3,0.6-130.6,0.9-195.9c0-4.1-0.6-3.6,3.6-3.5c17.1,0.2,34.2,0.5,51.3,0.6
	c2.2,0,3.5,0.7,4.6,2.7c12.2,22.5,24.4,45,36.7,67.5c3.3,6,8.3,9.2,15.2,9.4c6.1,0.2,11.9-1.2,17.3-4.2
	c43.4-24.6,86.8-49.2,130.2-73.9c1.8-1,3.5-1.5,5.6-1.5c19.9-0.1,39.8-0.2,59.8-0.3c0.6,0,1.1,0,1.7,0c1.1-0.1,1.6,0.3,1.5,1.5
	c0,0.5,0,0.9,0,1.4c0.4,46.5,0.8,93,1.2,139.5c0,0.6,0,1.1,0,1.7c0,1.7,0.3,2.1-2.1,2.4c-16.2,1.9-31,7.4-44.2,16.8
	c-17.7,12.5-29.7,29.2-36.1,50c-0.1,0.4-0.2,0.7-0.3,1.1c-1,3.3-0.2,3-3.9,3c-37.6,0-75.2,0-112.7,0
	C266.3,419,266.3,418.8,266.3,418.6z"/>
<path class="st2" d="M300.1,173.2c-48.8,0-97.5,0-146.3,0c-4.1,0-3.5,0.5-3.6-3.6c-0.1-6.3,0-12.6-0.3-18.9c-0.2-3.9,2-5.7,5.5-6
	c0.7-0.1,1.5,0,2.3,0c37.9,0.2,75.7,0.5,113.6,0.7c2.7,0,5.4,0,8.2,0.1c0.7,0,1.3,0.1,2,0.2c3,0.5,3.4,0.8,3.7,3.9
	c0.2,2.7,0.2,5.4,0.3,8.2c0,0.9,0,1.9,0.2,2.8c0.4,1.9,1.8,3.1,3.7,3.3c2.1,0.2,4.1,0.4,6.2,0.4c38.4,0.5,76.8,1,115.3,1.5
	c11.9,0.2,23.9,0.3,35.8,0.5c1.4,0,2.8-0.2,3.7,1.4c0.8,1.6,0.7,3.3,0.4,5c-0.1,0.6-0.6,0.7-1.1,0.7c-0.8,0-1.7,0-2.5,0
	C398,173.2,349.1,173.2,300.1,173.2z"/>
<path class="st2" d="M301.2,199.3c-0.8,1-1.6,1.3-2.3,1.7c-12.4,7.2-24.9,14.3-37.3,21.5c-1.4,0.8-3,1.2-4.4,1.8
	c-3.1,1.4-7-1.7-8.1-4.4c-0.6-1.6-0.1-3,1.2-4c1.3-1,2.7-2,4.2-2.9c7.1-4,14.2-8,21.3-12c1-0.6,1.9-1.1,3.1-1.1
	C286.2,199.7,293.5,199.5,301.2,199.3z"/>
<path class="st3" d="M473.5,509.5c-34.9-0.1-63.7-24.7-68.8-58.1c-4.6-30.3,11.4-60.6,39.4-73.8c21.3-10,42.9-9.9,63.7,1.3
	c19.6,10.5,31.4,27.3,35.1,49.4c5.9,35.5-17.3,71.7-55.8,79.8C482.3,509.1,477.5,509.6,473.5,509.5z M534.9,439
	c0-2.6-0.1-5.5-0.6-8.4c-3.4-21.1-14.7-36.6-34-45.6c-19.2-8.9-38.4-7.8-56.7,2.7c-27.2,15.5-38.1,48.4-26.1,77.1
	c10.6,25.2,37.9,39.9,65.6,35.2C512.9,495,534.8,469.3,534.9,439z"/>
<path class="st3" d="M526.6,422.2c-0.2,3.1-0.9,5.5-2.6,7.5c-0.9,1.1-1.9,2.1-2.9,3.1c-13.6,13.5-27.3,27-40.8,40.5
	c-3.6,3.6-7.5,6.9-11.2,10.3c-1.7,1.5-3.6,2.6-5.7,3.5c-2.8,1.2-5.5,1-8.1-0.6c-2.8-1.7-5.1-3.8-7.3-6.1
	c-7.3-7.5-14.6-15.1-21.9-22.7c-2.1-2.2-3.8-4.6-5.4-7.2c-2.3-3.6-1.8-7,0.5-9.9c3.8-4.8,8-9.2,12.9-12.9c1-0.7,2.1-1.2,3.2-1.7
	c3.5-1.8,6.7-1.2,9.7,1.2c2.7,2.1,5.1,4.7,7.6,7.1c1.8,1.7,3.5,3.4,5.2,5.1c0.7,0.7,1.3,1,2.1,0.1c0.7-0.9,1.6-1.6,2.4-2.4
	c11-11.1,22-22.1,33.3-32.9c2.7-2.6,5.6-4.8,9.7-4.1c2.1,0.3,4,1,5.5,2.6c3.2,3.3,6.4,6.6,9.5,10C525,415.4,526.7,418.7,526.6,422.2
	z M455.1,446.7c-4.3-4.1-8.1-8-12.1-11.7c-1.5-1.4-3-1.5-4.9-0.3c-3.8,2.6-6.9,5.8-9.8,9.3c-1,1.3-1,2.6,0,3.9c1.5,2,3,4.1,4.7,5.9
	c7.1,7.3,14.3,14.4,21.4,21.6c3.1,3.1,5.7,3.4,9.9,1.1c1.2-0.7,2.3-1.6,3.4-2.5c2.5-2.1,4.6-4.7,6.9-7.1
	c14-14.2,28.2-28.1,42.4-42.1c1.7-1.7,2.1-3.4,0.7-5.2c-3.1-3.9-6.7-7.3-10.3-10.8c-1-0.9-2-0.8-3,0c-1.4,1-2.6,2.2-3.7,3.4
	c-5.6,5.9-11.3,11.8-17.1,17.6c-4.1,4.1-8.2,8.3-12.3,12.4c-4.4,4.4-8.7,8.9-13,13.3c-2.1,2.1-4.7,2.3-6.5,0.6
	c-1.9-1.8-1.8-4.4,0.4-6.7C452.9,448.5,453.9,447.7,455.1,446.7z"/>
<path class="st4" d="M113.5,240.6l11.7,11.7c2.8,2.8,7.3,2.8,10,0l11.7-11.7c2.8-2.8,2.8-7.3,0-10.1l-11.7-11.7
	c-2.8-2.8-7.3-2.8-10.1,0l-11.7,11.7C110.7,233.4,110.7,237.9,113.5,240.6z"/>
<path class="st4" d="M113.5,274.8l11.7,11.7c2.8,2.8,7.3,2.8,10,0l11.7-11.7c2.8-2.8,2.8-7.3,0-10L135.3,253
	c-2.8-2.8-7.3-2.8-10.1,0l-11.7,11.7C110.7,267.5,110.7,272,113.5,274.8z"/>
<path class="st3" d="M413.2,517.4l9.2,9.2c1.3,1.3,3.5,1.3,4.9,0l9.2-9.2c1.3-1.3,1.3-3.5,0-4.9l-9.2-9.2c-1.3-1.3-3.5-1.3-4.9,0
	l-9.2,9.2C411.9,513.9,411.9,516.1,413.2,517.4z"/>
<path class="st3" d="M468.7,467l9.2,9.2c1.3,1.3,3.5,1.3,4.9,0l9.2-9.2c1.3-1.3,1.3-3.5,0-4.9l-9.2-9.2c-1.3-1.3-3.5-1.3-4.9,0
	l-9.2,9.2C467.4,463.5,467.4,465.7,468.7,467z"/>
<circle class="st5" cx="472.9" cy="439.9" r="88.5"/>
</svg>
