<?xml version="1.0" encoding="utf-8"?>
<!-- Generator: Adobe Illustrator 28.0.0, SVG Export Plug-In . SVG Version: 6.00 Build 0)  -->
<svg version="1.1" id="Capa_1" xmlns="http://www.w3.org/2000/svg" xmlns:xlink="http://www.w3.org/1999/xlink" x="0px" y="0px"
	 viewBox="0 0 600 600" style="enable-background:new 0 0 600 600;" xml:space="preserve">
<style type="text/css">
	.st0{fill:#0A0A0A;}
	.st1{fill:#FDFDFD;}
	.st2{fill:#FF5500;}
	.st3{fill:#6EE1EB;}
	.st4{fill:none;stroke:#FF5500;stroke-width:12;stroke-miterlimit:10;}
</style>
<path class="st0" d="M200.2,159.1c0.4-1,0.2-2,0.2-3.1c-0.2-13.7-0.3-27.5-0.5-41.2c-0.1-4.1,1.5-5.7,5.8-5.7
	c73.6,0.2,147.2,0.5,220.8,0.7c2.6,0,5.2,0,7.9,0.1c3.2,0.1,4.7,1.6,5,4.8c0.1,0.7,0,1.5,0,2.2c0.1,13.1,0.1,26.2,0.2,39.3
	c0,3.1-0.4,2.8,2.9,2.7c3.7,0,7.5-0.3,11.2-0.1c3.8,0.2,7.4,1.3,10.6,3.2c5,3,7.7,7.4,7.8,13.4c0.4,36.3,0.9,72.5,1.3,108.8
	c0.3,19.9,0.5,39.8,0.8,59.7c0,0.4,0,0.7,0,1.1c0.1,2.3-0.3,2.2,2.2,2.4c5.1,0.3,10.3,0.3,15.3,1.5c36.8,9.1,61.6,31,70.7,68.3
	c7.4,30.5-0.5,58-21.1,81.6c-15.5,17.7-35.3,28.1-58.7,30.9c-30.2,3.7-56.4-5.1-77.9-26.7c-16.1-16.1-24.4-36-25.5-58.8
	c-0.4-8.5,0.4-16.8,2.4-25c0.2-0.8,0.3-1.6,0.5-2.7c-16.1,0-32,0-48,0c0.3,7.3,1.8,14.3,4.6,21c1.6,4,3.5,7.9,6.1,11.3
	c0.6,0.7,1.1,1.5,1.8,2.2c1.9,2.1,4,3.6,7,3.1c1.5-0.2,3-0.1,4.5,0c2.8,0.2,4.6,1.9,4.6,4.3c0,2.4-1.7,4.2-4.5,4.5
	c-0.6,0.1-1.3,0-2,0c-39,0-78,0.1-117,0.1c-0.8,0-1.7,0-2.5-0.1c-2.2-0.4-3.8-2.2-3.8-4.3c0-2.1,1.6-3.9,3.8-4.2
	c1.1-0.2,2.3-0.2,3.4-0.1c2.2,0.2,3.7-0.7,5.1-2.3c4.6-5.3,8-11.2,10.6-17.7c1.8-4.6,3.6-9.2,4.3-14.2c0.2-1.3,0.4-2.6,0.2-3.9
	c-0.9-0.5-1.9-0.3-2.8-0.3c-33.8-0.2-67.7-0.3-101.5-0.4c-4.7,0-9.3,0.3-13.9-0.9c-9-2.2-15.4-7.4-18.3-16.4
	c-0.7-2.3-0.9-4.6-0.9-6.9c-0.4-57.7-0.7-115.4-1.1-173.1c-0.1-12.9-0.1-25.8-0.3-38.7c-0.1-3.9,1-7.3,3.4-10.4
	c4.9-6.2,11.1-9.8,19.2-9.8c17.6,0,35.2-0.1,52.7-0.1C198,159.4,199.1,159.6,200.2,159.1z M275.9,364.3c0-0.2,0-0.4,0-0.6
	c47.3,0,94.6,0,141.9,0c1.6,0,3-0.3,4.5-1.2c12.3-7.8,25.7-12.7,40.3-14.4c2.9-0.3,2.9-0.3,2.8-3.3c0-0.3,0-0.6,0-0.8
	c-0.4-33.7-0.8-67.3-1.2-101c-0.2-16.5-0.4-33.1-0.6-49.6c0-2.6,0.4-2.7-2.8-2.8c-5.9-0.1-11.8-0.2-17.7-0.3c-3.5-0.1-3.5,0-3.5,3.3
	c0.2,49,0.5,98,0.7,147c0,1.3,0,2.6-0.2,3.9c-0.3,2.1-2,3.5-4,3.6c-2.2,0.1-4-1.4-4.4-3.6c-0.2-0.8-0.1-1.7-0.1-2.5
	c-0.2-36.2-0.4-72.4-0.5-108.5c-0.2-37.4-0.4-74.8-0.5-112.2c0-3,0.3-2.7-2.7-2.7c-71.9-0.2-143.8-0.4-215.7-0.6
	c-3.4,0-3.4,0-3.4,3.4c0.4,30.9,0.8,61.9,1.1,92.8c0.3,24.3,0.5,48.6,0.8,72.9c0,0.7,0,1.3,0,2c0,0.8,0.3,1.2,1.2,1.2
	c0.7,0,1.3,0,2,0c15.6,0.3,31.2,0.6,46.8,0.9c3.4,0.1,6.7,0.1,10.1,0.1c1,0,1.6-0.3,1.5-1.4c-0.1-1.4,0.1-2.8,0-4.2
	c-0.5-4.3,3.3-7.3,7.6-4.5c0.5,0.3,1,0.5,1.5,0.8c8.2,4.6,16.5,9.2,24.7,13.8c2.9,1.6,5.7,3.1,8.5,4.8c2.6,1.6,4.4,3.6,3.8,7.1
	c-0.4,2.2-1.4,3.6-3.2,4.6c-5.7,3.2-11.3,6.5-17,9.8c-6.2,3.6-12.4,7.2-18.7,10.7c-3.8,2.1-7,0.2-7.2-4c-0.1-1.2-0.1-2.4-0.2-3.6
	c-0.2-2-0.2-2-2.3-2.1c-2,0-3.9-0.1-5.9-0.1c-17.5-0.1-35-0.2-52.4-0.3c-2.1,0-2.1,0.1-2.2,2.1c-0.1,7-0.1,14-0.2,21
	c0,0.9,0,1.9-0.2,2.8c-0.4,2.1-2.2,3.4-4.2,3.4c-2.1,0-3.7-1.4-4.1-3.5c-0.2-1-0.2-2-0.2-3.1c0-7,0.1-14,0.2-21
	c0-3.3,0.4-2.5-2.5-3.3c-7.3-1.9-13.8-5-19.8-9.6c-19.5-15-28.2-41.8-21.1-65.9c4.8-16.4,14.6-28.6,30.3-35.8
	c3.8-1.7,7.7-2.9,11.8-3.5c1.3-0.2,1.9-0.6,1.8-2.1c-0.2-4.1-0.2-8.2-0.1-12.3c0-1.4-0.5-1.9-1.8-1.7c-0.5,0-0.9,0-1.4,0
	c-21.3,0-42.6,0-64,0c-4,0-3.4-0.5-3.4,3.4c0.4,56.1,0.7,112.2,1.1,168.3c0,0.4,0,0.8,0,1.1c-0.1,1,0.4,1.3,1.3,1.3
	c0.5,0,0.9,0,1.4,0C181.4,364.3,228.6,364.3,275.9,364.3z M408.7,373c-0.1-0.2-0.2-0.4-0.2-0.5c-0.9,0-1.9,0-2.8,0
	c-77,0.2-154,0.3-231.1,0.5c-13.6,0-27.1,0.1-40.7,0.2c-2.4,0-2.4,0-2.4,2.5c0,5.3,0.1,10.7,0.1,16c0,5.9,2.7,10.2,7.8,13
	c3,1.7,6.3,2.3,9.7,2.3c71,0.3,142.1,0.6,213.1,0.9c6.9,0,13.8,0.1,20.7,0.2c1.5,0,2.3-0.3,2.9-1.8c4.7-11.8,11.7-22.1,20.7-31
	C407.3,374.4,408,373.7,408.7,373z M478.5,356.1c-20.6,0.1-35.1,3.9-48.4,11.7c-18.1,10.7-31.1,25.8-37.8,45.9
	c-8.5,25.1-6,49.3,8.9,71.3c19.5,28.7,47.5,40.4,81.7,36.1c24.1-3.1,43.7-15.1,57.7-35c17.5-25.1,21.2-52.4,8.8-80.5
	C535,372.9,508.4,357.7,478.5,356.1z M280.2,291.4c0,1.3,0,2,0,2.8c0.1,2.5-1.2,4-3.2,5.2c-1.2,0.7-2.5,0.6-3.8,0.6
	c-9.6-0.1-19.2-0.3-28.9-0.5c-12.4-0.2-24.9-0.4-37.3-0.4c-3.1,0-5.9-0.6-8.7-1.8c-5.7-2.5-10.2-6.6-13.5-11.8
	c-4.1-6.6-6.2-13.8-5.8-21.6c0.7-14.8,6.6-26.5,20.9-32.7c0.7-0.3,1.3-0.6,1.3-1.6c-0.1-4.8-0.1-9.7-0.2-14.5
	c-0.5,0-0.8-0.1-1.1-0.1c-0.5,0.1-0.9,0.1-1.4,0.2c-11,2.5-19.6,8.5-26.1,17.6c-7.8,11.1-10.5,23.6-8.7,37
	c1.8,13.6,7.8,25.1,18.4,33.9c7.4,6.1,15.9,9.9,25.6,10c21.6,0.3,43.2,0.4,64.8,0.6c1.2,0,2.4,0.1,3.6,0.3c2.6,0.6,3.6,1.8,3.8,4.4
	c0.1,1-0.2,2,0.3,3.2c9.1-5.2,18-10.3,27.3-15.7C298.3,301.5,289.5,296.6,280.2,291.4z M338.6,454.2c-0.5-0.8-0.7-1.1-0.9-1.3
	c-4.4-5.7-7.4-12.1-9.4-18.9c-1.5-5-2.5-10.2-2.7-15.4c-0.1-2.1-0.1-2.1-2.2-2.1c-0.2,0-0.4,0-0.6,0c-17-0.1-34-0.2-51-0.3
	c-0.6,0-1.1,0-1.7,0c-1.2-0.1-1.6,0.5-1.6,1.6c0,1.6-0.1,3.2-0.4,4.7c-1.8,10.8-5.6,20.9-11.9,29.9c-0.3,0.5-1,0.9-0.7,1.8
	C283,454.2,310.5,454.2,338.6,454.2z M165.5,181.4c1.5,0,3,0,4.5,0c9.4,0,18.9,0,28.3,0c2.7,0,2.4,0.1,2.3-2.4c0-3-0.1-6-0.1-9
	c0-1.9-0.1-2-2.1-2c-4.9,0-9.7,0-14.6,0c-12.5,0.1-25,0.1-37.6,0.2c-5.3,0-9.9,1.8-13.6,5.6c-1.4,1.4-2.5,3-2.4,5.2
	c0.1,2.5-0.4,2.4,2.4,2.4C143.6,181.4,154.6,181.4,165.5,181.4z M201.4,240.4c-7.9,2.6-14.1,14.2-13.8,25.1
	c0.4,11,6.7,21.5,14.3,23.5C201.8,272.9,201.6,256.7,201.4,240.4z M451.3,181.5c0,0.1,0,0.3,0,0.4c3.4,0,6.7-0.1,10.1,0
	c1.4,0,2.1-0.3,1.9-1.8c-0.1-1.5-0.1-3-0.1-4.5c0-3.5-1.6-6-4.9-7.4c-1.5-0.6-3-1-4.6-0.9c-4.2,0.2-8.4,0.4-12.6,0.4
	c-1.5,0-1.7,0.6-1.6,1.9c0.1,3.4,0.1,6.7,0,10.1c0,1.3,0.4,1.8,1.7,1.8C444.6,181.4,447.9,181.5,451.3,181.5z"/>
<path class="st1" d="M275.9,364.3c-47.2,0-94.4,0-141.6,0c-0.5,0-0.9,0-1.4,0c-0.9,0.1-1.4-0.3-1.3-1.3c0-0.4,0-0.7,0-1.1
	c-0.4-56.1-0.7-112.2-1.1-168.3c0-3.9-0.6-3.4,3.4-3.4c21.3,0,42.6,0,64,0c0.5,0,0.9,0,1.4,0c1.3-0.1,1.8,0.4,1.8,1.7
	c0,4.1,0,8.2,0.1,12.3c0.1,1.5-0.5,1.9-1.8,2.1c-4.1,0.6-8,1.8-11.8,3.5c-15.7,7.2-25.5,19.4-30.3,35.8
	c-7.1,24.1,1.6,50.9,21.1,65.9c5.9,4.6,12.5,7.7,19.8,9.6c2.9,0.7,2.5,0,2.5,3.3c0,7-0.1,14-0.2,21c0,1,0,2.1,0.2,3.1
	c0.4,2.1,2,3.5,4.1,3.5c2.1,0,3.8-1.3,4.2-3.4c0.2-0.9,0.2-1.9,0.2-2.8c0.1-7,0.1-14,0.2-21c0-2.1,0.1-2.1,2.2-2.1
	c17.5,0.1,35,0.2,52.4,0.3c2,0,3.9,0,5.9,0.1c2.1,0,2.1,0.1,2.3,2.1c0.1,1.2,0.1,2.4,0.2,3.6c0.3,4.3,3.4,6.1,7.2,4
	c6.3-3.5,12.5-7.1,18.7-10.7c5.7-3.3,11.3-6.5,17-9.8c1.8-1,2.8-2.4,3.2-4.6c0.6-3.5-1.2-5.5-3.8-7.1c-2.8-1.7-5.7-3.2-8.5-4.8
	c-8.2-4.6-16.5-9.2-24.7-13.8c-0.5-0.3-1-0.5-1.5-0.8c-4.2-2.8-8.1,0.2-7.6,4.5c0.2,1.4,0,2.8,0,4.2c0,1.1-0.5,1.4-1.5,1.4
	c-3.4-0.1-6.7-0.1-10.1-0.1c-15.6-0.3-31.2-0.6-46.8-0.9c-0.7,0-1.3,0-2,0c-0.8,0-1.2-0.4-1.2-1.2c0-0.7,0-1.3,0-2
	c-0.3-24.3-0.5-48.6-0.8-72.9c-0.4-30.9-0.7-61.9-1.1-92.8c0-3.4,0-3.4,3.4-3.4c71.9,0.2,143.8,0.4,215.7,0.6c3,0,2.7-0.3,2.7,2.7
	c0.2,37.4,0.4,74.8,0.5,112.2c0.2,36.2,0.4,72.4,0.5,108.5c0,0.8,0,1.7,0.1,2.5c0.4,2.2,2.2,3.6,4.4,3.6c2.1-0.1,3.7-1.4,4-3.6
	c0.2-1.3,0.2-2.6,0.2-3.9c-0.2-49-0.5-98-0.7-147c0-3.4,0-3.4,3.5-3.3c5.9,0.1,11.8,0.2,17.7,0.3c3.2,0,2.8,0.2,2.8,2.8
	c0.2,16.5,0.4,33.1,0.6,49.6c0.4,33.7,0.8,67.3,1.2,101c0,0.3,0,0.6,0,0.8c0,3,0,2.9-2.8,3.3c-14.5,1.8-27.9,6.6-40.3,14.4
	c-1.4,0.9-2.8,1.2-4.5,1.2c-47.3,0-94.6,0-141.9,0C275.9,363.9,275.9,364.1,275.9,364.3z M350.9,167.4
	C350.9,167.4,350.9,167.4,350.9,167.4c16-0.1,32-0.2,48-0.4c1.5,0,3-0.1,4.5-0.3c3.2-0.6,6-2.2,6.7-5.6c1.2-5.3,1.3-10.8,0.1-16.1
	c-1-4.3-4.7-6.4-7.8-6.4c-15.2,0.2-30.5,0.3-45.7,0.4c-18.4,0.1-36.8,0.4-55.2,0.3c-4.4,0-6.5,1.9-7,5.9c-0.6,5.2-0.6,10.5-0.1,15.7
	c0.4,4.4,4,7.2,8.2,7.1C318.6,167.6,334.8,167.5,350.9,167.4z M318.4,244.7C318.4,244.7,318.4,244.8,318.4,244.7
	c28.6-0.1,57.2-0.3,85.8-0.5c0.9,0,1.9,0.1,2.8-0.2c1.9-0.6,3.2-2.3,3.2-4.2c0-1.9-1.3-3.5-3.2-4.1c-1.1-0.3-2.2-0.3-3.3-0.3
	c-7.5,0.1-15,0.2-22.4,0.2c-49.3,0.3-98.7,0.5-148,0.8c-0.9,0-1.9,0-2.8,0.2c-2.3,0.5-3.7,2.1-3.7,4.3c0,2.2,1.6,4,4,4.3
	c1,0.1,2.1,0.1,3.1,0.1C261.9,245.1,290.1,244.9,318.4,244.7z M252.9,136.5c0-0.2,0-0.3,0-0.5c-6.6,0-13.3,0-19.9,0
	c-4.9,0-6.4,1.5-6.4,6.4c0,0.2,0,0.4,0,0.6c0.1,12.6,0.2,25.2,0.4,37.8c0,0.7,0,1.5,0,2.2c0.3,3.8,2.7,6.2,6.6,6.1
	c13.5-0.1,26.9-0.3,40.4-0.5c3.3,0,5-1.7,5-5.1c0.1-13.5,0.3-27.1,0.3-40.6c0-4.6-2-6.5-6.5-6.5
	C266.1,136.4,259.5,136.5,252.9,136.5z M290.8,267.2c0-0.3,0-0.5,0-0.8c19.3,0,38.5,0,57.8,0c1.2,0,2.4,0,3.6-0.3
	c1.9-0.5,3-2,3.1-3.9c0.1-1.9-0.9-3.4-2.7-4.2c-1-0.4-2-0.4-3-0.4c-38.9,0.3-77.8,0.6-116.7,0.9c-0.8,0-1.7,0-2.5,0.2
	c-2.3,0.4-3.7,2.1-3.7,4.2c0,2.1,1.5,3.9,3.7,4.2c1,0.1,2.1,0.1,3.1,0.1C252.6,267.3,271.7,267.2,290.8,267.2z M351.1,201.2
	c0-0.2,0-0.3,0-0.5c17.4-0.1,34.8-0.2,52.2-0.4c1.1,0,2.2,0.1,3.3-0.2c2.1-0.6,3.5-2.2,3.5-4.2c0-2.1-1.5-3.9-3.8-4.3
	c-0.9-0.2-1.9-0.1-2.8-0.1c-35.2,0.3-70.5,0.6-105.7,1c-0.7,0-1.5,0-2.2,0.1c-2,0.4-3.5,2.2-3.5,4.2c0,2.1,1.5,3.9,3.8,4.2
	c0.7,0.1,1.5,0.1,2.2,0.1C315.8,201.2,333.4,201.2,351.1,201.2z M367.6,289.1C367.6,289.1,367.6,289.1,367.6,289.1
	c11.8,0,23.6,0,35.3,0c0.9,0,1.9,0,2.8-0.1c2.1-0.4,3.5-2,3.6-4c0.1-2.2-1.3-3.9-3.5-4.4c-0.9-0.2-1.9-0.2-2.8-0.2
	c-23.6,0-47.1,0-70.7,0c-0.8,0-1.7,0-2.5,0.2c-2.2,0.4-3.7,2.2-3.7,4.3c0,2.1,1.7,3.8,3.8,4.2c0.8,0.1,1.7,0.1,2.5,0.1
	C344.3,289.1,356,289.1,367.6,289.1z M371.6,223c0-0.2,0-0.5,0-0.7c10.7,0,21.5,0,32.2,0c1,0,2.1,0.1,3.1-0.3c2-0.6,3.2-2.2,3.2-4.1
	c0-1.9-1.2-3.5-3.2-4.1c-1-0.3-2-0.3-3.1-0.3c-21.5,0.3-43,0.6-64.4,0.9c-0.7,0-1.5,0-2.2,0.2c-2,0.4-3.5,2.2-3.5,4.2
	c0,2,1.5,3.8,3.5,4.2c0.7,0.1,1.5,0.1,2.2,0.1C350.1,223,360.8,223,371.6,223z M379.4,303.1c0-0.2,0-0.4,0-0.5c-8.4,0-16.8,0-25.2,0
	c-0.9,0-1.9-0.1-2.8,0.2c-2,0.7-3.1,2.2-3.1,4.2c0,2,1.2,3.5,3.2,4.1c1,0.3,2,0.3,3.1,0.3c16.6,0.2,33.2,0.4,49.9,0.5
	c1,0,2.1,0,3-0.3c1.8-0.6,3-2.1,3-4c0-1.9-1-3.3-2.8-4.1c-1.1-0.4-2.2-0.4-3.3-0.4C396.1,303.1,387.8,303.1,379.4,303.1z
	 M346.9,333.9c0,0,0,0.1,0,0.1c2.2,0,4.5,0.1,6.7,0c2.5-0.1,4.3-2,4.3-4.3c0-2.2-1.6-3.9-4-4.3c-0.2,0-0.4,0-0.6,0
	c-4.3-0.1-8.6-0.2-12.8-0.4c-0.9,0-1.7,0.1-2.5,0.4c-1.7,0.7-2.6,2.1-2.6,3.9c0,1.9,0.9,3.2,2.6,3.9c0.9,0.4,2,0.5,3,0.5
	C343,333.9,345,333.9,346.9,333.9z M379.5,334.1c0,0,0-0.1,0-0.1c1.1,0,2.2,0,3.4,0c1.1,0,2.3,0,3.4-0.1c2.4-0.3,4-2.1,4-4.3
	c0-2.2-1.4-3.8-3.7-4.2c-0.5-0.1-1.1-0.1-1.7-0.1c-3.7,0.1-7.5,0.1-11.2,0.3c-2.9,0.1-4.8,2-4.7,4.5c0.1,2.4,2,4.1,4.7,4.1
	C375.6,334.2,377.5,334.1,379.5,334.1z M300.5,223.3C300.5,223.3,300.5,223.3,300.5,223.3c1.7,0,3.4,0.2,5-0.1
	c2.3-0.3,3.7-2.1,3.7-4.2c0-2-1.3-3.6-3.4-4.2c-0.4-0.1-0.9-0.2-1.4-0.2c-2.8,0-5.6-0.1-8.4-0.1c-2.8,0.1-4.6,1.8-4.7,4.2
	c-0.1,2.5,1.7,4.3,4.7,4.6C297.5,223.4,299,223.3,300.5,223.3z M406.2,325.5c-0.2,0-0.9,0-1.5,0.2c-1.6,0.4-2.7,1.8-2.8,3.4
	c-0.1,1.6,0.8,3.1,2.3,3.7c0.6,0.2,1.2,0.4,1.9,0.5c3.3,0.5,5.6-1.1,5.7-3.7C411.9,327.1,409.9,325.5,406.2,325.5z M333.9,329.2
	c-0.1-2-1.8-3.7-3.8-3.7c-2.3,0-4.4,2-4.5,4.2c0,2.1,1.8,3.9,4,3.8C331.9,333.4,334,331.4,333.9,329.2z M363.9,325.4
	c-2.1-0.1-3.8,1.5-3.9,3.5c-0.1,2,1.5,3.8,3.5,4c2.2,0.1,4-1.5,4.1-3.7C367.6,327.2,366,325.5,363.9,325.4z M396.8,326.1
	c-2.1,0-3.7,1.7-3.8,3.7c0,2,1.7,3.7,3.8,3.7c2.2,0,4-1.8,3.9-3.9C400.6,327.6,398.8,326,396.8,326.1z M315.8,222.5
	c2.1,0.1,3.8-1.5,3.9-3.6c0.1-2.1-1.5-3.8-3.5-3.9c-2.2-0.1-4,1.5-4,3.7C312.1,220.8,313.7,222.4,315.8,222.5z"/>
<path class="st1" d="M408.7,373c-0.7,0.7-1.4,1.4-2.1,2.1c-9,9-16,19.2-20.7,31c-0.6,1.5-1.4,1.9-2.9,1.8
	c-6.9-0.1-13.8-0.2-20.7-0.2c-71-0.3-142.1-0.6-213.1-0.9c-3.4,0-6.7-0.7-9.7-2.3c-5.1-2.8-7.7-7.1-7.8-13c0-5.3-0.1-10.7-0.1-16
	c0-2.4,0-2.5,2.4-2.5c13.6-0.1,27.1-0.1,40.7-0.2c77-0.2,154-0.4,231.1-0.5c0.9,0,1.9,0,2.8,0C408.5,372.6,408.6,372.8,408.7,373z
	 M301.1,390.8c0-2.1-1.6-3.7-3.7-3.8c-2.1,0-3.8,1.6-3.8,3.6c-0.1,2.2,1.7,3.9,3.8,3.9C299.4,394.6,301.1,392.9,301.1,390.8z
	 M308,387.3c-2.1,0-3.7,1.6-3.8,3.7c-0.1,2.2,1.7,3.9,3.9,3.8c2.1-0.1,3.7-1.7,3.7-3.8C311.8,388.9,310.1,387.3,308,387.3z"/>
<path class="st1" d="M280.2,291.4c9.3,5.2,18.1,10.2,27.4,15.3c-9.3,5.3-18.2,10.4-27.3,15.7c-0.5-1.2-0.2-2.2-0.3-3.2
	c-0.2-2.7-1.2-3.8-3.8-4.4c-1.2-0.3-2.4-0.3-3.6-0.3c-21.6-0.2-43.2-0.3-64.8-0.6c-9.7-0.1-18.2-3.9-25.6-10
	c-10.6-8.8-16.6-20.2-18.4-33.9c-1.8-13.4,0.9-25.9,8.7-37c6.4-9.1,15.1-15.1,26.1-17.6c0.5-0.1,0.9-0.2,1.4-0.2
	c0.3,0,0.5,0,1.1,0.1c0.1,4.9,0.1,9.7,0.2,14.5c0,0.9-0.6,1.3-1.3,1.6c-14.3,6.2-20.2,17.8-20.9,32.7c-0.4,7.8,1.7,15,5.8,21.6
	c3.3,5.3,7.7,9.3,13.5,11.8c2.8,1.2,5.6,1.8,8.7,1.8c12.4,0,24.9,0.2,37.3,0.4c9.6,0.1,19.2,0.3,28.9,0.5c1.3,0,2.6,0.1,3.8-0.6
	c2-1.2,3.3-2.7,3.2-5.2C280.2,293.4,280.2,292.7,280.2,291.4z"/>
<path class="st1" d="M338.6,454.2c-28.1,0-55.6,0-83.1,0c-0.4-0.9,0.3-1.3,0.7-1.8c6.3-9.1,10.1-19.1,11.9-29.9
	c0.3-1.6,0.3-3.2,0.4-4.7c0-1.2,0.4-1.8,1.6-1.6c0.6,0.1,1.1,0,1.7,0c17,0.1,34,0.2,51,0.3c0.2,0,0.4,0,0.6,0
	c2.1,0.1,2.1,0.1,2.2,2.1c0.3,5.3,1.2,10.4,2.7,15.4c2,6.9,5,13.3,9.4,18.9C337.9,453.1,338.1,453.4,338.6,454.2z"/>
<path class="st1" d="M165.5,181.4c-10.9,0-21.9,0-32.8,0c-2.8,0-2.3,0.1-2.4-2.4c-0.1-2.2,1-3.7,2.4-5.2c3.7-3.8,8.4-5.5,13.6-5.6
	c12.5-0.1,25-0.1,37.6-0.2c4.9,0,9.7-0.1,14.6,0c2,0,2,0,2.1,2c0.1,3,0.1,6,0.1,9c0,2.5,0.4,2.4-2.3,2.4c-9.4,0-18.9,0-28.3,0
	C168.5,181.4,167,181.4,165.5,181.4z"/>
<path class="st1" d="M201.4,240.4c0.2,16.4,0.4,32.5,0.6,48.7c-7.6-2-14-12.6-14.3-23.5C187.3,254.6,193.5,243,201.4,240.4z"/>
<path class="st1" d="M451.3,181.5c-3.4,0-6.7-0.1-10.1,0c-1.3,0-1.8-0.4-1.7-1.8c0.1-3.4,0.1-6.7,0-10.1c0-1.2,0.2-1.9,1.6-1.9
	c4.2-0.1,8.4-0.3,12.6-0.4c1.6-0.1,3.1,0.3,4.6,0.9c3.3,1.4,4.9,3.9,4.9,7.4c0,1.5-0.1,3,0.1,4.5c0.1,1.5-0.5,1.8-1.9,1.8
	c-3.4-0.1-6.7,0-10.1,0C451.3,181.8,451.3,181.6,451.3,181.5z"/>
<path class="st0" d="M350.9,167.4c-16.2,0.2-32.3,0.2-48.5,0.6c-4.2,0.1-7.8-2.7-8.2-7.1c-0.5-5.2-0.5-10.5,0.1-15.7
	c0.5-4,2.6-5.9,7-5.9c18.4,0,36.8-0.2,55.2-0.3c15.2-0.1,30.5-0.2,45.7-0.4c3.2,0,6.8,2,7.8,6.4c1.2,5.3,1.1,10.8-0.1,16.1
	c-0.7,3.4-3.5,5-6.7,5.6c-1.5,0.3-3,0.3-4.5,0.3C382.9,167.1,366.9,167.3,350.9,167.4C350.9,167.4,350.9,167.4,350.9,167.4z
	 M351.9,159c0-0.2,0-0.4,0-0.6c6,0,12,0,17.9,0c9.9,0,19.8-0.1,29.7-0.2c2.4,0,2.5,0,2.7-2.5c0.2-2.2,0.2-4.5,0.2-6.7
	c0-1.8,0-1.8-1.8-1.8c-31.8,0.3-63.6,0.6-95.3,0.9c-0.6,0-1.1,0-1.7,0c-0.6,0-1.1,0.2-1.1,0.9c-0.1,2.9-0.3,5.8-0.5,8.7
	c0,0.8,0.3,1.2,1.1,1.2c0.5,0,0.9,0,1.4,0C320.4,159,336.1,159,351.9,159z"/>
<path class="st0" d="M318.4,244.7c-28.2,0.2-56.5,0.4-84.7,0.6c-1,0-2.1,0.1-3.1-0.1c-2.4-0.3-4-2-4-4.3c0-2.2,1.3-3.8,3.7-4.3
	c0.9-0.2,1.9-0.2,2.8-0.2c49.3-0.3,98.7-0.5,148-0.8c7.5,0,15-0.1,22.4-0.2c1.1,0,2.2-0.1,3.3,0.3c1.9,0.6,3.2,2.2,3.2,4.1
	c0,1.9-1.3,3.5-3.2,4.2c-0.9,0.3-1.8,0.2-2.8,0.2C375.6,244.4,347,244.6,318.4,244.7C318.4,244.8,318.4,244.7,318.4,244.7z"/>
<path class="st0" d="M252.9,136.5c6.6,0,13.3,0,19.9,0c4.6,0,6.5,1.9,6.5,6.5c0,13.5-0.2,27.1-0.3,40.6c0,3.3-1.7,5-5,5.1
	c-13.5,0.2-26.9,0.4-40.4,0.5c-3.9,0-6.3-2.3-6.6-6.1c-0.1-0.7,0-1.5,0-2.2c-0.1-12.6-0.2-25.2-0.4-37.8c0-0.2,0-0.4,0-0.6
	c0-4.8,1.5-6.3,6.4-6.4c6.6,0,13.3,0,19.9,0C252.9,136.2,252.9,136.3,252.9,136.5z M235.3,162.7c0.1,0,0.3,0,0.4,0
	c0,5.2,0,10.5,0,15.7c0,1.9,0.1,1.9,2,1.9c10-0.1,20-0.1,30-0.2c2.4,0,2.5-0.1,2.5-2.5c0.1-9.9,0.2-19.8,0.3-29.7c0-0.5,0-0.9,0-1.4
	c0.1-1-0.4-1.3-1.3-1.3c-3.6,0-7.3,0-10.9-0.1c-1.2,0-1.4,0.6-1.4,1.6c0.1,1.4,0.1,2.8,0,4.2c-0.2,2.6-1.7,4.2-4,4.2
	c-2.2,0-3.9-1.6-4.1-4.1c-0.1-1,0-2.1,0-3.1c0.1-3.3,0.4-2.9-2.7-2.9c-2.7,0-5.4,0-8.1,0c-3.1,0-2.7-0.2-2.7,2.6
	C235.3,152.6,235.3,157.6,235.3,162.7z"/>
<path class="st0" d="M290.8,267.2c-19.1,0-38.1,0-57.2,0c-1,0-2.1,0.1-3.1-0.1c-2.2-0.3-3.7-2.1-3.7-4.2c0-2.2,1.4-3.8,3.7-4.2
	c0.8-0.1,1.7-0.2,2.5-0.2c38.9-0.3,77.8-0.6,116.7-0.9c1,0,2,0,3,0.4c1.8,0.8,2.8,2.3,2.7,4.2c-0.1,1.9-1.3,3.3-3.1,3.9
	c-1.2,0.3-2.4,0.3-3.6,0.3c-19.3,0-38.5,0-57.8,0C290.8,266.7,290.8,267,290.8,267.2z"/>
<path class="st0" d="M351.1,201.2c-17.7,0-35.3,0-53,0c-0.7,0-1.5,0-2.2-0.1c-2.2-0.4-3.8-2.1-3.8-4.2c0-2,1.5-3.8,3.5-4.2
	c0.7-0.2,1.5-0.1,2.2-0.1c35.2-0.3,70.5-0.7,105.7-1c0.9,0,1.9,0,2.8,0.1c2.2,0.4,3.8,2.2,3.8,4.3c0,2-1.4,3.6-3.5,4.2
	c-1.1,0.3-2.2,0.2-3.3,0.2c-17.4,0.1-34.8,0.2-52.2,0.4C351.1,200.9,351.1,201.1,351.1,201.2z"/>
<path class="st0" d="M367.6,289.1c-11.7,0-23.4,0-35,0c-0.8,0-1.7,0-2.5-0.1c-2.2-0.3-3.8-2.1-3.8-4.2c0-2.1,1.5-3.9,3.7-4.3
	c0.8-0.2,1.7-0.2,2.5-0.2c23.6,0,47.1,0,70.7,0c0.9,0,1.9,0,2.8,0.2c2.3,0.5,3.6,2.2,3.5,4.4c-0.1,2-1.5,3.7-3.6,4
	c-0.9,0.2-1.9,0.1-2.8,0.1C391.2,289.1,379.4,289.1,367.6,289.1C367.6,289.1,367.6,289.1,367.6,289.1z"/>
<path class="st0" d="M371.6,223c-10.7,0-21.5,0-32.2,0c-0.7,0-1.5,0-2.2-0.1c-2-0.4-3.5-2.2-3.5-4.2c0-2,1.5-3.8,3.5-4.2
	c0.7-0.1,1.5-0.1,2.2-0.2c21.5-0.3,43-0.6,64.4-0.9c1,0,2,0,3.1,0.3c2,0.6,3.2,2.2,3.2,4.1c0,1.9-1.2,3.5-3.2,4.1
	c-1,0.3-2,0.3-3.1,0.3c-10.7,0-21.5,0-32.2,0C371.6,222.6,371.6,222.8,371.6,223z"/>
<path class="st0" d="M379.4,303.1c8.3,0,16.6,0,24.9,0c1.1,0,2.2-0.1,3.3,0.4c1.8,0.7,2.9,2.2,2.8,4.1c0,1.9-1.1,3.4-3,4
	c-1,0.3-2,0.4-3,0.3c-16.6-0.2-33.2-0.4-49.9-0.5c-1,0-2.1,0-3.1-0.3c-2-0.6-3.2-2.1-3.2-4.1c0-2,1.1-3.5,3.1-4.2
	c0.9-0.3,1.8-0.2,2.8-0.2c8.4,0,16.8,0,25.2,0C379.4,302.8,379.4,303,379.4,303.1z"/>
<path class="st0" d="M346.9,333.9c-2,0-3.9,0-5.9,0c-1,0-2.1-0.1-3-0.5c-1.7-0.7-2.6-2.1-2.6-3.9c0-1.8,0.9-3.2,2.6-3.9
	c0.8-0.3,1.6-0.5,2.5-0.4c4.3,0.1,8.6,0.2,12.8,0.4c0.2,0,0.4,0,0.6,0c2.4,0.3,4,2.1,4,4.3c0,2.3-1.8,4.1-4.3,4.3
	c-2.2,0.1-4.5,0-6.7,0C346.9,334,346.9,333.9,346.9,333.9z"/>
<path class="st0" d="M379.5,334.1c-2,0-3.9,0.1-5.9,0c-2.8-0.1-4.6-1.8-4.7-4.1c-0.1-2.5,1.8-4.4,4.7-4.5c3.7-0.2,7.5-0.2,11.2-0.3
	c0.6,0,1.1,0,1.7,0.1c2.3,0.5,3.7,2.1,3.7,4.2c0,2.3-1.5,4-4,4.3c-1.1,0.2-2.2,0.1-3.4,0.1c-1.1,0-2.2,0-3.4,0
	C379.5,334,379.5,334.1,379.5,334.1z"/>
<path class="st0" d="M300.5,223.3c-1.5,0-3,0.1-4.5,0c-2.9-0.2-4.8-2.1-4.7-4.6c0.1-2.4,1.9-4.1,4.7-4.2c2.8-0.1,5.6,0,8.4,0.1
	c0.5,0,0.9,0.1,1.4,0.2c2.1,0.6,3.4,2.2,3.4,4.2c0,2.1-1.5,3.9-3.7,4.2C303.9,223.5,302.2,223.3,300.5,223.3
	C300.5,223.3,300.5,223.3,300.5,223.3z"/>
<path class="st0" d="M406.2,325.5c3.7,0,5.7,1.6,5.6,4.1c-0.1,2.6-2.5,4.2-5.7,3.7c-0.6-0.1-1.3-0.2-1.9-0.5
	c-1.6-0.6-2.4-2.1-2.3-3.7c0.1-1.6,1.2-3,2.8-3.4C405.3,325.5,405.9,325.5,406.2,325.5z"/>
<path class="st0" d="M333.9,329.2c0.1,2.2-2,4.2-4.3,4.3c-2.2,0.1-4-1.7-4-3.8c0-2.2,2.2-4.2,4.5-4.2
	C332.2,325.6,333.9,327.2,333.9,329.2z"/>
<path class="st0" d="M363.9,325.4c2.1,0.1,3.7,1.8,3.7,3.8c0,2.1-1.9,3.8-4.1,3.7c-2-0.1-3.7-2-3.5-4
	C360.1,326.9,361.8,325.4,363.9,325.4z"/>
<path class="st0" d="M396.8,326.1c2.1,0,3.8,1.6,3.9,3.6c0.1,2.1-1.7,3.9-3.9,3.9c-2.1,0-3.8-1.7-3.8-3.7
	C393,327.8,394.7,326.1,396.8,326.1z"/>
<path class="st0" d="M315.8,222.5c-2.1-0.1-3.7-1.7-3.7-3.8c0-2.2,1.8-3.8,4-3.7c2.1,0.1,3.6,1.9,3.5,3.9
	C319.5,221,317.9,222.5,315.8,222.5z"/>
<path class="st0" d="M301.1,390.8c0,2.1-1.6,3.7-3.7,3.8c-2.2,0-3.9-1.7-3.8-3.9c0.1-2.1,1.8-3.7,3.8-3.6
	C299.5,387.1,301.1,388.7,301.1,390.8z"/>
<path class="st0" d="M308,387.3c2.1,0,3.7,1.7,3.7,3.7c0,2.1-1.6,3.7-3.7,3.8c-2.2,0.1-3.9-1.7-3.9-3.8
	C304.3,388.9,306,387.3,308,387.3z"/>
<path class="st2" d="M469,370.3c38.2,0,66.3,23.3,72.4,55.9c5.7,30.6-10.7,62.2-39.1,75.5c-26.6,12.4-57.4,7.6-78-12.3
	c-25.4-24.5-28-64.4-5.7-92.3C432.7,379.5,451.4,370.8,469,370.3z M533.8,438.4c0-2.6-0.1-5.5-0.6-8.3
	c-3.4-21.1-14.7-36.6-34.1-45.5c-18.2-8.4-36.6-7.6-54.2,1.7C416.6,401.1,404.6,435,417,464c10.7,25,37.8,39.7,65.3,35.1
	C511.9,494,533.7,468.6,533.8,438.4z"/>
<path class="st1" d="M351.9,159c-15.8,0-31.6,0-47.4,0c-0.5,0-0.9,0-1.4,0c-0.8,0-1.1-0.4-1.1-1.2c0.2-2.9,0.3-5.8,0.5-8.7
	c0-0.7,0.5-0.9,1.1-0.9c0.6,0,1.1,0,1.7,0c31.8-0.3,63.6-0.6,95.3-0.9c1.8,0,1.9,0,1.8,1.8c0,2.2-0.1,4.5-0.2,6.7
	c-0.2,2.4-0.2,2.4-2.7,2.5c-9.9,0.1-19.8,0.1-29.7,0.2c-6,0-12,0-17.9,0C351.9,158.7,351.9,158.8,351.9,159z"/>
<path class="st1" d="M235.3,162.7c0-5,0-10.1,0-15.1c0-2.9-0.3-2.7,2.7-2.6c2.7,0,5.4,0,8.1,0c3.1,0,2.8-0.3,2.7,2.9
	c0,1-0.1,2.1,0,3.1c0.2,2.6,1.9,4.2,4.1,4.1c2.2,0,3.8-1.7,4-4.2c0.1-1.4,0-2.8,0-4.2c0-1,0.2-1.6,1.4-1.6c3.6,0.1,7.3,0.1,10.9,0.1
	c0.9,0,1.4,0.4,1.3,1.3c0,0.5,0,0.9,0,1.4c-0.1,9.9-0.2,19.8-0.3,29.7c0,2.4,0,2.4-2.5,2.5c-10,0.1-20,0.2-30,0.2c-2,0-2,0-2-1.9
	c0-5.2,0-10.5,0-15.7C235.6,162.7,235.4,162.7,235.3,162.7z"/>
<path class="st2" d="M472.9,411.7c4.5-4.3,8.9-8.4,13.2-12.5c1.6-1.5,3-3,4.9-4.2c1.9-1.2,3.8-1.3,5.9-0.3c1.4,0.6,2.6,1.5,3.7,2.5
	c4.7,4.7,9.5,9.3,14.1,14c3,3,3.2,5.4,1,9c-1,1.7-2.3,3.2-3.6,4.6c-3.7,3.8-7.5,7.6-11.2,11.4c-0.6,0.6-1.3,1.1-1.6,1.9
	c4,4.1,8,8.1,12,12.2c1.2,1.2,2.4,2.4,3.4,3.7c2.3,3,2.4,5.2,0.4,8.5c-0.5,0.8-1.1,1.5-1.7,2.2c-4.7,4.7-9.4,9.4-14.1,14.1
	c-3.2,3.1-5.4,3.3-9.3,1c-1.6-1-3-2.2-4.3-3.5c-3.6-3.6-7.3-7.3-10.9-10.9c-1.6-1.6-1.6-1.6-3.2,0.1c-4.2,4.3-8.4,8.5-12.6,12.8
	c-0.7,0.7-1.6,1.3-2.4,1.9c-1.9,1.3-3.8,1.3-5.8,0.4c-1.4-0.6-2.6-1.4-3.7-2.5c-4.7-4.7-9.5-9.3-14.2-13.9c-3.1-3.1-3.3-5.2-1.2-9
	c1-1.8,2.4-3.4,3.8-4.8c3.6-3.7,7.2-7.4,10.7-11.1c1.3-1.4,1.3-1.4-0.1-2.8c-4.3-4.2-8.5-8.4-12.8-12.6c-0.4-0.4-0.8-0.8-1.1-1.3
	c-2.4-3-2.5-5.2-0.5-8.5c0.6-1,1.3-1.8,2.1-2.6c4.5-4.5,8.9-9.1,13.4-13.6c3.5-3.5,5.7-3.7,9.9-1c1.5,1,2.8,2.1,4.1,3.4
	C465.1,404.1,469.1,408,472.9,411.7z M506.7,416.6c0-0.7-0.3-1.2-0.8-1.7c-3.2-3.2-6.3-6.3-9.6-9.4c-1.3-1.3-2.3-1.2-3.7-0.1
	c-0.7,0.5-1.3,1.1-1.8,1.7c-4.1,4.1-8.1,8.3-12.2,12.4c-3.3,3.3-6.8,3.3-10.1,0.2c-3.5-3.4-7-6.8-10.4-10.2c-1.1-1-2.1-2.1-3.3-3.1
	c-1.5-1.3-2.5-1.2-3.9,0.2c-3.1,3-6.1,6.1-9,9.2c-1.5,1.6-1.5,2.5-0.2,4.2c0.5,0.6,1,1.1,1.6,1.6c4.3,4.2,8.6,8.3,12.8,12.6
	c2.6,2.6,2.6,4.7,0.2,7.3c-1.3,1.5-2.7,2.8-4.1,4.2c-3.4,3.5-6.8,6.9-10.1,10.5c-1.9,2-1.9,3.1,0,5c2.8,2.8,5.6,5.5,8.4,8.2
	c2.1,2,3,2,5.2-0.1c1.7-1.6,3.3-3.3,4.9-5c2.9-3,5.8-6.1,8.8-9c2.2-2.1,4-2.3,6.5-0.5c1.1,0.7,2,1.6,3,2.6
	c3.9,3.9,7.8,7.8,11.7,11.7c2.8,2.7,3.5,2.7,6.2,0.1c2.5-2.5,5-5,7.5-7.5c2.3-2.3,2.4-3.3,0.1-5.6c-2.8-2.9-5.7-5.7-8.5-8.5
	c-1.7-1.7-3.5-3.4-5.1-5.2c-2.1-2.2-2.2-3.7-0.7-6.3c1-1.7,2.2-3.2,3.6-4.6c3.8-3.8,7.6-7.7,11.4-11.6
	C505.8,418.7,506.6,417.9,506.7,416.6z"/>
<path class="st3" d="M109.7,231.9l11.2,11.2c2.7,2.7,7,2.7,9.6,0l11.2-11.2c2.7-2.7,2.7-7,0-9.6l-11.2-11.2c-2.7-2.7-7-2.7-9.6,0
	l-11.2,11.2C107.1,224.9,107.1,229.2,109.7,231.9z"/>
<path class="st3" d="M109.7,264.6l11.2,11.2c2.7,2.7,7,2.7,9.6,0l11.2-11.2c2.7-2.7,2.7-7,0-9.6l-11.2-11.2c-2.7-2.7-7-2.7-9.6,0
	L109.7,255C107.1,257.6,107.1,262,109.7,264.6z"/>
<path class="st2" d="M400.9,507.5l8.8,8.8c1.3,1.3,3.4,1.3,4.7,0l8.8-8.8c1.3-1.3,1.3-3.4,0-4.7l-8.8-8.8c-1.3-1.3-3.4-1.3-4.7,0
	l-8.8,8.8C399.7,504.2,399.7,506.3,400.9,507.5z"/>
<circle class="st4" cx="473.6" cy="439" r="89"/>
</svg>
