<?xml version="1.0" encoding="utf-8"?>
<!-- Generator: Adobe Illustrator 28.0.0, SVG Export Plug-In . SVG Version: 6.00 Build 0)  -->
<svg version="1.1" id="Capa_1" xmlns="http://www.w3.org/2000/svg" xmlns:xlink="http://www.w3.org/1999/xlink" x="0px" y="0px"
	 viewBox="0 0 600 600" style="enable-background:new 0 0 600 600;" xml:space="preserve">
<style type="text/css">
	.st0{fill:#0A0A0A;}
	.st1{fill:#FFFFFF;}
	.st2{fill:#FCFCFC;}
	.st3{fill:#FF5500;}
	.st4{fill:#6EE1EB;}
	.st5{fill:none;stroke:#FF5500;stroke-width:11;stroke-miterlimit:10;}
</style>
<path class="st0" d="M163.8,193c11.2,0.2,21.1,0.4,31,0.5c3.7,0,6.1,1.3,7.9,4.7c12.4,23,25,45.8,37.3,68.8c3.1,5.9,8,7.2,14.5,5.8
	c2.7-0.6,5.2-2,7.7-3.4c43.3-24.5,86.5-49,129.8-73.6c2.7-1.6,5.4-2.3,8.5-2.3c21.3,0,42.7-0.2,64-0.3c0.7,0,1.3,0,2,0
	c3.6-0.3,5.7,1.6,6.5,5.9c0.2,0.9,0.1,1.9,0.1,2.8c0.4,41.2,0.8,82.3,1.2,123.5c0.1,6.7,0.2,13.3,0.2,20c0,2.7-0.2,2.3,2.5,2.4
	c5.2,0.3,10.5,0.3,15.7,1.5c37,9.1,62,31.1,71.1,68.6c7.5,30.6-0.4,58.1-21,81.8c-15.6,17.9-35.5,28.4-59.1,31.3
	c-30.3,3.7-56.7-5.1-78.3-26.7c-16.2-16.2-24.5-36.1-25.7-59c-0.3-5.2,0-10.3,0.6-15.5c0.2-1.8,0.2-1.8-1.8-1.9c-0.6,0-1.1,0-1.7,0
	c-73-0.2-146-0.3-219-0.5c-5.3,0-10.5-0.9-15.5-2.3c-4-1.1-7.3-3.4-10.2-6.3c-3.4-3.4-4.8-7.6-4.7-12.3c0.1-29.6,0.3-59.2,0.5-88.8
	c0.2-39.2,0.4-78.4,0.6-117.5c0-2,0.3-3.8,1.8-5.4c1.4-1.5,3-2.1,5-2.1c7,0.2,13.9,0.3,20.9,0.4C159,193,162.1,193,163.8,193z
	 M266.3,418.6c0,0.2,0,0.3,0,0.5c37.3,0,74.6,0,111.9,0c3.8,0,3.8,0,4.9-3.6c6.3-21.1,18.5-38,36.5-50.7
	c12.9-9.1,27.4-14.6,43.2-16.6c2.9-0.4,2.9-0.4,2.9-3.3c-0.2-28.9-0.5-57.9-0.7-86.8c-0.2-18-0.3-36.1-0.5-54.1c0-2.2,0-2.2-2.1-2.2
	c-0.3,0-0.6,0-0.8,0c-20,0.1-40,0.2-60,0.3c-2,0-3.8,0.5-5.6,1.5c-43.3,24.6-86.7,49.2-130,73.8c-5.5,3.1-11.3,4.5-17.5,4.3
	c-6.9-0.2-11.9-3.5-15.2-9.5c-12.3-22.6-24.6-45.1-36.9-67.8c-0.9-1.7-1.9-2.4-3.9-2.4c-17.3-0.1-34.6-0.4-51.9-0.6
	c-3.5,0-3.5,0-3.6,3.6c-0.3,64.8-0.6,129.7-0.9,194.5c0,1.9-0.1,3.8-0.2,5.6c-0.1,3.3,0.7,6.3,3.4,8.5c1.7,1.4,3.5,2.5,5.5,3.3
	c3.9,1.4,7.8,1.7,11.9,1.7C193.2,418.6,229.8,418.6,266.3,418.6z M479.4,356.3c-20.4,0.1-34.6,3.6-47.7,11.2
	c-23.2,13.4-37.7,33.2-42.4,59.7c-3.7,20.8,0,40.6,11.9,58.1c19.8,29.1,47.9,41.1,82.4,36.7c24.3-3.1,44.1-15.2,58.2-35.4
	c17.5-25.1,21.2-52.6,8.8-80.7C536.1,373.2,509.4,358,479.4,356.3z"/>
<path class="st0" d="M300.8,181.9c-49.9,0-99.8,0-149.7,0c-1.5,0-3,0-4.5-0.2c-3.4-0.5-4.9-2.3-5-5.7c-0.2-8.5-0.6-16.9-0.3-25.4
	c0.2-8,6.4-14,14.1-14.5c1-0.1,2.1,0,3.1,0c38.3,0.2,76.7,0.4,115,0.7c3.5,0,6.9-0.3,10.4,0.5c4,1,7.3,2.8,9.2,6.7
	c0.9,1.8,0.8,3.6,0.9,5.5c0.1,1.9-0.8,4.4,0.5,5.7c1.2,1.1,3.6,0.3,5.5,0.4c40.9,0.6,81.7,1.1,122.6,1.7c8.1,0.1,16.2,0.4,24.2,0.3
	c6.4-0.1,11.9,5.4,12.3,12.3c0.2,2.8-0.1,5.6-0.5,8.4c-0.3,2.1-1.8,3.5-4,3.7c-0.7,0.1-1.5,0-2.3,0
	C401.9,181.9,351.4,181.9,300.8,181.9C300.8,181.9,300.8,181.9,300.8,181.9z M300.5,173.2c48.9,0,97.7,0,146.6,0c0.8,0,1.7,0,2.5,0
	c0.5,0,0.8-0.2,1.1-0.7c1.3-3.2-0.6-6.2-3.9-6.3c-49.6-0.6-99.2-1.3-148.8-1.9c-2.4,0-4.9-0.1-7.3-0.4c-4-0.4-5.1-1.5-5.2-5.4
	c-0.1-2.8,0-5.6-0.2-8.4c-0.3-3.5-1-4.1-4.4-4.4c-0.5-0.1-0.9-0.1-1.4-0.1c-3.1,0-6.2-0.1-9.3-0.1c-37.4-0.2-74.8-0.4-112.2-0.7
	c-0.8,0-1.5,0-2.3,0c-3.6,0.2-5.9,1.9-5.7,6.1c0.3,6.4,0.2,12.8,0.3,19.2c0.1,3.7-0.4,3.2,3.4,3.2
	C202.6,173.2,251.5,173.2,300.5,173.2z"/>
<path class="st0" d="M296.2,190.8c6.1-0.2,12.2-0.3,18.3-0.5c1.9-0.1,3.5,0.5,4.6,2.1c2.3,3.4,1.8,6.1-1.9,8.2
	c-17.7,10.2-35.4,20.6-53.3,30.5c-8,4.5-14.4,2.6-19.5-2.8c-5.3-5.7-5.3-13,0.1-18.7c1.5-1.6,3.2-2.9,5.1-4
	c7.5-4.2,15.1-8.4,22.6-12.7c1.9-1.1,3.7-1.6,5.9-1.6C284.2,191.1,290.2,190.9,296.2,190.8C296.2,190.7,296.2,190.7,296.2,190.8z
	 M301,199.9c-0.1-0.2-0.1-0.3-0.2-0.5c-7.5,0.2-15,0.4-22.5,0.6c-1,0-1.8,0.6-2.6,1c-7.1,4-14.2,8-21.3,12c-1.5,0.8-2.8,1.8-4.2,2.9
	c-1.3,1-1.9,2.4-1.3,4c1.1,2.7,5,5.9,8.1,4.5c1.5-0.7,3.2-1.1,4.6-1.9c8.6-5,17.2-9.9,25.9-14.9C292.1,205,296.5,202.4,301,199.9z"
	/>
<path class="st1" d="M266.3,418.6c-36.5,0-73.1,0-109.6,0c-4.1,0-8-0.3-11.9-1.7c-2.1-0.7-3.8-1.9-5.5-3.3c-2.7-2.2-3.5-5.2-3.4-8.5
	c0.1-1.9,0.1-3.8,0.2-5.6c0.3-64.8,0.6-129.7,0.9-194.5c0-3.6,0-3.6,3.6-3.6c17.3,0.2,34.6,0.5,51.9,0.6c2,0,2.9,0.7,3.9,2.4
	c12.2,22.6,24.5,45.2,36.9,67.8c3.3,6,8.3,9.3,15.2,9.5c6.2,0.2,12-1.2,17.5-4.3c43.3-24.6,86.7-49.2,130-73.8
	c1.8-1,3.5-1.5,5.6-1.5c20-0.1,40-0.2,60-0.3c0.3,0,0.6,0,0.8,0c2.1,0,2.1,0,2.1,2.2c0.2,18,0.4,36.1,0.5,54.1
	c0.3,28.9,0.5,57.9,0.7,86.8c0,2.9,0,2.9-2.9,3.3c-15.7,2-30.2,7.5-43.2,16.6c-17.9,12.7-30.2,29.5-36.5,50.7
	c-1.1,3.6-1,3.6-4.9,3.6c-37.3,0-74.6,0-111.9,0C266.3,419,266.3,418.8,266.3,418.6z"/>
<path class="st2" d="M300.5,173.2c-49,0-97.9,0-146.9,0c-3.8,0-3.3,0.4-3.4-3.2c-0.1-6.4,0-12.8-0.3-19.2c-0.2-4.1,2.1-5.8,5.7-6.1
	c0.7,0,1.5,0,2.3,0c37.4,0.2,74.8,0.4,112.2,0.7c3.1,0,6.2,0,9.3,0.1c0.5,0,0.9,0,1.4,0.1c3.5,0.4,4.2,1,4.4,4.4
	c0.2,2.8,0.2,5.6,0.2,8.4c0.1,4,1.2,5,5.2,5.4c2.4,0.3,4.9,0.3,7.3,0.4c49.6,0.6,99.2,1.3,148.8,1.9c3.3,0,5.2,3,3.9,6.3
	c-0.2,0.5-0.5,0.7-1.1,0.7c-0.8,0-1.7,0-2.5,0C398.2,173.2,349.4,173.2,300.5,173.2z"/>
<path class="st2" d="M301,199.9c-4.5,2.6-8.9,5.1-13.4,7.7c-8.6,5-17.3,9.9-25.9,14.9c-1.5,0.9-3.1,1.3-4.6,1.9
	c-3,1.4-7-1.7-8.1-4.5c-0.6-1.6,0-3,1.3-4c1.3-1,2.7-2,4.2-2.9c7.1-4,14.2-8,21.3-12c0.8-0.5,1.6-1,2.6-1c7.5-0.2,15-0.4,22.5-0.6
	C300.9,199.5,300.9,199.7,301,199.9z"/>
<path class="st3" d="M469.9,370.6c38.4,0,66.8,23.6,72.7,56.3c5.4,30-9.8,60.5-37.2,74.6c-26.8,13.8-59,9.3-80.4-11.2
	c-25.7-24.7-28.3-65.1-5.6-93.1C433.6,379.7,452.3,371.1,469.9,370.6z M534.9,438.8c-0.1-2.5-0.1-5.3-0.6-8.1
	c-3.4-21.2-14.8-36.8-34.2-45.8c-20-9.2-39.8-7.6-58.4,3.9c-25.7,15.9-36.1,48.2-24.2,75.9c11,25.5,38.3,40,65.8,35.3
	C512.9,494.9,534.9,469.1,534.9,438.8z"/>
<path class="st3" d="M500.1,438.6c4.2,4.2,8.2,8.3,12.2,12.4c1.5,1.5,2.9,3,4.1,4.7c1.4,2.1,1.5,4.2,0.4,6.4
	c-0.6,1.3-1.4,2.4-2.4,3.4c-4.7,4.7-9.4,9.4-14.2,14.1c-3.2,3.1-5.5,3.3-9.3,1c-1.6-1-3-2.2-4.4-3.5c-3.3-3.3-6.7-6.6-10-9.9
	c-2.6-2.6-2.6-2.6-5.2,0.1c-3.8,3.9-7.6,7.8-11.4,11.7c-0.2,0.2-0.4,0.4-0.6,0.6c-3.8,3.3-6.9,3.4-10.8,0.1
	c-1.3-1.1-2.4-2.3-3.7-3.5c-3.8-3.7-7.5-7.3-11.3-11c-3.4-3.3-3.6-5.5-1.2-9.5c1-1.7,2.3-3.2,3.7-4.6c3.5-3.6,7.1-7.3,10.6-10.9
	c1.5-1.6,1.5-1.6-0.1-3.2c-4.2-4.2-8.4-8.3-12.6-12.4c-0.4-0.4-0.8-0.8-1.1-1.3c-2.4-3-2.5-5.2-0.5-8.5c0.6-1,1.3-1.8,2.1-2.6
	c4.5-4.6,8.9-9.1,13.4-13.6c3.4-3.4,5.6-3.7,9.7-1.2c1.6,1,3,2.2,4.4,3.5c3.7,3.6,7.4,7.2,11.1,10.8c1,1,1.5,1,2.5,0
	c3.8-4,7.7-7.9,11.6-11.9c1.1-1.1,2.1-2.1,3.3-3.1c3.2-2.7,5.7-2.8,9.2-0.5c0.7,0.5,1.3,1,1.9,1.6c4.8,4.7,9.5,9.3,14.2,14.1
	c3,3,3.2,5.4,1,9.1c-1,1.7-2.3,3.2-3.7,4.6C508.7,429.8,504.5,434.1,500.1,438.6z M507.7,417.2c0.1-0.7-0.2-1.3-0.7-1.8
	c-3.3-3.2-6.5-6.5-9.8-9.7c-1.2-1.2-2.1-1.1-3.5-0.1c-0.7,0.5-1.3,1.1-1.9,1.7c-4.2,4.3-8.4,8.6-12.7,12.8c-2.9,2.9-6.5,2.9-9.5,0.2
	c-1-0.9-1.9-1.8-2.8-2.7c-3.5-3.4-7-6.9-10.5-10.2c-2.2-2.1-3.1-2-5.2,0c-2.7,2.7-5.4,5.5-8.1,8.2c-2.2,2.2-2.2,3.2,0,5.4
	c2.8,2.8,5.6,5.5,8.4,8.3c1.9,1.8,3.8,3.6,5.6,5.5c2.2,2.3,2.2,4.3,0.1,6.7c-0.4,0.5-0.9,1-1.4,1.4c-4.4,4.5-8.8,9-13.1,13.5
	c-2,2.1-2,3.2,0.1,5.2c2.7,2.7,5.5,5.4,8.2,8.1c2.2,2.2,3.1,2.2,5.4-0.1c1.7-1.6,3.3-3.3,4.9-5c2.9-3,5.7-6,8.7-8.9
	c2.3-2.3,4.2-2.4,6.8-0.6c1,0.7,1.9,1.5,2.8,2.4c4,4,8,8,12,11.9c2.6,2.6,3.5,2.6,6,0.1c2.6-2.6,5.2-5.2,7.8-7.8
	c2.2-2.2,2.2-3.2,0.1-5.4c-2.5-2.6-5.2-5.2-7.8-7.8c-2-2-4-3.9-6-6c-2.2-2.3-2.3-3.8-0.7-6.5c0.9-1.6,2.1-3.1,3.4-4.4
	c3.9-3.9,7.8-7.9,11.7-11.9C506.8,419.2,507.5,418.4,507.7,417.2z"/>
<path class="st4" d="M114.7,237.6l11.7,11.7c2.8,2.8,7.3,2.8,10.1,0l11.7-11.7c2.8-2.8,2.8-7.3,0-10.1l-11.7-11.7
	c-2.8-2.8-7.3-2.8-10.1,0l-11.7,11.7C111.9,230.3,111.9,234.8,114.7,237.6z"/>
<path class="st4" d="M114.7,271.7l11.7,11.7c2.8,2.8,7.3,2.8,10.1,0l11.7-11.7c2.8-2.8,2.8-7.3,0-10L136.5,250
	c-2.8-2.8-7.3-2.8-10.1,0l-11.7,11.7C111.9,264.4,111.9,268.9,114.7,271.7z"/>
<path class="st3" d="M412.5,514.4l9.2,9.2c1.3,1.3,3.5,1.3,4.9,0l9.2-9.2c1.3-1.3,1.3-3.5,0-4.9l-9.2-9.2c-1.3-1.3-3.5-1.3-4.9,0
	l-9.2,9.2C411.1,510.9,411.1,513,412.5,514.4z"/>
<circle class="st5" cx="472.9" cy="439.7" r="88.5"/>
</svg>
