<?xml version="1.0" encoding="utf-8"?>
<!-- Generator: Adobe Illustrator 28.0.0, SVG Export Plug-In . SVG Version: 6.00 Build 0)  -->
<svg version="1.1" id="Capa_1" xmlns="http://www.w3.org/2000/svg" xmlns:xlink="http://www.w3.org/1999/xlink" x="0px" y="0px"
	 viewBox="0 0 600 600" style="enable-background:new 0 0 600 600;" xml:space="preserve">
<style type="text/css">
	.st0{fill:#090A0A;}
	.st1{fill:#FFFFFF;}
	.st2{fill:#FDFDFD;}
	.st3{fill:#DBB300;}
	.st4{fill:#6EE1EB;}
	.st5{fill:none;stroke:#DBB300;stroke-width:11;stroke-miterlimit:10;}
</style>
<path class="st0" d="M380.9,429c-1-0.5-2-0.3-2.9-0.3c-73.9-0.2-147.8-0.4-221.7-0.6c-5.3,0-10.5-1-15.6-2.5
	c-4-1.2-7.3-3.5-10.1-6.5c-3.2-3.4-4.5-7.5-4.5-11.9c0.1-34.5,0.3-68.9,0.5-103.4c0.2-34.9,0.4-69.8,0.5-104.8
	c0-2.2,0.5-4.1,2.1-5.6c1.1-1.1,2.2-1.7,3.8-1.7c0.6,0,1.1,0,1.7,0c19.9,0.3,39.7,0.5,59.6,0.7c3.5,0,6,1.4,7.7,4.6
	c12.4,23,25,46,37.5,69c3.5,6.4,9.1,8.5,16,5.9c2.4-0.9,4.7-2,6.9-3.3c43.3-24.5,86.7-49.1,129.9-73.8c3.1-1.8,6.1-2.6,9.6-2.6
	c21.6,0,43.2-0.1,64.7-0.2c0.4,0,0.8,0,1.1,0c3.9,0.1,5.9,1.9,6.4,5.8c0.1,0.7,0.1,1.5,0.1,2.3c0.4,38,0.7,75.9,1.1,113.9
	c0.1,10.5,0.2,21,0.4,31.5c0,2.3,0,2.3,2.3,2.3c4.8,0.1,9.7,0.2,14.4,1.2c30.7,6.6,54,23.2,67.3,52.1c19.8,42.9,3.5,93.6-37.5,118.3
	c-17.3,10.4-36.1,15.1-56.2,13.6c-23.6-1.7-43.9-10.9-60.4-27.9c-16.9-17.4-25.3-38.5-25.6-62.7C379.9,437.9,380.2,433.4,380.9,429z
	 M267.3,419.3c0,0.2,0,0.3,0,0.5c37.6,0,75.1,0,112.7,0c2.6,0,2.6,0,3.4-2.6c6.1-21.1,18.1-38.2,35.8-51.1
	c13.4-9.8,28.4-15.6,44.9-17.6c2.7-0.3,2.7-0.3,2.7-3c0-0.1,0-0.2,0-0.3c-0.4-47.2-0.8-94.5-1.3-141.7c0-0.5,0-0.9,0-1.4
	c0-0.8-0.4-1.2-1.2-1.2c-0.6,0-1.1,0-1.7,0c-20.1,0.1-40.1,0.2-60.2,0.3c-2.4,0-4.4,0.6-6.4,1.7c-43.5,24.7-87,49.4-130.4,74.1
	c-4.9,2.8-10.1,4.2-15.7,4.4c-5.8,0.3-10.8-1.5-14.8-5.9c-1.1-1.2-1.9-2.6-2.7-4c-12.3-22.6-24.6-45.2-36.8-67.8
	c-1.1-1.9-2.2-2.6-4.4-2.6c-17.2-0.2-34.4-0.4-51.7-0.7c-3.8-0.1-3.8-0.1-3.8,3.7c-0.3,65.2-0.6,130.4-0.9,195.7c0,2-0.1,4-0.2,6
	c-0.1,3.3,0.7,6.3,3.4,8.6c1.9,1.6,4,2.8,6.4,3.6c3.8,1.3,7.7,1.4,11.7,1.4C193.3,419.2,230.3,419.3,267.3,419.3z M388.8,436.2
	c-0.1,17.7,2.4,29.3,7.5,40.2c15.3,33,50.2,51.8,86.5,47.5c20.4-2.4,38.1-10.9,52.3-25.9c20.7-21.8,28.6-47.8,22-77.3
	c-8.1-36.5-40-62.4-77.5-64.1c-16.3-0.7-31.9,2.6-46.1,10.7C404.8,383.8,390.1,408.8,388.8,436.2z"/>
<path class="st0" d="M301.4,180.9c-50.3,0-100.7,0-151,0c-1.7,0-3.4,0-5.1-0.3c-3.1-0.5-4.7-2.2-4.8-5.4c-0.2-8.7-0.7-17.4-0.3-26.1
	c0.3-8,6.5-14,14.8-14.4c1.1-0.1,2.3,0,3.4,0c38.6,0.3,77.2,0.5,115.8,0.8c2.7,0,5.5-0.3,8.2,0.2c4.6,0.8,8.5,2.5,10.7,7
	c0.9,1.8,0.9,3.6,0.9,5.5c0.1,2-0.8,4.4,0.5,5.7c1.2,1.2,3.6,0.4,5.5,0.4c47.8,0.6,95.6,1.3,143.4,1.9c1.1,0,2.3,0,3.4,0
	c7.3-0.2,13.1,5.1,13.6,12.4c0.2,2.8-0.1,5.7-0.5,8.5c-0.3,2-1.5,3.2-3.5,3.6c-0.9,0.2-1.9,0.2-2.8,0.2
	C402.9,180.9,352.2,180.9,301.4,180.9C301.4,180.9,301.4,180.9,301.4,180.9z M300.3,172c49.3,0,98.6,0,147.9,0c0.7,0,1.3-0.1,2,0
	c1.4,0.2,1.8-0.6,1.8-1.8c0-0.7,0-1.3,0-2c-0.3-2.3-1.2-3.1-3.5-3.1c-41.2-0.6-82.5-1.1-123.7-1.7c-11.4-0.2-22.7-0.4-34-0.7
	c-3.7-0.1-5.1-1.6-5.2-5.2c-0.1-2.6,0-5.3-0.2-7.9c-0.2-4.3-1.3-5.3-5.7-5.4c-0.3,0-0.6,0-0.9,0c-17.1-0.1-34.2-0.2-51.4-0.3
	c-23.9-0.1-47.9-0.2-71.8-0.4c-3.9,0-6.9,1.5-6.6,6.6c0.4,6.1,0.2,12.3,0.3,18.4c0,3.5,0,3.5,3.4,3.5C201.9,172,251.1,172,300.3,172
	z"/>
<path class="st0" d="M255.4,232.7c-7.3,0-14.6-6.6-15.3-13.4c-0.4-3.9,1.3-7.2,3.7-10.1c1.5-1.7,3.2-3.2,5.2-4.3
	c7.7-4.3,15.3-8.6,23-13c2-1.2,4.1-1.7,6.5-1.7c11.8-0.3,23.6-0.6,35.5-0.9c2.1-0.1,4,0.2,5.3,2.1c2.4,3.5,1.9,6.2-1.8,8.3
	c-17.9,10.3-35.7,20.5-53.6,30.8C261.1,232,258,232.4,255.4,232.7z M301,199c-0.1-0.2-0.1-0.3-0.2-0.5c-7.3,0.2-14.5,0.4-21.8,0.5
	c-1.3,0-2.4,0.4-3.5,1c-7.2,4.1-14.5,8.2-21.7,12.3c-1.5,0.8-2.9,1.8-4.1,2.9c-1.4,1.2-1.6,2.6-1,4.1c1.4,3.3,4.9,5,8.3,4.1
	c1.6-0.4,3-1.1,4.4-1.9c11.2-6.5,22.4-12.9,33.6-19.3C297.1,201.2,299,200.1,301,199z"/>
<path class="st1" d="M267.3,419.3c-37,0-74,0-111,0.1c-4,0-7.9-0.1-11.7-1.4c-2.4-0.8-4.5-2-6.4-3.6c-2.8-2.3-3.6-5.3-3.4-8.6
	c0.1-2,0.1-4,0.2-6c0.3-65.2,0.6-130.4,0.9-195.7c0-3.7,0-3.7,3.8-3.7c17.2,0.2,34.4,0.5,51.7,0.7c2.2,0,3.3,0.7,4.4,2.6
	c12.2,22.6,24.5,45.2,36.8,67.8c0.8,1.4,1.5,2.8,2.7,4c4,4.3,9,6.1,14.8,5.9c5.5-0.3,10.8-1.6,15.7-4.4
	c43.5-24.7,87-49.4,130.4-74.1c2-1.2,4.1-1.7,6.4-1.7c20.1,0,40.1-0.2,60.2-0.3c0.6,0,1.1,0,1.7,0c0.8,0,1.2,0.3,1.2,1.2
	c0,0.5,0,0.9,0,1.4c0.4,47.2,0.8,94.5,1.3,141.7c0,0.1,0,0.2,0,0.3c0,2.7,0,2.7-2.7,3c-16.5,2-31.5,7.8-44.9,17.6
	c-17.7,12.9-29.7,30-35.8,51.1c-0.7,2.6-0.7,2.6-3.4,2.6c-37.6,0-75.1,0-112.7,0C267.3,419.6,267.3,419.4,267.3,419.3z"/>
<path class="st2" d="M300.3,172c-49.2,0-98.4,0-147.6,0c-3.4,0-3.4,0-3.4-3.5c-0.1-6.2,0.1-12.3-0.3-18.4c-0.3-5.1,2.7-6.7,6.6-6.6
	c23.9,0.2,47.9,0.3,71.8,0.4c17.1,0.1,34.2,0.2,51.4,0.3c0.3,0,0.6,0,0.9,0c4.4,0.1,5.5,1.1,5.7,5.4c0.1,2.6,0.1,5.3,0.2,7.9
	c0.1,3.7,1.5,5.1,5.2,5.2c11.3,0.3,22.7,0.5,34,0.7c41.2,0.6,82.5,1.1,123.7,1.7c2.3,0,3.2,0.9,3.5,3.1c0.1,0.7,0,1.3,0,2
	c0,1.2-0.4,2-1.8,1.8c-0.7-0.1-1.3,0-2,0C398.8,172,349.5,172,300.3,172z"/>
<path class="st2" d="M301,199c-1.9,1.1-3.9,2.2-5.8,3.3c-11.2,6.4-22.4,12.9-33.6,19.3c-1.4,0.8-2.8,1.5-4.4,1.9
	c-3.5,0.9-7-0.9-8.3-4.1c-0.6-1.5-0.4-2.9,1-4.1c1.3-1.1,2.7-2.1,4.1-2.9c7.2-4.1,14.4-8.2,21.7-12.3c1.1-0.6,2.2-1,3.5-1
	c7.3-0.2,14.5-0.4,21.8-0.5C300.9,198.6,300.9,198.8,301,199z"/>
<path class="st3" d="M475.1,510.9c-35.1,0.2-64.7-25-69.7-58.7c-4.5-30.5,11.3-60.6,39.2-74c21.7-10.4,43.7-10.2,64.9,1.3
	c19.6,10.6,31.3,27.5,35,49.6c6,36.4-18.4,73.3-58,80.7C482.5,510.6,478.5,510.8,475.1,510.9z M472.2,379.7
	c-16.3,0.4-32.9,8.2-45.5,24c-20.5,25.6-17.3,62.9,7.7,83.8c19.9,16.7,42.5,19.3,66.1,8.7c24.8-11.1,40.2-38,35.2-66.7
	C530.6,400.3,505.6,379.7,472.2,379.7z"/>
<path class="st3" d="M475.5,455.5c-9.3,0.1-16.9-7.4-16.9-16.6c0-9.1,7.3-16.4,16.4-16.4c9.3,0,17,7.5,17,16.7
	C492.1,448.1,484.7,455.5,475.5,455.5z M475.1,431.3c-4.2,0-7.7,3.3-7.8,7.4c-0.1,4.3,3.8,8.1,8.2,8c4.2-0.1,7.6-3.4,7.6-7.6
	C483.1,434.8,479.5,431.3,475.1,431.3z"/>
<path class="st3" d="M437.9,456.1c-9.3,0-16.8-7.5-16.8-16.8c0-9.1,7.4-16.3,16.5-16.3c9.3,0,17,7.7,16.9,16.8
	C454.5,448.9,447.1,456.1,437.9,456.1z M445.7,439.7c0-4.3-3.5-7.9-8-7.9c-4.2,0-7.7,3.3-7.8,7.4c-0.1,4.3,3.8,8.1,8.2,8.1
	C442.3,447.3,445.7,443.9,445.7,439.7z"/>
<path class="st3" d="M512.1,455.5c-9.3,0-16.9-7.4-16.9-16.6c-0.1-9,7.3-16.4,16.4-16.5c9.4-0.1,17.1,7.5,17,16.8
	C528.6,448.2,521.3,455.5,512.1,455.5z M504.1,438.9c0,4.3,3.6,7.9,8,7.9c4.2,0,7.6-3.3,7.7-7.5c0.1-4.4-3.7-8.1-8.2-8
	C507.4,431.4,504.1,434.7,504.1,438.9z"/>
<path class="st4" d="M114.7,242.6l11.7,11.7c2.8,2.8,7.3,2.8,10.1,0l11.7-11.7c2.8-2.8,2.8-7.3,0-10.1l-11.7-11.7
	c-2.8-2.8-7.3-2.8-10.1,0l-11.7,11.7C111.9,235.3,111.9,239.8,114.7,242.6z"/>
<path class="st4" d="M114.7,276.7l11.7,11.7c2.8,2.8,7.3,2.8,10.1,0l11.7-11.7c2.8-2.8,2.8-7.3,0-10L136.5,255
	c-2.8-2.8-7.3-2.8-10.1,0l-11.7,11.7C111.9,269.4,111.9,273.9,114.7,276.7z"/>
<path class="st3" d="M412.5,519.4l9.2,9.2c1.3,1.3,3.5,1.3,4.9,0l9.2-9.2c1.3-1.3,1.3-3.5,0-4.9l-9.2-9.2c-1.3-1.3-3.5-1.3-4.9,0
	l-9.2,9.2C411.1,515.9,411.1,518,412.5,519.4z"/>
<circle class="st5" cx="474.1" cy="440.1" r="88.5"/>
</svg>
