<?xml version="1.0" encoding="utf-8"?>
<!-- Generator: Adobe Illustrator 28.0.0, SVG Export Plug-In . SVG Version: 6.00 Build 0)  -->
<svg version="1.1" id="Capa_1" xmlns="http://www.w3.org/2000/svg" xmlns:xlink="http://www.w3.org/1999/xlink" x="0px" y="0px"
	 viewBox="0 0 600 600" style="enable-background:new 0 0 600 600;" xml:space="preserve">
<style type="text/css">
	.st0{fill:#090909;}
	.st1{fill:#FFFFFF;}
	.st2{fill:#FF5500;}
	.st3{fill:#6EE1EB;}
	.st4{fill:none;stroke:#FF5500;stroke-width:11;stroke-miterlimit:10;}
</style>
<path class="st0" d="M387.4,402c-1-0.4-2-0.2-2.9-0.2c-93.9,0.6-187.8,1.1-281.8,1.7c-1.1,0-2.3,0-3.4-0.1c-2.8-0.4-4-2.2-3.4-4.9
	c1.7-7.3,4.3-14.3,6.5-21.5c3.4-11.2,7-22.3,10.5-33.5c1.4-4.5,2.6-5.4,7.5-5.4c79.7-0.3,159.3-0.5,239-0.8
	c25.5-0.1,51-0.2,76.5-0.3c3.4,0,4.4,0.7,5.7,3.9c1.2,3,2.5,6.1,3.6,9.1c0.4,1.2,0.9,1.5,2.2,1.1c12.9-3.9,26.2-4.5,39.5-2.9
	c9.2,1.1,17.9,3.9,26.2,7.9c26.4,12.8,43.6,33.4,50,62.1c6.5,29.1-0.4,55.5-19.2,78.4c-15.7,19.2-36.2,30.5-60.7,33.6
	c-30.4,3.8-56.9-5.1-78.6-26.9c-15.4-15.5-23.7-34.6-25.3-56.5c-1.1-14.7,1.5-28.9,7.3-42.5C387,403.6,387.6,402.9,387.4,402z
	 M106.3,394.6c1,0.4,2,0.2,3,0.2c17.7-0.1,35.4-0.3,53.1-0.4c75.7-0.4,151.4-0.9,227.2-1.3c2.1,0,3.3-0.6,4.5-2.5
	c6.9-10.9,15.9-19.8,26.5-27.2c4.9-3.4,10.2-5.9,15.5-8.4c1.1-0.5,1.7-1,1-2.3c-0.8-1.6-1.3-3.3-2-5c-0.9-2.3-0.9-2.3-3.4-2.3
	c-54.3,0.2-108.5,0.4-162.8,0.6c-48.4,0.2-96.7,0.3-145.1,0.5c-3.5,0-2.8-0.1-3.6,2.6c-4.5,14.3-9,28.6-13.5,42.8
	C106.5,392.9,106,393.7,106.3,394.6z M387.9,435.1c0,17.5,2.5,29,7.5,39.6c15.3,32.8,49.9,51.3,85.7,46.9
	c21.6-2.6,39.9-12,54.3-28.3c18-20.5,25-44.4,19.9-71.2c-7.1-37.5-39.2-64.4-77.7-66.1c-16.1-0.7-31.4,2.6-45.3,10.6
	C403.8,382.9,389.2,407.8,387.9,435.1z"/>
<path class="st0" d="M274.2,165.7c-0.1-6.6-0.3-13.2-0.4-19.7c0-1.3-0.6-1.5-1.7-1.5c-5.6,0-11.2,0-16.9,0c-0.8,0-1.7,0-2.5-0.1
	c-2.2-0.4-3.7-2.2-3.6-4.3c0.1-2.2,1.6-3.8,3.9-4.1c0.7-0.1,1.5-0.1,2.2-0.1c15.1,0,30.2-0.1,45.3-0.1c0.9,0,1.9,0,2.8,0.1
	c2.1,0.3,3.6,2,3.7,4c0.1,2-1.2,3.8-3.3,4.3c-0.8,0.2-1.7,0.2-2.5,0.2c-5.2,0-10.5,0-15.7,0c-0.9,0-1.9-0.2-2.6,0.1
	c0,4.4,0,8.7,0,13c0,2.1,0,4.1,0.1,6.2c0,2,0.1,2,1.9,2.1c5.6,0.3,11.2,0.7,16.8,1.5c31.2,4.6,58.8,17.1,82.2,38.3
	c22.3,20.2,36.9,45,43.7,74.4c2.5,10.7,3.6,21.6,3.5,32.6c0,2.9-0.3,2.6,2.7,2.7c3.1,0,6.2,0,9.3,0c1.5,0,2.8,0.5,3.8,1.6
	c2.1,2.4,0.8,6.2-2.3,6.9c-1,0.2-2,0.2-3.1,0.2c-109,0-218,0-327.1,0c-0.7,0-1.5,0-2.2-0.1c-2.6-0.3-4.3-2-4.2-4.3
	c0-2.3,1.8-4.1,4.4-4.2c2.1-0.1,4.1,0,6.2-0.1c1.9-0.1,4.2,0.8,5.4-0.3c1.4-1.2,0.5-3.5,0.6-5.4c1.5-53.5,33-100.9,80.5-125.7
	c17.6-9.2,36.3-15,56.1-17.1C265.4,166.4,269.8,166.1,274.2,165.7z M277.7,315.4c28,0,56,0,84.1,0c19.4,0,38.8,0,58.2,0
	c2.4,0,2.4,0,2.4-2.2c0.2-10.4-0.8-20.8-3.2-30.9c-7.7-33-25.4-59.6-52.7-79.4c-33.9-24.6-72-32.8-113.2-26.1
	c-28.7,4.7-54,16.9-75.4,36.8c-28.6,26.6-43.9,59.4-44.7,98.7c-0.1,3.1,0,3.1,3,3.1C183.4,315.4,230.5,315.4,277.7,315.4z"/>
<path class="st1" d="M106.3,394.6c-0.3-0.9,0.2-1.7,0.5-2.5c4.5-14.3,9-28.6,13.5-42.8c0.9-2.7,0.1-2.6,3.6-2.6
	c48.4-0.2,96.7-0.3,145.1-0.5c54.3-0.2,108.5-0.4,162.8-0.6c2.5,0,2.5,0,3.4,2.3c0.7,1.6,1.2,3.4,2,5c0.6,1.3,0.1,1.8-1,2.3
	c-5.3,2.5-10.7,5-15.5,8.4c-10.6,7.3-19.6,16.2-26.5,27.2c-1.1,1.8-2.3,2.4-4.5,2.5c-75.7,0.4-151.4,0.8-227.2,1.3
	c-17.7,0.1-35.4,0.3-53.1,0.4C108.3,394.7,107.3,394.9,106.3,394.6z"/>
<path class="st1" d="M277.7,315.4c-47.1,0-94.3,0-141.4,0c-3.1,0-3.1,0-3-3.1c0.8-39.3,16.1-72.1,44.7-98.7
	c21.3-19.9,46.7-32.1,75.4-36.8c41.2-6.8,79.2,1.5,113.2,26.1c27.4,19.8,45,46.4,52.7,79.4c2.4,10.2,3.4,20.5,3.2,30.9
	c0,2.2-0.1,2.2-2.4,2.2c-19.4,0-38.8,0-58.2,0C333.7,315.4,305.7,315.4,277.7,315.4z"/>
<path class="st2" d="M473.3,508.8c-34.6,0.1-63.7-24.7-68.8-58c-4.6-30,11.1-60.1,38.7-73.4c21.5-10.3,43.2-10.2,64.2,1.1
	c19.6,10.6,31.2,27.3,34.8,49.4c5.9,36.6-18.9,72-55.9,79.4C481.7,508.3,477.2,508.6,473.3,508.8z M470.7,378.8
	c-16.2,0.4-32.7,8.1-45.2,23.7c-20.4,25.5-16.9,62.2,7.6,83.2c20.9,17.9,52.1,19.4,74.8,3c20.6-14.9,29.4-35.4,25.4-60.5
	C528.9,399.4,503.8,378.9,470.7,378.8z"/>
<path class="st2" d="M473.5,463.7c-4.2,4.4-8.1,8.4-12,12.4c-1.4,1.5-2.9,2.9-4.6,4.1c-2,1.3-4,1.4-6.1,0.4
	c-1.3-0.6-2.4-1.4-3.5-2.4c-4.6-4.5-9.3-9-13.9-13.6c-0.6-0.6-1.2-1.2-1.7-1.9c-1.4-1.9-1.7-3.9-0.7-6.1c1.1-2.2,2.5-4.2,4.2-5.9
	c4.1-4.3,8.2-8.5,12.3-12.9c-0.4-1-1.3-1.6-2-2.3c-4-4-8-7.9-12-11.8c-0.3-0.3-0.5-0.5-0.8-0.8c-2.9-3.4-3-6.3-0.2-9.9
	c1.3-1.7,2.8-3.3,4.3-4.8c3.6-3.6,7.2-7.1,10.8-10.7c3.2-3.2,5.4-3.4,9.3-1.1c1.7,1,3.2,2.3,4.6,3.7c3.6,3.6,7.2,7.1,10.9,10.6
	c1.4,1.4,1.4,1.4,2.8,0c4.6-4.6,9.1-9.2,13.6-13.8c0.1-0.1,0.3-0.3,0.4-0.4c3.9-3.5,7.1-3.6,10.9-0.1c5.3,5,10.5,10.2,15.6,15.4
	c2.3,2.3,2.4,4.6,0.9,7.5c-1.3,2.4-3,4.5-5,6.4c-3.6,3.6-7.3,7.3-10.9,11c-1.4,1.4-1.4,1.4,0,2.9c4.4,4.4,8.7,8.8,13.1,13.1
	c0.3,0.3,0.6,0.7,0.9,1.1c2.6,3.3,2.7,5.7,0.4,9.2c-0.5,0.7-1,1.3-1.6,1.9c-4.6,4.6-9.3,9.3-13.9,13.9c-0.4,0.4-0.8,0.8-1.3,1.1
	c-2,1.6-4.2,1.9-6.5,0.8c-2.3-1.2-4.3-2.7-6-4.5C481.8,472.1,477.8,468.1,473.5,463.7z M458.3,437.8c-0.1,1.7-1,3-2.2,4.1
	c-4.3,4.3-8.5,8.7-12.8,13.1c-0.5,0.5-1.1,1.1-1.5,1.6c-1.3,1.7-1.3,2.7,0.2,4.2c1.4,1.4,2.8,2.8,4.2,4.1c1.6,1.6,3.2,3.2,4.8,4.7
	c1.8,1.6,2.6,1.6,4.3,0.1c0.6-0.5,1.1-1,1.6-1.6c3.7-3.8,7.3-7.6,11-11.3c4.6-4.6,6.3-4.6,10.9,0c4.1,4,8.1,8.1,12.2,12.1
	c0.5,0.5,1.1,1.1,1.7,1.5c1,0.6,2.2,0.8,3.1-0.1c3.3-3.3,6.7-6.6,9.9-9.9c1-1,1-2.2,0.1-3.3c-0.5-0.7-1.1-1.3-1.7-1.9
	c-3.4-3.4-6.9-6.9-10.3-10.3c-1-1-2-2-3-3c-1.8-2.1-1.9-3.5-0.6-5.9c1-1.8,2.3-3.4,3.7-4.9c3.9-3.9,7.8-7.9,11.6-11.8
	c2.1-2.2,2.1-3,0-5.2c-2.8-2.9-5.7-5.7-8.6-8.5c-1.8-1.7-2.6-1.7-4.6-0.1c-0.5,0.4-0.9,0.9-1.4,1.4c-4.1,4.1-8.1,8.3-12.2,12.4
	c-3.3,3.3-6.6,3.4-10.1,0.1c-3.1-2.9-6-5.9-9-8.8c-1.5-1.4-3-2.8-4.6-4.2c-2-1.6-2.5-1.6-4.3,0.2c-2.9,2.8-5.7,5.7-8.5,8.6
	c-1.9,2-1.9,2.9,0,5c0.4,0.4,0.8,0.8,1.2,1.2c4.2,4.1,8.3,8.1,12.5,12.2C457.2,434.8,458.2,436,458.3,437.8z"/>
<path class="st3" d="M115.6,274.4l11,11c2.6,2.6,6.9,2.6,9.5,0l11-11c2.6-2.6,2.6-6.9,0-9.5l-11-11c-2.6-2.6-6.9-2.6-9.5,0l-11,11
	C112.9,267.6,112.9,271.8,115.6,274.4z"/>
<path class="st3" d="M115.6,306.6l11,11c2.6,2.6,6.9,2.6,9.5,0l11-11c2.6-2.6,2.6-6.9,0-9.5l-11-11c-2.6-2.6-6.9-2.6-9.5,0l-11,11
	C112.9,299.8,112.9,304,115.6,306.6z"/>
<path class="st2" d="M401.4,508.8l8.7,8.7c1.3,1.3,3.3,1.3,4.6,0l8.7-8.7c1.3-1.3,1.3-3.3,0-4.6l-8.7-8.7c-1.3-1.3-3.3-1.3-4.6,0
	l-8.7,8.7C400.2,505.5,400.2,507.5,401.4,508.8z"/>
<circle class="st4" cx="472.4" cy="439.5" r="88.5"/>
</svg>
