<?xml version="1.0" encoding="utf-8"?>
<!-- Generator: Adobe Illustrator 28.0.0, SVG Export Plug-In . SVG Version: 6.00 Build 0)  -->
<svg version="1.1" id="Capa_1" xmlns="http://www.w3.org/2000/svg" xmlns:xlink="http://www.w3.org/1999/xlink" x="0px" y="0px"
	 viewBox="0 0 600 600" style="enable-background:new 0 0 600 600;" xml:space="preserve">
<style type="text/css">
	.st0{fill:#0A0A0A;}
	.st1{fill:#FFFFFF;}
	.st2{fill:#29E4A5;}
	.st3{fill:#6EE1EB;}
	.st4{fill:none;stroke:#29E4A5;stroke-width:11;stroke-miterlimit:10;}
</style>
<path class="st0" d="M387.2,401.9c-1,0-2.1,0-3.2,0c-87.3,0.5-174.5,1.1-261.8,1.6c-6.8,0-13.7,0.1-20.5,0.1c-1.1,0-2.2,0.1-3.3-0.4
	c-2-0.9-2.8-2.3-2.3-4.5c1.6-6.8,4-13.4,6.1-20.1c3.6-11.7,7.3-23.4,11-35c0.2-0.7,0.4-1.4,0.7-2.1c0.8-1.9,2.2-3,4.3-3.1
	c0.9-0.1,1.9-0.1,2.8-0.1c104.5-0.4,209-0.7,313.5-1.1c0.7,0,1.3,0,2,0c2.4-0.2,3.9,1,4.8,3.1c1.3,3.1,2.5,6.3,3.7,9.4
	c0.8,2,0.8,2,2.8,1.4c9.3-2.6,18.7-3.9,28.3-3.5c5.3,0.2,10.7,0.3,15.9,1.6c37.1,9.2,62,31.4,70.9,69c7.2,30.4-0.8,57.7-21.4,81.1
	c-15,17.1-34.1,27.4-56.6,30.6c-30.9,4.4-57.9-4.2-80.1-26.3c-15.7-15.6-24-34.8-25.6-56.8c-1.1-14.6,1.5-28.7,7.3-42.2
	C386.9,403.7,387.5,403.1,387.2,401.9z M106.2,394.5c1.2,0.5,2.1,0.3,3.1,0.3c36.5-0.2,73-0.4,109.5-0.7c56.9-0.3,113.8-0.7,170.7-1
	c2.1,0,3.3-0.7,4.4-2.5c9.3-14.2,21.4-25.4,36.8-32.9c2.2-1.1,4.7-1.8,6.6-3.5c-0.9-2.4-1.8-4.7-2.7-7.1c-0.4-1-0.9-1.6-2-1.4
	c-0.6,0.1-1.3,0-2,0c-36.1,0.2-72.3,0.3-108.4,0.5c-66.1,0.2-132.2,0.4-198.3,0.7c-3.4,0-2.6-0.5-3.6,2.6
	c-3.9,12.2-7.7,24.4-11.6,36.6C108,388.8,107.1,391.6,106.2,394.5z M473.7,356.1c-2.7,0.1-5.4,0.2-8.1,0.4c-1.7,0.1-3.4,0.3-5,0.6
	c-23.2,3.9-42.4,14.8-56.1,33.9c-18.9,26.2-22.3,54.6-8.9,84.1c14.9,32.7,50.2,51.8,87.7,46.3c22.7-3.3,41.7-14,55.5-32.4
	c19.4-25.6,23.9-54,10.9-83.6C535.3,372.9,508.6,357.7,473.7,356.1z"/>
<path class="st0" d="M277.8,324.4c-54.2,0-108.4,0-162.6,0c-1,0-2.1,0.1-3.1-0.1c-2.4-0.3-4-2-4-4.3c0-2.2,1.5-4,4-4.3
	c2.4-0.2,4.9-0.1,7.3-0.2c1.6-0.1,3.7,0.7,4.8-0.4c1.1-1,0.3-3,0.4-4.6c2.1-48.6,23.6-86.8,62.6-115.3
	c20.1-14.7,42.9-23.4,67.5-27.2c5.7-0.9,11.5-1.5,17.3-1.7c2.2-0.1,2.2-0.1,2.1-2.2c-0.1-5.8-0.3-11.6-0.4-17.4c0-1.6-0.6-1.9-2-1.9
	c-5.4,0.1-10.9,0.1-16.3,0.1c-1.1,0-2.2,0-3.3-0.3c-1.9-0.5-3-2-3.1-3.9c-0.1-1.9,0.9-3.4,2.7-4.2c0.9-0.4,1.8-0.4,2.8-0.4
	c15.6,0,31.3,0,46.9,0c1,0,2.1,0.1,3,0.5c1.6,0.8,2.6,2.4,2.4,4.1c-0.1,1.8-1.4,3.4-3.2,3.8c-1,0.2-2,0.2-3.1,0.2
	c-5.3,0-10.7,0-16,0c-2.2,0-2.2,0.1-2.1,2.2c0.1,5.6,0.2,11.2,0.4,16.8c0.1,2.4,0.1,2.4,2.5,2.5c16.2,0.6,32,3.5,47.2,9.1
	c37.8,13.9,66.4,38.5,84.3,74.8c9.7,19.5,14.1,40.3,14.1,62.1c0,0.6,0,1.1,0,1.7c-0.2,1.3,0.5,1.6,1.6,1.6c3,0,6,0,9,0
	c1,0,2.1,0,3.1,0.3c1.9,0.6,3,2.1,3.1,3.9c0.1,1.9-1,3.4-2.8,4.1c-1.2,0.5-2.4,0.4-3.6,0.4c-14.9,0-29.8,0-44.7,0
	C357,324.4,317.4,324.4,277.8,324.4z M277.5,315.6c46,0,92,0,137.9,0c1.6,0,3.2,0,4.8,0c1.9,0,1.9-0.1,2-2c0.4-18-2.8-35.5-9.8-52
	c-15.1-35.9-41.2-60.8-77-75.6c-25.2-10.4-51.5-13.3-78.5-9.3c-25.1,3.7-48,12.9-68.1,28.4c-35.2,27.2-54.3,62.8-55.4,107.6
	c-0.1,3.1,0,3.1,3.1,3.1C183.5,315.6,230.5,315.6,277.5,315.6z"/>
<path class="st1" d="M106.2,394.5c0.9-2.9,1.7-5.7,2.6-8.4c3.9-12.2,7.7-24.4,11.6-36.6c1-3,0.2-2.6,3.6-2.6
	c66.1-0.2,132.2-0.4,198.3-0.7c36.1-0.1,72.3-0.3,108.4-0.5c0.7,0,1.3,0.1,2,0c1.1-0.1,1.7,0.4,2,1.4c0.8,2.4,1.8,4.7,2.7,7.1
	c-1.9,1.7-4.3,2.4-6.6,3.5c-15.3,7.5-27.4,18.7-36.8,32.9c-1.2,1.8-2.3,2.5-4.4,2.5c-56.9,0.3-113.8,0.6-170.7,1
	c-36.5,0.2-73,0.4-109.5,0.7C108.4,394.8,107.4,395,106.2,394.5z"/>
<path class="st1" d="M277.5,315.6c-47,0-94,0-141,0c-3.1,0-3.2,0-3.1-3.1c1.1-44.8,20.3-80.5,55.4-107.6
	c20.1-15.5,43-24.7,68.1-28.4c27-4,53.3-1.1,78.5,9.3c35.8,14.8,61.9,39.8,77,75.6c7,16.6,10.1,34,9.8,52c0,2-0.1,2-2,2
	c-1.6,0-3.2,0-4.8,0C369.4,315.6,323.4,315.6,277.5,315.6z"/>
<path class="st2" d="M472,508.6c-34,0.1-62.7-24.5-67.8-57.7c-4.6-30.2,11.4-60.4,39.2-73.5c21.3-10,42.7-9.8,63.4,1.3
	c19.6,10.5,31.3,27.2,34.9,49.2c5.9,35.6-17.5,71.7-55.9,79.6c-2.6,0.5-5.2,0.9-7.8,1.1C476.2,508.7,474.1,508.6,472,508.6z
	 M534.1,438.5c-0.1-2.5-0.1-5.4-0.6-8.3c-3.4-21.1-14.6-36.6-33.8-45.5c-20.7-9.6-41.1-7.6-60.1,4.8c-25.5,16.8-34.6,49.9-21.4,77.1
	c11.8,24.3,38.4,37.1,64.4,32.6C512,494.2,533.9,468.7,534.1,438.5z"/>
<path class="st2" d="M525.8,422.1c-0.1,2.4-0.8,4.9-2.5,6.9c-1.1,1.3-2.2,2.5-3.4,3.7c-13.4,13.3-26.9,26.6-40.2,40
	c-3.6,3.6-7.4,6.8-11.2,10.2c-1.5,1.4-3.3,2.4-5.2,3.3c-3,1.5-5.9,1.3-8.8-0.6c-2.4-1.5-4.5-3.4-6.5-5.4
	c-7.6-7.8-15.2-15.7-22.8-23.6c-1.9-2-3.5-4.4-5-6.8c-2.2-3.5-1.8-7,0.6-9.9c3.8-4.7,8-9.2,12.9-12.9c0.9-0.7,2-1.1,2.9-1.6
	c3.7-2,7-1.2,10.1,1.3c2.6,2.1,4.9,4.6,7.4,6.9c1.8,1.7,3.5,3.4,5.2,5.1c0.8,0.8,1.3,0.8,2.1,0c2.4-2.5,4.9-4.9,7.3-7.4
	c9.3-9.4,18.7-18.7,28.2-27.8c2.7-2.6,5.6-4.7,9.7-4.1c2.1,0.3,4,1,5.5,2.6c3.2,3.3,6.4,6.6,9.5,10
	C524.1,414.9,525.8,418.1,525.8,422.1z M454.6,446.3c-4.4-4.3-8.3-8.2-12.3-12c-1.5-1.4-3.1-1.3-5.1,0.1c-3.4,2.5-6.4,5.4-9.1,8.7
	c-1.4,1.7-1.4,2.6-0.1,4.3c1.6,2.2,3.2,4.4,5.1,6.3c6.7,6.8,13.5,13.5,20.2,20.3c0.7,0.7,1.4,1.3,2.1,1.9c1.7,1.5,3.7,1.6,5.8,1
	c1.4-0.4,2.6-1.1,3.7-1.9c2.3-1.7,4.3-3.6,6.2-5.7c14.5-15.4,29.9-29.9,44.9-44.9c2.2-2.2,2.5-3.8,0.3-6.2c-2.9-3.2-5.9-6.2-9-9.3
	c-1.7-1.7-2.4-1.7-4.3-0.2c-1.9,1.4-3.4,3.2-5,4.9c-9.6,10.4-20,19.9-29.7,30.3c-3.5,3.8-7.2,7.4-10.9,11c-2.1,2-4.8,2.1-6.5,0.3
	c-1.7-1.7-1.6-4.2,0.4-6.3C452.2,448,453.4,447.3,454.6,446.3z"/>
<path class="st3" d="M116.7,274.3l11,11c2.6,2.6,6.9,2.6,9.5,0l11-11c2.6-2.6,2.6-6.9,0-9.5l-11-11c-2.6-2.6-6.9-2.6-9.5,0l-11,11
	C114.1,267.4,114.1,271.6,116.7,274.3z"/>
<path class="st3" d="M116.7,306.5l11,11c2.6,2.6,6.9,2.6,9.5,0l11-11c2.6-2.6,2.6-6.9,0-9.5l-11-11c-2.6-2.6-6.9-2.6-9.5,0l-11,11
	C114.1,299.6,114.1,303.9,116.7,306.5z"/>
<path class="st2" d="M402.6,508.6l8.7,8.7c1.3,1.3,3.3,1.3,4.6,0l8.7-8.7c1.3-1.3,1.3-3.3,0-4.6l-8.7-8.7c-1.3-1.3-3.3-1.3-4.6,0
	l-8.7,8.7C401.3,505.3,401.3,507.3,402.6,508.6z"/>
<path class="st2" d="M470.6,465.7l8.7,8.7c1.3,1.3,3.3,1.3,4.6,0l8.7-8.7c1.3-1.3,1.3-3.3,0-4.6l-8.7-8.7c-1.3-1.3-3.3-1.3-4.6,0
	l-8.7,8.7C469.4,462.3,469.4,464.4,470.6,465.7z"/>
<circle class="st4" cx="472.2" cy="439.4" r="88.5"/>
</svg>
