<?xml version="1.0" encoding="utf-8"?>
<!-- Generator: Adobe Illustrator 28.0.0, SVG Export Plug-In . SVG Version: 6.00 Build 0)  -->
<svg version="1.1" id="Capa_1" xmlns="http://www.w3.org/2000/svg" xmlns:xlink="http://www.w3.org/1999/xlink" x="0px" y="0px"
	 viewBox="0 0 600 600" style="enable-background:new 0 0 600 600;" xml:space="preserve">
<style type="text/css">
	.st0{fill:#0A0A0A;}
	.st1{fill:#FEFEFE;}
	.st2{fill:#FFFFFF;}
	.st3{fill:#DBB300;}
	.st4{fill:#6EE1EB;}
	.st5{fill:none;stroke:#DBB300;stroke-width:11;stroke-miterlimit:10;}
</style>
<path class="st0" d="M387.3,401.9c-1.2,0-2.3,0-3.4,0c-89.1,0.5-178.2,1.1-267.3,1.6c-5,0-9.9,0-14.9,0c-0.9,0-1.9,0-2.8-0.3
	c-2.1-0.8-3-2.4-2.5-4.6c0.6-2.5,1.3-5.1,2.1-7.5c5-15.9,10-31.7,15-47.5c0.2-0.6,0.4-1.3,0.6-1.9c0.8-2,2.3-3.2,4.5-3.3
	c0.9-0.1,1.9-0.1,2.8-0.1c104.3-0.4,208.7-0.7,313-1.1c0.5,0,0.9,0,1.4,0c3.2,0,4.2,0.6,5.5,3.7c1.2,2.9,2.3,5.9,3.5,8.8
	c0.8,1.9,0.8,1.9,2.8,1.3c11.4-3.1,22.9-4.2,34.7-3.1c39.8,3.6,73.9,33.3,81.1,73.9c6.8,38.1-11.5,76-44.5,95.5
	c-17.9,10.6-37.4,15-58.1,12.8c-22.1-2.3-41.1-11.3-56.6-27.3c-15.2-15.6-23.4-34.5-25.1-56.1c-1.1-14.7,1.4-28.8,7.3-42.4
	C386.8,403.7,387.3,403.1,387.3,401.9z M106.8,394.5c0.9,0.5,1.8,0.2,2.7,0.2c37.6-0.2,75.2-0.4,112.7-0.7
	c55.7-0.3,111.4-0.7,167.1-1c2.1,0,3.3-0.6,4.5-2.4c9.5-14.5,21.9-25.9,37.7-33.4c1.9-0.9,3.8-1.9,5.8-2.9c-1-2.6-2-5-2.9-7.4
	c-0.3-1-0.9-1.4-1.9-1.3c-0.6,0.1-1.3,0-2,0c-102.2,0.4-204.3,0.7-306.5,1.1c-3.2,0-2.5-0.4-3.4,2.5c-4.5,14.1-8.9,28.3-13.4,42.5
	C107.1,392.7,106.6,393.5,106.8,394.5z M470.3,522.2c4.2,0,8.3-0.3,12.4-0.9c21.8-3.4,40-13.4,54.2-30.3c22.2-26.5,25.6-64,8.6-93.6
	c-16.9-29.5-50.5-45.7-85.3-40.2c-23,3.6-42,14.6-55.7,33.5c-19.1,26.2-22.9,54.9-8.9,84.4C410.3,506.1,436.5,520.6,470.3,522.2z"/>
<path class="st0" d="M278.1,324.4c-54.1,0-108.3,0-162.4,0c-1.1,0-2.3,0.1-3.4-0.1c-2.4-0.4-3.9-2.2-3.9-4.4
	c0.1-2.1,1.5-3.9,3.9-4.1c3.1-0.2,6.2-0.2,9.2-0.2c3.4,0,3.3,0,3.4-3.2c1.1-42.8,17.9-78.4,49.7-106.8c22-19.7,47.8-31.6,76.8-36.8
	c6.8-1.2,13.7-2,20.6-2.3c2.3-0.1,2.3-0.1,2.3-2.4c-0.1-5.7-0.3-11.4-0.4-17.1c0-1.9-0.1-2-2.1-2c-5.4,0-10.8,0-16.3,0
	c-1,0-2.1,0-3.1-0.3c-2-0.5-3.2-2.1-3.3-4c0-1.9,1-3.4,2.9-4.1c0.9-0.3,1.8-0.4,2.8-0.4c15.5,0,31,0,46.6,0c1.1,0,2.2,0.1,3.3,0.6
	c1.5,0.8,2.5,2.5,2.3,4.2c-0.2,1.7-1.4,3.2-3.1,3.6c-1,0.2-2,0.3-3.1,0.3c-5.4,0-10.8,0-16.3,0.1c-2,0-2,0.1-2,2
	c0.1,5.6,0.2,11.2,0.4,16.8c0,2.3-0.5,2.5,2.6,2.6c17.2,0.6,33.9,4,50,10.2c32.6,12.7,58.3,33.7,76.1,64
	c10.2,17.4,16.3,36.2,18.3,56.3c0.5,5.4,0.8,10.8,0.8,16.2c0,2.4,0,2.2,2.3,2.2c2.7,0,5.4,0,8.1,0c0.9,0,1.9,0,2.8,0.2
	c2.2,0.5,3.5,2.1,3.5,4.1c0,2-1.3,3.7-3.4,4.2c-1.2,0.2-2.4,0.2-3.6,0.2C386.3,324.4,332.2,324.4,278.1,324.4z M277.9,315.7
	c45.8,0,91.6,0,137.5,0c1.6,0,3.2,0,4.8,0c1.9,0,1.9-0.1,2-2.1c0.4-18-2.8-35.4-9.8-52c-15.1-35.8-41.2-60.8-76.9-75.5
	c-25.2-10.4-51.4-13.3-78.4-9.3c-25.1,3.7-48,12.8-68,28.3c-35.1,27.1-54.2,62.7-55.3,107.5c-0.1,3,0,3,3.1,3
	C183.8,315.7,230.8,315.7,277.9,315.7z"/>
<path class="st1" d="M106.8,394.5c-0.3-1,0.3-1.8,0.6-2.7c4.4-14.2,8.9-28.3,13.4-42.5c0.9-2.9,0.2-2.5,3.4-2.5
	c102.2-0.4,204.3-0.7,306.5-1.1c0.7,0,1.3,0,2,0c1-0.1,1.5,0.3,1.9,1.3c0.9,2.4,1.9,4.9,2.9,7.4c-2,1-3.9,2-5.8,2.9
	c-15.8,7.4-28.2,18.8-37.7,33.4c-1.2,1.8-2.4,2.4-4.5,2.4c-55.7,0.3-111.4,0.6-167.1,1c-37.6,0.2-75.2,0.5-112.7,0.7
	C108.7,394.8,107.7,395,106.8,394.5z"/>
<path class="st2" d="M277.9,315.7c-47,0-94.1,0-141.1,0c-3.2,0-3.2,0-3.1-3c1.1-44.7,20.2-80.3,55.3-107.5
	c20.1-15.5,43-24.7,68-28.3c27-4,53.2-1.1,78.4,9.3c35.8,14.8,61.8,39.7,76.9,75.5c7,16.6,10.1,34,9.8,52c0,2-0.1,2-2,2.1
	c-1.6,0-3.2,0-4.8,0C369.5,315.7,323.7,315.7,277.9,315.7z"/>
<path class="st3" d="M472.9,508.6c-34.7,0-63.2-24.2-68.6-57.6c-4.9-29.9,11.3-60.6,39.2-73.7c21.2-10,42.7-9.8,63.3,1.3
	c19.5,10.5,31.2,27.2,34.8,49.2c6.1,37-19.3,72.9-57.2,79.7C480.3,508.2,476.2,508.6,472.9,508.6z M533.8,438.4
	c-0.1-2.5-0.1-5.4-0.6-8.3c-3.4-21-14.6-36.5-33.9-45.4c-19.9-9.2-39.7-7.7-58.4,3.8c-25.3,15.6-35.5,47-24.6,74.2
	c10.4,26,37.8,41.1,65.8,36.4C512,494,533.7,468.6,533.8,438.4z"/>
<path class="st3" d="M525.9,437.8c0,8.9-7.4,16.2-16.4,16.2c-9.1,0-16.7-7.6-16.7-16.6c0.1-8.9,7.5-16.2,16.4-16.1
	C518.5,421.2,525.9,428.7,525.9,437.8z M509.5,445.1c4.2,0,7.6-3.1,7.7-7.3c0.1-4.2-3.4-7.9-7.8-7.9c-4.3-0.1-7.8,3.2-7.8,7.4
	C501.7,441.7,505.1,445.1,509.5,445.1z"/>
<path class="st3" d="M456.8,437.5c0-9,7.2-16.2,16.2-16.3c9.1-0.1,16.8,7.5,16.8,16.5c0,8.9-7.3,16.2-16.3,16.3
	C464.4,454,456.8,446.6,456.8,437.5z M473.1,445.1c4.3,0.1,7.7-3,7.8-7.1c0.2-4.4-3.3-8.1-7.8-8.1c-4.2,0-7.6,3.2-7.8,7.2
	C465.3,441.4,468.8,445,473.1,445.1z"/>
<path class="st3" d="M419.7,437.9c0-8.9,7.4-16.2,16.3-16.1c9.1,0.1,16.8,7.6,16.6,16.6c-0.1,8.9-7.5,16.2-16.4,16.1
	C427.2,454.5,419.7,447,419.7,437.9z M436.2,445.7c4.3,0.1,7.6-3,7.8-7.1c0.1-4.4-3.4-8.1-7.9-8.1c-4.2,0-7.6,3.3-7.7,7.3
	C428.3,442,431.8,445.6,436.2,445.7z"/>
<path class="st4" d="M116.2,274.4l11,11c2.6,2.6,6.9,2.6,9.5,0l11-11c2.6-2.6,2.6-6.9,0-9.5l-11-11c-2.6-2.6-6.9-2.6-9.5,0l-11,11
	C113.6,267.6,113.6,271.8,116.2,274.4z"/>
<path class="st4" d="M116.2,306.6l11,11c2.6,2.6,6.9,2.6,9.5,0l11-11c2.6-2.6,2.6-6.9,0-9.5l-11-11c-2.6-2.6-6.9-2.6-9.5,0l-11,11
	C113.6,299.8,113.6,304,116.2,306.6z"/>
<path class="st3" d="M402.1,508.8l8.7,8.7c1.3,1.3,3.3,1.3,4.6,0l8.7-8.7c1.3-1.3,1.3-3.3,0-4.6l-8.7-8.7c-1.3-1.3-3.3-1.3-4.6,0
	l-8.7,8.7C400.8,505.5,400.8,507.5,402.1,508.8z"/>
<circle class="st5" cx="471.8" cy="439.3" r="88.5"/>
</svg>
