<?xml version="1.0" encoding="utf-8"?>
<!-- Generator: Adobe Illustrator 28.0.0, SVG Export Plug-In . SVG Version: 6.00 Build 0)  -->
<svg version="1.1" id="Capa_1" xmlns="http://www.w3.org/2000/svg" xmlns:xlink="http://www.w3.org/1999/xlink" x="0px" y="0px"
	 viewBox="0 0 600 600" style="enable-background:new 0 0 600 600;" xml:space="preserve">
<style type="text/css">
	.st0{fill:#090A0A;}
	.st1{fill:#FDFDFD;}
	.st2{fill:#FF5500;}
	.st3{fill:#6EE1EB;}
	.st4{fill:none;stroke:#FF5500;stroke-width:11;stroke-miterlimit:10;}
</style>
<path class="st0" d="M315.6,101.7c10.2-10.1,20.1-19.8,30-29.6c-0.2-1-1.1-1.3-1.7-1.8c-11.4-8.1-24.2-11.3-38-10.3
	c-18,1.3-33.2,8.7-45.4,22c-0.9,1-1.8,2.2-2.7,3.2c-1.8,1.9-4.2,2.1-6,0.6c-1.8-1.5-2.1-3.9-0.6-6.1c2.3-3.3,5.1-6.2,8.2-8.9
	c16.7-14.7,36.1-21.4,58.3-19.4c12.1,1.1,23.1,5.3,32.8,12.8c1,0.8,1.7,1.3,3.1,0.3c2.8-1.9,5.1-1.4,7.5,1
	c5.2,5.3,10.3,10.7,15.4,16c1,1.1,2.1,2.1,3.2,3.1c2.3,2.1,2.5,4.5,0.3,6.9c-1.7,1.8-3.5,3.4-5.2,5.2c-0.4,0.4-1.1,0.8-0.6,1.6
	c2.2,4.3,3,9.1,3.6,13.8c2.6,19.2-1.4,36.9-12.6,52.8c-1.4,2-2.9,3.8-4.7,6.1c1.4,0,2.3,0,3.2,0c6.6,0,13.1-0.1,19.7-0.1
	c0.8,0,1.7-0.1,2.5,0.1c3.8,0.7,5.5,2.6,5.5,6c0,9.3,0,18.6,0,27.9c0,0.5,0,0.9-0.1,1.4c-0.4,2.4-2.2,4.1-4.3,4
	c-2.2,0-3.9-1.6-4.3-4.1c-0.1-0.9-0.1-1.9-0.1-2.8c0-7.2,0-14.4,0-21.7c0-2.1,0-2.1-2.1-2.1c-4.3,0-8.6,0.1-12.9,0
	c-1.5,0-2,0.4-1.9,1.9c0.2,6.1,0.3,12.2,0.4,18.3c0,0.8,0.1,1.7,0,2.5c-0.3,2.7-1.8,4.2-4.5,4.5c-0.6,0.1-1.1,0-1.7,0
	c-7.4-0.1-14.8-0.4-22.2-0.3c-4.3,0-6.5-2.4-6.6-6.3c-0.1-6-0.2-12-0.4-18c-0.1-2.3-0.1-2.3-2.3-2.3c-4.4,0-8.8,0-13.2,0.1
	c-2.1,0-2.2,0-2.2,2.1c-0.1,7.2-0.1,14.4-0.1,21.7c-0.1,14.7-0.1,29.5-0.2,44.2c0,0.7,0,1.3,0,2c0,0.9,0.4,1.2,1.2,1.1
	c0.4,0,0.8,0,1.1,0c21.3-0.1,42.6-0.2,63.9-0.4c3.6,0,3.1,0.3,3.1-3.2c0-4,0-8.1,0-12.1c0-0.7,0-1.5,0.1-2.2
	c0.4-2.2,2.2-3.7,4.4-3.6c2.1,0.1,3.7,1.5,4.1,3.6c0.2,0.9,0.1,1.9,0.1,2.8c0,4.3,0,8.6,0,12.9c0,1.9,0.1,1.8,1.9,1.8
	c11.4-0.2,22.9-0.4,34.3,0c0.7,0,1.3,0.1,2,0.1c4.1,0.5,5.2,1.7,5.6,5.9c0.3,2.8,0.3,5.6,0.3,8.4c0,20.3-0.1,40.5-0.1,60.8
	c0,3.4-0.4,3,3,3c3.6,0,7.1,0.2,10.7-0.1c5.8-0.4,11.6,4.3,12.5,10.6c0.3,2,0.3,3.9,0.5,5.9c0.1,0.8-0.1,1.7,0.4,2.6
	c1.3-0.1,2.7-0.1,4.1-0.3c3.6-0.5,7.3-0.5,11-0.3c5.2,0.3,10.5,0.3,15.6,1.6c37,9.2,62,31.4,70.9,68.9c7.3,30.4-0.7,57.9-21.2,81.4
	c-15.6,17.9-35.5,28.3-59.1,31.1c-30.5,3.7-56.9-5.4-78.6-27.3c-15.3-15.5-23.3-34.5-25-56.1c-0.8-10,0.1-19.9,2.9-29.5
	c0.5-1.7,0.4-2.8-1.2-4c-6.1-4.8-9.8-11.2-11.4-18.8c-0.6-2.6-0.6-2.6-3.1-2.6c-26.8-0.1-53.7-0.1-80.5-0.2c-11.7,0-23.5,0-35.2,0
	c-2.5,0-2.5,0-3,2.4c-2.9,15.1-16.1,26.2-31.4,26.6c-15.2,0.4-28.4-9.7-32.2-24.7c-0.6-2.3-0.6-2.3-2.9-2.3
	c-4.8,0.1-9.6,0.3-14.3,0.2c-5.5,0-11.1-0.5-16.4-2.2c-1.8-0.6-3.5-1.3-5.2-2c-8.9-4-13.8-10.8-15.1-20.5c-0.4-2.8-0.7-5.6-0.5-8.4
	c0.2-5.3,0.2-10.5,0-15.8c0-1.4,0-2.8,0.5-4.2c0.7-1.8,2.3-2.8,4.2-2.7c1.8,0.1,3.2,1.1,3.8,2.9c0.3,0.9,0.3,1.8,0.3,2.8
	c0,6.3,0,12.6-0.1,18.9c0,3.3,0.5,6.5,1.4,9.7c0.7,2.5,2,4.7,4.1,6.3c4.5,3.5,9.6,5.4,15.1,6c0.7-0.6,0.5-1.3,0.5-2
	c0.2-79,0.5-158,0.7-237c0-3.1-1.3-5.7-2.8-8.1c-3.9-6-9.7-9.6-16.5-11.3c-2.6-0.6-5.2-0.3-7.8-0.3c-14.7,0.1-29.5,0.3-44.2,0.5
	c-2,0-2,0-2.1,2.2c0,4.5-0.1,9-0.1,13.5c0,2.6-0.2,2.5,2.4,2.4c14,0,28-0.1,41.9-0.1c1.4,0,2.8,0,4.2,0.4c2.2,0.6,3.3,1.9,3.5,4.2
	c0.1,1,0,2.1,0,3.1c-0.2,53.1-0.4,106.2-0.6,159.3c0,0.7,0,1.5-0.1,2.2c-0.3,2.3-2.1,3.7-4.2,3.7c-2.2,0-3.9-1.5-4.2-3.8
	c-0.1-1.1-0.1-2.2-0.1-3.4c0.2-51.2,0.4-102.5,0.6-153.7c0-3.8,0.6-3.4-3.5-3.4c-12.3,0-24.6,0.1-36.9,0.2c-0.7,0-1.3,0-2,0
	c-0.9-0.1-1.3,0.4-1.3,1.3c0,1.4,0,2.8,0,4.2c0,0.9,0,1.9-0.1,2.8c-0.3,2.5-1.9,4.1-4.2,4.1c-2.3,0-4.2-1.7-4.4-4.2
	c-0.1-2,0-3.9,0-5.9c0-2.3,0-2.3-2.3-2.3c-13.1,0-26.3,0-39.4,0.1c-1.9,0-3.7-0.1-5.6-0.5c-2.8-0.6-4-1.9-4.2-4.7
	c-0.1-1.2,0-2.4,0-3.7c0-6.7,0.1-13.3,0.2-20c0-0.8,0-1.5,0.1-2.2c0.3-2.7,2.1-4.1,4.8-4.1c15,0.3,30-0.5,45-0.3
	c1.4,0,1.8-0.5,1.8-1.8c-0.1-3.3,0.2-6.6-0.1-9.8c-0.2-2.3,1.2-4.2,3.1-4.7c2.3-0.6,4.2,0.2,5.3,2.1c0.6,1.1,0.5,2.2,0.5,3.3
	c0,3.6,0,7.1,0,10.7c1.3,0.3,2.5,0.2,3.7,0.1c14.6-0.2,29.3-0.4,43.9-0.5c11.9-0.1,21.7,4.4,29,13.9c3.9,5.2,5.6,10.9,5.5,17.6
	c-0.3,20.8-0.3,41.7-0.4,62.5c-0.1,38.4-0.2,76.7-0.3,115.1c0,3.1,0,3.1,3.2,3.1c2.9,0,5.8,0,8.7,0c3.3,0,2.9,0.3,2.9-2.8
	c0-6.4,0.1-12.8,0.1-19.1c0.1-16.2,0.2-32.5,0.2-48.7c0-2.8,0.8-4.9,3.4-6.3c1.2-0.7,2.5-0.6,3.8-0.6c10-0.1,20.1-0.2,30.1-0.3
	c3.5,0,3.1,0.4,3.2-3.2c0.3-22.7,0.6-45.4,0.9-68.1c0-1.8,0.3-3.5,1-5.2c1.1-2.5,2.9-3.5,5.5-3.5c2.8,0,5.6,0,8.4,0
	c6.4,0,12.7,0,18.9,0c0.5-0.7,0.1-0.9-0.1-1.1c-9.9-9.1-15.3-20.6-18.1-33.6c-1.9-9-2.2-18-1.1-27.1c0.1-0.6,0.2-1.3,0.4-1.9
	c0.7-2.2,2.7-3.5,4.7-3.2c2.1,0.3,3.6,2.1,3.7,4.3c0,0.6-0.1,1.3-0.2,2c-1.1,11.5-0.3,22.9,3.8,33.8c2.7,7.2,6.6,13.6,12.3,19
	c3.4,3.2,7.5,5.3,11.5,7.6c0.7,0.4,1.5,0.2,2.2,0.2c10.6,0,21.2,0.2,31.8-0.1c11.9-0.3,23.8-0.2,35.7-0.3c1.7,0,3-0.5,4.2-1.7
	c14.1-13.4,20.7-29.8,20.2-49.1c-0.1-4.7-0.8-9.3-2-13.9c-0.2-0.6-0.2-1.3-0.7-1.8c-0.9,0.1-1.4,0.9-1.9,1.5
	c-14.8,14.6-29.5,29.1-44.3,43.7c-1.3,1.3-2.9,2.4-4.3,3.6c-1.8,1.4-3.9,1.3-5.7-0.2c-0.6-0.5-1.2-1.2-1.8-1.8
	c-12.5-13-24.9-26-37.4-39c-1.1-1.2-2-2.4-2.7-3.9c-1.2-2.7-1.1-4.2,1.1-6.3c3.1-3.1,6.3-6.2,9.5-9.2c3-2.9,6-5.9,9.1-8.8
	c0.5-0.5,1.1-1,1.7-1.5c3.4-2.8,5.4-2.7,8.5,0.5c5.3,5.6,10.5,11.2,15.8,16.8C314.8,100.6,315.1,101.1,315.6,101.7z M168.2,385.8
	c4.2,0.1,8.3,0.3,12.4,0.4c2.7,0.1,2.7,0,3.1-2.7c2.1-15.3,15.2-27.3,30.6-28.1c15.7-0.8,29.4,9.4,33.2,24.8
	c0.8,3.1,0.8,3.1,3.9,3.1c38,0.1,76,0.2,114,0.3c1.3,0,2.9,0.6,3.8-0.3c0.7-0.7,0.7-2.3,0.9-3.4c0-0.2,0.1-0.4,0.2-0.5
	c6.3-21.7,31.9-31.1,50.4-17.8c0.9,0.7,1.6,1.2,2.9,0.4c8.6-5.2,17.8-9.3,27.6-11.5c1.1-0.3,1.6-0.7,1.5-1.9c-0.1-2.1,0-4.1-0.1-6.2
	c-0.1-3.8-0.7-4.3-4.4-4.3c-92.4,0.2-184.8,0.4-277.2,0.6c-0.5,0-0.9,0.1-1.4,0c-1.2-0.1-1.5,0.4-1.4,1.5c0,0.4,0,0.8,0,1.1
	c-0.1,14-0.1,28-0.2,41.9C168.2,383.9,168.2,384.8,168.2,385.8z M473.8,356.2c-2.2,0.1-4.5,0.2-6.7,0.3c-0.7,0-1.3,0.1-2,0.1
	c-22.5,2.6-41.5,12.3-56.5,29.3c-22.4,25.6-27.1,62.2-11.9,91.9c15.8,30.9,49.8,49.3,86.6,43.9c22.9-3.3,41.9-14.1,55.9-32.6
	c19.3-25.6,23.8-54,10.8-83.5C535.7,373.1,508.9,357.9,473.8,356.2z M425.9,259.4c-2.8,0-5.5,0-8.2,0c-3.4,0-6.8,0.1-10.1,0.1
	c-1,0-1.9,0.1-1.7,1.5c0.1,0.6,0,1.3,0,2c0.1,6.2,0.2,12.4,0.2,18.6c0,3.7-1.6,5.3-5.4,5.3c-2.9,0-5.8,0-8.7-0.1
	c-5.1-0.1-10.1-0.2-15.2-0.3c-2.5,0-4.3-1.1-5.2-3.5c-0.4-1.1-0.4-2.2-0.4-3.3c-0.1-6-0.3-12-0.4-18c0-1.4-0.4-2-1.9-1.9
	c-4.2,0.1-8.4,0.1-12.7,0.1c-3.5,0-3.1-0.5-3.1,3.2c-0.2,20.4-0.5,40.7-0.7,61.1c0,1.3,0,2.6-0.1,3.9c-0.1,1.1,0.4,1.6,1.5,1.5
	c0.5,0,0.9,0,1.4,0c22.5,0,45-0.1,67.5-0.1c0.7,0,1.3,0,2,0c0.8,0,1.2-0.3,1.2-1.2c0-0.7,0-1.5,0-2.3c0-20.2,0.1-40.3,0.1-60.5
	C425.9,263.5,425.9,261.5,425.9,259.4z M303.7,216c0.1,0,0.3,0,0.4,0c0-11.2,0-22.3,0-33.5c0-2.3,0-2.2-2.1-2.2
	c-4.6,0-9.2,0-13.8,0.1c-2.7,0-2.8-0.5-2.8,2.7c0.1,6.3,0.2,12.6,0.2,18.8c0,3.4-1.6,5.2-4.9,5.2c-8.2,0-16.5-0.2-24.7-0.4
	c-2.8-0.1-4.7-1.8-5.2-4.7c-0.1-0.8-0.1-1.7-0.1-2.5c-0.1-5.7-0.3-11.4-0.4-17.2c0-1.1-0.2-1.7-1.5-1.7c-4.5,0.1-9,0.1-13.5,0.1
	c-1.3,0-1.5,0.6-1.5,1.7c0,2.9-0.1,5.8-0.1,8.7c-0.3,19.4-0.6,38.8-0.9,58.2c0,2.5-0.3,2.5,2.3,2.5c22-0.1,44.1-0.3,66.1-0.4
	c2.8,0,2.5,0.1,2.5-2.6C303.7,237.9,303.7,227,303.7,216z M228.2,329.8c0-0.1,0-0.1,0-0.2c6.8,0,13.5,0,20.3,0c4.6,0,9.2,0,13.8,0
	c2.4,0,2.2,0.2,2.2-2.3c0-0.2,0-0.4,0-0.6c0.1-21,0.1-42,0.2-63c0-0.6,0-1.1,0-1.7c0.1-1.3-0.5-1.6-1.7-1.6c-5,0.1-9.9,0.1-14.9,0.1
	c-1.3,0-2,0.3-1.8,1.7c0.1,0.8,0,1.7,0,2.5c0.1,5.7,0.3,11.4,0.3,17.2c0,4-1.7,5.7-5.6,5.7c-7.9-0.1-15.8-0.2-23.6-0.4
	c-3.5-0.1-5.3-1.9-5.7-5.3c-0.1-1-0.1-2.1-0.1-3.1c-0.1-5.4-0.3-10.9-0.3-16.3c0-1.4-0.5-1.8-1.8-1.8c-5,0.1-9.9,0.1-14.9,0.1
	c-2.3,0-2.3,0-2.3,2.3c-0.1,21.4-0.2,42.8-0.2,64.2c0,2.4,0,2.4,2.5,2.4C205.7,329.8,216.9,329.8,228.2,329.8z M308.3,329.6
	c0,0,0-0.1,0-0.1c10.8,0,21.6,0,32.3,0c3.2,0,2.9,0.4,2.9-2.8c0.1-8.4,0.2-16.9,0.3-25.3c0.1-13,0.3-26.1,0.4-39.1
	c0-2.3,0-2.4-2.2-2.4c-4.5,0-9,0-13.5,0.1c-2.4,0-2.4,0.1-2.4,2.5c0.1,5.6,0.2,11.3,0.3,16.9c0,0.8,0.1,1.7,0,2.5
	c-0.2,3.2-1.9,4.8-5,4.8c-1.5,0-3,0-4.5,0c-6.6-0.1-13.1-0.2-19.7-0.4c-3.7-0.1-5.4-1.8-5.8-5.5c-0.1-0.9-0.1-1.9-0.1-2.8
	c-0.1-5.3-0.2-10.5-0.3-15.8c0-2-0.1-2-2-2c-4.5,0-9,0-13.5,0.1c-2.4,0-2.4,0-2.4,2.5c0,21.5-0.1,42.9-0.1,64.4
	c0,2.3-0.3,2.3,2.2,2.3C286.4,329.6,297.3,329.6,308.3,329.6z M370.8,88.5c-2.9-3-5.5-5.8-8.2-8.5c-1.7-1.8-3.4-3.5-5.1-5.3
	c-0.8-0.9-1.5-1-2.3,0c-0.4,0.4-0.8,0.8-1.2,1.2C342.9,87,331.7,98,320.5,109.1c-0.5,0.5-0.9,0.9-1.4,1.4c-2,1.8-4.5,1.8-6.7,0.2
	c-0.7-0.6-1.4-1.3-2-1.9c-4.8-5.1-9.5-10.1-14.3-15.2c-0.7-0.7-1.2-1.6-2.4-2.1c-5.2,5.1-10.5,10.2-15.8,15.4
	c12.1,12.6,24.1,25.1,36.1,37.6C333.1,125.7,351.9,107.2,370.8,88.5z M192,388.5c0,13.3,10.5,23.8,23.7,23.8
	c13.3,0,24.2-11,24.2-24.4c-0.1-13.1-10.7-23.9-23.4-23.8C202.7,364.1,192,374.9,192,388.5z M56.5,145.3c0-0.1,0-0.1,0-0.2
	c6.6,0,13.1,0,19.7,0c1.3,0,1.8-0.3,1.8-1.7c-0.1-4.9,0-9.7,0.1-14.6c0-1.5-0.5-1.9-2-1.8c-13,0.2-26,0.4-39,0.5c-1.4,0-2,0.3-2,1.8
	c0.1,4.7,0,9.4,0,14c0,1.9,0,2,2,2C43.6,145.3,50.1,145.3,56.5,145.3z M414.8,368.2c-8.3-6.3-24.6-6.3-33.4,7.2
	c-6.9,10.7-3.5,25.7,4.6,30.8C392.4,391.1,402,378.5,414.8,368.2z M357.1,189.4c-0.1,0-0.1,0-0.2,0c0-2.5,0-5,0-7.6
	c0-1.3-0.4-1.9-1.7-1.8c-4.9,0.1-9.7,0.2-14.6,0.1c-1.3,0-1.6,0.6-1.5,1.7c0.2,5,0.3,9.9,0.4,14.9c0,1.1,0.5,1.5,1.5,1.5
	c4.9,0,9.7,0.1,14.6,0.2c1.1,0,1.5-0.3,1.5-1.4C357.1,194.4,357.1,191.9,357.1,189.4z M237.8,270.1c-0.1,0-0.1,0-0.2,0
	c0-2.5-0.1-5,0-7.6c0-1.3-0.4-1.8-1.7-1.8c-4.9,0.1-9.7,0.1-14.6,0.1c-1.3,0-1.5,0.6-1.5,1.7c0.2,4.9,0.3,9.7,0.4,14.6
	c0,1.2,0.5,1.6,1.6,1.6c4.9,0,9.7,0.1,14.6,0.2c1.2,0,1.4-0.6,1.4-1.5C237.7,274.9,237.8,272.5,237.8,270.1z M276.9,189.6
	c-0.1,0-0.2,0-0.3,0c0-2.5,0-5.1,0-7.6c0-1-0.3-1.5-1.4-1.5c-5,0.1-9.9,0.1-14.9,0.1c-1.2,0-1.4,0.6-1.4,1.6
	c0.1,4.8,0.2,9.5,0.3,14.3c0,1.2,0.4,1.7,1.6,1.7c4.9,0,9.7,0.1,14.6,0.2c1.1,0,1.5-0.4,1.4-1.5
	C276.9,194.5,276.9,192.1,276.9,189.6z M397.4,269c-0.1,0-0.2,0-0.3,0c0-2.6,0-5.2,0-7.9c0-1-0.3-1.5-1.4-1.5
	c-5,0.1-9.9,0.1-14.9,0.1c-1.2,0-1.4,0.5-1.4,1.5c0.1,5,0.2,9.9,0.3,14.9c0,1.4,0.6,1.7,1.9,1.7c4.7,0,9.4,0.1,14,0.2
	c1.3,0,1.8-0.4,1.8-1.7C397.3,273.9,397.4,271.4,397.4,269z M317.7,269.2c-0.1,0-0.1,0-0.2,0c0-2.3-0.1-4.7,0-7c0-1.4-0.3-2-1.9-2
	c-4.8,0.1-9.6,0.1-14.3,0.1c-1.5,0-1.7,0.6-1.6,1.9c0.2,4.7,0.3,9.4,0.4,14.1c0,1.2,0.3,1.7,1.6,1.7c4.8,0,9.6,0.1,14.3,0.2
	c1.5,0,1.7-0.6,1.7-1.8C317.6,273.9,317.7,271.5,317.7,269.2z"/>
<path class="st1" d="M168.2,385.8c0-1.1,0-1.9,0-2.7c0.1-14,0.1-28,0.2-41.9c0-0.4,0-0.8,0-1.1c-0.1-1,0.3-1.6,1.4-1.5
	c0.5,0.1,0.9,0,1.4,0c92.4-0.2,184.8-0.4,277.2-0.6c3.7,0,4.3,0.6,4.4,4.3c0,2.1,0,4.1,0.1,6.2c0,1.2-0.4,1.6-1.5,1.9
	c-9.9,2.3-19,6.4-27.6,11.5c-1.4,0.8-2,0.3-2.9-0.4c-18.6-13.4-44.2-3.9-50.4,17.8c-0.1,0.2-0.1,0.4-0.2,0.5
	c-0.3,1.2-0.2,2.7-0.9,3.4c-0.9,0.9-2.5,0.3-3.8,0.3c-38-0.1-76-0.2-114-0.3c-3.2,0-3.2,0-3.9-3.1c-3.8-15.3-17.6-25.6-33.2-24.8
	c-15.4,0.8-28.5,12.9-30.6,28.1c-0.4,2.7-0.4,2.7-3.1,2.7C176.5,386.1,172.4,386,168.2,385.8z"/>
<path class="st1" d="M425.9,259.4c0,2.1,0,4.1,0,6c0,20.2-0.1,40.3-0.1,60.5c0,0.8,0,1.5,0,2.3c0,0.8-0.4,1.2-1.2,1.2
	c-0.7,0-1.3,0-2,0c-22.5,0-45,0.1-67.5,0.1c-0.5,0-0.9,0-1.4,0c-1.1,0.1-1.5-0.4-1.5-1.5c0.1-1.3,0.1-2.6,0.1-3.9
	c0.2-20.4,0.5-40.7,0.7-61.1c0-3.6-0.4-3.1,3.1-3.2c4.2-0.1,8.4,0,12.7-0.1c1.5,0,1.9,0.5,1.9,1.9c0.1,6,0.3,12,0.4,18
	c0,1.1,0,2.2,0.4,3.3c0.9,2.4,2.7,3.4,5.2,3.5c5.1,0.1,10.1,0.2,15.2,0.3c2.9,0,5.8,0.1,8.7,0.1c3.7,0,5.4-1.6,5.4-5.3
	c0-6.2-0.1-12.4-0.2-18.6c0-0.7,0.1-1.3,0-2c-0.2-1.4,0.7-1.5,1.7-1.5c3.4,0,6.8-0.1,10.1-0.1C420.4,259.4,423.1,259.4,425.9,259.4z
	"/>
<path class="st1" d="M303.7,216c0,11,0,21.9,0,32.9c0,2.8,0.3,2.6-2.5,2.6c-22,0.1-44.1,0.3-66.1,0.4c-2.7,0-2.4,0.1-2.3-2.5
	c0.3-19.4,0.6-38.8,0.9-58.2c0-2.9,0.1-5.8,0.1-8.7c0-1.1,0.2-1.7,1.5-1.7c4.5,0,9,0,13.5-0.1c1.3,0,1.5,0.6,1.5,1.7
	c0.1,5.7,0.3,11.4,0.4,17.2c0,0.8,0,1.7,0.1,2.5c0.5,2.8,2.3,4.6,5.2,4.7c8.2,0.2,16.5,0.4,24.7,0.4c3.3,0,4.9-1.8,4.9-5.2
	c0-6.3-0.1-12.6-0.2-18.8c0-3.2,0-2.7,2.8-2.7c4.6,0,9.2-0.1,13.8-0.1c2.1,0,2.1-0.2,2.1,2.2c0,11.2,0,22.3,0,33.5
	C304,216,303.8,216,303.7,216z"/>
<path class="st1" d="M228.2,329.8c-11.3,0-22.5,0-33.8,0c-2.4,0-2.5,0-2.5-2.4c0.1-21.4,0.2-42.8,0.2-64.2c0-2.2,0-2.3,2.3-2.3
	c5,0,9.9,0,14.9-0.1c1.3,0,1.8,0.4,1.8,1.8c0,5.4,0.2,10.9,0.3,16.3c0,1,0,2.1,0.1,3.1c0.4,3.4,2.2,5.2,5.7,5.3
	c7.9,0.2,15.8,0.3,23.6,0.4c3.9,0,5.6-1.7,5.6-5.7c0-5.7-0.2-11.4-0.3-17.2c0-0.8,0.1-1.7,0-2.5c-0.2-1.4,0.5-1.7,1.8-1.7
	c5,0,9.9,0,14.9-0.1c1.1,0,1.8,0.3,1.7,1.6c-0.1,0.6,0,1.1,0,1.7c-0.1,21-0.1,42-0.2,63c0,0.2,0,0.4,0,0.6c0,2.5,0.2,2.3-2.2,2.3
	c-4.6,0-9.2,0-13.8,0c-6.8,0-13.5,0-20.3,0C228.2,329.7,228.2,329.8,228.2,329.8z"/>
<path class="st1" d="M308.3,329.6c-11,0-21.9,0-32.9,0c-2.5,0-2.2,0-2.2-2.3c0-21.5,0.1-42.9,0.1-64.4c0-2.5,0-2.5,2.4-2.5
	c4.5,0,9-0.1,13.5-0.1c1.9,0,2,0,2,2c0.1,5.2,0.2,10.5,0.3,15.8c0,0.9,0,1.9,0.1,2.8c0.3,3.7,2.1,5.4,5.8,5.5
	c6.6,0.2,13.1,0.2,19.7,0.4c1.5,0,3,0.1,4.5,0c3.2-0.1,4.8-1.7,5-4.8c0.1-0.8,0-1.7,0-2.5c-0.1-5.6-0.2-11.2-0.3-16.9
	c0-2.5,0-2.5,2.4-2.5c4.5-0.1,9-0.1,13.5-0.1c2.2,0,2.3,0,2.2,2.4c-0.1,13-0.3,26.1-0.4,39.1c-0.1,8.4-0.2,16.9-0.3,25.3
	c0,3.2,0.2,2.8-2.9,2.8c-10.8,0-21.6,0-32.3,0C308.3,329.6,308.3,329.6,308.3,329.6z"/>
<path class="st1" d="M370.8,88.5c-19,18.7-37.7,37.2-56.7,56c-12.1-12.6-24-25-36.1-37.6c5.4-5.2,10.6-10.3,15.8-15.4
	c1.1,0.4,1.7,1.4,2.4,2.1c4.8,5,9.5,10.1,14.3,15.2c0.6,0.7,1.3,1.4,2,1.9c2.2,1.7,4.6,1.6,6.7-0.2c0.5-0.4,0.9-0.9,1.4-1.4
	C331.7,98,342.9,87,354.2,75.9c0.4-0.4,0.8-0.8,1.2-1.2c0.8-1,1.4-0.9,2.3,0c1.6,1.8,3.4,3.5,5.1,5.3
	C365.3,82.8,368,85.5,370.8,88.5z"/>
<path class="st1" d="M192,388.5c0-13.7,10.7-24.4,24.4-24.5c12.8,0,23.4,10.8,23.4,23.8c0.1,13.4-10.8,24.4-24.2,24.4
	C202.5,412.3,192,401.8,192,388.5z M219.4,387.8c0.1-2.1-1.5-3.8-3.6-3.9c-2-0.1-3.8,1.6-3.9,3.6c-0.1,2,1.6,3.8,3.6,3.9
	C217.5,391.5,219.3,389.8,219.4,387.8z"/>
<path class="st1" d="M56.5,145.3c-6.5,0-12.9,0-19.4,0c-2,0-2,0-2-2c0-4.7,0.1-9.4,0-14c0-1.6,0.6-1.8,2-1.8c13-0.1,26-0.3,39-0.5
	c1.4,0,2,0.3,2,1.8c-0.1,4.9-0.1,9.7-0.1,14.6c0,1.4-0.5,1.7-1.8,1.7c-6.6,0-13.1,0-19.7,0C56.5,145.2,56.5,145.3,56.5,145.3z"/>
<path class="st1" d="M414.8,368.2c-12.9,10.3-22.4,22.9-28.8,38c-8.1-5.1-11.5-20.1-4.6-30.8C390.2,361.8,406.5,361.8,414.8,368.2z"
	/>
<path class="st1" d="M357.1,189.4c0,2.5,0,5,0,7.6c0,1.1-0.4,1.4-1.5,1.4c-4.9-0.1-9.7-0.2-14.6-0.2c-1.1,0-1.5-0.4-1.5-1.5
	c-0.1-5-0.3-9.9-0.4-14.9c0-1.1,0.2-1.7,1.5-1.7c4.9,0,9.7,0,14.6-0.1c1.4,0,1.8,0.5,1.7,1.8c-0.1,2.5,0,5,0,7.6
	C357,189.4,357,189.4,357.1,189.4z"/>
<path class="st1" d="M237.8,270.1c0,2.4,0,4.9,0,7.3c0,1-0.1,1.6-1.4,1.5c-4.9-0.1-9.7-0.2-14.6-0.2c-1.2,0-1.6-0.4-1.6-1.6
	c-0.1-4.9-0.2-9.7-0.4-14.6c0-1.1,0.2-1.7,1.5-1.7c4.9,0,9.7,0,14.6-0.1c1.4,0,1.8,0.5,1.7,1.8c-0.1,2.5,0,5,0,7.6
	C237.7,270.1,237.7,270.1,237.8,270.1z"/>
<path class="st1" d="M276.9,189.6c0,2.4,0,4.9,0,7.3c0,1.1-0.3,1.5-1.4,1.5c-4.9-0.1-9.7-0.2-14.6-0.2c-1.2,0-1.6-0.5-1.6-1.7
	c0-4.8-0.1-9.5-0.3-14.3c0-1,0.2-1.6,1.4-1.6c5,0,9.9,0,14.9-0.1c1.1,0,1.5,0.5,1.4,1.5c0,2.5,0,5.1,0,7.6
	C276.7,189.6,276.8,189.6,276.9,189.6z"/>
<path class="st1" d="M397.4,269c0,2.4-0.1,4.9,0,7.3c0,1.4-0.5,1.8-1.8,1.7c-4.7-0.1-9.4-0.2-14-0.2c-1.3,0-1.8-0.3-1.9-1.7
	c0-5-0.1-9.9-0.3-14.9c0-1,0.2-1.5,1.4-1.5c5,0,9.9,0,14.9-0.1c1.1,0,1.4,0.5,1.4,1.5c0,2.6,0,5.2,0,7.9
	C397.2,269,397.3,269,397.4,269z"/>
<path class="st1" d="M317.7,269.2c0,2.3-0.1,4.7,0,7c0,1.2-0.2,1.9-1.7,1.8c-4.8-0.2-9.6-0.2-14.3-0.2c-1.3,0-1.6-0.5-1.6-1.7
	c-0.1-4.7-0.2-9.4-0.4-14.1c0-1.2,0.2-1.9,1.6-1.9c4.8,0.1,9.6,0,14.3-0.1c1.6,0,1.9,0.6,1.9,2c-0.1,2.3,0,4.7,0,7
	C317.6,269.2,317.6,269.2,317.7,269.2z"/>
<path class="st2" d="M473.4,509.2c-34.9,0-63.5-24.2-68.8-57.8c-4.9-30.9,11.4-60.7,39.3-73.9c21.3-10.1,42.8-9.8,63.5,1.3
	c19.6,10.5,31.3,27.3,34.9,49.3c5.9,35.4-17.3,71.6-55.8,79.7C481.9,508.8,477.3,509.3,473.4,509.2z M534.5,438.9
	c-0.1-2.6-0.1-5.5-0.6-8.4c-3.5-21.2-14.8-36.7-34.2-45.7c-17.3-8.1-35-7.6-52.2,0.6c-29.8,14.2-43.1,49.1-30.3,79.2
	c10.7,25.2,37.9,39.8,65.5,35.2C512.5,494.7,534.4,469.2,534.5,438.9z"/>
<path class="st0" d="M219.4,387.8c-0.1,2.1-1.8,3.7-3.9,3.6c-2-0.1-3.7-1.9-3.6-3.9c0.1-2,1.8-3.7,3.9-3.6
	C217.8,383.9,219.4,385.7,219.4,387.8z"/>
<path class="st2" d="M499.7,438.4c4.2,4.2,8.2,8.3,12.2,12.4c1.4,1.5,2.9,3,4,4.7c1.4,2.1,1.5,4.2,0.4,6.4c-0.7,1.3-1.6,2.5-2.6,3.6
	c-4.6,4.6-9.2,9.1-13.8,13.7c-3.4,3.4-5.7,3.6-9.7,1c-1.5-1-2.9-2.1-4.1-3.4c-3.6-3.6-7.2-7.1-10.8-10.7c-1.8-1.7-1.8-1.7-3.4,0
	c-4.1,4.2-8.3,8.4-12.4,12.6c-0.2,0.2-0.4,0.4-0.6,0.6c-3.8,3.3-6.9,3.4-10.8,0.1c-1.5-1.3-2.8-2.7-4.2-4.1
	c-3.6-3.5-7.1-6.9-10.6-10.4c-3.3-3.3-3.6-5.5-1.2-9.5c1-1.7,2.3-3.2,3.7-4.6c3.4-3.5,6.8-7,10.2-10.5c2.1-2.2,2.3-1.6-0.1-4
	c-4.1-4-8.1-8-12.2-12c-0.5-0.5-0.9-1-1.3-1.5c-2.1-2.6-2.2-5.2-0.5-8.1c0.6-1.1,1.4-2,2.3-2.9c4.5-4.5,8.9-9.1,13.4-13.6
	c3.4-3.4,5.6-3.7,9.7-1.1c1.6,1,3,2.2,4.4,3.5c3.6,3.5,7.2,7.1,10.9,10.6c1.4,1.4,1.4,1.4,2.8,0c4.6-4.6,9.1-9.2,13.6-13.8
	c0.3-0.3,0.7-0.6,1-0.9c3.3-2.7,5.7-2.8,9.2-0.4c0.9,0.6,1.8,1.4,2.6,2.2c4.4,4.3,8.8,8.7,13.2,13.1c3.5,3.5,3.7,5.8,1.1,9.9
	c-1,1.5-2.1,2.9-3.4,4.1C508.3,429.6,504.1,434,499.7,438.4z M473.5,454c0.7,0,1.4,0.3,2,0.6c1.4,0.8,2.6,1.9,3.7,3
	c4.1,4.1,8.2,8.2,12.4,12.3c2.1,2.1,3.1,2,5.2,0c2.7-2.7,5.5-5.4,8.2-8.1c2.2-2.2,2.2-3.2,0-5.4c-2.6-2.7-5.3-5.3-7.9-8
	c-2-2-4-3.9-6-6c-2-2.1-2-3.7-0.6-6.1c1-1.8,2.3-3.4,3.8-4.9c3.7-3.7,7.4-7.5,11-11.2c0.6-0.6,1.2-1.2,1.6-1.9
	c0.7-1.1,0.6-2.1-0.3-3.1c-3.3-3.2-6.5-6.5-9.8-9.7c-1.2-1.2-2.1-1.1-3.5-0.1c-0.7,0.5-1.3,1.1-1.9,1.7c-4,4.1-8,8.2-12,12.2
	c-3.6,3.7-7,3.7-10.7,0.1c-4.2-4.1-8.4-8.3-12.7-12.4c-2.2-2.1-3.1-2-5.2,0.1c-2.8,2.8-5.6,5.6-8.3,8.4c-1.8,1.9-1.8,2.8-0.1,4.8
	c0.4,0.5,0.9,0.9,1.4,1.4c4.2,4.1,8.5,8.2,12.7,12.4c2.7,2.7,2.6,4.8,0.1,7.6c-0.4,0.5-0.9,1-1.4,1.4c-4.2,4.4-8.5,8.7-12.7,13.1
	c-2,2.1-2,3.1,0.1,5.2c2.7,2.6,5.3,5.3,8,7.9c2.4,2.3,3.2,2.3,5.6,0.1c0.3-0.3,0.7-0.7,1-1c4.1-4.2,8.1-8.3,12.2-12.5
	C470.4,454.9,471.6,453.9,473.5,454z"/>
<path class="st3" d="M117.3,196.5l10.7,10.7c2.5,2.5,6.6,2.5,9.2,0l10.7-10.7c2.5-2.5,2.5-6.6,0-9.2l-10.7-10.7
	c-2.5-2.5-6.6-2.5-9.2,0l-10.7,10.7C114.7,189.9,114.7,194,117.3,196.5z"/>
<path class="st3" d="M117.3,227.7l10.7,10.7c2.5,2.5,6.6,2.5,9.2,0l10.7-10.7c2.5-2.5,2.5-6.6,0-9.2l-10.7-10.7
	c-2.5-2.5-6.6-2.5-9.2,0l-10.7,10.7C114.7,221.1,114.7,225.2,117.3,227.7z"/>
<path class="st2" d="M408.4,510.2l8.4,8.4c1.2,1.2,3.2,1.2,4.4,0l8.4-8.4c1.2-1.2,1.2-3.2,0-4.4l-8.4-8.4c-1.2-1.2-3.2-1.2-4.4,0
	l-8.4,8.4C407.2,507,407.2,509,408.4,510.2z"/>
<circle class="st4" cx="472.7" cy="439.8" r="88.5"/>
</svg>
