<?xml version="1.0" encoding="utf-8"?>
<!-- Generator: Adobe Illustrator 28.0.0, SVG Export Plug-In . SVG Version: 6.00 Build 0)  -->
<svg version="1.1" id="Capa_1" xmlns="http://www.w3.org/2000/svg" xmlns:xlink="http://www.w3.org/1999/xlink" x="0px" y="0px"
	 viewBox="0 0 600 600" style="enable-background:new 0 0 600 600;" xml:space="preserve">
<style type="text/css">
	.st0{fill:#090A0A;}
	.st1{fill:#FDFDFD;}
	.st2{fill:#29E4A5;}
	.st3{fill:#6EE1EB;}
	.st4{fill:none;stroke:#29E4A5;stroke-width:10;stroke-miterlimit:10;}
</style>
<path class="st0" d="M159.4,384.8c0.5-1,0.3-1.8,0.3-2.6c0.2-78.4,0.5-156.7,0.8-235.1c0-3.2-1-5.9-2.6-8.4
	c-3.9-6.3-9.8-10-16.9-11.6c-2.3-0.5-4.8-0.3-7.3-0.3c-14.9,0.2-29.8,0.4-44.7,0.5c-2,0-2,0-2,2.1c0,4.4-0.1,8.8-0.1,13.2
	c0,3.2-0.4,2.9,2.8,2.9c11.6,0,23.2-0.1,34.8-0.1c2.5,0,5.1,0,7.6,0c1,0,2.1,0.1,3.1,0.3c2.4,0.5,3.5,1.9,3.7,4.3
	c0.1,0.8,0,1.7,0,2.5c-0.2,53.2-0.4,106.4-0.6,159.6c0,0.8,0,1.7-0.2,2.5c-0.4,2.1-2.2,3.4-4.3,3.3c-2.1-0.1-3.7-1.4-4.1-3.6
	c-0.2-1.1-0.1-2.2-0.1-3.4c0.2-51.1,0.4-102.3,0.6-153.4c0-4,0.7-3.6-3.6-3.5c-12.2,0-24.3,0.1-36.5,0.2c-0.6,0-1.1,0.1-1.7,0
	c-1.3-0.2-1.9,0.3-1.8,1.7c0.1,1.6,0,3.2,0,4.8c0,0.7,0,1.3-0.1,2c-0.3,2.4-2,4-4.2,4c-2.2,0-4-1.7-4.2-4.1c-0.2-2-0.1-3.9-0.1-5.9
	c0-2.6,0.3-2.5-2.4-2.5c-5.3,0-10.7,0-16,0c-7.9,0-15.7,0-23.6,0c-1.8,0-3.6-0.1-5.3-0.5c-2.7-0.6-3.9-1.8-4.1-4.6
	c-0.1-0.6,0-1.1,0-1.7c0.1-7.6,0.1-15.2,0.2-22.8c0-0.6,0-1.1,0.1-1.7c0.3-2.5,2.1-4,4.6-4c14.9,0.3,29.8-0.4,44.6-0.3
	c2.1,0,2.2,0,2.2-2.1c0-3,0.2-6-0.1-9c-0.3-3.2,1.5-5.2,4.3-5.3c2.8-0.2,4.9,2.3,4.6,5.1c-0.3,3-0.2,6-0.2,9c0,0.7-0.2,1.5,0.3,2.3
	c1,0,2,0,3,0c14.7-0.2,29.4-0.3,44.1-0.5c7.1-0.1,13.7,1.5,19.8,5.3c7.4,4.7,12.5,11.1,14.5,19.8c0.2,1.1,0.3,2.2,0.3,3.3
	c-0.4,50.6-0.5,101.1-0.6,151.7c0,9.7-0.1,19.5-0.1,29.2c0,2.4,0,2.4,2.4,2.4c3.5,0,6.9,0,10.4-0.1c1.9,0,1.9-0.1,2-2.1
	c0-6.6,0.1-13.1,0.1-19.7c0.1-16.3,0.2-32.6,0.2-48.9c0-2.8,1-4.9,3.5-6.2c1.1-0.6,2.3-0.6,3.6-0.6c10.1-0.1,20.2-0.2,30.3-0.3
	c3.3,0,3,0.4,3-3c0.3-22.7,0.6-45.3,0.9-68c0-1.9,0.3-3.7,1.1-5.4c1.1-2.4,2.8-3.4,5.3-3.4c3.4,0,6.7,0,10.1-0.1
	c5.1,0,10.3,0,15.4-0.1c0.7,0,1.5,0.2,2-0.1c0.3-0.4,0-0.6-0.1-0.8c-10-9.1-15.5-20.7-18.2-33.8c-1.9-8.9-2.2-17.8-1.1-26.8
	c0.1-0.7,0.2-1.5,0.4-2.2c0.7-2.1,2.5-3.3,4.5-3.1c2.1,0.2,3.7,1.9,3.9,4.2c0,0.6-0.1,1.3-0.2,1.9c-1.1,11.6-0.3,23,3.8,34
	c2.9,7.6,7.1,14.4,13.3,19.8c3.1,2.7,6.7,4.4,10.1,6.5c0.7,0.4,1.5,0.3,2.2,0.3c10.7,0,21.3,0.2,32-0.1c11.9-0.3,23.8-0.2,35.7-0.3
	c1.6,0,2.8-0.5,4-1.6c14.2-13.4,20.8-29.9,20.3-49.3c-0.1-5.3-0.9-10.4-2.4-15.5c-1.1-0.1-1.5,0.8-2.1,1.3
	c-14.7,14.5-29.3,28.9-44,43.4c-1.5,1.5-3.1,2.7-4.7,3.9c-1.7,1.3-3.8,1.2-5.4-0.1c-0.7-0.5-1.2-1.2-1.8-1.8
	c-12.5-13-25-26.1-37.6-39.1c-1.1-1.2-2-2.4-2.7-3.9c-1.2-2.6-1-4.1,1-6.1c6.5-6.4,13.1-12.8,19.7-19.2c0.3-0.3,0.7-0.6,1.1-0.9
	c3-2.3,5-2.2,7.6,0.6c5,5.2,9.9,10.5,14.8,15.8c0.8,0.9,1.7,1.7,2.6,2.7c10-9.9,19.9-19.7,30-29.6c-3.8-3.2-7.9-5.6-12.3-7.4
	c-15.4-6.3-30.8-6-46.3-0.4c-11.2,4.1-20.7,10.7-28.3,20c-0.5,0.6-1.1,1.3-1.7,1.8c-1.7,1.3-3.8,1.3-5.4-0.1c-1.5-1.3-1.9-3.3-1-5.1
	c0.5-0.9,1.1-1.7,1.8-2.5C265,63.9,280.9,55.1,300,52.4c15.4-2.2,30,0.2,43.6,7.9c2.5,1.4,4.9,3.1,7.2,4.9c0.7,0.6,1.2,0.7,2.2,0.2
	c3.4-2.1,5.4-1.8,8.2,1.1c5.1,5.3,10.3,10.7,15.4,16c0.9,0.9,1.9,1.8,2.8,2.7c2.5,2.2,2.6,4.6,0.3,7.1c-1.7,1.8-3.5,3.4-5.2,5.1
	c-0.5,0.5-0.9,0.8-0.5,1.7c2.1,4.3,2.9,9.1,3.6,13.8c2.7,19.9-1.8,38.1-13.8,54.3c-0.5,0.7-1,1.3-1.6,2c-0.5,0.7-1,1.3-1.5,1.9
	c0.6,0.9,1.4,0.5,2.1,0.5c6.7,0,13.5,0,20.2-0.1c0.9,0,1.9-0.1,2.8,0.1c3.6,0.8,5.4,2.5,5.4,6.1c-0.1,9.2,0,18.4,0,27.5
	c0,0.9,0,1.9-0.4,2.8c-0.7,1.8-2.3,2.9-4.1,2.8c-1.8-0.1-3.4-1.3-3.9-3.1c-0.3-1.1-0.3-2.2-0.3-3.3c0-7.3,0-14.6,0-21.9
	c0-2.5,0-2.3-2.3-2.3c-4.1,0-8.2,0-12.4,0.1c-2.3,0-2.3,0-2.3,2.3c0.1,5.8,0.2,11.6,0.3,17.4c0,0.7,0,1.5,0,2.2
	c-0.1,3.5-1.8,5.2-5.2,5.2c-1.6,0-3.2-0.1-4.8-0.1c-6.1-0.1-12.2-0.3-18.3-0.2c-4.4,0.1-6.7-2.2-6.7-6.7c0-5.8-0.2-11.6-0.3-17.4
	c-0.1-2.4-0.1-2.5-2.5-2.5c-5,0-9.9,0-14.7,0c-0.8,0.8-0.5,1.6-0.5,2.3c-0.1,22.1-0.2,44.2-0.3,66.3c0,0.5,0,0.9,0,1.4
	c0,0.7,0.3,1,1,1c0.5,0,0.9,0,1.4,0c21-0.1,41.9-0.2,62.9-0.4c0.3,0,0.6,0,0.8,0c3.5-0.1,3,0.1,3-3c0-4,0-8.1,0-12.1
	c0-0.7,0-1.5,0.1-2.2c0.3-2.2,2-3.7,4.2-3.8c2.2,0,3.9,1.4,4.3,3.7c0.1,0.8,0.1,1.7,0.1,2.5c0,4.3,0,8.6,0,12.9c0,2,0.1,2,2.1,1.9
	c11.4-0.2,22.8-0.5,34.3,0c1.1,0,2.3,0.1,3.3,0.3c2.5,0.5,3.8,2.1,4,4.7c0.3,3.1,0.4,6.2,0.4,9.3c0,19.9-0.1,39.9-0.1,59.8
	c0,0.4,0,0.7,0,1.1c0,3.3-0.3,2.9,3.1,2.9c3.6,0,7.1,0.2,10.7-0.1c5.6-0.4,11.4,4.1,12.4,10.4c0.4,2.3,0.5,4.7,0.5,7
	c0,1.4,0.4,1.8,1.8,1.6c3.4-0.3,6.9-0.7,10.4-0.6c6.3,0.1,12.6,0.1,18.7,1.6c36.9,9,61.8,31,70.9,68.3c7.4,30.5-0.4,57.9-20.9,81.5
	c-15.5,17.9-35.4,28.3-58.9,31.2c-30.2,3.7-56.5-5.1-78.1-26.7c-16.1-16.2-24.4-36-25.5-58.8c-0.5-9.3,0.5-18.5,3-27.5
	c0.4-1.4,0.4-2.3-0.9-3.3c-6.5-5-10.4-11.7-11.8-19.8c-0.3-1.5-0.8-2-2.3-2c-5.3,0.1-10.7,0-16,0c-33.2-0.1-66.5-0.1-99.7-0.2
	c-0.4,0-0.8,0-1.1,0c-1.5-0.2-2,0.5-2.3,1.9c-1.4,7.9-5.3,14.5-11.6,19.6c-18.3,15-45.9,6-51.8-16.9c-0.1-0.3-0.1-0.5-0.2-0.8
	c-0.1-1.5-0.9-2-2.4-2c-3.8,0.2-7.7,0.3-11.5,0.3c-6.6,0.1-13.1-0.2-19.5-2.2c-3.4-1-6.6-2.6-9.6-4.5c-5.8-3.6-8.8-8.9-10.3-15.4
	c-1.3-5.8-0.9-11.7-0.9-17.6c0-3.1-0.1-6.2-0.1-9.3c0-1.3,0-2.6,0.4-3.9c0.7-1.8,2.1-2.9,4.1-2.8c1.9,0,3.3,1.1,4,3
	c0.3,0.9,0.3,1.8,0.3,2.8c0,6.3,0,12.5,0,18.8c0,3.8,0.6,7.5,1.9,11c0.8,2.1,2.1,3.8,3.8,5.1C149,382.4,154,384.2,159.4,384.8z
	 M168.7,385.6c4.4,0.1,8.9,0.2,13.4,0.4c1,0,1.6-0.3,1.7-1.4c0-0.6,0.1-1.1,0.2-1.7c2.8-18.9,21.9-31.6,40.3-26.7
	c12.8,3.5,20.6,12,23.6,24.9c0.4,1.5,0.9,2.1,2.4,1.9c0.6-0.1,1.1,0,1.7,0c38,0.1,76,0.2,114,0.3c3.2,0,3.2,0,3.9-3
	c5-21.2,29.3-31.6,48-20.8c1.5,0.9,2.8,2.8,4.5,2.6c1.6-0.1,3.1-1.6,4.6-2.5c7.6-4,15.5-7.5,23.9-9.4c1.2-0.3,1.8-0.7,1.7-2
	c-0.1-2.2,0-4.5-0.1-6.7c-0.1-3.1-0.8-3.7-3.9-3.7c-62.4,0.1-124.9,0.3-187.3,0.4c-30,0.1-59.9,0.1-89.9,0.2c-3,0-2.7-0.4-2.7,2.7
	c-0.1,13.9-0.1,27.7-0.2,41.6C168.4,383.6,168.2,384.5,168.7,385.6z M473.7,356c-4.5,0.2-8.9,0.4-13.2,1.1
	c-23,3.9-42,14.6-55.8,33.5c-19,25.9-22.6,54.2-9.5,83.8c14.6,33.1,50.2,52.6,88,47c22.7-3.4,41.7-14,55.5-32.4
	c19.4-25.6,23.8-54,10.8-83.6C535.3,372.9,508.6,357.7,473.7,356z M388.8,329.4c0,0,0-0.1,0-0.1c11.5,0,23,0,34.6,0
	c2.2,0,2.2,0,2.2-2.1c0-22.1,0.1-44.2,0.2-66.3c0-1.3-0.4-1.6-1.6-1.6c-5.4,0.1-10.9,0.2-16.3,0.3c-2.1,0-2.2,0.1-2.1,2.1
	c0.1,6.6,0.2,13.1,0.2,19.7c0,3.9-1.6,5.5-5.5,5.4c-4.7,0-9.4-0.1-14-0.1c-3.4-0.1-6.7-0.1-10.1-0.3c-3-0.1-4.8-1.9-5.2-4.9
	c-0.1-0.6-0.1-1.3-0.1-2c-0.1-5.7-0.3-11.4-0.4-17.1c-0.1-2.7,0.4-2.6-2.5-2.6c-4.2,0-8.4,0-12.6,0.1c-2.4,0-2.4,0-2.5,2.4
	c0,0.2,0,0.4,0,0.6c-0.3,21.3-0.5,42.7-0.8,64c0,2.5,0,2.5,2.4,2.5C366,329.4,377.4,329.4,388.8,329.4z M233.3,216.5
	C233.3,216.5,233.3,216.5,233.3,216.5c-0.1,11-0.3,22.1-0.5,33.1c0,2.4-0.3,2.4,2.4,2.4c12.7-0.1,25.5-0.1,38.2-0.2
	c9.4-0.1,18.7-0.1,28.1-0.2c2.1,0,2.1-0.1,2.2-2.1c0.2-22.2,0.3-44.4,0.4-66.5c0-2.5,0.2-2.4-2.5-2.3c-4.6,0-9.2,0-13.8,0.1
	c-2.4,0-2.4,0-2.4,2.5c0.1,6.3,0.2,12.5,0.2,18.8c0,3.7-1.6,5.3-5.3,5.4c-1.3,0-2.6-0.1-3.9-0.1c-6.5-0.1-13.1-0.2-19.6-0.3
	c-3.9-0.1-5.8-2-6-5.9c0-0.7,0-1.5,0-2.2c-0.1-5.3-0.3-10.7-0.4-16c0-1.5-0.5-1.9-1.9-1.9c-4.1,0.1-8.2,0.1-12.4,0.1
	c-2.2,0-2.2,0-2.3,2.3C233.6,194.4,233.5,205.4,233.3,216.5z M228.3,329.7c0-0.1,0-0.1,0-0.2c6.7,0,13.5,0,20.2,0
	c4.6,0,9.2,0,13.8,0c2.4,0,2.2,0.2,2.2-2.3c0-0.2,0-0.4,0-0.6c0.1-21,0.1-41.9,0.2-62.9c0-0.6,0-1.1,0-1.7c0.1-1.3-0.5-1.6-1.7-1.6
	c-5,0.1-9.9,0.1-14.9,0.1c-1.3,0-2,0.3-1.8,1.7c0.1,0.8,0,1.7,0,2.5c0.1,5.7,0.3,11.4,0.3,17.1c0,4-1.7,5.7-5.6,5.7
	c-7.9-0.1-15.7-0.2-23.6-0.4c-3.5-0.1-5.3-1.8-5.7-5.3c-0.1-1-0.1-2.1-0.1-3.1c-0.1-5.4-0.3-10.9-0.3-16.3c0-1.4-0.5-1.8-1.8-1.7
	c-5,0.1-9.9,0.1-14.9,0.1c-2.3,0-2.3,0-2.3,2.3c-0.1,21.3-0.2,42.7-0.2,64c0,2.4,0,2.4,2.5,2.4C205.8,329.7,217.1,329.7,228.3,329.7
	z M308.3,329.5c0,0,0-0.1,0-0.1c10.7,0,21.3,0,32,0c3.6,0,3.2,0.5,3.2-3.1c0.1-8.5,0.2-17,0.3-25.5c0.1-12.8,0.3-25.6,0.4-38.5
	c0-2.3,0-2.4-2.2-2.4c-4.6,0-9.2,0-13.8,0.1c-2.1,0-2.1,0.1-2.1,2.2c0.1,5.7,0.2,11.4,0.3,17.1c0,1,0.1,2.1,0,3.1
	c-0.3,2.7-1.9,4.2-4.7,4.3c-1.3,0.1-2.6,0-3.9,0c-6.8-0.1-13.7-0.2-20.5-0.4c-3.7-0.1-5.4-1.8-5.8-5.5c-0.1-0.8-0.1-1.7-0.1-2.5
	c-0.1-5.2-0.2-10.5-0.3-15.7c-0.1-2.3-0.1-2.3-2.3-2.3c-4.4,0-8.8,0-13.2,0.1c-2.4,0-2.4,0-2.4,2.5c0,21.3-0.1,42.7-0.1,64
	c0,2.8-0.4,2.6,2.5,2.6C286.6,329.5,297.4,329.5,308.3,329.5z M314.1,144.7c0.8-0.7,1.4-1.3,2-1.9c10.1-10,20.3-20,30.4-30
	c7.6-7.5,15.2-15,22.8-22.5c1.5-1.5,1.5-1.5,0-3c-3.8-4-7.7-8-11.5-11.9c-1.3-1.4-1.4-1.4-2.8,0c-2.6,2.6-5.2,5.1-7.8,7.7
	c-9.1,9-18.2,18-27.4,27c-2.8,2.8-5.5,2.7-8.3,0c-0.7-0.7-1.3-1.4-1.9-2c-4.7-5-9.5-10.1-14.2-15.2c-1-1.1-1.6-1.1-2.6-0.1
	c-4.4,4.4-8.9,8.8-13.5,13.1c-1,1-0.9,1.5,0,2.5c2.4,2.4,4.7,4.8,7,7.3C295.4,125.3,304.6,134.9,314.1,144.7z M192.2,388.3
	c0,13.2,10.5,23.8,23.6,23.8c13.3,0,24.2-11,24.1-24.4c0-13-10.7-23.8-23.4-23.8C202.9,363.9,192.2,374.6,192.2,388.3z M57,145.6
	c0-0.1,0-0.1,0-0.2c6.5,0,13.1,0,19.6,0c1.3,0,1.8-0.3,1.8-1.7c-0.1-4.9,0-9.7,0.1-14.6c0-1.5-0.5-1.9-2-1.8c-13,0.2-26,0.4-39,0.5
	c-1.4,0-2,0.3-2,1.8c0.1,4.7,0,9.3,0,14c0,1.9,0,2,2,2C44.1,145.6,50.5,145.6,57,145.6z M385.9,406c6.3-15.1,15.9-27.8,28.7-38
	c-7.2-5.9-23.1-6.7-32.4,5.9C374.4,384.4,377.2,399.9,385.9,406z M357,189.5c-0.1,0-0.1,0-0.2,0c0-2.5-0.1-5,0-7.6
	c0-1.4-0.5-1.8-1.8-1.7c-4.8,0.1-9.5,0.2-14.3,0.1c-1.3,0-1.8,0.4-1.7,1.8c0.2,4.8,0.3,9.7,0.4,14.5c0,1.2,0.4,1.7,1.6,1.7
	c4.9,0,9.7,0.1,14.6,0.2c1.1,0,1.4-0.5,1.4-1.5C357,194.5,357,192,357,189.5z M237.9,270c-0.1,0-0.1,0-0.2,0c0-2.5-0.1-5,0-7.6
	c0-1.4-0.5-1.8-1.8-1.7c-4.8,0.1-9.7,0.1-14.5,0.1c-1.1,0-1.5,0.4-1.4,1.5c0.2,4.9,0.3,9.9,0.4,14.8c0,1.3,0.6,1.6,1.7,1.6
	c4.8,0,9.7,0.1,14.5,0.2c1,0,1.3-0.3,1.3-1.3C237.9,275.1,237.9,272.5,237.9,270z M277,189.9c-0.1,0-0.2,0-0.3,0c0-2.5,0-5,0-7.6
	c0-1.2-0.4-1.7-1.6-1.6c-4.9,0.1-9.7,0.1-14.6,0.1c-1.1,0-1.5,0.4-1.5,1.5c0.1,4.9,0.2,9.7,0.3,14.6c0,1.1,0.5,1.5,1.5,1.5
	c4.9,0,9.9,0.1,14.8,0.2c1,0,1.3-0.4,1.3-1.3C276.9,194.8,277,192.3,277,189.9z M397.2,268.8c-0.1,0-0.2,0-0.3,0c0-2.6,0-5.2,0-7.9
	c0-1-0.4-1.3-1.3-1.3c-5,0.1-9.9,0.1-14.9,0.1c-1.1,0-1.5,0.3-1.5,1.4c0.1,5,0.2,10.1,0.3,15.1c0,1,0.4,1.5,1.5,1.5
	c4.9,0,9.7,0.1,14.6,0.2c1.2,0,1.6-0.5,1.6-1.6C397.2,273.8,397.2,271.3,397.2,268.8z M317.7,269.4c-0.1,0-0.1,0-0.2,0
	c0-2.5,0-5.1,0-7.6c0-1.2-0.5-1.6-1.7-1.6c-4.9,0.1-9.7,0.1-14.6,0.1c-1.3,0-1.6,0.5-1.5,1.7c0.2,4.8,0.3,9.5,0.4,14.3
	c0,1.3,0.5,1.5,1.7,1.6c4.8,0,9.5,0.1,14.3,0.2c1.3,0,1.6-0.5,1.6-1.6C317.6,274,317.7,271.7,317.7,269.4z"/>
<path class="st1" d="M168.7,385.6c-0.5-1.1-0.3-2-0.3-3c0.1-13.9,0.1-27.7,0.2-41.6c0-3.1-0.3-2.7,2.7-2.7c30-0.1,59.9-0.1,89.9-0.2
	c62.4-0.1,124.9-0.3,187.3-0.4c3.1,0,3.8,0.6,3.9,3.7c0.1,2.2,0,4.5,0.1,6.7c0.1,1.3-0.5,1.8-1.7,2c-8.4,1.9-16.3,5.4-23.9,9.4
	c-1.6,0.8-3,2.3-4.6,2.5c-1.6,0.1-2.9-1.7-4.5-2.6c-18.7-10.8-42.9-0.4-48,20.8c-0.7,3-0.7,3-3.9,3c-38-0.1-76-0.2-114-0.3
	c-0.6,0-1.1-0.1-1.7,0c-1.5,0.2-2-0.4-2.4-1.9c-3-12.8-10.8-21.4-23.6-24.9c-18.4-5-37.6,7.8-40.3,26.7c-0.1,0.6-0.2,1.1-0.2,1.7
	c-0.1,1.1-0.7,1.4-1.7,1.4C177.6,385.9,173.1,385.8,168.7,385.6z"/>
<path class="st1" d="M388.8,329.4c-11.4,0-22.8,0-34.3,0c-2.4,0-2.4,0-2.4-2.5c0.3-21.3,0.5-42.7,0.8-64c0-0.2,0-0.4,0-0.6
	c0.1-2.4,0.1-2.4,2.5-2.4c4.2,0,8.4-0.1,12.6-0.1c2.9,0,2.5-0.1,2.5,2.6c0.2,5.7,0.3,11.4,0.4,17.1c0,0.7,0,1.3,0.1,2
	c0.4,3,2.2,4.7,5.2,4.9c3.4,0.2,6.7,0.2,10.1,0.3c4.7,0.1,9.4,0.1,14,0.1c3.9,0,5.5-1.6,5.5-5.4c0-6.6-0.1-13.1-0.2-19.7
	c0-2.1,0-2.1,2.1-2.1c5.4-0.1,10.9-0.1,16.3-0.3c1.2,0,1.6,0.3,1.6,1.6c-0.1,22.1-0.1,44.2-0.2,66.3c0,2.1,0,2.1-2.2,2.1
	c-11.5,0-23,0-34.6,0C388.8,329.3,388.8,329.3,388.8,329.4z"/>
<path class="st1" d="M233.3,216.5c0.2-11,0.3-22.1,0.5-33.1c0-2.3,0.1-2.3,2.3-2.3c4.1,0,8.2,0,12.4-0.1c1.5,0,1.9,0.4,1.9,1.9
	c0.1,5.3,0.2,10.7,0.4,16c0,0.7,0,1.5,0,2.2c0.2,3.9,2.1,5.8,6,5.9c6.5,0.1,13.1,0.2,19.6,0.3c1.3,0,2.6,0.1,3.9,0.1
	c3.7-0.1,5.3-1.7,5.3-5.4c0-6.3-0.1-12.5-0.2-18.8c0-2.4,0-2.5,2.4-2.5c4.6,0,9.2-0.1,13.8-0.1c2.6,0,2.5-0.2,2.5,2.3
	c-0.1,22.2-0.3,44.4-0.4,66.5c0,2.1,0,2.1-2.2,2.1c-9.4,0.1-18.7,0.2-28.1,0.2c-12.7,0.1-25.5,0.1-38.2,0.2c-2.7,0-2.5,0-2.4-2.4
	C233,238.6,233.2,227.5,233.3,216.5C233.3,216.5,233.3,216.5,233.3,216.5z"/>
<path class="st1" d="M228.3,329.7c-11.2,0-22.5,0-33.7,0c-2.4,0-2.5,0-2.5-2.4c0.1-21.3,0.2-42.7,0.2-64c0-2.2,0-2.3,2.3-2.3
	c5,0,9.9,0,14.9-0.1c1.3,0,1.8,0.4,1.8,1.7c0,5.4,0.2,10.9,0.3,16.3c0,1,0,2.1,0.1,3.1c0.4,3.4,2.2,5.2,5.7,5.3
	c7.9,0.2,15.7,0.3,23.6,0.4c3.9,0,5.6-1.7,5.6-5.7c0-5.7-0.2-11.4-0.3-17.1c0-0.8,0.1-1.7,0-2.5c-0.1-1.4,0.5-1.7,1.8-1.7
	c5,0,9.9,0,14.9-0.1c1.1,0,1.8,0.3,1.7,1.6c-0.1,0.6,0,1.1,0,1.7c-0.1,21-0.1,41.9-0.2,62.9c0,0.2,0,0.4,0,0.6
	c0,2.5,0.2,2.3-2.2,2.3c-4.6,0-9.2,0-13.8,0c-6.7,0-13.5,0-20.2,0C228.3,329.6,228.3,329.6,228.3,329.7z"/>
<path class="st1" d="M308.3,329.5c-10.9,0-21.7,0-32.6,0c-2.9,0-2.5,0.2-2.5-2.6c0-21.3,0.1-42.7,0.1-64c0-2.5,0-2.5,2.4-2.5
	c4.4,0,8.8-0.1,13.2-0.1c2.2,0,2.2,0,2.3,2.3c0.1,5.2,0.2,10.5,0.3,15.7c0,0.8,0,1.7,0.1,2.5c0.3,3.7,2.1,5.4,5.8,5.5
	c6.8,0.2,13.7,0.2,20.5,0.4c1.3,0,2.6,0.1,3.9,0c2.7-0.1,4.3-1.6,4.7-4.3c0.1-1,0.1-2.1,0-3.1c-0.1-5.7-0.2-11.4-0.3-17.1
	c0-2.2,0-2.2,2.1-2.2c4.6-0.1,9.2-0.1,13.8-0.1c2.2,0,2.2,0,2.2,2.4c-0.1,12.8-0.3,25.6-0.4,38.5c-0.1,8.5-0.2,17-0.3,25.5
	c0,3.5,0.4,3.1-3.2,3.1c-10.7,0-21.3,0-32,0C308.3,329.4,308.3,329.5,308.3,329.5z"/>
<path class="st1" d="M314.1,144.7c-9.4-9.8-18.6-19.4-27.8-29c-2.3-2.4-4.6-4.9-7-7.3c-0.9-0.9-1-1.5,0-2.5c4.5-4.3,9-8.7,13.5-13.1
	c1.1-1.1,1.7-1,2.6,0.1c4.7,5.1,9.5,10.1,14.2,15.2c0.6,0.7,1.3,1.4,1.9,2c2.8,2.7,5.5,2.8,8.3,0c9.1-9,18.3-18,27.4-27
	c2.6-2.6,5.2-5.1,7.8-7.7c1.4-1.4,1.5-1.4,2.8,0c3.8,4,7.7,7.9,11.5,11.9c1.5,1.5,1.5,1.5,0,3c-7.6,7.5-15.2,15-22.8,22.5
	c-10.1,10-20.3,20-30.4,30C315.4,143.4,314.8,144,314.1,144.7z"/>
<path class="st1" d="M192.2,388.3c0-13.6,10.7-24.4,24.3-24.4c12.7,0,23.3,10.8,23.4,23.8c0.1,13.4-10.8,24.4-24.1,24.4
	C202.7,412.1,192.2,401.5,192.2,388.3z M219.5,387.5c0.1-2.1-1.6-3.8-3.6-3.9c-2-0.1-3.8,1.6-3.9,3.6c-0.1,2,1.6,3.8,3.6,3.9
	C217.7,391.2,219.5,389.5,219.5,387.5z"/>
<path class="st1" d="M57,145.6c-6.4,0-12.9,0-19.3,0c-2,0-2,0-2-2c0-4.7,0.1-9.3,0-14c0-1.6,0.6-1.8,2-1.8c13-0.1,26-0.3,39-0.5
	c1.4,0,2,0.3,2,1.8c-0.1,4.9-0.1,9.7-0.1,14.6c0,1.4-0.5,1.7-1.8,1.7c-6.5,0-13.1,0-19.6,0C57,145.4,57,145.5,57,145.6z"/>
<path class="st1" d="M385.9,406c-8.7-6.1-11.4-21.6-3.7-32.1c9.3-12.6,25.2-11.8,32.4-5.9C401.8,378.2,392.2,390.9,385.9,406z"/>
<path class="st1" d="M357,189.5c0,2.5,0,5,0,7.6c0,1-0.2,1.5-1.4,1.5c-4.9-0.1-9.7-0.2-14.6-0.2c-1.2,0-1.6-0.5-1.6-1.7
	c-0.1-4.9-0.2-9.7-0.4-14.5c-0.1-1.4,0.4-1.8,1.7-1.8c4.8,0,9.5,0,14.3-0.1c1.3,0,1.9,0.4,1.8,1.7c-0.1,2.5,0,5,0,7.6
	C356.9,189.5,356.9,189.5,357,189.5z"/>
<path class="st1" d="M237.9,270c0,2.5,0,5,0,7.6c0,1-0.3,1.3-1.3,1.3c-4.8-0.1-9.7-0.2-14.5-0.2c-1.1,0-1.7-0.3-1.7-1.6
	c-0.1-4.9-0.2-9.9-0.4-14.8c0-1.1,0.4-1.5,1.4-1.5c4.8,0,9.7,0,14.5-0.1c1.3,0,1.8,0.4,1.8,1.7c-0.1,2.5,0,5,0,7.6
	C237.8,270,237.8,270,237.9,270z"/>
<path class="st1" d="M277,189.9c0,2.4,0,4.9,0,7.3c0,0.9-0.3,1.4-1.3,1.3c-4.9-0.1-9.9-0.1-14.8-0.2c-1,0-1.5-0.4-1.5-1.5
	c-0.1-4.9-0.2-9.7-0.3-14.6c0-1.1,0.4-1.5,1.5-1.5c4.9,0,9.7,0,14.6-0.1c1.2,0,1.6,0.4,1.6,1.6c-0.1,2.5,0,5,0,7.6
	C276.8,189.9,276.9,189.9,277,189.9z"/>
<path class="st1" d="M397.2,268.8c0,2.5,0,5,0,7.6c0,1.2-0.3,1.7-1.6,1.6c-4.9-0.1-9.7-0.2-14.6-0.2c-1.1,0-1.4-0.5-1.5-1.5
	c-0.1-5-0.2-10.1-0.3-15.1c0-1.1,0.4-1.4,1.5-1.4c5,0,9.9,0,14.9-0.1c1,0,1.3,0.3,1.3,1.3c0,2.6,0,5.2,0,7.9
	C397,268.8,397.1,268.8,397.2,268.8z"/>
<path class="st1" d="M317.7,269.4c0,2.3,0,4.7,0,7c0,1.2-0.3,1.7-1.6,1.6c-4.8-0.1-9.5-0.2-14.3-0.2c-1.1,0-1.7-0.3-1.7-1.6
	c-0.1-4.8-0.2-9.5-0.4-14.3c0-1.2,0.2-1.7,1.5-1.7c4.9,0,9.7,0,14.6-0.1c1.2,0,1.7,0.4,1.7,1.6c-0.1,2.5,0,5.1,0,7.6
	C317.6,269.4,317.6,269.4,317.7,269.4z"/>
<path class="st2" d="M473.5,370.4c34,0,62.3,23.5,68.2,56.1c5.4,29.9-9.8,60.3-37.1,74.4c-27.4,14.1-60.3,9.2-81.5-12.6
	c-15.1-15.5-21.6-34.4-19.1-55.9c3.7-31.4,28-56.5,59.2-61.2C466.9,370.6,470.5,370.2,473.5,370.4z M534.1,438.4
	c0-2.6-0.1-5.5-0.6-8.4c-3.5-21.1-14.8-36.6-34.2-45.6c-17.3-8-34.9-7.6-52.1,0.7c-29.7,14.2-43,49-30.1,79.1
	c10.7,25.1,37.8,39.6,65.4,35C512.2,494.3,534,468.7,534.1,438.4z"/>
<path class="st0" d="M219.5,387.5c-0.1,2-1.8,3.7-3.8,3.7c-2-0.1-3.7-1.9-3.6-3.9c0.1-2,1.8-3.7,3.9-3.6
	C218,383.7,219.6,385.4,219.5,387.5z"/>
<path class="st2" d="M525.8,422c-0.1,2.4-0.7,4.9-2.4,6.9c-1.2,1.4-2.5,2.8-3.8,4.1c-13.3,13.3-26.8,26.5-40,39.8
	c-3.6,3.6-7.4,6.8-11.2,10.2c-1.6,1.5-3.5,2.5-5.5,3.4c-2.9,1.3-5.6,1.1-8.3-0.6c-2.6-1.6-4.9-3.7-7.1-5.9
	c-7.4-7.6-14.7-15.2-22-22.8c-2.1-2.2-3.8-4.6-5.4-7.2c-1.9-3-2-6.1,0-8.7c4.4-5.9,9.3-11.5,15.8-15.3c4.1-2.4,7.8-1.7,11.3,1.4
	c3.8,3.3,7.3,7,10.9,10.5c2.7,2.5,1.9,2.3,4.2,0.1c11.3-11.3,22.5-22.7,34.2-33.7c1-0.9,1.9-1.8,3-2.6c4-3,9.2-2.6,12.7,1
	c3,3.1,6,6.2,8.9,9.3C523.9,414.6,525.7,417.8,525.8,422z M453.9,446.7c-4-4.3-7.6-8.3-11.3-12.1c-1.6-1.7-3.2-1.7-5.3-0.2
	c-3.5,2.5-6.6,5.5-9.3,8.9c-1.3,1.6-1.3,2.5-0.2,4.1c1.6,2.3,3.3,4.5,5.3,6.5c6.7,6.7,13.3,13.4,20,20.1c0.7,0.7,1.4,1.3,2.1,1.9
	c1.8,1.6,3.9,1.7,6,1.1c1.4-0.4,2.6-1.1,3.7-1.9c2-1.5,3.9-3.3,5.6-5.1c14.8-15.6,30.4-30.5,45.7-45.6c1.8-1.8,2-3.5,0.4-5.4
	c-3-3.7-6.5-7-9.9-10.3c-1-1-2.1-1-3.3-0.1c-1.3,1-2.4,2-3.5,3.2c-5.5,5.8-11,11.5-16.6,17.1c-4.3,4.2-8.4,8.5-12.6,12.8
	c-4.5,4.5-8.9,9.1-13.4,13.6c-2,1.9-4.6,2-6.3,0.3c-1.7-1.7-1.7-4.2,0.1-6.3C452.1,448.1,453.2,447.3,453.9,446.7z"/>
<path class="st3" d="M117,201.1l10.7,10.7c2.5,2.5,6.7,2.5,9.2,0l10.7-10.7c2.5-2.5,2.5-6.6,0-9.2l-10.7-10.7
	c-2.5-2.5-6.6-2.5-9.2,0L117,191.9C114.5,194.4,114.5,198.6,117,201.1z"/>
<path class="st3" d="M117,232.2l10.7,10.7c2.5,2.5,6.7,2.5,9.2,0l10.7-10.7c2.5-2.5,2.5-6.6,0-9.2l-10.7-10.7
	c-2.5-2.5-6.6-2.5-9.2,0L117,223.1C114.5,225.6,114.5,229.7,117,232.2z"/>
<path class="st2" d="M411.1,513.8l8.4,8.4c1.2,1.2,3.2,1.2,4.4,0l8.4-8.4c1.2-1.2,1.2-3.2,0-4.4l-8.4-8.4c-1.2-1.2-3.2-1.2-4.4,0
	l-8.4,8.4C409.9,510.6,409.9,512.6,411.1,513.8z"/>
<path class="st2" d="M467.6,468.6l8.4,8.4c1.2,1.2,3.2,1.2,4.4,0l8.4-8.4c1.2-1.2,1.2-3.2,0-4.4l-8.4-8.4c-1.2-1.2-3.2-1.2-4.4,0
	l-8.4,8.4C466.3,465.4,466.3,467.4,467.6,468.6z"/>
<circle class="st4" cx="472.2" cy="439.1" r="88"/>
</svg>
