<?xml version="1.0" encoding="utf-8"?>
<!-- Generator: Adobe Illustrator 28.0.0, SVG Export Plug-In . SVG Version: 6.00 Build 0)  -->
<svg version="1.1" id="Capa_1" xmlns="http://www.w3.org/2000/svg" xmlns:xlink="http://www.w3.org/1999/xlink" x="0px" y="0px"
	 viewBox="0 0 600 600" style="enable-background:new 0 0 600 600;" xml:space="preserve">
<style type="text/css">
	.st0{fill:#090A0A;}
	.st1{fill:#FDFDFD;}
	.st2{fill:#DBB300;}
	.st3{fill:#6EE1EB;}
	.st4{fill:none;stroke:#DBB300;stroke-width:11;stroke-miterlimit:10;}
</style>
<path class="st0" d="M259.2,171.5c-16.2-15.6-21.4-34.7-20.7-55.9c0.1-2.4,0.2-4.9,0.7-7.3c0.5-2.6,2.4-4.2,4.6-4
	c2.4,0.2,4.1,2.2,3.9,5c-0.4,4.5-0.7,9-0.5,13.5c0.4,9,2.2,17.7,6,25.9c4.4,9.3,10.7,16.7,20.1,21.3c1.8,0.9,3.4,1.3,5.3,1.3
	c10.2-0.1,20.3,0.1,30.5-0.1c12.2-0.3,24.5-0.2,36.7-0.3c1.5,0,2.5-0.6,3.5-1.5c10.2-9.4,16.6-20.8,19.3-34.3
	c2.1-10.3,1.5-20.6-1.2-30.7c-1.1-0.3-1.5,0.7-2,1.2c-14.6,14.4-29.2,28.8-43.8,43.2c-1.5,1.5-3,2.8-4.7,4c-2.5,1.8-4.5,1.8-6.8-0.4
	c-1.7-1.7-3.4-3.5-5.1-5.3c-11.2-11.7-22.4-23.4-33.7-35c-1.2-1.2-2.1-2.6-2.8-4.2c-1.1-2.5-0.9-3.9,1-5.9c1.6-1.6,3.2-3.2,4.8-4.7
	c4.7-4.6,9.4-9.2,14.2-13.8c0.9-0.8,1.8-1.7,2.8-2.3c2.3-1.5,4.1-1.4,6.1,0.5c2,1.9,3.8,3.9,5.6,5.9c3.8,4,7.6,8.1,11.4,12.2
	c0.8,0.9,1.3,1,2.2,0.1c9.5-9.4,19-18.8,28.5-28.2c0.1-0.1,0.2-0.3,0.4-0.5c-0.8-1.1-1.9-1.7-3-2.4c-11.4-7.6-24.1-10.5-37.6-9.4
	c-17.8,1.5-32.9,8.9-44.9,22.2c-0.9,1-1.7,2-2.6,3c-1.9,2-4.2,2.2-6.1,0.8c-1.9-1.5-2.3-4.1-0.6-6.3c3.6-4.8,7.9-9.1,12.8-12.7
	c15.9-12,33.8-17.4,53.7-15.6c12.1,1.1,23.2,5.3,33,12.8c1.1,0.9,1.9,1.3,3.3,0.3c2.6-1.8,5-1.3,7.3,1c5.3,5.4,10.4,10.8,15.7,16.3
	c1,1,2,2,3.1,2.9c2.5,2.2,2.6,4.6,0.2,7.1c-1.9,2-4,4-6,5.9c7.5,18.3,7.8,49.1-13.1,73.4c0.4,0.8,1.2,0.4,1.7,0.4
	c6.9,0,13.7,0,20.6-0.1c0.9,0,1.9,0,2.8,0.1c3.6,0.5,5.4,2.4,5.4,6c0,9.3,0,18.6,0.1,28c0,4-2.3,5.5-4.4,5.4
	c-2.7-0.1-4.4-2.2-4.3-5.5c0.1-7.6,0-15.3,0-22.9c0-2.5,0.1-2.4-2.5-2.4c-4.1,0-8.3,0-12.4,0.1c-2.1,0-2.1,0.1-2.1,2.2
	c0.1,6.3,0.1,12.6,0.2,18.9c0,0.9,0,1.9-0.2,2.8c-0.4,1.9-2.1,3.2-4.4,3.3c-1.5,0.1-3,0-4.5-0.1c-6.4-0.1-12.8-0.2-19.2-0.3
	c-4.9-0.1-6.7-1.9-6.8-6.9c-0.1-5.9-0.3-11.9-0.4-17.8c-0.1-1.9-0.1-2-2.1-2c-4.6,0-9.2,0.1-13.8,0c-1.3,0-1.8,0.3-1.8,1.7
	c0.1,3.5,0,7,0,10.4c-0.1,18.5-0.3,36.9-0.4,55.4c0,0.6,0,1.1,0,1.7c0,2.1,0,2.1,2.2,2.1c13.5-0.1,26.9-0.1,40.4-0.2
	c8.3,0,16.6-0.1,24.9-0.2c2.1,0,2.1-0.1,2.1-2.2c0-4.3,0-8.7,0-13c0-1,0-2.1,0.4-3.1c0.6-1.7,2-2.8,3.8-2.9c1.9-0.1,3.5,0.9,4.3,2.6
	c0.5,1.1,0.5,2.2,0.5,3.3c0,5,0,10,0,15.1c1.5,0.4,2.9,0,4.3,0c9.3,0,18.6-0.1,28-0.1c2.3,0,4.7,0.2,7,0.5c3.1,0.4,4.5,1.9,4.7,5
	c0.2,2,0.2,3.9,0.2,5.9c0,21.1,0,42.2,0,63.3c0,0.7,0,1.3,0,2c0,2.1,0,2.1,2.2,2.1c3.8,0,7.5,0.2,11.3-0.1c6.6-0.5,12.5,4.8,13,12.1
	c0.1,2.3,0.1,4.7,0.6,7.1c4.8-0.4,9.6-0.9,14.4-0.7c5.4,0.3,10.9,0.3,16.3,1.6c37.9,9.3,62.5,32.3,71.9,70.6
	c5.9,32.1-2.5,60.1-24.9,83.6c-14.6,15.3-32.8,24.6-53.7,27.6c-31.5,4.5-58.9-4.4-81.3-27.1c-14.3-14.5-22.4-32.3-24.6-52.7
	c-1.3-11.3-0.4-22.6,2.6-33.6c0.4-1.6,0.1-2.5-1.2-3.5c-6.2-5-10.1-11.5-11.6-19.4c-0.4-2.2-0.4-2.2-2.7-2.2
	c-39-0.1-77.9-0.2-116.9-0.3c-2.1,0-2.1,0-2.7,2.5c-3,12.8-10.6,21.5-23.2,25.2c-17.3,5.2-35.4-5.1-40.2-22.5
	c-0.9-3.4-0.9-3.4-4.5-3.2c-6.9,0.3-13.7,0.5-20.6-0.2c-5.9-0.6-11.4-2.2-16.6-5c-7.2-3.9-11.1-9.9-12.5-17.8
	c-0.6-3.5-0.8-6.9-0.7-10.4c0.1-5.1,0-10.2,0-15.2c0-1,0-2.1,0.1-3.1c0.3-2.5,2-4,4.4-3.9c2.3,0.1,4,1.7,4.1,4.1
	c0.1,3.1,0.1,6.2,0.1,9.3c0,3.5,0,7-0.1,10.4c-0.1,3.2,0.4,6.4,1.2,9.5c0.9,3.6,2.9,6.5,6.1,8.5c3.5,2.3,7.4,3.7,11.5,4.5
	c2.4,0.4,2.4,0.4,2.4-1.9c0-0.3,0-0.6,0-0.8c0.3-78.4,0.5-156.8,0.8-235.3c0-3.7-1.1-6.8-3.1-9.8c-3.9-5.9-9.6-9.4-16.4-11.1
	c-2.7-0.7-5.4-0.3-8.2-0.3c-14.7,0.1-29.4,0.3-44.1,0.5c-2.2,0-2.2,0-2.2,2.1c0,4.6,0,9.2,0,13.8c0,2.3,0,2.3,2.3,2.3
	c13.8,0,27.7-0.1,41.5-0.1c0.8,0,1.7,0,2.5,0c4.5,0.2,6,1.8,6,6.3c-0.2,53.8-0.4,107.5-0.6,161.3c0,1,0,2.1-0.4,3.1
	c-0.6,1.7-2.1,2.7-3.9,2.8c-1.9,0.1-3.4-1-4.1-2.8c-0.5-1.2-0.4-2.4-0.4-3.6c0.2-51.4,0.4-102.8,0.6-154.2c0-4.1,0-4.1-4.1-4.1
	c-12.1,0.1-24.3,0.1-36.4,0.2c-0.7,0-1.3,0-2,0c-0.9,0-1.1,0.4-1.1,1.2c0,0.7,0,1.3,0,2c0,1.6,0.1,3.2-0.1,4.8
	c-0.2,2.8-2,4.6-4.4,4.5c-2.3-0.1-4-1.7-4.2-4.4c-0.1-2.1-0.1-4.1,0-6.2c0.1-1.5-0.5-1.9-1.9-1.9c-6.3,0.1-12.6,0-18.9,0.1
	c-7.2,0-14.3,0-21.5,0c-1.5,0-3-0.1-4.5-0.3c-3.7-0.6-4.8-2-4.9-5.6c0-0.4,0-0.8,0-1.1c0-7.2,0-14.5,0.1-21.7c0-0.9,0-1.9,0.2-2.8
	c0.5-2.4,2.2-3.7,4.6-3.7c15.1,0.3,30.1-0.5,45.2-0.3c1.5,0,1.9-0.5,1.9-1.9c-0.1-3.2-0.1-6.4-0.1-9.6c0-3.3,1.6-5.1,4.7-5
	c2.9,0.1,4.7,2.2,4.3,5.4c-0.3,2.9-0.2,5.8-0.2,8.7c0,2.3,0,2.3,2.3,2.3c8.7-0.1,17.3-0.3,26-0.4c7.7,0,15.4-0.5,23.1,0
	c9.5,0.5,17.3,4.5,23.7,11.5c2,2.2,3.7,4.7,5,7.5c1.8,3.6,2.7,7.4,2.2,11.5c-0.1,0.5,0,0.9,0,1.4c-0.2,59.2-0.4,118.4-0.6,177.6
	c0,3.5-0.5,3.2,3.1,3.2c3.3,0,6.6,0,9.9-0.1c2,0,2-0.1,2-2.1c0.1-6.6,0.1-13.2,0.1-19.8c0.1-16.3,0.1-32.6,0.1-48.9
	c0-2.8,0.8-4.9,3.3-6.4c1.2-0.7,2.5-0.7,3.8-0.7c10.2-0.1,20.3-0.2,30.5-0.3c0.7,0,1.3,0,2,0c0.7,0,1-0.3,1-1c0-0.6,0-1.1,0-1.7
	c0.4-23.2,0.7-46.5,1.1-69.7c0-0.8,0-1.7,0.2-2.5c1.1-3.9,2.8-5.2,6.9-5.2c8.1-0.1,16.2-0.1,24.3-0.1
	C256.9,171.5,257.8,171.5,259.2,171.5z M167.6,362.5C167.6,362.5,167.5,362.5,167.6,362.5c-0.1,7.2,0,14.5-0.1,21.7
	c0,1.4,0.4,2,1.9,2c2.8,0,5.6,0.2,8.5,0.2c1.5,0,3.3,0.6,4.4-0.2c1.2-0.8,0.8-2.7,1.1-4.2c2.9-14.9,16.3-26.2,31.4-26.5
	c15.7-0.3,29.1,10.2,32.6,25.5c0.7,3,0.5,2.5,3.1,2.5c38.9,0.1,77.7,0.2,116.6,0.3c2.4,0,2.4,0,2.9-2.3
	c4.8-21.5,28.6-32.5,47.7-22.1c1.8,1,3.3,3.1,5.2,3c1.9-0.1,3.6-1.9,5.4-2.9c7.4-3.9,15.1-7.2,23.3-9.1c1.2-0.3,1.8-0.7,1.7-2
	c-0.1-2.3,0-4.5-0.2-6.8c-0.2-3.1-0.9-3.7-3.9-3.7c-61.7,0.1-123.5,0.3-185.2,0.4c-31.2,0.1-62.3,0.1-93.5,0.2
	c-3.1,0-2.8-0.2-2.8,2.7C167.6,348.4,167.6,355.4,167.6,362.5z M557.8,438.6c-0.2-4.5-0.5-8.9-1.2-13.3
	c-6.2-37.1-36.3-64.8-74.1-68.4c-17.7-1.7-34.4,1.8-50,10.4c-30.1,16.5-47,48.9-44.1,81c1.9,21.7,11,39.9,27.3,54.3
	c25.7,22.8,63.1,27.7,94.1,11.9C540.5,498.8,556.2,473,557.8,438.6z M388.9,329.6c0,0,0-0.1,0-0.1c11.6,0,23.1,0,34.7,0
	c2.4,0,2.4,0,2.4-2.2c0-22.1,0.1-44.2,0.1-66.3c0-1.3-0.3-1.8-1.7-1.8c-5.5,0.1-10.9,0.2-16.4,0.3c-2.1,0-2.2,0.1-2.2,2.2
	c0.1,6.1,0.2,12.2,0.3,18.3c0,0.8,0.1,1.7,0,2.5c-0.3,2.7-1.9,4.3-4.7,4.3c-8.5-0.1-16.9-0.2-25.4-0.4c-2.7-0.1-4.3-1.7-4.8-4.3
	c-0.2-1.1-0.2-2.2-0.2-3.4c-0.1-5.7-0.2-11.5-0.3-17.2c0-1,0-1.8-1.5-1.8c-5,0.1-10,0.1-15,0.1c-1.1,0-1.5,0.4-1.5,1.5
	c0,0.5,0,0.9,0,1.4c-0.2,21.3-0.4,42.5-0.7,63.8c0,0.7,0,1.3,0,2c0,0.8,0.3,1.2,1.1,1.2c0.7,0,1.3,0,2,0
	C366.5,329.6,377.7,329.6,388.9,329.6z M303.5,215.7c0.1,0,0.2,0,0.3,0c0-11.2,0-22.4,0-33.6c0-2.1,0-2.1-2.1-2.1
	c-4.9,0-9.8,0.1-14.7,0.1c-1.4,0-2.1,0.3-2,1.9c0.1,1.3,0,2.6,0.1,3.9c0.1,5.2,0.3,10.3,0.3,15.5c0,3.7-1.7,5.5-5.3,5.5
	c-8.2-0.1-16.4-0.2-24.6-0.4c-2.9-0.1-4.7-1.8-5.1-4.7c-0.2-1-0.2-2.1-0.2-3.1c-0.1-5.5-0.3-10.9-0.3-16.4c0-1.4-0.4-2-1.9-2
	c-4.3,0.1-8.7,0.1-13,0.1c-1.5,0-1.9,0.5-1.9,1.9c0,4.5,0,9-0.1,13.5c-0.2,17.9-0.5,35.8-0.7,53.6c0,2.2,0,2.3,2,2.2
	c22.3-0.1,44.6-0.3,66.9-0.4c2.3,0,2.3-0.1,2.3-2.3C303.5,237.9,303.5,226.8,303.5,215.7z M227.5,329.9c0-0.1,0-0.1,0-0.2
	c11.4,0,22.8,0,34.2,0c2.7,0,2.4,0.1,2.4-2.4c0-0.3,0-0.6,0-0.8c0-17.6,0-35.2,0.1-52.8c0-3.9,0-7.7,0-11.6c0-1.3-0.4-1.8-1.8-1.8
	c-4.7,0.1-9.4,0.1-14.1,0.1c-2.4,0-2.5,0-2.4,2.4c0.1,6.5,0.2,13,0.2,19.5c0,3.5-1.7,5.3-5.1,5.3c-8.2-0.1-16.4-0.2-24.6-0.4
	c-3-0.1-4.9-1.9-5.3-4.9c-0.1-0.8-0.1-1.7-0.1-2.5c-0.1-5.8-0.3-11.7-0.4-17.5c0-0.9,0-1.6-1.3-1.6c-5.5,0.1-10.9,0.1-16.4,0.1
	c-1,0-1.3,0.5-1.3,1.4c0,0.5,0,0.9,0,1.4c-0.1,21.1-0.2,42.2-0.3,63.2c0,0.5,0.1,0.9,0,1.4c-0.2,1.4,0.6,1.8,1.8,1.7
	c0.7-0.1,1.3,0,2,0C205.9,329.9,216.7,329.9,227.5,329.9z M307.9,329.7c0,0,0-0.1,0-0.1c10.8,0,21.6,0,32.5,0c0.7,0,1.3,0,2,0
	c0.8,0,1.2-0.4,1.2-1.2c0-0.7,0-1.3,0-2c0.1-11.9,0.2-23.7,0.4-35.6c0.1-9.7,0.3-19.4,0.4-29.1c0-2,0-2-2-2c-4.5,0-9,0-13.5,0.1
	c-2.8,0-2.6-0.3-2.6,2.6c0.1,6,0,12,0.2,18.1c0.2,4.4-1.8,6.5-6.5,6.3c-6.9-0.3-13.7-0.5-20.6-0.3c-6.7,0.2-8.2-2.4-8.1-8.2
	c0.1-5.5-0.2-10.9-0.4-16.4c0-0.8,0.2-1.8-1.1-1.8c-5.2,0-10.3,0.1-15.5,0.1c-0.9,0-1.2,0.4-1.1,1.2c0,0.5,0,0.9,0,1.4
	c-0.1,21.4-0.1,42.7-0.2,64.1c0,3-0.4,2.8,2.9,2.8C286.4,329.7,297.2,329.7,307.9,329.7z M313.9,143.9c19.1-18.9,38-37.5,56.9-56.2
	c-4.9-5.1-9.6-10-14.2-14.7c-1,0.4-1.4,1-1.9,1.5c-10.7,10.6-21.4,21.2-32.1,31.7c-1.1,1.1-2.3,2.3-3.4,3.4c-2.2,2-4.8,2.1-7.1,0.2
	c-0.7-0.5-1.2-1.2-1.8-1.8c-4.8-5.1-9.5-10.2-14.3-15.2c-0.7-0.7-1.4-1.4-2.2-2.2c-5.4,5.3-10.6,10.4-16,15.6
	C289.8,118.8,301.8,131.3,313.9,143.9z M239.3,388.3c0-13.2-10.5-24-23.4-24c-13.7,0-24.6,10.8-24.7,24.4c0,13.3,10.6,24,23.7,24
	C228.4,412.7,239.3,401.8,239.3,388.3z M55.4,144.8c0-0.1,0-0.1,0-0.2c6.6,0,13.2,0,19.7,0c1.3,0,1.8-0.3,1.8-1.7
	c0-4.9,0-9.8,0.1-14.7c0-1.6-0.6-1.8-2-1.8c-13.1,0.2-26.1,0.3-39.2,0.5c-1.9,0-1.9,0.1-1.9,2.1c-0.1,4.5-0.1,9-0.1,13.5
	c0,2.2,0,2.2,2.4,2.3C42.6,144.8,49,144.8,55.4,144.8z M415,368.3c-8.5-6.2-23.8-6.1-32.6,5.9c-8.1,11.1-5,25.9,3.6,32.5
	C392.4,391.5,402,378.7,415,368.3z M357.1,188.9c-0.1,0-0.2,0-0.3,0c0-2.5,0-5.1,0-7.6c0-1.1-0.2-1.7-1.5-1.7c-5,0.1-10,0.1-15,0.2
	c-1,0-1.3,0.5-1.2,1.4c0.1,5,0.2,10,0.3,15c0,1.4,0.6,1.7,1.9,1.7c4.8,0,9.6,0.1,14.4,0.2c1.1,0,1.5-0.4,1.5-1.5
	C357.1,194,357.1,191.5,357.1,188.9z M267.3,180.1C267.3,180.2,267.3,180.2,267.3,180.1c-2.3,0.1-4.7,0.1-7,0.1
	c-1.3,0-1.8,0.4-1.8,1.8c0.2,4.7,0.3,9.4,0.4,14.1c0,1.3,0.5,1.8,1.8,1.8c4.8,0,9.6,0.1,14.4,0.2c1.1,0,1.5-0.3,1.5-1.4
	c-0.1-4.9-0.2-9.8-0.1-14.7c0-1.6-0.7-1.9-2-1.8C272,180.2,269.7,180.1,267.3,180.1z M397.4,268.8c-0.1,0-0.1,0-0.2,0
	c0-2.4,0-4.9,0-7.3c0-1.4-0.3-2.1-1.8-2c-4.8,0.1-9.6,0.1-14.4,0.1c-1.5,0-1.7,0.6-1.7,1.9c0.2,4.9,0.4,9.8,0.4,14.7
	c0,1.5,0.6,1.7,1.9,1.7c4.7,0,9.4,0.1,14.1,0.2c1.5,0,1.7-0.5,1.7-1.8C397.4,273.7,397.4,271.2,397.4,268.8z M237.3,269.9
	c-0.1,0-0.2,0-0.3,0c0-2.6,0-5.3,0-7.9c0-1.2-0.5-1.4-1.5-1.4c-4.9,0.1-9.8,0.1-14.7,0.1c-1.3,0-1.6,0.5-1.6,1.6
	c0.1,4.8,0.2,9.6,0.3,14.4c0,1.5,0.6,1.9,2,1.9c4.7,0,9.4,0,14.1,0.2c1.5,0,1.7-0.6,1.6-1.9C237.3,274.6,237.3,272.2,237.3,269.9z
	 M308.4,260C308.4,260.1,308.4,260.1,308.4,260c-2.4,0.1-4.9,0.1-7.3,0.1c-1,0-1.5,0.2-1.5,1.4c0.1,4.9,0.2,9.8,0.3,14.7
	c0,1.3,0.6,1.6,1.7,1.6c4.8,0,9.6,0.1,14.4,0.2c1.2,0,1.7-0.4,1.6-1.6c-0.1-5-0.2-10-0.3-14.9c0-1.2-0.6-1.4-1.6-1.3
	C313.3,260,310.8,260,308.4,260z"/>
<path class="st1" d="M167.6,362.5c0-7.1,0-14.1,0-21.2c0-2.9-0.3-2.7,2.8-2.7c31.2-0.1,62.3-0.1,93.5-0.2
	c61.7-0.1,123.5-0.3,185.2-0.4c3.1,0,3.7,0.6,3.9,3.7c0.1,2.3,0.1,4.5,0.2,6.8c0.1,1.3-0.5,1.8-1.7,2c-8.2,1.9-15.9,5.2-23.3,9.1
	c-1.8,1-3.5,2.7-5.4,2.9c-1.9,0.1-3.4-2-5.2-3c-19.1-10.4-42.9,0.6-47.7,22.1c-0.5,2.3-0.5,2.3-2.9,2.3
	c-38.9-0.1-77.7-0.2-116.6-0.3c-2.6,0-2.4,0.5-3.1-2.5c-3.5-15.3-16.9-25.8-32.6-25.5c-15,0.3-28.5,11.7-31.4,26.5
	c-0.3,1.4,0.1,3.4-1.1,4.2c-1.2,0.8-2.9,0.2-4.4,0.2c-2.8,0-5.6-0.3-8.5-0.2c-1.5,0-1.9-0.5-1.9-2
	C167.5,377,167.5,369.8,167.6,362.5C167.5,362.5,167.6,362.5,167.6,362.5z"/>
<path class="st1" d="M388.9,329.6c-11.2,0-22.4,0-33.6,0c-0.7,0-1.3,0-2,0c-0.9,0-1.2-0.4-1.1-1.2c0-0.7,0-1.3,0-2
	c0.2-21.3,0.4-42.5,0.7-63.8c0-0.5,0-0.9,0-1.4c-0.1-1.1,0.4-1.5,1.5-1.5c5,0,10,0,15-0.1c1.4,0,1.4,0.8,1.5,1.8
	c0.1,5.7,0.2,11.5,0.3,17.2c0,1.1,0,2.3,0.2,3.4c0.5,2.6,2.1,4.2,4.8,4.3c8.5,0.2,16.9,0.4,25.4,0.4c2.7,0,4.3-1.6,4.7-4.3
	c0.1-0.8,0.1-1.7,0-2.5c-0.1-6.1-0.2-12.2-0.3-18.3c0-2.1,0-2.2,2.2-2.2c5.5-0.1,10.9-0.1,16.4-0.3c1.4,0,1.7,0.4,1.7,1.8
	c-0.1,22.1-0.1,44.2-0.1,66.3c0,2.2,0,2.2-2.4,2.2c-11.6,0-23.1,0-34.7,0C388.9,329.5,388.9,329.5,388.9,329.6z"/>
<path class="st1" d="M303.5,215.7c0,11.1,0,22.2,0,33.3c0,2.3,0,2.3-2.3,2.3c-22.3,0.2-44.6,0.3-66.9,0.4c-2,0-2,0-2-2.2
	c0.2-17.9,0.5-35.8,0.7-53.6c0.1-4.5,0.1-9,0.1-13.5c0-1.5,0.4-2,1.9-1.9c4.3,0.1,8.7,0,13-0.1c1.5,0,1.9,0.5,1.9,2
	c0,5.5,0.2,10.9,0.3,16.4c0,1,0,2.1,0.2,3.1c0.4,2.9,2.3,4.6,5.1,4.7c8.2,0.2,16.4,0.3,24.6,0.4c3.6,0,5.3-1.8,5.3-5.5
	c0-5.2-0.2-10.3-0.3-15.5c0-1.3,0.1-2.6-0.1-3.9c-0.1-1.6,0.6-1.9,2-1.9c4.9,0,9.8,0,14.7-0.1c2.1,0,2.1,0,2.1,2.1
	c0,11.2,0,22.4,0,33.6C303.7,215.7,303.6,215.7,303.5,215.7z"/>
<path class="st1" d="M227.5,329.9c-10.8,0-21.6,0-32.5,0c-0.7,0-1.3,0-2,0c-1.3,0.1-2-0.2-1.8-1.7c0.1-0.5,0-0.9,0-1.4
	c0.1-21.1,0.2-42.2,0.3-63.2c0-0.5,0-0.9,0-1.4c0-0.9,0.3-1.4,1.3-1.4c5.5,0,10.9,0,16.4-0.1c1.3,0,1.3,0.7,1.3,1.6
	c0.1,5.8,0.3,11.7,0.4,17.5c0,0.8,0,1.7,0.1,2.5c0.4,3,2.3,4.8,5.3,4.9c8.2,0.2,16.4,0.3,24.6,0.4c3.5,0,5.2-1.7,5.1-5.3
	c0-6.5-0.1-13-0.2-19.5c0-2.4,0-2.4,2.4-2.4c4.7,0,9.4,0,14.1-0.1c1.4,0,1.8,0.5,1.8,1.8c-0.1,3.9,0,7.7,0,11.6
	c0,17.6,0,35.2-0.1,52.8c0,0.3,0,0.6,0,0.8c0,2.5,0.3,2.4-2.4,2.4c-11.4,0-22.8,0-34.2,0C227.5,329.8,227.5,329.8,227.5,329.9z"/>
<path class="st1" d="M307.9,329.7c-10.7,0-21.4,0-32.2,0c-3.3,0-3,0.3-2.9-2.8c0.1-21.4,0.1-42.7,0.2-64.1c0-0.5,0-0.9,0-1.4
	c0-0.8,0.3-1.2,1.1-1.2c5.2,0,10.3,0,15.5-0.1c1.4,0,1.1,1,1.1,1.8c0.2,5.5,0.4,10.9,0.4,16.4c-0.1,5.7,1.4,8.3,8.1,8.2
	c6.9-0.2,13.7,0,20.6,0.3c4.7,0.2,6.6-1.9,6.5-6.3c-0.2-6-0.2-12-0.2-18.1c0-2.8-0.2-2.5,2.6-2.6c4.5,0,9-0.1,13.5-0.1c2,0,2,0,2,2
	c-0.1,9.7-0.3,19.4-0.4,29.1c-0.1,11.9-0.3,23.7-0.4,35.6c0,0.7,0,1.3,0,2c0,0.8-0.3,1.2-1.2,1.2c-0.7,0-1.3,0-2,0
	c-10.8,0-21.6,0-32.5,0C307.9,329.6,307.9,329.7,307.9,329.7z"/>
<path class="st1" d="M313.9,143.9c-12.2-12.7-24.2-25.2-36.3-37.8c5.3-5.2,10.6-10.3,16-15.6c0.8,0.8,1.5,1.5,2.2,2.2
	c4.8,5.1,9.5,10.2,14.3,15.2c0.6,0.6,1.1,1.3,1.8,1.8c2.3,1.9,4.9,1.9,7.1-0.2c1.2-1.1,2.3-2.2,3.4-3.4
	c10.7-10.6,21.4-21.2,32.1-31.7c0.5-0.5,1-1.2,1.9-1.5c4.6,4.8,9.3,9.7,14.2,14.7C351.9,106.5,333,125.1,313.9,143.9z"/>
<path class="st1" d="M239.3,388.3c0,13.6-10.9,24.5-24.3,24.4c-13.1,0-23.7-10.8-23.7-24c0-13.6,11-24.5,24.7-24.4
	C228.8,364.3,239.3,375.1,239.3,388.3z M215,384.1c-2.1,0.1-3.7,1.8-3.6,3.9c0.1,2.1,1.8,3.7,3.9,3.7c2-0.1,3.7-1.9,3.6-3.9
	C218.8,385.7,217,384.1,215,384.1z"/>
<path class="st1" d="M55.4,144.8c-6.4,0-12.8,0-19.2,0c-2.4,0-2.4,0-2.4-2.3c0-4.5,0.1-9,0.1-13.5c0-2,0.1-2.1,1.9-2.1
	c13.1-0.2,26.1-0.3,39.2-0.5c1.4,0,2,0.2,2,1.8C77,133.1,77,138,77,142.9c0,1.4-0.5,1.8-1.8,1.7c-6.6,0-13.2,0-19.7,0
	C55.4,144.7,55.4,144.7,55.4,144.8z"/>
<path class="st1" d="M415,368.3c-13,10.4-22.6,23.1-29,38.3c-8.5-6.6-11.7-21.4-3.6-32.5C391.2,362.2,406.6,362.1,415,368.3z"/>
<path class="st1" d="M357.1,188.9c0,2.5,0,5.1,0,7.6c0,1.1-0.3,1.5-1.5,1.5c-4.8-0.1-9.6-0.2-14.4-0.2c-1.2,0-1.9-0.3-1.9-1.7
	c0-5-0.1-10-0.3-15c0-0.9,0.2-1.4,1.2-1.4c5,0,10-0.1,15-0.2c1.3,0,1.6,0.6,1.5,1.7c0,2.5,0,5.1,0,7.6
	C356.9,188.9,357,188.9,357.1,188.9z"/>
<path class="st1" d="M267.3,180.1c2.3,0,4.7,0.1,7,0c1.4,0,2.1,0.2,2,1.8c0,4.9,0,9.8,0.1,14.7c0,1.1-0.4,1.5-1.5,1.4
	c-4.8-0.1-9.6-0.2-14.4-0.2c-1.3,0-1.8-0.5-1.8-1.8c-0.1-4.7-0.2-9.4-0.4-14.1c-0.1-1.4,0.5-1.8,1.8-1.8
	C262.6,180.3,265,180.2,267.3,180.1C267.3,180.2,267.3,180.2,267.3,180.1z"/>
<path class="st1" d="M397.4,268.8c0,2.4-0.1,4.9,0,7.3c0,1.3-0.2,1.9-1.7,1.8c-4.7-0.2-9.4-0.2-14.1-0.2c-1.2,0-1.8-0.2-1.9-1.7
	c0-4.9-0.2-9.8-0.4-14.7c0-1.3,0.2-1.9,1.7-1.9c4.8,0.1,9.6,0,14.4-0.1c1.6,0,1.9,0.7,1.8,2c-0.1,2.4,0,4.9,0,7.3
	C397.3,268.8,397.4,268.8,397.4,268.8z"/>
<path class="st1" d="M237.3,269.9c0,2.4-0.1,4.7,0,7.1c0,1.2-0.1,1.9-1.6,1.9c-4.7-0.1-9.4-0.2-14.1-0.2c-1.4,0-2-0.4-2-1.9
	c0-4.8-0.1-9.6-0.3-14.4c0-1.2,0.3-1.6,1.6-1.6c4.9,0,9.8,0,14.7-0.1c1,0,1.5,0.3,1.5,1.4c-0.1,2.6,0,5.3,0,7.9
	C237.2,269.9,237.2,269.9,237.3,269.9z"/>
<path class="st1" d="M308.4,260c2.4,0,4.9,0,7.3,0c1,0,1.6,0.1,1.6,1.3c0,5,0.1,10,0.3,14.9c0,1.2-0.4,1.7-1.6,1.6
	c-4.8-0.1-9.6-0.2-14.4-0.2c-1.1,0-1.7-0.3-1.7-1.6c0-4.9-0.1-9.8-0.3-14.7c0-1.2,0.5-1.4,1.5-1.4
	C303.5,260.2,305.9,260.1,308.4,260C308.4,260.1,308.4,260.1,308.4,260z"/>
<path class="st2" d="M474.7,370.7c33,0,61.2,22.8,67.8,54.9c6.1,29.8-8.2,60.4-35.3,75.5c-32.9,18.3-74.3,7.4-93.5-24.5
	c-18.8-31.3-9.7-72.3,20.8-93.2C446.5,375,460,370.8,474.7,370.7z M474.8,379.4c-34.2,0-62.2,27.8-62.2,61.8
	c-0.1,33.2,26.8,60,60.2,60.1c34.3,0.1,62.5-27.9,62.4-61.9C535.1,406.2,508.2,379.4,474.8,379.4z"/>
<path class="st0" d="M215,384.1c2-0.1,3.8,1.6,3.9,3.6c0.1,2-1.6,3.8-3.6,3.9c-2,0.1-3.8-1.6-3.9-3.7
	C211.3,385.9,212.9,384.2,215,384.1z"/>
<path class="st2" d="M490.7,438.7c0,8.9-7.4,16.2-16.4,16.3c-9.2,0-17-7.8-16.8-16.9c0.1-8.9,7.7-16.2,16.6-16.1
	C483.3,422.1,490.7,429.5,490.7,438.7z M474.2,446.1c4.3,0,7.6-3.2,7.7-7.3c0.1-4.3-3.5-7.9-7.8-8c-4.4-0.1-7.8,3.2-7.8,7.5
	C466.3,442.6,469.8,446.1,474.2,446.1z"/>
<path class="st2" d="M453.4,439.1c0,9.1-7.5,16.5-16.6,16.4c-9.1-0.1-16.7-7.7-16.7-16.8c0.1-8.9,7.5-16.2,16.5-16.2
	C445.8,422.5,453.4,430,453.4,439.1z M436.8,446.6c4.4,0.1,7.8-3.2,7.8-7.5c0-4.3-3.6-7.8-8-7.8c-4.2,0-7.6,3.2-7.6,7.4
	C428.9,443.1,432.4,446.6,436.8,446.6z"/>
<path class="st2" d="M493.9,438.3c0-9,7.3-16.3,16.4-16.3c9.2,0,16.9,7.6,16.8,16.6c0,8.9-7.5,16.3-16.5,16.3
	C501.5,455,493.9,447.4,493.9,438.3z M510.5,446.1c4.3,0.1,7.7-3,7.8-7.2c0.1-4.4-3.5-8.1-7.9-8.1c-4.2,0-7.6,3.3-7.7,7.4
	C502.5,442.4,506.1,446,510.5,446.1z"/>
<path class="st3" d="M116.6,196.5l10.7,10.7c2.5,2.5,6.6,2.5,9.2,0l10.7-10.7c2.5-2.5,2.5-6.6,0-9.2l-10.7-10.7
	c-2.5-2.5-6.6-2.5-9.2,0l-10.7,10.7C114.1,189.9,114.1,194,116.6,196.5z"/>
<path class="st3" d="M116.6,227.7l10.7,10.7c2.5,2.5,6.6,2.5,9.2,0l10.7-10.7c2.5-2.5,2.5-6.6,0-9.2l-10.7-10.7
	c-2.5-2.5-6.6-2.5-9.2,0l-10.7,10.7C114.1,221.1,114.1,225.2,116.6,227.7z"/>
<path class="st2" d="M404.7,510.2l8.4,8.4c1.2,1.2,3.2,1.2,4.4,0l8.4-8.4c1.2-1.2,1.2-3.2,0-4.4l-8.4-8.4c-1.2-1.2-3.2-1.2-4.4,0
	l-8.4,8.4C403.5,507,403.5,509,404.7,510.2z"/>
<circle class="st4" cx="472.9" cy="440.3" r="88.5"/>
</svg>
