<?xml version="1.0" encoding="utf-8"?>
<!-- Generator: Adobe Illustrator 28.0.0, SVG Export Plug-In . SVG Version: 6.00 Build 0)  -->
<svg version="1.1" id="Capa_1" xmlns="http://www.w3.org/2000/svg" xmlns:xlink="http://www.w3.org/1999/xlink" x="0px" y="0px"
	 viewBox="0 0 600 600" style="enable-background:new 0 0 600 600;" xml:space="preserve">
<style type="text/css">
	.st0{fill:#090909;}
	.st1{fill:#FDFDFD;}
	.st2{fill:#29E4A5;}
	.st3{fill:#6EE1EB;}
	.st4{fill:none;stroke:#29E4A5;stroke-width:11;stroke-miterlimit:10;}
</style>
<path class="st0" d="M455.2,173.2c4.8,0,9.6-0.1,14.3,0c9,0.3,15.9,4.5,20.1,12.4c2.8,5.3,2.5,10.9-1,16.1c-1.3,1.9-2.7,3.8-4.3,6.1
	c3.6,0,6.8-0.1,9.9,0.1c12.2,0.9,20.5,8.2,20.4,20.3c0,4-1.5,7.5-4.2,10.3c-17.4,17.9-31.2,38.4-43.5,60
	c-9.2,16.1-17.2,32.8-24.2,49.9c-0.5,1.2-1.1,2.3-1.3,3.8c3.2-0.6,6.3-1.2,9.4-1.8c8.7-1.5,17.5-1.7,26.2-0.7
	c25.8,2.9,47.1,14.4,63.7,34.3c12.8,15.4,19.6,33.3,20.9,53.2c2.6,38.3-19,76.1-56,93.5c-15.4,7.3-31.6,10.5-48.6,9.3
	c-24.7-1.8-45.9-11.4-63.2-29.3c-11.9-12.4-19.6-27-23.6-43.7c-0.6-2.6-0.6-2.6-3.4-2.6c-28.9,0-57.8,0-86.6,0
	c-51.7,0-103.4,0-155.1,0c-0.3,0-0.6,0-0.9,0c-5.1,0-8.1-2.9-8.1-8.2c-0.1-6.7,0-13.5,0-20.2c0-7.7,0-15.4,0-23.1c0-0.9,0-1.9,0-3.4
	c-1.2,1.2-2,1.8-2.7,2.5c-9.8,9.7-19.5,19.4-29.4,29c-9.4,9.2-24,10.5-35.3,3.2c-11.3-7.2-16.4-20.9-12.3-33.1
	c1.3-3.8,3.3-7.3,6.2-10.1c15.9-15.9,31.9-31.8,47.8-47.8c4.8-4.8,9.5-9.5,14.3-14.3c1.8-1.8,1.8-1.8,0.7-3.9
	c-5.5-10.8-9-22.2-10.3-34.3c-2.6-25.6,3.7-48.9,19.3-69.5c1.4-1.8,2-3.6,2-5.9c0-35.1,0.1-70.2,0.1-105.4c0-2.7,0.5-5,2.9-6.6
	c1.1-0.7,2.2-1.2,3.5-1.2c0.9,0,1.8,0,2.6,0c94.1-0.1,188.3-0.2,282.4-0.4c1.2,0,2.3,0,3.5,0.1c3.6,0.4,5.2,2.2,5.2,5.8
	c0,3.5-0.1,7-0.2,10.5c0,1.6,0.1,3.1-0.1,4.7c-0.2,1.6,0.6,2,2,2c5.1,0,10.1,0,15.2,0.1c0.8,0,1.5-0.2,2.3-0.3
	c11.1-1.6,21.5,4.6,24.9,13.7c1.4,3.8,1.3,7.4-0.4,11.1c-1.7,3.8-3.4,7.6-5.1,11.5C455.2,171.7,454.9,172.2,455.2,173.2z M150.7,380
	c-0.5,0.7-0.4,1.4-0.4,2.1c-0.1,15.6-0.1,31.2-0.2,46.8c0,0.4,0,0.8,0,1.2c-0.1,1,0.4,1.4,1.4,1.4c0.7,0,1.4,0,2,0
	c17.5,0,34.9,0,52.4,0.1c53.5,0.1,106.9,0.3,160.4,0.4c2.8,0,2.8,0,3.3-2.7c2.4-12.7,7-24.5,14.2-35.3c1.1-1.7,1.6-3.4,1.6-5.4
	c0.1-45.9,0.2-91.9,0.3-137.8c0.1-34.2,0.2-68.5,0.3-102.7c0-3.1,0.4-2.8-2.8-2.8c-76.4-0.2-152.8-0.4-229.1-0.6c-0.5,0-1,0-1.5,0
	c-1.1-0.1-1.7,0.2-1.6,1.4c0,0.5,0,1,0,1.5c-0.1,17.4-0.2,34.7-0.2,52.1c0,0.9-0.2,1.9,0.2,2.8c0.2,0,0.4,0.2,0.6,0.1
	c0.6-0.2,1.3-0.5,1.9-0.7c16.4-6.6,33.4-8.6,50.8-5.5c26.3,4.6,47.7,17.5,63.2,39.2c21.5,30.2,26,63.2,11.3,97.5
	c-19.8,46.5-71.7,68-119.2,50.5C156.6,382.5,153.6,381.2,150.7,380z M125.5,219.3c4.5-3.9,8.6-7.3,13.2-9.8c2.5-1.4,3.1-3.1,3.1-5.8
	c-0.1-20.4,0-40.8,0-61.2c0-1-0.1-2,0.1-2.9c0.3-2.4,1.6-3.6,4-3.8c2.1-0.2,4.3-0.3,6.4-0.3c32.7,0.1,65.4,0.2,98,0.2
	c46.4,0.1,92.9,0.1,139.3,0.1c0.6,0,1.2,0,1.7,0.1c2.5,0.4,3.5,1.5,3.7,4.1c0.1,1.6-0.1,3.3-0.1,5c-0.2,77.5-0.4,154.9-0.7,232.4
	c0,0.7-0.2,1.5,0.2,2.1c0.7,0,0.9-0.4,1.1-0.6c9.1-9.2,19.5-16.4,31.4-21.5c1.9-0.8,3.1-2,3.8-4c9.1-23.8,20.2-46.7,33.3-68.5
	c11.2-18.6,23.7-36.2,38.8-51.9c3-3.2,3.2-8.8,0.3-12.3c-1.8-2.3-4.1-3.6-7.3-3.6c-6.2,0.1-12.5-0.2-18.7-0.4c-2.5,0-4.4-1-5.5-3.2
	c-1.1-2.2-0.1-3.9,1.1-5.7c2.6-3.6,5-7.2,7.6-10.7c0.8-1.2,1.2-2.4,1.4-3.8c0.8-5-5.1-10.4-8.7-11.2c-0.6-0.1-1.2,0-1.7,0
	c-7.5,0-15,0-22.5,0c-3.7,0-5.9-2.7-5.4-6.4c0.1-1,0.5-1.9,0.9-2.8c2.4-5.3,4.6-10.7,7.2-16c1.3-2.6,1-4.9-0.3-7.2
	c-1.4-2.5-3.5-4.2-5.9-5.5c-0.5-0.3-1.1-0.4-1.7-0.3c-5.3,0.7-10.5,0.1-15.8,0.2c-5.1,0-10.1,0-15.2-0.1c-3.3-0.1-4.8-1.5-5.2-4.7
	c-0.2-1.4-0.2-2.9-0.2-4.4c0-3.9,0.1-7.8,0.1-11.7c0-2,0-2-2.1-2c-0.3,0-0.6,0-0.9,0c-91.9,0.1-183.8,0.2-275.7,0.4
	c-3.8,0-3.3-0.2-3.3,3.2c0,30.4,0,60.9-0.1,91.3C125.5,216.9,125.5,217.8,125.5,219.3z M188.9,204c-12.4,0-24.2,2.4-35.2,7.7
	c-30.1,14.5-46.6,38.8-49.6,71.9c-1.9,20.4,3.5,39.3,14.7,56.4c7.8,11.9,17.9,21.5,30.4,28.6c16.2,9.3,33.6,13.3,52.2,11.4
	c24.6-2.5,44.8-13.5,59.2-33.5c20.6-28.6,23.2-59.7,8-91.2C252.7,222.4,225.2,205.8,188.9,204z M376.9,446.1
	c0.1,6.6,0.8,13.1,2.3,19.5c10.1,42.7,50.7,70.4,94.8,65.2c21.1-2.5,39.3-11.3,53.9-26.7c21.4-22.5,29.5-49.3,22.7-79.7
	c-8.4-37.7-41.3-64.3-79.9-66c-16.8-0.7-32.8,2.7-47.5,11C393.6,386.3,378.4,412.2,376.9,446.1z M141.1,385.5
	c-0.4,0.1-0.6,0.1-0.7,0.2c-4.7,4.6-9.3,9.2-14,13.7c-0.9,0.8-1,1.8-1,2.9c0,17,0,33.9,0,50.9c0,2.2,0,2.2,2.2,2.2
	c0.2,0,0.4,0,0.6,0c79.1,0,158.2,0,237.3,0c1,0,2,0.2,2.6-0.1c0-3.5-0.1-6.8,0-10.1c0.1-4.3,0.1-4.3-4.2-4.3
	c-71-0.2-142-0.3-213-0.5c-1.3,0-2.5,0-3.8-0.2c-3.9-0.6-5.8-2.7-5.9-6.7c0-1.1,0-2.1,0-3.2C141.1,415.6,141.1,400.6,141.1,385.5z
	 M111.1,345.2c-1,1.2-1.5,2-2.2,2.7c-9,9-18.1,18.1-27.1,27.1c-10.9,11-21.9,22-32.8,32.9c-1.7,1.7-2.9,3.6-3.8,5.8
	c-3.6,9.5,1.6,20.7,11.5,24.7c6.9,2.8,13.6,2.2,19.5-2.6c2.1-1.7,4.1-3.6,6-5.6c15.2-15,30.4-29.9,45.6-45
	c3.9-3.8,7.6-7.8,11.6-11.8C128.4,366.1,119,356.8,111.1,345.2z"/>
<path class="st1" d="M150.7,380c3,1.2,5.9,2.5,8.9,3.6c47.5,17.5,99.3-4.1,119.2-50.5c14.6-34.3,10.2-67.3-11.3-97.5
	c-15.4-21.7-36.9-34.7-63.2-39.2c-17.4-3-34.4-1-50.8,5.5c-0.6,0.3-1.3,0.5-1.9,0.7c-0.2,0-0.4-0.1-0.6-0.1
	c-0.4-0.9-0.2-1.9-0.2-2.8c0.1-17.4,0.1-34.7,0.2-52.1c0-0.5,0-1,0-1.5c-0.1-1.2,0.5-1.5,1.6-1.4c0.5,0,1,0,1.5,0
	c76.4,0.2,152.8,0.4,229.1,0.6c3.2,0,2.8-0.3,2.8,2.8c-0.1,34.2-0.2,68.5-0.3,102.7c-0.1,45.9-0.2,91.9-0.3,137.8
	c0,2-0.5,3.7-1.6,5.4c-7.2,10.8-11.8,22.6-14.2,35.3c-0.5,2.7-0.5,2.7-3.3,2.7c-53.5-0.1-106.9-0.3-160.4-0.4
	c-17.5,0-34.9-0.1-52.4-0.1c-0.7,0-1.4,0-2,0c-1,0.1-1.5-0.3-1.4-1.4c0-0.4,0-0.8,0-1.2c0.1-15.6,0.1-31.2,0.2-46.8
	C150.3,381.4,150.2,380.7,150.7,380z M268.3,406.3c0-0.2,0-0.4,0-0.6c28.5,0,57,0,85.5,0c1.2,0,2.3,0.1,3.5-0.3
	c2-0.7,3.4-2.3,3.4-4.3c0-2-1.3-3.7-3.3-4.3c-1.2-0.4-2.5-0.3-3.8-0.3c-16.3,0.1-32.6,0.2-48.9,0.3c-40.1,0.1-80.2,0.2-120.3,0.4
	c-1.3,0-2.5,0-3.8,0.2c-2.4,0.4-3.8,2.2-3.7,4.5c0.1,2.2,1.6,4,4,4.3c1.1,0.1,2.1,0.1,3.2,0.1C212.1,406.3,240.2,406.3,268.3,406.3z
	 M267.7,170.9c0-0.2,0-0.3,0-0.5c-28.4,0-56.7,0-85.1,0c-1.1,0-2.2,0-3.2,0.2c-2.2,0.5-3.6,2.2-3.6,4.3c0,2.2,1.3,3.8,3.6,4.4
	c1.2,0.3,2.5,0.3,3.8,0.3c56.5,0.1,112.9,0.3,169.4,0.4c1,0,2,0,2.9-0.1c2.4-0.3,4-2,4.1-4.2c0.1-2.2-1.6-4.3-4-4.6
	c-1.1-0.2-2.1-0.1-3.2-0.1C324.1,170.9,295.9,170.9,267.7,170.9z M314.7,225.5c12.9,0,25.7,0,38.6,0c1,0,2,0,2.9-0.1
	c2.4-0.3,4.1-2.3,4-4.6c-0.1-2.2-1.7-3.9-4.1-4.2c-0.9-0.1-1.8-0.1-2.6-0.1c-25.8,0-51.7,0-77.5,0c-1,0-2,0-2.9,0.1
	c-2.2,0.3-3.7,2-3.8,4.1c-0.1,2.3,1.3,4.2,3.6,4.6c1,0.2,2.1,0.1,3.2,0.1C289,225.5,301.8,225.5,314.7,225.5z M317.4,360.3
	c0-0.1,0-0.1,0-0.2c12.1,0,24.2,0,36.3,0c1,0,2,0,2.9-0.1c2.3-0.4,3.8-2.3,3.7-4.5c-0.1-2.3-1.6-3.9-4-4.3c-0.7-0.1-1.4-0.1-2-0.1
	c-24.8,0-49.5,0.1-74.3,0.2c-0.9,0-1.8,0-2.6,0.3c-2.1,0.6-3.4,2.6-3.2,4.7c0.2,2,1.6,3.6,3.7,3.9c1.1,0.2,2.3,0.2,3.5,0.2
	C293.4,360.3,305.4,360.3,317.4,360.3z M326.8,306.3C326.8,306.3,326.8,306.3,326.8,306.3c-9.4,0-18.7,0-28.1,0
	c-1.2,0-2.3,0-3.5,0.4c-1.9,0.7-3,2.3-3,4.2c0,2,1.1,3.5,3,4.2c0.9,0.4,1.9,0.4,2.9,0.4c19.1,0,38.2,0,57.3,0c0.9,0,1.7,0,2.6-0.3
	c2.1-0.7,3.3-2.3,3.3-4.3c0-2-1.2-3.6-3.3-4.3c-1.1-0.4-2.3-0.3-3.5-0.3C345.4,306.3,336.1,306.3,326.8,306.3z M326.1,269.5
	c0,0.1,0,0.2,0,0.3c9.2,0,18.3,0,27.5,0c1.2,0,2.3,0,3.5-0.4c1.9-0.7,3.1-2.2,3.1-4.2c0-1.9-1.1-3.5-3-4.3c-1-0.4-2.1-0.4-3.2-0.4
	c-18.5,0-37.1-0.1-55.6-0.1c-0.8,0-1.6,0-2.3,0.1c-2.3,0.4-3.8,2.2-3.8,4.5c0,2.1,1.5,3.9,3.7,4.3c1,0.2,1.9,0.2,2.9,0.2
	C308,269.5,317,269.5,326.1,269.5z"/>
<path class="st1" d="M125.5,219.3c0-1.5,0-2.4,0-3.2c0-30.4,0-60.9,0.1-91.3c0-3.5-0.5-3.2,3.3-3.2c91.9-0.1,183.8-0.2,275.7-0.4
	c0.3,0,0.6,0,0.9,0c2.1,0,2.1,0,2.1,2c0,3.9-0.1,7.8-0.1,11.7c0,1.5,0.1,2.9,0.2,4.4c0.4,3.2,2,4.6,5.2,4.7
	c5.1,0.1,10.1,0.2,15.2,0.1c5.3,0,10.5,0.5,15.8-0.2c0.6-0.1,1.2,0.1,1.7,0.3c2.4,1.4,4.5,3,5.9,5.5c1.3,2.3,1.6,4.6,0.3,7.2
	c-2.6,5.2-4.8,10.6-7.2,16c-0.4,0.9-0.8,1.8-0.9,2.8c-0.5,3.6,1.7,6.3,5.4,6.4c7.5,0.1,15,0,22.5,0c0.6,0,1.2-0.1,1.7,0
	c3.6,0.8,9.5,6.2,8.7,11.2c-0.2,1.4-0.5,2.6-1.4,3.8c-2.6,3.5-5.1,7.2-7.6,10.7c-1.2,1.7-2.2,3.5-1.1,5.7c1.1,2.2,3,3.2,5.5,3.2
	c6.2,0.1,12.5,0.4,18.7,0.4c3.2,0,5.4,1.3,7.3,3.6c2.9,3.5,2.8,9.2-0.3,12.3c-15.1,15.7-27.6,33.3-38.8,51.9
	c-13.1,21.8-24.2,44.7-33.3,68.5c-0.8,2-1.9,3.2-3.8,4c-11.9,5-22.4,12.2-31.4,21.5c-0.3,0.3-0.4,0.6-1.1,0.6
	c-0.4-0.6-0.2-1.4-0.2-2.1c0.2-77.5,0.4-154.9,0.7-232.4c0-1.7,0.2-3.3,0.1-5c-0.2-2.6-1.1-3.7-3.7-4.1c-0.6-0.1-1.2-0.1-1.7-0.1
	c-46.4,0-92.9-0.1-139.3-0.1c-32.7,0-65.4-0.2-98-0.2c-2.1,0-4.3,0.1-6.4,0.3c-2.5,0.2-3.7,1.4-4,3.8c-0.1,1-0.1,1.9-0.1,2.9
	c0,20.4-0.1,40.8,0,61.2c0,2.7-0.6,4.4-3.1,5.8C134.1,212,130,215.4,125.5,219.3z M415.7,305.4c0,0.8,0.1,1.2,0.1,1.6
	c0.3,2.6,1.9,4.3,4.2,4.4c2.3,0.1,3.7-1,4.4-3.8c0.1-0.3,0.2-0.6,0.2-0.9c1.3-7.6,3.5-15,6-22.3c6.4-19.1,13.2-38.1,23.1-55.8
	c5-9,9.1-18.5,14.5-27.4c0.4-0.7,0.7-1.4,0.9-2.1c1-3.5-0.7-6-4.2-6.5c-0.7-0.1-1.4-0.1-2-0.1c-5.9,0-11.9,0-17.8-0.1
	c-4.7,0-7,1.5-8.3,6.2c-4.4,16.3-8,32.7-11,49.3c-3,16.7-5.7,33.4-8.5,50.1C416.5,300.9,416.1,303.3,415.7,305.4z M405.9,217.3
	c-0.3,10.1-0.7,26.2-1.1,42.3c0,1.1-0.1,2.2,0,3.2c0.3,2.5,2,4.2,4.4,4.3c2.4,0.2,4.3-1.2,4.9-3.7c0.2-0.8,0.4-1.7,0.5-2.6
	c1.1-7.1,2.3-14.2,3.6-21.3c3.9-20.9,8.7-41.6,15.3-61.8c1.8-5.5,3.7-10.9,5.4-16.3c1.6-4.8-0.8-8-5.5-7.7c-4.5,0.3-9,0.2-13.5,0.3
	c-2.5,0.1-5.1,0.1-7.6,0.4c-3.2,0.3-4.7,1.9-5,5.1c-0.1,0.8-0.1,1.6-0.1,2.3C406.8,178.4,406.4,194.9,405.9,217.3z M491.2,230.2
	c-0.1-0.9-0.4-2-1.2-2.7c-1.4-1.3-3.2-1.9-5.1-1.9c-6,0.1-12.1,0.2-18.1,0.4c-1.7,0-3,0.8-3.8,2.3c-4.5,7.9-8.5,16-12,24.3
	c-6.3,15.1-11.2,30.7-16.4,46.2c-1.6,4.8-3.2,9.6-4.8,14.4c-1,3.1,0,5.6,2.5,6.6c2.6,1,4.4-0.1,5.8-3.3c1.3-3,2.9-6,4.4-8.9
	c7.1-13.1,15.3-25.6,22.9-38.4c3.5-6,7.3-11.8,11.4-17.3c4.3-5.9,8.5-11.9,12.7-17.8C490.3,232.9,491,231.8,491.2,230.2z"/>
<path class="st1" d="M188.9,204c36.3,1.8,63.8,18.3,79.7,51.2c15.2,31.5,12.6,62.7-8,91.2c-14.4,20-34.6,31-59.2,33.5
	c-18.6,1.9-36-2.1-52.2-11.4c-12.4-7.1-22.5-16.7-30.4-28.6c-11.2-17.1-16.5-36-14.7-56.4c3-33.1,19.5-57.4,49.6-71.9
	C164.7,206.4,176.5,204.1,188.9,204z M190.9,219.8c-16.6,0.2-31.4,5.3-44.3,15.7c-26.9,21.9-33.8,60-16.6,90.4
	c18.5,32.6,58,45.9,91.9,30.8c31.8-14.1,47.4-49,39.5-81.4C253.8,244,225.4,219.9,190.9,219.8z"/>
<path class="st1" d="M141.1,385.5c0,15.1,0,30,0,45c0,1.1,0,2.1,0,3.2c0.1,3.9,1.9,6.1,5.9,6.7c1.2,0.2,2.5,0.1,3.8,0.2
	c71,0.2,142,0.3,213,0.5c4.4,0,4.3,0,4.2,4.3c-0.1,3.3,0,6.6,0,10.1c-0.6,0.3-1.6,0.1-2.6,0.1c-79.1,0-158.2,0-237.3,0
	c-0.2,0-0.4,0-0.6,0c-2.2,0-2.2,0-2.2-2.2c0-17,0-33.9,0-50.9c0-1.1,0.2-2,1-2.9c4.7-4.5,9.3-9.1,14-13.7
	C140.5,385.6,140.7,385.6,141.1,385.5z"/>
<path class="st1" d="M111.1,345.2c7.9,11.6,17.2,20.9,28.3,28.3c-3.9,4-7.7,8-11.6,11.8c-15.2,15-30.4,30-45.6,45
	c-1.9,1.9-3.9,3.8-6,5.6c-5.9,4.8-12.6,5.4-19.5,2.6c-9.9-4-15.1-15.2-11.5-24.7c0.8-2.2,2.1-4.2,3.8-5.8c10.9-11,21.9-22,32.8-32.9
	c9-9,18.1-18.1,27.1-27.1C109.6,347.1,110.2,346.3,111.1,345.2z"/>
<path class="st0" d="M268.3,406.3c-28.1,0-56.2,0-84.3,0c-1.1,0-2.2,0.1-3.2-0.1c-2.4-0.3-3.9-2.1-4-4.3c-0.1-2.3,1.3-4.1,3.7-4.5
	c1.2-0.2,2.5-0.2,3.8-0.2c40.1-0.1,80.2-0.2,120.3-0.4c16.3-0.1,32.6-0.2,48.9-0.3c1.3,0,2.5-0.1,3.8,0.3c2,0.7,3.4,2.4,3.3,4.3
	c0,2-1.4,3.7-3.4,4.3c-1.1,0.4-2.3,0.3-3.5,0.3c-28.5,0-57,0-85.5,0C268.3,405.9,268.3,406.1,268.3,406.3z"/>
<path class="st0" d="M267.7,170.9c28.2,0,56.4,0,84.5,0c1.1,0,2.2-0.1,3.2,0.1c2.4,0.4,4.1,2.4,4,4.6c-0.1,2.2-1.7,3.9-4.1,4.2
	c-1,0.1-1.9,0.1-2.9,0.1c-56.5-0.1-112.9-0.3-169.4-0.4c-1.3,0-2.5,0.1-3.8-0.3c-2.3-0.6-3.6-2.2-3.6-4.4c0-2.1,1.4-3.9,3.6-4.3
	c1-0.2,2.1-0.2,3.2-0.2c28.4,0,56.7,0,85.1,0C267.7,170.6,267.7,170.7,267.7,170.9z"/>
<path class="st0" d="M314.7,225.5c-12.9,0-25.7,0-38.6,0c-1.1,0-2.2,0-3.2-0.1c-2.3-0.4-3.7-2.3-3.6-4.6c0.1-2.2,1.6-3.8,3.8-4.1
	c1-0.1,1.9-0.1,2.9-0.1c25.8,0,51.7,0,77.5,0c0.9,0,1.8,0,2.6,0.1c2.4,0.3,4,2,4.1,4.2c0.1,2.3-1.5,4.3-4,4.6
	c-1,0.1-1.9,0.1-2.9,0.1C340.4,225.5,327.6,225.5,314.7,225.5z"/>
<path class="st0" d="M317.4,360.3c-12,0-24,0-36,0c-1.2,0-2.4,0-3.5-0.2c-2.1-0.3-3.5-1.9-3.7-3.9c-0.2-2.1,1.1-4.1,3.2-4.7
	c0.8-0.2,1.7-0.3,2.6-0.3c24.8-0.1,49.5-0.1,74.3-0.2c0.7,0,1.4,0,2,0.1c2.4,0.3,3.9,2,4,4.3c0.1,2.3-1.4,4.1-3.7,4.5
	c-0.9,0.2-1.9,0.1-2.9,0.1c-12.1,0-24.2,0-36.3,0C317.4,360.2,317.4,360.2,317.4,360.3z"/>
<path class="st0" d="M326.8,306.3c9.3,0,18.5,0,27.8,0c1.2,0,2.3-0.1,3.5,0.3c2.1,0.7,3.3,2.3,3.3,4.3c0,2-1.2,3.6-3.3,4.3
	c-0.9,0.3-1.7,0.3-2.6,0.3c-19.1,0-38.2,0-57.3,0c-1,0-1.9,0-2.9-0.4c-1.9-0.7-3-2.3-3-4.2c0-1.9,1.1-3.5,3-4.2
	c1.1-0.4,2.3-0.4,3.5-0.4C308.1,306.3,317.5,306.3,326.8,306.3C326.8,306.3,326.8,306.3,326.8,306.3z"/>
<path class="st0" d="M326.1,269.5c-9.1,0-18.1,0-27.2,0c-1,0-2,0-2.9-0.2c-2.2-0.4-3.6-2.2-3.7-4.3c0-2.2,1.5-4.1,3.8-4.5
	c0.8-0.1,1.6-0.1,2.3-0.1c18.5,0,37.1,0.1,55.6,0.1c1.1,0,2.1,0,3.2,0.4c1.9,0.8,3,2.3,3,4.3c0,1.9-1.2,3.5-3.1,4.2
	c-1.1,0.4-2.3,0.4-3.5,0.4c-9.2,0-18.3,0-27.5,0C326.1,269.6,326.1,269.6,326.1,269.5z"/>
<path class="st0" d="M415.7,305.4c0.4-2.1,0.9-4.6,1.3-7.1c2.8-16.7,5.4-33.5,8.5-50.1c3-16.6,6.6-33,11-49.3
	c1.3-4.8,3.7-6.2,8.3-6.2c5.9,0,11.9,0,17.8,0.1c0.7,0,1.4,0,2,0.1c3.6,0.4,5.3,3,4.2,6.5c-0.2,0.7-0.5,1.5-0.9,2.1
	c-5.4,8.8-9.4,18.4-14.5,27.4c-9.9,17.7-16.7,36.7-23.1,55.8c-2.4,7.3-4.7,14.6-6,22.3c0,0.3-0.1,0.6-0.2,0.9
	c-0.7,2.7-2.1,3.9-4.4,3.8c-2.3-0.1-3.9-1.9-4.2-4.4C415.7,306.6,415.7,306.2,415.7,305.4z M435.7,243.7
	c6.4-14.3,14.7-27.6,22.2-41.9c-4,0-7.5,0-11.1,0c-2.4,0-2.4,0-3,2.4c-3,12.5-5.2,25.2-8,37.7C435.7,242.5,435.8,243.1,435.7,243.7z
	"/>
<path class="st0" d="M405.9,217.3c0.6-22.5,1-38.9,1.4-55.4c0-0.8,0-1.6,0.1-2.3c0.3-3.2,1.8-4.8,5-5.1c2.5-0.3,5.1-0.3,7.6-0.4
	c4.5-0.1,9,0,13.5-0.3c4.7-0.3,7.1,2.9,5.5,7.7c-1.8,5.5-3.7,10.9-5.4,16.3c-6.6,20.2-11.4,40.9-15.3,61.8
	c-1.3,7.1-2.5,14.2-3.6,21.3c-0.1,0.9-0.3,1.7-0.5,2.6c-0.6,2.4-2.5,3.8-4.9,3.7c-2.3-0.2-4.1-1.9-4.4-4.3c-0.1-1.1,0-2.1,0-3.2
	C405.2,243.5,405.6,227.5,405.9,217.3z M415.3,207.1c4.1-14.8,8.2-29.5,14.1-43.8c-3.9,0-7.3,0-10.8,0c-2.4,0-2.3-0.2-2.4,2.4
	c-0.3,11.3-0.6,22.6-0.9,33.9C415.3,202.2,415.3,204.7,415.3,207.1z"/>
<path class="st0" d="M491.2,230.2c-0.1,1.6-0.8,2.7-1.6,3.8c-4.2,5.9-8.4,12-12.7,17.8c-4.1,5.6-7.9,11.4-11.4,17.3
	c-7.6,12.8-15.7,25.3-22.9,38.4c-1.6,2.9-3.1,5.8-4.4,8.9c-1.4,3.2-3.2,4.3-5.8,3.3c-2.5-1-3.5-3.4-2.5-6.6
	c1.5-4.8,3.2-9.6,4.8-14.4c5.2-15.5,10.1-31.1,16.4-46.2c3.5-8.4,7.5-16.5,12-24.3c0.8-1.5,2.1-2.3,3.8-2.3c6-0.1,12.1-0.3,18.1-0.4
	c1.9,0,3.6,0.6,5.1,1.9C490.8,228.2,491,229.3,491.2,230.2z M478.6,234.8c-0.1-0.2-0.3-0.4-0.4-0.7c-2.2,0-4.5,0.1-6.7,0
	c-1.7-0.1-2.6,0.4-3.4,2c-5,10.5-9.3,21.2-13.4,32.1c-0.1,0.3-0.3,0.7,0.4,1C461.7,256.9,469.8,245.6,478.6,234.8z"/>
<path class="st0" d="M190.9,219.8c34.5,0.1,62.8,24.2,70.5,55.6c7.9,32.4-7.6,67.3-39.5,81.4c-33.9,15.1-73.5,1.7-91.9-30.8
	c-17.3-30.4-10.3-68.5,16.6-90.4C159.5,225.1,174.4,220,190.9,219.8z M193.9,353.8c2.9,0.1,6.7-0.2,10.5-0.9
	c36.4-7,57.7-42.9,47.5-77.9c-9.2-31.9-40.7-51.2-73.1-44.7c-33.6,6.7-53.3,38.5-48.2,70.1C135.4,330.8,162.2,353.9,193.9,353.8z"/>
<path class="st2" d="M465.9,517.4c-36.1,0.1-66.3-25.6-71.6-60.4c-5-32.7,13.6-65.7,44.3-78.2c21.2-8.6,42.2-8,62.4,2.7
	c19.3,10.3,31.4,26.5,36,47.9c8.5,39.6-17.8,78.5-57.6,86.4C474.7,516.8,470,517.2,465.9,517.4z M467,382.1c-3.8,0-7.6,0.2-11.4,0.9
	c-30.9,5.8-50.9,31.3-52.9,57.8c-1.5,20.5,5,38.1,20.5,51.5c20.7,17.9,44.2,20.8,69,9.8c25.6-11.4,41.5-39.1,36.3-68.8
	C523.3,403.3,497.5,382.1,467,382.1z"/>
<path class="st1" d="M435.7,243.7c0-0.6,0-1.2,0.1-1.7c2.8-12.5,5-25.2,8-37.7c0.6-2.4,0.6-2.4,3-2.4c3.5,0,7,0,11.1,0
	C450.5,216.1,442.1,229.4,435.7,243.7z"/>
<path class="st1" d="M415.3,207.1c0-2.5-0.1-5,0-7.5c0.3-11.3,0.6-22.6,0.9-33.9c0.1-2.6-0.1-2.4,2.4-2.4c3.5,0,7,0,10.8,0
	C423.5,177.6,419.4,192.3,415.3,207.1z"/>
<path class="st1" d="M478.6,234.8c-8.8,10.8-16.9,22.1-23.6,34.3c-0.7-0.3-0.5-0.7-0.4-1c4.1-10.8,8.4-21.6,13.4-32.1
	c0.8-1.6,1.7-2.1,3.4-2c2.2,0.1,4.5,0,6.7,0C478.3,234.4,478.4,234.6,478.6,234.8z"/>
<path class="st1" d="M193.9,353.8c-31.7,0.1-58.4-23-63.4-53.5c-5.1-31.6,14.6-63.4,48.2-70.1c32.4-6.4,63.8,12.9,73.1,44.7
	c10.2,35.1-11.1,70.9-47.5,77.9C200.6,353.6,196.8,353.8,193.9,353.8z M249,288.6c0.1-2-0.5-5.5-1.2-8.9c-2.2-10.1-6-19.5-13.1-27
	c-13.9-14.7-30.8-20.8-50.8-16.7c-12.8,2.6-23.7,8.7-32.1,18.9c-1.4,1.8-2.5,3.7-3.2,5.8c-0.8,2.4-0.3,4.2,1.5,5.5
	c2.3,1.6,4.1,1.7,6.2,0.3c1.3-0.9,2.5-1.8,3.9-2.5c8.4-4,17.2-5.3,26.4-4.3c11.7,1.3,21.3,6.5,28.6,15.5
	c9.6,11.7,13.7,25.4,12.7,40.6c-0.1,1-0.2,2,0,2.9c0.8,4.6,5,6.4,8.7,3.8c2.5-1.7,4.5-3.9,5.7-6.5
	C246.1,307.8,248.8,299.3,249,288.6z"/>
<path class="st0" d="M249,288.6c-0.2,10.7-2.9,19.2-6.8,27.4c-1.3,2.7-3.3,4.8-5.7,6.5c-3.8,2.6-8,0.7-8.7-3.8
	c-0.2-0.9-0.1-1.9,0-2.9c1.1-15.2-3.1-28.8-12.7-40.6c-7.3-8.9-16.9-14.1-28.6-15.5c-9.3-1.1-18,0.3-26.4,4.3
	c-1.4,0.7-2.6,1.6-3.9,2.5c-2.1,1.5-3.9,1.4-6.2-0.3c-1.8-1.3-2.3-3.1-1.5-5.5c0.7-2.1,1.8-4.1,3.2-5.8
	c8.4-10.2,19.3-16.3,32.1-18.9c20.1-4.1,37,2,50.8,16.7c7.1,7.5,10.9,17,13.1,27C248.6,283.2,249.1,286.6,249,288.6z M170.7,250.9
	c0.3,0.3,0.7,0.2,1,0.1c7.1-1.5,14.2-1,21.2,0.6c18.5,4.3,30.9,15.8,38.4,32.9c2.7,6.2,4.8,12.8,5.4,19.9
	c7.6-15.5-0.2-39.1-12.8-49.7C205.4,239.2,183.2,242.8,170.7,250.9z"/>
<path class="st2" d="M451.3,494.8c-1.6,0-3.2-0.7-4.7-1.6c-3.1-1.9-5.7-4.5-8.2-7.1c-7.3-7.5-14.5-15-21.7-22.5
	c-2.2-2.3-4.1-4.9-5.8-7.7c-1.9-3.1-2.1-6.4,0-9.1c4.8-6.4,10-12.5,17.3-16.3c3.7-1.9,7.2-1.3,10.3,1.3c4.3,3.5,8.1,7.7,12.1,11.5
	c2.7,2.5,2,2.4,4.4,0c11.7-11.7,23.3-23.6,35.4-34.9c1.1-1,2.1-2,3.3-2.9c4-3.1,9.5-2.7,13,0.9c3.3,3.3,6.6,6.7,9.7,10.1
	c3,3.4,5,7.2,4.3,12c-0.3,2.2-1.1,4.1-2.5,5.8c-1.3,1.7-2.9,3.2-4.4,4.7c-13.7,13.6-27.5,27.1-41.1,40.8c-3.7,3.7-7.7,7.2-11.6,10.7
	C457.9,493.4,454.3,494.9,451.3,494.8z M445.9,452.3c-3.8-4.1-7.4-8-11.1-11.8c-2.2-2.3-3.9-2.4-6.4-0.5c-3.5,2.5-6.5,5.6-9.2,8.9
	c-1.4,1.7-1.4,2.7-0.2,4.5c1.6,2.3,3.3,4.6,5.3,6.6c7.1,7.1,14.2,14.2,21.3,21.4c0.7,0.7,1.4,1.3,2.2,1.9c1.6,1.3,3.4,1.6,5.5,1
	c2.9-0.8,5-2.5,7.1-4.5c2.5-2.4,4.7-4.9,7.1-7.3c14.4-14.6,29-28.9,43.6-43.3c1.7-1.6,2-3.4,0.6-5.2c-3.2-4-7-7.6-10.7-11.2
	c-1-0.9-2.1-0.9-3.2-0.1c-1.2,0.8-2.3,1.8-3.3,2.9c-14.3,15.1-29.2,29.6-43.6,44.5c-0.7,0.7-1.4,1.4-2.1,2c-1.2,0.9-2.6,1.2-4.1,0.7
	c-2.9-1.1-3.9-4.4-1.9-7C443.7,454.4,445,453.2,445.9,452.3z"/>
<path class="st1" d="M170.7,250.9c12.4-8.2,34.7-11.8,53.2,3.8c12.6,10.6,20.4,34.2,12.8,49.7c-0.6-7.2-2.6-13.7-5.4-19.9
	c-7.5-17.1-19.9-28.7-38.4-32.9c-7-1.6-14.1-2.1-21.2-0.6C171.4,251.1,171,251.3,170.7,250.9z"/>
<path class="st3" d="M101.7,169.9l11.8,11.8c2.8,2.8,7.3,2.8,10.1,0l11.8-11.8c2.8-2.8,2.8-7.3,0-10.1L123.6,148
	c-2.8-2.8-7.3-2.8-10.1,0l-11.8,11.8C98.9,162.6,98.9,167.1,101.7,169.9z"/>
<path class="st3" d="M101.7,204.2l11.8,11.8c2.8,2.8,7.3,2.8,10.1,0l11.8-11.8c2.8-2.8,2.8-7.3,0-10.1l-11.8-11.8
	c-2.8-2.8-7.3-2.8-10.1,0l-11.8,11.8C98.9,196.9,98.9,201.4,101.7,204.2z"/>
<path class="st2" d="M391.5,515.7l9.3,9.3c1.4,1.3,3.5,1.3,4.9,0l9.3-9.3c1.4-1.3,1.4-3.5,0-4.9l-9.3-9.3c-1.4-1.4-3.5-1.4-4.9,0
	l-9.3,9.3C390.2,512.2,390.2,514.4,391.5,515.7z"/>
<path class="st2" d="M460.7,476l9.3,9.3c1.4,1.4,3.5,1.4,4.9,0l9.3-9.3c1.4-1.4,1.4-3.5,0-4.9l-9.3-9.3c-1.4-1.4-3.5-1.4-4.9,0
	l-9.3,9.3C459.4,472.5,459.4,474.6,460.7,476z"/>
<circle class="st4" cx="465.3" cy="444.9" r="92"/>
</svg>
