<?xml version="1.0" encoding="utf-8"?>
<!-- Generator: Adobe Illustrator 28.0.0, SVG Export Plug-In . SVG Version: 6.00 Build 0)  -->
<svg version="1.1" id="Capa_1" xmlns="http://www.w3.org/2000/svg" xmlns:xlink="http://www.w3.org/1999/xlink" x="0px" y="0px"
	 viewBox="0 0 600 600" style="enable-background:new 0 0 600 600;" xml:space="preserve">
<style type="text/css">
	.st0{fill:#090909;}
	.st1{fill:#FDFDFD;}
	.st2{fill:#FF5500;}
	.st3{fill:#6EE1EB;}
	.st4{fill:none;stroke:#FF5500;stroke-width:11;stroke-miterlimit:10;}
</style>
<path class="st0" d="M462.2,173.2c4.7,0,9.4-0.1,14.1,0c9,0.2,16,4.3,20.2,12.2c2.9,5.4,2.7,11.1-0.9,16.3c-1.3,1.9-2.6,3.8-4.3,6.2
	c3.7,0,6.9-0.2,10,0c12.1,0.9,20.5,8.1,20.4,20.3c0,3.9-1.5,7.4-4.1,10.1c-17.2,17.7-30.9,37.9-43.1,59.2
	c-9.5,16.5-17.7,33.6-24.9,51.2c-0.4,1.1-1,2.1-1.1,3.5c3.2-0.6,6.3-1.2,9.4-1.8c8.7-1.5,17.5-1.7,26.2-0.7
	c29.4,3.5,52.7,17.3,69.2,41.9c23.2,34.5,20.3,80.7-6.7,112.9c-16.6,19.7-37.7,31.7-63.3,34.8c-31.8,3.9-59.4-5.4-82-28.2
	c-12.1-12.2-19.8-26.9-23.8-43.6c-0.8-3.2-0.8-3.2-3.9-3.2c-28.9,0-57.8,0-86.6,0c-51.6,0-103.2,0-154.8,0c-0.4,0-0.8,0-1.2,0
	c-4.9,0.6-7.2-3.7-7.8-7.3c-0.1-0.8,0-1.6,0-2.3c0-13.9,0-27.7,0-41.6c0-1,0-2,0-3.2c-1.2,0.2-1.6,0.9-2.1,1.5
	c-9.7,9.5-19.3,19-29,28.6c-8.2,8.1-17.9,11-29,7.6c-11.2-3.4-18.2-11.2-20.6-22.6c-1.9-9.1,0.6-17.3,7.1-24
	c15.9-16,31.9-31.9,47.8-47.8c4.8-4.8,9.5-9.5,14.3-14.3c1.7-1.7,1.8-1.8,0.7-3.9c-5.5-10.8-9-22.2-10.2-34.3
	c-2.6-25.6,3.7-48.9,19.3-69.5c1.4-1.8,2-3.6,2-5.9c0-35.1,0.1-70.2,0.1-105.4c0-2.7,0.5-5,2.9-6.6c1.1-0.7,2.2-1.2,3.5-1.2
	c1,0,2,0,2.9,0c94-0.1,187.9-0.2,281.9-0.4c1.1,0,2.2,0,3.2,0c4,0.3,5.8,2.1,5.8,6.2c0,4.1-0.1,8.2-0.2,12.3
	c-0.1,4.5-0.1,4.5,4.3,4.6c3.8,0,7.6,0.1,11.4,0.1c1.4,0,2.7-0.2,4.1-0.3c11-1.3,21,4.5,24.5,13.5c1.5,3.9,1.4,7.6-0.3,11.3
	c-1.6,3.6-3.3,7.3-4.9,10.9C462.4,171.3,461.8,172,462.2,173.2z M157.7,379.9c-0.5,1.2-0.3,2.1-0.3,3c-0.1,15.1-0.1,30.2-0.2,45.4
	c0,3.7-0.4,3.2,3.3,3.2c36.3,0.1,72.6,0.1,108.9,0.2c34.7,0.1,69.5,0.2,104.2,0.3c2.6,0,2.6,0,3.1-2.3c2.4-13,7.1-25.1,14.5-36.1
	c0.9-1.3,1.4-2.7,1.4-4.3c0.2-80.4,0.4-160.8,0.6-241.1c0-0.5,0-1,0-1.5c0.1-1.1-0.4-1.6-1.5-1.5c-0.7,0.1-1.4,0-2,0
	c-16,0-32,0-48-0.1c-60.2-0.2-120.4-0.3-180.6-0.5c-3.1,0-2.8-0.4-2.9,2.8c-0.1,17.6-0.2,35.1-0.2,52.7c0,0.8,0,1.7,0,2.4
	c1.2,0.3,1.9-0.3,2.5-0.5c18.6-7.4,37.7-8.9,57.1-4.3c52.2,12.4,85.1,64.2,74.4,116.8c-11,53.7-64.9,86.5-117.6,71.7
	C168.5,384.5,163.1,382.4,157.7,379.9z M132.5,219.2c1-0.8,1.6-1.2,2.2-1.7c3.6-3.1,7.2-6,11.3-8.2c2.2-1.2,2.8-2.7,2.8-5.1
	c-0.1-20.5,0-41,0.1-61.5c0-0.9,0-1.8,0-2.6c0.2-2.8,1.5-4,4.2-4.2c2.1-0.2,4.3-0.3,6.4-0.3c77.8,0.1,155.5,0.3,233.3,0.4
	c1.7,0,3.3-0.2,5,0c3.2,0.2,4.3,1.4,4.4,4.6c0.1,1.8-0.1,3.5-0.1,5.3c-0.1,47.4-0.3,94.8-0.4,142.2c-0.1,29.6-0.2,59.1-0.2,88.7
	c0,1-0.3,2,0.4,3c14.6-14,21.2-17.1,32.2-22.1c2.1-1,3.2-2.3,4.1-4.5c9-23.3,19.8-45.8,32.7-67.2c11.4-19,24-37,39.5-52.9
	c3.5-3.6,2.5-11.4-1.8-14.2c-1.6-1-3.2-1.7-5.2-1.7c-6.3,0-12.7-0.2-19-0.4c-2.3,0-4.2-1-5.3-3.1c-1.1-2.1-0.3-3.9,1-5.7
	c2.6-3.6,5-7.2,7.6-10.7c1-1.3,1.3-2.7,1.5-4.3c0.6-4.5-5.1-10.1-8.8-10.8c-0.6-0.1-1.2,0-1.7,0c-7.5,0-15,0-22.5-0.1
	c-3.7,0-5.9-2.9-5.2-6.5c0.2-0.9,0.6-1.9,1-2.7c2.4-5.5,4.9-11,7.4-16.5c0.4-0.9,0.9-1.8,0.7-2.8c-0.4-2.9-1.9-5.3-4.2-7.2
	c-1.9-1.6-3.8-3.1-6.6-2.2c-0.5,0.2-1.2,0-1.7,0c-8.4-0.1-16.8-0.3-25.2-0.2c-7.2,0.1-7.6-2.7-7.7-7.9c-0.1-3.9,0-7.8,0.1-11.7
	c0-3.4,0-3.4-3.4-3.4c-84.4,0.1-168.8,0.2-253.2,0.3c-7.8,0-15.6,0.1-23.4,0c-1.4,0-2.3,0.3-2,1.9c0.1,0.7,0,1.4,0,2
	c0,28,0,56-0.1,84C132.5,212.5,132.5,215.5,132.5,219.2z M195.9,204c-12.5,0.1-24.4,2.4-35.5,7.8c-30.1,14.6-46.4,39-49.4,72.1
	c-1.8,19.8,3.3,38.3,14.1,55.1c7.9,12.4,18.2,22.3,31,29.6c16.2,9.3,33.6,13.3,52.2,11.4c24.6-2.5,44.8-13.5,59.2-33.5
	c20.6-28.6,23.2-59.7,8.1-91.2C259.7,222.4,232.3,205.8,195.9,204z M560,443.6c-0.1-11.9-2.4-23.1-7.1-33.9
	c-15.2-35-52-55.8-91.2-50.6c-22.5,3-41.6,13.1-56.3,30.4c-18.9,22.2-25.6,47.9-19.1,76.4c8.3,36.6,41,64.6,82.4,65.6
	c14.1,0.3,27.6-2.4,40.2-8.7C541.5,506.4,558.2,479.8,560,443.6z M148.1,385.6c-0.7-0.1-0.9,0.2-1.2,0.5c-4.4,4.4-8.9,8.8-13.4,13.1
	c-0.9,0.9-1.3,1.8-1.3,3.1c0,17,0,33.9,0,50.9c0,2.2,0,2.2,2.2,2.2c0.2,0,0.4,0,0.6,0c79.1,0,158.2,0,237.3,0c1,0,1.9,0.2,2.9-0.3
	c-0.1-3.5-0.5-7-0.3-10.5c0.2-4.3,0.3-3.6-3.4-3.7c-0.3,0-0.6,0-0.9,0c-71-0.2-142-0.3-213-0.5c-1.3,0-2.6,0.1-3.8-0.2
	c-4.8-1.1-6.2-3.4-5.9-6.7c0.1-1.1,0-2.1,0-3.2C148.1,415.6,148.1,400.6,148.1,385.6z M118.5,345.7c-1.2,0.5-1.7,1.3-2.4,2
	c-9,9-18.1,18-27.1,27.1c-11,11-22,22.1-33,33.1c-1.7,1.7-2.9,3.6-3.7,5.9c-3.5,9.5,1.7,20.7,11.6,24.7c7,2.8,13.6,2.1,19.5-2.7
	c2-1.7,3.9-3.5,5.8-5.4c18.5-18.2,36.9-36.4,55.4-54.6c0.7-0.7,1.5-1.2,2-2.2c-5.5-3.8-10.7-7.9-15.4-12.6
	C126.4,356.3,122.3,351.1,118.5,345.7z"/>
<path class="st1" d="M157.7,379.9c5.5,2.5,10.9,4.6,16.5,6.2c52.7,14.8,106.6-18.1,117.6-71.7c10.8-52.6-22.2-104.5-74.4-116.8
	c-19.4-4.6-38.5-3.1-57.1,4.3c-0.7,0.3-1.3,0.9-2.5,0.5c0-0.7,0-1.5,0-2.4c0.1-17.6,0.2-35.1,0.2-52.7c0-3.2-0.2-2.8,2.9-2.8
	c60.2,0.1,120.4,0.3,180.6,0.5c16,0,32,0.1,48,0.1c0.7,0,1.4,0,2,0c1.1-0.1,1.6,0.4,1.5,1.5c0,0.5,0,1,0,1.5
	c-0.2,80.4-0.4,160.8-0.6,241.1c0,1.7-0.5,3-1.4,4.3c-7.4,11-12.1,23.1-14.5,36.1c-0.4,2.3-0.4,2.3-3.1,2.3
	c-34.7-0.1-69.5-0.2-104.2-0.3c-36.3-0.1-72.6-0.1-108.9-0.2c-3.7,0-3.3,0.5-3.3-3.2c0-15.1,0.1-30.2,0.2-45.4
	C157.3,382,157.2,381.1,157.7,379.9z M275.6,406.3c0-0.2,0-0.4,0-0.6c28.4,0,56.8,0,85.2,0c1.2,0,2.3,0.1,3.5-0.3
	c2-0.7,3.3-2.4,3.3-4.3c0-2-1.3-3.6-3.4-4.3c-1.2-0.4-2.5-0.3-3.8-0.3c-16.3,0.1-32.6,0.2-48.9,0.3c-40.1,0.1-80.2,0.2-120.3,0.4
	c-1.3,0-2.5,0-3.8,0.2c-2.4,0.4-3.8,2.2-3.7,4.5c0.1,2.2,1.6,4,4,4.3c1.1,0.1,2.1,0.1,3.2,0.1C219.2,406.3,247.4,406.3,275.6,406.3z
	 M274.6,170.9c0-0.2,0-0.3,0-0.5c-28.4,0-56.7,0-85.1,0c-1.2,0-2.3-0.1-3.5,0.3c-2.1,0.7-3.3,2.3-3.3,4.3c0,2.1,1.2,3.6,3.3,4.3
	c1.3,0.4,2.7,0.3,4.1,0.3c56.5,0.1,112.9,0.3,169.4,0.4c1,0,2,0,2.9-0.1c2.4-0.3,4-2.1,4-4.3c0.1-2.2-1.7-4.2-4.1-4.6
	c-1-0.1-1.9-0.1-2.9-0.1C331.2,170.9,302.9,170.9,274.6,170.9z M321.5,225.5c13,0,25.9,0,38.9,0c1.1,0,2.2,0,3.2-0.2
	c2.3-0.5,3.7-2.5,3.6-4.7c-0.2-2.1-1.7-3.8-3.9-4.1c-0.9-0.1-1.8-0.1-2.6-0.1c-25.9,0-51.9,0-77.8,0c-0.9,0-1.8,0-2.6,0.1
	c-2.4,0.3-3.9,2-4,4.3c-0.1,2.3,1.5,4.1,3.8,4.5c1,0.2,1.9,0.1,2.9,0.1C295.8,225.5,308.7,225.5,321.5,225.5z M324.4,360.3
	c0-0.1,0-0.1,0-0.2c12.1,0,24.2,0,36.3,0c1,0,2,0,2.9-0.1c2.3-0.4,3.8-2.3,3.7-4.5c-0.1-2.3-1.6-3.9-4-4.3c-0.7-0.1-1.4-0.1-2-0.1
	c-24.7,0-49.3,0.1-74,0.2c-1,0-2-0.1-2.9,0.3c-2.1,0.7-3.4,2.6-3.2,4.7c0.2,2,1.6,3.6,3.7,3.9c1.1,0.2,2.3,0.2,3.5,0.2
	C300.4,360.3,312.4,360.3,324.4,360.3z M333.5,315.5C333.5,315.5,333.5,315.5,333.5,315.5c9.5,0,18.9,0,28.4,0
	c1.2,0,2.3,0.1,3.5-0.4c1.9-0.8,3-2.3,3-4.2c0-1.9-1.1-3.5-3-4.2c-1-0.4-2.1-0.4-3.2-0.4c-18.9,0-37.8,0-56.7,0c-1,0-1.9,0-2.9,0.3
	c-2.1,0.7-3.3,2.3-3.3,4.3c0,2,1.2,3.6,3.3,4.3c1,0.3,2.1,0.3,3.2,0.3C315,315.5,324.3,315.5,333.5,315.5z M333.2,260.6
	c0,0,0-0.1,0-0.1c-9.2,0-18.3,0-27.5,0c-1,0-2,0-2.9,0.2c-2.1,0.4-3.5,2.3-3.5,4.5c0,2,1.4,3.7,3.4,4.2c0.8,0.2,1.5,0.2,2.3,0.2
	c18.6,0.1,37.3,0.2,55.9,0.3c1,0,1.9,0,2.9-0.3c2.1-0.6,3.3-2.2,3.4-4.3c0-2-1.2-3.6-3.3-4.3c-1-0.3-2.1-0.3-3.2-0.3
	C351.6,260.6,342.4,260.6,333.2,260.6z"/>
<path class="st1" d="M132.5,219.2c0-3.6,0-6.7,0-9.7c0-28,0-56,0.1-84c0-0.7,0.1-1.4,0-2c-0.2-1.7,0.6-1.9,2-1.9
	c7.8,0,15.6,0,23.4,0c84.4-0.1,168.8-0.2,253.2-0.3c3.4,0,3.4,0,3.4,3.4c0,3.9-0.2,7.8-0.1,11.7c0.1,5.1,0.5,8,7.7,7.9
	c8.4-0.2,16.8,0.1,25.2,0.2c0.6,0,1.2,0.1,1.7,0c2.8-0.9,4.7,0.6,6.6,2.2c2.2,1.9,3.7,4.2,4.2,7.2c0.2,1-0.3,1.9-0.7,2.8
	c-2.5,5.5-5,11-7.4,16.5c-0.4,0.9-0.8,1.8-1,2.7c-0.6,3.6,1.6,6.5,5.2,6.5c7.5,0.1,15,0,22.5,0.1c0.6,0,1.2-0.1,1.7,0
	c3.7,0.7,9.4,6.3,8.8,10.8c-0.2,1.6-0.5,3-1.5,4.3c-2.6,3.5-5.1,7.2-7.6,10.7c-1.3,1.8-2.1,3.6-1,5.7c1.1,2.1,2.9,3,5.3,3.1
	c6.3,0.1,12.7,0.4,19,0.4c2,0,3.6,0.6,5.2,1.7c4.3,2.8,5.4,10.6,1.8,14.2c-15.5,15.9-28.1,33.9-39.5,52.9
	c-12.9,21.4-23.7,43.9-32.7,67.2c-0.8,2.2-1.9,3.5-4.1,4.5c-11,5.1-17.6,8.2-32.2,22.1c-0.7-1-0.4-2-0.4-3
	c0.1-29.6,0.1-59.1,0.2-88.7c0.1-47.4,0.3-94.8,0.4-142.2c0-1.8,0.2-3.5,0.1-5.3c-0.1-3.2-1.3-4.4-4.4-4.6c-1.6-0.1-3.3,0.1-5,0
	c-77.8-0.2-155.5-0.3-233.3-0.4c-2.1,0-4.3,0.1-6.4,0.3c-2.7,0.2-4,1.5-4.2,4.2c-0.1,0.9,0,1.8,0,2.6c0,20.5-0.1,41-0.1,61.5
	c0,2.4-0.5,3.9-2.8,5.1c-4.1,2.3-7.8,5.2-11.3,8.2C134.1,217.9,133.5,218.4,132.5,219.2z M460.7,192.7
	C460.7,192.7,460.7,192.7,460.7,192.7c-3-0.1-6-0.1-9.1-0.1c-5.2,0-6.7,1.3-8.1,6.1c-5.6,19.7-9.5,39.8-13,59.9
	c-2.6,15.1-4.8,30.2-7.7,45.2c-0.2,1.3-0.3,2.5-0.1,3.8c0.4,2.2,2.1,3.7,4.2,3.8c2.1,0.1,3.4-1,4.1-3.3c0.1-0.5,0.3-0.9,0.4-1.4
	c1.3-7.5,3.5-14.8,5.9-22c6.3-19,13.1-37.9,22.9-55.6c5.1-9.1,9.2-18.7,14.6-27.6c0.7-1.2,1.2-2.5,1.3-3.9c0.1-2.1-1-3.8-3-4.5
	c-1-0.4-2.1-0.4-3.2-0.4C467,192.7,463.9,192.7,460.7,192.7z M412.9,216.9c-0.3,10.6-0.7,26.8-1.1,43c0,1.2-0.1,2.4,0.1,3.5
	c0.4,2.2,2.1,3.6,4.2,3.8c2.3,0.2,4.2-1.1,4.9-3.4c0.3-0.9,0.4-1.9,0.6-2.9c1.1-7.1,2.3-14.2,3.6-21.3c4.1-22.2,9.4-44,16.5-65.4
	c1.4-4.3,2.9-8.5,4.3-12.7c1.6-4.8-0.8-7.9-5.5-7.7c-5.8,0.3-11.7,0.3-17.5,0.4c-1.3,0-2.5,0.1-3.8,0.3c-2.9,0.4-4.3,1.9-4.7,4.8
	c-0.1,0.9-0.1,1.8-0.1,2.6C413.8,178.4,413.4,194.9,412.9,216.9z M498.2,230.2c-0.1-1.3-0.6-2.5-1.9-3.3c-1.3-0.9-2.8-1.4-4.4-1.4
	c-6,0.1-12.1,0.2-18.1,0.4c-1.8,0-3.1,0.9-4,2.5c-4.6,8.1-8.7,16.5-12.3,25.2c-4.2,10.1-7.6,20.4-11.1,30.7
	c-3.2,9.5-6.3,19-9.5,28.5c-1.1,3.4-0.2,5.9,2.4,6.9c2.6,1,4.4-0.1,5.9-3.5c1.3-2.9,2.8-5.8,4.3-8.6c7.3-13.4,15.7-26.2,23.5-39.4
	c3.3-5.6,6.9-11.1,10.8-16.3c4.3-5.9,8.5-11.9,12.7-17.8C497.3,233,498,231.8,498.2,230.2z"/>
<path class="st1" d="M195.9,204c36.3,1.8,63.8,18.4,79.6,51.3c15.2,31.5,12.6,62.7-8.1,91.2c-14.4,20-34.7,31-59.2,33.5
	c-18.6,1.9-36-2.1-52.2-11.4c-12.8-7.3-23.1-17.2-31-29.6c-10.7-16.8-15.8-35.3-14.1-55.1c3-33.1,19.3-57.5,49.4-72.1
	C171.5,206.4,183.4,204.1,195.9,204z M127.7,291.3c0,3.4,0.4,7.8,1.2,12.1c7.1,38.1,42.5,63.2,79,59.1c18.1-2.1,33.6-9.7,45.3-23.6
	c18.8-22.4,22.5-47.7,11.6-74.7c-12.5-30.8-46.3-49.2-78.8-43.3C151.9,227,127.7,255.9,127.7,291.3z"/>
<path class="st1" d="M148.1,385.6c0,15,0,29.9,0,44.9c0,1.1,0.1,2.2,0,3.2c-0.3,3.3,1.1,5.6,5.9,6.7c1.2,0.3,2.5,0.2,3.8,0.2
	c71,0.2,142,0.3,213,0.5c0.3,0,0.6,0,0.9,0c3.7,0.1,3.6-0.6,3.4,3.7c-0.2,3.5,0.2,7,0.3,10.5c-1,0.5-2,0.3-2.9,0.3
	c-79.1,0-158.2,0-237.3,0c-0.2,0-0.4,0-0.6,0c-2.2,0-2.2,0-2.2-2.2c0-17,0-33.9,0-50.9c0-1.3,0.3-2.2,1.3-3.1
	c4.5-4.3,8.9-8.7,13.4-13.1C147.2,385.9,147.5,385.5,148.1,385.6z"/>
<path class="st1" d="M118.5,345.7c3.8,5.4,7.9,10.5,12.6,15.2c4.7,4.7,9.9,8.8,15.4,12.6c-0.5,1-1.3,1.6-2,2.2
	c-18.5,18.2-36.9,36.4-55.4,54.6c-1.9,1.8-3.8,3.7-5.8,5.4c-5.9,4.8-12.5,5.5-19.5,2.7c-9.9-3.9-15.1-15.2-11.6-24.7
	c0.8-2.2,2.1-4.2,3.7-5.9c11-11,22-22.1,33-33.1c9-9,18-18.1,27.1-27.1C116.8,347,117.3,346.2,118.5,345.7z"/>
<path class="st0" d="M275.6,406.3c-28.2,0-56.4,0-84.6,0c-1.1,0-2.2,0.1-3.2-0.1c-2.4-0.3-4-2.1-4-4.3c-0.1-2.3,1.3-4.1,3.7-4.5
	c1.2-0.2,2.5-0.2,3.8-0.2c40.1-0.1,80.2-0.2,120.3-0.4c16.3-0.1,32.6-0.2,48.9-0.3c1.3,0,2.5-0.1,3.8,0.3c2,0.6,3.4,2.3,3.4,4.3
	c0,2-1.3,3.7-3.3,4.3c-1.1,0.4-2.3,0.3-3.5,0.3c-28.4,0-56.8,0-85.2,0C275.6,405.9,275.6,406.1,275.6,406.3z"/>
<path class="st0" d="M274.6,170.9c28.3,0,56.6,0,84.8,0c1,0,2-0.1,2.9,0.1c2.4,0.3,4.2,2.3,4.1,4.6c-0.1,2.2-1.7,3.9-4,4.3
	c-1,0.1-1.9,0.1-2.9,0.1c-56.5-0.1-112.9-0.3-169.4-0.4c-1.4,0-2.7,0.1-4.1-0.3c-2.1-0.7-3.3-2.2-3.3-4.3c0-2.1,1.2-3.7,3.3-4.3
	c1.1-0.4,2.3-0.3,3.5-0.3c28.4,0,56.7,0,85.1,0C274.6,170.6,274.6,170.7,274.6,170.9z"/>
<path class="st0" d="M321.5,225.5c-12.9,0-25.7,0-38.6,0c-1,0-2,0-2.9-0.1c-2.3-0.4-3.8-2.3-3.8-4.5c0.1-2.3,1.6-4,4-4.3
	c0.9-0.1,1.8-0.1,2.6-0.1c25.9,0,51.9,0,77.8,0c0.9,0,1.8,0,2.6,0.1c2.2,0.3,3.8,1.9,3.9,4.1c0.2,2.2-1.3,4.2-3.6,4.7
	c-1,0.2-2.1,0.2-3.2,0.2C347.5,225.5,334.5,225.5,321.5,225.5z"/>
<path class="st0" d="M324.4,360.3c-12,0-24,0-36,0c-1.2,0-2.4,0-3.5-0.2c-2.1-0.3-3.5-1.9-3.7-3.9c-0.2-2.1,1.1-4,3.2-4.7
	c0.9-0.3,1.9-0.3,2.9-0.3c24.7-0.1,49.3-0.1,74-0.2c0.7,0,1.4,0,2,0.1c2.4,0.3,3.9,2,4,4.3c0.1,2.3-1.4,4.1-3.7,4.5
	c-0.9,0.2-1.9,0.1-2.9,0.1c-12.1,0-24.2,0-36.3,0C324.4,360.2,324.4,360.2,324.4,360.3z"/>
<path class="st0" d="M333.5,315.5c-9.3,0-18.5,0-27.8,0c-1.1,0-2.1,0.1-3.2-0.3c-2.1-0.7-3.3-2.3-3.3-4.3c0-2.1,1.2-3.6,3.3-4.3
	c0.9-0.3,1.9-0.3,2.9-0.3c18.9,0,37.8,0,56.7,0c1.1,0,2.1,0,3.2,0.4c1.9,0.7,3,2.3,3,4.2c0,2-1.1,3.5-3,4.2
	c-1.1,0.4-2.3,0.4-3.5,0.4C352.5,315.5,343,315.5,333.5,315.5C333.5,315.5,333.5,315.5,333.5,315.5z"/>
<path class="st0" d="M333.2,260.6c9.2,0,18.3,0,27.5,0c1.1,0,2.1-0.1,3.2,0.3c2.1,0.7,3.3,2.3,3.3,4.3c0,2-1.3,3.6-3.4,4.3
	c-1,0.3-1.9,0.3-2.9,0.3c-18.6-0.1-37.3-0.2-55.9-0.3c-0.8,0-1.6,0-2.3-0.2c-2-0.5-3.4-2.2-3.4-4.2c-0.1-2.1,1.4-4,3.5-4.5
	c0.9-0.2,1.9-0.2,2.9-0.2c9.2,0,18.3,0,27.5,0C333.2,260.5,333.2,260.5,333.2,260.6z"/>
<path class="st0" d="M460.7,192.7c3.1,0,6.2,0,9.4,0c1.1,0,2.1,0,3.2,0.4c2,0.8,3.1,2.4,3,4.5c-0.1,1.4-0.6,2.7-1.3,3.9
	c-5.4,8.9-9.5,18.5-14.6,27.6c-9.8,17.6-16.6,36.5-22.9,55.6c-2.4,7.2-4.6,14.5-5.9,22c-0.1,0.5-0.2,0.9-0.4,1.4
	c-0.7,2.4-2,3.4-4.1,3.3c-2.1-0.1-3.8-1.6-4.2-3.8c-0.2-1.3-0.2-2.5,0.1-3.8c2.8-15,5-30.2,7.7-45.2c3.5-20.2,7.4-40.2,13-59.9
	c1.4-4.8,2.9-6.1,8.1-6.1C454.7,192.7,457.7,192.7,460.7,192.7C460.7,192.7,460.7,192.7,460.7,192.7z M464.9,201.8
	c-4.1,0-7.7,0-11.3,0c-2.2,0-2.2,0-2.8,2.3c-3,12.6-5.2,25.3-8,38c-0.1,0.5-0.4,1,0.2,1.6C449.1,229.4,457.4,216.1,464.9,201.8z"/>
<path class="st0" d="M412.9,216.9c0.5-22,0.9-38.5,1.4-55c0-0.9,0-1.8,0.1-2.6c0.4-2.8,1.8-4.3,4.7-4.8c1.3-0.2,2.5-0.2,3.8-0.3
	c5.9-0.1,11.7-0.1,17.5-0.4c4.7-0.3,7.1,2.9,5.5,7.7c-1.4,4.3-2.9,8.5-4.3,12.7c-7.1,21.4-12.4,43.2-16.5,65.4
	c-1.3,7.1-2.5,14.2-3.6,21.3c-0.1,1-0.3,1.9-0.6,2.9c-0.7,2.2-2.6,3.5-4.9,3.4c-2.1-0.2-3.9-1.6-4.2-3.8c-0.2-1.1-0.1-2.3-0.1-3.5
	C412.2,243.7,412.6,227.5,412.9,216.9z M422.5,207.1c3.8-14.9,8-29.5,13.9-43.8c-3.8,0-7.3,0-10.8,0c-2.4,0-2.4,0-2.4,2.4
	c-0.2,8.5-0.4,17-0.6,25.4C422.5,196.5,422.2,201.8,422.5,207.1z"/>
<path class="st0" d="M498.2,230.2c-0.1,1.6-0.9,2.7-1.7,3.9c-4.2,5.9-8.4,11.9-12.7,17.8c-3.9,5.3-7.4,10.7-10.8,16.3
	c-7.8,13.2-16.1,26-23.5,39.4c-1.5,2.8-3,5.7-4.3,8.6c-1.5,3.4-3.3,4.5-5.9,3.5c-2.6-1-3.5-3.5-2.4-6.9c3.1-9.5,6.2-19,9.5-28.5
	c3.5-10.3,6.9-20.7,11.1-30.7c3.6-8.6,7.7-17,12.3-25.2c0.9-1.6,2.2-2.5,4-2.5c6-0.1,12.1-0.3,18.1-0.4c1.6,0,3.1,0.5,4.4,1.4
	C497.6,227.8,498,229,498.2,230.2z M461.8,269c0.2-0.2,0.4-0.4,0.5-0.7c6.5-11.5,14-22.3,22.4-32.5c0.3-0.4,0.9-0.8,0.3-1.7
	c-2.2,0-4.5,0.1-6.8,0c-1.7-0.1-2.4,0.6-3.1,1.9c-3.6,7-6.3,14.5-9.4,21.7C464.1,261.4,462.5,265.1,461.8,269z"/>
<path class="st0" d="M127.7,291.3c0-35.4,24.2-64.3,58.2-70.5c32.5-5.9,66.3,12.5,78.8,43.3c10.9,27,7.2,52.3-11.6,74.7
	c-11.7,14-27.1,21.6-45.3,23.6c-36.5,4.2-71.9-21-79-59.1C128,299.1,127.6,294.7,127.7,291.3z M198,353.8
	c14.3,0.1,25.5-3.3,35.7-9.9c24.9-16.3,34-47.9,22.9-75.4c-11.4-28.3-42.7-44.9-72.1-38.1c-32.2,7.5-52.3,37.7-46.9,70.2
	C142.7,331.3,169.2,353.8,198,353.8z"/>
<path class="st2" d="M473.4,517.4c-36.6,0.1-66.8-25.6-72.1-60.4c-5.1-32.7,13.6-65.7,44.3-78.2c21.2-8.6,42.2-8,62.4,2.7
	c19.3,10.3,31.4,26.5,36,47.9c8.5,39.6-17.8,78.5-57.6,86.4c-2,0.4-4,0.8-6.1,1C477.7,517.2,474.9,517.3,473.4,517.4z M473.6,382.1
	c-2.7,0.1-5.7,0.2-8.7,0.6c-29.8,4.2-52.9,28.8-55.1,58.2c-1.5,20.4,5,37.9,20.4,51.3c20.7,18,44.3,20.9,69.3,9.9
	c26.2-11.6,41.1-40.5,36.3-68.5C530.5,403.7,504.5,382,473.6,382.1z"/>
<path class="st1" d="M464.9,201.8c-7.5,14.3-15.8,27.5-21.9,41.9c-0.6-0.6-0.3-1.2-0.2-1.6c2.8-12.6,5-25.4,8-38
	c0.6-2.3,0.6-2.3,2.8-2.3C457.2,201.8,460.8,201.8,464.9,201.8z"/>
<path class="st1" d="M422.5,207.1c-0.4-5.3,0-10.7,0.1-16c0.2-8.5,0.4-17,0.6-25.4c0.1-2.3,0.1-2.3,2.4-2.4c3.5,0,6.9,0,10.8,0
	C430.5,177.6,426.4,192.3,422.5,207.1z"/>
<path class="st1" d="M461.8,269c0.7-4,2.3-7.6,3.8-11.3c3.1-7.2,5.8-14.7,9.4-21.7c0.7-1.4,1.4-2.1,3.1-1.9c2.3,0.2,4.7,0,6.8,0
	c0.6,0.9,0,1.3-0.3,1.7c-8.3,10.2-15.9,21-22.4,32.5C462.2,268.6,462,268.8,461.8,269z"/>
<path class="st1" d="M198,353.8c-28.9,0-55.3-22.5-60.4-53.1c-5.4-32.6,14.8-62.8,46.9-70.2c29.4-6.8,60.7,9.8,72.1,38.1
	c11.1,27.5,2,59-22.9,75.4C223.6,350.5,212.3,353.8,198,353.8z M202.8,234.7c-4,0.1-7.9,0.5-11.7,1.3c-12.9,2.7-23.9,8.7-32.4,19
	c-1.5,1.8-2.6,3.9-3.3,6.1c-0.7,2.3-0.1,4,1.5,5.2c2.3,1.6,4.1,1.8,6.2,0.3c1.3-0.9,2.5-1.8,3.9-2.5c8.5-4.1,17.4-5.4,26.7-4.3
	c11.8,1.4,21.4,6.8,28.7,15.8c9.4,11.7,13.4,25.3,12.3,40.4c-0.1,0.9-0.1,1.8,0,2.6c0.7,4.6,4.9,6.4,8.7,3.9
	c2.5-1.7,4.5-3.9,5.8-6.5c3.7-7.9,6.5-16.1,6.7-24.9c0.2-11.4-3.1-22-9.2-31.5C236.5,243.6,221.5,235.9,202.8,234.7z"/>
<path class="st0" d="M202.8,234.7c18.6,1.2,33.7,8.9,43.9,24.9c6.1,9.5,9.4,20.1,9.2,31.5c-0.2,8.8-3,17-6.7,24.9
	c-1.3,2.7-3.3,4.8-5.8,6.5c-3.8,2.5-8,0.7-8.7-3.9c-0.1-0.9-0.1-1.7,0-2.6c1.1-15.1-2.9-28.7-12.3-40.4
	c-7.3-9.1-16.9-14.4-28.7-15.8c-9.4-1.1-18.2,0.2-26.7,4.3c-1.4,0.7-2.6,1.6-3.9,2.5c-2.1,1.4-3.9,1.3-6.2-0.3
	c-1.7-1.2-2.2-2.9-1.5-5.2c0.7-2.2,1.8-4.3,3.3-6.1c8.5-10.3,19.5-16.3,32.4-19C195,235.2,198.8,234.8,202.8,234.7z M177.8,251
	c5-0.9,10.1-0.9,15.1-0.5c14.8,1.3,26.9,7.7,36.3,19c7.7,9.2,12.2,20.1,14.1,32c0.1,0.9,0.4,1.7,0.6,2.9c7.6-16.8-1.2-40-13.3-49.9
	C212.5,239.7,191.1,242.5,177.8,251z"/>
<path class="st2" d="M473.3,470.4c-4.5,4.6-8.5,8.8-12.6,13c-1.5,1.5-3,3-4.8,4.2c-2,1.4-4.1,1.5-6.4,0.4c-1.4-0.7-2.7-1.6-3.8-2.7
	c-4.9-4.8-9.8-9.5-14.6-14.4c-3.4-3.4-3.6-5.6-1.2-9.6c1-1.8,2.4-3.3,3.8-4.8c3.5-3.6,7.1-7.3,10.6-10.9c0.7-0.7,1.5-1.3,1.9-2.4
	c-4.1-4-8.2-8-12.3-12c-1.5-1.4-2.9-2.9-4.1-4.6c-1.7-2.3-1.7-4.7-0.4-7.1c0.6-1.2,1.4-2.3,2.4-3.3c4.9-4.9,9.7-9.9,14.6-14.8
	c3.2-3.2,5.5-3.5,9.4-1.1c1.8,1,3.4,2.3,4.8,3.8c3.5,3.5,7.1,7,10.7,10.4c0.7,0.7,1.4,1.3,2.1,2c1.4-0.8,2.3-2,3.3-3
	c4.2-4.2,8.4-8.4,12.6-12.7c0.1-0.1,0.3-0.3,0.4-0.4c4.1-3.6,7.4-3.7,11.4,0c5.5,5.1,10.8,10.5,16,15.8c2.5,2.6,2.7,5,0.9,8.2
	c-1.1,2-2.5,3.7-4.1,5.3c-3.9,4-7.8,7.9-11.7,11.9c-2.3,2.4-2.2,1.9,0.1,4.2c4.3,4.4,8.7,8.7,13,13.1c0.4,0.4,0.8,0.9,1.1,1.3
	c2.4,3.2,2.6,5.5,0.5,8.8c-0.6,0.9-1.3,1.7-2,2.5c-4.8,4.8-9.7,9.7-14.5,14.5c-0.4,0.4-0.8,0.8-1.3,1.2c-2.1,1.7-4.4,2-6.8,0.8
	c-2.3-1.2-4.3-2.7-6.1-4.5C482,479.3,477.8,475,473.3,470.4z M494.7,478c0.6,0,1.2-0.2,1.6-0.6c3.5-3.4,6.9-6.9,10.3-10.3
	c1-1.1,1-2.3,0.1-3.4c-0.5-0.7-1.1-1.3-1.7-2c-3.7-3.7-7.5-7.4-11.2-11.2c-1-1-2-1.9-2.9-2.9c-1.7-2-1.7-3.6-0.4-5.9
	c1.1-1.9,2.4-3.5,3.9-5.1c3.7-3.6,7.3-7.4,10.9-11.1c0.7-0.7,1.4-1.4,2-2.1c1.2-1.6,1.2-2.6-0.3-4.1c-3.1-3.1-6.2-6.2-9.4-9.3
	c-1.9-1.8-2.8-1.8-4.8-0.1c-0.5,0.4-1,1-1.5,1.4c-4.4,4.4-8.7,8.9-13.1,13.3c-2.9,2.9-6.7,2.9-9.7,0.2c-1-0.9-2-1.9-2.9-2.9
	c-3.7-3.6-7.4-7.2-11.1-10.8c-2.1-2-3.2-2-5.2,0c-3,3-5.9,5.9-8.8,9c-1.8,1.9-1.8,2.8-0.2,4.8c0.4,0.5,1,1,1.4,1.5
	c4.5,4.4,9,8.7,13.4,13.1c2.7,2.7,2.7,4.9,0.1,7.6c-1.3,1.4-2.7,2.8-4.1,4.2c-3.6,3.7-7.2,7.4-10.8,11.1c-2,2.1-1.9,3.2,0.1,5.2
	c2.9,2.9,5.8,5.8,8.8,8.6c2.1,2,3.1,2.1,5.2,0.1c1.8-1.7,3.4-3.5,5.1-5.2c3.1-3.1,6.1-6.3,9.2-9.4c2.4-2.4,4.5-2.6,7.3-0.6
	c1,0.7,1.9,1.6,2.8,2.5c4.2,4.1,8.3,8.2,12.4,12.4C492.5,477,493.3,477.9,494.7,478z"/>
<path class="st1" d="M177.8,251c13.3-8.6,34.7-11.4,52.8,3.4c12.1,9.9,21,33.1,13.3,49.9c-0.2-1.1-0.5-2-0.6-2.9
	c-1.9-11.9-6.3-22.7-14.1-32c-9.4-11.2-21.5-17.7-36.3-19C187.8,250.1,182.8,250.1,177.8,251z"/>
<path class="st3" d="M109.6,170.1l11.8,11.8c2.8,2.8,7.3,2.8,10.1,0l11.8-11.8c2.8-2.8,2.8-7.3,0-10.1l-11.8-11.8
	c-2.8-2.8-7.3-2.8-10.1,0l-11.8,11.8C106.8,162.7,106.8,167.3,109.6,170.1z"/>
<path class="st3" d="M109.6,204.4l11.8,11.8c2.8,2.8,7.3,2.8,10.1,0l11.8-11.8c2.8-2.8,2.8-7.3,0-10.1l-11.8-11.8
	c-2.8-2.8-7.3-2.8-10.1,0l-11.8,11.8C106.8,197.1,106.8,201.6,109.6,204.4z"/>
<path class="st2" d="M399.5,515.9l9.3,9.3c1.4,1.3,3.5,1.3,4.9,0l9.3-9.3c1.4-1.3,1.4-3.5,0-4.9l-9.3-9.3c-1.4-1.4-3.5-1.4-4.9,0
	l-9.3,9.3C398.1,512.4,398.1,514.6,399.5,515.9z"/>
<circle class="st4" cx="472" cy="444.3" r="92"/>
</svg>
