<?xml version="1.0" encoding="utf-8"?>
<!-- Generator: Adobe Illustrator 28.0.0, SVG Export Plug-In . SVG Version: 6.00 Build 0)  -->
<svg version="1.1" id="Capa_1" xmlns="http://www.w3.org/2000/svg" xmlns:xlink="http://www.w3.org/1999/xlink" x="0px" y="0px"
	 viewBox="0 0 600 600" style="enable-background:new 0 0 600 600;" xml:space="preserve">
<style type="text/css">
	.st0{fill:#0A0A0A;}
	.st1{fill:#FDFEFE;}
	.st2{fill:#DBB300;}
	.st3{fill:#6EE1EB;}
	.st4{fill:none;stroke:#DBB300;stroke-width:11;stroke-miterlimit:10;}
</style>
<path class="st0" d="M117,409.9c-1.3,0.4-1.8,1.3-2.5,1.9c-9.7,9.6-19.5,19.2-29.2,28.8c-8.6,8.5-20.9,10.7-31.9,5.9
	c-11.2-5-18.2-16-17.7-27.9c0.3-6.7,2.8-12.6,7.5-17.3c17.6-17.7,35.3-35.3,53-53c3-3,5.9-5.9,8.9-8.9c2.1-2.1,2.1-2.1,0.8-4.6
	c-5.9-11.7-9.5-24.1-10.4-37.2c-1.7-24.5,4.7-46.7,19.7-66.3c1.3-1.7,1.9-3.4,1.9-5.6c0-35.1,0-70.2,0-105.4c0-2.8,0.6-5.2,3-6.9
	c1.4-1,2.9-1.1,4.4-1.1c5.1,0,10.1,0,15.2,0c90-0.1,179.9-0.2,269.9-0.3c0.6,0,1.2,0,1.8,0c4.1,0.1,6,2.1,6,6.2c0,5-0.1,10-0.1,14.9
	c0,0.9-0.2,1.8,1.2,1.8c5.9,0,11.7,0.3,17.5-0.1c3.6-0.3,7-0.3,10.4,0.6c7,1.9,12.1,6,15,12.8c1.6,3.9,1.5,7.8-0.3,11.6
	c-1.9,4.3-3.8,8.5-5.8,12.9c0.9,0.4,1.6,0.3,2.4,0.3c3.3,0,6.6,0.1,10,0c3.4-0.1,6.6,0.5,9.8,1.5c6.2,2,10.7,6.2,13.2,12
	c2.2,5.1,1.9,10.5-1.5,15.3c-1.3,1.8-2.6,3.6-3.8,5.4c0.5,1,1.3,0.6,1.9,0.7c2.6,0.1,5.3-0.1,7.9,0.1c12.1,0.8,21.2,8.7,20,22
	c-0.3,3.2-1.7,6.1-3.9,8.4c-22.2,23-38.7,49.8-53.2,78c-5.4,10.5-10.2,21.3-14.7,32.2c-0.5,1.1-1.1,2.2-1.2,3.6
	c1.7,0.2,3.1-0.5,4.6-0.8c9.5-2,19.1-2.7,28.8-1.8c3.5,0.3,7,0.4,10.4,1.2c39.3,9.6,65.4,33.2,74.4,73.1
	c7.1,31.4-1.4,59.6-22.7,83.6c-16.2,18.3-36.8,29-61.1,32c-31.6,3.8-59-5.6-81.5-28.1c-12.3-12.3-20.1-27.2-24-44.1
	c-0.1-0.4-0.2-0.8-0.3-1.1c-0.1-1.4-0.8-1.9-2.1-1.7c-0.7,0.1-1.4,0-2,0c-80,0-160,0-240,0c-0.7,0-1.4,0-2,0c-4.6,0-7.4-2.7-7.7-7.3
	c0-0.9,0-1.8,0-2.6c0-13.9,0-27.7,0.1-41.6C117,412,117,411,117,409.9z M150.9,379.6c0,17,0,33.5,0,50c0,1.2,0.4,1.8,1.7,1.7
	c0.7-0.1,1.4,0,2,0c41.2,0.1,82.3,0.2,123.5,0.3c29.6,0.1,59.1,0.1,88.7,0.1c3,0,3,0,3.6-3c2.3-12.4,6.9-23.9,13.8-34.5
	c1.3-2,1.8-3.9,1.8-6.3c0.2-79.8,0.4-159.6,0.6-239.4c0-0.7,0-1.4,0-2c0.1-1.1-0.4-1.6-1.5-1.6c-0.6,0-1.2,0-1.8,0
	c-76.2-0.2-152.4-0.3-228.6-0.5c-0.7,0-1.4,0-2,0c-0.7,0-1.1,0.3-1.1,1c0,0.6,0,1.2,0,1.8c0,17.7-0.1,35.3-0.1,53
	c0,0.7-0.2,1.5,0.2,2.2c0.2,0,0.3,0.1,0.4,0.1c0.5-0.2,0.9-0.3,1.4-0.5c15.9-6.6,32.4-8.6,49.3-6.1c22.8,3.3,42.1,13.6,57.9,30.4
	c26.8,28.6,34.4,70.7,19.1,106.1c-21,48.9-76.6,70-124.7,49C154,380.9,152.7,380.4,150.9,379.6z M126.3,219.1
	c1.1-0.9,1.6-1.4,2.2-1.8c3.6-3,7.3-5.9,11.4-8.2c2-1.1,2.6-2.4,2.6-4.6c0-20.6,0.1-41.2,0.1-61.8c0-1.1,0-2.2,0.1-3.2
	c0.3-2.4,1.3-3.4,3.7-3.8c2.3-0.4,4.7-0.3,7-0.3c79,0.1,158.1,0.3,237.1,0.4c0.6,0,1.2,0,1.8,0.1c2.5,0.3,3.5,1.3,3.6,3.8
	c0.1,1.8,0,3.7,0,5.6c-0.1,25.5-0.1,50.9-0.2,76.4c-0.1,51.6-0.3,103.2-0.4,154.8c0,1-0.3,2.1,0.3,3.2c0.4-0.4,0.7-0.6,1-0.8
	c9-9.1,19.3-16.3,31.1-21.3c2.2-0.9,3.4-2.2,4.2-4.4c9.7-25.3,21.6-49.5,35.8-72.5c10.3-16.7,21.7-32.6,35.4-46.8
	c3-3,3.7-6.3,2.6-10.1c-1-3.6-4.8-6.6-8-6.7c-6.5,0-13.1-0.2-19.6-0.3c-2.3,0-4.2-1-5.3-3c-1.1-2-0.4-3.9,0.8-5.7
	c2.7-3.7,5.4-7.4,7.9-11.2c1.7-2.5,1.8-5.3,0.4-8c-1-1.9-2.4-3.5-4.2-4.8c-1.7-1.3-3.5-1.8-5.7-1.8c-7.3,0.1-14.6,0.1-22,0
	c-3.5,0-5.5-2-5.8-5.3c-0.1-1.3,0.4-2.5,0.9-3.6c2.4-5.4,4.7-10.9,7.4-16.2c1.4-2.8,0.9-5.1-0.5-7.4c-1.3-2.4-3.4-4-5.8-5.3
	c-0.5-0.3-1-0.5-1.7-0.4c-4.7,0.8-9.3,0.2-14,0.3c-5.6,0-11.1,0-16.7-0.2c-3.8-0.1-4.9-1.3-5.6-5c-0.2-1.5-0.4-2.9-0.3-4.4
	c0.1-3.3,0.1-6.6,0.1-10c0-4.1,0.5-3.6-3.5-3.6c-91.6,0.1-183.2,0.2-274.8,0.3c-0.7,0-1.4,0.1-2,0c-1.2-0.1-1.6,0.5-1.5,1.5
	c0,0.6,0,1.2,0,1.8c0,30.3,0,60.7-0.1,91C126.3,216.6,126.3,217.5,126.3,219.1z M278.7,295.8c-0.3-4.8-0.3-8-0.7-11.2
	c-2.9-23.7-13-43.7-31.2-59c-22.8-19.2-49-26-78.1-18.9c-34.8,8.5-59.9,38-63.7,73.7c-2.2,21.3,2.6,41.1,14.2,59.1
	c10.3,15.9,24.3,27.6,42,34.6c22.7,9,45.5,9.1,67.6-1.4C261.5,357,276.9,329.9,278.7,295.8z M553.8,443.4
	c-0.2-5.9-0.7-11.8-1.9-17.5c-8.6-40.6-44.5-68.4-86.2-67.8c-14.8,0.2-28.6,4-41.7,11c-30.4,16.3-48.8,49.6-45.9,83.9
	c1.9,22.6,11.4,41.5,28.3,56.6c26.5,23.5,65.3,28.7,97.3,12.4C535.7,505.8,552,479.1,553.8,443.4z M141.9,385.5
	c-0.2-0.1-0.4-0.1-0.6-0.2c-4.7,4.6-9.4,9.3-14.2,13.9c-1,0.9-1.1,2-1.1,3.2c0,16.8,0,33.6,0,50.3c0,2.5,0,2.5,2.5,2.6
	c0.2,0,0.4,0,0.6,0c78.9,0,157.8,0,236.7-0.1c0.7,0,1.4,0,2,0c0.8,0,1.2-0.3,1.2-1.2c-0.3-3.8-0.3-7.6-0.1-11.4
	c0.1-1.5-0.5-1.9-1.9-1.7c-0.4,0-0.8,0-1.2,0c-27.4-0.1-54.8-0.2-82.2-0.2c-44.6-0.1-89.1-0.2-133.7-0.3c-5.8,0-8.2-2.3-8.1-8.1
	c0-14.5,0.1-29.1,0.1-43.6C141.9,387.6,141.9,386.6,141.9,385.5z M112.1,345.3c-0.9,0.9-1.7,1.6-2.5,2.3
	c-8.8,8.8-17.6,17.6-26.5,26.5c-11.2,11.2-22.4,22.5-33.6,33.8c-1.9,1.9-3.2,4.2-3.9,6.7c-3.1,10.3,3.7,21.8,14.7,24.5
	c6.1,1.5,11.8,0.5,16.7-3.6c2-1.7,3.9-3.5,5.8-5.4c18.5-18.2,36.9-36.4,55.4-54.6c0.7-0.7,1.6-1.2,1.9-2.3
	C129,365.9,119.7,356.6,112.1,345.3z"/>
<path class="st1" d="M150.9,379.6c1.8,0.7,3,1.2,4.3,1.8c48,20.9,103.6-0.1,124.7-49c15.2-35.4,7.6-77.6-19.1-106.1
	c-15.8-16.8-35.1-27.1-57.9-30.4c-16.9-2.5-33.4-0.5-49.3,6.1c-0.4,0.2-0.9,0.4-1.4,0.5c-0.1,0-0.2,0-0.4-0.1
	c-0.5-0.6-0.2-1.4-0.2-2.2c0-17.7,0.1-35.3,0.1-53c0-0.6,0-1.2,0-1.8c0-0.7,0.4-1,1.1-1c0.7,0,1.4,0,2,0
	c76.2,0.2,152.4,0.3,228.6,0.5c0.6,0,1.2,0,1.8,0c1.1-0.1,1.6,0.5,1.5,1.6c0,0.7,0,1.4,0,2c-0.2,79.8-0.4,159.6-0.6,239.4
	c0,2.3-0.5,4.3-1.8,6.3c-7,10.5-11.5,22.1-13.8,34.5c-0.6,3-0.6,3-3.6,3c-29.6,0-59.1-0.1-88.7-0.1c-41.2-0.1-82.3-0.2-123.5-0.3
	c-0.7,0-1.4-0.1-2,0c-1.3,0.1-1.7-0.4-1.7-1.7C150.9,413.1,150.9,396.6,150.9,379.6z M269.3,406.1c0-0.2,0-0.4,0-0.6
	c28.4,0,56.8,0,85.2,0c1,0,2,0,2.9-0.1c2.4-0.4,3.9-2.1,3.9-4.4c0-2.2-1.6-4.1-3.9-4.4c-1-0.1-1.9-0.1-2.9-0.1
	c-56.9,0.2-113.8,0.4-170.6,0.6c-0.8,0-1.6,0-2.3,0.1c-2.5,0.4-4.1,2.3-4,4.6c0.1,2.2,1.7,3.9,4.1,4.3c1.2,0.2,2.3,0.1,3.5,0.1
	C213.1,406.1,241.2,406.1,269.3,406.1z M268.4,179.3c0,0.2,0,0.3,0,0.5c28.4,0,56.7,0,85.1,0c0.9,0,1.8,0,2.6-0.1
	c2.4-0.3,3.9-2.1,4-4.3c0.1-2.3-1.3-4.1-3.7-4.5c-1.2-0.2-2.5-0.2-3.8-0.2c-56.6-0.1-113.1-0.3-169.7-0.4c-0.8,0-1.6,0-2.3,0.1
	c-2.5,0.3-4.2,2.1-4.2,4.4c0,2.3,1.7,4.2,4.2,4.5c1,0.1,1.9,0.1,2.9,0.1C211.8,179.3,240.1,179.3,268.4,179.3z M315.6,216.2
	c-13.1,0-26.1,0-39.2,0c-1.2,0-2.3-0.1-3.5,0.4c-1.9,0.8-3,2.3-3,4.3c0,1.9,1.2,3.5,3.1,4.2c1,0.4,2.1,0.4,3.2,0.4
	c26.1,0,52.3,0,78.4,0c1.1,0,2.1,0,3.2-0.4c1.9-0.7,3.1-2.2,3.1-4.2c0-1.9-1.1-3.5-3-4.3c-1.1-0.5-2.3-0.4-3.5-0.4
	C341.5,216.2,328.5,216.2,315.6,216.2z M317.6,360.2c0,0,0-0.1,0-0.1c12.2,0,24.4,0,36.6,0c1.3,0,2.5,0,3.8-0.4
	c1.9-0.6,3.1-2.3,3.2-4.1c0-1.9-1.1-3.5-3-4.3c-1-0.4-2.1-0.4-3.2-0.4c-24.5,0.1-48.9,0.1-73.4,0.2c-1,0-2,0-2.9,0.2
	c-2.3,0.5-3.6,2.1-3.7,4.3c0,2.3,1.4,4.1,3.8,4.5c0.9,0.2,1.9,0.1,2.9,0.1C293.6,360.2,305.6,360.2,317.6,360.2z M326.9,269.4
	c0,0,0,0.1,0,0.1c9.5,0,18.9,0,28.4,0c3.6,0,5.7-1.7,5.6-4.5c0-2.2-1.4-4.5-5.6-4.5c-18.7,0-37.5-0.2-56.2-0.3c-1,0-1.9,0-2.9,0.3
	c-1.9,0.7-3.1,2.2-3.2,4.1c-0.1,2,1.2,3.7,3.2,4.4c1,0.4,2.1,0.3,3.2,0.3C308.5,269.4,317.7,269.4,326.9,269.4z M327.9,306.2
	C327.9,306.2,327.9,306.2,327.9,306.2c-9.4,0-18.7,0-28.1,0c-1,0-2,0-2.9,0.1c-2.3,0.3-3.9,2.3-4,4.4c0,2.2,1.6,4.1,3.9,4.4
	c0.9,0.1,1.7,0.1,2.6,0.1c18.7,0,37.4,0,56.1,0c1,0,2,0,2.9-0.2c2.2-0.4,3.6-2.2,3.6-4.3c0-2.1-1.5-4-3.6-4.4
	c-0.9-0.2-1.9-0.2-2.9-0.2C346.4,306.2,337.1,306.2,327.9,306.2z"/>
<path class="st1" d="M126.3,219.1c0-1.6,0-2.5,0-3.4c0-30.3,0-60.7,0.1-91c0-0.6,0-1.2,0-1.8c-0.1-1.1,0.3-1.7,1.5-1.5
	c0.7,0.1,1.4,0,2,0c91.6-0.1,183.2-0.2,274.8-0.3c4,0,3.6-0.5,3.5,3.6c0,3.3-0.1,6.6-0.1,10c0,1.5,0.1,2.9,0.3,4.4
	c0.6,3.7,1.8,4.9,5.6,5c5.6,0.1,11.1,0.2,16.7,0.2c4.7,0,9.4,0.5,14-0.3c0.6-0.1,1.2,0.1,1.7,0.4c2.4,1.3,4.4,2.9,5.8,5.3
	c1.3,2.4,1.9,4.6,0.5,7.4c-2.7,5.3-4.9,10.8-7.4,16.2c-0.5,1.2-1,2.3-0.9,3.6c0.2,3.3,2.2,5.3,5.8,5.3c7.3,0.1,14.6,0.1,22,0
	c2.2,0,4,0.5,5.7,1.8c1.7,1.3,3.2,2.9,4.2,4.8c1.4,2.7,1.4,5.5-0.4,8c-2.6,3.8-5.3,7.5-7.9,11.2c-1.3,1.8-2,3.7-0.8,5.7
	c1.1,2,3,3,5.3,3c6.5,0.1,13.1,0.2,19.6,0.3c3.3,0,7,3.1,8,6.7c1.1,3.9,0.3,7.1-2.6,10.1c-13.7,14.1-25.1,30.1-35.4,46.8
	c-14.2,23-26.1,47.2-35.8,72.5c-0.8,2.2-2,3.5-4.2,4.4c-11.8,5-22.2,12.2-31.1,21.3c-0.3,0.3-0.6,0.5-1,0.8
	c-0.6-1.1-0.3-2.2-0.3-3.2c0.1-51.6,0.3-103.2,0.4-154.8c0.1-25.5,0.1-50.9,0.2-76.4c0-1.9,0.1-3.7,0-5.6c-0.1-2.4-1.1-3.4-3.6-3.8
	c-0.6-0.1-1.2-0.1-1.8-0.1c-79-0.1-158.1-0.3-237.1-0.4c-2.3,0-4.7-0.1-7,0.3c-2.4,0.4-3.4,1.4-3.7,3.8c-0.1,1.1-0.1,2.1-0.1,3.2
	c-0.1,20.6-0.2,41.2-0.1,61.8c0,2.2-0.6,3.5-2.6,4.6c-4.1,2.3-7.8,5.2-11.4,8.2C127.9,217.7,127.4,218.2,126.3,219.1z M416.3,305.7
	c0.1,2,0.5,3.7,2.1,4.8c2.7,1.9,5.9,0.5,6.6-2.9c1.4-7.6,3.5-15,5.9-22.3c6.5-19.5,13.4-38.9,23.5-56.9c5-8.9,9-18.4,14.3-27.1
	c0.3-0.5,0.5-1,0.7-1.6c1.5-4.2-0.4-6.9-4.8-7c-3.6-0.1-7.2,0-10.8-0.1c-3.3,0-6.6-0.1-9.9,0c-3.6,0.1-5.3,1.6-6.2,4.9
	c-6.2,21.9-10.4,44.2-14.3,66.5c-2,11.5-3.9,23.1-5.8,34.6C417.1,301.1,416.7,303.5,416.3,305.7z M406.7,210.8
	c-0.4,16.7-0.8,33.4-1.2,50c0,0.9,0,1.8,0.2,2.6c0.5,2.4,2.8,4,5.2,3.6c2.1-0.3,3.6-1.9,4.1-4.4c0.5-2.5,0.8-5,1.2-7.5
	c3-18.6,6.7-37,11.5-55.2c3.3-12.6,7.3-25.1,11.6-37.4c0.5-1.5,1.1-3,0.9-4.5c-0.3-2.8-2.3-4.4-5.6-4.3c-6.7,0.1-13.5,0.3-20.2,0.5
	c-4.5,0.2-6.2,2-6.3,6.6C407.6,177.4,407.1,194.1,406.7,210.8z M477.1,225.4c0,0.1,0,0.1,0,0.2c-2.9,0-5.9,0-8.8,0
	c-2.2,0-3.8,0.9-5,2.9c-6.3,10.9-11.4,22.4-15.8,34.2c-6.1,16.5-11.3,33.4-17,50.1c-0.2,0.5-0.3,1.1-0.4,1.7
	c-0.3,2.6,1.1,4.6,3.3,5.2c2.3,0.6,3.9-0.3,5.1-2.8c1.4-2.9,2.7-5.8,4.2-8.7c8.4-15.3,17.9-29.9,26.8-44.9c2.3-3.9,4.9-7.5,7.5-11.1
	c4.5-6.2,8.9-12.6,13.4-18.8c2-2.7,2.1-6.3-3-7.8c-0.8-0.2-1.7-0.2-2.6-0.2C482.3,225.4,479.7,225.4,477.1,225.4z"/>
<path class="st1" d="M278.7,295.8c-1.7,34.2-17.2,61.3-50,76.8c-22.1,10.5-44.9,10.3-67.6,1.4c-17.6-7-31.7-18.7-42-34.6
	c-11.6-18-16.4-37.8-14.2-59.1c3.7-35.7,28.9-65.2,63.7-73.7c29.1-7.1,55.4-0.3,78.1,18.9c18.2,15.4,28.3,35.4,31.2,59
	C278.3,287.8,278.4,291,278.7,295.8z M193.8,362.8c39.1,0,70.4-31.3,70.4-70.5c0-39.9-32.5-72.6-72.2-72.6
	c-39.1-0.1-70.5,31.3-70.6,70.3C121.2,329.9,153.9,362.7,193.8,362.8z"/>
<path class="st1" d="M141.9,385.5c0,1,0,2.1,0,3.1c0,14.5-0.1,29.1-0.1,43.6c0,5.8,2.3,8.1,8.1,8.1c44.6,0.1,89.1,0.2,133.7,0.3
	c27.4,0.1,54.8,0.2,82.2,0.2c0.4,0,0.8,0,1.2,0c1.3-0.2,1.9,0.2,1.9,1.7c-0.2,3.8-0.2,7.6,0.1,11.4c0.1,0.9-0.3,1.2-1.2,1.2
	c-0.7,0-1.4,0-2,0c-78.9,0-157.8,0-236.7,0.1c-0.2,0-0.4,0-0.6,0c-2.5,0-2.5,0-2.5-2.6c0-16.8,0-33.6,0-50.3c0-1.2,0.1-2.2,1.1-3.2
	c4.8-4.6,9.5-9.3,14.2-13.9C141.5,385.4,141.7,385.5,141.9,385.5z"/>
<path class="st1" d="M112.1,345.3c7.6,11.2,16.9,20.5,28,27.9c-0.4,1.2-1.2,1.7-1.9,2.3c-18.5,18.2-36.9,36.4-55.4,54.6
	c-1.9,1.8-3.8,3.7-5.8,5.4c-4.9,4.1-10.6,5.1-16.7,3.6c-11-2.7-17.8-14.2-14.7-24.5c0.8-2.6,2-4.8,3.9-6.7
	c11.2-11.3,22.4-22.5,33.6-33.8c8.8-8.8,17.6-17.7,26.5-26.5C110.4,346.9,111.2,346.2,112.1,345.3z"/>
<path class="st0" d="M269.3,406.1c-28.1,0-56.2,0-84.3,0c-1.2,0-2.4,0-3.5-0.1c-2.4-0.3-4-2-4.1-4.3c-0.1-2.3,1.6-4.2,4-4.6
	c0.8-0.1,1.6-0.1,2.3-0.1c56.9-0.2,113.8-0.4,170.6-0.6c1,0,2-0.1,2.9,0.1c2.3,0.4,3.9,2.2,3.9,4.4c0,2.3-1.5,4-3.9,4.4
	c-1,0.1-1.9,0.1-2.9,0.1c-28.4,0-56.8,0-85.2,0C269.3,405.7,269.3,405.9,269.3,406.1z"/>
<path class="st0" d="M268.4,179.3c-28.3,0-56.6,0-84.8,0c-1,0-2,0-2.9-0.1c-2.5-0.3-4.2-2.2-4.2-4.5c0-2.3,1.7-4.1,4.2-4.4
	c0.8-0.1,1.6-0.1,2.3-0.1c56.6,0.1,113.1,0.2,169.7,0.4c1.3,0,2.5,0,3.8,0.2c2.4,0.5,3.8,2.2,3.7,4.5c-0.1,2.2-1.6,4-4,4.3
	c-0.9,0.1-1.8,0.1-2.6,0.1c-28.4,0-56.7,0-85.1,0C268.4,179.7,268.4,179.5,268.4,179.3z"/>
<path class="st0" d="M315.6,216.2c13,0,25.9,0,38.9,0c1.2,0,2.3-0.1,3.5,0.4c1.9,0.8,3,2.3,3,4.3c0,1.9-1.2,3.5-3.1,4.2
	c-1,0.4-2.1,0.4-3.2,0.4c-26.1,0-52.3,0-78.4,0c-1.1,0-2.1,0-3.2-0.4c-1.9-0.7-3.1-2.2-3.1-4.2c0-1.9,1.1-3.5,3-4.3
	c1.1-0.5,2.3-0.4,3.5-0.4C289.4,216.2,302.5,216.2,315.6,216.2z"/>
<path class="st0" d="M317.6,360.2c-12,0-24,0-36,0c-1,0-2,0-2.9-0.1c-2.3-0.4-3.8-2.3-3.8-4.5c0-2.2,1.4-3.8,3.7-4.3
	c0.9-0.2,1.9-0.2,2.9-0.2c24.5-0.1,48.9-0.1,73.4-0.2c1.1,0,2.1,0,3.2,0.4c1.8,0.8,3,2.4,3,4.3c0,1.9-1.3,3.5-3.2,4.1
	c-1.2,0.4-2.5,0.4-3.8,0.4c-12.2,0-24.4,0-36.6,0C317.6,360.1,317.6,360.1,317.6,360.2z"/>
<path class="st0" d="M326.9,269.4c-9.2,0-18.3,0-27.5,0c-1.1,0-2.1,0-3.2-0.3c-2-0.7-3.3-2.4-3.2-4.4c0.1-1.9,1.3-3.4,3.2-4.1
	c0.9-0.3,1.9-0.4,2.9-0.3c18.7,0.1,37.5,0.2,56.2,0.3c4.2,0,5.6,2.3,5.6,4.5c0.1,2.8-2.1,4.5-5.6,4.5c-9.5,0-18.9,0-28.4,0
	C326.9,269.5,326.9,269.4,326.9,269.4z"/>
<path class="st0" d="M327.9,306.2c9.3,0,18.5,0,27.8,0c1,0,2,0,2.9,0.2c2.1,0.4,3.6,2.3,3.6,4.4c0,2.1-1.5,3.9-3.6,4.3
	c-0.9,0.2-1.9,0.2-2.9,0.2c-18.7,0-37.4,0-56.1,0c-0.9,0-1.8,0-2.6-0.1c-2.3-0.4-3.9-2.3-3.9-4.4c0-2.1,1.7-4.1,4-4.4
	c1-0.1,1.9-0.1,2.9-0.1C309.1,306.2,318.5,306.2,327.9,306.2C327.9,306.2,327.9,306.2,327.9,306.2z"/>
<path class="st0" d="M416.3,305.7c0.4-2.2,0.8-4.6,1.2-7c1.9-11.5,3.8-23.1,5.8-34.6c3.8-22.4,8.1-44.7,14.3-66.5
	c1-3.4,2.6-4.8,6.2-4.9c3.3-0.1,6.6,0,9.9,0c3.6,0,7.2,0,10.8,0.1c4.4,0.1,6.3,2.9,4.8,7c-0.2,0.5-0.4,1.1-0.7,1.6
	c-5.3,8.8-9.3,18.2-14.3,27.1c-10.1,18-17,37.4-23.5,56.9c-2.4,7.3-4.5,14.7-5.9,22.3c-0.6,3.4-3.9,4.8-6.6,2.9
	C416.8,309.4,416.5,307.7,416.3,305.7z M436.1,244.6c1-1,1.4-2.3,1.9-3.6c1.4-3.5,3.1-6.9,4.9-10.3c4.9-9.1,9.9-18.1,14.8-27.1
	c0.3-0.5,1-1.1,0.4-2c-3.5,0-7.1,0-10.7,0c-2.3,0-2.3,0-2.8,2.3c-0.1,0.4-0.1,0.8-0.2,1.1C441.6,218.2,438.8,231.4,436.1,244.6
	c0,0.2,0.1,0.4,0.1,0.5c-0.1,0.2-0.3,0.2-0.3-0.1C435.8,244.9,436,244.7,436.1,244.6z"/>
<path class="st0" d="M406.7,210.8c0.4-16.7,0.9-33.4,1.3-50c0.1-4.6,1.8-6.4,6.3-6.6c6.7-0.2,13.5-0.4,20.2-0.5
	c3.3-0.1,5.3,1.5,5.6,4.3c0.2,1.6-0.4,3.1-0.9,4.5c-4.3,12.3-8.2,24.8-11.6,37.4c-4.8,18.2-8.5,36.6-11.5,55.2
	c-0.4,2.5-0.8,5-1.2,7.5c-0.5,2.5-1.9,4.1-4.1,4.4c-2.4,0.4-4.7-1.1-5.2-3.6c-0.2-0.8-0.2-1.7-0.2-2.6
	C405.9,244.2,406.3,227.5,406.7,210.8z M430.2,163.1c-4.1,0-7.7,0-11.3,0c-1.5,0-2,0.6-2,2.1c-0.3,14-0.6,27.9-0.9,41.9
	C420.1,192.3,424.2,177.5,430.2,163.1z"/>
<path class="st0" d="M477.1,225.4c2.6,0,5.3,0,7.9,0c0.9,0,1.8,0,2.6,0.2c5.1,1.5,5,5,3,7.8c-4.5,6.2-8.9,12.6-13.4,18.8
	c-2.6,3.6-5.3,7.3-7.5,11.1c-8.9,15-18.4,29.6-26.8,44.9c-1.5,2.8-2.8,5.8-4.2,8.7c-1.2,2.5-2.8,3.4-5.1,2.8
	c-2.2-0.5-3.5-2.6-3.3-5.2c0.1-0.6,0.2-1.2,0.4-1.7c5.7-16.7,10.9-33.6,17-50.1c4.4-11.8,9.5-23.2,15.8-34.2c1.2-2,2.8-2.9,5-2.9
	c2.9,0,5.9,0,8.8,0C477.1,225.6,477.1,225.5,477.1,225.4z M455.7,268.3c6.8-12,14.9-23,23.7-33.8c-2.7-0.5-5-0.3-7.2-0.5
	c-1.8-0.2-2.7,0.5-3.5,2.2c-4.6,9.3-8.2,18.9-12.1,28.5C456.1,265.7,455.5,266.8,455.7,268.3z"/>
<path class="st0" d="M193.8,362.8c-39.9,0-72.6-32.8-72.5-72.8c0.1-39,31.6-70.4,70.6-70.3c39.7,0.1,72.2,32.8,72.2,72.6
	C264.1,331.5,232.9,362.8,193.8,362.8z M190.4,228.8c-14.2,0.1-28,5.2-39.6,15.6c-21.5,19.3-26.5,51.1-12.1,76.7
	c15.6,27.9,49.1,39.8,78.6,27.9c26.3-10.5,41.8-38.6,37-67C249.1,251.4,222.7,228.9,190.4,228.8z"/>
<path class="st2" d="M467.6,372.9c34.3,0,63.4,23.5,70.3,56.9c6.4,30.8-8.5,62.6-36.6,78.2c-34,18.9-76.8,7.8-96.8-25.1
	c-19.7-32.4-10.3-75.1,21.4-96.9C438.4,377.4,452.3,373,467.6,372.9z M403.2,449.6c0.1,11.7,5,25.3,15,36.9
	c20,23.2,53.8,28.4,80.6,12.6c28.1-16.6,39.2-51.4,25.8-80.9c-11.6-25.7-39.7-40.3-68-35.3C425.8,388.3,403.3,414.9,403.2,449.6z"/>
<path class="st1" d="M436,244.6c2.8-13.2,5.6-26.4,8.4-39.6c0.1-0.4,0.1-0.8,0.2-1.1c0.6-2.2,0.6-2.3,2.8-2.3c3.6,0,7.2,0,10.7,0
	c0.5,1-0.1,1.5-0.4,2c-4.9,9.1-9.9,18.1-14.8,27.1c-1.8,3.3-3.4,6.8-4.9,10.3C437.4,242.3,437.1,243.6,436,244.6L436,244.6z"/>
<path class="st1" d="M436.1,244.6c-0.1,0.1-0.3,0.3-0.2,0.4c0,0.2,0.3,0.3,0.3,0.1C436.2,245,436,244.8,436.1,244.6
	C436,244.6,436.1,244.6,436.1,244.6z"/>
<path class="st1" d="M430.2,163.1c-6.1,14.4-10.1,29.2-14.2,43.9c0.3-14,0.7-27.9,0.9-41.9c0-1.5,0.4-2.1,2-2.1
	C422.5,163.2,426.1,163.1,430.2,163.1z"/>
<path class="st1" d="M455.7,268.3c-0.2-1.4,0.4-2.5,0.8-3.7c3.9-9.6,7.5-19.2,12.1-28.5c0.8-1.6,1.7-2.3,3.5-2.2
	c2.2,0.2,4.5,0,7.2,0.5C470.7,245.3,462.6,256.3,455.7,268.3z"/>
<path class="st1" d="M190.4,228.8c32.4,0.1,58.7,22.6,63.9,53.2c4.8,28.5-10.7,56.5-37,67c-29.5,11.8-63-0.1-78.6-27.9
	c-14.4-25.6-9.4-57.4,12.1-76.7C162.4,234,176.2,228.9,190.4,228.8z M196,234.7c-4.1-0.1-8.4,0.4-12.6,1.4
	c-10.5,2.4-19.7,7.2-27.4,14.7c-2.9,2.8-5.5,5.9-6.7,9.8c-0.8,2.5-0.4,4.1,1.4,5.4c2.3,1.7,4.1,1.8,6.2,0.3c1.3-0.9,2.5-1.8,3.9-2.5
	c7.9-3.8,16.2-5.2,25-4.5c12.2,1,22.4,6.2,30,15.6c9.5,11.6,13.7,25.2,12.6,40.3c-0.1,1-0.2,2,0,2.9c0.5,4.7,4.9,6.8,8.8,4.2
	c2.3-1.5,4.2-3.6,5.5-6c3.5-6.9,5.9-14.2,6.8-21.9c1-9.9-1.4-19.1-5.2-28.1C235.2,245,212.3,233.9,196,234.7z"/>
<path class="st0" d="M196,234.7c16.3-0.8,39.2,10.3,48.2,31.6c3.8,9,6.2,18.3,5.2,28.1c-0.8,7.7-3.2,15-6.8,21.9
	c-1.2,2.4-3.1,4.5-5.5,6c-3.9,2.6-8.3,0.5-8.8-4.2c-0.1-1,0-1.9,0-2.9c1.1-15.1-3.1-28.6-12.6-40.3c-7.7-9.3-17.8-14.6-30-15.6
	c-8.8-0.7-17.1,0.6-25,4.5c-1.4,0.7-2.6,1.6-3.9,2.5c-2.1,1.4-3.9,1.3-6.2-0.3c-1.8-1.3-2.3-2.9-1.4-5.4c1.3-3.9,3.9-7,6.7-9.8
	c7.7-7.5,16.9-12.4,27.4-14.7C187.6,235.1,191.8,234.7,196,234.7z M170.9,251c15.4-2.4,29.5,0.1,42.3,9.3
	c9.9,7.2,16.3,16.9,20.4,28.2c1.8,5,3.3,10.1,3.7,15.7c7.6-14.4,0.6-37.6-11.6-48.6C207.9,239.7,186.1,241.4,170.9,251z"/>
<path class="st2" d="M484.2,443.3c-0.1,9.3-7.7,16.8-17,16.9c-9.5,0-17.6-8-17.5-17.5c0.2-9.2,8-16.8,17.2-16.7
	C476.5,426.1,484.3,433.9,484.2,443.3z M467.2,451c4.4,0,7.9-3.3,7.9-7.6c0.1-4.5-3.6-8.2-8.1-8.2c-4.5-0.1-8.1,3.4-8,7.8
	C458.9,447.4,462.6,451,467.2,451z"/>
<path class="st2" d="M445.6,443.8c0,9.4-7.7,17.1-17.2,17c-9.5-0.1-17.4-8-17.3-17.4c0.1-9.2,7.8-16.8,17.1-16.8
	C437.7,426.6,445.6,434.3,445.6,443.8z M428.4,451.6c4.6,0.1,8.1-3.4,8.1-7.8c0-4.5-3.8-8.1-8.3-8.1c-4.4,0-7.9,3.4-7.9,7.7
	C420.2,447.9,423.8,451.5,428.4,451.6z"/>
<path class="st2" d="M487.6,442.9c0-9.3,7.5-16.8,16.9-16.9c9.5-0.1,17.4,7.7,17.6,17.1c0.1,9.3-7.7,17.1-17.1,17.1
	C495.4,460.2,487.6,452.4,487.6,442.9z M504.8,451c4.5,0,7.9-3.2,8-7.6c0.1-4.5-3.5-8.2-8-8.3c-4.5-0.1-8.2,3.4-8.2,7.7
	C496.6,447.3,500.3,450.9,504.8,451z"/>
<path class="st1" d="M170.9,251c15.1-9.5,37-11.3,54.8,4.7c12.2,11,19.2,34.2,11.6,48.6c-0.4-5.7-1.9-10.7-3.7-15.7
	c-4.2-11.3-10.5-21-20.4-28.2C200.4,251,186.3,248.6,170.9,251z"/>
<path class="st3" d="M104,171.1l11.8,11.8c2.8,2.8,7.3,2.8,10.1,0l11.8-11.8c2.8-2.8,2.8-7.3,0-10.1l-11.8-11.8
	c-2.8-2.8-7.3-2.8-10.1,0L104,161C101.2,163.8,101.2,168.3,104,171.1z"/>
<path class="st3" d="M104,205.5l11.8,11.8c2.8,2.8,7.3,2.8,10.1,0l11.8-11.8c2.8-2.8,2.8-7.3,0-10.1l-11.8-11.8
	c-2.8-2.8-7.3-2.8-10.1,0L104,195.3C101.2,198.1,101.2,202.7,104,205.5z"/>
<path class="st2" d="M393.9,517l9.3,9.3c1.4,1.3,3.5,1.3,4.9,0l9.3-9.3c1.4-1.3,1.4-3.5,0-4.9l-9.3-9.3c-1.4-1.4-3.5-1.4-4.9,0
	l-9.3,9.3C392.5,513.4,392.5,515.6,393.9,517z"/>
<circle class="st4" cx="465.8" cy="444.7" r="92"/>
</svg>
