<?xml version="1.0" encoding="utf-8"?>
<!-- Generator: Adobe Illustrator 28.0.0, SVG Export Plug-In . SVG Version: 6.00 Build 0)  -->
<svg version="1.1" id="Capa_1" xmlns="http://www.w3.org/2000/svg" xmlns:xlink="http://www.w3.org/1999/xlink" x="0px" y="0px"
	 viewBox="0 0 600 600" style="enable-background:new 0 0 600 600;" xml:space="preserve">
<style type="text/css">
	.st0{fill:#090A0A;}
	.st1{fill:#FDFDFD;}
	.st2{fill:#29E4A5;}
	.st3{fill:#6EE1EB;}
	.st4{fill:none;stroke:#29E4A5;stroke-width:11;stroke-miterlimit:10;}
</style>
<path class="st0" d="M91.9,232.4c-0.6,1.2-0.4,2.2-0.4,3.1c-0.1,69.1-0.2,138.1-0.3,207.2c0,2.3,0.2,4.5,0.2,6.8
	c0.1,10.1,4.5,18.2,11,25.5c2.3,2.6,5.5,3.6,8.8,4c2.7,0.4,5.4,0.4,8.2,0.4c8.7-0.2,17.5-0.3,26.2-0.4c1.1,0,2.2-0.1,3.3,0.4
	c1.8,0.8,2.9,2.3,2.8,4.2c-0.1,1.9-1,3.2-2.7,3.9c-1,0.4-2,0.5-3,0.5c-11.4,0.1-22.7,0.1-34.1,0.4c-5.9,0.2-10.6-1.9-14.6-6
	c-9.4-9.8-14.9-21.2-14.9-35.1c0.2-73,0.3-146,0.3-219.1c0-4.2,1.3-7.1,4.3-9.8c9.1-8.3,18-16.8,27-25.2
	c12.2-11.4,24.4-22.9,36.7-34.2c1.9-1.8,2.6-3.5,2.5-6c-0.2-16.8-0.2-33.6-0.4-50.5c-0.1-4.5-0.4-9,0.6-13.5
	c0.8-3.4,1.9-6.7,3.8-9.6c2.7-4.2,6.3-6.9,11.5-6.9c2,0,3.9-0.2,5.9-0.2c22.6-0.1,45.1-0.1,67.7-0.1c2.1,0,3.3-0.6,4.4-2.5
	c6.4-11.4,15.8-19.3,28.6-22.6c13.9-3.6,26.6-0.6,38.2,7.5c5.9,4.1,10.8,9.4,14.5,15.6c0.9,1.4,1.7,1.9,3.3,1.8
	C343,72,354.9,72,366.7,72c11.4,0,22.7,0,34.1,0c3.6,0,7.1,0.8,10.3,2.5c6.1,3.2,9,8.6,9.4,15.3c0.2,3.4,0.2,6.8,0.1,10.1
	c-0.1,2.6-1.8,4.4-4.1,4.6c-2.3,0.2-4.2-1.4-4.6-4c-0.3-1.5-0.2-3-0.1-4.5c0.1-2.2,0-4.3-0.2-6.5c-0.6-5.4-3.6-8.2-9-8.6
	c-1.1-0.1-2.3,0-3.4,0c-75,0.1-150,0.1-225,0.2c-2,0-3.9,0-5.8,0.8c-4.7,2-6,6.1-6.6,10.7c-0.1,1.1,0,2.3,0,3.4
	c0.2,62.5,0.4,125,0.6,187.5c0,1.9,0.6,3.3,2,4.6c36,33.6,72,67.2,107.9,100.9c3.2,3,6.6,5.5,11.2,5.9c5.1,0.4,9.9-0.7,14.3-3.2
	c0.6-0.4,1.3-0.8,1.8-1.3c18.8-17.6,37.6-35.2,56.4-52.8c18-16.8,35.9-33.7,54-50.4c1.7-1.6,2.3-3,2.3-5.3
	c0.1-29.4,0.3-58.8,0.4-88.2c0.1-21.5,0.2-43,0.3-64.6c0-1.1-0.1-2.3,0.2-3.4c0.6-2.1,2.2-3.5,4.2-3.5c2.1,0,3.9,1.5,4.3,3.7
	c0.2,0.9,0.1,1.9,0.1,2.8c0,9,0,18-0.2,27.1c0,2.2,0.6,3.8,2.2,5.3c22.1,20.3,44.1,40.6,66.2,60.9c0.9,0.8,1.8,1.7,2.6,2.5
	c1.2,1.2,1.8,2.6,1.7,4.3c0,1.1,0,2.3,0,3.4c-0.1,38.2-0.2,76.5-0.4,114.7c0,3.2,0,3.2,3,4.1c34.7,9.4,61,38.5,66.1,73.8
	c4.1,28.4-3.8,53.6-22.7,75.1c-15.1,17.1-34.2,27.5-56.8,30.8c-31.3,4.5-58.5-4.5-81-26.9c-4-4-7.8-8.4-10.7-13.4
	c-0.9-1.6-2.2-1.7-3.7-1.7c-33.2-0.2-66.3-0.4-99.5-0.6c-38.9-0.3-77.8-0.6-116.7-0.9c-0.8,0-1.7,0-2.5-0.1
	c-2.2-0.4-3.7-2.3-3.7-4.4c0-2,1.4-3.7,3.5-4.2c1-0.2,2.1-0.2,3.1-0.2c69.9,0.5,139.8,1,209.7,1.5c1.1,0,2.2,0.2,3.4-0.2
	c0.1-1-0.5-1.8-0.8-2.6c-10.9-26.5-9.8-52.6,3.1-78.1c8.1-16.1,20.3-28.6,35.8-37.7c16.3-9.6,34.1-14.1,53.1-13.3
	c2.2,0.1,4.3,0.4,6.5,0.5c2,0.1,2,0,2-2c0.1-9.8,0.1-19.5,0.1-29.3c0.1-28.1,0.1-56.2,0.2-84.3c0-1.1,0.6-2.6-0.6-3.1
	c-1-0.4-1.6,1-2.4,1.7C432.3,278.1,382.2,325.1,332,372c-6.3,5.9-12.6,11.8-18.9,17.7c-1.3,1.2-2.5,2.6-3.7,3.9
	c-8.9,9.4-22.8,12.8-34.3,8.2c-2.9-1.2-5.3-3-7.6-5.2c-9.6-9.1-19.3-18.1-29-27.2c-46.2-43.2-92.4-86.4-138.6-129.6
	C97.3,237.5,94.7,235,91.9,232.4z M472.2,356.2c-4.4,0.2-8.7,0.4-13,1.1c-23.2,3.9-42.1,14.9-56.3,33.7c-21.3,28.1-22.9,66.9-3,95.4
	c19.8,28.5,47.7,40,81.9,35.7c23-2.9,42-14,55.9-32.6c19.3-25.7,23.8-54.1,10.8-83.6C534.2,373.1,507.3,357.9,472.2,356.2z
	 M153.2,169.4c-0.2-0.1-0.4-0.2-0.6-0.3c-19.2,18-38.4,35.9-57.7,54c19.5,18.3,38.8,36.3,58.3,54.5
	C153.2,241.2,153.2,205.3,153.2,169.4z M421.3,276.3c19.1-17.9,37.9-35.5,56.8-53.2c-18.9-17.4-37.5-34.5-56.2-51.8
	C421.4,174.3,420.8,271.9,421.3,276.3z M255.8,72c5.6,0.6,60.3,0.2,62.1-0.4C301.2,48.3,269.3,49.5,255.8,72z"/>
<path class="st0" d="M285,99.9c9.9,0.1,19.4,2.2,27.6,8c11.9,8.4,19.5,19.6,21.1,34.4c1.8,16.6-4.6,29.6-17.9,39.5
	c-2.2,1.6-4.4,3.2-6.8,4.5c-2.1,1.1-2.8,2.6-2.8,4.9c0,5.3-0.3,10.5-0.1,15.8c0.2,6.5-3,10.9-8.3,13.9c-8.1,4.6-19,3-25.5-3.7
	c-3-3-4.5-6.7-4.5-10.9c0.1-8,0-16,0.5-23.9c0.5-7.4,4.1-13.5,9.4-18.7c1.4-1.4,3-2.6,4.6-3.7c2.8-1.9,5.6-3.8,8.1-6.1
	c0.9-0.8,1.7-1.7,2.5-2.7c2.7-3.7,2.8-7,0.4-10.7c-2.7-4.1-5.8-5.1-10.7-4.3c-1.6,0.3-2.9,1.3-3.8,2.7c-1.7,2.7-2.9,5.5-2.7,8.7
	c0.7,8.9-4.2,14.5-11.6,18.3c-7.5,3.8-14.6,0.6-19.2-4.1c-5.8-5.8-7.5-13.1-7.1-21c0.7-12.7,6.6-22.7,16.4-30.5
	C263.6,103.4,273.6,99.6,285,99.9z M276.9,195.4c-0.1,0-0.2,0-0.2,0c0,3.7,0,7.3,0,11c0,1.4,0.3,2.6,1,3.7
	c3.6,5.3,13.1,6.4,17.8,1.9c1.1-1,1.6-2.1,1.7-3.7c0.1-4.8,0.3-9.6,0.4-14.4c0.1-2.6,0.2-5.2,0.6-7.8c0.5-2.5,1.7-4.3,3.8-5.6
	c3-1.9,6-3.8,9-5.8c7.8-5.5,12.8-13.1,14.1-22.5c1.3-9-0.6-17.6-5.8-25.2c-4.3-6.4-9.5-11.9-16.6-14.7c-14.4-5.7-28.4-5.3-41.4,4.2
	c-7.8,5.7-12.9,13.1-14.1,22.8c-0.7,5.8-0.3,11.5,4,16.1c3,3.3,6.2,4.3,9.8,2.9c4.8-1.9,7.3-5.2,7.2-9.6c-0.2-5,1-9.7,3.5-14
	c1.8-3,4.3-5.2,7.6-6.4c9.9-3.4,20.4,1.5,24,13.4c0.7,2.3,0.7,4.6,0.2,7c-0.9,4.5-3.3,8.1-6.6,11.2c-3.1,2.9-6.6,5.3-10,7.7
	c-6.5,4.6-10,10.8-10,18.8C276.9,189.4,276.9,192.4,276.9,195.4z"/>
<path class="st0" d="M308,262c0,11.4-9.2,20.5-20.7,20.4c-11.7-0.1-21.3-9.7-21.2-21.4c0.1-11.2,9.3-20.5,20.6-20.3
	C299.4,240.8,308.2,251,308,262z M287,249.5c-6.8-0.1-12.1,5-12.1,11.8c0,6.8,5.5,12.4,12.3,12.5c6.7,0.1,12.1-5.2,12.1-11.8
	C299.4,255.1,293.8,249.5,287,249.5z"/>
<path class="st1" d="M153.2,169.4c0,35.9,0,71.8,0,108.2c-19.5-18.2-38.8-36.2-58.3-54.5c19.3-18.1,38.5-36,57.7-54
	C152.8,169.2,153,169.3,153.2,169.4z"/>
<path class="st1" d="M421.3,276.3c-0.6-4.4,0-101.9,0.6-105c18.7,17.2,37.3,34.4,56.2,51.8C459.2,240.8,440.4,258.4,421.3,276.3z"/>
<path class="st1" d="M255.8,72c13.5-22.4,45.4-23.7,62.1-0.4C316.1,72.2,261.4,72.5,255.8,72z"/>
<path class="st1" d="M276.9,195.4c0-3,0-6,0-9c0-8.1,3.5-14.3,10-18.8c3.4-2.5,7-4.8,10-7.7c3.3-3.1,5.7-6.7,6.6-11.2
	c0.5-2.4,0.5-4.7-0.2-7c-3.6-11.9-14.1-16.8-24-13.4c-3.3,1.1-5.8,3.3-7.6,6.4c-2.5,4.3-3.7,9-3.5,14c0.1,4.4-2.4,7.7-7.2,9.6
	c-3.6,1.4-6.8,0.3-9.8-2.9c-4.3-4.7-4.7-10.3-4-16.1c1.2-9.7,6.3-17.1,14.1-22.8c13-9.5,27-9.9,41.4-4.2c7.1,2.8,12.4,8.4,16.6,14.7
	c5.2,7.7,7,16.3,5.8,25.2c-1.3,9.4-6.2,17-14.1,22.5c-2.9,2-5.9,4-9,5.8c-2.2,1.3-3.4,3.1-3.8,5.6c-0.5,2.6-0.6,5.2-0.6,7.8
	c-0.2,4.8-0.4,9.6-0.4,14.4c0,1.6-0.6,2.7-1.7,3.7c-4.7,4.5-14.2,3.5-17.8-1.9c-0.8-1.1-1.1-2.3-1-3.7c0.1-3.7,0-7.3,0-11
	C276.7,195.4,276.8,195.4,276.9,195.4z"/>
<path class="st1" d="M287,249.5c6.8,0.1,12.3,5.7,12.3,12.4c0,6.7-5.4,11.9-12.1,11.8c-6.8-0.1-12.3-5.7-12.3-12.5
	C274.9,254.5,280.2,249.4,287,249.5z"/>
<path class="st2" d="M471.6,509.5c-34.9,0-63.6-24.5-68.9-58c-4.9-31.2,12.8-62.9,42.1-75.1c20.6-8.6,41.2-8,60.9,2.5
	c18.5,9.9,30.1,25.5,34.5,46c8.3,38.8-18,76.7-57,83.6C479,509.2,474.9,509.5,471.6,509.5z M532.8,439.2c0-1.7,0.1-3.4,0-5.1
	c0-1.1-0.2-2.2-0.4-3.4c-3.4-21.1-14.6-36.7-33.9-45.7c-20.1-9.4-40.1-7.8-58.9,3.9c-25.7,16-35.8,48.2-24.1,75.7
	c11,25.6,38.4,40,65.8,35.3C510.9,494.9,532.9,469.2,532.8,439.2z"/>
<path class="st2" d="M524.6,422.5c-0.1,2.4-0.7,4.8-2.4,6.8c-0.8,1-1.7,2-2.6,2.9c-13.7,13.6-27.5,27.2-41.2,40.9
	c-3.6,3.6-7.5,6.9-11.2,10.3c-1.7,1.6-3.8,2.8-6,3.7c-2.7,1.1-5.3,0.9-7.8-0.6c-2.7-1.6-5-3.7-7.2-5.9c-7.5-7.7-15-15.5-22.5-23.3
	c-2-2.1-3.6-4.5-5.2-7c-1.9-3-2-6.1,0-8.7c4.7-6.1,9.6-12.1,16.6-15.7c3.6-1.9,6.9-1.2,9.9,1.3c3.9,3.1,7.2,6.8,10.8,10.3
	c3,2.9,3,2.9,5.9,0c11.1-11.2,22.2-22.4,33.7-33.3c2.7-2.6,5.6-4.8,9.7-4.2c2.2,0.3,4.2,1.1,5.7,2.7c3.1,3.3,6.3,6.5,9.3,9.8
	C522.8,415.2,524.6,418.4,524.6,422.5z M453.2,446.8c-4.4-4.3-8.3-8.2-12.4-12c-1.5-1.4-3.1-1.3-5.1,0.1c-3.5,2.5-6.5,5.4-9.1,8.7
	c-1.4,1.7-1.4,2.6-0.2,4.3c1.6,2.2,3.2,4.4,5.1,6.3c6.8,6.8,13.5,13.6,20.3,20.4c0.7,0.7,1.4,1.3,2.1,1.9c1.7,1.5,3.7,1.6,5.8,1
	c1.5-0.4,2.8-1.2,4-2.1c2.2-1.6,4.1-3.6,6-5.5c14.6-15.4,30-30,45-45c2.3-2.3,2.5-3.9,0.3-6.3c-2.9-3.2-5.9-6.3-9-9.3
	c-1.7-1.7-2.4-1.7-4.3-0.2c-2.2,1.7-3.9,3.8-5.8,5.8c-9.3,10-19.5,19.3-28.8,29.3c-3.6,3.8-7.3,7.5-11.1,11.2
	c-2.1,2.1-4.8,2.1-6.5,0.3c-1.7-1.7-1.6-4.2,0.3-6.3C450.8,448.6,451.9,447.8,453.2,446.8z"/>
<path class="st3" d="M66.9,265.4l12.8,12.8c3,3,8,3,11,0l12.8-12.8c3-3,3-8,0-11l-12.8-12.8c-3-3-8-3-11,0l-12.8,12.8
	C63.8,257.5,63.8,262.4,66.9,265.4z"/>
<path class="st3" d="M66.9,302.8l12.8,12.8c3,3,8,3,11,0l12.8-12.8c3-3,3-8,0-11L90.7,279c-3-3-8-3-11,0l-12.8,12.8
	C63.8,294.8,63.8,299.8,66.9,302.8z"/>
<path class="st2" d="M400.7,512.1l10.1,10.1c1.5,1.5,3.9,1.5,5.3,0l10.1-10.1c1.5-1.5,1.5-3.9,0-5.3l-10.1-10.1
	c-1.5-1.5-3.9-1.5-5.3,0l-10.1,10.1C399.2,508.2,399.2,510.6,400.7,512.1z"/>
<path class="st2" d="M465,467.2l10.1,10.1c1.5,1.5,3.9,1.5,5.3,0l10.1-10.1c1.5-1.5,1.5-3.9,0-5.3l-10.1-10.1
	c-1.5-1.5-3.9-1.5-5.3,0L465,461.8C463.5,463.3,463.5,465.7,465,467.2z"/>
<circle class="st4" cx="470.9" cy="439.6" r="88"/>
</svg>
