<?xml version="1.0" encoding="utf-8"?>
<!-- Generator: Adobe Illustrator 28.0.0, SVG Export Plug-In . SVG Version: 6.00 Build 0)  -->
<svg version="1.1" id="Capa_1" xmlns="http://www.w3.org/2000/svg" xmlns:xlink="http://www.w3.org/1999/xlink" x="0px" y="0px"
	 viewBox="0 0 600 600" style="enable-background:new 0 0 600 600;" xml:space="preserve">
<style type="text/css">
	.st0{fill:#090A0A;}
	.st1{fill:#FDFDFD;}
	.st2{fill:#DBB300;}
	.st3{fill:#6EE1EB;}
	.st4{fill:none;stroke:#DBB300;stroke-width:11;stroke-miterlimit:10;}
</style>
<path class="st0" d="M387.2,479c-0.6-1.4-1-2.4-1.4-3.5c-3.9-9.1-6.3-18.7-6.9-28.6c-0.8-12.7,0.7-25.1,5.1-37.1
	c7.7-21.2,21.2-37.7,40.5-49.3c18.2-10.9,38-15.2,59.2-13c0.4,0,0.7,0.1,1.1,0.1c1.1,0,1.8-0.2,1.7-1.6c-0.1-0.6,0-1.1,0-1.7
	c0.1-37.4,0.2-74.8,0.3-112.2c0-1.1,0.7-2.8-0.7-3.3c-1-0.4-1.8,1.1-2.6,1.9c-50.1,46.9-100.2,93.7-150.3,140.6
	c-6.3,5.9-12.6,11.8-18.9,17.7c-1.4,1.4-2.7,2.9-4.1,4.3c-9.5,9-20.5,12-33.2,8c-3.3-1-5.9-3.1-8.4-5.5
	c-7.8-7.5-15.7-14.8-23.6-22.2c-49.7-46.5-99.4-92.9-149.1-139.4c-0.9-0.8-1.8-1.6-2.8-2.5c-0.4,0.9-0.3,1.6-0.3,2.3
	c-0.2,69.4-0.3,138.7-0.5,208.1c0,3.8,0.4,7.5,0.6,11.2c0.1,2.4,0.9,4.6,1.8,6.8c1.8,4.4,4.2,8.4,7.1,12.1c3.2,4.2,7.6,6.2,12.7,6.2
	c10.4,0.1,20.9-0.1,31.3-0.1c1.1,0,2.3-0.1,3.4,0.1c2.3,0.3,3.8,2,3.8,4.2c0,2.2-1.6,4-3.9,4.4c-0.3,0-0.6,0.1-0.8,0.1
	c-12.5,0.1-25,0.5-37.5,0.4c-3.1,0-5.9-1.1-8.4-2.8c-2.2-1.5-4.1-3.3-5.8-5.3c-6-6.9-10.2-14.6-12.1-23.5c-0.6-3-0.8-6-0.8-9
	c0.1-73.8,0.3-147.5,0.4-221.3c0-2.2,0.5-4,2-5.6c2.9-3.2,6.2-6,9.3-9c18.8-17.7,37.7-35.3,56.7-52.9c1.8-1.7,2.5-3.3,2.5-5.7
	c-0.2-11.9-0.1-23.9-0.1-35.8c0-5.9-0.1-11.8-0.4-17.7c-0.4-6.3,0.5-12.4,3.4-18.1c1-1.9,2.2-3.7,3.7-5.3c2-2.1,4.4-3.3,7.4-3.6
	c3.2-0.2,6.4-0.5,9.6-0.5c22,0,44,0,66,0c1.9,0,2.9-0.6,3.9-2.3c6.7-11.9,16.6-20.1,30.1-23.1c14.3-3.2,27.1,0.4,38.7,9.2
	c5.2,4,9.5,8.8,12.8,14.5c0.8,1.4,1.7,1.7,3.1,1.7c8-0.1,16,0,24,0c15.2,0,30.4,0,45.7-0.1c2.3,0,4.5,0.3,6.7,1
	c7.2,2.2,11.6,7,12.8,14.5c0.7,4.1,0.6,8.2,0.4,12.4c-0.1,2.8-1.9,4.5-4.4,4.5c-2.6,0-4.3-1.8-4.4-4.8c-0.1-2,0-3.9,0-5.9
	c0-2.3-0.2-4.5-0.8-6.7c-0.9-3.4-3.2-5.2-6.5-5.8c-1.7-0.3-3.4-0.4-5.1-0.4c-75.5,0.1-150.9,0.2-226.4,0.2
	c-7.3,0-11.1,5.3-11.4,12.6c-0.1,3.8,0.1,7.7,0.1,11.6c0.2,59.2,0.5,118.4,0.6,177.6c0,2.5,0.8,4.1,2.6,5.8
	c35.7,33.3,71.3,66.6,106.9,99.9c2.5,2.3,4.7,4.9,8.3,5.6c7.8,1.7,14.8,0.4,20.9-5.3c22.3-20.9,44.6-41.8,66.9-62.6
	c14.1-13.2,28.2-26.5,42.4-39.7c1.3-1.2,2-2.4,1.8-4.3c-0.3-2.4,0-4.9,0-7.3c0.3-48.6,0.5-97.2,0.8-145.7c0-1.1,0-2.3,0.1-3.4
	c0.3-2.1,2-3.6,4-3.7c2.2-0.1,4,1.2,4.5,3.4c0.2,1.1,0.2,2.2,0.2,3.4c-0.1,9-0.1,18-0.3,27.1c0,2.1,0.6,3.4,2.1,4.8
	c22.2,20.3,44.3,40.7,66.4,61.1c0.3,0.3,0.5,0.5,0.8,0.8c2.7,2,3.5,4.7,3.5,8.1c-0.2,38.8-0.2,77.6-0.3,116.4c0,0.2,0,0.4,0,0.6
	c0,2.4,0,2.4,2.2,3c6.9,1.9,13.6,4.4,19.8,7.8c26.9,15,43.2,37.7,47.1,68.2c4,31.3-6.5,58-29.3,79.6c-14.7,13.9-32.4,22.2-52.4,24.6
	c-30.4,3.6-56.8-5.2-78.6-26.9c-4.1-4.1-7.9-8.5-10.9-13.6c-0.8-1.4-1.8-1.8-3.4-1.8c-15-0.1-30.1-0.2-45.1-0.3
	c-57.1-0.4-114.3-0.8-171.4-1.2c-1,0-2.1,0-3.1-0.3c-2.1-0.7-3.3-2.3-3.2-4.4c0.1-2,1.5-3.7,3.6-4.1c1.3-0.2,2.6-0.1,3.9-0.1
	c52.6,0.4,105.2,0.8,157.9,1.2c17,0.1,34,0.3,51,0.4C384.6,479,385.7,479,387.2,479z M556.8,442.2c-0.1-16.9-2.7-28.8-8.1-40.1
	c-15.6-32.2-50.4-50.7-86.7-45.7c-21.5,2.9-39.7,12.5-53.8,29c-18,21-24.6,45.3-18.9,72.4c7.5,35.9,39.1,63.3,79.1,64.5
	c13.7,0.4,27-2.2,39.3-8.4C538.9,498.3,555.1,472.7,556.8,442.2z M154.3,167.9c-19.7,18.4-38.9,36.3-58.2,54.4
	c19.5,18.2,38.8,36.3,58.7,54.9C154.7,240.5,154.5,204.6,154.3,167.9z M422.8,170.2c-0.7,20.7-0.8,102.7-0.2,105.2
	c18.9-17.7,37.7-35.3,56.7-53.1C460.6,205,441.9,187.8,422.8,170.2z M319.8,71.3c-9.3-11.8-20.5-18.2-35.4-17.3
	c-10.8,0.6-24.1,9.2-27.2,17.3C277.9,71.3,298.6,71.3,319.8,71.3z"/>
<path class="st0" d="M269.5,194.5c0-3.1,0-6.2,0-9.3c0.1-11,5.1-19.4,13.9-25.7c3-2.1,6-4.2,8.7-6.7c1.5-1.4,2.7-3.1,3.6-5
	c2.5-5.1-2.6-12.2-7.7-12.7c-4.4-0.4-7.1,0.9-9.1,5c-1.2,2.6-1.7,5.3-1.6,8.2c0.1,9.6-8.8,18.4-18.4,18.3c-4.9-0.1-8.8-2.2-12.2-5.6
	c-6.4-6.5-8.1-14.5-7-23.1c2.3-17.8,13-29.1,29.1-35.7c13.1-5.3,26.4-4.2,39.2,1.4c8.3,3.6,14.6,9.9,19.6,17.3
	c6.9,10.2,9.3,21.6,7,33.6c-2.1,11.1-8.2,20-17.6,26.6c-2.5,1.7-5,3.4-7.6,4.9c-1.4,0.8-1.8,1.8-1.9,3.4c-0.1,5.9-0.5,11.8-0.3,17.7
	c0.2,4.8-2.2,8.5-5.8,11.4c-8.4,6.8-22.1,5.2-29-3.2c-2.4-2.9-3.5-6.2-3.4-9.9c0.1-3.7,0-7.3,0-11
	C269.3,194.5,269.4,194.5,269.5,194.5z M278.2,194.2c-0.1,0-0.3,0-0.4,0c0,3.8,0.1,7.5,0,11.3c0,1.7,0.5,3.1,1.5,4.4
	c3.8,4.7,12.1,5.7,16.8,1.9c1.4-1.1,2.2-2.4,2.2-4.3c0.1-5.4,0.3-10.9,0.5-16.3c0.1-2,0.4-3.9,0.7-5.9c0.4-2.6,1.7-4.2,3.8-5.6
	c2.9-1.8,5.7-3.6,8.5-5.5c8.3-5.8,13.1-13.7,14.7-23.7c0.7-4.6-0.3-9-1.1-13.4c-1.5-7.7-6.2-13.6-11.6-18.9
	c-3.8-3.7-8.2-6.5-13.4-8.1c-5.1-1.5-10.2-2.3-15.5-2.2c-13,0.3-23.1,6-30.8,16.1c-5,6.6-6.7,14.2-5.6,22.4c0.5,3.7,2.3,6.7,4.9,9.2
	c1.6,1.5,3.6,2.5,5.8,2.5c5.3,0,10.2-5.1,10.1-10.3c-0.1-5,1.1-9.7,3.7-14c1.9-3.2,4.6-5.5,8.2-6.5c13.3-3.7,22.4,5.9,23.7,15.6
	c0.9,6.5-2.2,11.6-6.6,16c-3.1,3-6.7,5.4-10.2,7.9c-6.2,4.5-9.9,10.4-9.8,18.3C278.3,188.2,278.2,191.2,278.2,194.2z"/>
<path class="st0" d="M288.1,240c11.7,0,21.3,9.7,21.2,21.4c-0.1,11.2-9.4,20.3-20.6,20.3c-11.7,0-21.4-9.7-21.3-21.3
	C267.5,249,276.7,239.9,288.1,240z M288.4,272.9c6.7,0.1,12-4.7,12.2-11.4c0.2-6.9-5.2-12.7-12.2-12.9c-6.5-0.2-12,4.9-12.2,11.4
	C276,267,281.4,272.7,288.4,272.9z"/>
<path class="st1" d="M154.3,167.9c0.2,36.7,0.3,72.6,0.5,109.3c-19.9-18.6-39.2-36.7-58.7-54.9C115.5,204.2,134.6,186.3,154.3,167.9
	z"/>
<path class="st1" d="M422.8,170.2c19.1,17.6,37.8,34.8,56.6,52.1c-19,17.8-37.8,35.4-56.7,53.1C422,273,422.2,190.9,422.8,170.2z"/>
<path class="st1" d="M319.8,71.3c-21.2,0-41.9,0-62.6,0c3.1-8.1,16.5-16.7,27.2-17.3C299.3,53.1,310.5,59.5,319.8,71.3z"/>
<path class="st1" d="M278.2,194.2c0-3,0-6,0-9c-0.1-7.9,3.6-13.8,9.8-18.3c3.5-2.5,7.1-4.9,10.2-7.9c4.5-4.4,7.5-9.5,6.6-16
	c-1.3-9.7-10.4-19.3-23.7-15.6c-3.6,1-6.3,3.3-8.2,6.5c-2.5,4.3-3.7,9-3.7,14c0.1,5.3-4.8,10.3-10.1,10.3c-2.3,0-4.2-1-5.8-2.5
	c-2.7-2.5-4.5-5.5-4.9-9.2c-1.1-8.2,0.6-15.8,5.6-22.4c7.7-10.1,17.8-15.8,30.8-16.1c5.3-0.1,10.4,0.6,15.5,2.2
	c5.2,1.6,9.6,4.4,13.4,8.1c5.4,5.3,10,11.2,11.6,18.9c0.9,4.4,1.9,8.8,1.1,13.4c-1.6,10-6.3,17.9-14.7,23.7
	c-2.8,1.9-5.6,3.8-8.5,5.5c-2.1,1.3-3.5,3-3.8,5.6c-0.3,1.9-0.6,3.9-0.7,5.9c-0.2,5.4-0.4,10.9-0.5,16.3c0,1.9-0.8,3.2-2.2,4.3
	c-4.7,3.8-13,2.9-16.8-1.9c-1-1.3-1.6-2.7-1.5-4.4c0.1-3.8,0-7.5,0-11.3C278,194.2,278.1,194.2,278.2,194.2z"/>
<path class="st1" d="M288.4,272.9c-6.9-0.2-12.4-5.9-12.2-12.8c0.2-6.5,5.7-11.7,12.2-11.4c7,0.2,12.4,6,12.2,12.9
	C300.3,268.2,295.1,273,288.4,272.9z"/>
<path class="st2" d="M472.6,508.9c-34,0-62.4-23.7-68.4-56.4c-5.9-31.8,12.1-64.7,42.3-77c20.6-8.4,41-7.7,60.6,2.9
	c18.8,10.2,30.5,26.2,34.5,47.3c7.3,37.7-17.7,74.8-57,82.2C480.5,508.5,476.2,508.8,472.6,508.9z M472.4,378.6
	c-2.2,0-5.8,0.2-9.4,0.9c-28.8,5.4-47.7,28.6-50.5,52.9c-2.4,20.8,3.8,38.7,19.6,52.4c19.9,17.2,42.6,19.9,66.5,9.3
	c25.8-11.4,40.2-40.3,34.6-67.7C527.3,398.4,502.7,378.5,472.4,378.6z"/>
<path class="st2" d="M509.9,453.8c-9.3,0-16.8-7.3-16.8-16.5c0-9,7.2-16.3,16.3-16.3c9.2,0,16.8,7.4,16.9,16.5
	C526.3,446.5,518.9,453.8,509.9,453.8z M509.5,429.8c-4.2,0-7.6,3.3-7.7,7.4c-0.1,4.3,3.8,8.1,8.2,8c4.2-0.1,7.5-3.4,7.5-7.6
	C517.4,433.3,513.9,429.8,509.5,429.8z"/>
<path class="st2" d="M473.4,453.8c-9.2,0-16.8-7.5-16.7-16.6c0.1-8.9,7.5-16.2,16.5-16.2c9.2,0,16.7,7.5,16.7,16.7
	C489.8,446.7,482.5,453.8,473.4,453.8z M481.1,437.7c0-4.3-3.5-7.9-7.9-7.9c-4.2-0.1-7.6,3.2-7.7,7.3c-0.1,4.4,3.5,8.1,8,8.1
	C477.7,445.1,481.1,441.8,481.1,437.7z"/>
<path class="st2" d="M436.2,454.4c-9.2,0-16.8-7.5-16.7-16.6c0-8.9,7.5-16.2,16.5-16.2c9.2,0,16.7,7.5,16.7,16.6
	C452.6,447.2,445.3,454.4,436.2,454.4z M428.3,437.7c-0.1,4.3,3.4,7.9,7.8,8c4.3,0.1,7.8-3.3,7.8-7.5c0-4.3-3.6-7.8-8-7.8
	C431.7,430.3,428.3,433.6,428.3,437.7z"/>
<path class="st3" d="M69.5,264l12.8,12.8c3,3,8,3,11,0l12.8-12.8c3-3,3-8,0-11l-12.8-12.8c-3-3-8-3-11,0l-12.8,12.8
	C66.5,256,66.5,260.9,69.5,264z"/>
<path class="st3" d="M69.5,301.3l12.8,12.8c3,3,8,3,11,0l12.8-12.8c3-3,3-8,0-11l-12.8-12.8c-3-3-8-3-11,0l-12.8,12.8
	C66.5,293.4,66.5,298.3,69.5,301.3z"/>
<path class="st2" d="M403.3,510.6l10.1,10.1c1.5,1.5,3.9,1.5,5.3,0l10.1-10.1c1.5-1.5,1.5-3.9,0-5.3l-10.1-10.1
	c-1.5-1.5-3.9-1.5-5.3,0l-10.1,10.1C401.8,506.7,401.8,509.1,403.3,510.6z"/>
<circle class="st4" cx="472" cy="439.5" r="88"/>
</svg>
