<?xml version="1.0" encoding="utf-8"?>
<!-- Generator: Adobe Illustrator 28.0.0, SVG Export Plug-In . SVG Version: 6.00 Build 0)  -->
<svg version="1.1" id="Capa_1" xmlns="http://www.w3.org/2000/svg" xmlns:xlink="http://www.w3.org/1999/xlink" x="0px" y="0px"
	 viewBox="0 0 600 600" style="enable-background:new 0 0 600 600;" xml:space="preserve">
<style type="text/css">
	.st0{fill:#090A0A;}
	.st1{fill:#FCFCFC;}
	.st2{fill:#FF5500;}
	.st3{fill:#6EE1EB;}
	.st4{fill:none;stroke:#FF5500;stroke-width:11;stroke-miterlimit:10;}
</style>
<path class="st0" d="M92.8,231.4c0,1.5,0,2.3,0,3.1c-0.1,68.1-0.3,136.3-0.5,204.4c0,4.7,0.3,9.4,0.6,14.1c0.2,2.5,0.9,4.8,1.8,7.1
	c1.7,4.3,4.1,8.2,6.9,11.9c3.3,4.4,7.8,6.5,13.1,6.5c10.3,0.1,20.7-0.1,31-0.2c1.1,0,2.3-0.1,3.4,0.1c2.3,0.3,3.8,2,3.8,4.2
	c0.1,2.2-1.5,4.1-3.9,4.4c-0.3,0-0.6,0.1-0.8,0.1c-12.5,0.1-25,0.5-37.5,0.4c-3.3,0-6-1.1-8.7-2.9c-2-1.4-3.8-3.1-5.4-4.9
	c-6.1-6.9-10.4-14.7-12.3-23.7c-0.6-3.1-0.8-6.1-0.8-9.2c0.1-73.6,0.3-147.2,0.4-220.7c0-2.5,0.6-4.5,2.4-6.4c2.3-2.5,4.9-4.7,7.3-7
	c19.4-18.2,38.8-36.3,58.3-54.5c0.3-0.3,0.5-0.6,0.8-0.8c1.6-0.8,1.7-2.2,1.7-3.8c-0.1-5.8,0-11.7-0.1-17.5c0-9,0-18-0.1-27.1
	c0-3.5-0.3-6.9-0.4-10.4c-0.3-6.2,0.6-12.2,3.4-17.8c1-2,2.2-3.7,3.7-5.3c2-2.1,4.4-3.4,7.4-3.6c3.2-0.3,6.4-0.5,9.6-0.5
	c21.9,0,43.8-0.1,65.7,0c2.1,0,3.3-0.5,4.4-2.5c6.9-12.2,17.1-20.3,31-23.2c11.8-2.4,22.8,0,33,6.2c7.2,4.4,13,10.2,17.3,17.4
	c0.9,1.5,1.8,2,3.5,2c23-0.1,46-0.1,69.1-0.1c2.4,0,4.7,0.3,6.9,1c7.2,2.2,11.6,7,12.9,14.5c0.7,4.1,0.6,8.2,0.4,12.4
	c-0.1,2.8-1.9,4.5-4.4,4.6c-2.6,0-4.3-1.7-4.5-4.7c-0.1-1.8,0-3.6,0-5.4c0-2.2-0.1-4.3-0.6-6.4c-0.9-4-3.2-6.1-7.3-6.8
	c-2.1-0.3-4.1-0.3-6.2-0.3c-66.6,0.1-133.3,0.2-199.9,0.3c-8,0-16,0.3-24-0.1C166.8,80,163,85.8,163,92.9
	c-0.1,18.7,0.1,37.4,0.2,56.1c0.2,44.4,0.4,88.9,0.5,133.3c0,2.3,0.7,3.8,2.3,5.3c35.8,33.4,71.5,66.8,107.3,100.3
	c2.7,2.6,5.4,5.3,9.4,5.8c7.3,1,13.9-0.3,19.5-5.6c17.8-16.8,35.8-33.5,53.7-50.3c18.5-17.3,36.9-34.6,55.4-51.8
	c1.5-1.4,2.1-2.7,2-4.8c-0.1-6.5,0.1-13,0.1-19.4c0.2-44.4,0.5-88.9,0.7-133.3c0-1.1,0-2.3,0.1-3.4c0.3-2.2,2.1-3.7,4.3-3.7
	c2.1,0,3.8,1.3,4.2,3.4c0.2,1.1,0.2,2.2,0.2,3.4c-0.1,9.1-0.1,18.2-0.2,27.3c0,1.8,0.5,3.1,1.9,4.4c22.2,20.4,44.4,40.8,66.6,61.3
	c0.4,0.4,0.8,0.8,1.2,1.1c2.3,1.8,3.1,4.1,3.1,7.1c-0.1,38.2-0.2,76.3-0.3,114.5c0,1.1,0,2.3,0,3.4c0,2.1,0,2.2,2.2,2.7
	c13,3.5,24.7,9.4,35,18c18.8,15.8,29.6,35.8,32.3,60.2c4.2,38.4-17.1,76.5-53.7,93.7c-14.7,6.9-30.3,10-46.5,8.9
	c-24-1.7-44.6-11.1-61.3-28.5c-3.8-3.9-7.4-8-10.1-12.8c-0.9-1.6-2.1-1.6-3.5-1.6c-14.9-0.1-29.9-0.2-44.8-0.3
	c-57.1-0.4-114.3-0.8-171.4-1.2c-0.9,0-1.9,0-2.8-0.2c-2.3-0.5-3.6-2.2-3.5-4.4c0.1-2.2,1.7-4,4.1-4.2c1.2-0.1,2.4-0.1,3.7,0
	c52.6,0.4,105.2,0.8,157.9,1.2c16.9,0.1,33.8,0.3,50.7,0.4c1,0,2.1,0,3.2,0c0.4-1.3-0.4-2.2-0.9-3.2c-4-9.2-6.4-18.9-7-28.9
	c-0.9-12.7,0.7-25.1,5.1-37.1c7.7-21.2,21.2-37.7,40.5-49.3c18.2-10.9,38-15.3,59.2-13.1c0.6,0.1,1.1,0.1,1.7,0.1
	c0.8,0,1.2-0.4,1.2-1.2c0-0.8,0-1.5,0-2.3c0.1-37.3,0.2-74.6,0.3-111.9c0-0.2,0-0.4,0-0.6c-0.2-1,0.6-2.3-0.6-2.8
	c-1-0.4-1.5,0.9-2.2,1.5c-32.8,30.7-65.6,61.4-98.4,92c-23.7,22.2-47.5,44.4-71.2,66.7c-1.4,1.3-2.7,2.9-4.1,4.3
	c-9.5,9-20.5,12.1-33.2,8c-3.3-1-5.9-3.1-8.4-5.5c-7.8-7.6-15.9-14.9-23.8-22.4c-49.6-46.4-99.2-92.8-148.9-139.2
	C95.1,233.5,94.2,232.7,92.8,231.4z M556.8,442.5c0-16-2.5-27.8-6.8-37.6c-14.9-33.7-50.2-53.5-87.7-48.5
	c-21.6,2.9-39.9,12.5-54.1,29.1c-17.9,20.9-24.6,45.1-18.9,72.2c7.7,36.8,39.9,63.7,79.5,64.8c13.6,0.4,26.8-2.3,39-8.4
	C539,498.3,555.1,472.6,556.8,442.5z M154.3,276.7c0.2-0.1,0.3-0.2,0.5-0.4c-0.2-35.9-0.3-71.8-0.5-108.5
	c-19.7,18.4-38.9,36.4-58.2,54.4C115.7,240.6,135,258.7,154.3,276.7z M422.3,275.8c19.3-18.1,38.2-35.7,57.1-53.4
	c-6.7-7-54.3-50.5-56.5-51.6C422.6,205.7,422.4,240.4,422.3,275.8z M319.9,71.3c-9.8-12.3-21.6-18.9-37-17.2
	c-10.8,1.2-23.7,10.1-25.7,17.2C277.9,71.3,298.5,71.3,319.9,71.3z"/>
<path class="st0" d="M287.7,99.1c9.6,0.3,19.8,2.8,28.5,9.7c10,8,16.9,18,18.6,31.1c0.6,4.3,1,8.6,0.2,12.9
	c-2.1,11.8-8,21.3-17.8,28.3c-2.6,1.8-5.3,3.6-8,5.2c-1.1,0.7-1.5,1.4-1.5,2.7c-0.1,6.1-0.5,12.2-0.3,18.3c0.1,4.3-1.8,7.6-4.8,10.4
	c-8.5,7.9-23.7,6.4-30.5-3.1c-2-2.7-2.9-5.7-2.8-9c0.1-7.5-0.1-15,0.4-22.5c0.6-10,5.5-17.7,13.6-23.5c2.9-2.1,5.9-4.1,8.5-6.5
	c1.1-1,2.1-2.1,2.9-3.4c3.9-5.9,0-13.8-7-14.5c-4.2-0.4-6.8,1-8.6,4.8c-1.3,2.7-1.7,5.5-1.7,8.5c0.1,9.5-8.9,18.4-18.5,18.2
	c-4.8-0.1-8.7-2.2-12-5.5c-4.9-4.8-7.1-10.8-7.3-17.5c-0.4-10,2.5-18.9,8.9-26.6C258.3,105.2,271,99.2,287.7,99.1z M278.2,194.1
	c-0.1,0-0.3,0-0.4,0c0,3.9,0,7.7,0,11.6c0,1.5,0.4,2.8,1.3,3.9c3.7,5.1,12.7,6.1,17.4,1.9c1.2-1,1.8-2.2,1.9-3.9
	c0.1-5.4,0.3-10.9,0.5-16.3c0.1-2.1,0.4-4.1,0.7-6.1c0.4-2.5,1.7-4.1,3.7-5.3c2.9-1.8,5.8-3.6,8.5-5.5c11.1-8.1,16.3-18.7,14.5-32.6
	c-1.4-10.7-6.8-19-14.9-25.6c-9.4-7.6-20.6-9.3-32.2-7.6c-9.8,1.4-17.7,6.5-23.9,14.1c-5.6,6.9-7.8,14.8-6.7,23.7
	c0.5,3.8,2.3,6.9,5.1,9.5c1.6,1.5,3.6,2.6,5.8,2.4c3.1-0.2,5.6-1.9,7.8-4.1c1.8-1.8,2.2-4,2.1-6.4c-0.2-5,1.1-9.7,3.7-13.9
	c1.8-3,4.3-5.2,7.7-6.3c13-3.9,22.6,5.1,24.1,15.4c1,6.5-2.1,11.7-6.5,16.1c-3.1,3-6.7,5.4-10.2,7.9c-6.3,4.5-10,10.6-9.9,18.6
	C278.3,188.3,278.2,191.2,278.2,194.1z"/>
<path class="st0" d="M267.5,260.5c0-11.4,9.2-20.5,20.6-20.5c11.7,0,21.3,9.7,21.3,21.3c-0.1,11.2-9.3,20.4-20.5,20.4
	C277.1,281.8,267.4,272.1,267.5,260.5z M288.4,272.9c6.7,0.1,12-4.7,12.2-11.4c0.2-6.9-5.2-12.7-12.2-12.9
	c-6.5-0.2-12,4.9-12.2,11.4C276,267,281.4,272.8,288.4,272.9z"/>
<path class="st1" d="M154.3,276.7c-19.3-18.1-38.6-36.1-58.2-54.4c19.3-18,38.5-36,58.2-54.4c0.2,36.6,0.3,72.5,0.5,108.5
	C154.7,276.5,154.5,276.6,154.3,276.7z"/>
<path class="st1" d="M422.3,275.8c0.2-35.4,0.4-70.2,0.6-105c2.2,1.1,49.8,44.6,56.5,51.6C460.4,240.1,441.6,257.8,422.3,275.8z"/>
<path class="st1" d="M319.9,71.3c-21.4,0-42,0-62.6,0c2-7.1,14.8-16,25.7-17.2C298.3,52.5,310.1,59,319.9,71.3z"/>
<path class="st1" d="M278.2,194.1c0-2.9,0-5.8,0-8.7c-0.1-8,3.5-14,9.9-18.6c3.5-2.5,7.1-4.9,10.2-7.9c4.5-4.4,7.5-9.6,6.5-16.1
	c-1.5-10.3-11-19.3-24.1-15.4c-3.4,1-5.9,3.2-7.7,6.3c-2.6,4.3-3.9,8.9-3.7,13.9c0.1,2.5-0.3,4.6-2.1,6.4c-2.2,2.2-4.7,3.8-7.8,4.1
	c-2.3,0.2-4.2-0.9-5.8-2.4c-2.8-2.6-4.6-5.7-5.1-9.5c-1.1-8.8,1-16.8,6.7-23.7c6.2-7.6,14.2-12.7,23.9-14.1
	c11.6-1.7,22.8,0,32.2,7.6c8.1,6.6,13.6,14.9,14.9,25.6c1.7,13.9-3.4,24.5-14.5,32.6c-2.7,2-5.6,3.7-8.5,5.5c-2,1.3-3.3,2.9-3.7,5.3
	c-0.3,2-0.6,4.1-0.7,6.1c-0.2,5.4-0.4,10.9-0.5,16.3c0,1.7-0.7,2.9-1.9,3.9c-4.7,4.2-13.7,3.2-17.4-1.9c-0.8-1.2-1.3-2.4-1.3-3.9
	c0.1-3.8,0-7.7,0-11.6C278,194.1,278.1,194.1,278.2,194.1z"/>
<path class="st1" d="M288.4,272.9c-6.9-0.2-12.4-5.9-12.2-12.8c0.2-6.5,5.7-11.7,12.2-11.4c7,0.2,12.4,6,12.2,12.9
	C300.3,268.2,295.1,273.1,288.4,272.9z"/>
<path class="st2" d="M472.7,508.9c-34,0.1-62.7-23.9-68.5-56.6c-5.1-28.9,8.7-58.4,34.5-72.9c22.5-12.6,45.6-13.3,68.3-1.1
	c20.3,10.8,32.1,28.2,35.2,51.1c5,36.2-19.5,71.2-57.5,78.4C480.6,508.5,476.4,508.8,472.7,508.9z M474,378.6
	c-12.3,0-24,3.5-34.3,10.3c-26.4,17.4-35.5,51.8-21,79.2c15.5,29.5,51.6,40.3,81.2,25.5c25.1-12.6,38.8-40.4,33.1-67.2
	C527.1,398.2,502.8,378.6,474,378.6z"/>
<path class="st2" d="M447.1,437.4c-3.9-3.7-7.8-7.6-11.8-11.5c-1.5-1.4-2.9-2.9-4.1-4.6c-1.4-2.1-1.5-4.2-0.4-6.4
	c0.7-1.4,1.6-2.6,2.6-3.6c4.6-4.6,9.1-9.2,13.7-13.8c3.3-3.3,5.5-3.6,9.5-1.1c1.7,1,3.2,2.3,4.6,3.7c3.6,3.6,7.3,7,10.9,10.7
	c1.1,1.1,1.7,1,2.7,0c3.8-4,7.7-7.9,11.6-11.9c1.4-1.4,2.8-2.8,4.4-3.9c2.1-1.4,4.2-1.5,6.4-0.4c1.4,0.7,2.6,1.5,3.6,2.6
	c4.6,4.6,9.2,9.1,13.8,13.7c3.4,3.4,3.6,5.6,1,9.7c-1,1.5-2.1,2.9-3.4,4.1c-3.8,3.9-7.6,7.8-11.4,11.7c-1.9,1.9-1.9,1.6-0.1,3.4
	c4.3,4.3,8.7,8.6,12.9,13c4.2,4.4,4.1,7.6-0.2,12c-4.7,4.8-9.5,9.6-14.4,14.3c-3,2.9-5.2,3.1-8.8,1c-1.7-1-3.2-2.3-4.6-3.7
	c-3.7-3.7-7.4-7.4-11.2-11.1c-1.4-1.4-1.5-1.4-2.8,0c-3.5,3.6-7.1,7.3-10.6,10.9c-1.4,1.5-2.9,2.9-4.6,4.1c-2,1.3-4,1.5-6.1,0.4
	c-1.4-0.7-2.6-1.5-3.7-2.6c-4.7-4.6-9.4-9.2-14.1-13.8c-3.2-3.2-3.5-5.4-1.2-9.3c1-1.7,2.3-3.2,3.7-4.6c3.7-3.8,7.3-7.5,11-11.3
	C446.5,438.6,447,438.2,447.1,437.4z M473.1,453.5c0.3,0.1,1,0.2,1.6,0.4c1.5,0.7,2.7,1.8,3.8,2.9c4.3,4.2,8.5,8.5,12.8,12.7
	c2,1.9,3.1,1.9,5,0c2.8-2.7,5.5-5.4,8.2-8.2c2.3-2.3,2.3-3.2,0-5.6c-1.9-2-3.8-3.9-5.8-5.8c-2.6-2.6-5.2-5.1-7.8-7.8
	c-2.2-2.3-2.3-3.9-0.8-6.5c1-1.7,2.2-3.2,3.6-4.6c3.9-3.9,7.8-7.9,11.6-11.9c2.1-2.1,2-3.2,0-5.2c-2.8-2.8-5.6-5.6-8.4-8.3
	c-1.9-1.9-2.8-1.9-4.8-0.1c-0.5,0.4-0.9,0.9-1.4,1.4c-4,4.1-8,8.2-12.1,12.3c-3.4,3.4-6.9,3.5-10.3,0.2c-4.1-3.9-8.1-7.9-12.1-11.8
	c-0.5-0.5-1.1-1.1-1.7-1.5c-1.5-1.1-2.5-1-3.8,0.2c-3.1,3.1-6.2,6.2-9.3,9.4c-1.3,1.4-1.3,2.4-0.1,4c0.5,0.6,1,1.1,1.6,1.6
	c4.1,4,8.2,8,12.3,12c3.4,3.3,3.4,5.2,0.2,8.6c-1.3,1.4-2.6,2.7-3.9,4.1c-3.2,3.3-6.4,6.6-9.6,9.9c-2.2,2.3-2.2,3.2,0,5.4
	c2.5,2.5,5.1,5,7.6,7.5c2.8,2.8,3.6,2.8,6.4-0.1c0.2-0.2,0.4-0.4,0.6-0.6c4-4.1,8-8.2,12-12.3C469.9,454.5,471.1,453.5,473.1,453.5z
	"/>
<path class="st3" d="M69.5,263.4l12.8,12.8c3,3,8,3,11,0l12.8-12.8c3-3,3-8,0-11l-12.8-12.8c-3-3-8-3-11,0l-12.8,12.8
	C66.5,255.4,66.5,260.3,69.5,263.4z"/>
<path class="st3" d="M69.5,300.7l12.8,12.8c3,3,8,3,11,0l12.8-12.8c3-3,3-8,0-11l-12.8-12.8c-3-3-8-3-11,0l-12.8,12.8
	C66.5,292.8,66.5,297.7,69.5,300.7z"/>
<path class="st2" d="M403.3,510l10.1,10.1c1.5,1.5,3.9,1.5,5.3,0l10.1-10.1c1.5-1.5,1.5-3.9,0-5.3l-10.1-10.1
	c-1.5-1.5-3.9-1.5-5.3,0l-10.1,10.1C401.8,506.1,401.8,508.5,403.3,510z"/>
<circle class="st4" cx="472" cy="439" r="88"/>
</svg>
