<?xml version="1.0" encoding="utf-8"?>
<!-- Generator: Adobe Illustrator 28.0.0, SVG Export Plug-In . SVG Version: 6.00 Build 0)  -->
<svg version="1.1" id="Capa_1" xmlns="http://www.w3.org/2000/svg" xmlns:xlink="http://www.w3.org/1999/xlink" x="0px" y="0px"
	 viewBox="0 0 600 600" style="enable-background:new 0 0 600 600;" xml:space="preserve">
<style type="text/css">
	.st0{fill:#090A0A;}
	.st1{fill:#FEFEFE;}
	.st2{fill:#DBB300;}
	.st3{fill:#6EE1EB;}
	.st4{fill:none;stroke:#DBB300;stroke-width:12;stroke-miterlimit:10;}
</style>
<path class="st0" d="M287.8,108.4c-0.9,0-1.9,0-2.8,0c-55.3,0.2-110.6,0.3-166,0.5c-4.6,0-8.1,1.8-10.6,5.5c-3,4.4-4.4,9.3-4.4,14.6
	c0,13.4-0.1,26.7-0.1,40.1c-0.1,79.5-0.1,159-0.3,238.5c0,9.8,4.5,16,13.1,19.8c4.3,1.9,8.8,2.9,13.6,2.9c59,0,118.1,0,177.1,0.1
	c4.2,0,7.6-1.5,10.3-4.6c2.5-2.9,4.5-6.1,6-9.7c0.7-1.8,1.3-3.7,0.8-5.7c-0.2-0.7-0.1-1.6-0.1-2.3c0.1-29.1,0.2-58.1,0.4-87.2
	c0-1,0-2,0.2-2.9c0.4-2.3,2.3-3.9,4.5-3.9c2.2,0,4.1,1.7,4.4,4c0.1,0.9,0.1,1.8,0.1,2.6c-0.1,29.1-0.1,58.1-0.3,87.2
	c0,9.7-3.5,18.1-10.2,25.1c-4.3,4.5-9.6,6.5-15.7,6.5c-55.4,0-110.8-0.1-166.3-0.2c-2.8,0-5.7,0.2-8.5,0.3
	c-10,0.2-19.3-2.2-27.4-8.3c-8-6.1-11.1-14.4-11-24.3c0.2-18.9,0.1-37.9,0.1-56.8c0.1-71.6,0.2-143.2,0.3-214.8
	c0-3.1-0.5-6.2-0.1-9.3c0.7-5.7,2.4-11,5.4-15.9c3.3-5.3,8-8.7,14.1-10.2c1-0.2,1.9-0.3,2.9-0.3c61.8-0.2,123.5-0.3,185.3-0.5
	c0.4,0,0.8,0,1.2,0c3.6,0.1,5.3,1.7,6,5.5c0.4,2.6-1.2,5.5-3.9,6.5c-3.8,1.4-7.6,2.9-11.3,4.7c-12.5,6.1-24,13.8-33.8,23.8
	c-3.7,3.8-7,7.9-9.2,12.8c-0.2,0.5-0.5,1.1-0.9,1.5c-1.4,1.8-3.5,2.3-5.5,1.3c-1.9-0.9-2.9-3-2.4-5.1c0.4-1.6,1.2-3.1,2-4.5
	c3.6-6.5,8.6-11.8,14-16.8c8.1-7.3,17-13.4,26.6-18.5c0.9-0.5,1.7-0.9,2.6-1.4C287.9,108.8,287.8,108.6,287.8,108.4z"/>
<path class="st0" d="M475.1,540.3c-24.5-0.5-47.5-9.5-66.3-28.4c-15.3-15.4-24.4-34-26.4-55.7c-3.2-35,9.5-63.5,36.5-85.8
	c1.1-0.9,2.9-1.6,3.2-2.9c0.3-1.3-1.1-2.6-1.8-3.9c-10.4-19-20.8-38-31.2-56.9c-0.3-0.6-0.7-1.2-1-1.8c-1.6-3.4-0.4-6.4,3.3-7.1
	c4.2-0.9,7.3-3.2,9.9-6.3c1.2-1.5,2.7-2.5,4.7-2.6c1.9-0.1,3.5,0.5,4.6,2c1.2,1.4,2.3,2.9,3.4,4.4c14,18,28.1,36,42.1,54
	c1.4,1.8,2.5,2.3,4.8,1.9c9.1-1.9,18.3-2.5,27.6-1.6c3.6,0.4,7.2,0.5,10.7,1.3c41.9,9.4,69,40.1,74.9,76.5
	c5.7,35.4-5.7,65.3-32.4,89C524,532,500.7,540.3,475.1,540.3z M566.8,443.3c-0.2-5.8-0.7-11.6-1.9-17.2c-8.6-40.8-44.7-68.6-86.4-68
	c-14.8,0.2-28.7,4-41.7,11.1c-31.4,17.2-48.8,50.8-45.8,83.9c1.9,21.8,10.9,40.3,26.9,55.1c26.5,24.5,66.1,30.2,98.8,13.6
	C548.8,505.7,565.1,479,566.8,443.3z M448.6,354.3c-14.3-18.3-28.3-36.3-42.4-54.4c-2.3,1.7-4.3,3.5-6.8,4.7
	c-0.7,0.3-0.7,0.8-0.3,1.4c0.3,0.5,0.6,1,0.8,1.5c8.6,15.6,17.1,31.3,25.7,46.9c1.4,2.6,2.9,5.3,4.4,8
	C436.1,359.7,441.9,356.4,448.6,354.3z"/>
<path class="st0" d="M426,207.6c-0.1,42.7-29.7,79.5-71.6,88.5c-41.1,8.8-82-12.8-98-51.1c-7.8-18.6-9.1-37.8-4-57.3
	c8.7-33.5,35.8-59.7,70.8-66.3c46.6-8.8,91.3,21.3,100.9,67.8C425.4,195.3,425.9,201.4,426,207.6z M258.5,208.7
	c0.1,13.7,2.5,24.9,7.4,35.4c13.2,28.4,42.9,47.7,77.8,44.4c19.4-1.8,36-10.1,49.8-24c25.3-25.6,30.6-65.4,13-96.4
	c-16.5-28.9-49.4-44.2-82.1-37.5c-31.6,6.5-52,26.1-62.4,56.2C259.4,194.5,258.4,202.6,258.5,208.7z"/>
<path class="st0" d="M184.8,223.7c-15.5-0.2-31-0.3-46.5-0.5c-1.4,0-2.7-0.1-4.1-0.4c-2.6-0.5-3.8-2-4.1-4.6c-0.1-0.6,0-1.2,0-1.8
	c-0.1-24.5-0.3-49-0.4-73.5c0-1.3-0.1-2.5,0.2-3.8c0.6-2.2,2.3-3.6,4.4-3.6c2.1,0,3.9,1.5,4.4,3.6c0.2,1,0.2,2.1,0.2,3.2
	c0.1,22.8,0.3,45.7,0.4,68.5c0,3.7-0.4,3.3,3.3,3.3c29.6,0.3,59.1,0.5,88.7,0.8c1,0,2,0,2.9,0.1c2.5,0.3,4.2,2.1,4.2,4.4
	c0,2.4-1.6,4.1-4.1,4.5c-0.8,0.1-1.6,0.1-2.3,0.1c-15.7,0-31.4,0-47.1,0C184.8,224,184.8,223.8,184.8,223.7z"/>
<path class="st0" d="M217.3,365.4c-26.4,0-52.8,0-79.3,0c-1.1,0-2.2,0.1-3.2-0.1c-2.3-0.4-3.9-2.2-3.9-4.5c0-2.1,1.3-3.8,3.6-4.3
	c0.9-0.2,1.9-0.3,2.9-0.3c53.4-0.1,106.9-0.2,160.3-0.2c0.8,0,1.6,0,2.3,0.1c2.2,0.4,3.8,2.4,3.8,4.6c-0.1,2.1-1.6,3.8-3.8,4.2
	c-1,0.2-2.1,0.2-3.2,0.2c-26.5,0-53,0-79.6,0C217.3,365.2,217.3,365.3,217.3,365.4z"/>
<path class="st0" d="M213.5,404.1c-25.3,0-50.5,0-75.8,0c-1,0-2,0-2.9-0.1c-2.3-0.4-4-2.2-4-4.3c-0.1-2.2,1.4-4,3.8-4.5
	c0.9-0.2,1.9-0.2,2.9-0.2c50.6,0.2,101.3,0.4,151.9,0.6c1.2,0,2.4,0,3.5,0.3c2.3,0.5,3.6,2.2,3.6,4.3c0,2.3-1.5,4.1-3.9,4.4
	c-1.1,0.2-2.1,0.1-3.2,0.1c-25.3,0-50.5,0-75.8,0C213.5,404.5,213.5,404.3,213.5,404.1z"/>
<path class="st0" d="M169.8,331.9c-20.9-0.3-39.7-16.2-43.5-36.5c-1.4-7.4-0.3-14.6,3.5-21.2c0.6-1.1,1.3-2.1,2.4-2.9
	c2.5-1.8,4.1-2,6.7-0.2c8.7,6.2,17.6,12.3,25.7,19.3c2.2,1.9,3.9,4.4,5.6,6.7c5.3,7.2,10.7,14.4,16.4,21.3c0.3,0.4,0.6,0.8,0.9,1.2
	c2.5,3.8,1.7,6.8-2.3,8.8C180.2,330.9,175,331.8,169.8,331.9z M137.2,280.2c-1.9,3.9-2.6,8.1-2.1,12c0.9,7.2,4,13.4,8.9,18.7
	c7.6,7.9,16.7,12.3,27.9,11.9c1.8-0.1,3.6-0.3,5.5-1.2c-6.7-7.7-12-16.1-18.4-23.7c-0.4-0.5-1-0.9-1.5-1.4c-4.3-3.5-8.6-7-13-10.5
	C142.1,284,139.7,282.2,137.2,280.2z"/>
<path class="st0" d="M250.2,274.1c0.2,5.2,0.4,10.3,0.6,15.5c0.1,1.4-0.1,2.7-0.6,4c-3.6,8.7-7.1,17.5-10.6,26.3
	c-0.2,0.5-0.4,0.9-0.6,1.3c-1.9,3.9-5.6,4.7-8.9,1.9c-4.3-3.8-7.6-8.3-10-13.5c-9.2-19.7-2-44.1,16.3-55.2c1.7-1,3.4-1.9,5.2-2.6
	c3.6-1.3,6.7,0.3,7.6,4c0.2,0.7,0.2,1.3,0.2,2C249.7,263.2,249.9,268.6,250.2,274.1C250.2,274.1,250.2,274.1,250.2,274.1z
	 M232.8,312.4c2.9-7.2,5.7-14.2,8.5-21.1c0.3-0.8,0.5-1.6,0.4-2.6c-0.4-7.9-0.7-15.8-1.1-23.7c0-0.6,0.2-1.4-0.4-1.9
	C224.3,271.9,220.1,298,232.8,312.4z"/>
<path class="st0" d="M275.5,296c4.3,0,8.6,0,12.9,0c1,0,2,0,2.9,0.2c3.4,0.7,5.1,3.4,4.1,6.7c-1.7,5.8-4.9,10.8-9.1,15.1
	c-8.7,8.9-19.4,13.4-31.9,13.8c-1.2,0-2.4,0-3.5-0.2c-3.4-0.6-5-3.2-3.9-6.5c0.8-2.4,1.7-4.8,2.7-7.1c2.4-6.3,4.8-12.5,7.3-18.8
	c1.3-3.4,1.8-3.6,5.4-3.6c4.4,0,8.8,0,13.2,0C275.5,295.9,275.5,295.9,275.5,296z M284.5,305.1c-6.6,0-12.8,0-19,0
	c-0.8,0-1.2,0.4-1.4,1.2c-2,5.3-4.1,10.7-6.2,16.1C267.7,322.2,279.7,314.5,284.5,305.1z"/>
<path class="st0" d="M209.8,287.1c0,10.9-3.1,19.6-8.6,27.6c-2.1,3.1-5.2,3.2-7.8,0.3c-4-4.4-7.9-8.9-11.8-13.3
	c-1.9-2.1-3.8-4.2-5.6-6.4c-2.5-2.9-2.6-5-0.4-8.1c0.6-0.8,1.3-1.5,2-2.2c6-6.1,12.1-12.2,18.1-18.2c2.6-2.6,5.3-2.7,7.8,0
	c2.2,2.3,3.4,5.2,4.3,8.2C209.1,279.3,209.8,283.7,209.8,287.1z M196.5,304.9c4.6-9.3,5.3-18.6,3-28.2c-0.4,0-0.7,0-0.8,0.1
	c-4.5,4.5-8.9,8.9-13.4,13.4c-0.9,0.9-0.6,1.4,0.1,2.2c2.2,2.5,4.4,5,6.6,7.4C193.4,301.3,194.9,303,196.5,304.9z"/>
<path class="st0" d="M167.2,247.6c6.2,0,11.4,0.9,16.4,3.1c1.5,0.7,3,1.4,4.3,2.4c3.4,2.4,3.8,5,1.1,8.1c-0.9,1-1.8,2-2.8,3
	c-4.8,5.2-9.7,10.4-14.5,15.6c-0.3,0.4-0.7,0.7-1,1.1c-2.7,2.7-5,2.9-8,0.6c-4.5-3.4-8.9-7-13.3-10.5c-2.3-1.8-4.7-3.5-7-5.3
	c-3.9-3-4-6-0.1-9C149.8,250.7,158.3,247.5,167.2,247.6z M150.5,261c5,3.7,9.9,7.2,14.7,10.8c1.1,0.8,1.5,0.1,2.1-0.6
	c3.4-3.7,6.9-7.4,10.3-11.1c0.4-0.5,1.1-0.8,0.9-1.8C168.9,255.4,159.6,256.1,150.5,261z"/>
<path class="st0" d="M210.8,173.6c0,7.2,0,14.4,0,21.6c0,1.2,0,2.3-0.4,3.5c-0.7,1.8-2,2.8-4,2.9c-2,0.1-3.6-0.9-4.3-2.8
	c-0.4-1-0.5-2.1-0.5-3.2c0-14.6,0-29.2,0-43.9c0-0.9,0.1-1.8,0.3-2.6c0.6-2.2,2.3-3.6,4.4-3.5c2.1,0,3.8,1.4,4.3,3.7
	c0.2,0.9,0.2,1.9,0.2,2.9C210.8,159.3,210.8,166.5,210.8,173.6C210.8,173.6,210.8,173.6,210.8,173.6z"/>
<path class="st0" d="M159.4,178.2c0-5.8,0-11.7,0-17.5c0-1.1,0-2.1,0.3-3.2c0.7-2.1,2.3-3.3,4.3-3.4c2.1,0,3.8,1.4,4.4,3.6
	c0.2,0.7,0.2,1.5,0.2,2.3c-0.1,12.3-0.3,24.5-0.4,36.8c0,0.5,0,1-0.1,1.5c-0.4,2.3-2.2,3.9-4.4,3.9c-2.2,0-4.1-1.5-4.4-3.8
	c-0.2-1-0.1-1.9-0.1-2.9c0-5.7,0-11.5,0-17.2C159.2,178.2,159.3,178.2,159.4,178.2z"/>
<path class="st0" d="M189.3,182c0,4.8,0,9.5,0,14.3c0,0.9,0,1.8-0.1,2.6c-0.4,2.1-2.2,3.7-4.3,3.7c-2.1,0.1-4-1.4-4.5-3.5
	c-0.2-0.8-0.2-1.7-0.2-2.6c-0.1-9.7-0.2-19.5-0.2-29.2c0-1,0-2,0.2-2.9c0.4-2.2,2.2-3.7,4.3-3.7c2.2-0.1,4.1,1.5,4.5,3.8
	c0.2,0.8,0.1,1.7,0.1,2.6c0,5,0,9.9,0,14.9C189.3,182,189.3,182,189.3,182z"/>
<path class="st0" d="M223.3,185.4c0-3.5-0.1-7,0-10.5c0.1-3.6,1.7-5.6,4.6-5.6c2.9,0,4.6,2.1,4.6,5.8c0,6.9-0.1,13.8-0.1,20.7
	c0,0.8-0.1,1.6-0.3,2.3c-0.5,2.3-2.2,3.6-4.3,3.6c-2.2,0-4.1-1.5-4.5-3.8c-0.2-1.1-0.1-2.3-0.1-3.5c0-3,0-6,0-9
	C223.2,185.4,223.3,185.4,223.3,185.4z"/>
<path class="st1" d="M258.5,208.7c-0.1-6.1,0.8-14.3,3.5-21.9c10.4-30.1,30.8-49.7,62.4-56.2c32.7-6.7,65.6,8.6,82.1,37.5
	c17.6,31,12.3,70.8-13,96.4c-13.7,13.9-30.3,22.1-49.8,24c-34.9,3.3-64.6-16-77.8-44.4C261,233.6,258.6,222.4,258.5,208.7z
	 M344.4,158.1c0-2.9-1.3-4.8-3.5-5.2c-2.4-0.5-4.4,0.7-5.3,3.1c-0.3,0.9-0.5,1.9-0.7,2.8c-1.9,8.8-3.7,17.5-5.6,26.3
	c-4.8,22.9-9.7,45.8-14.5,68.6c-0.2,0.8-0.4,1.5-0.3,2.3c0.1,2.2,1.6,3.9,3.7,4.3c1.9,0.4,3.9-0.6,4.8-2.5c0.4-0.8,0.6-1.7,0.7-2.5
	c6.2-29.3,12.4-58.5,18.6-87.8C343.2,164.3,343.9,161,344.4,158.1z M312.7,169.7c0-2.7-1.5-4.6-3.6-5c-2.2-0.4-4.2,0.7-5.1,3
	c-0.3,0.7-0.4,1.5-0.6,2.3c-3.7,18.3-7.3,36.7-11,55c-0.6,2.9-1.2,5.7-1.6,8.6c-0.4,2.6,1.2,4.8,3.6,5.3c2.2,0.5,4.3-0.8,5.2-3.2
	c0.2-0.6,0.3-1.3,0.5-2c3.7-18.2,7.3-36.5,10.9-54.7C311.6,175.7,312.1,172.5,312.7,169.7z"/>
<path class="st1" d="M137.2,280.2c2.6,2,5,3.8,7.3,5.7c4.3,3.5,8.6,7,13,10.5c0.5,0.4,1.1,0.9,1.5,1.4c6.4,7.6,11.7,16,18.4,23.7
	c-2,0.9-3.7,1.2-5.5,1.2c-11.1,0.4-20.3-3.9-27.9-11.9c-5-5.2-8.1-11.4-8.9-18.7C134.5,288.3,135.2,284,137.2,280.2z"/>
<path class="st1" d="M232.8,312.4c-12.6-14.4-8.5-40.5,7.5-49.3c0.5,0.6,0.3,1.3,0.4,1.9c0.4,7.9,0.7,15.8,1.1,23.7
	c0,0.9-0.1,1.7-0.4,2.6C238.5,298.2,235.7,305.1,232.8,312.4z"/>
<path class="st1" d="M284.5,305.1c-4.8,9.5-16.8,17.1-26.7,17.2c2.1-5.4,4.2-10.7,6.2-16.1c0.3-0.7,0.6-1.2,1.4-1.2
	C271.6,305.1,277.8,305.1,284.5,305.1z"/>
<path class="st1" d="M196.5,304.9c-1.7-1.9-3.1-3.5-4.6-5.2c-2.2-2.5-4.4-5-6.6-7.4c-0.7-0.8-1-1.3-0.1-2.2c4.5-4.4,9-8.9,13.4-13.4
	c0.1-0.1,0.4,0,0.8-0.1C201.8,286.3,201.1,295.5,196.5,304.9z"/>
<path class="st1" d="M150.5,261c9.2-4.9,18.5-5.6,28-2.7c0.3,1-0.4,1.4-0.9,1.8c-3.4,3.7-6.9,7.4-10.3,11.1c-0.6,0.6-1,1.4-2.1,0.6
	C160.3,268.2,155.5,264.7,150.5,261z"/>
<path class="st2" d="M407.2,447.7c0.1-35.2,23-64.4,55.8-72.6c38.9-9.7,77.4,13.3,87.1,51.6c7.7,30.2-5.6,62.7-32.6,79.4
	c-29.1,18-66.3,13.8-90-10.4C414,481.9,407.5,465.1,407.2,447.7z M416.2,448.9c0.3,15.4,7,31,20.7,43.4
	c21.7,19.5,54.1,21.2,78.5,4.4c26.5-18.2,35.4-53.2,20.8-81.4c-12.5-24.1-39.4-37.1-66.9-32.4C438.8,388.3,416.3,415.1,416.2,448.9z
	"/>
<path class="st0" d="M344.4,158.1c-0.6,2.9-1.2,6.2-1.9,9.5c-6.2,29.3-12.4,58.5-18.6,87.8c-0.2,0.9-0.4,1.7-0.7,2.5
	c-0.9,1.9-2.9,2.9-4.8,2.5c-2.1-0.4-3.6-2.2-3.7-4.3c0-0.8,0.2-1.5,0.3-2.3c4.8-22.9,9.7-45.8,14.5-68.6c1.9-8.8,3.7-17.5,5.6-26.3
	c0.2-1,0.4-1.9,0.7-2.8c0.8-2.4,2.9-3.6,5.3-3.1C343.1,153.3,344.5,155.2,344.4,158.1z"/>
<path class="st0" d="M312.7,169.7c-0.5,2.8-1.1,6-1.8,9.1c-3.6,18.2-7.3,36.5-10.9,54.7c-0.1,0.7-0.2,1.4-0.5,2
	c-0.9,2.4-3,3.7-5.2,3.2c-2.4-0.5-4-2.7-3.6-5.3c0.4-2.9,1.1-5.7,1.6-8.6c3.7-18.3,7.3-36.7,11-55c0.2-0.8,0.3-1.5,0.6-2.3
	c0.9-2.2,2.9-3.4,5.1-3C311.2,165.1,312.7,167,312.7,169.7z"/>
<path class="st2" d="M497.2,443.2c0,9.4-7.8,17.1-17.2,17c-9.5-0.1-17.4-8-17.3-17.4c0.1-9.2,7.8-16.8,17.1-16.8
	C489.4,426,497.2,433.7,497.2,443.2z M480,451c4.4,0.1,7.9-3.2,8.1-7.5c0.2-4.6-3.6-8.4-8.3-8.4c-4.4,0-7.9,3.4-7.9,7.7
	C471.9,447.3,475.4,450.9,480,451z"/>
<path class="st2" d="M458.6,443.7c0,9.4-7.7,17.1-17.1,17.1c-9.5,0-17.4-7.9-17.4-17.3c0-9.2,7.7-16.8,17-16.9
	C450.6,426.5,458.5,434.3,458.6,443.7z M441.3,451.6c4.6,0.1,8.2-3.3,8.2-7.7c0-4.5-3.7-8.1-8.2-8.2c-4.4,0-7.9,3.3-8,7.6
	C433.2,447.8,436.7,451.5,441.3,451.6z"/>
<path class="st2" d="M500.6,443c0-9.4,7.5-16.9,16.9-17c9.5-0.1,17.5,7.7,17.5,17.2c0,9.2-7.6,16.9-17,17
	C508.5,460.3,500.6,452.5,500.6,443z M517.9,451c4.4,0,7.9-3.3,8-7.6c0.1-4.5-3.5-8.2-8.1-8.3c-4.5-0.1-8.2,3.4-8.2,7.8
	C509.6,447.3,513.3,451,517.9,451z"/>
<path class="st3" d="M82.2,188.5L93.6,200c2.7,2.7,7.1,2.7,9.8,0l11.4-11.4c2.7-2.7,2.7-7.1,0-9.8l-11.4-11.4
	c-2.7-2.7-7.1-2.7-9.8,0l-11.4,11.4C79.5,181.4,79.5,185.8,82.2,188.5z"/>
<path class="st3" d="M82.2,221.9l11.4,11.4c2.7,2.7,7.1,2.7,9.8,0l11.4-11.4c2.7-2.7,2.7-7.1,0-9.8l-11.4-11.4
	c-2.7-2.7-7.1-2.7-9.8,0L82.2,212C79.5,214.7,79.5,219.1,82.2,221.9z"/>
<path class="st2" d="M405.1,516.5l9,9c1.3,1.3,3.4,1.3,4.8,0l9-9c1.3-1.3,1.3-3.4,0-4.8l-9-9c-1.3-1.3-3.4-1.3-4.8,0l-9,9
	C403.8,513,403.8,515.1,405.1,516.5z"/>
<circle class="st4" cx="478.8" cy="445.1" r="91.5"/>
</svg>
