<?xml version="1.0" encoding="utf-8"?>
<!-- Generator: Adobe Illustrator 28.0.0, SVG Export Plug-In . SVG Version: 6.00 Build 0)  -->
<svg version="1.1" id="Capa_1" xmlns="http://www.w3.org/2000/svg" xmlns:xlink="http://www.w3.org/1999/xlink" x="0px" y="0px"
	 viewBox="0 0 600 600" style="enable-background:new 0 0 600 600;" xml:space="preserve">
<style type="text/css">
	.st0{fill:#090909;}
	.st1{fill:#FCFCFC;}
	.st2{fill:#29E4A5;}
	.st3{fill:#6EE1EB;}
	.st4{fill:none;stroke:#29E4A5;stroke-width:11;stroke-miterlimit:10;}
</style>
<path class="st0" d="M422.1,367.9c-1.7-0.5-2.7-0.4-3.8-0.4c-21.4,0-42.7-0.1-64.1-0.1c-1.1,0-2.2,0-3.2-0.1
	c-2.4-0.3-3.9-2.1-3.9-4.4c0-2.2,1.6-4.1,3.9-4.4c1.1-0.2,2.1-0.1,3.2-0.1c27,0,54.1,0,81.1,0.1c2.1,0,4-0.3,5.9-1.3
	c1.3-0.7,2.7-1.2,4-1.7c2.8-1,2.8-1,2.8-3.8c0.2-46.2,0.4-92.5,0.6-138.7c0-3.8,0.5-3.3-3.2-3.3c-10.7-0.1-21.5-0.1-32.2-0.5
	c-3.4-0.1-6.6-1-9.4-2.7c-4.8-2.9-7.2-7.5-7.3-12.9c-0.3-13.7-0.3-27.3-0.4-41c0-0.9,0-1.8,0-2.6c0-3,0.1-2.7-2.6-2.8
	c-19.1-0.2-38.2-0.4-57.4-0.6c-11.2-0.1-22.4-0.2-33.7-0.4c-3.8-0.1-7.1,1-9.8,3.7c-2.2,2.2-3.7,4.8-3.9,8c-0.1,1.6-0.1,3.1-0.1,4.7
	c0,37.5,0,74.9,0,112.4c0,1.3,0.1,2.5-0.3,3.8c-0.6,2.2-2.4,3.6-4.5,3.5c-2.1-0.1-3.9-1.6-4.3-3.7c-0.2-0.8-0.2-1.7-0.2-2.6
	c0-38.9-0.1-77.9,0.1-116.8c0-9.3,4.5-16.4,13.1-20.5c2.8-1.4,5.8-1.6,8.9-1.6c32.3,0.3,64.6,0.7,96.9,1c0.7,0,1.4,0.1,2,0.1
	c2.6,0,4.6,1.1,6.3,3.1c7.9,9,15.9,18,23.8,27c8.2,9.3,16.4,18.6,24.7,27.8c2,2.2,2.9,4.6,2.9,7.6c-0.3,48.1-0.5,96.2-0.7,144.3
	c0,1.2,0,2.3,0,3.7c3.4-0.6,6.7-1.1,9.9-1.6c6.9-1,13.8-1.2,20.7-0.6c3.7,0.4,7.4,0.4,11,1.2c39.3,9.6,65.5,33.1,74.5,73
	c7.1,31.4-1.4,59.6-22.6,83.6c-16.2,18.3-36.7,29.1-61,32c-31.5,3.8-58.7-5.5-81.4-27.8c-6.3-6.2-11.5-13.2-15.5-21.1
	c-0.8-1.6-1.8-2.2-3.6-2.2c-58.7,0.3-117.5,0.5-176.2,0.7c-7.6,0-15.2,0.1-22.8,0.5c-5.3,0.2-10.2-1.4-14.6-4.4
	c-5.5-3.7-7.7-9.1-7.9-15.5c0-0.8,0-1.6,0-2.3c0.1-129.1,0.2-258.2,0.3-387.3c0-6.2-0.2-12.5-0.4-18.7c-0.2-6.8,0.9-13.4,3.9-19.6
	c0.7-1.4,1.5-2.7,2.5-4c3.1-3.8,7.1-5.9,12.1-5.9c63.2,0,126.5-0.1,189.7-0.1c4.6,0,9.2-0.2,13.7,0.7c6.3,1.2,11.9,3.8,16.1,8.8
	c2.5,2.9,3.7,6.2,3.7,10.2c-0.3,22-0.5,44.1-0.7,66.1c0,1.1,0,2.2-0.2,3.2c-0.5,2.3-2.4,3.8-4.6,3.7c-2.1-0.1-3.8-1.5-4.2-3.8
	c-0.2-1.2-0.2-2.5-0.2-3.8c0.2-20.1,0.4-40.2,0.6-60.3c0-1.5,0-2.9-0.1-4.4c-0.1-3.8-2-6.7-5.2-8.6c-2.9-1.8-5.9-2.9-9.4-2.8
	c-10.6,0.1-21.3,0.1-31.9,0.1c-2.7,0-2.7,0-3.4,2.7c-1.8,7-3.5,14-5.3,21c-1,3.9-3.3,6.8-6.7,8.9c-0.8,0.5-1.6,0.7-2.5,0.8
	c-1.1,0.1-2.1,0.2-3.2,0.2c-30.2,0-60.5-0.1-90.7-0.1c-2.2,0-4.3-0.2-6.4-0.8c-3.8-1.1-6.1-3.8-6.9-7.6c-1.4-7.5-3.4-14.8-5-22.3
	c-0.6-2.5-0.6-2.6-3.2-2.6c-10.9,0-21.9,0.1-32.8,0c-4.1-0.1-6.6,1.7-8.2,5.3c-1.7,4-2.4,8.1-2.3,12.5c0.1,18.8,0,37.7,0,56.5
	c-0.1,117.2-0.2,234.4-0.2,351.5c0,1.4,0,2.7,0.2,4.1c0.6,5.3,4.3,8.8,9.6,9.2c0.8,0.1,1.6,0,2.3,0c65.2-0.2,130.4-0.5,195.5-0.7
	c0.9,0,1.7,0,3,0c-7.3-20.4-7.9-40.8-1.5-61.3C392.5,397.4,404.6,381,422.1,367.9z M566.8,444.5c-0.3-4.5-0.4-7.6-0.7-10.7
	c-0.3-2.6-0.7-5.2-1.2-7.8c-8.6-40.6-44.4-68.5-86.1-67.9c-14.9,0.2-28.9,4-41.9,11.1c-31.3,17.2-48.7,50.8-45.8,84
	c1.9,21.8,10.9,40.3,27,55.1c26.5,24.5,66.1,30.2,98.8,13.6C548.8,505.7,565.1,478.9,566.8,444.5z M232.4,40.8
	c0.5,2.1,0.9,3.8,1.3,5.5c1.3,5.5,2.6,11,3.8,16.5c0.3,1.2,0.6,1.8,2,1.8c7-0.1,14,0.6,21,0.5c9.4-0.1,18.7,0,28.1,0
	c14.6,0,29.2,0,43.9,0.1c2.5,0,2.4,0,3.1-2.3c1.5-5.4,3-10.7,4.4-16c0.5-1.9,1.2-3.9,1.3-5.9C305.1,40.8,268.9,40.8,232.4,40.8z
	 M446.7,200.4c-13.9-15.7-27.4-30.9-40.9-46.2c-0.6,0.6-0.5,1-0.5,1.3c0.1,11.8,0.3,23.6,0.4,35.4c0,0.9,0.1,1.8,0.2,2.6
	c0.8,4.4,4.3,6.7,9.6,6.8c9.3,0,18.5,0,27.8,0.1C444.2,200.4,445.1,200.4,446.7,200.4z"/>
<path class="st0" d="M289.9,381.3c-21.9,0-39.6-17.7-39.6-39.7c0-22.2,18.3-40.5,40.4-40.5c21.6,0,39.4,17.8,39.4,39.6
	C330.2,363,312.1,381.3,289.9,381.3z M291,310.3c-17.1-0.2-31.3,13.6-31.5,30.6c-0.2,17.3,13.1,31.4,30.2,31.3
	c18.9,0,31.3-15.4,31.4-30.8C321.2,324.2,308,310.5,291,310.3z"/>
<path class="st0" d="M370.9,230.9c18.5,0,37.1,0,55.6,0c1.3,0,2.5-0.1,3.8,0.4c2,0.8,3.2,2.4,3.1,4.4c-0.1,1.9-1.3,3.4-3.2,4.1
	c-0.9,0.3-1.9,0.3-2.9,0.3c-37.6-0.1-75.3-0.2-112.9-0.3c-0.8,0-1.6,0-2.3-0.2c-2.1-0.5-3.5-2.4-3.4-4.5c0.1-2,1.5-3.8,3.5-4.1
	c1.1-0.2,2.3-0.2,3.5-0.2c18.4,0,36.9,0,55.3,0C370.9,230.8,370.9,230.8,370.9,230.9z"/>
<path class="st0" d="M370.7,268.1c-18.3,0-36.7,0-55,0c-1.2,0-2.4-0.1-3.5-0.3c-2.1-0.4-3.4-2.2-3.5-4.1c-0.1-1.9,1.1-3.5,3-4.3
	c0.9-0.4,1.9-0.4,2.9-0.4c37.2,0.3,74.5,0.6,111.7,0.9c0.8,0,1.6,0,2.3,0.2c2.4,0.4,3.9,2.2,3.9,4.4c0,2.2-1.6,4.1-3.9,4.4
	c-1,0.1-1.9,0.1-2.9,0.1c-18.3,0-36.7,0-55,0C370.7,268.6,370.7,268.3,370.7,268.1z"/>
<path class="st0" d="M380.7,297c-15.1,0-30.2,0-45.4,0c-1,0-2,0-2.9-0.1c-2.3-0.4-3.8-2.3-3.8-4.5c0.1-2.2,1.7-4,4.1-4.2
	c0.9-0.1,1.8-0.1,2.6-0.1c30.4,0.1,60.9,0.1,91.3,0.2c1.2,0,2.3-0.1,3.5,0.3c2,0.8,3.2,2.6,3.1,4.5c-0.2,2-1.6,3.6-3.6,4
	c-1.1,0.2-2.3,0.2-3.5,0.2c-15.1,0-30.2,0-45.4,0C380.7,297.2,380.7,297.1,380.7,297z"/>
<path class="st0" d="M390,317.3c12.1,0,24.2,0,36.3,0c0.8,0,1.6,0,2.3,0.1c2.1,0.4,3.6,2.2,3.6,4.4c0,2.1-1.4,4-3.6,4.4
	c-0.9,0.2-1.7,0.1-2.6,0.1c-24.3-0.2-48.6-0.4-72.8-0.6c-0.8,0-1.6,0-2.3-0.1c-2.3-0.5-3.7-2.4-3.6-4.7c0.1-2.1,1.7-3.8,3.9-4.1
	c1-0.1,1.9-0.1,2.9-0.1c12,0,24,0,36,0C390,316.9,390,317.1,390,317.3z"/>
<path class="st0" d="M293.4,454c6.2,0,12.5,0,18.7,0c1.1,0,2.2,0,3.2,0.3c2.1,0.5,3.4,2.1,3.5,4.1c0.1,2.1-1.2,3.9-3.4,4.5
	c-0.6,0.2-1.3,0.2-2,0.2c-13.3-0.1-26.5-0.2-39.8-0.3c-0.7,0-1.4-0.1-2-0.2c-1.9-0.5-3.2-2-3.4-3.9c-0.1-2,0.9-3.6,2.7-4.4
	c1-0.5,2.1-0.4,3.2-0.4c6.4,0,12.9,0,19.3,0C293.4,453.9,293.4,454,293.4,454z"/>
<path class="st1" d="M232.4,40.8c36.5,0,72.6,0,108.9,0c-0.1,2.1-0.8,4-1.3,5.9c-1.4,5.4-2.9,10.7-4.4,16c-0.6,2.3-0.6,2.4-3.1,2.3
	c-14.6,0-29.2,0-43.9-0.1c-9.4,0-18.7-0.1-28.1,0c-7,0.1-14-0.6-21-0.5c-1.5,0-1.8-0.6-2-1.8c-1.2-5.5-2.5-11-3.8-16.5
	C233.3,44.6,232.9,42.9,232.4,40.8z"/>
<path class="st1" d="M446.7,200.4c-1.6,0-2.5,0-3.4,0c-9.3,0-18.5-0.1-27.8-0.1c-5.3,0-8.7-2.4-9.6-6.8c-0.2-0.9-0.2-1.7-0.2-2.6
	c-0.1-11.8-0.3-23.6-0.4-35.4c0-0.4-0.1-0.8,0.5-1.3C419.3,169.4,432.8,184.7,446.7,200.4z"/>
<path class="st1" d="M291,310.3c17,0.2,30.2,13.9,30.1,31.1c-0.1,15.4-12.5,30.8-31.4,30.8c-17.1,0-30.4-14-30.2-31.3
	C259.7,323.9,273.9,310.2,291,310.3z M285.9,344.3c-1.2-1.3-2.2-2.3-3.2-3.4c-1.6-1.6-3.1-3.3-4.7-4.8c-1.3-1.2-2.9-1.6-4.6-0.8
	c-1.6,0.7-2.5,1.8-2.7,3.5c-0.2,1.6,0.4,2.9,1.4,4c3.2,3.4,6.4,6.8,9.7,10.1c2.2,2.2,4.2,2.3,6.9,0.6c0.3-0.2,0.6-0.4,0.9-0.7
	c6.6-5,13.2-10,19.8-15c0.5-0.4,1.1-0.8,1.5-1.4c1.5-1.7,1.6-3.9,0.4-5.6c-1.3-1.8-3.6-2.4-5.7-1.3c-0.9,0.4-1.6,1.1-2.4,1.6
	C297.5,335.6,291.8,339.9,285.9,344.3z"/>
<path class="st2" d="M407.2,446.8c0-34.8,23.8-64.4,57.3-72.1c34-7.8,68.1,9.3,82,41.3c11.7,26.8,5.3,59.3-16.2,80
	c-15.9,15.4-35.2,22.6-57.2,20.9c-35.1-2.7-60.4-29.1-65-60.1C407.5,453.3,407.3,449.7,407.2,446.8z M480.8,381.9
	c-35.4-0.1-64.5,28.7-64.6,63.9c-0.1,34.4,27.6,62.2,62.3,62.4c35.5,0.1,64.8-28.8,64.8-64.1C543.3,409.7,515.4,381.9,480.8,381.9z"
	/>
<path class="st0" d="M285.9,344.3c5.9-4.5,11.6-8.8,17.3-13.1c0.8-0.6,1.6-1.2,2.4-1.6c2.1-1.1,4.4-0.5,5.7,1.3
	c1.2,1.7,1.1,4-0.4,5.6c-0.4,0.5-1,0.9-1.5,1.4c-6.6,5-13.2,10-19.8,15c-0.3,0.2-0.6,0.5-0.9,0.7c-2.6,1.7-4.7,1.6-6.9-0.6
	c-3.3-3.3-6.5-6.7-9.7-10.1c-1.1-1.1-1.6-2.4-1.4-4c0.2-1.7,1.2-2.8,2.7-3.5c1.7-0.7,3.3-0.4,4.6,0.8c1.7,1.5,3.2,3.2,4.7,4.8
	C283.7,342,284.7,343.1,285.9,344.3z"/>
<path class="st2" d="M466.8,445.6c1.1-1.3,1.9-2.4,2.9-3.4c11.4-11.6,23-23.1,34.7-34.3c2.8-2.7,5.7-5,10-4.4c2.3,0.3,4.3,1.1,6,2.8
	c3.2,3.4,6.5,6.7,9.7,10.1c1.3,1.4,2.3,2.9,3.1,4.6c2.2,4.7,1.9,9.3-1.4,13.4c-0.7,0.9-1.5,1.8-2.3,2.6
	c-14.3,14.2-28.6,28.2-42.8,42.5c-3.7,3.7-7.7,7.1-11.6,10.7c-1.7,1.5-3.6,2.6-5.6,3.6c-3.2,1.5-6.2,1.3-9.2-0.6
	c-2.7-1.8-5.1-3.9-7.4-6.2c-7.7-7.9-15.3-15.8-23-23.8c-2.1-2.2-3.8-4.7-5.4-7.3c-2.3-3.7-1.8-7.3,0.7-10.3
	c3.9-4.9,8.2-9.4,13.2-13.3c1.5-1.2,3.4-2,5.2-2.6c2.8-0.9,5.4-0.2,7.7,1.4c2,1.4,3.7,3.1,5.5,4.8C460,439,463.1,442.1,466.8,445.6z
	 M460,452.3c-0.3-0.7-0.3-0.9-0.4-1.1c-3.9-3.8-7.7-7.7-11.7-11.4c-1.8-1.7-3.3-1.7-5.5-0.1c-3.7,2.6-6.9,5.7-9.7,9.3
	c-1.3,1.7-1.3,2.5-0.1,4.2c1.6,2.3,3.3,4.6,5.3,6.6c7.1,7.1,14.2,14.2,21.3,21.4c0.6,0.6,1.3,1.2,1.9,1.8c1.9,1.6,4,1.8,6.3,1.1
	c1.3-0.4,2.5-1.1,3.6-1.9c2.3-1.7,4.3-3.7,6.3-5.7c15.4-16.2,31.6-31.6,47.4-47.3c1.8-1.8,2.1-3.5,0.6-5.4c-3.2-4-6.9-7.5-10.5-11
	c-1.1-1-2.2-1-3.4-0.1c-1.3,1-2.5,2.1-3.7,3.3c-5.8,6.1-11.5,12.2-17.5,18c-4.9,4.8-9.7,9.6-14.4,14.6c-4.1,4.3-8.3,8.5-12.6,12.7
	c-2.1,2-4.8,2-6.6,0.3c-1.8-1.7-1.7-4.4,0.2-6.6C457.8,453.9,459.1,453.1,460,452.3z"/>
<path class="st3" d="M156.2,155.3L169,168c3,3,7.9,3,11,0l12.8-12.8c3-3,3-7.9,0-11l-12.8-12.8c-3-3-7.9-3-11,0l-12.8,12.8
	C153.2,147.4,153.2,152.3,156.2,155.3z"/>
<path class="st3" d="M156.2,192.5l12.8,12.8c3,3,7.9,3,11,0l12.8-12.8c3-3,3-7.9,0-11l-12.8-12.8c-3-3-7.9-3-11,0l-12.8,12.8
	C153.2,184.5,153.2,189.4,156.2,192.5z"/>
<path class="st2" d="M405.6,515.8l10,10c1.5,1.5,3.8,1.5,5.3,0l10-10c1.5-1.5,1.5-3.8,0-5.3l-10-10c-1.5-1.5-3.8-1.5-5.3,0l-10,10
	C404.1,512,404.1,514.3,405.6,515.8z"/>
<path class="st2" d="M477.1,474.7l10,10c1.5,1.5,3.8,1.5,5.3,0l10-10c1.5-1.5,1.5-3.8,0-5.3l-10-10c-1.5-1.5-3.8-1.5-5.3,0l-10,10
	C475.6,470.9,475.6,473.3,477.1,474.7z"/>
<circle class="st4" cx="478.9" cy="445" r="92"/>
</svg>
