<?xml version="1.0" encoding="utf-8"?>
<!-- Generator: Adobe Illustrator 28.0.0, SVG Export Plug-In . SVG Version: 6.00 Build 0)  -->
<svg version="1.1" id="Capa_1" xmlns="http://www.w3.org/2000/svg" xmlns:xlink="http://www.w3.org/1999/xlink" x="0px" y="0px"
	 viewBox="0 0 600 600" style="enable-background:new 0 0 600 600;" xml:space="preserve">
<style type="text/css">
	.st0{fill:#090909;}
	.st1{fill:#FDFDFD;}
	.st2{fill:#DBB300;}
	.st3{fill:#6EE1EB;}
	.st4{fill:none;stroke:#DBB300;stroke-width:11;stroke-miterlimit:10;}
</style>
<path class="st0" d="M351,310.5c3.1,0,6.2,0,9.4,0c4.6,0,6.2,1.6,6.3,6.1c0.2,11.4,0.4,22.8,0.6,34.2c0,2.6,0,2.6,2.5,2.6
	c8,0,16-0.1,24-0.1c11.3,0,21.2,3.7,29.3,11.8c1.3,1.3,2.1,0.7,3.2,0c9.9-6.3,20.4-10.9,31.9-13.5c10-2.3,20.2-3.1,30.5-2.1
	c3.5,0.3,7,0.4,10.4,1.2c39.3,9.7,65.4,33.2,74.4,73.1c7.1,31.4-1.5,59.6-22.7,83.6c-16.2,18.3-36.8,29-61.1,31.9
	c-31.7,3.8-59.2-5.6-81.7-28.4c-12.2-12.3-20-27.2-23.9-44.2c0-0.1,0-0.2-0.1-0.3c-0.7-2.9-0.7-2.9-3.5-2.9c-33-0.4-66-0.7-98.9-1
	c-19.3-0.2-38.6-0.4-58-0.6c-3,0-5.4-0.9-6.7-3.7c-0.6-1.3-1.5-1-2.4-1c-11.5-0.2-23-0.4-34.5-0.5c-38.2-0.5-76.5-1-114.7-1.5
	c-0.7,0-1.4,0-2-0.1c-2.6-0.4-4.1-2.2-4.1-4.8c0.8-44.2,0.6-88.4,0.9-132.6c0.4-92.4,0.9-184.8,1.3-277.2c0-2.7,0.5-5.2,1.7-7.6
	c0.9-1.8,2.3-2.9,4.3-3c1.4-0.1,2.7,0,4.1,0c47,0.4,94.1,0.8,141.1,1.3c31.2,0.3,62.4,0.6,93.7,0.9c0.5,0,1,0,1.5,0
	c4.2,0.1,5.8,1.8,5.8,6c0.2,14,0.3,27.9,0.4,41.9c0.1,6,0.1,12.1,0.2,18.1c0,2.5,0,2.6,2.6,2.6c5.4,0.1,10.6,1.1,15.8,2.7
	c10.3,3,17.4,9.7,22.7,18.6c5.7,9.5,8.3,19.9,9.3,30.8c1.2,12.6-0.9,24.7-4.3,36.6c-2.5,8.8-5.3,17.5-7.8,26.3
	c-3.5,12.4-6,25-8.4,37.7c-1.4,7.7-2.9,15.3-4.3,23c-0.4,2.5-0.8,5-0.8,7.6c-0.3,8.1-0.2,16.2,0.1,24.3c0.1,2.8,0.2,2.6,2.7,2.5
	c3.2,0,6.4,0,9.7,0C351,310.7,351,310.6,351,310.5z M191.3,376.9c-0.9-0.3-2-0.1-3-0.1c-31.1,0.1-62.2,0.2-93.4,0.3
	c-1.3,0-2.5,0.1-3.8-0.2c-2.3-0.6-3.8-2.5-3.6-4.7c0.1-2.2,1.8-4,4.1-4.3c1.1-0.1,2.1-0.1,3.2-0.1c32.9,0,65.8-0.1,98.6-0.1
	c1.8,0,3-0.4,4.2-1.9c2.3-3.2,5.3-5.7,8.6-7.9c3.8-2.6,8-3.9,12.6-3.9c11.7,0.1,23.4-0.1,35.1-0.1c2.5,0,2.5,0,2.6-2.4
	c0.2-11.4,0.3-22.8,0.5-34.2c0-2.1,0.5-3.9,2.4-5c1.2-0.7,2.4-0.7,3.7-0.7c6.9-0.1,13.9-0.1,20.8-0.2c2.5,0,2.6-0.1,2.5-2.6
	c-0.4-7.7-0.6-15.4-1.2-23.1c-1-12.6-2.1-25.3-4.7-37.7c-2.1-9.5-3.9-19.1-7.2-28.3c-5-13.9-9.3-27.9-13.1-42.1
	c-2.9-10.7-4.6-21.3-3.1-32.4c0.7-5.7,1.6-11.4,4-16.7c5.1-11.5,14.2-18.9,25.6-23.6c5.1-2.1,10.6-3.2,16.2-3.8
	c1.6-0.2,1.9-0.8,1.8-2.2c-0.1-6.5-0.1-13.1-0.1-19.6c-0.1-11.7-0.3-23.4-0.4-35.1c0-3.4,0.1-2.9-3.1-2.9c-0.2,0-0.4,0-0.6,0
	c-16.2-0.1-32.4-0.3-48.6-0.4c-59.4-0.5-118.8-1-178.2-1.5c-0.7,0-1.4,0-2,0c-0.7,0-1.1,0.3-1.1,1c0,0.6,0,1.2,0,1.8
	c-0.3,62-0.5,123.9-0.8,185.9c-0.3,71.7-0.7,143.4-1,215.1c0,3.6-0.3,3.1,3.1,3.1c0.3,0,0.6,0,0.9,0c26,0.4,51.9,0.7,77.9,1.1
	c21.2,0.3,42.3,0.5,63.5,0.8c0.8,0,1.6,0.2,2.4-0.3c0-0.3,0.1-0.7,0.1-1.1c0-7.8,0.1-15.6,0.1-23.4c0-2.1,0-2.1-2.1-2.1
	c-5.9,0-11.7,0-17.6,0c-3.3,0-4.7-1.2-5.5-4.5c-0.7-2.6-0.3-5.2-0.3-7.9c0-3.5,0.5-3-3.1-3.1c-31.4-0.2-62.8-0.3-94.3-0.4
	c-1.1,0-2.2,0.1-3.2-0.1c-2.2-0.3-3.7-2-3.9-4.1c-0.2-2.3,1.1-4.1,3.4-4.8c1.2-0.4,2.5-0.3,3.8-0.3c31.2,0.1,62.4,0.3,93.7,0.4
	c0.7,0,1.4-0.1,2,0c1.5,0.2,1.8-0.5,1.8-1.9C191.3,388.7,191.3,382.9,191.3,376.9z M312.9,311.1c0-0.1,0-0.1,0-0.2
	c4.1,0,8.2,0,12.3,0c1.6,0,3.7,0.7,4.8-0.3c1.2-1.2,0.2-3.3,0.1-5c-0.3-8.1-1.3-16.1-0.5-24.2c0.6-6.3,1.9-12.5,3.1-18.7
	c2.6-14.2,5.4-28.3,8.7-42.4c2.3-10,6.1-19.5,8.6-29.4c2-7.8,4.6-15.5,5.1-23.7c0.9-13.9-0.8-27.2-7.6-39.6
	c-5.1-9.2-12.7-14.9-23.1-16.7c-10.4-1.8-20.9-1.7-31,1.5c-13.3,4.1-22.9,12.2-26,26.6c-1.8,8.7-2.8,17.5-0.8,26.1
	c3.3,14.1,6.8,28.2,11.9,41.9c7.1,19.1,11.6,38.8,14.1,59c1.7,14.1,2.5,28.4,3,42.6c0.1,3-0.4,2.7,2.9,2.7
	C303.3,311.1,308.1,311.1,312.9,311.1z M416.8,372c-2.3-2.7-4.6-4.4-8-6.1c-5.7-2.9-11.8-3.3-17.9-3.3
	c-57.1,0.2-114.1,0.4-171.2,0.5c-3.8,0-6.8,1.2-9.7,3.3c-2,1.5-3.7,3.2-5.2,5.1c-1.4,1.8-2.7,3.8-3.5,6c-0.6,1.6-0.9,3.4-0.1,4.8
	c0.6,1,2.3,0.4,3.6,0.4c53.8,0.1,107.7,0.2,161.5,0.3c1.3,0,2.6,0,3.8,0.2c2.4,0.5,3.8,2.3,3.8,4.5c0,2.3-1.7,4.1-4.2,4.5
	c-1,0.1-1.9,0.1-2.9,0.1c-37.3-0.1-74.5-0.2-111.8-0.3c-17.3,0-34.5-0.1-51.8-0.1c-2.6,0-2.6,0-2.6,2.5c-0.1,4.6-0.1,9.2-0.2,13.8
	c0,3.6,0,3.6,3.5,3.6c40.4,0.1,80.8,0.1,121.1,0.2c20.2,0,40.4,0.1,60.6,0.1c2.7,0,2.4,0.4,3.5-2.4c1.9-4.9,4.4-9.5,7.2-14
	C401.8,386.7,408.6,378.9,416.8,372z M566.8,443.2c-0.2-4.7-0.5-9.2-1.3-13.8c-6.5-38.5-37.7-67.2-76.9-70.9
	c-18.3-1.8-35.7,1.9-51.9,10.8c-31.2,17.1-48.7,50.7-45.7,84c2,22.5,11.4,41.3,28.3,56.3c26.6,23.6,65.4,28.7,97.5,12.3
	C548.9,505.6,565.1,478.9,566.8,443.2z M385,421.6c-1.4-0.5-2.5-0.3-3.6-0.3c-50.7-0.1-101.4-0.1-152.1-0.1c-0.7,0-1.4,0.1-2,0
	c-1.3-0.1-1.6,0.5-1.6,1.7c0,9.5,0,18.9-0.1,28.4c0,1.1,0.3,1.6,1.5,1.6c2.2,0,4.5,0,6.7,0c48.3,0.5,96.5,1,144.8,1.6
	c1,0,2.1,0.3,3.4-0.3C381.4,443.2,382,432.3,385,421.6z M266.2,353.8c0.8,0,1.8,0,2.8,0c12.3,0,24.6-0.1,36.8-0.1
	c16.5,0,32.9-0.1,49.4-0.1c2.8,0,2.8,0.4,2.8-2.9c-0.2-9.5-0.3-18.9-0.5-28.4c0-2.5,0.3-2.5-2.6-2.5c-0.8,0-1.6,0-2.3,0
	c-19.4,0.2-38.8,0.4-58.2,0.6c-8.4,0.1-16.8,0.1-25.1,0.3c-3.3,0-3.1-0.3-3.1,3C266.2,333.5,266.2,343.5,266.2,353.8z"/>
<path class="st1" d="M191.3,376.9c0,6,0,11.8,0,17.7c0,1.3-0.4,2-1.8,1.9c-0.7-0.1-1.4,0-2,0c-31.2-0.1-62.4-0.3-93.7-0.4
	c-1.3,0-2.5-0.1-3.8,0.3c-2.3,0.7-3.6,2.5-3.4,4.8c0.2,2.1,1.7,3.8,3.9,4.1c1.1,0.2,2.1,0.1,3.2,0.1c31.4,0.1,62.8,0.3,94.3,0.4
	c3.6,0,3.1-0.4,3.1,3.1c0,2.6-0.4,5.3,0.3,7.9c0.9,3.3,2.2,4.4,5.5,4.5c5.9,0.1,11.7,0,17.6,0c2,0,2.1,0,2.1,2.1
	c0,7.8,0,15.6-0.1,23.4c0,0.4-0.1,0.7-0.1,1.1c-0.8,0.5-1.6,0.3-2.4,0.3c-21.2-0.2-42.3-0.5-63.5-0.8c-26-0.3-51.9-0.7-77.9-1.1
	c-0.3,0-0.6,0-0.9,0c-3.4-0.1-3.1,0.4-3.1-3.1c0.3-71.7,0.7-143.4,1-215.1c0.3-62,0.5-123.9,0.8-185.9c0-0.6,0-1.2,0-1.8
	c0-0.7,0.4-1,1.1-1c0.7,0,1.4,0,2,0c59.4,0.5,118.8,1,178.2,1.5c16.2,0.1,32.4,0.3,48.6,0.4c0.2,0,0.4,0,0.6,0
	c3.2,0.1,3-0.4,3.1,2.9c0.1,11.7,0.3,23.4,0.4,35.1c0.1,6.5,0,13.1,0.1,19.6c0,1.4-0.3,2-1.8,2.2c-5.5,0.6-11,1.6-16.2,3.8
	c-11.4,4.7-20.4,12.1-25.6,23.6c-2.4,5.3-3.2,11-4,16.7c-1.4,11,0.2,21.7,3.1,32.4c3.8,14.2,8.1,28.3,13.1,42.1
	c3.3,9.2,5.1,18.8,7.2,28.3c2.7,12.4,3.8,25.1,4.7,37.7c0.6,7.7,0.8,15.4,1.2,23.1c0.1,2.5,0,2.6-2.5,2.6
	c-6.9,0.1-13.9,0.1-20.8,0.2c-1.3,0-2.5,0-3.7,0.7c-1.9,1.1-2.4,2.9-2.4,5c-0.1,11.4-0.3,22.8-0.5,34.2c0,2.4,0,2.4-2.6,2.4
	c-11.7,0-23.4,0.2-35.1,0.1c-4.7,0-8.8,1.3-12.6,3.9c-3.3,2.2-6.2,4.8-8.6,7.9c-1.1,1.5-2.4,1.9-4.2,1.9c-32.9,0-65.8,0.1-98.6,0.1
	c-1.1,0-2.2-0.1-3.2,0.1c-2.3,0.3-4,2.1-4.1,4.3c-0.1,2.1,1.4,4,3.6,4.7c1.2,0.3,2.5,0.2,3.8,0.2c31.1-0.1,62.2-0.2,93.4-0.3
	C189.4,376.8,190.5,376.6,191.3,376.9z M185.6,93.7C185.6,93.7,185.6,93.8,185.6,93.7c31,0.1,62,0.1,93,0.1c1,0,2,0.1,2.9-0.1
	c2.3-0.3,3.9-1.8,4.3-4.1c0.2-1.1,0.2-2.3,0.3-3.5c0.1-5.7,0.2-11.3,0.3-17c0.1-3,0.2-6,0.2-9.1c0-3.2-1.2-4.6-4.2-5.5
	c-1.7-0.6-3.5-0.5-5.2-0.5c-59.8,0.2-119.6,0.4-179.4,0.6c-2,0-3.9,0-5.9,0c-5.9,0-7.3,1.4-7.3,7.2c0,5.9,0.1,11.9,0.1,17.8
	c0,2.8,0,5.7,0.1,8.5c0.1,3.5,2.3,5.5,5.8,5.5c1.3,0,2.5-0.1,3.8-0.1C124.9,93.7,155.2,93.7,185.6,93.7z M154.7,349.9
	c34.4,0.1,62.4-27.5,62.6-61.7c0.1-34.9-28.4-63.7-63.2-63.8c-34.8-0.1-62.8,27.5-62.8,62C91.2,321.3,119.7,349.8,154.7,349.9z
	 M161.8,197.9C161.8,197.9,161.8,197.9,161.8,197.9c-23.5,0.1-47,0.1-70.5,0.1c-1.1,0-2.2-0.1-3.2,0.1c-2.3,0.3-4,2.1-4.1,4.3
	c-0.1,2.1,1.4,4.1,3.7,4.6c1,0.2,2.1,0.2,3.2,0.2c47.3,0,94.6-0.1,141.9-0.2c1,0,2,0,2.9-0.2c2.3-0.4,3.8-2.3,3.8-4.5
	c-0.1-2.2-1.7-4-4-4.4c-1.1-0.1-2.1-0.1-3.2-0.1C208.8,197.9,185.3,197.9,161.8,197.9z M159.6,149.8c0,0,0,0.1,0,0.1
	c23.6,0,47.2,0,70.8,0c1.3,0,2.5,0.1,3.8-0.3c2.1-0.7,3.3-2.3,3.2-4.4c0-2-1.3-3.7-3.3-4.3c-0.8-0.2-1.7-0.3-2.6-0.3
	c-2.9,0-5.9,0-8.8,0c-45-0.1-89.9-0.1-134.9-0.2c-3.1,0-5.2,1.9-5.3,4.6c-0.1,2.9,2.2,4.9,5.4,4.9c1.6,0,3.1-0.1,4.7-0.1
	C115,149.8,137.3,149.8,159.6,149.8z M160.8,178.7c0-0.1,0-0.2,0-0.3c23.4,0,46.8,0,70.2,0c1.2,0,2.4,0,3.5-0.2
	c2.2-0.4,3.5-2.3,3.5-4.4c0-2.1-1.5-3.9-3.6-4.3c-0.8-0.1-1.6-0.1-2.3-0.1c-47.2,0.1-94.4,0.2-141.6,0.2c-1,0-1.9,0-2.9,0.3
	c-2.2,0.7-3.4,2.4-3.3,4.6c0.1,2.1,1.6,3.9,3.8,4.2c1,0.2,2.1,0.1,3.2,0.1C114.4,178.7,137.6,178.7,160.8,178.7z M160.1,121.3
	c0-0.1,0-0.2,0-0.3c23.1,0,46.2,0,69.3,0c1.2,0,2.4,0,3.5-0.2c2.2-0.4,3.6-2.2,3.6-4.3c0-2.1-1.4-4-3.5-4.4
	c-0.8-0.2-1.7-0.2-2.6-0.2c-46.8,0-93.6,0.1-140.4,0.1c-0.5,0-1,0-1.5,0c-2.9,0.3-4.7,2-4.8,4.6c0,2.5,1.8,4.4,4.7,4.7
	c0.9,0.1,1.8,0,2.6,0C114.1,121.3,137.1,121.3,160.1,121.3z M127.5,434.5C127.5,434.5,127.5,434.5,127.5,434.5c11.7,0,23.4,0,35.1,0
	c1.1,0,2.1,0.1,3.2-0.2c2-0.6,3.4-2.3,3.4-4.3c0.1-2-1.2-3.7-3.2-4.4c-0.9-0.3-1.9-0.4-2.9-0.4c-23.8,0-47.6,0-71.4,0
	c-1,0-1.9,0-2.9,0.4c-1.9,0.7-3.1,2.3-3.2,4.2c-0.1,1.9,1.3,3.7,3.2,4.4c1.1,0.4,2.3,0.3,3.5,0.3
	C104.1,434.5,115.8,434.5,127.5,434.5z"/>
<path class="st1" d="M312.9,311.1c-4.8,0-9.6,0-14.3,0c-3.3,0-2.8,0.3-2.9-2.7c-0.5-14.2-1.2-28.5-3-42.6c-2.5-20.2-7-39.9-14.1-59
	c-5.1-13.6-8.6-27.7-11.9-41.9c-2-8.7-1.1-17.5,0.8-26.1c3-14.3,12.7-22.4,26-26.6c10.1-3.1,20.5-3.2,31-1.5
	c10.4,1.8,18,7.4,23.1,16.7c6.9,12.4,8.5,25.8,7.6,39.6c-0.5,8.1-3.2,15.8-5.1,23.7c-2.5,9.9-6.3,19.5-8.6,29.4
	c-3.3,14-6.1,28.2-8.7,42.4c-1.1,6.2-2.4,12.4-3.1,18.7c-0.8,8.1,0.2,16.2,0.5,24.2c0.1,1.7,1.1,3.8-0.1,5c-1.1,1-3.2,0.3-4.8,0.3
	c-4.1,0.1-8.2,0-12.3,0C312.9,311,312.9,311,312.9,311.1z M311.5,179.4c1.5,0,3.6-0.2,5.8-0.7c11.2-2.5,19.6-11.7,21.1-23.1
	c1.3-10.5-4.5-21.3-14.5-26.2c-9.3-4.6-18.5-4.3-27.6,1.1c-9.2,5.4-14.6,16.5-12.5,26.9C286.4,170.4,297.4,179.4,311.5,179.4z"/>
<path class="st1" d="M416.8,372c-8.2,6.9-15,14.7-20.6,23.6c-2.8,4.5-5.3,9.1-7.2,14c-1.1,2.8-0.8,2.4-3.5,2.4
	c-20.2,0-40.4-0.1-60.6-0.1c-40.4-0.1-80.8-0.1-121.1-0.2c-3.5,0-3.5,0-3.5-3.6c0.1-4.6,0.1-9.2,0.2-13.8c0-2.5,0.1-2.5,2.6-2.5
	c17.3,0,34.5,0.1,51.8,0.1c37.3,0.1,74.5,0.2,111.8,0.3c1,0,2,0.1,2.9-0.1c2.5-0.3,4.2-2.1,4.2-4.5c0-2.3-1.4-4-3.8-4.5
	c-1.2-0.2-2.5-0.2-3.8-0.2c-53.8-0.1-107.7-0.2-161.5-0.3c-1.2,0-3,0.6-3.6-0.4c-0.8-1.4-0.5-3.2,0.1-4.8c0.9-2.2,2.1-4.2,3.5-6
	c1.5-1.9,3.3-3.6,5.2-5.1c2.9-2.2,5.9-3.3,9.7-3.3c57.1-0.1,114.1-0.3,171.2-0.5c6.1,0,12.3,0.4,17.9,3.3
	C412.2,367.6,414.5,369.3,416.8,372z"/>
<path class="st1" d="M385,421.6c-3,10.8-3.6,21.6-3.1,32.5c-1.2,0.6-2.3,0.3-3.4,0.3c-48.3-0.5-96.5-1-144.8-1.6
	c-2.2,0-4.5-0.1-6.7,0c-1.2,0-1.5-0.5-1.5-1.6c0.1-9.5,0.1-18.9,0.1-28.4c0-1.2,0.3-1.9,1.6-1.7c0.7,0.1,1.4,0,2,0
	c50.7,0,101.4,0.1,152.1,0.1C382.5,421.2,383.6,421.1,385,421.6z"/>
<path class="st1" d="M266.2,353.8c0-10.3,0-20.2,0-30.2c0-3.2-0.3-2.9,3.1-3c8.4-0.1,16.8-0.2,25.1-0.3c19.4-0.2,38.8-0.4,58.2-0.6
	c0.8,0,1.6,0,2.3,0c2.9,0,2.5,0,2.6,2.5c0.2,9.5,0.3,18.9,0.5,28.4c0.1,3.3,0,2.9-2.8,2.9c-16.5,0-32.9,0.1-49.4,0.1
	c-12.3,0-24.6,0.1-36.8,0.1C268,353.8,267,353.8,266.2,353.8z"/>
<path class="st0" d="M185.6,93.7c-30.3,0-60.7,0-91,0c-1.3,0-2.5,0.1-3.8,0.1c-3.5,0-5.7-2-5.8-5.5c-0.1-2.8,0-5.7-0.1-8.5
	c0-5.9-0.1-11.9-0.1-17.8c0-5.8,1.4-7.2,7.3-7.2c2,0,3.9,0,5.9,0c59.8-0.2,119.6-0.4,179.4-0.6c1.8,0,3.5-0.1,5.2,0.5
	c3,1,4.2,2.4,4.2,5.5c0,3-0.2,6-0.2,9.1c-0.1,5.7-0.2,11.3-0.3,17c0,1.2-0.1,2.3-0.3,3.5c-0.4,2.3-2,3.8-4.3,4.1
	c-1,0.1-1.9,0.1-2.9,0.1C247.6,93.8,216.6,93.8,185.6,93.7C185.6,93.8,185.6,93.7,185.6,93.7z M277,63.4c-1.1,0-2.3,0-3.5,0
	C217,63.6,160.4,63.8,103.8,64c-2.6,0-5.3,0.1-7.9,0c-1.6-0.1-2,0.5-2,2c0.1,5,0.1,9.9,0.1,14.9c0,3.5,0,3.5,3.6,3.6
	c58.6,0,117.2,0.1,175.8,0.1c0.7,0,1.4,0,2,0c0.9,0,1.5-0.2,1.4-1.3C277,76.7,277,70.2,277,63.4z"/>
<path class="st0" d="M154.7,349.9c-35.1-0.1-63.6-28.6-63.5-63.5c0.1-34.6,28-62.2,62.8-62c34.8,0.1,63.4,28.9,63.2,63.8
	C217.2,322.4,189.1,350.1,154.7,349.9z M208,288c0.2-29.3-23.8-54.1-54-54.3c-29.7-0.2-53.4,23.2-53.6,52.7
	c-0.1,29.8,24.5,54.3,54.4,54.4C184.3,340.8,208,317.3,208,288z"/>
<path class="st0" d="M161.8,197.9c23.5,0,47,0,70.5,0c1.1,0,2.2,0,3.2,0.1c2.3,0.3,3.9,2.1,4,4.4c0.1,2.2-1.5,4.1-3.8,4.5
	c-1,0.2-1.9,0.2-2.9,0.2c-47.3,0.1-94.6,0.1-141.9,0.2c-1.1,0-2.2,0-3.2-0.2c-2.3-0.5-3.8-2.4-3.7-4.6c0.1-2.2,1.8-4,4.1-4.3
	c1.1-0.1,2.1-0.1,3.2-0.1C114.8,197.9,138.3,197.9,161.8,197.9C161.8,197.9,161.8,197.9,161.8,197.9z"/>
<path class="st0" d="M159.6,149.8c-22.3,0-44.7,0-67,0c-1.6,0-3.1,0.1-4.7,0.1c-3.2,0.1-5.4-2-5.4-4.9c0.1-2.8,2.2-4.6,5.3-4.6
	c45,0.1,89.9,0.1,134.9,0.2c2.9,0,5.9,0,8.8,0c0.9,0,1.8,0,2.6,0.3c2.1,0.6,3.3,2.3,3.3,4.3c0,2.1-1.2,3.6-3.2,4.4
	c-1.2,0.4-2.5,0.3-3.8,0.3c-23.6,0-47.2,0-70.8,0C159.6,149.9,159.6,149.8,159.6,149.8z"/>
<path class="st0" d="M160.8,178.7c-23.2,0-46.4,0-69.7,0c-1.1,0-2.2,0.1-3.2-0.1c-2.2-0.4-3.7-2.1-3.8-4.2c-0.1-2.2,1.1-3.9,3.3-4.6
	c0.9-0.3,1.9-0.3,2.9-0.3c47.2-0.1,94.4-0.2,141.6-0.2c0.8,0,1.6,0,2.3,0.1c2.1,0.4,3.6,2.2,3.6,4.3c0,2.2-1.3,4-3.5,4.4
	c-1.1,0.2-2.3,0.2-3.5,0.2c-23.4,0-46.8,0-70.2,0C160.8,178.5,160.8,178.6,160.8,178.7z"/>
<path class="st0" d="M160.1,121.3c-23,0-46,0-69.1,0c-0.9,0-1.8,0-2.6,0c-2.9-0.3-4.7-2.1-4.7-4.7c0-2.5,1.9-4.3,4.8-4.6
	c0.5,0,1,0,1.5,0c46.8-0.1,93.6-0.1,140.4-0.1c0.9,0,1.8,0,2.6,0.2c2.1,0.5,3.5,2.3,3.5,4.4c0,2.1-1.4,3.9-3.6,4.3
	c-1.1,0.2-2.3,0.2-3.5,0.2c-23.1,0-46.2,0-69.3,0C160.1,121.1,160.1,121.2,160.1,121.3z"/>
<path class="st0" d="M127.5,434.5c-11.7,0-23.4,0-35.1,0c-1.2,0-2.3,0.1-3.5-0.3c-2-0.7-3.3-2.5-3.2-4.4c0.1-1.9,1.3-3.5,3.2-4.2
	c0.9-0.3,1.9-0.4,2.9-0.4c23.8,0,47.6,0,71.4,0c1,0,1.9,0,2.9,0.4c2,0.7,3.3,2.4,3.2,4.4c-0.1,2-1.4,3.7-3.4,4.3
	c-1.1,0.3-2.1,0.2-3.2,0.2C150.9,434.5,139.2,434.5,127.5,434.5C127.5,434.5,127.5,434.5,127.5,434.5z"/>
<path class="st0" d="M311.5,179.4c-14.1,0-25.2-9-27.7-22.1c-2-10.4,3.4-21.4,12.5-26.9c9.1-5.4,18.3-5.7,27.6-1.1
	c10,4.9,15.8,15.8,14.5,26.2c-1.5,11.4-9.8,20.6-21.1,23.1C315.2,179.2,313.1,179.4,311.5,179.4z M329.2,152.7
	c0-1.2-0.1-2.5-0.4-3.9c-2.8-10.8-14.8-16.4-25.7-11.6c-11.5,5-14,19.5-5.2,27.9c3.4,3.2,7.5,4.9,12.1,5.1
	C320.3,170.8,329.2,162.8,329.2,152.7z"/>
<path class="st2" d="M407.2,447c0-34.8,23.8-64.6,57.1-72.2c34.2-7.9,68.3,9.2,82.3,41.2c11.7,26.8,5.2,59.3-16.2,80
	c-15.9,15.4-35.2,22.6-57.2,20.9c-35.1-2.8-60.4-29.1-65-60.1C407.5,453.2,407.3,449.6,407.2,447z M480.8,381.9
	c-35.4,0-64.5,28.8-64.5,64c-0.1,34.5,27.7,62.2,62.3,62.3c35.5,0.1,64.7-28.9,64.7-64.2C543.3,409.7,515.4,381.9,480.8,381.9z"/>
<path class="st1" d="M277,63.4c0,6.8,0,13.4,0,19.9c0,1.1-0.5,1.3-1.4,1.3c-0.7,0-1.4,0-2,0c-58.6,0-117.2-0.1-175.8-0.1
	c-3.5,0-3.5,0-3.6-3.6c0-5,0-9.9-0.1-14.9c0-1.5,0.4-2.1,2-2c2.6,0.1,5.3,0,7.9,0c56.6-0.2,113.1-0.4,169.7-0.6
	C274.7,63.4,275.8,63.4,277,63.4z"/>
<path class="st1" d="M208,288c-0.1,29.3-23.7,52.8-53.2,52.8c-29.9,0-54.5-24.6-54.4-54.4c0.1-29.4,23.9-52.8,53.6-52.7
	C184.3,233.9,208.3,258.7,208,288z M146.9,305.7c1.6,0,2.8-0.8,3.9-1.8c6.7-6,13.2-12.1,19.5-18.5c3.4-3.4,7-6.5,9.9-10.4
	c1.6-2.1,1.4-4.6-0.4-6c-1.7-1.3-4-1.1-5.8,0.7c-3.9,4.1-8.2,7.8-12.3,11.6c-4.3,4-8.6,7.9-12.9,11.9c-1.9,1.8-1.6,1.6-3.4-0.1
	c-2.8-2.7-5.7-5.3-8.5-8c-0.7-0.7-1.4-1.4-2.3-1.8c-3-1.5-6.5,0.4-6.7,3.6c-0.1,1.7,0.7,3,1.9,4.1c4.6,4.4,9.2,8.7,13.8,13.1
	C144.5,305.1,145.6,305.6,146.9,305.7z"/>
<path class="st1" d="M329.2,152.7c0,10.2-8.9,18.1-19.2,17.5c-4.7-0.3-8.7-1.9-12.1-5.1c-8.7-8.4-6.3-22.9,5.2-27.9
	c10.9-4.8,22.9,0.8,25.7,11.6C329.1,150.1,329.2,151.5,329.2,152.7z"/>
<path class="st0" d="M146.9,305.7c-1.3-0.1-2.4-0.6-3.3-1.5c-4.6-4.4-9.2-8.7-13.8-13.1c-1.2-1.1-2-2.4-1.9-4.1
	c0.2-3.3,3.7-5.2,6.7-3.6c0.9,0.5,1.5,1.2,2.3,1.8c2.8,2.7,5.7,5.4,8.5,8c1.8,1.7,1.5,1.9,3.4,0.1c4.3-4,8.6-7.9,12.9-11.9
	c4.1-3.8,8.5-7.5,12.3-11.6c1.8-1.9,4.1-2.1,5.8-0.7c1.8,1.4,2,3.9,0.4,6c-2.9,3.8-6.5,7-9.9,10.4c-6.3,6.4-12.8,12.5-19.5,18.5
	C149.7,304.9,148.5,305.7,146.9,305.7z"/>
<path class="st2" d="M497.2,443.3c0,9.3-7.6,16.8-17,16.9c-9.5,0.1-17.6-8-17.5-17.5c0.1-9.3,7.9-16.8,17.2-16.7
	C489.5,426.1,497.2,433.8,497.2,443.3z M480,451c4.6,0.1,8.1-3.3,8.1-7.7c0-4.5-3.7-8.1-8.2-8.1c-4.4,0-7.9,3.3-7.9,7.6
	C471.8,447.3,475.4,450.9,480,451z"/>
<path class="st2" d="M458.6,443.8c0,9.4-7.8,17.1-17.2,17c-9.5-0.1-17.4-8-17.3-17.4c0.1-9.2,7.8-16.8,17.1-16.8
	C450.7,426.6,458.5,434.3,458.6,443.8z M441.5,451.6c4.4,0,7.9-3.4,7.9-7.7c0-4.5-3.6-8.2-8.2-8.2c-4.5-0.1-8.1,3.4-8,7.8
	C433.3,448,436.9,451.6,441.5,451.6z"/>
<path class="st2" d="M517.6,426c9.5,0.1,17.5,8,17.4,17.3c-0.1,9.3-7.8,16.9-17.1,16.8c-9.5,0-17.3-7.8-17.3-17.4
	C500.6,433.5,508.3,425.9,517.6,426z M517.8,451c4.5,0.1,8-3.2,8.1-7.5c0.1-4.5-3.4-8.3-8-8.4c-4.5-0.1-8.2,3.3-8.3,7.7
	C509.5,447.2,513.2,450.9,517.8,451z"/>
<path class="st3" d="M46.6,171.8l12.3,12.3c2.9,2.9,7.7,2.9,10.6,0l12.3-12.3c2.9-2.9,2.9-7.7,0-10.6l-12.3-12.3
	c-2.9-2.9-7.7-2.9-10.6,0l-12.3,12.3C43.6,164.1,43.6,168.8,46.6,171.8z"/>
<path class="st3" d="M46.6,207.7L58.9,220c2.9,2.9,7.7,2.9,10.6,0l12.3-12.3c2.9-2.9,2.9-7.7,0-10.6l-12.3-12.3
	c-2.9-2.9-7.7-2.9-10.6,0l-12.3,12.3C43.6,200,43.6,204.8,46.6,207.7z"/>
<path class="st2" d="M406.2,520.2l9.7,9.7c1.4,1.4,3.7,1.4,5.1,0l9.7-9.7c1.4-1.4,1.4-3.7,0-5.1l-9.7-9.7c-1.4-1.4-3.7-1.4-5.1,0
	l-9.7,9.7C404.8,516.5,404.8,518.8,406.2,520.2z"/>
<circle class="st4" cx="479" cy="445" r="91.5"/>
</svg>
