<?xml version="1.0" encoding="utf-8"?>
<!-- Generator: Adobe Illustrator 28.0.0, SVG Export Plug-In . SVG Version: 6.00 Build 0)  -->
<svg version="1.1" id="Capa_1" xmlns="http://www.w3.org/2000/svg" xmlns:xlink="http://www.w3.org/1999/xlink" x="0px" y="0px"
	 viewBox="0 0 600 600" style="enable-background:new 0 0 600 600;" xml:space="preserve">
<style type="text/css">
	.st0{fill:#090909;}
	.st1{fill:#FDFDFD;}
	.st2{fill:#29E4A5;}
	.st3{fill:#6EE1EB;}
	.st4{fill:none;stroke:#29E4A5;stroke-width:11;stroke-miterlimit:10;}
</style>
<path class="st0" d="M463.8,119.1c1.7-0.5,3.2-1.1,4.8-1.5c11.8-3.1,21.7,5.5,20.5,17.6c-0.5,4.6-2.1,8.6-4.7,12.4
	c-3.7,5.6-8,10.8-12.1,16.2c-2.3,3.1-4.7,6.3-7.1,9.3c-1.2,1.5-1.6,3-1.6,4.8c0.2,26.1,0.4,52.3,0.6,78.4
	c0.2,21.3,0.3,42.5,0.5,63.8c0,1.7,0.5,2.9,1.6,4.2c6.9,7.8,13.8,15.7,20.6,23.6c0.9,1,1.7,1.8,3.1,1.8c8.6,0.2,16.7,2.8,24.6,5.8
	c25.1,9.7,43.6,26.7,53.6,51.7c14,35.1,8.5,67.8-15,97.2c-15.7,19.6-36.6,31.2-61.4,34.7c-32.2,4.6-60.3-4.5-83.4-27.5
	c-15.2-15.2-23.8-33.8-26.2-55.2c-1.7-15.5,0.3-30.5,6-45c0.5-1.2,1.1-2.3,1.2-3.6c-1.2-0.4-2.4-0.2-3.5-0.2
	c-96.6,0-193.2,0-289.8,0c-6.6,0-13.1-0.4-19.5-1.9c-8.4-1.9-16.2-9.7-15.1-20.1c0.3-3,1.6-5.6,3.6-7.8
	c15.1-17.1,30.2-34.3,45.3-51.4c1.2-1.4,2.2-2.6,1.5-4.6c-0.3-0.8-0.1-1.7-0.1-2.6c-0.1-69.8-0.2-139.5-0.3-209.3
	c0-1.3-0.1-2.5,0.3-3.8c0.5-2,1.7-3,3.7-3.1c2-0.1,4.1,0,6.1,0c110.6-0.1,221.3-0.3,331.9-0.4c0.4,0,0.8,0,1.2,0
	c4.8-0.3,6.9,0.8,8.2,7.4c0.5,2.5,0.4,5,0.6,7.6C463.6,118.1,463.7,118.5,463.8,119.1z M454.8,187.5c-1.1,0.4-1.3,0.9-1.7,1.4
	c-19.1,24.8-38.1,49.7-57.2,74.5c-1.9,2.4-4,4.5-6.7,6c-7.4,4.1-14.8,8.3-22.2,12.4c-0.8,0.5-1.7,1-2.6,1.4c-2.3,1-4.1,0.5-5.8-1.2
	c-1.9-1.9-2-4.1-1.4-6.5c2.2-9.6,4.5-19.2,6.6-28.8c0.5-2.2,1.4-4,2.8-5.7c22.2-28.7,44.4-57.4,66.6-86.1c7-9,14.1-17.9,20.8-27.2
	c0.5-0.7,1.2-1.3,1.1-2.3c-0.4-4-0.7-8-1-12c-0.1-1.4-0.6-1.9-2-1.8c-0.5,0.1-1,0-1.5,0c-108.8,0.1-217.6,0.2-326.3,0.3
	c-3.8,0-3.8,0-3.8,3.7c0,67.2,0.1,134.4,0.1,201.7c0,4.2-0.7,4,3.8,4c109.3,0,218.5-0.1,327.8-0.1c0.7,0,1.4,0,2,0
	c0.8,0,1.3-0.3,1.3-1.2c0-0.6,0-1.2,0-1.8c-0.3-42.5-0.6-85.1-0.9-127.6C454.8,189.7,454.8,188.8,454.8,187.5z M410.9,377.3
	c-1.8,0-2.9,0-4,0c-99,0-198.1-0.1-297.1-0.1c-1,0-2,0-2.9,0c-2.7-0.2-4.6-2-4.6-4.4c0-2.4,1.8-4.3,4.5-4.5c1.1-0.1,2.1,0,3.2,0
	c89.5,0,178.9,0.1,268.4,0.1c13.1,0,26.1-0.1,39.2,0.1c2.7,0,4.8-0.7,6.9-2.2c14.4-9.6,30.1-15.4,47.4-16.8c1.3-0.1,2.5-0.3,4.2-0.5
	c-5-5.7-9.7-10.9-14.2-16.3c-1.5-1.8-3.1-2.5-5.5-2.5c-110.3,0.1-220.5,0.1-330.8,0.1c-2.2,0-4.7-0.7-6.6,0.3c-1.8,1-3,3-4.4,4.6
	c-13.2,15-26.4,30-39.6,45c-1.5,1.7-2.9,3.4-3.8,5.5c-1.4,3.5-0.6,6.3,2.4,8.5c1.9,1.4,4.1,2.2,6.4,2.8c5.1,1.2,10.2,1.4,15.4,1.4
	c97.5,0,194.9,0,292.4,0c1.8,0,3.5-0.2,5.2,0.3c0.6,0.1,1.1,0.2,1.5-0.4c1.4-2.3,2.8-4.6,4.3-7.1c-1.6,0-2.8,0-4,0
	c-100.3,0-200.6,0-300.9,0c-1.2,0-2.4,0.1-3.5-0.1c-2.5-0.3-4.1-2.2-4-4.6c0.1-2.2,1.7-3.9,4.1-4.2c1.1-0.1,2.1-0.1,3.2-0.1
	c103,0,206.1,0,309.1,0c0.7,0,1.4,0,2,0c0.6,0,1.1,0,1.6-0.5C407.9,380.5,409.1,379.2,410.9,377.3z M566.8,443.4
	c-0.2-5.8-0.7-11.6-1.9-17.2c-8.5-40.7-44.5-68.7-86.3-68c-14.8,0.2-28.7,4-41.7,11.1c-31.5,17.2-48.8,50.8-45.9,83.9
	c2,22.8,11.6,41.9,28.8,56.9c26.5,23.1,65,28.1,96.8,12C548.8,505.7,565,479,566.8,443.4z M468.2,154.5c-2.4-1.9-4.5-3.6-6.6-5.3
	c-2.2-1.8-4.4-3.5-6.6-5.3c-0.7-0.6-1.3-0.7-1.9,0.2c-0.3,0.4-0.6,0.8-0.9,1.1c-25.3,32.7-50.6,65.4-75.9,98.1
	c-0.6,0.7-1.4,1.4-1.6,2.6c4.8,3.7,9.6,7.5,14.6,11.4C415.6,223.1,441.8,188.9,468.2,154.5z M480.2,134.7c0.1-6.9-3.8-9.8-9.6-8.3
	c-4.8,1.3-7.9,4.7-10.5,8.7c-0.4,0.7-0.4,1.2,0.3,1.7c3.9,3.1,7.8,6.1,11.7,9.2c0.6,0.5,1.2,0.6,1.8,0
	C477.6,142.7,479.9,138.7,480.2,134.7z M367.6,271.2c5-2.8,9.6-5.4,14.4-8.1c-3.7-2.9-7-5.5-10.7-8.4
	C370.1,260.4,368.9,265.5,367.6,271.2z"/>
<path class="st1" d="M454.8,187.5c0,1.2,0,2.2,0,3.1c0.3,42.5,0.6,85.1,0.9,127.6c0,0.6,0,1.2,0,1.8c0,0.9-0.4,1.2-1.3,1.2
	c-0.7,0-1.4,0-2,0c-109.3,0-218.5,0.1-327.8,0.1c-4.5,0-3.8,0.2-3.8-4c0-67.2-0.1-134.4-0.1-201.7c0-3.6,0-3.6,3.8-3.7
	c108.8-0.1,217.6-0.2,326.3-0.3c0.5,0,1,0,1.5,0c1.4-0.2,1.9,0.4,2,1.8c0.3,4,0.6,8,1,12c0.1,1-0.6,1.6-1.1,2.3
	c-6.7,9.2-13.8,18.1-20.8,27.2c-22.2,28.7-44.4,57.4-66.6,86.1c-1.3,1.7-2.3,3.6-2.8,5.7c-2.1,9.6-4.4,19.2-6.6,28.8
	c-0.6,2.4-0.5,4.6,1.4,6.5c1.8,1.8,3.5,2.2,5.8,1.2c0.9-0.4,1.7-0.9,2.6-1.4c7.4-4.2,14.7-8.4,22.2-12.4c2.7-1.5,4.8-3.5,6.7-6
	c19.1-24.8,38.1-49.7,57.2-74.5C453.5,188.5,453.8,187.9,454.8,187.5z M318.5,288.2c0.7-3,2.3-5.4,3.8-7.7c2-3.1,4-6.3,5.3-9.7
	c0.6-1.6,1.1-3.1,1-4.8c-0.2-3.7-3.1-6.1-6.7-5.5c-1.8,0.3-3.6,1-5.2,1.8c-4.1,2-8.1,4.2-11.9,6.9c-4.1,2.9-8.4,5.7-12.7,8.3
	c-0.4,0.3-0.9,0.5-1.3,0.1c-0.4-0.5,0.1-0.8,0.4-1.2c3.4-5.2,7.1-10,10.8-14.9c2.6-3.5,5.2-7.1,7.1-11.1c1.1-2.2,2.1-4.4,2.2-6.9
	c0.3-5.1-3.5-8.3-8.5-7c-2.6,0.7-4.9,1.9-7.1,3.4c-3.3,2.3-6.4,4.8-9.1,7.7c-8.3,8.7-15.7,18.1-22.4,28.1c-2.7,4-5.3,8.2-8.5,11.9
	c-0.4,0.4-0.7,0.9-1,1.4c-0.8,1.6-0.5,3.4,0.7,4.6c1.3,1.3,3.2,1.5,4.8,0.5c0.6-0.4,1.2-1,1.7-1.5c2.2-2.3,4.1-4.7,5.9-7.2
	c4.8-6.5,9.6-13.1,14.6-19.4c4.1-5.1,8.2-10.2,13.1-14.5c1.2-1.1,2.5-2.1,3.7-3.1c0.1,0.1,0.3,0.3,0.4,0.4c-0.7,1.1-1.3,2.2-2.1,3.3
	c-3.3,4.6-6.7,9.1-10,13.7c-2.2,3-4.3,6.1-5.9,9.4c-1.1,2.2-2,4.4-2.2,6.9c-0.4,5,3.5,8.4,8.4,7.2c1.1-0.3,2.2-0.7,3.3-1.2
	c3.7-1.6,7.1-3.7,10.4-5.9c3.9-2.6,7.7-5.2,11.7-7.8c0.9-0.6,1.7-1.4,3.2-1.3c-2.3,3.5-4.4,6.8-5.9,10.4c-0.8,2.1-1.5,4.2-1.5,6.5
	c0.1,3,1.5,5.2,4.1,6.6c2,1.1,4.1,1.3,6.3,0.9c2.6-0.5,5.1-1.2,7.5-2.2c4.4-1.9,8.7-3.8,13.1-5.7c0.4-0.2,0.9-0.4,1.3-0.6
	c2-1.2,2.8-3.2,2.3-5.2c-0.6-2-2.4-3.2-4.7-3.1c-0.9,0-1.7,0.3-2.5,0.7c-4.4,2-8.9,3.9-13.4,5.9
	C321.7,287.6,320.3,288.3,318.5,288.2z M272.7,164C272.7,164,272.7,164,272.7,164c19.3,0,38.6,0,57.9,0c1.3,0,2.5,0.1,3.8-0.3
	c2.1-0.7,3.2-2.3,3.2-4.4c-0.1-2.1-1.4-3.7-3.5-4.1c-1.1-0.2-2.3-0.3-3.5-0.3c-38.6,0-77.2,0.1-115.8,0.1c-1,0-2,0-2.9,0.1
	c-2.3,0.3-3.8,1.9-3.9,4.1c-0.1,2.1,1.2,3.9,3.4,4.5c1.1,0.3,2.3,0.2,3.5,0.2C234.1,164,253.4,164,272.7,164z M260.1,176.3
	C260.1,176.3,260.1,176.3,260.1,176.3c19.3,0,38.6,0,57.9,0c1.3,0,2.5,0.1,3.8-0.3c2-0.7,3.3-2.4,3.2-4.4c-0.1-2-1.5-3.6-3.5-4.1
	c-1.2-0.3-2.5-0.2-3.8-0.2c-38.5,0-77,0.1-115.5,0.1c-1,0-2,0-2.9,0.1c-2.2,0.3-3.8,2-3.9,4.1c-0.1,2,1.3,3.9,3.4,4.5
	c1.1,0.3,2.3,0.2,3.5,0.2C221.5,176.3,240.8,176.3,260.1,176.3z M277.4,202.7C277.4,202.6,277.4,202.6,277.4,202.7
	c19.4,0,38.8,0,58.2,0c1.3,0,2.5,0.1,3.7-0.4c1.9-0.8,3-2.3,2.9-4.3c-0.1-1.9-1.3-3.5-3.2-4c-1.2-0.4-2.5-0.3-3.8-0.3
	c-38.6,0-77.2,0.1-115.8,0.1c-0.9,0-1.8,0-2.6,0.1c-2.5,0.3-4,1.9-4.1,4.1c-0.1,2.3,1.5,4.2,4,4.6c1,0.2,1.9,0.1,2.9,0.1
	C238.8,202.7,258.1,202.7,277.4,202.7z M264.8,215C264.8,214.9,264.8,214.9,264.8,215c19.3,0,38.6,0,57.9,0c1.3,0,2.5,0.1,3.8-0.3
	c2-0.7,3.3-2.4,3.2-4.4c-0.1-2-1.5-3.6-3.6-4.1c-1.2-0.3-2.5-0.2-3.8-0.2c-38.5,0-77,0.1-115.5,0.1c-0.9,0-1.8,0-2.6,0.1
	c-2.4,0.3-4.1,1.9-4.2,4.1c-0.1,2.2,1.5,4.3,4,4.7c1,0.2,1.9,0.1,2.9,0.1C226.2,215,245.5,215,264.8,215z M269.4,189.4
	C269.4,189.4,269.4,189.4,269.4,189.4c19.1-0.1,38.2-0.1,57.3-0.1c1.1,0,2.2,0,3.2-0.1c2.4-0.3,4-2,4-4.2c0.1-2.2-1.4-4.1-3.8-4.5
	c-0.9-0.2-1.7-0.1-2.6-0.1c-10.2,0-20.5,0-30.7,0c-28.6,0-57.1,0-85.7,0c-1.3,0-2.5-0.1-3.8,0.3c-2,0.7-3.2,2.4-3.1,4.5
	c0.1,2,1.5,3.7,3.6,4c1.1,0.2,2.3,0.2,3.5,0.2C230.8,189.4,250.1,189.4,269.4,189.4z M274.2,228.1C274.2,228,274.2,228,274.2,228.1
	c19.2-0.1,38.4-0.1,57.6-0.1c1.2,0,2.4,0,3.5-0.2c1.9-0.4,3.3-2,3.4-3.9c0.2-2-0.8-3.6-2.7-4.4c-1-0.5-2.1-0.4-3.2-0.4
	c-39.3,0-78.6,0-117.8,0c-1,0-1.9,0-2.9,0.3c-2,0.8-3.2,2.4-3,4.5c0.1,2,1.6,3.6,3.7,4c1.1,0.2,2.3,0.2,3.5,0.2
	C235.6,228.1,254.9,228.1,274.2,228.1z"/>
<path class="st1" d="M410.9,377.3c-1.7,1.8-3,3.1-4.2,4.5c-0.5,0.5-1,0.5-1.6,0.5c-0.7,0-1.4,0-2,0c-103,0-206.1,0-309.1,0
	c-1.1,0-2.2,0-3.2,0.1c-2.4,0.3-4,1.9-4.1,4.2c-0.1,2.4,1.5,4.3,4,4.6c1.2,0.1,2.3,0.1,3.5,0.1c100.3,0,200.6,0,300.9,0
	c1.2,0,2.3,0,4,0c-1.5,2.5-2.9,4.8-4.3,7.1c-0.4,0.7-1,0.5-1.5,0.4c-1.7-0.4-3.5-0.3-5.2-0.3c-97.5,0-194.9,0-292.4,0
	c-5.2,0-10.3-0.3-15.4-1.4c-2.3-0.5-4.5-1.4-6.4-2.8c-3-2.2-3.8-5-2.4-8.5c0.9-2.1,2.3-3.8,3.8-5.5c13.2-15,26.4-30,39.6-45
	c1.4-1.6,2.6-3.7,4.4-4.6c1.9-1,4.4-0.3,6.6-0.3c110.3,0,220.5,0,330.8-0.1c2.4,0,3.9,0.6,5.5,2.5c4.5,5.4,9.2,10.6,14.2,16.3
	c-1.6,0.2-2.9,0.4-4.2,0.5c-17.3,1.4-33,7.2-47.4,16.8c-2.2,1.5-4.2,2.2-6.9,2.2c-13.1-0.2-26.1-0.1-39.2-0.1
	c-89.5,0-178.9-0.1-268.4-0.1c-1.1,0-2.2,0-3.2,0c-2.7,0.2-4.5,2.1-4.5,4.5c0,2.4,1.9,4.2,4.6,4.4c1,0.1,2,0,2.9,0
	c99,0,198.1,0.1,297.1,0.1C407.9,377.3,409.1,377.3,410.9,377.3z"/>
<path class="st1" d="M468.2,154.5c-26.4,34.4-52.6,68.6-78.9,102.9c-5-3.9-9.8-7.7-14.6-11.4c0.1-1.2,1-1.8,1.6-2.6
	c25.3-32.7,50.6-65.4,75.9-98.1c0.3-0.4,0.6-0.7,0.9-1.1c0.6-0.9,1.2-0.8,1.9-0.2c2.2,1.8,4.4,3.5,6.6,5.3
	C463.7,150.9,465.9,152.6,468.2,154.5z"/>
<path class="st1" d="M480.2,134.7c-0.3,4.1-2.6,8.1-6.3,11.4c-0.6,0.6-1.2,0.5-1.8,0c-3.9-3.1-7.8-6.2-11.7-9.2
	c-0.7-0.5-0.7-1-0.3-1.7c2.5-4.1,5.6-7.4,10.5-8.7C476.4,124.8,480.3,127.8,480.2,134.7z"/>
<path class="st1" d="M367.6,271.2c1.3-5.7,2.5-10.9,3.8-16.5c3.6,2.9,7,5.5,10.7,8.4C377.2,265.8,372.6,268.4,367.6,271.2z"/>
<path class="st0" d="M318.5,288.2c1.8,0.1,3.2-0.5,4.6-1.1c4.5-1.9,8.9-3.9,13.4-5.9c0.8-0.4,1.6-0.7,2.5-0.7
	c2.3-0.1,4.2,1.1,4.7,3.1c0.6,2-0.3,4-2.3,5.2c-0.4,0.2-0.9,0.4-1.3,0.6c-4.4,1.9-8.7,3.8-13.1,5.7c-2.4,1.1-5,1.8-7.5,2.2
	c-2.2,0.4-4.3,0.2-6.3-0.9c-2.6-1.4-4-3.6-4.1-6.6c0-2.3,0.6-4.4,1.5-6.5c1.4-3.6,3.6-6.9,5.9-10.4c-1.5-0.1-2.4,0.7-3.2,1.3
	c-3.9,2.6-7.8,5.2-11.7,7.8c-3.3,2.2-6.8,4.2-10.4,5.9c-1.1,0.5-2.2,0.9-3.3,1.2c-4.9,1.2-8.8-2.2-8.4-7.2c0.2-2.5,1.2-4.7,2.2-6.9
	c1.6-3.3,3.7-6.4,5.9-9.4c3.3-4.6,6.7-9.1,10-13.7c0.8-1,1.4-2.2,2.1-3.3c-0.1-0.1-0.3-0.3-0.4-0.4c-1.2,1-2.5,2-3.7,3.1
	c-4.9,4.3-9,9.4-13.1,14.5c-5.1,6.3-9.9,12.8-14.6,19.4c-1.8,2.5-3.8,5-5.9,7.2c-0.5,0.6-1.1,1.1-1.7,1.5c-1.6,1-3.5,0.8-4.8-0.5
	c-1.2-1.2-1.5-3-0.7-4.6c0.3-0.5,0.6-1,1-1.4c3.2-3.7,5.8-7.8,8.5-11.9c6.7-10,14.1-19.4,22.4-28.1c2.8-2.9,5.9-5.4,9.1-7.7
	c2.2-1.5,4.5-2.8,7.1-3.4c5-1.3,8.8,1.9,8.5,7c-0.2,2.5-1.1,4.7-2.2,6.9c-2,3.9-4.5,7.5-7.1,11.1c-3.7,4.9-7.4,9.8-10.8,14.9
	c-0.3,0.4-0.8,0.7-0.4,1.2c0.4,0.4,0.9,0.2,1.3-0.1c4.4-2.6,8.6-5.4,12.7-8.3c3.8-2.7,7.8-4.9,11.9-6.9c1.7-0.8,3.4-1.5,5.2-1.8
	c3.6-0.6,6.6,1.9,6.7,5.5c0.1,1.7-0.4,3.3-1,4.8c-1.4,3.5-3.3,6.6-5.3,9.7C320.8,282.8,319.2,285.2,318.5,288.2z"/>
<path class="st0" d="M272.7,164c-19.3,0-38.6,0-57.9,0c-1.2,0-2.3,0.1-3.5-0.2c-2.2-0.7-3.5-2.4-3.4-4.5c0.1-2.1,1.6-3.7,3.9-4.1
	c1-0.1,1.9-0.1,2.9-0.1c38.6,0,77.2-0.1,115.8-0.1c1.2,0,2.4,0,3.5,0.3c2.1,0.4,3.4,2,3.5,4.1c0.1,2.1-1.1,3.6-3.2,4.4
	c-1.2,0.4-2.5,0.3-3.8,0.3C311.3,164,292,164,272.7,164C272.7,164,272.7,164,272.7,164z"/>
<path class="st0" d="M260.1,176.3c-19.3,0-38.6,0-57.9,0c-1.2,0-2.3,0.1-3.5-0.2c-2.1-0.6-3.5-2.5-3.4-4.5c0.1-2.1,1.7-3.7,3.9-4.1
	c1-0.1,1.9-0.1,2.9-0.1c38.5,0,77-0.1,115.5-0.1c1.3,0,2.5-0.1,3.8,0.2c2.1,0.5,3.5,2.1,3.5,4.1c0.1,2-1.2,3.6-3.2,4.4
	c-1.2,0.4-2.5,0.3-3.8,0.3C298.7,176.3,279.4,176.3,260.1,176.3C260.1,176.3,260.1,176.3,260.1,176.3z"/>
<path class="st0" d="M277.4,202.7c-19.3,0-38.6,0-57.9,0c-1,0-2,0.1-2.9-0.1c-2.5-0.4-4.1-2.3-4-4.6c0.1-2.2,1.7-3.8,4.1-4.1
	c0.9-0.1,1.8-0.1,2.6-0.1c38.6,0,77.2-0.1,115.8-0.1c1.3,0,2.5-0.1,3.8,0.3c1.9,0.6,3.2,2.1,3.2,4c0.1,2-1,3.5-2.9,4.3
	c-1.2,0.5-2.5,0.4-3.7,0.4C316.2,202.6,296.8,202.6,277.4,202.7C277.4,202.6,277.4,202.6,277.4,202.7z"/>
<path class="st0" d="M264.8,215c-19.3,0-38.6,0-57.9,0c-1,0-2,0.1-2.9-0.1c-2.5-0.4-4.1-2.4-4-4.7c0.1-2.2,1.8-3.8,4.2-4.1
	c0.9-0.1,1.8-0.1,2.6-0.1c38.5,0,77-0.1,115.5-0.1c1.3,0,2.5-0.1,3.8,0.2c2.1,0.5,3.5,2.1,3.6,4.1c0.1,2-1.2,3.7-3.2,4.4
	c-1.2,0.4-2.5,0.3-3.8,0.3C303.4,214.9,284.1,214.9,264.8,215C264.8,214.9,264.8,214.9,264.8,215z"/>
<path class="st0" d="M269.4,189.4c-19.3,0-38.6,0-57.9,0c-1.2,0-2.4,0-3.5-0.2c-2.1-0.3-3.5-2-3.6-4c-0.1-2.1,1-3.7,3.1-4.5
	c1.2-0.5,2.5-0.3,3.8-0.3c28.6,0,57.1,0,85.7,0c10.2,0,20.5,0,30.7,0c0.9,0,1.8,0,2.6,0.1c2.3,0.4,3.8,2.3,3.8,4.5
	c-0.1,2.2-1.7,3.9-4,4.2c-1.1,0.1-2.1,0.1-3.2,0.1C307.6,189.4,288.5,189.4,269.4,189.4C269.4,189.4,269.4,189.4,269.4,189.4z"/>
<path class="st0" d="M274.2,228.1c-19.3,0-38.6,0-57.9,0c-1.2,0-2.4,0-3.5-0.2c-2.1-0.3-3.5-2-3.7-4c-0.1-2.1,1-3.7,3-4.5
	c0.9-0.4,1.9-0.3,2.9-0.3c39.3,0,78.6,0,117.8,0c1.1,0,2.1,0,3.2,0.4c1.8,0.9,2.8,2.5,2.7,4.4c-0.2,1.9-1.5,3.5-3.4,3.9
	c-1.1,0.2-2.3,0.2-3.5,0.2C312.6,228,293.4,228,274.2,228.1C274.2,228,274.2,228,274.2,228.1z"/>
<path class="st2" d="M407.2,446.8c0-34.7,23.8-64.4,57.2-72c34.1-7.8,68.1,9.2,82.1,41.1c11.9,27,5.3,59.7-16.4,80.5
	c-15.9,15.2-34.9,22.2-56.8,20.6c-33.6-2.5-58.5-26.9-64.6-56.5C407.7,455.7,407.3,450.8,407.2,446.8z M416.2,445.7
	c-0.1,17.9,7.5,34.8,20.8,46.6c21.6,19.1,53.5,21.1,77.8,4.7c26-17.4,35.6-50.7,22.8-79c-11.6-25.6-39.7-40.2-68.1-35.2
	C438.9,388.3,416.4,414.8,416.2,445.7z"/>
<path class="st2" d="M467,445.2c0.9-1.1,1.9-2.4,3.1-3.6c11.3-11.5,22.7-22.8,34.3-33.9c2.7-2.6,5.6-4.9,9.8-4.4
	c2.4,0.3,4.5,1.1,6.2,2.9c3.2,3.3,6.4,6.6,9.5,9.9c1.4,1.4,2.5,3,3.3,4.8c2.2,4.7,1.8,9.3-1.5,13.4c-0.8,1-1.7,1.9-2.6,2.8
	c-14.2,14.1-28.4,28.1-42.6,42.3c-3.7,3.7-7.7,7.1-11.6,10.7c-1.7,1.5-3.6,2.6-5.7,3.6c-3.1,1.4-6,1.2-8.9-0.6
	c-2.8-1.7-5.1-3.9-7.4-6.2c-7.8-8-15.5-16-23.2-24c-2-2.1-3.7-4.5-5.2-7c-2.4-3.8-1.9-7.4,0.7-10.6c3.9-4.8,8.1-9.2,13-13.1
	c0.6-0.5,1.3-0.9,2-1.2c5.4-2.8,8.5-2.5,13,1.6c3.8,3.4,7.3,7,11,10.5C465,443.8,465.5,444.7,467,445.2z M460.4,451.9
	c-4.5-4.4-8.5-8.4-12.6-12.2c-1.7-1.6-3.2-1.6-5.3-0.1c-3.8,2.6-7,5.9-9.9,9.5c-1.1,1.3-1,2.7-0.1,4c1.7,2.4,3.4,4.7,5.5,6.8
	c7,7.1,14,14.1,21.1,21.2c0.6,0.6,1.3,1.2,1.9,1.8c2,1.7,4.2,1.9,6.6,1.1c2.5-0.8,4.5-2.4,6.3-4.1c2.5-2.4,4.7-4.9,7.1-7.3
	c14.4-14.7,29.1-29.1,43.8-43.5c1.6-1.6,2-3.4,0.6-5.2c-3.2-4-7-7.6-10.7-11.2c-1-0.9-2.1-0.9-3.2-0.1c-1.4,1-2.5,2.1-3.7,3.3
	c-5.8,6.1-11.7,12.3-17.7,18.3c-4.3,4.2-8.5,8.6-12.8,12.9c-4.7,4.8-9.4,9.6-14.2,14.3c-2,2-4.8,1.9-6.5,0.1
	c-1.6-1.7-1.6-4.3,0.2-6.3C457.7,454,459,453.2,460.4,451.9z"/>
<path class="st3" d="M99.9,186.6l11.5,11.5c2.7,2.7,7.1,2.7,9.9,0l11.5-11.5c2.7-2.7,2.7-7.1,0-9.9l-11.5-11.5
	c-2.7-2.7-7.1-2.7-9.9,0l-11.5,11.5C97.1,179.5,97.1,183.9,99.9,186.6z"/>
<path class="st3" d="M99.9,220.1l11.5,11.5c2.7,2.7,7.1,2.7,9.9,0l11.5-11.5c2.7-2.7,2.7-7.1,0-9.9l-11.5-11.5
	c-2.7-2.7-7.1-2.7-9.9,0l-11.5,11.5C97.1,212.9,97.1,217.3,99.9,220.1z"/>
<path class="st2" d="M402.1,514.7l9,9c1.3,1.3,3.5,1.3,4.8,0l9-9c1.3-1.3,1.3-3.5,0-4.8l-9-9c-1.3-1.3-3.5-1.3-4.8,0l-9,9
	C400.8,511.2,400.8,513.4,402.1,514.7z"/>
<path class="st2" d="M475.1,475.1l9,9c1.3,1.3,3.5,1.3,4.8,0l9-9c1.3-1.3,1.3-3.5,0-4.8l-9-9c-1.3-1.3-3.5-1.3-4.8,0l-9,9
	C473.8,471.7,473.8,473.8,475.1,475.1z"/>
<circle class="st4" cx="478.8" cy="444.8" r="91.5"/>
</svg>
