<?xml version="1.0" encoding="utf-8"?>
<!-- Generator: Adobe Illustrator 28.0.0, SVG Export Plug-In . SVG Version: 6.00 Build 0)  -->
<svg version="1.1" id="Capa_1" xmlns="http://www.w3.org/2000/svg" xmlns:xlink="http://www.w3.org/1999/xlink" x="0px" y="0px"
	 viewBox="0 0 600 600" style="enable-background:new 0 0 600 600;" xml:space="preserve">
<style type="text/css">
	.st0{fill:#0A0A0A;}
	.st1{fill:#FEFEFE;}
	.st2{fill:#6EE1EB;}
</style>
<path class="st0" d="M321.5,366.4c-0.4,1.3-0.1,2.7-0.1,4c-0.1,28-8.9,52.9-26.8,74.4c-18.9,22.7-43.1,36.7-72.3,41.3
	c-35.7,5.6-67.6-3.2-95-26.8c-21.2-18.3-33.4-41.8-37.2-69.6c-5.9-44.3,15.7-89.5,55.8-113.6c15.9-9.6,33-15.1,51.5-16.7
	c4.5-0.4,9-0.4,13.4-0.4c1,0,1.9,0.3,3-0.3c-0.8-3.9-1.7-7.8-2.2-11.7c-2.1-16.1-0.3-31.4,7.9-45.8c1.7-3,3.7-5.7,6-8.2
	c9.4-10.3,18.9-20.6,28.4-30.8c3.7-4,7.6-7.9,11.6-11.6c8.9-8.2,19.6-12.5,31.5-14.1c17.1-2.3,33.4,1.1,49.2,7.3
	c5.7,2.2,11.2,4.9,16.6,7.9c2.5,1.4,2,1.3,3.7-0.8c14.1-17.6,28.2-35.1,42.3-52.7c6.9-8.6,13.7-17.3,20.8-25.7
	c8.5-10.1,19-17.3,32.3-19.7c15.7-2.9,30,0.7,42.9,10c20.4,14.9,28.8,41.8,20.5,65.4c-3.5,9.9-9.3,18.1-17.6,24.6
	c-26,20.5-51.9,41-77.9,61.4c-2.5,2-2.2,1.5-0.8,4.2c6.8,12.7,11.9,26.1,14,40.4c2,13.8,1.3,27.4-4.4,40.5c-2.8,6.4-6.9,12-11.7,17
	c-10,10.4-19.9,20.9-30,31.3c-6.1,6.3-12.9,11.9-20.9,15.7c-11.3,5.3-23.3,6.8-35.6,6c-5.6-0.4-11.2-1.3-16.7-2.6
	C323,366.5,322.3,366.2,321.5,366.4z M203.3,478.9c5.1-0.2,10-0.4,15-1.2c22.2-3.3,41.9-12.1,58.4-27.3
	c22.4-20.4,34.4-45.9,35.6-76.3c0.1-3.3-0.3-6.6,0.1-9.9c0.2-1.2-0.8-1.2-1.5-1.4c-3.2-1.3-6.6-2.5-9.7-4
	c-39.1-18.9-67.4-48-83.5-88.7c-0.6-1.4-1.2-1.9-2.7-2c-18.1-1.2-35.5,1.9-52.1,9.2c-35.6,15.7-59.9,49.3-63.9,86.5
	c-2.1,19.9,0.7,39,9.9,56.8C128.7,458.8,161,477,203.3,478.9z M420.2,222c-0.9,0.7-1.7,1.3-2.6,2c-11.4,9-22.9,18-34.3,27
	c-3.4,2.7-7.2,4.6-11.7,5c-3.7,0.3-7.4,0.2-11-0.9c-16-4.6-27.1-14.9-33.9-30c-2.3-5.1-3.3-10.6-3-16.2c0.2-3.2,1.1-6,3.2-8.6
	c10.3-12.6,20.4-25.4,30.6-38.1c0.5-0.6,1.3-1.2,1.3-2.2c-0.4-0.2-0.7-0.5-1-0.6c-8.9-4.9-18.2-8.9-28.1-11.4
	c-12.3-3.2-24.8-4.4-37.3-1.4c-14.9,3.6-25.8,12.1-31.8,26.4c-3.7,8.9-4.7,18.3-4,27.8c1,12.9,4.6,25.1,10.1,36.7
	c12,25.2,29.8,45.6,52.4,61.7c13.4,9.6,28,16.9,44.1,20.8c11.9,2.9,23.9,3.9,35.9,0.9c17.4-4.4,28.7-15.1,33.5-32.4
	c2.5-9,2.7-18.1,1.4-27.3c-1.9-13.4-6.5-25.8-12.8-37.7C421.2,223,421.1,222.4,420.2,222z M471.9,60.9c-11.8,0-22.7,4.5-30.8,12.7
	c-3.3,3.3-6.4,6.8-9.3,10.4c-20.5,25.7-41.2,51.2-61.7,76.9c-11.6,14.4-23.1,29-34.8,43.3c-2.1,2.5-2.7,5.1-2.5,8
	c0.1,1.6,0.4,3.3,0.9,4.9c4.4,14.2,13.8,23.8,27.7,28.7c6.7,2.3,12.7,1.3,18.5-3.4c16.1-13.1,32.5-25.8,48.8-38.7
	c24.7-19.5,49.3-38.9,73.9-58.4c0.8-0.7,1.7-1.3,2.5-2.1c13.1-13.3,17.2-29.1,12.4-47.1C511.9,75.5,492.9,60.9,471.9,60.9z
	 M248.7,182.2c-0.2-0.1-0.4-0.2-0.6-0.3c-0.8,0.9-1.7,1.8-2.5,2.7c-5,5.5-10.4,10.6-14.9,16.5c-6.3,8.2-9.6,17.8-10.4,28.1
	c-1.2,16.5,2.6,32,9.5,46.8c13.8,29.5,35.2,52.2,63.2,68.6c15.8,9.2,32.6,15.2,51.1,16c17.5,0.7,32.5-4.9,44.9-17.5
	c3.6-3.7,7.2-7.5,10.7-11.2c0.4-0.4,1.2-0.7,0.8-1.7c-3.4,0.5-6.7,1.2-10.1,1.4c-15.3,1.1-29.9-1.9-44-7.4
	c-19.3-7.5-36.3-18.9-51.3-33.1c-17.9-17-32-36.7-40.7-60c-4-10.8-6.6-22-6.8-33.6C247.5,192.3,247.9,187.2,248.7,182.2z"/>
<path class="st0" d="M477.6,540.4c-27.2-0.6-50.3-9.7-69.1-28.7c-15.1-15.3-24.1-33.8-26.1-55.2c-3.3-35.2,9.4-64,36.8-86.2
	c15.2-12.3,33-19,52.5-20.8c5.8-0.5,11.5-0.5,17.2,0c3.4,0.3,6.8,0.4,10.1,1.2c39.3,9.7,64.7,33.4,74.6,73.1
	c6.2,33.3-2.5,62.3-25.8,86.6c-16.4,17.1-36.8,26.5-60.3,29.3C484.1,540.2,480.6,540.2,477.6,540.4z M566.8,443.4
	c-0.2-5.9-0.7-11.8-1.9-17.5c-8.6-40.6-44.5-68.4-86.2-67.8c-14.8,0.2-28.7,4-41.7,11.1c-31.5,17.2-48.8,50.8-45.9,83.9
	c2,22.7,11.5,41.7,28.6,56.7c26.5,23.3,65.1,28.4,97.1,12.2C548.7,505.8,565,479.1,566.8,443.4z"/>
<path class="st1" d="M203.3,478.9c-42.3-1.9-74.6-20-94.4-58.2c-9.2-17.8-12.1-36.9-9.9-56.8c3.9-37.2,28.3-70.7,63.9-86.5
	c16.6-7.3,34-10.4,52.1-9.2c1.5,0.1,2.2,0.6,2.7,2c16,40.6,44.4,69.8,83.5,88.7c3.1,1.5,6.5,2.7,9.7,4c0.7,0.3,1.6,0.2,1.5,1.4
	c-0.4,3.3,0,6.6-0.1,9.9c-1.2,30.4-13.2,55.8-35.6,76.3c-16.6,15.1-36.3,24-58.4,27.3C213.3,478.4,208.4,478.6,203.3,478.9z
	 M192,416.4c2.1,0.2,3.7-0.9,5.1-2.3c17.7-17.3,35.4-34.6,53.2-52c0.6-0.6,1.3-1.2,1.8-1.9c1.3-1.9,1.1-4.1-0.4-5.6
	c-1.5-1.6-3.7-1.8-5.6-0.6c-1,0.7-1.9,1.6-2.8,2.5c-16.3,15.9-32.5,31.8-48.8,47.6c-2.3,2.2-2.3,2.2-4.7-0.1
	c-7.4-7.1-14.7-14.3-22.1-21.4c-0.8-0.7-1.6-1.5-2.5-2.1c-1.8-1.1-4-0.8-5.4,0.6c-1.4,1.4-1.7,3.6-0.6,5.4c0.4,0.7,1.1,1.4,1.7,2
	c1.7,1.7,3.4,3.3,5,4.9c7,6.8,14,13.6,21,20.4C188.3,415.3,189.8,416.6,192,416.4z"/>
<path class="st1" d="M420.2,222c0.9,0.4,1,1,1.3,1.5c6.3,11.9,10.9,24.3,12.8,37.7c1.3,9.2,1.1,18.3-1.4,27.3
	c-4.9,17.3-16.2,28.1-33.5,32.4c-12,3-24,2-35.9-0.9c-16.1-3.9-30.7-11.2-44.1-20.8c-22.7-16.2-40.5-36.5-52.4-61.7
	c-5.5-11.6-9.1-23.8-10.1-36.7c-0.7-9.6,0.3-18.9,4-27.8c6-14.3,16.9-22.8,31.8-26.4c12.5-3,25-1.8,37.3,1.4
	c9.9,2.6,19.2,6.5,28.1,11.4c0.3,0.2,0.6,0.4,1,0.6c-0.1,1-0.8,1.5-1.3,2.2c-10.2,12.7-20.3,25.5-30.6,38.1c-2.1,2.6-3,5.4-3.2,8.6
	c-0.4,5.7,0.6,11.1,3,16.2c6.8,15,17.8,25.3,33.9,30c3.6,1,7.3,1.2,11,0.9c4.4-0.4,8.2-2.2,11.7-5c11.4-9,22.8-18,34.3-27
	C418.5,223.4,419.3,222.7,420.2,222z"/>
<path class="st1" d="M471.9,60.9c21,0,40,14.5,45.6,35.4c4.8,17.9,0.8,33.7-12.4,47.1c-0.7,0.8-1.6,1.4-2.5,2.1
	c-24.6,19.5-49.3,38.9-73.9,58.4c-16.3,12.9-32.7,25.6-48.8,38.7c-5.8,4.7-11.9,5.8-18.5,3.4c-14-4.9-23.3-14.5-27.7-28.7
	c-0.5-1.6-0.7-3.2-0.9-4.9c-0.3-3,0.4-5.5,2.5-8c11.7-14.3,23.2-28.9,34.8-43.3c20.6-25.6,41.2-51.2,61.7-76.9
	c2.9-3.7,6.1-7.1,9.3-10.4C449.2,65.4,460.1,60.9,471.9,60.9z"/>
<path class="st1" d="M248.7,182.2c-0.8,5-1.1,10.1-1.1,15.1c0.2,11.6,2.7,22.8,6.8,33.6c8.7,23.3,22.7,43,40.7,60
	c15,14.2,31.9,25.6,51.3,33.1c14.2,5.5,28.7,8.5,44,7.4c3.4-0.2,6.7-1,10.1-1.4c0.4,1-0.4,1.3-0.8,1.7c-3.6,3.8-7.1,7.5-10.7,11.2
	c-12.3,12.5-27.3,18.2-44.9,17.5c-18.5-0.8-35.3-6.7-51.1-16c-28-16.4-49.4-39.1-63.2-68.6c-6.9-14.8-10.7-30.3-9.5-46.8
	c0.8-10.4,4-19.9,10.4-28.1c4.5-5.8,9.9-11,14.9-16.5c0.8-0.9,1.7-1.8,2.5-2.7C248.3,182,248.5,182.1,248.7,182.2z"/>
<path class="st0" d="M192,416.4c-2.2,0.2-3.7-1.1-5.1-2.5c-7-6.8-14-13.6-21-20.4c-1.7-1.6-3.4-3.2-5-4.9c-0.6-0.6-1.2-1.3-1.7-2
	c-1.1-1.8-0.8-4,0.6-5.4c1.4-1.4,3.6-1.7,5.4-0.6c0.9,0.6,1.7,1.3,2.5,2.1c7.4,7.1,14.7,14.2,22.1,21.4c2.4,2.3,2.4,2.3,4.7,0.1
	c16.3-15.9,32.5-31.8,48.8-47.6c0.9-0.9,1.8-1.8,2.8-2.5c1.9-1.3,4.1-1,5.6,0.6c1.5,1.5,1.7,3.8,0.4,5.6c-0.5,0.7-1.1,1.3-1.8,1.9
	c-17.7,17.3-35.4,34.6-53.2,52C195.6,415.5,194.1,416.6,192,416.4z"/>
<path class="st0" d="M407.2,446.8c0-34.6,23.8-64.4,57.1-72c34.2-7.9,68.3,9.2,82.3,41.3c11.7,26.8,5.2,59.3-16.3,80
	c-15.9,15.4-35.2,22.6-57.3,20.8c-35.1-2.8-60.4-29.2-65-60.1C407.5,453.2,407.3,449.6,407.2,446.8z M416.2,449.3
	c0.3,15.1,7,30.7,20.8,43.1c21.5,19.3,53.6,21.1,78,4.7c26.7-18,35.9-53.1,21.3-81.5c-12.5-24.2-39.5-37.4-66.7-32.6
	C438.8,388.3,416.2,415,416.2,449.3z"/>
<path class="st0" d="M507,443.5c4.3,4.4,8.4,8.6,12.5,12.7c1.2,1.3,2.5,2.5,3.6,3.9c2.6,3.2,2.7,5.5,0.4,9.1c-0.6,0.9-1.3,1.7-2,2.5
	c-4.7,4.8-9.5,9.5-14.3,14.2c-3.5,3.4-5.8,3.6-9.9,1.1c-1.7-1-3.1-2.3-4.5-3.7c-3.7-3.7-7.3-7.3-11-10.9c-0.6-0.6-1.1-1.4-2.1-1.7
	c-2.1,2.1-4.2,4.2-6.3,6.4c-2.9,2.9-5.7,5.9-8.7,8.7c-4,3.8-7.6,3.8-11.6,0c-5.4-5.1-10.7-10.3-15.9-15.6c-2.6-2.6-2.8-5-1.1-8.2
	c1.1-2,2.4-3.7,4-5.4c3.8-3.9,7.6-7.8,11.4-11.8c1.5-1.6,1.5-1.6-0.1-3.2c-4.4-4.3-8.9-8.5-13.1-13c-4.4-4.6-4.4-8,0.1-12.6
	c4.8-5,9.7-9.9,14.6-14.8c3.2-3.2,5.6-3.4,9.4-1.2c1.8,1,3.4,2.3,4.8,3.8c3.8,3.7,7.5,7.4,11.3,11c1.6,1.6,1.6,1.6,3.1,0
	c4-4,7.9-8.1,11.9-12.1c1.5-1.5,3.1-3,4.8-4.2c2.1-1.4,4.2-1.4,6.4-0.4c1.4,0.7,2.7,1.6,3.8,2.7c4.8,4.8,9.7,9.6,14.5,14.4
	c3.3,3.3,3.5,5.6,1.1,9.6c-1.1,1.8-2.4,3.3-3.8,4.8C516,434.4,511.5,438.9,507,443.5z M514.9,421.2c0.1-0.9-0.5-1.5-1-2.1
	c-3.1-3.1-6.2-6.2-9.4-9.3c-1.8-1.8-2.8-1.8-4.8-0.1c-0.6,0.5-1.1,1.1-1.7,1.6c-4.2,4.3-8.4,8.7-12.7,12.9
	c-3.1,3.1-6.9,3.1-10.1,0.1c-4.3-4.1-8.5-8.3-12.8-12.4c-0.6-0.6-1.2-1.3-2-1.8c-1.4-1-2.4-1-3.7,0.3c-3.3,3.3-6.6,6.6-9.8,10
	c-1.2,1.3-1.2,2.2-0.2,3.7c0.5,0.7,1.1,1.3,1.8,1.9c4.1,4,8.2,8,12.3,12.1c0.6,0.6,1.3,1.2,1.8,1.9c1.7,2,1.7,4.1,0.1,6.1
	c-0.5,0.7-1.2,1.3-1.8,1.9c-4.6,4.7-9.1,9.4-13.7,14.1c-2.1,2.2-2.1,3.3,0.1,5.4c2.8,2.8,5.7,5.6,8.6,8.4c2.3,2.2,3.2,2.2,5.4,0.1
	c1.8-1.7,3.6-3.6,5.3-5.4c3-3.1,6-6.2,9-9.2c2.4-2.3,4.3-2.5,7-0.5c1.1,0.8,2.1,1.7,3.1,2.7c4.2,4.2,8.4,8.4,12.7,12.6
	c2.2,2.2,3.2,2.1,5.4,0c2.8-2.7,5.5-5.5,8.3-8.3c2.5-2.5,2.5-3.4,0-6.1c-2.9-3-5.9-5.9-8.9-8.9c-1.8-1.8-3.6-3.5-5.4-5.4
	c-2-2.1-2-3.8-0.6-6.4c1.1-1.9,2.4-3.5,3.9-5c4-4,7.9-8.1,11.9-12.1C514.1,423.3,514.9,422.4,514.9,421.2z"/>
<path class="st2" d="M76.6,358.3l12.4,12.4c2.9,2.9,7.7,2.9,10.6,0l12.4-12.4c2.9-2.9,2.9-7.7,0-10.6l-12.4-12.4
	c-2.9-2.9-7.7-2.9-10.6,0l-12.4,12.4C73.6,350.6,73.6,355.4,76.6,358.3z"/>
<path class="st2" d="M76.6,394.4l12.4,12.4c2.9,2.9,7.7,2.9,10.6,0l12.4-12.4c2.9-2.9,2.9-7.7,0-10.6l-12.4-12.4
	c-2.9-2.9-7.7-2.9-10.6,0l-12.4,12.4C73.6,386.7,73.6,391.5,76.6,394.4z"/>
<path class="st2" d="M408.9,521l9.7,9.7c1.4,1.4,3.7,1.4,5.1,0l9.7-9.7c1.4-1.4,1.4-3.7,0-5.2l-9.7-9.7c-1.4-1.4-3.7-1.4-5.1,0
	l-9.7,9.7C407.4,517.3,407.4,519.6,408.9,521z"/>
</svg>
