<?xml version="1.0" encoding="utf-8"?>
<!-- Generator: Adobe Illustrator 28.0.0, SVG Export Plug-In . SVG Version: 6.00 Build 0)  -->
<svg version="1.1" id="Capa_1" xmlns="http://www.w3.org/2000/svg" xmlns:xlink="http://www.w3.org/1999/xlink" x="0px" y="0px"
	 viewBox="0 0 600 600" style="enable-background:new 0 0 600 600;" xml:space="preserve">
<style type="text/css">
	.st0{fill:#090A0A;}
	.st1{fill:#FEFFFF;}
	.st2{fill:#FCFCFC;}
	.st3{fill:#FF5500;}
	.st4{fill:#6EE1EB;}
	.st5{fill:none;stroke:#FF5500;stroke-width:11;stroke-miterlimit:10;}
</style>
<path class="st0" d="M287.7,108.4c-1.2,0-2.3,0-3.5,0c-55,0.2-110.1,0.3-165.1,0.5c-4.9,0-8.4,2-11,5.9c-2.8,4.3-4.1,9-4.1,14.1
	c0,14.8-0.1,29.7-0.1,44.5c-0.1,78.1-0.1,156.1-0.3,234.2c0,9.9,4.5,16.2,13.3,20c4.2,1.9,8.7,2.8,13.3,2.8
	c59.1,0,118.3,0,177.4,0.1c4,0,7.2-1.4,9.8-4.3c2.7-3,4.8-6.4,6.3-10.1c0.7-1.7,1.2-3.5,0.7-5.4c-0.2-0.8-0.1-1.7-0.1-2.6
	c0.1-29,0.2-58,0.4-86.9c0-1.1,0-2.2,0.2-3.2c0.4-2.3,2.4-3.8,4.6-3.7c2.1,0.1,3.8,1.7,4.2,3.8c0.1,0.8,0.1,1.6,0.1,2.3
	c-0.1,29.3-0.1,58.5-0.3,87.8c-0.1,9.7-3.6,18.1-10.3,25c-4.2,4.4-9.5,6.4-15.5,6.4c-55.8,0-111.6-0.1-167.4-0.2
	c-2.4,0-4.9,0.2-7.3,0.3c-10.1,0.2-19.5-2.2-27.7-8.5c-7.9-6.1-10.9-14.3-10.8-24.1c0.1-25.5,0.1-50.9,0.1-76.4
	c0.1-65.3,0.2-130.5,0.2-195.8c0-4.4-0.4-8.7,0.6-13.1c1.1-4.7,2.9-9.1,5.7-13c3.3-4.7,7.8-7.5,13.3-8.9c0.9-0.2,1.9-0.2,2.9-0.2
	c61.7-0.2,123.3-0.3,185-0.5c0.4,0,0.8,0,1.2,0c3.7,0.1,5.3,1.6,6.1,5.4c0.5,2.7-1.1,5.5-4.1,6.6c-3.7,1.4-7.5,2.9-11,4.6
	c-12.3,6-23.5,13.4-33.2,23.1c-4,4-7.6,8.4-10,13.6c-0.1,0.3-0.2,0.5-0.4,0.8c-1.4,2.2-3.6,2.9-5.8,1.9c-2.1-1-3.1-3.2-2.3-5.6
	c1-3.1,2.8-5.8,4.6-8.4c5.3-7.4,11.9-13.4,19.1-18.9c6-4.6,12.3-8.6,18.9-12.1c0.8-0.4,1.6-0.9,2.5-1.3
	C287.9,108.8,287.8,108.6,287.7,108.4z"/>
<path class="st0" d="M477.6,540.4c-27.1-0.6-50.3-9.7-69.2-28.8c-15.1-15.3-23.7-33.9-26.1-55.2c-2.1-19.1,1.4-37.1,10.2-54.1
	c6.5-12.7,15.5-23.4,26.8-32.1c3.2-2.4,3.1-2.5,1.3-5.9C410,345,399.5,325.8,389,306.6c-0.3-0.5-0.6-1-0.8-1.6
	c-1.7-3.5-0.5-6.4,3.2-7.2c4.3-0.9,7.4-3.3,10.1-6.5c1-1.3,2.2-2.2,3.9-2.4c2.3-0.3,4.2,0.5,5.6,2.3c3,3.9,6,7.7,9,11.5
	c12.1,15.5,24.3,31.1,36.3,46.6c1.3,1.7,2.4,2.1,4.6,1.7c9.2-1.9,18.5-2.5,27.9-1.6c33.6,3.4,59,19.7,75.4,49.1
	c18.9,33.7,14.2,76-10.9,105.9c-16.1,19.2-36.6,30.5-61.2,34.6c-1.7,0.3-3.5,0.5-5.2,0.6C483.6,540.1,480.4,540.2,477.6,540.4z
	 M566.8,443.5c-0.2-6-0.7-11.8-1.9-17.5c-7.8-36.7-38.5-64-76-67.4c-18.5-1.7-35.9,1.9-52.2,10.8c-31.2,17.1-48.7,50.7-45.7,84
	c2,21.8,11,40.3,27,55.1c26.1,24.2,65.1,30,97.5,14.1C548.3,506.5,564.9,479.6,566.8,443.5z M448.6,354.3
	c-14.3-18.4-28.4-36.4-42.5-54.5c-2.2,1.8-4.2,3.5-6.5,4.7c-0.8,0.4-0.9,0.9-0.4,1.6c0.3,0.4,0.5,0.9,0.7,1.3
	c9.6,17.6,19.3,35.2,28.9,52.8c0.4,0.8,0.7,1.6,1.5,2.2C436.2,359.6,442,356.5,448.6,354.3z"/>
<path class="st0" d="M426,207.5c0,42.8-30,79.8-71.8,88.7c-47.1,10.1-93.7-20.6-103-67.8c-2.7-13.7-2.4-27.3,1.2-40.9
	c8.9-33.5,35.9-59.6,70.6-66.1c47.6-8.8,91.2,21.7,101,67.4C425.3,195,426,201.2,426,207.5z M336.9,288.9c3,0,6.8-0.1,10.6-0.8
	c2.5-0.4,5-0.9,7.4-1.5c42.3-10.7,68.7-52.2,60.3-95c-8.1-41.3-47.9-68.7-89.4-61.4c-31.9,5.6-56.8,29.6-64.7,60
	c-3,11.7-3.4,23.5-1.2,35.4C266.9,262.5,298.6,288.9,336.9,288.9z"/>
<path class="st0" d="M184.8,223.7c-15.5-0.2-31-0.3-46.5-0.5c-1.4,0-2.7-0.1-4.1-0.4c-2.4-0.5-3.7-1.9-4-4.3c-0.1-0.7,0-1.4-0.1-2
	c-0.1-24.5-0.3-49-0.4-73.5c0-1.3-0.1-2.5,0.2-3.8c0.6-2.2,2.3-3.6,4.4-3.6c2,0,3.7,1.3,4.3,3.4c0.4,1.1,0.2,2.3,0.3,3.5
	c0.1,22.8,0.3,45.7,0.4,68.5c0,3.7-0.4,3.3,3.3,3.3c29.6,0.3,59.1,0.5,88.7,0.8c1,0,2,0,2.9,0.1c2.5,0.3,4.2,2.1,4.2,4.5
	c0,2.4-1.6,4.1-4.1,4.5c-0.8,0.1-1.6,0.1-2.3,0.1c-15.7,0-31.4,0-47.1,0C184.8,224,184.8,223.8,184.8,223.7z"/>
<path class="st0" d="M217.5,365.4c-26.4,0-52.8,0-79.3,0c-1.1,0-2.2,0.1-3.2-0.1c-2.4-0.3-4-2.1-4-4.3c-0.1-2.2,1.3-4,3.7-4.6
	c0.9-0.2,1.9-0.2,2.9-0.2c53.3-0.1,106.7-0.2,160-0.2c0.8,0,1.6,0,2.3,0.1c2.3,0.4,3.9,2.3,3.9,4.4c0,2.2-1.6,4-3.9,4.4
	c-1.1,0.2-2.1,0.2-3.2,0.2c-26.4,0-52.8,0-79.3,0C217.5,365.2,217.5,365.3,217.5,365.4z"/>
<path class="st0" d="M213.4,404.1c-25.3,0-50.5,0-75.8,0c-1.1,0-2.2,0-3.2-0.2c-2.2-0.5-3.6-2.3-3.7-4.4c0-2.1,1.4-3.8,3.6-4.4
	c1.2-0.4,2.5-0.2,3.8-0.2c34.3,0.2,68.7,0.3,103,0.5c16,0.1,32,0.1,48,0.2c1.3,0,2.5-0.1,3.8,0.3c2.2,0.6,3.5,2.3,3.5,4.4
	c0,2.1-1.5,3.9-3.7,4.3c-1,0.2-2.1,0.1-3.2,0.1c-25.4,0-50.7,0-76.1,0C213.4,404.5,213.4,404.3,213.4,404.1z"/>
<path class="st0" d="M170.8,331.9c-21.5,0.1-41.1-16.3-44.6-36.8c-1.2-7.3-0.1-14.4,3.6-20.9c0.6-1,1.2-2,2.2-2.7
	c2.6-2,4.3-2.1,6.9-0.3c5.1,3.6,10.1,7.2,15.1,11c3.4,2.5,6.6,5.2,9.9,7.8c1.5,1.2,2.6,2.7,3.7,4.1c6.4,8.3,12.6,16.9,19.3,25
	c0.6,0.7,1.1,1.6,1.5,2.5c1,2.6,0.3,4.8-2.1,6.3c-3.3,1.9-7,3-10.7,3.6C173.7,331.7,171.9,331.8,170.8,331.9z M137.1,280
	c-2.6,5.4-2.7,10.5-1.5,15.8c3.4,14.1,17.2,25.8,31.7,26.8c3.3,0.2,6.5,0.2,9.8-1c-0.2-0.4-0.2-0.7-0.4-0.9
	c-4.9-5.9-9.3-12.1-13.8-18.1c-1.5-1.9-2.9-4-4.7-5.6C151.3,291.3,144.4,285.8,137.1,280z"/>
<path class="st0" d="M250.2,274.3c0.2,5.1,0.4,10.1,0.6,15.2c0.1,1.6-0.2,3.1-0.8,4.5c-3.5,8.6-6.9,17.2-10.4,25.7
	c-0.2,0.5-0.4,1.1-0.7,1.6c-1.9,3.7-5.6,4.5-8.7,1.8c-5.7-5-9.6-11.2-12-18.4c-6.3-19.3,1.7-40.8,18.8-50.8c1.5-0.9,3.1-1.7,4.7-2.3
	c3.3-1.3,6.3,0.2,7.3,3.7c0.2,0.7,0.3,1.5,0.4,2.3C249.7,263.1,249.9,268.7,250.2,274.3C250.2,274.3,250.2,274.3,250.2,274.3z
	 M232.8,312.3c2.9-7.2,5.7-14.1,8.5-21.1c0.3-0.8,0.5-1.6,0.4-2.5c-0.4-8-0.7-15.9-1.1-23.9c0-0.6,0.3-1.4-0.5-1.8
	C223.1,273.4,220.9,299.1,232.8,312.3z"/>
<path class="st0" d="M275.3,296c4.3,0,8.6,0,12.9,0c1,0,2,0,2.9,0.2c3.6,0.6,5.3,3.4,4.2,6.9c-2.3,7.5-6.8,13.5-12.8,18.5
	c-8,6.6-17.3,9.9-27.7,10.3c-1.3,0-2.5,0-3.8-0.2c-3.6-0.6-5.2-3.2-4.1-6.6c0.7-2.2,1.6-4.4,2.5-6.6c2.4-6.4,4.9-12.7,7.3-19.1
	c1.4-3.5,1.9-3.8,5.6-3.7c4.3,0,8.6,0,12.9,0C275.3,295.9,275.3,295.9,275.3,296z M257.8,322.4c10.9-0.7,24.5-9.7,26.3-17.3
	c-6.1,0-12.1,0-18.2,0c-1.2,0-1.7,0.5-2.1,1.5C261.8,311.8,259.8,316.9,257.8,322.4z"/>
<path class="st0" d="M209.8,287.2c0,10.8-3.1,19.6-8.6,27.5c-2,3-5.1,3.2-7.6,0.6c-2.3-2.5-4.5-5.1-6.8-7.6c-3.5-4-7.1-8-10.6-12.1
	c-2.9-3.3-2.9-5.7-0.1-9c0.5-0.6,1.1-1.1,1.6-1.7c6-6,11.9-12,17.9-18c2.7-2.7,5.4-2.7,8,0.2c2.1,2.4,3.4,5.2,4.2,8.2
	C209.1,279.5,209.8,283.8,209.8,287.2z M196.5,304.9c4.5-9.5,5.4-18.8,2.8-28.8c-4.2,4.2-8.1,8-11.9,11.9c-1,1-2.5,1.9-2.6,3
	c-0.2,1.4,1.5,2.3,2.5,3.4C190.2,297.8,193.3,301.2,196.5,304.9z"/>
<path class="st0" d="M168.2,247.7c6.1-0.2,12,1,17.4,3.9c1.2,0.6,2.4,1.3,3.4,2.2c2.1,1.7,2.3,4,0.9,6.3c-0.3,0.4-0.6,0.8-0.9,1.1
	c-6,6.5-12.1,13-18.1,19.5c-0.1,0.1-0.1,0.1-0.2,0.2c-2.6,2.5-4.9,2.7-7.8,0.5c-4.5-3.4-8.9-7-13.3-10.5c-2.5-1.9-5-3.7-7.4-5.7
	c-3.3-2.6-3.5-5.6-0.3-8.3c6.4-5.4,13.9-8.6,22.3-9.3C165.4,247.6,166.8,247.7,168.2,247.7z M179,258.7c-7.4-3.1-19.8-2.9-28.5,2.4
	c5.2,3.8,10.4,7.5,15.6,11.4C170.4,267.8,174.6,263.4,179,258.7z"/>
<path class="st0" d="M201.6,173.7c0-7.2,0-14.4,0-21.6c0-1.1,0-2.1,0.3-3.2c0.7-2.1,2.3-3.3,4.3-3.3c2,0,3.6,1.3,4.2,3.4
	c0.2,0.7,0.3,1.5,0.3,2.3c0,14.8,0,29.6,0,44.5c0,1,0,1.9-0.4,2.9c-0.7,1.8-2,2.8-4,2.9c-2,0.1-3.6-0.9-4.4-2.8
	c-0.5-1.1-0.5-2.3-0.5-3.4C201.6,188.1,201.6,180.9,201.6,173.7C201.6,173.7,201.6,173.7,201.6,173.7z"/>
<path class="st0" d="M168.2,178.6c0,5.8,0,11.7,0,17.5c0,0.8,0,1.6-0.1,2.3c-0.4,2.3-2.3,3.8-4.5,3.7c-2.1-0.1-3.9-1.5-4.3-3.7
	c-0.2-0.9-0.2-1.7-0.1-2.6c0.1-11.8,0.2-23.6,0.3-35.3c0-1.2,0-2.3,0.5-3.4c0.7-1.8,2.4-3,4.3-2.9c1.9,0.1,3.3,1.1,4,2.9
	c0.4,1,0.4,2.1,0.4,3.2c0,6.1,0,12.3,0,18.4C168.5,178.6,168.4,178.6,168.2,178.6z"/>
<path class="st0" d="M189.3,182c0,4.8,0,9.5,0,14.3c0,0.9,0,1.8-0.1,2.6c-0.4,2.2-2.1,3.7-4.3,3.7c-2.1,0.1-4-1.3-4.5-3.5
	c-0.2-0.8-0.2-1.7-0.2-2.6c-0.1-9.7-0.2-19.5-0.2-29.2c0-1,0-2,0.2-2.9c0.4-2.2,2.2-3.7,4.2-3.8c2.2-0.1,4.1,1.5,4.6,3.8
	c0.2,0.8,0.1,1.7,0.1,2.6c0,5,0,9.9,0,14.9C189.3,182,189.3,182,189.3,182z"/>
<path class="st0" d="M223.3,185.7c0-3.4,0-6.8,0-10.2c0-0.9,0.1-1.8,0.2-2.6c0.5-2.3,2.1-3.6,4.3-3.6c2.2,0,4,1.5,4.5,3.8
	c0.1,0.8,0.1,1.5,0.1,2.3c0,6.7-0.1,13.4-0.1,20.1c0,0.9-0.1,1.8-0.3,2.6c-0.5,2.3-2.2,3.6-4.3,3.6c-2.2,0-4.1-1.5-4.5-3.8
	c-0.2-1.3-0.1-2.7-0.1-4.1c0-2.7,0-5.4,0-8.2C223.2,185.7,223.3,185.7,223.3,185.7z"/>
<path class="st1" d="M336.9,288.9c-38.3,0-70-26.4-77-63.3c-2.2-11.9-1.8-23.7,1.2-35.4c7.8-30.4,32.7-54.4,64.7-60
	c41.5-7.3,81.3,20,89.4,61.4c8.4,42.8-18,84.4-60.3,95c-2.5,0.6-4.9,1.1-7.4,1.5C343.8,288.7,340,288.9,336.9,288.9z M319.5,260.6
	c1.4-0.1,2.8-0.9,3.6-2.5c0.4-0.9,0.6-1.8,0.8-2.8c6.4-30.1,12.8-60.2,19.1-90.4c0.5-2.5,1.3-4.9,1.4-7.5c0.1-2.3-1.4-4.1-3.4-4.5
	c-2.2-0.5-4.3,0.6-5.2,2.8c-0.4,0.9-0.6,1.9-0.8,2.8c-6,28.4-12,56.8-18,85.2c-0.8,3.7-1.6,7.4-2.3,11.2
	C314.2,258,316.2,260.6,319.5,260.6z M295.4,238.9c1.6-0.1,3-0.9,3.8-2.5c0.4-0.8,0.6-1.7,0.7-2.5c4.1-20.3,8.1-40.7,12.2-61.1
	c0.2-1.2,0.5-2.5,0.6-3.7c0-2.2-1.5-4-3.6-4.4c-2.1-0.4-4.1,0.6-5,2.7c-0.4,0.9-0.5,1.9-0.7,2.8c-3.4,17.2-6.9,34.4-10.3,51.6
	c-0.8,3.8-1.6,7.6-2.2,11.5C290.3,236.4,292.3,238.9,295.4,238.9z"/>
<path class="st2" d="M137.1,280c7.2,5.8,14.2,11.3,21,17c1.8,1.5,3.2,3.6,4.7,5.6c4.6,6.1,9,12.3,13.8,18.1c0.2,0.2,0.2,0.5,0.4,0.9
	c-3.2,1.2-6.5,1.2-9.8,1c-14.5-1.1-28.2-12.7-31.7-26.8C134.4,290.6,134.6,285.4,137.1,280z"/>
<path class="st2" d="M232.8,312.3c-11.8-13.2-9.7-39,7.4-49.3c0.8,0.4,0.5,1.2,0.5,1.8c0.4,8,0.7,15.9,1.1,23.9
	c0,0.9-0.1,1.7-0.4,2.5C238.5,298.2,235.7,305.1,232.8,312.3z"/>
<path class="st2" d="M257.8,322.4c2.1-5.4,4.1-10.6,6-15.8c0.4-1,0.9-1.6,2.1-1.5c6,0.1,12.1,0,18.2,0
	C282.3,312.7,268.7,321.7,257.8,322.4z"/>
<path class="st2" d="M196.5,304.9c-3.3-3.7-6.3-7.1-9.3-10.6c-0.9-1.1-2.7-2-2.5-3.4c0.2-1.1,1.7-2,2.6-3c3.8-3.8,7.7-7.7,11.9-11.9
	C201.9,286.2,201.1,295.4,196.5,304.9z"/>
<path class="st2" d="M179,258.7c-4.4,4.7-8.5,9.2-12.8,13.8c-5.3-3.8-10.4-7.6-15.6-11.4C159.2,255.8,171.6,255.5,179,258.7z"/>
<path class="st3" d="M475.5,373c39.3-0.1,68.5,23.6,75.4,56.9c6.1,29.6-7.5,60.4-33.6,76.4c-28.3,17.3-64.6,13.7-88.1-8.9
	c-26.2-25.1-29.4-65.8-7.4-94.8C436.5,383.1,456.4,373.5,475.5,373z M416.2,445.8c0,17.8,7.4,34.7,20.6,46.4
	c21.6,19.2,53.6,21.2,78,4.8c25.9-17.4,35.5-50.8,22.7-79.1c-11.6-25.6-39.7-40.1-68.1-35.1C438.8,388.3,416.3,414.9,416.2,445.8z"
	/>
<path class="st0" d="M319.5,260.6c-3.2,0-5.3-2.6-4.8-5.6c0.7-3.7,1.5-7.4,2.3-11.2c6-28.4,12-56.8,18-85.2c0.2-1,0.4-1.9,0.8-2.8
	c0.9-2.2,3-3.3,5.2-2.8c2,0.4,3.5,2.2,3.4,4.5c-0.1,2.6-0.9,5-1.4,7.5c-6.3,30.1-12.7,60.2-19.1,90.4c-0.2,0.9-0.4,1.9-0.8,2.8
	C322.3,259.7,320.9,260.4,319.5,260.6z"/>
<path class="st0" d="M295.4,238.9c-3.1,0-5.1-2.5-4.6-5.6c0.7-3.8,1.5-7.7,2.2-11.5c3.4-17.2,6.9-34.4,10.3-51.6
	c0.2-1,0.4-1.9,0.7-2.8c0.9-2,2.9-3.1,5-2.7c2,0.4,3.6,2.2,3.6,4.4c0,1.3-0.3,2.5-0.6,3.7c-4.1,20.4-8.1,40.7-12.2,61.1
	c-0.2,0.9-0.4,1.7-0.7,2.5C298.4,238,297,238.8,295.4,238.9z"/>
<path class="st3" d="M507,443.5c4.4,4.5,8.6,8.8,12.7,13c1.4,1.4,2.7,2.8,3.9,4.4c1.8,2.4,1.9,4.8,0.5,7.4c-0.7,1.2-1.5,2.3-2.4,3.3
	c-4.8,4.8-9.7,9.7-14.5,14.5c-3.4,3.4-5.8,3.6-9.9,1c-1.7-1-3.1-2.3-4.5-3.7c-3.7-3.7-7.5-7.4-11.2-11.1c-1.7-1.7-1.7-1.7-3.4,0
	c-4.3,4.4-8.5,8.9-12.9,13.1c-4.7,4.6-8.1,4.5-12.9-0.1c-4.6-4.5-9.2-9-13.8-13.5c-0.8-0.7-1.5-1.5-2.2-2.4
	c-1.5-1.9-1.8-4.1-0.7-6.3c1-2.2,2.5-4.2,4.2-6c3.9-4.1,7.8-8.2,11.7-12.3c1.4-1.5,1.4-1.5,0-2.9c-4.4-4.4-8.9-8.8-13.3-13.1
	c-0.6-0.5-1-1.2-1.5-1.8c-2-2.5-2-5.1-0.4-7.9c1.5-2.5,3.5-4.4,5.5-6.4c3.6-3.7,7.3-7.3,11-10.9c3.5-3.5,5.8-3.7,10.1-1.1
	c1.6,1,3,2.1,4.3,3.5c3.6,3.6,7.2,7.1,10.9,10.6c2.3,2.2,1.6,2.4,4.2-0.1c4.5-4.6,9.1-9.1,13.6-13.7c0.5-0.5,1-0.9,1.6-1.3
	c2.7-2.2,5.4-2.3,8.4-0.5c1,0.6,1.9,1.3,2.8,2.2c4.9,4.9,9.9,9.7,14.8,14.6c3.1,3.1,3.3,5.4,1.1,9.2c-1.3,2.3-3.1,4.2-5,6.1
	C515.3,435.1,511.2,439.3,507,443.5z M458.5,409.6c-1,0-1.5,0.8-2.2,1.4c-2.8,2.8-5.6,5.7-8.4,8.5c-2.5,2.6-2.5,3.5,0,6.1
	c2.9,2.9,5.9,5.7,8.8,8.6c1.9,1.8,3.8,3.6,5.6,5.5c2.3,2.4,2.2,4.8,0.1,7.3c-0.4,0.4-0.8,0.8-1.2,1.2c-4.6,4.7-9.1,9.3-13.7,14
	c-2.2,2.3-2.1,3.3,0,5.4c2.8,2.8,5.7,5.6,8.6,8.4c2.4,2.3,3.1,2.3,5.5-0.1c2.3-2.3,4.6-4.8,6.9-7.1c2.5-2.6,5-5.2,7.7-7.6
	c2.3-2.1,4.1-2.1,6.6-0.3c1.2,0.9,2.2,1.9,3.3,2.9c4.2,4.1,8.3,8.3,12.4,12.4c2.3,2.3,3.3,2.3,5.6,0c2.8-2.7,5.5-5.5,8.3-8.3
	c2.4-2.4,2.4-3.4,0-5.8c-2.9-3-5.9-5.9-8.9-8.9c-1.8-1.8-3.6-3.5-5.4-5.4c-2.1-2.3-2.2-3.9-0.7-6.6c1-1.8,2.3-3.4,3.7-4.8
	c4.1-4.2,8.2-8.3,12.3-12.5c1.9-2,1.9-3,0-5c-3-3.1-6.1-6.1-9.1-9.1c-1.9-1.8-2.8-1.8-4.8,0c-0.5,0.4-1,0.9-1.5,1.4
	c-4.2,4.2-8.3,8.5-12.5,12.7c-3.8,3.8-6.9,3.9-10.9,0.1c-1.5-1.4-2.9-2.9-4.4-4.3c-3-2.9-6.1-5.8-9.1-8.7
	C460.5,410.4,459.6,409.8,458.5,409.6z"/>
<path class="st4" d="M82.2,189.9l11.4,11.4c2.7,2.7,7.1,2.7,9.8,0l11.4-11.4c2.7-2.7,2.7-7.1,0-9.8l-11.4-11.4
	c-2.7-2.7-7.1-2.7-9.8,0L82.2,180C79.5,182.8,79.5,187.2,82.2,189.9z"/>
<path class="st4" d="M82.2,223.2l11.4,11.4c2.7,2.7,7.1,2.7,9.8,0l11.4-11.4c2.7-2.7,2.7-7.1,0-9.8l-11.4-11.4
	c-2.7-2.7-7.1-2.7-9.8,0l-11.4,11.4C79.5,216.1,79.5,220.5,82.2,223.2z"/>
<path class="st3" d="M405.1,517.8l9,9c1.3,1.3,3.4,1.3,4.8,0l9-9c1.3-1.3,1.3-3.4,0-4.8l-9-9c-1.3-1.3-3.4-1.3-4.8,0l-9,9
	C403.8,514.3,403.8,516.5,405.1,517.8z"/>
<circle class="st5" cx="478.7" cy="444.8" r="91.5"/>
</svg>
