<?xml version="1.0" encoding="utf-8"?>
<!-- Generator: Adobe Illustrator 28.0.0, SVG Export Plug-In . SVG Version: 6.00 Build 0)  -->
<svg version="1.1" id="Capa_1" xmlns="http://www.w3.org/2000/svg" xmlns:xlink="http://www.w3.org/1999/xlink" x="0px" y="0px"
	 viewBox="0 0 600 600" style="enable-background:new 0 0 600 600;" xml:space="preserve">
<style type="text/css">
	.st0{fill:#090909;}
	.st1{fill:#FCFCFC;}
	.st2{fill:#FF5500;}
	.st3{fill:#6EE1EB;}
	.st4{fill:none;stroke:#FF5500;stroke-width:11;stroke-miterlimit:10;}
</style>
<path class="st0" d="M387.7,479.2c-7.3-20.5-7.9-40.9-1.5-61.4c6.4-20.4,18.6-36.8,36-49.9c-1.5-0.5-2.6-0.3-3.6-0.4
	c-21.4,0-42.7-0.1-64.1-0.1c-1.2,0-2.4,0-3.5-0.1c-2.2-0.3-3.7-2-3.8-4.2c-0.1-2.3,1.4-4.2,3.7-4.6c1.1-0.2,2.3-0.1,3.5-0.1
	c27,0,54.1,0,81.1,0.1c2,0,3.8-0.3,5.6-1.2c1.7-0.9,3.6-1.6,5.4-2.2c1.3-0.4,1.7-1.1,1.6-2.3c0-0.4,0-0.8,0-1.2
	c0.2-46.2,0.4-92.3,0.6-138.5c0-4.1,0.6-3.4-3.3-3.5c-10.6-0.1-21.3-0.1-31.9-0.5c-3.3-0.1-6.4-0.9-9.2-2.5
	c-5.1-2.9-7.6-7.6-7.7-13.3c-0.3-14.2-0.3-28.5-0.5-42.7c0-4.2,0.4-3.5-3.6-3.5c-30-0.4-59.9-0.7-89.9-1.1c-3.8,0-7.1,0.9-9.8,3.6
	c-2.3,2.3-3.8,4.9-4,8.2c-0.1,1.6-0.1,3.1-0.1,4.7c0,37.4,0,74.8,0,112.1c0,1.3,0.1,2.5-0.2,3.8c-0.6,2.3-2.5,3.8-4.6,3.7
	c-2.2-0.1-4-1.8-4.3-4.1c-0.1-0.7-0.1-1.4-0.1-2c0-39-0.1-78.1,0.1-117.1c0-9.3,4.6-16.3,13.2-20.5c2.8-1.3,5.8-1.6,8.9-1.5
	c32.2,0.3,64.4,0.7,96.6,1c0.7,0,1.4,0.1,2,0.1c2.7,0,4.7,1.1,6.6,3.2c14.5,16.5,29.1,32.9,43.6,49.4c1.5,1.7,2.9,3.5,4.5,5
	c2.5,2.4,3.3,5.2,3.2,8.7c-0.3,30.4-0.4,60.7-0.6,91.1c-0.1,17.9-0.1,35.7-0.2,53.6c0,0.9-0.2,1.8,0.2,2.6c1.9,0.1,3.6-0.6,5.4-0.9
	c8.5-1.5,17-2,25.6-1.1c3.5,0.3,7,0.4,10.4,1.2c39.3,9.6,64.8,33.4,74.6,73.1c6.2,33.3-2.4,62.3-25.7,86.7
	c-16.4,17.1-36.8,26.9-60.3,29.3c-30.9,3.1-57.7-6.5-79.7-28.6c-6-6-11-12.9-14.9-20.5c-0.9-1.7-1.8-2.4-3.8-2.4
	c-62.5,0.3-124.9,0.5-187.4,0.7c-3.5,0-7,0.3-10.5,0.4c-6.4,0.2-12.1-1.5-17.1-5.5c-4.8-3.9-6.4-9.2-6.4-15.1c0-4.9,0-9.8,0-14.6
	c0.1-124.9,0.2-249.9,0.3-374.8c0-6.1-0.2-12.3-0.4-18.4c-0.2-6.9,0.9-13.6,4-19.9c2-4,4.9-7,9.1-8.7c1.9-0.7,3.8-0.8,5.7-0.8
	c61.9,0,123.7-0.1,185.6-0.1c5.8,0,11.7-0.4,17.5,0.7c6.1,1.1,11.5,3.6,15.7,8.4c2.7,3,4,6.5,4,10.7c-0.3,22-0.5,43.9-0.7,65.9
	c0,1.1,0,2.2-0.2,3.2c-0.4,2.4-2.2,3.9-4.4,3.9c-2.2,0-4-1.5-4.4-3.9c-0.2-1.1-0.2-2.3-0.2-3.5c0.2-20.1,0.4-40.2,0.6-60.3
	c0-1.5,0-2.9-0.1-4.4c-0.1-4.1-2.1-7-5.5-9c-2.8-1.6-5.8-2.6-9.1-2.6c-10.6,0.1-21.3,0.1-31.9,0.1c-2.6,0-2.6,0-3.2,2.5
	c-1.8,7.1-3.5,14.2-5.3,21.3c-1,3.9-3.4,6.8-6.7,8.9c-0.8,0.5-1.8,0.7-2.8,0.8c-1.3,0.1-2.5,0.1-3.8,0.1c-29.9,0-59.7-0.1-89.6-0.1
	c-2.2,0-4.3-0.2-6.4-0.8c-3.9-1.1-6.3-3.9-7.1-7.8c-1.4-7.5-3.4-14.8-5-22.3c-0.5-2.4-0.5-2.5-3-2.4c-11,0-22.1,0.1-33.1,0
	c-4,0-6.5,1.6-8,5.1c-1.7,3.9-2.5,7.9-2.4,12.2c0.1,12.8,0,25.6,0,38.4c-0.1,123.3-0.2,246.5-0.3,369.8c0,1.6,0,3.1,0.2,4.7
	c0.6,5.1,4,8.4,9.1,9c0.9,0.1,1.8,0.1,2.6,0.1c65.3-0.2,130.6-0.5,195.9-0.7C385.7,479.2,386.6,479.2,387.7,479.2z M566.9,443.3
	c-0.2-5.8-0.7-11.6-1.9-17.2c-8.6-40.6-44.4-68.5-86.2-67.9c-14.9,0.2-28.9,4-41.9,11.1c-31.3,17.2-48.7,50.8-45.8,84
	c2,21.8,10.9,40.3,27,55.1c26.5,24.5,66.1,30.2,98.9,13.5C549,505.7,565.2,479,566.9,443.3z M341.7,40.6c-36.1,0-71.8,0-107.5,0
	c-0.4,0-0.8,0.1-1.2,0.1c-0.1,0-0.2,0.1-0.2,0.1c-0.1,0.1-0.1,0.2-0.2,0.5c1.7,7.1,3.4,14.4,5.1,21.7c0.2,1,0.6,1.5,1.7,1.4
	c4.9-0.3,9.7,0.5,14.6,0.5c25.1,0,50.1,0.1,75.2,0.1c1.9,0,4.2,0.8,5.7-0.3c1.3-1,1.2-3.4,1.7-5.2C338.2,53.3,339.9,47.1,341.7,40.6
	z M446.8,200.4c-13.9-15.7-27.4-31-40.9-46.2c-0.6,0.6-0.5,1-0.5,1.3c0.1,11.8,0.3,23.6,0.4,35.4c0,0.9,0.1,1.8,0.2,2.6
	c0.8,4.4,4.3,6.8,9.6,6.8c9.3,0,18.5,0,27.8,0.1C444.3,200.4,445.2,200.4,446.8,200.4z"/>
<path class="st0" d="M289.8,381.3c-21.9,0-39.6-17.9-39.4-39.8c0.1-22.3,18.4-40.5,40.5-40.4c21.6,0.1,39.3,18,39.3,39.8
	C330.2,363.2,312.1,381.4,289.8,381.3z M290.6,310.3c-17.2,0-31.1,14-31.1,31.3c0,16.9,13.5,30.6,30.3,30.7
	c17.1,0.1,31.2-14,31.2-31.3C321.1,323.8,307.7,310.3,290.6,310.3z"/>
<path class="st0" d="M370.8,230.8c18.5,0,37.1,0,55.6,0c1.1,0,2.2,0,3.2,0.2c2.4,0.5,3.8,2.3,3.8,4.5c0,2.1-1.4,3.8-3.7,4.3
	c-0.9,0.2-1.9,0.2-2.9,0.2c-37.4-0.1-74.7-0.2-112.1-0.3c-0.6,0-1.2,0-1.8,0c-2.7-0.3-4.4-2.1-4.4-4.6c0.1-2.4,1.8-4.2,4.6-4.4
	c0.9-0.1,1.8,0,2.6,0c18.3,0,36.7,0,55,0C370.8,230.7,370.8,230.8,370.8,230.8z"/>
<path class="st0" d="M370.7,268c-18.2,0-36.5,0-54.7,0c-1.2,0-2.4,0-3.5-0.3c-2.2-0.4-3.7-2.2-3.7-4.2c0-2.1,1.4-3.9,3.6-4.4
	c0.7-0.2,1.5-0.2,2.3-0.2c37.2,0.3,74.3,0.6,111.4,0.8c1,0,2,0,2.9,0.2c2.1,0.4,3.4,2.1,3.6,4.1c0.1,2.1-1.3,4-3.4,4.5
	c-1,0.2-2.1,0.2-3.2,0.2c-18.4,0-36.9,0-55.3,0C370.7,268.6,370.7,268.3,370.7,268z"/>
<path class="st0" d="M380.7,288.2c15.3,0,30.6,0,45.9,0c1.2,0,2.3-0.1,3.5,0.3c2,0.8,3.2,2.5,3.1,4.5c-0.1,2-1.6,3.6-3.6,4
	c-0.9,0.2-1.9,0.2-2.9,0.2c-30.6-0.1-61.3-0.2-91.9-0.2c-0.8,0-1.6,0-2.3-0.1c-2.3-0.4-3.8-2.3-3.8-4.5c0.1-2.2,1.7-4,4-4.3
	c1-0.1,1.9-0.1,2.9-0.1c15,0,30,0,45.1,0C380.7,288.1,380.7,288.1,380.7,288.2z"/>
<path class="st0" d="M389.9,317.3c12.2,0,24.4,0,36.6,0c0.8,0,1.6,0,2.3,0.2c2.1,0.4,3.6,2.3,3.6,4.4c0,2.1-1.5,3.9-3.6,4.3
	c-0.8,0.1-1.6,0.1-2.3,0.1c-24.4-0.2-48.8-0.4-73.1-0.6c-0.7,0-1.4,0-2-0.1c-2.3-0.4-3.9-2.2-3.9-4.4c0-2.2,1.6-4.1,3.9-4.4
	c1-0.1,1.9-0.1,2.9-0.1c11.9,0,23.8,0,35.7,0C389.9,316.9,389.9,317.1,389.9,317.3z"/>
<path class="st0" d="M293.5,462.9c-6.2,0-12.5,0-18.7,0c-1,0-2,0-2.9-0.2c-2.1-0.4-3.5-2-3.6-4c-0.1-2.1,1-3.7,3-4.5
	c0.9-0.4,1.9-0.3,2.9-0.3c12.8,0.1,25.5,0.1,38.3,0.2c1,0,2,0.1,2.9,0.3c2.1,0.5,3.4,2.1,3.5,4.1c0.1,2.1-1.1,3.7-3.2,4.4
	c-1,0.4-2.1,0.3-3.2,0.3c-6.3,0-12.7,0-19,0C293.5,463.1,293.5,463,293.5,462.9z"/>
<path class="st1" d="M341.7,40.6c-1.8,6.5-3.4,12.7-5.2,18.9c-0.5,1.8-0.3,4.2-1.7,5.2c-1.4,1.1-3.8,0.3-5.7,0.3
	c-25.1,0-50.1-0.1-75.2-0.1c-4.9,0-9.7-0.8-14.6-0.5c-1.1,0.1-1.5-0.4-1.7-1.4c-1.7-7.3-3.4-14.6-5.1-21.7c0.1-0.3,0.2-0.4,0.2-0.5
	c0.1-0.1,0.1-0.1,0.2-0.1c0.4,0,0.8-0.1,1.2-0.1C269.9,40.6,305.5,40.6,341.7,40.6z"/>
<path class="st1" d="M446.8,200.4c-1.6,0-2.5,0-3.4,0c-9.3,0-18.5-0.1-27.8-0.1c-5.3,0-8.7-2.4-9.6-6.8c-0.2-0.9-0.2-1.7-0.2-2.6
	c-0.1-11.8-0.3-23.6-0.4-35.4c0-0.4-0.1-0.8,0.5-1.3C419.4,169.4,432.9,184.6,446.8,200.4z"/>
<path class="st1" d="M290.6,310.3c17.1,0,30.5,13.5,30.5,30.7c0,17.3-14.1,31.4-31.2,31.3c-16.8-0.1-30.3-13.7-30.3-30.7
	C259.5,324.4,273.4,310.3,290.6,310.3z M285.6,354.8c1.4-0.2,2.6-0.8,3.7-1.6c6.8-5.1,13.5-10.2,20.3-15.4c0.5-0.4,1.1-0.9,1.5-1.4
	c1.4-1.7,1.5-4,0.2-5.6c-1.3-1.7-3.5-2.2-5.5-1.2c-0.8,0.4-1.5,0.9-2.2,1.4c-5.3,4-10.6,8-15.9,12c-1.6,1.2-1.4,1.6-3.3-0.3
	c-2-2-3.9-4.1-5.9-6.1c-1.3-1.3-2.9-2-4.8-1.4c-3.2,1-4.3,4.7-1.9,7.3c3.3,3.7,6.8,7.2,10.3,10.8
	C283.1,354.3,284.3,354.7,285.6,354.8z"/>
<path class="st2" d="M407.2,447c0-34.8,23.8-64.6,57.1-72.2c34.2-7.9,68.3,9.2,82.3,41.3c11.7,26.9,5.2,59.3-16.3,80.1
	c-15.9,15.4-35.2,22.6-57.3,20.9c-35.1-2.8-60.4-29.2-65-60.1C407.6,453.3,407.4,449.7,407.2,447z M416.3,449.4
	c0.3,15.1,7,30.7,20.8,43.1c21.5,19.3,53.7,21.1,78.1,4.6c26.7-18.1,35.9-53.2,21.3-81.5c-12.5-24.2-39.5-37.4-66.8-32.6
	C438.8,388.4,416.3,415,416.3,449.4z"/>
<path class="st0" d="M285.6,354.8c-1.3-0.1-2.5-0.5-3.4-1.4c-3.5-3.6-7-7.1-10.3-10.8c-2.3-2.7-1.3-6.3,1.9-7.3
	c1.9-0.6,3.5,0.1,4.8,1.4c2,2,3.9,4.1,5.9,6.1c1.8,1.9,1.6,1.5,3.3,0.3c5.3-4,10.6-8,15.9-12c0.7-0.5,1.4-1.1,2.2-1.4
	c2-1,4.2-0.5,5.5,1.2c1.3,1.7,1.3,3.9-0.2,5.6c-0.4,0.5-1,1-1.5,1.4c-6.8,5.1-13.5,10.2-20.3,15.4C288.2,354,287,354.7,285.6,354.8z
	"/>
<path class="st2" d="M507.1,443.6c4.3,4.4,8.5,8.7,12.6,12.9c1.5,1.5,3,3.1,4.2,4.9c1.5,2.1,1.6,4.3,0.4,6.6
	c-0.7,1.3-1.5,2.5-2.5,3.6c-4.9,4.9-9.8,9.8-14.7,14.7c-3.3,3.3-5.7,3.4-9.7,1c-1.8-1.1-3.3-2.4-4.7-3.9c-4.2-4.2-8.4-8.4-12.6-12.5
	c-1.4,0.7-2.2,1.9-3.2,2.8c-4,4-7.9,8.1-11.9,12.1c-0.7,0.8-1.6,1.4-2.5,2c-1.9,1.3-4,1.4-6.1,0.4c-1.4-0.7-2.7-1.5-3.8-2.6
	c-4.9-4.9-9.9-9.7-14.8-14.6c-3.2-3.2-3.4-5.5-1.2-9.4c1-1.8,2.3-3.3,3.8-4.8c3.4-3.5,6.8-7,10.2-10.5c2.9-3,3.2-2.2,0-5.2
	c-4-4-8.2-7.8-12-11.9c-4.5-4.8-4.4-8.1,0.1-12.9c4.8-4.9,9.5-9.8,14.4-14.6c3.3-3.3,5.6-3.5,9.6-1.1c1.8,1.1,3.3,2.4,4.8,3.8
	c3.8,3.8,7.7,7.5,11.5,11.3c1,1,1.6,0.9,2.6-0.1c4-4.2,8-8.2,12.1-12.3c1.5-1.5,3-3,4.8-4.2c2.1-1.4,4.2-1.5,6.4-0.4
	c1.3,0.6,2.5,1.4,3.6,2.5c5,4.9,10,9.9,15,14.8c3.1,3.1,3.3,5.4,1.2,9.2c-1.1,1.9-2.5,3.5-4,5C516.1,434.4,511.7,438.9,507.1,443.6z
	 M501.6,477.9c0.5,0,1-0.1,1.3-0.5c3.6-3.6,7.2-7.1,10.7-10.8c0.9-0.9,0.8-2,0-2.9c-0.6-0.8-1.2-1.5-1.9-2.2
	c-3.9-3.9-7.7-7.7-11.6-11.6c-0.8-0.8-1.7-1.6-2.4-2.5c-1.5-1.9-1.7-3.6-0.5-5.7c1.1-1.9,2.3-3.6,3.9-5.1c4-4,7.9-8.1,11.9-12.1
	c0.5-0.6,1.1-1.1,1.5-1.8c0.6-1.1,0.7-2.2-0.3-3.2c-3.4-3.4-6.8-6.8-10.2-10.1c-1.3-1.2-2.2-1.2-3.7-0.1c-0.7,0.5-1.3,1.1-1.9,1.8
	c-4.2,4.3-8.5,8.6-12.7,12.9c-3.5,3.6-7.2,3.6-10.7,0.2c-4.2-4.1-8.4-8.2-12.6-12.2c-0.6-0.6-1.2-1.3-2-1.8c-1.4-1-2.4-0.9-3.7,0.3
	c-3.3,3.3-6.6,6.6-9.8,10c-1.2,1.3-1.2,2.2-0.2,3.7c0.5,0.7,1.1,1.3,1.8,1.9c4.1,4,8.2,8,12.3,12.1c0.6,0.6,1.3,1.2,1.8,1.9
	c1.7,2,1.7,4.1,0.1,6.1c-0.5,0.7-1.2,1.3-1.8,1.9c-4.5,4.7-9.1,9.3-13.6,14.1c-2.1,2.2-2.1,3.3,0.1,5.4c2.8,2.8,5.7,5.6,8.6,8.4
	c2.3,2.3,3.2,2.3,5.6-0.1c1.8-1.7,3.4-3.5,5.1-5.2c3-3.1,6-6.2,9-9.2c2.4-2.4,4.3-2.5,7-0.6c1.1,0.8,2.1,1.7,3.1,2.7
	c4.2,4.1,8.3,8.2,12.4,12.4C499.3,477,500.2,477.9,501.6,477.9z"/>
<path class="st3" d="M155.2,155.9l12.8,12.8c3,3,7.9,3,11,0l12.8-12.8c3-3,3-7.9,0-11l-12.8-12.8c-3-3-7.9-3-11,0l-12.8,12.8
	C152.2,147.9,152.2,152.8,155.2,155.9z"/>
<path class="st3" d="M155.2,193l12.8,12.8c3,3,7.9,3,11,0l12.8-12.8c3-3,3-7.9,0-11l-12.8-12.8c-3-3-7.9-3-11,0l-12.8,12.8
	C152.2,185.1,152.2,190,155.2,193z"/>
<path class="st2" d="M404.6,516.3l10,10c1.5,1.5,3.8,1.5,5.3,0l10-10c1.5-1.5,1.5-3.8,0-5.3l-10-10c-1.5-1.5-3.8-1.5-5.3,0l-10,10
	C403.1,512.5,403.1,514.9,404.6,516.3z"/>
<circle class="st4" cx="480.5" cy="445.1" r="92"/>
</svg>
