<?xml version="1.0" encoding="utf-8"?>
<!-- Generator: Adobe Illustrator 28.0.0, SVG Export Plug-In . SVG Version: 6.00 Build 0)  -->
<svg version="1.1" id="Capa_1" xmlns="http://www.w3.org/2000/svg" xmlns:xlink="http://www.w3.org/1999/xlink" x="0px" y="0px"
	 viewBox="0 0 600 600" style="enable-background:new 0 0 600 600;" xml:space="preserve">
<style type="text/css">
	.st0{fill:#090A0A;}
	.st1{fill:#FDFDFD;}
	.st2{fill:#FF5500;}
	.st3{fill:#6EE1EB;}
	.st4{fill:none;stroke:#FF5500;stroke-width:11;stroke-miterlimit:10;}
</style>
<path class="st0" d="M333.4,310.8c1,0,1.9,0,2.9,0c6-0.1,12.1-0.2,18.1-0.3c4.9,0,6.4,1.5,6.6,6.4c0.1,2.9,0.1,5.9,0.1,8.8
	c0.1,8.5,0.3,17,0.4,25.5c0,2.2,0.1,2.3,2.3,2.2c8.3,0,16.6-0.2,24.9-0.1c11,0.1,20.6,3.8,28.5,11.6c1.2,1.1,1.9,1.1,3.2,0.3
	c12.9-8.3,26.9-13.5,42.2-15.4c6.6-0.8,13.2-1,19.9-0.4c3.7,0.4,7.4,0.4,11,1.3c38.7,9.5,64.7,32.6,74,71.8
	c7.5,31.5-0.7,60-21.9,84.4c-15.7,18.1-35.7,28.9-59.4,32.3c-32.2,4.5-60.2-4.5-83.4-27.5c-12.7-12.6-20.7-27.9-24.6-45.4
	c-0.6-2.5-0.5-2.5-3.2-2.6c-37.2-0.4-74.3-0.8-111.5-1.2c-15.1-0.2-30.2-0.4-45.4-0.5c-3.1,0-5.6-0.9-7-3.8
	c-0.5-1.1-1.4-0.9-2.2-0.9c-4.8-0.1-9.6-0.2-14.3-0.3c-39-0.5-78-1-117.1-1.5c-6.1-0.1-12.3-0.2-18.4-0.3c-0.6,0-1.2,0-1.8-0.1
	c-2.6-0.4-4.3-2.4-4-4.9c0.5-4,0.3-8,0.4-12c0.5-116,1.1-232,1.6-348c0.1-16.9,0.2-33.8,0.2-50.6c0-2.7,0.9-4.9,2-7.2
	c0.7-1.5,2.1-2.3,3.8-2.4c1.3-0.1,2.5,0,3.8,0c47.1,0.4,94.2,0.8,141.4,1.3c31.3,0.3,62.6,0.6,94,0.9c0.3,0,0.6,0,0.9,0
	c4.8,0.1,6.2,1.5,6.3,6.4c0.2,19.5,0.3,39,0.5,58.5c0,3.6,0,3.6,3.6,3.7c7.1,0.2,13.9,1.8,20.4,4.8c7.8,3.5,13.1,9.7,17.4,16.8
	c6.7,11.3,9,23.7,9.5,36.7c0.3,10.2-1.9,19.9-4.5,29.7c-2.8,10.4-6.4,20.5-9,30.8c-3.8,14.7-6.6,29.7-9.4,44.6
	c-1.4,7.4-3,14.7-3.2,22.3c-0.2,7.8,0,15.6,0.3,23.4C333.1,310.1,333.3,310.4,333.4,310.8z M250.9,353.8c0.1-12,0.2-23.7,0.4-35.4
	c0-0.9,0-1.8,0.1-2.6c0.4-2.5,2-4,4.5-4.2c0.8-0.1,1.6,0,2.3-0.1c6.5-0.1,13.1-0.1,19.6-0.2c3.1,0,2.9,0.2,2.9-3.1c0-0.5,0-1,0-1.5
	c-0.4-8.6-0.7-17.1-1.5-25.7c-0.7-7.8-1.3-15.6-2.6-23.2c-2.8-16.1-6.4-31.9-12.1-47.2c-5.3-14.3-9-29-12.5-43.8
	c-2.1-8.6-1.2-17.3,0-25.9c0.7-4.4,1.6-8.8,3.5-12.9c5.5-11.6,14.8-19.1,26.6-23.6c4.7-1.8,9.6-2.7,14.5-3.3
	c2.3-0.3,2.3-0.4,2.2-2.7c-0.2-18-0.3-35.9-0.5-53.9c0-3.7,0.4-3.3-3.3-3.3c-38.2-0.4-76.5-0.7-114.7-1
	c-37.4-0.3-74.7-0.6-112.1-0.9c-3.6,0-3.6,0-3.6,3.5c-0.2,49.8-0.5,99.5-0.7,149.3c-0.4,83.8-0.8,167.6-1.2,251.4
	c0,2.7,0,2.7,2.7,2.8c31.7,0.4,63.4,0.8,95.1,1.2c15.9,0.2,31.8,0.4,47.7,0.6c2.3,0,2.4,0,2.4-2.4c0-7.2,0-14.4,0-21.7
	c0-3.3,0.3-2.9-3-2.9c-1.6,0-3.1,0-4.7,0c-3.9,0-7.8,0-11.7,0c-3.5,0-5.1-1.3-5.7-4.6c-0.2-1.1-0.3-2.3-0.3-3.5c0-1.8,0-3.5,0.1-5.3
	c0.1-1.5-0.3-2.2-1.9-2c-0.7,0.1-1.4,0-2,0c-31.3-0.1-62.6-0.3-93.9-0.4c-1.1,0-2.2,0-3.2-0.2c-2.2-0.5-3.6-2.3-3.6-4.4
	c0-2,1.3-3.6,3.3-4.3c1.1-0.4,2.3-0.3,3.5-0.3c13.3,0.1,26.5,0.2,39.8,0.2c18.5,0.1,37.1,0.1,55.6,0.2c2.8,0,2.6,0.1,2.6-2.5
	c0-5.6,0-11.3,0-17.1c-0.8,0-1.9,0-2.9,0c-31.1,0.1-62.2,0.2-93.4,0.3c-1.3,0-2.5,0.1-3.8-0.2c-2.4-0.6-3.7-2.3-3.7-4.6
	c0.1-2.2,1.7-4,4-4.3c1.1-0.2,2.1-0.1,3.2-0.1c32.6,0,65.2-0.1,97.8-0.1c2.4,0,4.1-0.5,5.7-2.6c2.7-3.6,6.3-6.4,10.2-8.6
	c2.9-1.7,6.1-2.5,9.5-2.5c9.2,0,18.3-0.1,27.5-0.1C243.3,353.8,246.9,353.8,250.9,353.8z M324.7,310.5c0-0.3,0.1-0.7,0-1.1
	c-0.7-4.5-0.6-9.1-0.9-13.7c-0.4-5.5-0.3-11.1,0.3-16.7c0.6-5.9,2-11.7,3.1-17.6c2.7-14.9,5.6-29.7,9.3-44.3
	c2.5-9.9,6-19.5,8.7-29.4c2.4-9.1,4.7-18.1,4.5-27.6c-0.3-11.4-2.1-22.3-7.7-32.4c-5.2-9.5-13-15.3-23.8-17
	c-6.7-1.1-13.4-1.2-20.1-0.5c-10.1,1-19.1,4.3-26.7,11.3c-4.4,4.1-7.5,8.9-9,14.7c-1.8,6.7-2.2,13.5-2.4,20.3
	c-0.1,2.7,0.3,5.5,0.9,8.1c3.5,14.5,7,29,12.3,43c5.9,15.7,9.7,31.9,12.4,48.3c2.8,17.4,3.7,35.1,4.3,52.7c0.1,2.4-0.2,2.4,2.7,2.4
	c9.9-0.1,19.7-0.1,29.6-0.2C323,310.9,323.9,311.1,324.7,310.5z M411.2,371.9c-2.3-2.7-5.1-4.4-8-5.9c-5.6-3-11.8-3.4-17.9-3.4
	c-57.1,0.1-114.1,0.4-171.2,0.5c-3.9,0-7,1.2-9.9,3.5c-3.4,2.6-6,5.8-8,9.6c-0.7,1.3-1.1,2.7-1.1,4.2c0,2.4,0,2.5,2.4,2.5
	c3.2,0,6.4,0,9.7,0c51.2,0.1,102.4,0.2,153.6,0.2c1.4,0,2.7-0.1,4.1,0.3c2,0.7,3.4,2.3,3.4,4.3c0,2.1-1.3,3.9-3.5,4.5
	c-1,0.2-2.1,0.2-3.2,0.2c-36.7-0.1-73.4-0.2-110-0.3c-17.9,0-35.9-0.1-53.8-0.1c-2.9,0-2.7-0.1-2.7,2.7c-0.1,4.9-0.2,9.8-0.3,14.6
	c0,2.4-0.5,2.6,2.5,2.5c0.4,0,0.8,0,1.2,0c30.2,0,60.5,0.1,90.7,0.1c30.2,0,60.5,0.1,90.7,0.2c2.7,0,2.7,0,3.5-2
	c5.7-13.9,14.2-25.7,25.3-35.7C409.3,373.6,410.2,372.8,411.2,371.9z M474.6,358c-2.8,0.1-5.7,0.3-8.5,0.5c-1.7,0.1-3.5,0.3-5.2,0.6
	c-24,4.1-43.7,15.5-58.4,35c-23,30.4-23.6,72.4-0.7,102.4c20,26.2,47.1,37.3,79.8,34c25-2.5,45.6-14,60.8-34
	c20.2-26.6,24.9-56.3,11.4-87.1C538.8,375.6,511,359.8,474.6,358z M379.3,421.2c-1.4,0-2.3,0-3.3,0c-50.8,0-101.6-0.1-152.5-0.1
	c-0.7,0-1.4,0.1-2,0c-1.2-0.1-1.5,0.5-1.5,1.6c0,2.1,0,4.3,0,6.4c0,7.2,0,14.4-0.1,21.7c0,1.4,0.2,2.1,1.9,2c2.5-0.1,5.1,0,7.6,0
	c47.8,0.5,95.6,1,143.4,1.5c1.1,0,2.3,0.3,3.5-0.3c-0.5-5.5-0.3-10.9,0.1-16.4C376.8,432.3,377.9,426.9,379.3,421.2z M306.1,353.8
	c0-0.1,0-0.2,0-0.2c14.5,0,29.1,0,43.6,0c2.7,0,2.8,0,2.7-2.7c-0.2-8.9-0.3-17.7-0.5-26.6c0-1.1,0-2.1,0-3.2c0-0.8-0.3-1.3-1.2-1.2
	c-0.8,0-1.6,0-2.3,0c-18.7,0.2-37.4,0.4-56.2,0.5c-9.8,0.1-19.5,0.2-29.3,0.3c-2.3,0-2.3,0.1-2.4,2.2c-0.2,9.8-0.3,19.5-0.5,29.3
	c0,1.2,0.2,1.9,1.5,1.7c0.7-0.1,1.4,0,2,0C277.8,353.8,291.9,353.8,306.1,353.8z"/>
<path class="st1" d="M250.9,353.8c-4,0-7.6,0-11.2,0c-9.2,0-18.3,0.1-27.5,0.1c-3.4,0-6.5,0.9-9.5,2.5c-3.9,2.2-7.5,5-10.2,8.6
	c-1.5,2.1-3.3,2.6-5.7,2.6c-32.6,0-65.2,0-97.8,0.1c-1.1,0-2.2-0.1-3.2,0.1c-2.4,0.3-3.9,2.1-4,4.3c-0.1,2.3,1.3,4,3.7,4.6
	c1.3,0.3,2.5,0.2,3.8,0.2c31.1-0.1,62.2-0.2,93.4-0.3c1.1,0,2.1,0,2.9,0c0,5.9,0,11.5,0,17.1c0,2.6,0.2,2.5-2.6,2.5
	c-18.5-0.1-37.1-0.1-55.6-0.2c-13.3-0.1-26.5-0.1-39.8-0.2c-1.2,0-2.3-0.1-3.5,0.3c-2,0.7-3.3,2.3-3.3,4.3c0,2.1,1.4,3.9,3.6,4.4
	c1,0.2,2.1,0.2,3.2,0.2c31.3,0.1,62.6,0.3,93.9,0.4c0.7,0,1.4,0.1,2,0c1.6-0.2,2,0.6,1.9,2c-0.1,1.7-0.1,3.5-0.1,5.3
	c0,1.2,0.1,2.3,0.3,3.5c0.6,3.3,2.2,4.6,5.7,4.6c3.9,0,7.8,0,11.7,0c1.6,0,3.1,0,4.7,0c3.3,0,3-0.4,3,2.9c0,7.2,0,14.4,0,21.7
	c0,2.4,0,2.4-2.4,2.4c-15.9-0.2-31.8-0.4-47.7-0.6c-31.7-0.4-63.4-0.8-95.1-1.2c-2.7,0-2.7,0-2.7-2.8c0.4-83.8,0.8-167.6,1.2-251.4
	c0.2-49.8,0.5-99.5,0.7-149.3c0-3.5,0-3.5,3.6-3.5c37.4,0.3,74.7,0.6,112.1,0.9c38.2,0.3,76.5,0.7,114.7,1c3.7,0,3.2-0.3,3.3,3.3
	c0.2,17.9,0.3,35.9,0.5,53.9c0,2.3,0,2.4-2.2,2.7c-5,0.6-9.9,1.5-14.5,3.3c-11.8,4.5-21.1,12-26.6,23.6c-1.9,4.1-2.9,8.5-3.5,12.9
	c-1.3,8.6-2.1,17.3,0,25.9c3.5,14.8,7.2,29.5,12.5,43.8c5.7,15.3,9.4,31.1,12.1,47.2c1.3,7.7,1.9,15.5,2.6,23.2
	c0.7,8.6,1.1,17.1,1.5,25.7c0,0.5,0,1,0,1.5c0,3.4,0.2,3.1-2.9,3.1c-6.5,0.1-13.1,0.1-19.6,0.2c-0.8,0-1.6,0-2.3,0.1
	c-2.5,0.3-4.1,1.7-4.5,4.2c-0.1,0.9-0.1,1.8-0.1,2.6C251.1,330.1,251,341.8,250.9,353.8z M180,93.7C180,93.7,180,93.8,180,93.7
	c31.3,0.1,62.6,0.1,93.9,0.1c4.6,0,6.3-1.7,6.5-6.3c0.1-5.5,0.3-10.9,0.4-16.4c0.1-3.6,0.2-7.2,0.2-10.8c0-3.3-1.1-4.7-4.3-5.7
	c-1.5-0.5-3.1-0.5-4.6-0.5c-61.8,0.2-123.7,0.4-185.5,0.6c-0.8,0-1.6,0-2.3,0c-3.2,0.3-4.9,2.1-5.1,5.3c0,0.5,0,1,0,1.5
	c0,8.4,0.1,16.8,0.1,25.2c0,0.7,0,1.4,0.1,2c0.4,3.2,2.5,5,5.7,5c1.6,0,3.1-0.1,4.7-0.1C119.7,93.7,149.9,93.7,180,93.7z
	 M149.2,349.9c34.5,0,62.2-27.5,62.4-61.9c0.2-34.9-28.6-63.6-63.7-63.6c-34.5,0-62.4,27.9-62.4,62.2
	C85.5,321.4,114.2,349.9,149.2,349.9z M156.1,207.2c0-0.1,0-0.1,0-0.2c23.5,0,47,0,70.5,0c1.3,0,2.6,0,3.8-0.2
	c2-0.4,3.3-2.2,3.4-4.2c0-2.1-1.4-4-3.5-4.5c-0.9-0.2-1.9-0.2-2.9-0.2c-47.6,0-95.2,0-142.8,0.1c-0.9,0-1.8,0-2.6,0.1
	c-2.1,0.4-3.6,2.2-3.7,4.3c-0.1,2.2,1.3,3.8,3.5,4.5c1.2,0.4,2.5,0.3,3.8,0.3C109.1,207.2,132.6,207.2,156.1,207.2z M154.1,149.8
	c0,0,0,0.1,0,0.1c23.4,0,46.8,0,70.2,0c1.1,0,2.2,0.1,3.2-0.1c2.6-0.4,4.3-2.4,4.2-4.8c-0.1-2.3-1.9-4-4.4-4.3
	c-1-0.1-1.9-0.1-2.9-0.1c-20.3,0-40.6,0-60.9,0c-27.2,0-54.4-0.1-81.6-0.2c-2.8,0-5,1.9-5.1,4.5c-0.1,2.6,2.2,4.9,5.1,5
	c1.8,0,3.5-0.1,5.3-0.1C109.5,149.8,131.8,149.8,154.1,149.8z M155.2,178.7c0-0.1,0-0.2,0-0.3c23.3,0,46.6,0,70,0
	c1.2,0,2.4,0,3.5-0.2c2.2-0.4,3.6-2.2,3.7-4.3c0-2.2-1.5-4.1-3.8-4.5c-0.8-0.1-1.6-0.1-2.3-0.1c-47.1,0.1-94.2,0.2-141.4,0.2
	c-1,0-1.9,0-2.9,0.3c-2.3,0.7-3.7,2.5-3.5,4.7c0.2,2.1,1.7,3.8,3.9,4.1c1,0.2,1.9,0.1,2.9,0.1C108.6,178.7,131.9,178.7,155.2,178.7z
	 M154.2,121.3c0-0.1,0-0.2,0-0.3c23.1,0,46.2,0,69.3,0c1.2,0,2.4,0,3.5-0.2c2.4-0.4,3.9-2.2,3.8-4.4c0-2.2-1.6-4.1-3.9-4.4
	c-1-0.1-1.9-0.1-2.9-0.1c-46.4,0-92.8,0.1-139.3,0.2c-0.9,0-1.8,0-2.6,0.1c-2.5,0.4-4.2,2.3-4.1,4.6c0,2.2,1.7,4.2,4.2,4.5
	c1.1,0.2,2.1,0.1,3.2,0.1C108.4,121.3,131.3,121.3,154.2,121.3z M121.7,434.5C121.7,434.5,121.7,434.5,121.7,434.5
	c11.7,0,23.4,0,35.1,0c1.1,0,2.2,0,3.2-0.2c2.1-0.5,3.4-2.1,3.5-4.1c0.1-2.2-1.1-3.9-3.3-4.6c-0.9-0.3-1.9-0.3-2.9-0.3
	c-23.7,0-47.4,0-71.1,0c-1.1,0-2.1,0-3.2,0.4c-1.9,0.7-3,2.3-3,4.2c0,2,1.1,3.5,3,4.2c1.1,0.5,2.3,0.4,3.5,0.4
	C98.3,434.5,110,434.5,121.7,434.5z"/>
<path class="st1" d="M324.7,310.5c-0.9,0.6-1.8,0.3-2.6,0.4c-9.9,0.1-19.7,0.1-29.6,0.2c-2.9,0-2.6,0-2.7-2.4
	c-0.5-17.7-1.4-35.3-4.3-52.7c-2.7-16.5-6.5-32.7-12.4-48.3c-5.2-14-8.8-28.5-12.3-43c-0.6-2.7-1-5.4-0.9-8.1
	c0.2-6.8,0.5-13.6,2.4-20.3c1.6-5.8,4.7-10.6,9-14.7c7.5-7,16.6-10.3,26.7-11.3c6.7-0.7,13.4-0.6,20.1,0.5
	c10.8,1.8,18.5,7.5,23.8,17c5.5,10.1,7.4,21,7.7,32.4c0.2,9.5-2.1,18.5-4.5,27.6c-2.6,9.9-6.1,19.5-8.7,29.4
	c-3.7,14.6-6.6,29.5-9.3,44.3c-1.1,5.8-2.4,11.6-3.1,17.6c-0.6,5.6-0.7,11.1-0.3,16.7c0.3,4.6,0.2,9.2,0.9,13.7
	C324.8,309.8,324.8,310.2,324.7,310.5z M305.1,179.5c1.5-0.1,2.9-0.1,4.4-0.3c1.5-0.2,3.1-0.6,4.5-1.1c13.6-4.3,21.5-18.3,17.9-31.9
	c-3.8-14.1-17.4-21-29.1-19.8c-4.4,0.5-8.4,1.9-12.3,4.2c-8.2,4.8-13.7,14.9-12.7,24.4C279.2,169,290.7,179.3,305.1,179.5z"/>
<path class="st1" d="M411.2,371.9c-1,0.9-1.8,1.7-2.7,2.4c-11.1,10-19.6,21.9-25.3,35.7c-0.8,2-0.8,2-3.5,2
	c-30.2-0.1-60.5-0.1-90.7-0.2c-30.2,0-60.5-0.1-90.7-0.1c-0.4,0-0.8,0-1.2,0c-3,0-2.5-0.1-2.5-2.5c0.1-4.9,0.2-9.8,0.3-14.6
	c0-2.8-0.2-2.7,2.7-2.7c17.9,0,35.9,0.1,53.8,0.1c36.7,0.1,73.4,0.2,110,0.3c1.1,0,2.2,0,3.2-0.2c2.2-0.5,3.6-2.4,3.5-4.5
	c0-2-1.3-3.6-3.4-4.3c-1.3-0.4-2.7-0.3-4.1-0.3c-51.2-0.1-102.4-0.2-153.6-0.2c-3.2,0-6.4,0-9.7,0c-2.4,0-2.4-0.1-2.4-2.5
	c0-1.5,0.5-2.9,1.1-4.2c1.9-3.8,4.6-7,8-9.6c2.9-2.2,6-3.5,9.9-3.5c57.1-0.1,114.1-0.3,171.2-0.5c6.1,0,12.3,0.4,17.9,3.4
	C406.1,367.5,408.9,369.3,411.2,371.9z"/>
<path class="st1" d="M379.3,421.2c-1.4,5.7-2.5,11-2.9,16.5c-0.4,5.4-0.5,10.9-0.1,16.4c-1.2,0.5-2.4,0.3-3.5,0.3
	c-47.8-0.5-95.6-1-143.4-1.5c-2.5,0-5.1-0.1-7.6,0c-1.7,0.1-1.9-0.6-1.9-2c0.1-7.2,0.1-14.4,0.1-21.7c0-2.1,0-4.3,0-6.4
	c0-1,0.2-1.7,1.5-1.6c0.7,0.1,1.4,0,2,0c50.8,0,101.6,0.1,152.5,0.1C377,421.2,377.9,421.2,379.3,421.2z"/>
<path class="st1" d="M306.1,353.8c-14.1,0-28.3,0-42.4,0c-0.7,0-1.4-0.1-2,0c-1.4,0.1-1.6-0.5-1.5-1.7c0.2-9.7,0.3-19.5,0.5-29.3
	c0-2.1,0.1-2.1,2.4-2.2c9.8-0.1,19.5-0.2,29.3-0.3c18.7-0.2,37.4-0.4,56.2-0.5c0.8,0,1.6,0,2.3,0c0.9,0,1.2,0.4,1.2,1.2
	c0,1.1,0,2.1,0,3.2c0.2,8.9,0.4,17.7,0.5,26.6c0,2.6,0,2.7-2.7,2.7c-14.5,0-29.1,0-43.6,0C306.1,353.6,306.1,353.7,306.1,353.8z"/>
<path class="st0" d="M180,93.7c-30.1,0-60.3,0-90.4,0c-1.6,0-3.1,0.1-4.7,0.1c-3.2,0-5.3-1.9-5.7-5c-0.1-0.7-0.1-1.4-0.1-2
	c0-8.4-0.1-16.8-0.1-25.2c0-0.5,0-1,0-1.5c0.2-3.2,1.9-5,5.1-5.3c0.8-0.1,1.6,0,2.3,0c61.8-0.2,123.7-0.4,185.5-0.6
	c1.6,0,3.1,0,4.6,0.5c3.2,1,4.3,2.4,4.3,5.7c0,3.6-0.1,7.2-0.2,10.8c-0.1,5.5-0.3,10.9-0.4,16.4c-0.1,4.6-1.8,6.3-6.5,6.3
	C242.6,93.8,211.3,93.8,180,93.7C180,93.8,180,93.7,180,93.7z M179.7,84.4C179.7,84.5,179.7,84.5,179.7,84.4
	c12.8,0.1,25.5,0.1,38.3,0.1c17,0,33.9,0,50.9,0c2.2,0,2.3,0.3,2.3-2.2c0.1-5.2,0.3-10.3,0.4-15.5c0.1-3.5,0-3.5-3.5-3.5
	c-55.2,0.2-110.4,0.4-165.6,0.6c-3.9,0-7.8,0-11.7,0c-2.6,0-2.5-0.2-2.5,2.6c0,4.9,0,9.8,0.1,14.6c0,3.7-0.5,3.2,3.3,3.2
	C121,84.4,150.4,84.4,179.7,84.4z"/>
<path class="st0" d="M149.2,349.9c-35,0-63.7-28.5-63.7-63.3c0-34.4,27.9-62.2,62.4-62.2c35.1,0,63.8,28.7,63.7,63.6
	C211.4,322.4,183.7,349.9,149.2,349.9z M94.8,286.4c0,29.8,24.3,54.2,54.1,54.3c29.6,0.1,53.5-23.4,53.5-52.8
	c0.1-29.7-24.4-54.2-54.1-54.3C118.5,233.6,94.8,257,94.8,286.4z"/>
<path class="st0" d="M156.1,207.2c-23.5,0-47,0-70.5,0c-1.3,0-2.5,0.1-3.8-0.3c-2.2-0.6-3.5-2.3-3.5-4.5c0-2.1,1.5-3.9,3.7-4.3
	c0.8-0.2,1.7-0.1,2.6-0.1c47.6,0,95.2,0,142.8-0.1c1,0,2,0,2.9,0.2c2.1,0.4,3.5,2.3,3.5,4.5c0,2-1.4,3.8-3.4,4.2
	c-1.2,0.2-2.5,0.2-3.8,0.2c-23.5,0-47,0-70.5,0C156.1,207.1,156.1,207.1,156.1,207.2z"/>
<path class="st0" d="M154.1,149.8c-22.3,0-44.7,0-67,0c-1.8,0-3.5,0.1-5.3,0.1c-2.9,0-5.2-2.3-5.1-5c0.1-2.6,2.3-4.5,5.1-4.5
	c27.2,0.1,54.4,0.1,81.6,0.2c20.3,0,40.6,0,60.9,0c1,0,2-0.1,2.9,0.1c2.5,0.3,4.3,2,4.4,4.3c0.1,2.4-1.5,4.4-4.2,4.8
	c-1.1,0.2-2.1,0.1-3.2,0.1c-23.4,0-46.8,0-70.2,0C154.1,149.9,154.1,149.8,154.1,149.8z"/>
<path class="st0" d="M155.2,178.7c-23.3,0-46.6,0-70,0c-1,0-2,0-2.9-0.1c-2.2-0.4-3.7-2-3.9-4.1c-0.2-2.3,1.2-4.1,3.5-4.7
	c1-0.3,1.9-0.3,2.9-0.3c47.1-0.1,94.2-0.2,141.4-0.2c0.8,0,1.6,0,2.3,0.1c2.3,0.4,3.8,2.3,3.8,4.5c0,2.1-1.5,3.9-3.7,4.3
	c-1.1,0.2-2.3,0.2-3.5,0.2c-23.3,0-46.6,0-70,0C155.2,178.5,155.2,178.6,155.2,178.7z"/>
<path class="st0" d="M154.2,121.3c-22.9,0-45.8,0-68.8,0c-1.1,0-2.2,0.1-3.2-0.1c-2.5-0.4-4.2-2.3-4.2-4.5c0-2.2,1.7-4.2,4.1-4.6
	c0.9-0.1,1.8-0.1,2.6-0.1c46.4-0.1,92.8-0.1,139.3-0.2c1,0,2,0,2.9,0.1c2.3,0.3,3.9,2.2,3.9,4.4c0,2.3-1.5,4.1-3.8,4.4
	c-1.1,0.2-2.3,0.2-3.5,0.2c-23.1,0-46.2,0-69.3,0C154.2,121.1,154.2,121.2,154.2,121.3z"/>
<path class="st0" d="M121.7,434.5c-11.7,0-23.4,0-35.1,0c-1.2,0-2.3,0.1-3.5-0.4c-1.9-0.8-3-2.3-3-4.2c0-1.9,1.1-3.5,3-4.2
	c1-0.4,2.1-0.4,3.2-0.4c23.7,0,47.4,0,71.1,0c1,0,1.9,0,2.9,0.3c2.2,0.7,3.4,2.4,3.3,4.6c-0.1,2-1.4,3.7-3.5,4.1
	c-1,0.2-2.1,0.2-3.2,0.2C145.1,434.5,133.4,434.5,121.7,434.5C121.7,434.5,121.7,434.5,121.7,434.5z"/>
<path class="st0" d="M305.1,179.5c-14.4-0.1-25.9-10.4-27.3-24.6c-0.9-9.5,4.5-19.6,12.7-24.4c3.9-2.3,7.9-3.7,12.3-4.2
	c11.7-1.2,25.4,5.7,29.1,19.8c3.6,13.6-4.3,27.5-17.9,31.9c-1.5,0.5-3,0.8-4.5,1.1C308,179.3,306.5,179.4,305.1,179.5z M305.2,135.4
	c-1.5-0.1-3.1,0.2-4.7,0.6c-6.9,1.9-11.6,6.3-13.2,13.4c-1.5,6.9,0.9,12.5,6.3,16.8c7.3,5.9,18.6,5.1,25.1-1.7
	c3.7-3.9,5.4-8.5,4.7-13.9C322.2,141.8,314.6,135.5,305.2,135.4z"/>
<path class="st2" d="M473.8,517.1c-36.2,0-65.9-25.3-71.5-60.2c-5-31.3,11.8-63.2,41-76.8c22.2-10.4,44.5-10.2,66.1,1.5
	c20.4,11,32.5,28.4,36.3,51.3c6.3,38.6-20.2,76.1-59.8,83.1C481.6,516.8,477.3,517.2,473.8,517.1z M537.5,443.9
	c-0.1-2.7-0.1-5.7-0.6-8.7c-3.6-22-15.4-38.1-35.6-47.5c-19-8.8-38.2-7.9-56.6,1.8c-29.5,15.6-42.1,50.9-29.1,81.2
	c11.2,26.2,39.4,41.3,68.1,36.5C514.7,502,537.4,475.4,537.5,443.9z"/>
<path class="st1" d="M179.7,84.4c-29.3,0-58.7,0-88,0c-3.8,0-3.3,0.5-3.3-3.2c0-4.9,0-9.8-0.1-14.6c0-2.8-0.1-2.6,2.5-2.6
	c3.9,0,7.8,0,11.7,0c55.2-0.2,110.4-0.4,165.6-0.6c3.6,0,3.6,0,3.5,3.5c-0.1,5.2-0.2,10.3-0.4,15.5c-0.1,2.4-0.1,2.2-2.3,2.2
	c-17,0-33.9,0-50.9,0C205.3,84.5,192.5,84.5,179.7,84.4C179.7,84.5,179.7,84.5,179.7,84.4z"/>
<path class="st1" d="M94.8,286.4c0-29.4,23.7-52.8,53.5-52.7c29.8,0.1,54.2,24.6,54.1,54.3c-0.1,29.4-23.9,52.9-53.5,52.8
	C119.1,340.7,94.7,316.2,94.8,286.4z M126.9,282.8c-3.4,0-5.5,3.2-4.3,6.2c0.4,1,1.2,1.8,2,2.5c4.3,4.1,8.6,8.2,13,12.2
	c2.8,2.6,4.9,2.6,7.7,0.1c6.7-5.9,13.2-12.1,19.5-18.5c3.4-3.4,7-6.5,9.8-10.4c1.6-2.2,1.4-4.5-0.4-6c-1.7-1.4-3.9-1.1-5.8,0.7
	c-8,8.1-16.8,15.4-25,23.3c-2.2,2.1-1.8,1.8-3.9-0.1c-3-2.8-6-5.6-8.9-8.4C129.5,283.5,128.3,282.7,126.9,282.8z"/>
<path class="st1" d="M305.2,135.4c9.4,0.1,17,6.4,18.2,15.2c0.7,5.4-1,10-4.7,13.9c-6.5,6.8-17.7,7.6-25.1,1.7
	c-5.4-4.3-7.8-10-6.3-16.8c1.6-7.1,6.2-11.5,13.2-13.4C302.1,135.6,303.7,135.3,305.2,135.4z"/>
<path class="st0" d="M126.9,282.8c1.4-0.1,2.6,0.7,3.7,1.8c3,2.8,5.9,5.6,8.9,8.4c2.1,1.9,1.6,2.2,3.9,0.1c8.2-7.9,17-15.2,25-23.3
	c1.8-1.8,4.1-2.1,5.8-0.7c1.8,1.5,2.1,3.8,0.4,6c-2.9,3.9-6.5,7-9.8,10.4c-6.3,6.4-12.8,12.5-19.5,18.5c-2.8,2.5-4.9,2.5-7.7-0.1
	c-4.3-4.1-8.6-8.2-13-12.2c-0.8-0.7-1.5-1.5-2-2.5C121.3,286,123.5,282.8,126.9,282.8z"/>
<path class="st2" d="M501.3,443.5c4.4,4.5,8.5,8.7,12.7,12.9c1.6,1.6,3.1,3.2,4.3,5.1c1.3,2,1.3,4,0.3,6.1c-0.7,1.5-1.7,2.8-2.9,4
	c-4.8,4.7-9.5,9.5-14.3,14.2c-3.5,3.4-5.8,3.7-9.9,1.1c-1.7-1-3.1-2.3-4.5-3.7c-3.9-3.9-7.8-7.7-11.6-11.6c-1.1-1.1-1.7-1.1-2.8,0
	c-4.4,4.6-8.8,9.1-13.3,13.6c-0.3,0.3-0.6,0.5-0.9,0.8c-3.6,3-6.5,3.2-10.3,0.4c-0.9-0.6-1.6-1.4-2.4-2.2
	c-4.5-4.4-8.9-8.7-13.4-13.1c-0.4-0.4-0.8-0.8-1.2-1.3c-2.3-2.6-2.6-4.7-1-7.8c1.1-2.2,2.6-4.1,4.4-5.8c3.8-3.9,7.6-7.9,11.4-11.7
	c1.1-1.1,1.1-1.7,0-2.8c-4.5-4.3-9-8.6-13.3-13.1c-4.5-4.7-4.4-8.1,0.2-12.9c4.7-4.9,9.5-9.8,14.4-14.6c3.2-3.2,5.6-3.5,9.4-1.2
	c1.9,1.1,3.5,2.5,5,4c4.2,4.1,8.4,8.2,12.6,12.3c1.3-0.7,2-1.7,2.9-2.6c4.3-4.3,8.6-8.7,13-13.1c0.4-0.4,0.9-0.8,1.3-1.2
	c3.2-2.5,5.4-2.6,8.8-0.5c1.1,0.7,2,1.5,2.9,2.4c4.6,4.6,9.3,9.2,13.9,13.8c3.5,3.5,3.8,5.9,1.2,10.1c-1,1.7-2.3,3.1-3.7,4.5
	C510.3,434.4,505.8,438.9,501.3,443.5z M509.2,421.2c0-0.9-0.5-1.4-1-2c-3.2-3.2-6.3-6.3-9.6-9.5c-1.7-1.6-2.7-1.6-4.6,0
	c-0.5,0.4-1,0.9-1.5,1.4c-4.1,4.2-8.4,8.2-12.2,12.6c-3,3.4-8.2,3.9-11.5,0.3c-3.1-3.6-6.8-6.7-10.2-10.1c-1.1-1.1-2.2-2.2-3.4-3.2
	c-1.8-1.5-2.9-1.5-4.5,0.1c-3,3-6.1,6.1-9,9.2c-1.9,2-1.9,2.9,0,5c0.4,0.4,0.8,0.8,1.2,1.2c4.2,4.1,8.4,8.2,12.5,12.3
	c3.8,3.7,3.8,5.6,0.2,9.3c-1.1,1.2-2.3,2.4-3.5,3.6c-3.5,3.6-7,7.1-10.4,10.7c-2.3,2.4-2.2,3.4,0,5.6c2.8,2.8,5.7,5.6,8.6,8.4
	c2.2,2.1,3.2,2.1,5.4,0c1.8-1.8,3.6-3.6,5.3-5.4c2.9-2.9,5.7-5.9,8.6-8.8c2.8-2.8,4.8-2.9,7.9-0.5c1,0.8,1.9,1.7,2.8,2.6
	c4.2,4.1,8.3,8.3,12.4,12.4c2.2,2.1,3.2,2.1,5.4-0.1c2.8-2.7,5.5-5.5,8.3-8.3c2.5-2.5,2.5-3.4-0.1-6c-2.9-3-5.9-5.9-8.9-8.9
	c-1.8-1.8-3.6-3.5-5.4-5.4c-2-2.2-2-3.8-0.6-6.3c1.1-1.9,2.4-3.5,3.9-5c4-4,7.9-8.1,11.9-12.1C508.4,423.3,509.1,422.4,509.2,421.2z
	"/>
<path class="st3" d="M39.2,168.1l12.3,12.3c2.9,2.9,7.7,2.9,10.6,0l12.3-12.3c2.9-2.9,2.9-7.7,0-10.6l-12.3-12.3
	c-2.9-2.9-7.7-2.9-10.6,0l-12.3,12.3C36.2,160.4,36.2,165.1,39.2,168.1z"/>
<path class="st3" d="M39.2,204l12.3,12.3c2.9,2.9,7.7,2.9,10.6,0L74.4,204c2.9-2.9,2.9-7.7,0-10.6l-12.3-12.3
	c-2.9-2.9-7.7-2.9-10.6,0l-12.3,12.3C36.2,196.4,36.2,201.1,39.2,204z"/>
<path class="st2" d="M399.9,516.6l9.7,9.7c1.4,1.4,3.7,1.4,5.1,0l9.7-9.7c1.4-1.4,1.4-3.7,0-5.1l-9.7-9.7c-1.4-1.4-3.7-1.4-5.1,0
	l-9.7,9.7C398.5,512.8,398.5,515.1,399.9,516.6z"/>
<circle class="st4" cx="473.7" cy="444.6" r="91.5"/>
</svg>
