<?xml version="1.0" encoding="utf-8"?>
<!-- Generator: Adobe Illustrator 28.0.0, SVG Export Plug-In . SVG Version: 6.00 Build 0)  -->
<svg version="1.1" id="Capa_1" xmlns="http://www.w3.org/2000/svg" xmlns:xlink="http://www.w3.org/1999/xlink" x="0px" y="0px"
	 viewBox="0 0 600 600" style="enable-background:new 0 0 600 600;" xml:space="preserve">
<style type="text/css">
	.st0{fill:#090909;}
	.st1{fill:#FCFCFC;}
	.st2{fill:#DBB300;}
	.st3{fill:#6EE1EB;}
	.st4{fill:none;stroke:#DBB300;stroke-width:11;stroke-miterlimit:10;}
</style>
<path class="st0" d="M387.6,479.1c-7.4-20.6-7.9-41-1.5-61.5c6.4-20.3,18.5-36.7,35.8-49.6c-1.3-0.7-2.3-0.5-3.3-0.5
	c-21.5-0.1-42.9-0.1-64.4-0.1c-1.1,0-2.2,0-3.2-0.1c-2.4-0.3-3.9-2.1-3.9-4.3c0-2.3,1.5-4.1,3.8-4.5c1.1-0.2,2.1-0.1,3.2-0.1
	c27,0,54.1,0,81.1,0.1c2.1,0,4-0.3,5.9-1.2c1.5-0.7,3.1-1.3,4.6-1.9c2.2-0.9,2.2-0.8,2.3-3.3c0.1-21.4,0.2-42.7,0.3-64.1
	c0.1-25.1,0.2-50.2,0.3-75.2c0-0.4,0-0.8,0-1.2c0.3-1.6-0.6-1.9-2-1.9c-8.9,0-17.8-0.1-26.6-0.3c-2.6,0-5.3,0-7.9-0.3
	c-9.5-1.3-13-5.2-15.5-13.2c-0.3-1-0.2-2.1-0.2-3.2c-0.1-14.2-0.3-28.5-0.4-42.7c0-0.6,0-1.2,0-1.8c0-0.7-0.4-1-1.1-1
	c-0.6,0-1.2,0-1.8,0c-30.1-0.3-60.3-0.7-90.4-1c-3.2,0-6.1,0.3-8.7,2.5c-3.4,2.8-5.3,6.1-5.3,10.6c0,1.3-0.1,2.5-0.1,3.8
	c0,37.3,0,74.5,0,111.8c0,1.3,0.1,2.5-0.3,3.8c-0.6,2.2-2.4,3.6-4.4,3.6c-2,0-3.9-1.5-4.4-3.7c-0.2-0.8-0.2-1.7-0.2-2.6
	c0-38.9-0.1-77.9,0.1-116.8c0-9.3,4.5-16.4,13.1-20.5c2.8-1.4,5.8-1.6,8.8-1.6c32.4,0.3,64.8,0.7,97.2,1c3.8,0,6.5,1.3,9.1,4.2
	c15.7,17.9,31.5,35.7,47.3,53.5c2.2,2.5,3.1,5.1,3.1,8.4c-0.3,47.9-0.5,95.8-0.7,143.7c0,1.2,0,2.3,0,3.6c2.1,0.2,3.9-0.5,5.8-0.9
	c8.4-1.4,16.8-1.9,25.4-1.1c3.5,0.3,7,0.4,10.4,1.2c42.2,9.2,69.2,40.1,75.3,76.4c5.1,30.2-3,57.1-23.2,80
	c-16.2,18.4-36.8,29.3-61.2,32.3c-31.5,3.8-58.7-5.5-81.4-27.8c-6.2-6.1-11.4-13.1-15.4-20.9c-0.9-1.8-1.9-2.5-4-2.5
	c-62.2,0.3-124.5,0.5-186.7,0.7c-3.7,0-7.4,0.3-11.1,0.4c-6.4,0.2-12.1-1.5-17.1-5.6c-4.7-3.8-6.2-9-6.3-14.8c0-5,0-10,0-14.9
	c0.1-125,0.2-250,0.3-375c0-6-0.2-11.9-0.4-17.8c-0.2-6.9,0.9-13.6,4-19.9c1.7-3.5,4.1-6.4,7.7-8.1c2.2-1.1,4.6-1.5,7.1-1.5
	c62.1,0,124.1-0.1,186.2-0.1c5.7,0,11.3-0.4,16.9,0.7c6.1,1.1,11.5,3.6,15.7,8.3c2.8,3.1,4.2,6.6,4.1,10.9
	c-0.3,21.9-0.5,43.7-0.7,65.6c0,1.1,0,2.2-0.1,3.2c-0.4,2.5-2.3,4.1-4.6,4c-2.2-0.1-3.9-1.6-4.3-4.1c-0.2-1.1-0.1-2.3-0.1-3.5
	c0.2-20.1,0.4-40.2,0.6-60.3c0-1.5,0-2.9-0.1-4.4c-0.1-3.8-1.9-6.7-5.2-8.6c-2.9-1.8-5.9-2.9-9.4-2.8c-10.7,0.1-21.5,0-32.2,0.1
	c-2.4,0-2.5,0-3.1,2.4c-1.8,7.1-3.6,14.2-5.3,21.3c-1,3.9-3.3,6.8-6.6,8.9c-0.8,0.5-1.8,0.8-2.8,0.8c-1.1,0.1-2.1,0.1-3.2,0.1
	c-30.1,0-60.3-0.1-90.4-0.1c-2.2,0-4.3-0.2-6.4-0.8c-3.8-1.1-6.1-3.8-6.9-7.6c-1.5-7.5-3.4-14.8-5-22.3c-0.6-2.6-0.6-2.6-3.2-2.6
	c-10.9,0-21.9,0.1-32.8,0c-4.3-0.1-6.8,1.8-8.3,5.5c-1.6,3.9-2.3,8-2.2,12.3c0.1,19.2,0,38.4,0,57.7c-0.1,116.9-0.2,233.8-0.2,350.7
	c0,1.3,0,2.5,0.2,3.8c0.6,5.3,4.2,8.8,9.6,9.2c0.9,0.1,1.8,0,2.6,0c65.1-0.2,130.2-0.5,195.2-0.7
	C385.5,479.1,386.3,479.1,387.6,479.1z M566.7,442.6c-0.1-5.2-0.6-11.1-1.8-17c-8.6-40-44-68-85.8-67.6c-15,0.2-29.1,4-42.2,11.2
	c-31.2,17.1-48.7,50.7-45.7,84c2,21.8,10.9,40.3,27,55.1c25.3,23.4,62.1,29.3,94.7,15.6C545,510.4,566.6,478.1,566.7,442.6z
	 M341.5,40.8c-36.4,0-72.6,0-109.1,0c1.8,7.7,3.6,15.2,5.3,22.7c0.3,1.1,1,1,1.7,1c5.9-0.2,11.9,0.5,17.8,0.5
	c21.8-0.1,43.7,0,65.5,0.1c3.5,0,7-0.1,10.5,0.1c1.4,0,1.9-0.5,2.2-1.7c0.8-3.1,1.7-6.2,2.5-9.3C339.2,49.7,340.3,45.3,341.5,40.8z
	 M446.8,200.4c-14-15.7-27.4-30.8-40.9-46c0,0-0.2,0-0.2,0c-0.4,0.1,0.1,0.3-0.4,0.1c0.2,12.2,0.2,24.4,0.5,36.6
	c0.1,6.1,3.5,9.2,9.6,9.2c9.5,0,18.9,0.1,28.4,0.1C444.5,200.4,445.2,200.4,446.8,200.4z"/>
<path class="st0" d="M289.7,381.3c-21.9,0-39.5-17.9-39.4-39.9c0.2-22.2,18.3-40.3,40.3-40.3c21.8,0,39.6,17.9,39.5,39.8
	C330.2,363.2,312,381.3,289.7,381.3z M321,340.8c0-17.1-13.5-30.6-30.6-30.5c-17,0.1-30.9,14-30.9,31.2c0,17.1,13.6,30.9,30.5,30.8
	C307.2,372.2,321,358.1,321,340.8z"/>
<path class="st0" d="M371,239.7c-18.4,0-36.9,0-55.3,0c-1.1,0-2.2,0-3.2-0.1c-2.3-0.3-3.9-2.1-3.9-4.4c0-2.2,1.5-4.1,3.9-4.4
	c0.9-0.1,1.8-0.1,2.6-0.1c37.3,0.1,74.5,0.1,111.8,0.2c1.1,0,2.1-0.1,3.2,0.3c2.1,0.7,3.3,2.2,3.3,4.3c0,2.2-1.3,3.8-3.6,4.4
	c-1.2,0.3-2.3,0.2-3.5,0.2c-18.4,0-36.9,0-55.3,0C371,239.9,371,239.8,371,239.7z"/>
<path class="st0" d="M370.4,259.8c18.3,0,36.7,0,55,0c1.2,0,2.4,0,3.5,0.2c2.2,0.4,3.7,2.2,3.7,4.3c0,2.1-1.5,3.9-3.6,4.4
	c-0.8,0.2-1.7,0.2-2.6,0.1c-36.9-0.3-73.9-0.5-110.8-0.8c-1.1,0-2.2-0.1-3.2-0.3c-2.1-0.5-3.4-2.1-3.5-4.1c-0.1-2,1.2-3.7,3.2-4.4
	c1.1-0.4,2.3-0.3,3.5-0.3c18.3,0.1,36.7,0.3,55,0.4C370.4,259.5,370.4,259.6,370.4,259.8z"/>
<path class="st0" d="M380.6,297c-15.1,0-30.2,0-45.4,0c-1,0-2,0-2.9-0.1c-2.3-0.4-3.8-2.3-3.8-4.5c0.1-2.2,1.7-3.9,4.1-4.2
	c0.9-0.1,1.8-0.1,2.6-0.1c30.4,0.1,60.9,0.1,91.3,0.2c1.2,0,2.3-0.1,3.5,0.3c2,0.8,3.2,2.6,3.1,4.5c-0.2,2-1.6,3.6-3.7,4
	c-1.1,0.2-2.3,0.2-3.5,0.2c-15.1,0-30.2,0-45.4,0C380.6,297.2,380.6,297.1,380.6,297z"/>
<path class="st0" d="M389.8,317.3c12.2,0,24.4,0,36.6,0c0.8,0,1.6,0,2.3,0.2c2.1,0.4,3.6,2.3,3.6,4.4c0,2.1-1.5,3.9-3.6,4.3
	c-0.8,0.1-1.6,0.1-2.3,0.1c-24.4-0.2-48.7-0.4-73.1-0.6c-0.7,0-1.4,0-2-0.1c-2.3-0.4-3.9-2.2-3.9-4.4c0-2.2,1.6-4.1,3.9-4.4
	c1-0.1,1.9-0.1,2.9-0.1c11.9,0,23.8,0,35.7,0C389.8,316.9,389.8,317.1,389.8,317.3z"/>
<path class="st0" d="M293.3,454c6.3,0,12.7,0,19,0c1.2,0,2.3,0,3.5,0.4c1.8,0.6,2.9,2.1,3,3.9c0.1,1.9-0.9,3.6-2.8,4.4
	c-0.9,0.4-1.9,0.5-2.9,0.5c-13.2-0.1-26.3-0.2-39.5-0.3c-0.6,0-1.2,0-1.7-0.1c-2.1-0.4-3.5-1.9-3.7-3.9c-0.2-2.2,1.1-4,3.2-4.7
	c1-0.3,1.9-0.2,2.9-0.2c6.3,0,12.7,0,19,0C293.3,453.9,293.3,454,293.3,454z"/>
<path class="st1" d="M341.5,40.8c-1.2,4.5-2.3,8.9-3.5,13.3c-0.8,3.1-1.7,6.2-2.5,9.3c-0.3,1.2-0.8,1.7-2.2,1.7
	c-3.5-0.1-7,0-10.5-0.1c-21.8,0-43.7-0.1-65.5-0.1c-5.9,0-11.9-0.7-17.8-0.5c-0.8,0-1.5,0.1-1.7-1c-1.7-7.5-3.5-14.9-5.3-22.7
	C268.9,40.8,305.1,40.8,341.5,40.8z"/>
<path class="st1" d="M446.8,200.4c-1.5,0-2.3,0-3,0c-9.5,0-18.9,0-28.4-0.1c-6.2,0-9.5-3.1-9.6-9.2c-0.2-12.2-0.3-24.4-0.5-36.6
	c0.5,0.2,0,0,0.4-0.1c0.1,0,0.2,0,0.2,0C419.4,169.6,432.8,184.7,446.8,200.4z"/>
<path class="st1" d="M321,340.8c0,17.3-13.9,31.4-31,31.5c-16.9,0.1-30.5-13.7-30.5-30.8c0-17.2,13.9-31.2,30.9-31.2
	C307.5,310.3,321,323.7,321,340.8z M312.2,333.5c0-3.2-3.3-5.3-6.2-4c-0.9,0.4-1.7,1-2.4,1.6c-4.9,3.7-9.8,7.4-14.7,11.1
	c-2.9,2.2-2.9,2.2-5.4-0.5c-1.8-1.8-3.4-3.8-5.3-5.4c-2.5-2.2-6.1-1.3-7.2,1.7c-0.7,2,0,3.6,1.3,5.1c3.1,3.3,6.1,6.5,9.3,9.7
	c2.5,2.5,4.6,2.6,7.5,0.5c1.7-1.2,3.4-2.6,5.1-3.9c5.1-3.9,10.3-7.8,15.4-11.7C311,336.7,312.2,335.4,312.2,333.5z"/>
<path class="st2" d="M407.2,446.9c0-34.8,23.8-64.5,57.1-72.2c34.1-7.8,68.1,9.2,82.1,41c11.9,26.9,5.4,59.5-16.2,80.3
	c-16,15.4-35.2,22.6-57.3,20.8c-35.2-2.8-60.4-29.3-64.9-60.1C407.5,453.2,407.3,449.6,407.2,446.9z M416.2,449.1
	c0.3,15.2,7,30.8,20.7,43.2c21.5,19.3,53.6,21.2,78,4.8c25.8-17.4,35.4-50.6,22.7-78.8c-11.6-25.8-39.6-40.3-68.3-35.3
	C438.9,388.2,416.3,415,416.2,449.1z"/>
<path class="st0" d="M312.2,333.5c0,2-1.1,3.2-2.6,4.3c-5.1,3.9-10.3,7.8-15.4,11.7c-1.7,1.3-3.4,2.6-5.1,3.9c-3,2.1-5,2-7.5-0.5
	c-3.2-3.2-6.2-6.5-9.3-9.7c-1.4-1.4-2-3.1-1.3-5.1c1-3,4.6-3.9,7.2-1.7c1.9,1.7,3.6,3.6,5.3,5.4c2.6,2.7,2.5,2.7,5.4,0.5
	c4.9-3.7,9.8-7.4,14.7-11.1c0.8-0.6,1.6-1.2,2.4-1.6C308.9,328.2,312.1,330.3,312.2,333.5z"/>
<path class="st2" d="M497.2,443.3c-0.1,9.3-7.7,16.8-17,16.8c-9.4,0-17.4-7.9-17.4-17.2c0-9.3,7.9-17.1,17.2-17
	C489.6,426.1,497.3,433.9,497.2,443.3z M480.1,451c4.4,0,7.9-3.3,8-7.6c0.1-4.5-3.6-8.2-8.1-8.3c-4.5-0.1-8.1,3.3-8.1,7.8
	C471.9,447.4,475.5,451,480.1,451z"/>
<path class="st2" d="M458.6,443.9c0,9.3-7.7,16.8-17,16.9c-9.4,0.1-17.4-7.8-17.5-17.2c-0.1-9.3,7.8-17.1,17.2-17
	C450.9,426.7,458.6,434.4,458.6,443.9z M441.3,451.6c4.6,0.1,8.1-3.3,8.1-7.8c0-4.5-3.7-8.1-8.2-8.1c-4.4,0-7.9,3.3-7.9,7.6
	C433.2,447.9,436.8,451.5,441.3,451.6z"/>
<path class="st2" d="M500.6,443c0-9.4,7.5-16.9,16.9-17c9.5-0.1,17.5,7.8,17.5,17.2c0,9.2-7.6,16.9-17,17
	C508.5,460.3,500.6,452.5,500.6,443z M517.6,451c4.6,0.1,8.2-3.2,8.2-7.6c0.1-4.5-3.6-8.2-8.1-8.2c-4.4-0.1-8,3.3-8.1,7.5
	C509.4,447,513.1,450.9,517.6,451z"/>
<path class="st3" d="M154.2,155.9l12.8,12.8c3,3,7.9,3,11,0l12.8-12.8c3-3,3-7.9,0-11l-12.8-12.8c-3-3-7.9-3-11,0L154.2,145
	C151.2,148,151.2,152.9,154.2,155.9z"/>
<path class="st3" d="M154.2,193.1l12.8,12.8c3,3,7.9,3,11,0l12.8-12.8c3-3,3-7.9,0-11l-12.8-12.8c-3-3-7.9-3-11,0l-12.8,12.8
	C151.2,185.2,151.2,190.1,154.2,193.1z"/>
<path class="st2" d="M403.6,516.5l10,10c1.5,1.5,3.8,1.5,5.3,0l10-10c1.5-1.5,1.5-3.8,0-5.3l-10-10c-1.5-1.5-3.8-1.5-5.3,0l-10,10
	C402.1,512.6,402.1,515,403.6,516.5z"/>
<circle class="st4" cx="478.7" cy="445.1" r="92"/>
</svg>
