<?xml version="1.0" encoding="utf-8"?>
<!-- Generator: Adobe Illustrator 28.0.0, SVG Export Plug-In . SVG Version: 6.00 Build 0)  -->
<svg version="1.1" id="Capa_1" xmlns="http://www.w3.org/2000/svg" xmlns:xlink="http://www.w3.org/1999/xlink" x="0px" y="0px"
	 viewBox="0 0 600 600" style="enable-background:new 0 0 600 600;" xml:space="preserve">
<style type="text/css">
	.st0{fill:#090A0A;}
	.st1{fill:#FEFFFF;}
	.st2{fill:#FCFCFC;}
	.st3{fill:#29E4A5;}
	.st4{fill:#6EE1EB;}
	.st5{fill:none;stroke:#29E4A5;stroke-width:11;stroke-miterlimit:10;}
</style>
<path class="st0" d="M287.8,108.4c-0.9,0-1.9,0-2.8,0c-55.3,0.2-110.6,0.3-166,0.5c-4.6,0-8.1,1.8-10.6,5.6c-2.9,4.2-4.3,8.9-4.3,14
	c0,6.8,0,13.7,0,20.5c-0.1,86.2-0.1,172.5-0.3,258.7c0,9.6,4.5,15.8,12.9,19.7c4.4,2,9,3,13.9,3c59,0,118.1,0,177.1,0.1
	c4.1,0,7.4-1.4,10.1-4.4c2.8-3.1,4.9-6.5,6.3-10.4c0.6-1.6,1-3.1,0.6-4.8c-0.2-0.9-0.1-1.9-0.1-2.9c0.1-28.9,0.2-57.8,0.4-86.6
	c0-1.1,0-2.2,0.2-3.2c0.4-2.3,2.3-3.9,4.5-3.8c2.2,0.1,4,1.7,4.3,4c0.1,1,0.1,1.9,0.1,2.9c-0.1,28.9-0.1,57.8-0.2,86.6
	c0,10-3.6,18.7-10.7,25.8c-4.1,4.1-9.2,6.1-15,6.1c-55.3,0-110.6-0.1-166-0.2c-3,0-6,0.2-9,0.3c-9.9,0.2-19.1-2.2-27.2-8.2
	c-8-6-11.2-14.3-11.2-24.2c0.1-19,0.1-38.1,0.1-57.1c0.1-71.6,0.2-143.2,0.3-214.8c0-3.1-0.5-6.2-0.1-9.3c0.8-5.8,2.5-11.2,5.6-16.1
	c3.3-5.2,8-8.4,13.9-9.9c1-0.2,1.9-0.2,2.9-0.2c61.8-0.2,123.5-0.3,185.3-0.5c4.6,0,6.4,1.4,7.1,5.6c0.5,2.9-1.4,5.5-5.1,6.8
	c-3.5,1.3-6.9,2.7-10.2,4.3c-12.5,6.1-24,13.8-33.8,23.8c-3.7,3.8-7,7.9-9.2,12.8c-0.2,0.4-0.3,0.7-0.6,1c-1.4,2-3.5,2.7-5.6,1.8
	c-2.2-0.9-3.2-3.2-2.5-5.6c0.5-1.8,1.4-3.4,2.4-5c3.6-6.1,8.4-11.2,13.6-16c8.1-7.3,17-13.4,26.6-18.5c0.8-0.5,1.7-0.9,2.5-1.4
	C287.9,108.8,287.8,108.6,287.8,108.4z"/>
<path class="st0" d="M477.5,540.4c-25.9-0.5-49-9.5-67.8-28.5c-15.3-15.4-24.4-34-26.4-55.7c-3.2-35,9.5-63.5,36.5-85.8
	c1.1-0.9,2.9-1.6,3.2-2.9c0.3-1.3-1.1-2.6-1.8-3.9c-10.4-19-20.8-38-31.2-56.9c-0.3-0.6-0.7-1.2-1-1.8c-1.6-3.4-0.4-6.4,3.3-7.1
	c4.2-0.9,7.3-3.2,9.9-6.3c1.2-1.5,2.7-2.5,4.7-2.6c1.9-0.1,3.5,0.5,4.6,2c1.2,1.4,2.3,2.9,3.4,4.4c14,18,28.1,36,42.1,54
	c1.4,1.8,2.5,2.3,4.8,1.9c9.1-1.9,18.3-2.5,27.6-1.6c3.6,0.4,7.2,0.5,10.7,1.3c41.9,9.4,69,40.1,74.9,76.5
	c5.7,35.4-5.7,65.3-32.4,89C524.4,532.4,502.5,540,477.5,540.4z M567.8,443.5c-0.2-4.8-0.5-9.4-1.3-14.1
	c-6.5-38.5-37.8-67.2-76.9-70.9c-18.3-1.8-35.7,1.9-51.9,10.8c-31.3,17.1-48.7,50.7-45.7,84c2,21.8,10.9,40.3,27,55.1
	c26.1,24.2,65,30.1,97.5,14.2C549.2,506.5,565.9,479.7,567.8,443.5z M407.2,299.9c-2.3,1.6-4.3,3.5-6.8,4.7
	c-0.7,0.3-0.7,0.8-0.3,1.4c0.3,0.5,0.6,1,0.8,1.5c8.6,15.6,17.1,31.3,25.7,46.9c1.4,2.6,2.9,5.3,4.4,8.1c6.1-3.1,12-6.1,18.5-8.4
	C435.3,336,421.3,318,407.2,299.9z"/>
<path class="st0" d="M426,207.5c0,42.8-30,79.8-71.7,88.7c-47.1,10.1-93.7-20.6-103-67.8c-2.7-13.6-2.4-27.1,1.1-40.6
	c8.7-33.4,35.7-59.8,70.7-66.3c47.5-8.8,91.2,21.6,101,67.4C425.3,195,426,201.2,426,207.5z M258.5,210.6c0.1,6.1,0.7,12,2,18
	c9.6,41.6,50.5,68.5,94,58.1c43.7-10.5,70.5-54.4,60-98.1c-9.5-39.7-47.7-65.8-88.9-58.2c-32.2,5.9-53,25.7-63.6,56.3
	C259.4,194.3,258.4,202.5,258.5,210.6z"/>
<path class="st0" d="M184.9,223.7c-15.6-0.2-31.2-0.3-46.8-0.5c-1.3,0-2.5-0.1-3.8-0.4c-2.6-0.5-3.9-2-4.1-4.6c-0.1-0.6,0-1.2,0-1.8
	c-0.1-24.6-0.3-49.2-0.4-73.8c0-1.2-0.1-2.3,0.2-3.5c0.5-2.2,2.2-3.7,4.3-3.7c2.1,0,4,1.4,4.4,3.6c0.2,1,0.2,2.1,0.2,3.2
	c0.1,22.6,0.3,45.3,0.4,67.9c0,0.6,0,1.2,0,1.8c0.1,2.1,0.1,2.1,2,2.2c1.3,0,2.5,0,3.8,0.1c28.9,0.2,57.8,0.5,86.6,0.7
	c1,0,2,0,2.9,0.2c2.3,0.5,3.8,2.4,3.7,4.6c-0.1,2.1-1.5,3.8-3.8,4.2c-0.9,0.2-1.7,0.2-2.6,0.2c-15.7,0-31.4,0-47.1,0
	C184.9,224,184.9,223.8,184.9,223.7z"/>
<path class="st0" d="M217.9,356c26.1,0,52.3,0,78.4,0c1,0,2,0,2.9,0c2.7,0.2,4.5,2,4.6,4.4c0.1,2.4-1.7,4.3-4.4,4.6
	c-0.9,0.1-1.8,0.1-2.6,0.1c-52.9,0.1-105.9,0.2-158.8,0.3c-1.1,0-2.2,0.1-3.2-0.1c-2.3-0.4-3.9-2.3-3.9-4.5c0-2.1,1.4-3.8,3.6-4.4
	c1.2-0.3,2.5-0.2,3.8-0.2c26.5,0,53,0,79.6,0C217.9,356.2,217.9,356.1,217.9,356z"/>
<path class="st0" d="M213.8,404.1c-25.4,0-50.7,0-76.1,0c-1,0-2,0-2.9-0.1c-2.3-0.4-4-2.2-4-4.3c-0.1-2.2,1.4-4,3.8-4.5
	c0.9-0.2,1.9-0.2,2.9-0.2c50.6,0.2,101.3,0.4,151.9,0.6c1.2,0,2.4,0,3.5,0.3c2.3,0.5,3.6,2.2,3.6,4.3c0,2.3-1.5,4.1-3.9,4.4
	c-1,0.2-2.1,0.1-3.2,0.1c-25.2,0-50.3,0-75.5,0C213.8,404.5,213.8,404.3,213.8,404.1z"/>
<path class="st0" d="M125.8,288.9c0-4.8,1.3-9.8,3.9-14.5c0.3-0.6,0.7-1.2,1.1-1.7c3.1-3.4,5.6-3.5,8.4-1.4
	c6.7,5,13.6,9.8,20.2,14.9c4.3,3.3,8,7.1,11.1,11.5c5.1,7,10.4,13.9,15.8,20.6c4.1,5.1,3.2,8.3-2.8,10.7c-9.3,3.8-18.7,3.6-27.9,0.1
	c-14.5-5.6-24.4-15.6-28.8-30.8C126.1,295.5,125.8,292.5,125.8,288.9z M137.1,280.2c-1.9,3.8-2.6,8-2.1,11.7
	c2.1,17.8,19.6,32.2,37.4,30.7c1.6-0.1,3.2-0.2,4.9-1.2c-6.6-7.6-11.9-15.9-18.2-23.5c-0.5-0.6-1.1-1.1-1.7-1.6
	c-5.5-4.4-10.9-8.8-16.4-13.2C139.8,282.2,138.5,281.3,137.1,280.2z"/>
<path class="st0" d="M250.2,274.3c0.2,5.2,0.4,10.3,0.6,15.5c0.1,1.4-0.2,2.7-0.7,4c-3.5,8.7-7,17.3-10.5,26
	c-0.2,0.5-0.4,1.1-0.7,1.6c-1.9,3.6-5.6,4.5-8.7,1.7c-5.7-5-9.6-11.2-12-18.4c-6.2-19.2,1.6-40.6,18.6-50.6c1.5-0.9,3.1-1.7,4.7-2.3
	c3.7-1.5,6.9,0.3,7.7,4.1c0.1,0.6,0.2,1.2,0.2,1.7C249.7,263.2,249.9,268.7,250.2,274.3C250.2,274.3,250.2,274.3,250.2,274.3z
	 M240.5,262.4c-9.9,7.2-14.7,16.4-15.2,27.9c-0.4,8.1,3.4,19,7.6,21.8c2.5-6.2,4.9-12.5,7.5-18.7c0.9-2.2,1.5-4.3,1.2-6.8
	c-0.3-2.3-0.2-4.7-0.3-7C241,274.1,240.8,268.6,240.5,262.4z"/>
<path class="st0" d="M254.3,332c-1.4,0-2.7,0-4.1-0.4c-2.7-0.8-4.1-3.1-3.5-5.8c0.2-0.7,0.4-1.3,0.7-1.9c3-7.9,6.1-15.8,9.1-23.7
	c0.3-0.8,0.7-1.6,1.1-2.4c0.7-1.3,1.7-2,3.3-2c9.6,0.1,19.1,0.2,28.7,0.3c0.6,0,1.2,0.1,1.7,0.2c3.4,0.7,5,3.4,4,6.8
	c-1.7,5.7-4.8,10.6-8.9,14.9C277.7,327.1,266.9,331.5,254.3,332z M257.8,322.3c10.2-0.2,23.8-9.1,26.4-17.2c-6.2,0-12.3,0-18.4,0
	c-0.9,0-1.4,0.3-1.7,1.2C261.9,311.6,259.9,316.9,257.8,322.3z"/>
<path class="st0" d="M209.8,286.2c0,11.6-3,20.3-8.4,28.2c-2.3,3.3-5.3,3.6-8,0.6c-4.1-4.5-8-9-12-13.6c-1.9-2.2-3.9-4.4-5.8-6.6
	c-2-2.4-2.1-3.9-0.7-6.7c0.5-1.1,1.3-1.9,2.1-2.8c6.2-6.3,12.5-12.6,18.7-18.8c2.5-2.5,5.2-2.4,7.6,0.1c1.9,2,3.1,4.5,4,7.1
	C209,278.5,209.8,283.2,209.8,286.2z M196.5,304.9c4.6-9.4,5.4-18.7,2.8-28.9c-5,5-9.7,9.7-14.3,14.4c-0.6,0.6-0.4,1,0.1,1.5
	C188.8,296.1,192.5,300.3,196.5,304.9z"/>
<path class="st0" d="M167.3,247.5c6.6,0,12.3,1.1,17.6,3.7c1.4,0.7,2.8,1.4,4,2.5c2.2,1.8,2.5,4.2,0.9,6.5c-0.3,0.5-0.7,0.9-1.1,1.3
	c-5.8,6.3-11.7,12.6-17.5,18.8c-0.2,0.2-0.4,0.4-0.6,0.6c-2.5,2.4-4.8,2.6-7.6,0.5c-4.5-3.4-8.9-7-13.3-10.5c-2.5-1.9-5-3.8-7.4-5.7
	c-3.5-2.7-3.6-5.7-0.3-8.5C149.5,250.8,158.2,247.5,167.3,247.5z M166.1,272.4c4.3-4.6,8.5-9.1,12.8-13.8
	c-7.9-3.5-21.9-2.3-28.2,2.6C155.8,265,160.9,268.7,166.1,272.4z"/>
<path class="st0" d="M210.8,173.7c0,7.1,0,14.2,0,21.4c0,0.8,0,1.6-0.1,2.3c-0.4,2.6-2.1,4.2-4.4,4.2c-2.5,0.1-4.3-1.6-4.6-4.3
	c-0.1-0.6-0.1-1.2-0.1-1.8c0-14.6,0-29.2,0-43.9c0-1.1,0.1-2.1,0.5-3.2c0.7-1.8,2.1-2.8,4-2.9c1.9-0.1,3.5,1.1,4.3,2.9
	c0.4,1.1,0.4,2.3,0.4,3.5C210.8,159.2,210.8,166.5,210.8,173.7C210.8,173.7,210.8,173.7,210.8,173.7z"/>
<path class="st0" d="M168.2,178.3c0,5.9,0,11.9,0,17.8c0,0.8,0,1.6-0.1,2.3c-0.4,2.3-2.3,3.8-4.6,3.7c-2.1-0.1-3.8-1.5-4.2-3.7
	c-0.1-0.8-0.1-1.5-0.1-2.3c0.1-12,0.2-23.9,0.3-35.9c0-1.1,0.1-2.1,0.5-3.2c0.7-1.8,2.4-3,4.3-2.9c1.9,0.1,3.3,1.1,4,2.9
	c0.4,1,0.4,2.1,0.4,3.2c0,6,0,12.1,0,18.1C168.5,178.3,168.4,178.3,168.2,178.3z"/>
<path class="st0" d="M189.3,182c0,4.8,0,9.5,0,14.3c0,0.9,0,1.8-0.1,2.6c-0.4,2.2-2.1,3.7-4.2,3.7c-2.1,0.1-4-1.3-4.5-3.5
	c-0.2-0.8-0.2-1.7-0.2-2.6c-0.1-9.7-0.2-19.5-0.2-29.2c0-1,0-2,0.2-2.9c0.4-2.2,2.1-3.7,4.2-3.8c2.2-0.1,4.1,1.5,4.6,3.8
	c0.2,0.8,0.1,1.7,0.1,2.6c0,5,0,9.9,0,14.9C189.3,182,189.3,182,189.3,182z"/>
<path class="st0" d="M232.4,185.7c0,3.3,0,6.6,0,9.9c0,1-0.1,2-0.3,2.9c-0.5,2-2.1,3.2-4,3.3c-2,0.1-3.7-1-4.5-3
	c-0.3-0.8-0.4-1.7-0.3-2.6c0-7,0.1-14,0.2-21c0-0.9,0.1-1.8,0.3-2.6c0.5-2,2.1-3.2,4-3.3c2.1-0.1,3.7,1,4.5,3
	c0.4,0.9,0.4,1.9,0.4,2.9c0,3.5,0,7,0,10.5C232.5,185.7,232.4,185.7,232.4,185.7z"/>
<path class="st1" d="M258.5,210.6c-0.1-8.2,0.9-16.3,3.5-23.9c10.6-30.6,31.5-50.4,63.6-56.3c41.2-7.6,79.4,18.5,88.9,58.2
	c10.5,43.7-16.3,87.6-60,98.1c-43.4,10.4-84.4-16.6-94-58.1C259.2,222.7,258.6,216.7,258.5,210.6z M344.4,158.3c0.1-3-1.3-5-3.6-5.4
	c-2.4-0.4-4.4,0.8-5.2,3.3c-0.3,0.7-0.4,1.5-0.6,2.3c-6.2,29.4-12.4,58.7-18.6,88.1c-0.6,2.9-1.3,5.7-1.8,8.6
	c-0.4,2.6,1.1,4.8,3.5,5.3c2.2,0.5,4.4-0.7,5.3-3.1c0.2-0.6,0.4-1.3,0.5-2c6.2-29.2,12.4-58.3,18.5-87.5
	C343.2,164.5,343.8,161.2,344.4,158.3z M295.1,238.9c0.8,0,1.6-0.2,2.2-0.6c1.7-1,2.2-2.6,2.6-4.4c3.8-19.3,7.7-38.6,11.6-57.9
	c0.4-1.9,0.8-3.8,1.1-5.7c0.4-2.8-1-5.1-3.5-5.6c-2.4-0.5-4.5,0.8-5.3,3.5c-0.2,0.6-0.3,1.3-0.5,2c-3.3,16.2-6.5,32.5-9.7,48.7
	c-1,4.8-1.9,9.6-2.8,14.4C290.3,236.4,292.3,238.9,295.1,238.9z"/>
<path class="st2" d="M137.1,280.2c1.4,1.1,2.6,2,3.8,3c5.5,4.4,11,8.8,16.4,13.2c0.6,0.5,1.2,1,1.7,1.6c6.3,7.5,11.6,15.9,18.2,23.5
	c-1.6,1.1-3.3,1.1-4.9,1.2c-17.8,1.4-35.3-13-37.4-30.7C134.5,288.2,135.3,284,137.1,280.2z"/>
<path class="st2" d="M240.5,262.4c0.3,6.2,0.5,11.7,0.8,17.2c0.1,2.3,0,4.7,0.3,7c0.3,2.4-0.2,4.5-1.2,6.8c-2.6,6.2-5,12.4-7.5,18.7
	c-4.2-2.7-8-13.7-7.6-21.8C225.8,278.8,230.6,269.6,240.5,262.4z"/>
<path class="st2" d="M257.8,322.3c2.1-5.4,4.2-10.7,6.2-16.1c0.3-0.9,0.8-1.2,1.7-1.2c6.1,0,12.2,0,18.4,0
	C281.6,313.2,267.9,322.1,257.8,322.3z"/>
<path class="st2" d="M196.5,304.9c-4-4.6-7.7-8.8-11.5-13c-0.4-0.5-0.6-0.9-0.1-1.5c4.7-4.7,9.3-9.3,14.3-14.4
	C201.9,286.2,201.1,295.5,196.5,304.9z"/>
<path class="st2" d="M166.1,272.4c-5.2-3.8-10.3-7.5-15.4-11.2c6.3-4.9,20.3-6.1,28.2-2.6C174.7,263.3,170.5,267.8,166.1,272.4z"/>
<path class="st3" d="M407.2,446.1c-0.1-34.4,24.2-64.3,58.4-71.6c36.3-7.7,70.8,12.5,82.5,45.6c12.5,35.1-4,74.1-37.8,90
	c-28.4,13.3-61.1,7.7-82.8-14.3C414.6,482.7,407.2,464.6,407.2,446.1z M416.2,446c0,17.8,7.5,34.6,20.8,46.4
	c21.6,19.2,53.7,21.1,78.1,4.6c25.8-17.4,35.3-50.6,22.6-78.9c-11.6-25.7-40-40.3-68.3-35.2C438.9,388.4,416.2,415.1,416.2,446z"/>
<path class="st0" d="M344.4,158.3c-0.6,2.9-1.3,6.3-2,9.6c-6.2,29.2-12.4,58.3-18.5,87.5c-0.1,0.7-0.3,1.3-0.5,2
	c-0.9,2.4-3,3.6-5.3,3.1c-2.4-0.6-3.9-2.8-3.5-5.3c0.5-2.9,1.2-5.7,1.8-8.6c6.2-29.4,12.4-58.7,18.6-88.1c0.2-0.8,0.3-1.5,0.6-2.3
	c0.8-2.4,2.8-3.7,5.2-3.3C343.1,153.3,344.5,155.2,344.4,158.3z"/>
<path class="st0" d="M295.1,238.9c-2.9,0-4.9-2.6-4.3-5.7c0.9-4.8,1.8-9.6,2.8-14.4c3.2-16.2,6.5-32.5,9.7-48.7
	c0.1-0.7,0.3-1.3,0.5-2c0.8-2.6,2.9-4,5.3-3.5c2.4,0.5,3.9,2.8,3.5,5.6c-0.3,1.9-0.7,3.8-1.1,5.7c-3.9,19.3-7.7,38.6-11.6,57.9
	c-0.4,1.8-0.9,3.4-2.6,4.4C296.7,238.7,296,238.9,295.1,238.9z"/>
<path class="st3" d="M467.1,445.3c0.9-1.1,1.9-2.4,3.1-3.6c11.3-11.5,22.7-22.8,34.3-33.9c2.7-2.6,5.6-4.9,9.8-4.4
	c2.4,0.3,4.5,1.1,6.2,2.9c3.2,3.3,6.4,6.6,9.5,9.9c1.4,1.4,2.5,3,3.3,4.8c2.2,4.7,1.9,9.3-1.5,13.4c-0.8,1-1.7,1.9-2.6,2.8
	c-14.2,14.1-28.4,28.1-42.6,42.3c-3.7,3.7-7.8,7.1-11.6,10.7c-1.6,1.5-3.5,2.5-5.4,3.5c-3.3,1.6-6.4,1.4-9.4-0.6
	c-2.6-1.7-5-3.8-7.1-6c-7.8-8-15.5-16-23.2-24c-2-2.1-3.7-4.5-5.2-7c-2.4-3.8-1.9-7.4,0.6-10.6c3.9-4.8,8.1-9.2,13-13.1
	c0.5-0.4,1.1-0.8,1.7-1.1c5.5-3,8.6-2.7,13.3,1.4c3.8,3.4,7.3,7,11,10.5C465,443.8,465.5,444.6,467.1,445.3z M465,484.4
	c0.9,0,1.7-0.2,2.6-0.4c1.7-0.5,3.1-1.5,4.5-2.6c3-2.4,5.5-5.3,8.1-8c14.6-14.9,29.6-29.5,44.4-44.1c1.8-1.8,2.2-3.5,0.8-5.4
	c-3.2-4-7-7.6-10.7-11.2c-1-0.9-2.1-0.9-3.2-0.1c-1.2,0.9-2.3,1.8-3.3,2.9C493.9,430.5,479,445,464.6,460c-0.6,0.6-1.2,1.3-1.9,1.8
	c-2,1.5-4.6,1.3-6.1-0.3c-1.5-1.6-1.6-4-0.1-5.9c0.6-0.8,1.3-1.4,2-2.1c1.7-1.7,1.7-1.7,0.1-3.3c-3.3-3.2-6.5-6.4-9.8-9.6
	c-2.5-2.4-4-2.5-6.9-0.4c-3.1,2.3-5.9,5.1-8.4,8.1c-2.1,2.5-2.1,3.1-0.1,5.8c1.8,2.5,3.8,4.9,6,7.1c6.8,6.7,13.5,13.5,20.2,20.3
	C461,483,462.6,484.5,465,484.4z"/>
<path class="st4" d="M83.5,190.2l11.4,11.4c2.7,2.7,7.1,2.7,9.8,0l11.4-11.4c2.7-2.7,2.7-7.1,0-9.8l-11.4-11.4
	c-2.7-2.7-7.1-2.7-9.8,0l-11.4,11.4C80.8,183.1,80.8,187.5,83.5,190.2z"/>
<path class="st4" d="M83.5,223.5l11.4,11.4c2.7,2.7,7.1,2.7,9.8,0l11.4-11.4c2.7-2.7,2.7-7.1,0-9.8l-11.4-11.4
	c-2.7-2.7-7.1-2.7-9.8,0l-11.4,11.4C80.8,216.4,80.8,220.8,83.5,223.5z"/>
<path class="st3" d="M406.4,518.1l9,9c1.3,1.3,3.4,1.3,4.8,0l9-9c1.3-1.3,1.3-3.4,0-4.8l-9-9c-1.3-1.3-3.4-1.3-4.8,0l-9,9
	C405.1,514.7,405.1,516.8,406.4,518.1z"/>
<path class="st3" d="M472.1,478.5l9,9c1.3,1.3,3.4,1.3,4.8,0l9-9c1.3-1.3,1.3-3.4,0-4.8l-9-9c-1.3-1.3-3.4-1.3-4.8,0l-9,9
	C470.8,475,470.8,477.1,472.1,478.5z"/>
<circle class="st5" cx="479.7" cy="444.2" r="91.5"/>
</svg>
