<?xml version="1.0" encoding="utf-8"?>
<!-- Generator: Adobe Illustrator 28.0.0, SVG Export Plug-In . SVG Version: 6.00 Build 0)  -->
<svg version="1.1" id="Capa_1" xmlns="http://www.w3.org/2000/svg" xmlns:xlink="http://www.w3.org/1999/xlink" x="0px" y="0px"
	 viewBox="0 0 600 600" style="enable-background:new 0 0 600 600;" xml:space="preserve">
<style type="text/css">
	.st0{fill:#0A0A0A;}
	.st1{fill:#DBB300;}
	.st2{fill:#FEFEFE;}
	.st3{fill:#6EE1EB;}
</style>
<path class="st0" d="M214,258.7c-0.7-4-1.7-7.9-2.2-12c-2-16-0.2-31.3,7.9-45.6c1.7-3,3.7-5.7,6-8.2c9.5-10.3,18.9-20.6,28.4-30.8
	c3.7-4,7.6-7.9,11.6-11.6c8.9-8.2,19.6-12.5,31.5-14.1c17.1-2.3,33.4,1.1,49.2,7.3c5.7,2.2,11.2,4.9,16.6,7.9
	c2.6,1.4,2.1,1.2,3.7-0.8c13.1-16.3,26.3-32.7,39.4-49.1c7.9-9.8,15.6-19.8,23.7-29.4c8.5-10.1,19-17.3,32.3-19.7
	c15.7-2.9,30,0.7,42.9,10c20.4,14.9,28.8,41.8,20.6,65.4c-3.5,9.9-9.3,18.1-17.6,24.6c-26,20.5-51.9,41-77.9,61.4
	c-2.4,1.9-2.3,1.4-0.8,4.2c6.8,12.7,11.9,26,14,40.4c2,13.8,1.3,27.4-4.4,40.5c-2.8,6.4-6.9,12-11.7,17c-10,10.4-19.9,20.9-30,31.3
	c-6.1,6.3-12.9,11.9-20.9,15.7c-11.3,5.3-23.3,6.9-35.6,6c-5.6-0.4-11.2-1.3-16.7-2.6c-0.6-0.2-1.3-0.5-2-0.2
	c-0.4,0.6-0.2,1.3-0.2,2c1,49.8-29.6,93.3-74.6,111.1c-18.9,7.4-38.4,10.2-58.5,7.3c-40-5.9-69.6-26.6-87.8-62.7
	c-9.9-19.6-13.1-40.7-10.3-62.6c6.3-49.1,43-89.1,91.5-99.6c9.8-2.1,19.6-3.1,29.6-2.8C212.1,259,213,259.2,214,258.7z M203.2,478.9
	c5.2-0.2,10.2-0.4,15.3-1.2c25.8-3.9,47.8-15.1,65.5-34.3c18-19.5,27.5-42.7,28.4-69.3c0.1-2.8-0.3-5.7,0-8.5c0.3-2-0.6-2.5-2.1-3
	c-4.8-1.7-9.5-3.7-13.9-6c-36.6-19.3-63.4-47.5-78.5-86.2c-0.6-1.5-1.3-2-2.9-2.1c-10.5-0.7-20.8,0.1-31.1,2.4
	c-45.8,10-80,48.3-84.8,93.5c-2.1,19.8,0.8,38.8,9.9,56.5C128.6,458.7,160.9,477,203.2,478.9z M420.5,221.8c-1.1,0.9-2,1.5-2.8,2.2
	c-11.5,9-23,18.1-34.5,27.1c-3.4,2.6-7.1,4.4-11.4,4.8c-3.7,0.3-7.4,0.2-11-0.9c-16.1-4.6-27.2-15-34-30.2
	c-2.3-5.2-3.3-10.6-2.9-16.3c0.2-3.1,1.1-5.8,3.1-8.3c10.3-12.7,20.4-25.4,30.6-38.1c0.5-0.7,1.3-1.2,1.4-2.2
	c-0.3-0.2-0.6-0.5-0.9-0.6c-9.1-5-18.6-9-28.6-11.6c-12.1-3.1-24.4-4.2-36.8-1.3c-14.9,3.6-25.8,12.1-31.8,26.3
	c-3.8,8.9-4.7,18.3-4.1,27.8c0.9,12.9,4.6,25.1,10.1,36.7c9.9,21,24.1,38.7,41.8,53.6c14.5,12.2,30.5,21.7,48.6,27.3
	c12.9,4,26.1,5.8,39.5,3.2c14.6-2.9,25.9-10.4,32.8-23.9c3.9-7.7,5.4-16,5.6-24.6c0.1-10.1-1.8-20-4.9-29.6
	C427.6,236,424.5,228.9,420.5,221.8z M471.9,60.9c-11.8,0-22.6,4.5-30.8,12.7c-3.4,3.4-6.5,6.9-9.5,10.7
	c-20.5,25.6-41,51.1-61.5,76.6c-11.5,14.4-23,28.8-34.6,43.1c-2.4,2.9-2.9,5.8-2.5,9.1c0.2,1.3,0.4,2.7,0.8,4
	c4.4,14.2,13.8,23.8,27.7,28.7c6.7,2.3,12.7,1.3,18.5-3.5c16-13.1,32.4-25.7,48.6-38.5c24.7-19.5,49.5-39,74.2-58.5
	c0.8-0.7,1.7-1.3,2.5-2.1c13-13.2,17.1-28.9,12.4-46.8C512,75.6,493,60.9,471.9,60.9z M248.7,182.2c-0.2-0.1-0.4-0.2-0.7-0.3
	c-1.7,1.8-3.4,3.7-5.1,5.5c-4.2,4.5-8.7,8.8-12.4,13.7c-6.4,8.4-9.7,18.1-10.4,28.7c-1.1,16.3,2.8,31.6,9.5,46.2
	c10.9,23.6,27.2,42.9,47.9,58.4c16.4,12.3,34.4,21.3,54.8,24.9c8.9,1.5,17.8,1.6,26.8,0.1c11.8-2.1,21.3-8.2,29.7-16.4
	c3.6-3.5,7-7.3,10.5-11c0.4-0.5,1.1-0.8,1.1-1.7c-1.1-0.1-2.1,0.2-3.1,0.4c-2.5,0.4-5,0.8-7.5,1c-15.1,1-29.5-2-43.4-7.4
	c-19.4-7.5-36.4-18.9-51.5-33.2c-17.8-16.9-31.8-36.6-40.5-59.7c-4.1-10.9-6.7-22.2-6.9-33.9C247.5,192.2,247.9,187.2,248.7,182.2z"
	/>
<path class="st1" d="M476.5,540.4c-26.1-0.5-49.3-9.7-68.1-28.8c-15.1-15.3-23.7-33.9-26.1-55.2c-2.1-19.1,1.5-37.1,10.2-54.1
	c6.4-12.4,15.1-22.9,26.1-31.6c15.7-12.3,33.4-19.4,53.3-21.1c9.2-0.8,18.4-0.8,27.4,1.3c39.3,9.5,64.7,33.4,74.5,73.1
	c6.5,36.7-4.2,67.5-31.9,92.2C523.5,532.4,501.6,540,476.5,540.4z M566.8,443.2c-0.2-4.7-0.5-9.2-1.3-13.8
	c-6.5-38.5-37.8-67.2-76.9-70.9c-18.3-1.8-35.7,1.9-51.9,10.8c-31.2,17.1-48.7,50.7-45.7,84c2,21.8,10.9,40.3,27,55.1
	c26.1,24.2,65,30.1,97.5,14.1C548.4,506.5,565,479.5,566.8,443.2z"/>
<path class="st2" d="M203.2,478.9c-42.3-1.9-74.6-20.1-94.4-58.3c-9.1-17.7-12-36.7-9.9-56.5c4.8-45.2,39-83.5,84.8-93.5
	c10.3-2.3,20.6-3,31.1-2.4c1.6,0.1,2.3,0.6,2.9,2.1c15.2,38.8,42,67,78.5,86.2c4.5,2.4,9.1,4.3,13.9,6c1.5,0.5,2.3,1,2.1,3
	c-0.4,2.8,0.1,5.6,0,8.5c-0.8,26.6-10.4,49.8-28.4,69.3c-17.7,19.2-39.7,30.4-65.5,34.3C213.4,478.5,208.3,478.6,203.2,478.9z
	 M192,416.4c2.2,0.2,3.7-1,5.1-2.4c17.6-17.3,35.3-34.5,52.9-51.7c0.6-0.5,1.1-1.1,1.6-1.7c1.6-2,1.5-4.5-0.2-6.1
	c-1.6-1.6-3.8-1.8-5.8-0.3c-0.9,0.7-1.8,1.5-2.6,2.4c-16.3,15.9-32.7,31.9-49,47.8c-2.3,2.3-1.8,2.2-4,0
	c-7.7-7.5-15.4-14.9-23.1-22.4c-2.5-2.5-5.3-2.7-7.2-0.7c-1.9,2-1.6,4.6,1,7.2c3.1,3.1,6.3,6.1,9.5,9.2c5.7,5.5,11.4,11,17,16.5
	C188.5,415.5,190,416.6,192,416.4z"/>
<path class="st2" d="M420.5,221.8c4,7.1,7.1,14.2,9.5,21.6c3.2,9.6,5.1,19.4,4.9,29.6c-0.1,8.6-1.6,16.9-5.6,24.6
	c-6.9,13.5-18.1,21.1-32.8,23.9c-13.5,2.6-26.6,0.8-39.5-3.2c-18.1-5.6-34.1-15.2-48.6-27.3c-17.7-14.9-31.9-32.6-41.8-53.6
	c-5.5-11.7-9.1-23.8-10.1-36.7c-0.7-9.6,0.3-18.9,4.1-27.8c6-14.3,16.9-22.8,31.8-26.3c12.3-3,24.6-1.8,36.8,1.3
	c10.1,2.6,19.5,6.6,28.6,11.6c0.3,0.2,0.6,0.4,0.9,0.6c-0.1,1-0.9,1.6-1.4,2.2c-10.2,12.7-20.3,25.5-30.6,38.1
	c-2,2.5-2.9,5.2-3.1,8.3c-0.4,5.7,0.6,11.1,2.9,16.3c6.8,15.2,17.9,25.5,34,30.2c3.6,1,7.3,1.2,11,0.9c4.3-0.4,8-2.2,11.4-4.8
	c11.5-9,23-18.1,34.5-27.1C418.5,223.3,419.4,222.7,420.5,221.8z"/>
<path class="st2" d="M471.9,60.9c21.1,0,40.1,14.6,45.7,35.6c4.7,17.8,0.6,33.5-12.4,46.8c-0.7,0.8-1.6,1.4-2.5,2.1
	c-24.7,19.5-49.5,39-74.2,58.5c-16.2,12.8-32.6,25.4-48.6,38.5c-5.8,4.7-11.9,5.8-18.5,3.5c-14-4.9-23.3-14.4-27.7-28.7
	c-0.4-1.3-0.6-2.7-0.8-4c-0.4-3.4,0.2-6.3,2.5-9.1c11.7-14.3,23.1-28.7,34.6-43.1c20.5-25.6,41.1-51.1,61.5-76.6
	c3-3.7,6.2-7.3,9.5-10.7C449.2,65.5,460.1,60.9,471.9,60.9z"/>
<path class="st2" d="M248.7,182.2c-0.8,5-1.2,10.1-1.1,15.1c0.2,11.7,2.8,23,6.9,33.9c8.7,23.2,22.7,42.8,40.5,59.7
	c15.1,14.3,32.1,25.7,51.5,33.2c14,5.4,28.4,8.4,43.4,7.4c2.5-0.2,5-0.5,7.5-1c1-0.2,2-0.5,3.1-0.4c0,0.9-0.7,1.3-1.1,1.7
	c-3.5,3.7-6.9,7.4-10.5,11c-8.4,8.2-17.9,14.3-29.7,16.4c-8.9,1.6-17.9,1.5-26.8-0.1c-20.4-3.5-38.4-12.5-54.8-24.9
	c-20.7-15.6-37-34.8-47.9-58.4c-6.8-14.6-10.6-29.9-9.5-46.2c0.7-10.6,4-20.3,10.4-28.7c3.7-4.9,8.2-9.1,12.4-13.7
	c1.7-1.8,3.4-3.7,5.1-5.5C248.3,182,248.5,182.1,248.7,182.2z"/>
<path class="st0" d="M192,416.4c-2,0.2-3.5-0.9-4.9-2.2c-5.7-5.5-11.3-11-17-16.5c-3.2-3.1-6.3-6.1-9.5-9.2c-2.6-2.5-2.9-5.2-1-7.2
	c1.9-2,4.7-1.7,7.2,0.7c7.7,7.4,15.4,14.9,23.1,22.4c2.2,2.1,1.7,2.2,4,0c16.3-15.9,32.7-31.9,49-47.8c0.8-0.8,1.7-1.7,2.6-2.4
	c2-1.5,4.2-1.3,5.8,0.3c1.7,1.6,1.8,4.1,0.2,6.1c-0.5,0.6-1.1,1.1-1.6,1.7c-17.7,17.2-35.3,34.5-52.9,51.7
	C195.7,415.4,194.2,416.6,192,416.4z"/>
<path class="st1" d="M407.2,447.9c0-35.8,23.8-65.5,57.1-73.2c32.4-7.5,65.5,7.8,80.3,37c17.1,33.8,4.9,75.2-27.9,94.8
	c-29.1,17.4-65.8,13-89.2-11C414,481.9,407.5,465.2,407.2,447.9z M416.2,445.9c0,17.8,7.5,34.6,20.7,46.4
	c21.6,19.2,53.6,21.1,78,4.7c26.8-18.1,36-53.4,21.3-81.7c-12.5-24.1-39.4-37.1-66.9-32.3C438.9,388.2,416.3,415,416.2,445.9z"/>
<path class="st1" d="M497.2,443.2c0,9.4-7.8,17.1-17.2,16.9c-9.5-0.1-17.3-8.1-17.2-17.4c0.1-9.2,7.8-16.8,17.1-16.8
	C489.4,426,497.2,433.8,497.2,443.2z M480,451c4.4,0,7.9-3.2,8.1-7.5c0.1-4.6-3.6-8.4-8.3-8.4c-4.4,0-7.8,3.4-7.9,7.7
	C471.9,447.3,475.5,450.9,480,451z"/>
<path class="st1" d="M458.6,443.8c0,9.3-7.6,16.8-16.9,16.9c-9.5,0.1-17.6-8-17.5-17.4c0.1-9.3,7.9-16.8,17.1-16.8
	C450.8,426.6,458.6,434.4,458.6,443.8z M441.4,451.6c4.4,0,7.9-3.2,8-7.6c0.1-4.4-3.5-8.2-8.1-8.3c-4.5-0.1-8.1,3.3-8.1,7.7
	C433.3,448,436.9,451.5,441.4,451.6z"/>
<path class="st1" d="M500.6,443c0-9.3,7.4-16.8,16.8-17c9.5-0.1,17.7,7.9,17.6,17.3c-0.1,9.2-7.8,16.8-17.1,16.9
	C508.5,460.2,500.6,452.4,500.6,443z M517.5,451c4.6,0.2,8.2-3.1,8.3-7.5c0.1-4.5-3.5-8.2-8-8.3c-4.4-0.1-8,3.2-8.2,7.4
	C509.4,446.9,513,450.8,517.5,451z"/>
<path class="st3" d="M77.6,357.3l12.4,12.4c2.9,2.9,7.7,2.9,10.6,0l12.4-12.4c2.9-2.9,2.9-7.7,0-10.6l-12.4-12.4
	c-2.9-2.9-7.7-2.9-10.6,0l-12.4,12.4C74.6,349.6,74.6,354.4,77.6,357.3z"/>
<path class="st3" d="M77.6,393.4l12.4,12.4c2.9,2.9,7.7,2.9,10.6,0l12.4-12.4c2.9-2.9,2.9-7.7,0-10.6l-12.4-12.4
	c-2.9-2.9-7.7-2.9-10.6,0l-12.4,12.4C74.6,385.7,74.6,390.5,77.6,393.4z"/>
<path class="st1" d="M409.9,520l9.7,9.7c1.4,1.4,3.7,1.4,5.1,0l9.7-9.7c1.4-1.4,1.4-3.7,0-5.2l-9.7-9.7c-1.4-1.4-3.7-1.4-5.1,0
	l-9.7,9.7C408.4,516.3,408.4,518.6,409.9,520z"/>
</svg>
