<?xml version="1.0" encoding="utf-8"?>
<!-- Generator: Adobe Illustrator 28.0.0, SVG Export Plug-In . SVG Version: 6.00 Build 0)  -->
<svg version="1.1" id="Capa_1" xmlns="http://www.w3.org/2000/svg" xmlns:xlink="http://www.w3.org/1999/xlink" x="0px" y="0px"
	 viewBox="0 0 600 600" style="enable-background:new 0 0 600 600;" xml:space="preserve">
<style type="text/css">
	.st0{fill:#090909;}
	.st1{fill:#FDFDFD;}
	.st2{fill:#29E4A5;}
	.st3{fill:#6EE1EB;}
	.st4{fill:none;stroke:#29E4A5;stroke-width:10;stroke-miterlimit:10;}
</style>
<path class="st0" d="M187.9,31c39.4,0.4,78.8,0.8,118.2,1.1c5.8,0,7.3,2.2,7.3,7.3c0.1,19.3,0.3,38.6,0.5,58c0,3.3,0,3.4,3.3,3.5
	c5.2,0.2,10.2,1.2,15.2,2.7c10.3,3,17.3,9.8,22.7,18.7c5.7,9.5,8.2,19.9,9.3,30.8c1.2,12.6-0.9,24.7-4.4,36.6
	c-2.5,8.8-5.3,17.5-7.8,26.3c-3.5,12.3-5.9,24.8-8.3,37.4c-1.5,7.8-2.9,15.5-4.3,23.3c-0.4,2.4-0.7,4.8-0.8,7.3
	c-0.3,8.2-0.3,16.4,0.1,24.6c0.1,2.8,0.2,2.5,2.7,2.4c6-0.1,11.9-0.2,17.9-0.3c0.7,0,1.4,0,2,0c3.4,0.2,5.2,1.9,5.3,5.3
	c0.2,6.5,0.3,13.1,0.4,19.6c0.1,5.2,0.1,10.3,0.2,15.5c0,2.5,0,2.5,2.6,2.5c7.9,0,15.8-0.1,23.7-0.1c11.4,0,21.4,3.7,29.6,11.8
	c1.2,1.2,1.9,0.7,2.9,0.1c10.6-6.8,22-11.6,34.4-14.1c9.2-1.9,18.5-2.5,27.9-1.6c3.6,0.3,7.2,0.4,10.7,1.3
	c39.3,9.7,64.7,33.4,74.5,73.1c6.2,33.2-2.4,62.1-25.6,86.4c-16.4,17.2-36.9,27.1-60.5,29.4c-30.8,3-57.6-6.4-79.5-28.5
	c-12.2-12.3-20.1-27.2-24-44.1c-0.1-0.4-0.2-0.8-0.3-1.1c-0.5-2.2-0.5-2.2-2.8-2.3c-12.8-0.2-25.6-0.3-38.3-0.4
	c-39.7-0.4-79.4-0.8-119.1-1.2c-2.9,0-5.2-0.9-6.5-3.5c-0.6-1.2-1.3-1.2-2.3-1.2c-4.7-0.1-9.4-0.2-14-0.3
	c-24.1-0.3-48.2-0.6-72.3-0.9c-21.1-0.3-42.1-0.6-63.2-0.9c-0.7,0-1.4,0-2-0.1c-2.6-0.4-4.1-2.2-4-4.9c0.6-29.2,0.6-58.3,0.7-87.5
	c0.5-107.6,1-215.2,1.4-322.9c0-2.7,0.8-5,1.9-7.3c0.8-1.6,2.1-2.5,3.9-2.6c1.3-0.1,2.5,0,3.8,0C109.8,30.3,148.8,30.6,187.9,31z
	 M191.3,377c-0.9-0.5-2-0.2-3-0.2c-31,0.1-62.1,0.2-93.1,0.2c-1.1,0-2.2,0.1-3.2-0.1c-2.7-0.3-4.5-2.2-4.5-4.6
	c0-2.5,1.9-4.4,4.7-4.6c0.9-0.1,1.8,0,2.6,0c32.9,0,65.8-0.1,98.6-0.1c1.8,0,3-0.4,4.2-2c2.3-3.1,5.3-5.7,8.6-7.9
	c3.8-2.6,8-3.9,12.6-3.9c11.7,0.1,23.4,0,35.1-0.1c2.5,0,2.5,0,2.6-2.4c0.2-11.4,0.3-22.8,0.5-34.2c0-2,0.4-3.7,2.2-4.8
	c1.1-0.7,2.4-0.8,3.7-0.8c7-0.1,14-0.1,21.1-0.2c2.5,0,2.6-0.1,2.5-2.6c-0.4-7.7-0.6-15.4-1.2-23.1c-1-12.6-2.1-25.3-4.7-37.7
	c-2.1-9.5-3.9-19.1-7.2-28.3c-5-13.9-9.2-27.9-13.1-42.1c-2.9-10.7-4.6-21.3-3.1-32.4c0.8-5.8,1.6-11.6,4.1-17
	c5.4-11.7,14.7-19.2,26.5-23.7c4.8-1.9,9.9-2.8,15.1-3.4c1.3-0.1,1.8-0.4,1.8-1.9c-0.2-18.6-0.4-37.3-0.5-55.9c0-1.4-0.3-2.3-1.9-2
	c-0.6,0.1-1.2,0-1.8,0c-34.9-0.3-69.9-0.6-104.8-0.9c-40.9-0.4-81.8-0.7-122.6-1.1c-2.5,0-2.5,0-2.6,2.5c0,0.2,0,0.4,0,0.6
	c-0.1,21.6-0.1,43.1-0.2,64.7c-0.5,111.9-1.1,223.8-1.6,335.7c0,4-0.4,3.4,3.4,3.4c26.1,0.4,52.3,0.7,78.4,1.1
	c21.2,0.3,42.3,0.5,63.5,0.8c0.8,0,1.6,0.2,2.4-0.3c0-0.5,0.1-1.1,0.1-1.6c0-7.5,0-15,0.1-22.5c0-2.4,0-2.4-2.4-2.4
	c-5.8,0-11.5,0-17.3,0c-3.3,0-4.6-1.2-5.5-4.5c-0.7-2.5-0.3-5-0.3-7.6c0-3.3,0-3.3-3.4-3.4c-31.4-0.1-62.8-0.3-94.2-0.4
	c-1,0-2,0-2.9-0.1c-2.2-0.4-3.7-2-3.9-4.1c-0.2-2.3,1.1-4.1,3.5-4.8c1.2-0.4,2.5-0.3,3.8-0.3c31.2,0.1,62.4,0.3,93.7,0.4
	c0.7,0,1.4-0.1,2,0c1.5,0.2,1.8-0.5,1.8-1.9C191.3,388.7,191.3,382.9,191.3,377z M313,311.1c0-0.1,0-0.1,0-0.2c4.1,0,8.2,0,12.3,0
	c1.6,0,3.8,0.7,4.8-0.4c1.2-1.2,0.1-3.3,0.1-5c-0.3-8-1.2-15.9-0.5-24c0.6-6.4,1.9-12.7,3.1-19c2.6-14.2,5.4-28.3,8.7-42.4
	c2.3-10,6.1-19.5,8.6-29.4c2-7.8,4.6-15.5,5.1-23.7c0.9-13.9-0.8-27.2-7.7-39.6c-5.1-9.2-12.7-14.9-23.1-16.6
	c-10.3-1.7-20.7-1.6-30.7,1.4c-13.6,4.1-23.3,12.4-26.3,27c-1.8,8.5-2.6,17.1-0.7,25.6c2.7,11.8,5.7,23.5,9.5,35
	c2.9,9,6.6,17.7,8.9,26.9c3.3,13.1,6.3,26.3,7.8,39.8c1.5,14.2,2.4,28.4,2.9,42.6c0.1,2.1,0.1,2.1,2.1,2.1
	C302.8,311.1,307.9,311.1,313,311.1z M416.9,371.9c-2.4-2.7-5.2-4.5-8.1-6c-5.6-2.9-11.8-3.3-17.9-3.3
	c-57.1,0.2-114.1,0.4-171.2,0.5c-3.8,0-6.8,1.2-9.7,3.3c-2,1.5-3.7,3.2-5.2,5.1c-1.5,1.9-2.8,4-3.6,6.3c-0.5,1.5-0.8,3.3,0,4.6
	c0.6,1.1,2.3,0.4,3.6,0.4c53.9,0.1,107.9,0.2,161.8,0.3c1.3,0,2.5-0.1,3.8,0.2c2.2,0.7,3.5,2.3,3.5,4.4c0,2.2-1.5,4.1-3.9,4.5
	c-1,0.2-2.1,0.1-3.2,0.1c-37.2-0.1-74.3-0.2-111.5-0.3c-17.4,0-34.7-0.1-52.1-0.1c-2.6,0-2.6,0-2.7,2.5c-0.1,4.6-0.1,9.2-0.2,13.8
	c0,4.2-0.7,3.6,3.4,3.6c40.5,0.1,81,0.1,121.4,0.2c20.1,0,40.2,0.1,60.3,0.1c2.8,0,2.4,0.3,3.5-2.4c1.9-4.8,4.3-9.4,7-13.8
	C401.6,386.9,408.5,379,416.9,371.9z M566.8,444.7c-0.3-4.6-0.4-7.8-0.7-11c-0.3-2.6-0.7-5.2-1.2-7.8c-8.6-40.4-44.3-68.3-85.9-67.8
	c-14.9,0.2-28.8,4-42,11c-30.4,16.3-48.7,49.6-45.9,83.9c1.9,22.7,11.5,41.7,28.6,56.7c26.5,23.3,65.2,28.4,97.1,12.2
	C548.7,505.8,565,479.1,566.8,444.7z M384.5,421.2c-0.9,0-1.9,0-3,0c-26.6,0-53.2,0-79.9-0.1c-24.4,0-48.8,0-73.1-0.1
	c-3.1,0-2.8-0.2-2.9,2.8c0,8.8,0,17.6-0.1,26.3c0,2.4,0,2.5,2.3,2.5c9.8,0.1,19.5,0.3,29.3,0.4c35.6,0.4,71.2,0.8,106.8,1.1
	c5.5,0.1,10.9,0.1,16.4,0.1c1.2,0,1.8-0.2,1.6-1.6c-0.1-1.1,0-2.1-0.1-3.2c-0.3-8.9,0.5-17.7,2.8-26.4
	C384.7,422.6,385,422.1,384.5,421.2z M357.5,320.1c-1.2-0.6-2.3-0.3-3.3-0.3c-22.6,0.2-45.2,0.4-67.8,0.6
	c-5.9,0.1-11.9,0.1-17.8,0.2c-2.2,0-2.2,0.1-2.2,2.3c-0.1,9.5-0.3,19.1-0.4,28.6c0,2.2,0,2.2,2.2,2.2c8.2,0,16.4,0,24.6-0.1
	c21-0.1,41.9-0.1,62.9-0.2c2.6,0,2.6,0,2.6-2.5c-0.1-6.2-0.1-12.5-0.2-18.7C357.7,328.2,357.6,324.1,357.5,320.1z"/>
<path class="st1" d="M191.3,377c0,5.9,0,11.8,0,17.6c0,1.3-0.3,2-1.8,1.9c-0.7-0.1-1.4,0-2,0c-31.2-0.1-62.4-0.3-93.7-0.4
	c-1.3,0-2.5-0.1-3.8,0.3c-2.3,0.7-3.6,2.4-3.5,4.8c0.2,2.1,1.7,3.8,3.9,4.1c1,0.2,1.9,0.1,2.9,0.1c31.4,0.1,62.8,0.3,94.2,0.4
	c3.5,0,3.4,0,3.4,3.4c0,2.5-0.4,5.1,0.3,7.6c0.9,3.3,2.2,4.4,5.5,4.5c5.8,0.1,11.5,0,17.3,0c2.3,0,2.4,0,2.4,2.4
	c0,7.5,0,15-0.1,22.5c0,0.6-0.1,1.1-0.1,1.6c-0.8,0.5-1.6,0.3-2.4,0.3c-21.2-0.2-42.3-0.5-63.5-0.8c-26.1-0.3-52.3-0.7-78.4-1.1
	c-3.8-0.1-3.4,0.5-3.4-3.4c0.5-111.9,1.1-223.8,1.6-335.7c0.1-21.6,0.2-43.1,0.2-64.7c0-0.2,0-0.4,0-0.6c0-2.5,0-2.5,2.6-2.5
	c40.9,0.4,81.8,0.7,122.6,1.1c34.9,0.3,69.9,0.6,104.8,0.9c0.6,0,1.2,0.1,1.8,0c1.7-0.2,1.9,0.6,1.9,2c0.1,18.6,0.3,37.3,0.5,55.9
	c0,1.5-0.6,1.8-1.8,1.9c-5.2,0.5-10.3,1.5-15.1,3.4c-11.8,4.6-21.1,12-26.5,23.7c-2.5,5.4-3.4,11.2-4.1,17
	c-1.4,11,0.2,21.7,3.1,32.4c3.8,14.2,8.1,28.3,13.1,42.1c3.3,9.2,5.1,18.8,7.2,28.3c2.7,12.4,3.8,25.1,4.7,37.7
	c0.6,7.7,0.8,15.4,1.2,23.1c0.1,2.5,0,2.6-2.5,2.6c-7,0.1-14,0.1-21.1,0.2c-1.3,0-2.5,0.1-3.7,0.8c-1.8,1.1-2.1,2.9-2.2,4.8
	c-0.1,11.4-0.3,22.8-0.5,34.2c0,2.4,0,2.4-2.6,2.4c-11.7,0-23.4,0.2-35.1,0.1c-4.7,0-8.8,1.3-12.6,3.9c-3.3,2.2-6.2,4.8-8.6,7.9
	c-1.1,1.5-2.3,2-4.2,2c-32.9,0-65.8,0-98.6,0.1c-0.9,0-1.8,0-2.6,0c-2.8,0.2-4.8,2.1-4.7,4.6c0,2.3,1.8,4.2,4.5,4.6
	c1.1,0.1,2.1,0.1,3.2,0.1c31-0.1,62.1-0.2,93.1-0.2C189.4,376.8,190.5,376.5,191.3,377z M185.4,93.7
	C185.4,93.7,185.4,93.8,185.4,93.7c29.6,0.1,59.1,0.1,88.7,0.1c2.1,0,4.3,0,6.4,0c3.5-0.1,5.2-1.7,5.5-5.1c0.1-1.1,0.1-2.1,0.2-3.2
	c0.1-7.3,0.3-14.6,0.4-21.9c0-1.3,0.2-2.5,0.1-3.8c-0.1-2.7-1.2-4.1-3.7-5c-1.8-0.6-3.6-0.6-5.5-0.6c-61.6,0.2-123.3,0.4-184.9,0.6
	c-0.8,0-1.6,0-2.3,0c-3.6,0.2-5.3,2-5.4,5.6c-0.1,2.9,0,5.9,0,8.8c0,6.3,0,12.7,0.1,19c0.1,3.7,2.3,5.7,5.9,5.7
	c1.3,0,2.5-0.1,3.8-0.1C124.9,93.7,155.2,93.7,185.4,93.7z M154.6,349.9c34.4,0.2,62.5-27.4,62.7-61.6c0.2-34.6-27.6-63.4-62.8-63.9
	c-35-0.4-63.1,27.2-63.2,61.9C91.1,321.2,119.6,349.7,154.6,349.9z M161.9,207.2c0-0.1,0-0.1,0-0.2c23.4,0,46.8,0,70.2,0
	c1.3,0,2.6,0,3.8-0.2c2.1-0.4,3.6-2.3,3.6-4.4c0-2.1-1.5-4-3.6-4.4c-0.9-0.2-1.9-0.2-2.9-0.2c-47.5,0-95,0-142.5,0.1
	c-0.9,0-1.8,0-2.6,0.1c-2.2,0.4-3.9,2.3-3.9,4.5c0,2.1,1.5,3.8,3.6,4.4c1.2,0.3,2.5,0.2,3.8,0.2
	C114.9,207.2,138.4,207.2,161.9,207.2z M159.6,149.8c0,0,0,0.1,0,0.1c23.6,0,47.2,0,70.8,0c1.3,0,2.5,0.1,3.8-0.3
	c2.1-0.7,3.3-2.3,3.2-4.4c0-2-1.3-3.7-3.3-4.3c-0.8-0.2-1.7-0.3-2.6-0.3c-48-0.1-96-0.1-144-0.2c-2.8,0-4.9,2-5,4.6
	c-0.1,2.8,2.1,4.9,5.1,4.9c1.8,0,3.5-0.1,5.3-0.1C115.2,149.8,137.4,149.8,159.6,149.8z M161,178.7c0-0.1,0-0.2,0-0.3
	c23.3,0,46.6,0,69.9,0c1.2,0,2.4,0,3.5-0.2c2.2-0.4,3.6-2.1,3.6-4.3c0-2.2-1.5-4.1-3.8-4.5c-0.8-0.1-1.6-0.1-2.3-0.1
	c-47.1,0.1-94.2,0.2-141.4,0.2c-1,0-1.9,0-2.9,0.3c-2.3,0.7-3.6,2.5-3.5,4.8c0.2,2.1,1.7,3.8,3.9,4.1c1.1,0.2,2.1,0.1,3.2,0.1
	C114.5,178.7,137.7,178.7,161,178.7z M160.3,121.3c0-0.1,0-0.2,0-0.3c23,0,46,0,69.1,0c1.3,0,2.6,0,3.8-0.3c2-0.4,3.4-2.1,3.5-4.1
	c0.1-2.1-1.3-4-3.4-4.6c-0.8-0.2-1.7-0.2-2.6-0.2c-46.9,0-93.8,0.1-140.7,0.1c-1,0-1.9,0-2.9,0.3c-2.1,0.7-3.2,2.3-3.2,4.4
	c0,1.9,1.2,3.4,3.1,4.2c1.2,0.5,2.5,0.4,3.8,0.4C113.8,121.3,137.1,121.3,160.3,121.3z M127.6,434.5
	C127.6,434.5,127.6,434.5,127.6,434.5c11.7,0,23.4,0,35.1,0c1.1,0,2.1,0.1,3.2-0.2c2-0.6,3.4-2.3,3.4-4.3c0-2-1.2-3.7-3.2-4.4
	c-0.9-0.3-1.9-0.4-2.9-0.4c-23.8,0-47.6,0-71.4,0c-1,0-1.9,0-2.9,0.4c-1.9,0.7-3.1,2.3-3.1,4.2c0,1.9,1.3,3.7,3.2,4.4
	c1.1,0.4,2.3,0.3,3.5,0.3C104.2,434.5,115.9,434.5,127.6,434.5z"/>
<path class="st1" d="M313,311.1c-5.1,0-10.1,0-15.2,0c-2,0-2,0-2.1-2.1c-0.5-14.2-1.4-28.4-2.9-42.6c-1.5-13.5-4.5-26.7-7.8-39.8
	c-2.3-9.2-6-17.9-8.9-26.9c-3.7-11.5-6.8-23.2-9.5-35c-1.9-8.5-1-17.1,0.7-25.6c3-14.6,12.7-22.8,26.3-27c10-3.1,20.4-3.2,30.7-1.4
	c10.4,1.8,18,7.4,23.1,16.6c6.9,12.4,8.5,25.8,7.7,39.6c-0.5,8.1-3.2,15.8-5.1,23.7c-2.5,9.9-6.3,19.5-8.6,29.4
	c-3.3,14-6.1,28.2-8.7,42.4c-1.2,6.3-2.5,12.6-3.1,19c-0.8,8,0.2,16,0.5,24c0.1,1.7,1.1,3.8-0.1,5c-1,1.1-3.2,0.3-4.8,0.4
	c-4.1,0.1-8.2,0-12.3,0C313,311,313,311,313,311.1z M311.4,179.4c1.7,0,3.9-0.2,6.1-0.7c11.9-2.7,20.7-13.2,21-25
	c0.4-16.9-14.5-28.8-30-27.3c-4.3,0.4-8.3,1.8-12,4.1c-9.4,5.5-14.7,16.6-12.6,27.1C286.4,170.4,297.4,179.4,311.4,179.4z"/>
<path class="st1" d="M416.9,371.9c-8.4,7.1-15.3,15-20.9,24c-2.7,4.4-5.1,9-7,13.8c-1.1,2.7-0.8,2.4-3.5,2.4
	c-20.1,0-40.2-0.1-60.3-0.1c-40.5-0.1-81-0.1-121.4-0.2c-4.1,0-3.4,0.5-3.4-3.6c0-4.6,0.1-9.2,0.2-13.8c0-2.5,0.1-2.5,2.7-2.5
	c17.4,0,34.7,0.1,52.1,0.1c37.2,0.1,74.3,0.2,111.5,0.3c1.1,0,2.2,0.1,3.2-0.1c2.3-0.4,3.9-2.2,3.9-4.5c0-2.2-1.3-3.8-3.5-4.4
	c-1.2-0.4-2.5-0.2-3.8-0.2c-53.9-0.1-107.9-0.2-161.8-0.3c-1.2,0-2.9,0.6-3.6-0.4c-0.8-1.3-0.5-3.1,0-4.6c0.8-2.3,2.1-4.4,3.6-6.3
	c1.5-1.9,3.3-3.6,5.2-5.1c2.9-2.2,5.9-3.3,9.7-3.3c57.1-0.1,114.1-0.3,171.2-0.5c6.1,0,12.3,0.4,17.9,3.3
	C411.8,367.4,414.5,369.2,416.9,371.9z"/>
<path class="st1" d="M384.5,421.2c0.5,0.8,0.2,1.4,0.1,2c-2.2,8.7-3.1,17.5-2.8,26.4c0,1.1-0.1,2.2,0.1,3.2c0.2,1.4-0.4,1.6-1.6,1.6
	c-5.5-0.1-10.9-0.1-16.4-0.1c-35.6-0.4-71.2-0.7-106.8-1.1c-9.8-0.1-19.5-0.3-29.3-0.4c-2.3,0-2.3,0-2.3-2.5c0-8.8,0-17.6,0.1-26.3
	c0-3.1-0.2-2.8,2.9-2.8c24.4,0,48.8,0,73.1,0.1c26.6,0,53.2,0,79.9,0.1C382.5,421.2,383.6,421.2,384.5,421.2z"/>
<path class="st1" d="M357.5,320.1c0.1,4,0.2,8.1,0.3,12.2c0.1,6.2,0.2,12.5,0.2,18.7c0,2.5,0,2.5-2.6,2.5c-21,0.1-41.9,0.1-62.9,0.2
	c-8.2,0-16.4,0.1-24.6,0.1c-2.2,0-2.2,0-2.2-2.2c0.1-9.6,0.2-19.1,0.4-28.6c0-2.2,0.1-2.3,2.2-2.3c5.9-0.1,11.9-0.1,17.8-0.2
	c22.6-0.2,45.2-0.4,67.8-0.6C355.2,319.8,356.3,319.6,357.5,320.1z"/>
<path class="st0" d="M185.4,93.7c-30.2,0-60.5,0-90.7,0c-1.3,0-2.5,0-3.8,0.1c-3.7,0-5.9-2-5.9-5.7c-0.1-6.3-0.1-12.7-0.1-19
	c0-2.9-0.1-5.9,0-8.8c0.1-3.6,1.8-5.3,5.4-5.6c0.8-0.1,1.6,0,2.3,0c61.6-0.2,123.3-0.4,184.9-0.6c1.9,0,3.7,0,5.5,0.6
	c2.5,0.9,3.6,2.3,3.7,5c0.1,1.3-0.1,2.5-0.1,3.8c-0.1,7.3-0.3,14.6-0.4,21.9c0,1.1-0.1,2.1-0.2,3.2c-0.3,3.4-2,5-5.5,5.1
	c-2.1,0.1-4.3,0-6.4,0C244.5,93.8,215,93.8,185.4,93.7C185.4,93.8,185.4,93.7,185.4,93.7z M277,63.5c-0.9-0.4-2-0.1-3.2-0.1
	c-56.7,0.2-113.3,0.4-170,0.6c-2.6,0-5.3,0.1-7.9,0c-1.6-0.1-2,0.5-2,2c0.1,5,0.1,9.9,0.1,14.9c0,3.5,0,3.5,3.6,3.5
	c58.6,0,117.2,0.1,175.8,0.1c0.7,0,1.4,0,2,0c0.9,0,1.4-0.2,1.4-1.3C277,76.7,277,70.2,277,63.5z"/>
<path class="st0" d="M154.6,349.9c-35.1-0.2-63.5-28.7-63.4-63.6c0.1-34.7,28.2-62.3,63.2-61.9c35.2,0.4,63,29.2,62.8,63.9
	C217.1,322.5,189,350.1,154.6,349.9z M100.4,286.6c0,29.8,24.6,54.2,54.6,54.2c29.4,0,53-23.6,53-52.9c0-29.9-24.4-54.1-54.5-54.1
	C124.1,233.7,100.4,257.3,100.4,286.6z"/>
<path class="st0" d="M161.9,207.2c-23.5,0-47,0-70.5,0c-1.3,0-2.5,0.1-3.8-0.2c-2.2-0.6-3.6-2.3-3.6-4.4c0-2.1,1.6-4.1,3.9-4.5
	c0.9-0.1,1.7-0.1,2.6-0.1c47.5,0,95,0,142.5-0.1c1,0,2,0,2.9,0.2c2.1,0.4,3.6,2.3,3.6,4.4c0,2.1-1.5,4-3.6,4.4
	c-1.2,0.2-2.5,0.2-3.8,0.2c-23.4,0-46.8,0-70.2,0C161.9,207.1,161.9,207.1,161.9,207.2z"/>
<path class="st0" d="M159.6,149.8c-22.2,0-44.5,0-66.7,0c-1.8,0-3.5,0.1-5.3,0.1c-3,0-5.1-2.1-5.1-4.9c0.1-2.7,2.1-4.6,5-4.6
	c48,0.1,96,0.1,144,0.2c0.9,0,1.8,0,2.6,0.3c2.1,0.6,3.3,2.3,3.3,4.3c0,2.1-1.2,3.6-3.2,4.4c-1.2,0.4-2.5,0.3-3.8,0.3
	c-23.6,0-47.2,0-70.8,0C159.6,149.9,159.6,149.8,159.6,149.8z"/>
<path class="st0" d="M161,178.7c-23.2,0-46.4,0-69.7,0c-1.1,0-2.2,0.1-3.2-0.1c-2.2-0.3-3.7-2-3.9-4.1c-0.2-2.3,1.1-4.1,3.5-4.8
	c1-0.3,1.9-0.3,2.9-0.3c47.1-0.1,94.2-0.2,141.4-0.2c0.8,0,1.6,0,2.3,0.1c2.3,0.4,3.8,2.3,3.8,4.5c0,2.2-1.4,3.9-3.6,4.3
	c-1.1,0.2-2.3,0.2-3.5,0.2c-23.3,0-46.6,0-69.9,0C161,178.5,161,178.6,161,178.7z"/>
<path class="st0" d="M160.3,121.3c-23.2,0-46.4,0-69.6,0c-1.3,0-2.5,0.1-3.8-0.4c-1.9-0.7-3-2.2-3.1-4.2c0-2.1,1.1-3.7,3.2-4.4
	c0.9-0.3,1.9-0.3,2.9-0.3c46.9-0.1,93.8-0.1,140.7-0.1c0.9,0,1.8,0,2.6,0.2c2.1,0.5,3.5,2.5,3.4,4.6c-0.1,2-1.5,3.7-3.5,4.1
	c-1.2,0.2-2.5,0.3-3.8,0.3c-23,0-46,0-69.1,0C160.3,121.1,160.3,121.2,160.3,121.3z"/>
<path class="st0" d="M127.6,434.5c-11.7,0-23.4,0-35.1,0c-1.2,0-2.3,0.1-3.5-0.3c-2-0.7-3.3-2.5-3.2-4.4c0-1.9,1.3-3.5,3.1-4.2
	c0.9-0.3,1.9-0.4,2.9-0.4c23.8,0,47.6,0,71.4,0c1,0,1.9,0,2.9,0.4c2,0.7,3.3,2.4,3.2,4.4c0,2-1.4,3.7-3.4,4.3
	c-1,0.3-2.1,0.2-3.2,0.2C151,434.5,139.3,434.5,127.6,434.5C127.6,434.5,127.6,434.5,127.6,434.5z"/>
<path class="st0" d="M311.4,179.4c-13.9,0-24.9-9-27.5-21.9c-2.1-10.5,3.2-21.6,12.6-27.1c3.8-2.2,7.7-3.6,12-4.1
	c15.5-1.5,30.5,10.4,30,27.3c-0.3,11.8-9.2,22.3-21,25C315.3,179.2,313.1,179.4,311.4,179.4z M292.7,153.4c0.1,1,0.1,2.5,0.6,3.9
	c3.7,13,20.8,17.3,30.8,7.6c6.3-6.1,7-15.8,1.6-22.6c-3.1-3.9-7.1-6.1-11.9-6.7C302.1,134,292.5,142.7,292.7,153.4z"/>
<path class="st2" d="M407.2,446.8c0-34.7,23.8-64.4,57.1-72c34.2-7.9,68.3,9.2,82.3,41.3c11.7,26.8,5.2,59.3-16.3,80
	c-15.9,15.4-35.2,22.6-57.3,20.8c-35.1-2.8-60.4-29.2-65-60.1C407.5,453.2,407.3,449.6,407.2,446.8z M416.2,449.2
	c0.2,15,6.9,30.7,20.8,43.1c21.6,19.3,53.6,21.1,78,4.6c26.7-18.1,35.9-53.2,21.3-81.5c-12.5-24.2-39.5-37.4-66.8-32.6
	C438.9,388.3,416.4,414.8,416.2,449.2z"/>
<path class="st1" d="M277,63.5c0,6.7,0,13.2,0,19.7c0,1.1-0.5,1.3-1.4,1.3c-0.7,0-1.4,0-2,0c-58.6,0-117.2-0.1-175.8-0.1
	c-3.6,0-3.6,0-3.6-3.5c0-5,0-9.9-0.1-14.9c0-1.5,0.4-2.1,2-2c2.6,0.1,5.3,0,7.9,0c56.7-0.2,113.3-0.4,170-0.6
	C275,63.4,276.1,63.1,277,63.5z"/>
<path class="st1" d="M100.4,286.6c0-29.3,23.7-52.9,53.1-52.9c30.1,0,54.5,24.2,54.5,54.1c0,29.3-23.6,52.9-53,52.9
	C125,340.8,100.5,316.4,100.4,286.6z M147,305.7c1.6,0,2.8-0.9,4-2c6.4-5.7,12.6-11.6,18.7-17.7c3.6-3.6,7.4-7,10.5-11
	c1.6-2.1,1.4-4.6-0.4-6c-1.7-1.3-4-1.2-5.8,0.7c-2.7,2.9-5.7,5.6-8.7,8.3c-5.6,5.2-11.2,10.3-16.8,15.4c-1.5,1.4-1.5,1.3-3,0
	c-1.8-1.7-3.5-3.4-5.3-5c-1.6-1.5-3.2-3.2-4.9-4.5c-2.9-2.3-6.9-0.7-7.4,2.8c-0.3,1.8,0.6,3.2,1.8,4.4c4.6,4.4,9.2,8.7,13.8,13.1
	C144.5,305,145.6,305.6,147,305.7z"/>
<path class="st1" d="M292.7,153.4c-0.2-10.8,9.4-19.4,21-17.8c4.8,0.7,8.9,2.9,11.9,6.7c5.4,6.8,4.7,16.5-1.6,22.6
	c-10,9.7-27.1,5.4-30.8-7.6C292.8,155.9,292.8,154.4,292.7,153.4z"/>
<path class="st0" d="M147,305.7c-1.4-0.1-2.5-0.6-3.4-1.5c-4.6-4.4-9.2-8.7-13.8-13.1c-1.2-1.2-2.1-2.6-1.8-4.4
	c0.5-3.5,4.5-5.1,7.4-2.8c1.8,1.4,3.3,3,4.9,4.5c1.8,1.7,3.5,3.4,5.3,5c1.5,1.4,1.5,1.4,3,0c5.6-5.1,11.2-10.3,16.8-15.4
	c2.9-2.7,5.9-5.3,8.7-8.3c1.7-1.9,4.1-2.1,5.8-0.7c1.8,1.4,2,3.9,0.4,6c-3.1,4-6.9,7.4-10.5,11c-6,6.1-12.3,12-18.7,17.7
	C149.8,304.8,148.6,305.7,147,305.7z"/>
<path class="st2" d="M534.6,426.9c-0.1,2.4-0.8,4.8-2.4,6.9c-1.1,1.4-2.3,2.7-3.5,3.9c-14,14-28.2,27.8-42.1,41.9
	c-3.7,3.7-7.8,7.1-11.6,10.7c-1.5,1.4-3.3,2.4-5.1,3.3c-3.3,1.7-6.5,1.5-9.7-0.6c-2.5-1.7-4.8-3.7-6.9-5.9
	c-7.8-8-15.6-16.1-23.4-24.2c-2-2.1-3.6-4.5-5.2-7c-2.3-3.7-1.9-7.3,0.6-10.3c4-4.9,8.3-9.6,13.4-13.4c1.5-1.1,3.2-1.9,5-2.4
	c3.1-1,5.7-0.1,8.2,1.8c3,2.3,5.6,5.1,8.3,7.8c1.8,1.7,3.5,3.4,5.2,5.1c0.8,0.8,1.4,0.8,2.1,0c0.8-1,1.8-1.8,2.7-2.7
	c11.3-11.4,22.7-22.8,34.4-33.9c2.8-2.7,5.8-4.9,10.1-4.2c2.2,0.3,4.1,1.1,5.7,2.7c3.3,3.4,6.7,6.8,9.9,10.4
	C532.8,419.4,534.6,422.7,534.6,426.9z M460,452.4c-4.1-4.3-7.6-8.1-11.2-11.7c-2.6-2.6-4.1-2.7-7.1-0.5c-3.1,2.3-5.7,5-8.2,7.9
	c-2.3,2.6-2.3,3.2-0.1,6.1c8.2,10.5,18.3,19.1,27.5,28.7c0.1,0.1,0.3,0.2,0.5,0.4c1.7,1.5,3.7,1.6,5.8,1c1.4-0.4,2.7-1.1,3.9-1.9
	c2.3-1.7,4.3-3.7,6.3-5.7c15.4-16.2,31.6-31.6,47.4-47.3c1.8-1.8,2.1-3.5,0.6-5.4c-3.2-4-6.9-7.5-10.5-11c-1.1-1-2.2-1-3.4-0.1
	c-1.3,1-2.5,2.1-3.7,3.3c-5.9,6.2-11.8,12.4-18,18.4c-4.6,4.5-9.1,9.1-13.6,13.7c-4.2,4.4-8.6,8.8-13,13.1c-2.1,2-4.8,2.1-6.6,0.3
	c-1.8-1.7-1.8-4.4,0.2-6.6C457.8,454,459,453.1,460,452.4z"/>
<path class="st3" d="M49.6,170.1l12.3,12.3c2.9,2.9,7.7,2.9,10.6,0l12.3-12.3c2.9-2.9,2.9-7.7,0-10.6l-12.3-12.3
	c-2.9-2.9-7.7-2.9-10.6,0l-12.3,12.3C46.7,162.4,46.7,167.1,49.6,170.1z"/>
<path class="st3" d="M49.6,206l12.3,12.3c2.9,2.9,7.7,2.9,10.6,0L84.8,206c2.9-2.9,2.9-7.7,0-10.6l-12.3-12.3
	c-2.9-2.9-7.7-2.9-10.6,0l-12.3,12.3C46.7,198.4,46.7,203.1,49.6,206z"/>
<path class="st2" d="M407.3,518.6l9.7,9.7c1.4,1.4,3.7,1.4,5.1,0l9.7-9.7c1.4-1.4,1.4-3.7,0-5.1l-9.7-9.7c-1.4-1.4-3.7-1.4-5.1,0
	l-9.7,9.7C405.9,514.8,405.9,517.1,407.3,518.6z"/>
<path class="st2" d="M479.3,468.9l9.7,9.7c1.4,1.4,3.7,1.4,5.1,0l9.7-9.7c1.4-1.4,1.4-3.7,0-5.1l-9.7-9.7c-1.4-1.4-3.7-1.4-5.1,0
	l-9.7,9.7C477.9,465.2,477.9,467.5,479.3,468.9z"/>
<circle class="st4" cx="478.2" cy="444.8" r="92"/>
</svg>
