<?xml version="1.0" encoding="utf-8"?>
<!-- Generator: Adobe Illustrator 28.0.0, SVG Export Plug-In . SVG Version: 6.00 Build 0)  -->
<svg version="1.1" id="Capa_1" xmlns="http://www.w3.org/2000/svg" xmlns:xlink="http://www.w3.org/1999/xlink" x="0px" y="0px"
	 viewBox="0 0 600 600" style="enable-background:new 0 0 600 600;" xml:space="preserve">
<style type="text/css">
	.st0{fill:#090909;}
	.st1{fill:#FDFDFD;}
	.st2{fill:#DBB300;}
	.st3{fill:#6EE1EB;}
	.st4{fill:none;stroke:#DBB300;stroke-width:11;stroke-miterlimit:10;}
</style>
<path class="st0" d="M389.5,407.8c-1.2-0.4-2.4-0.2-3.5-0.2c-96.6,0-193.2,0-289.8,0c-6.6,0-13.1-0.4-19.5-1.9
	c-8.4-1.9-16.2-9.7-15.1-20.1c0.3-3,1.6-5.6,3.6-7.8c15.1-17.1,30.2-34.3,45.3-51.4c1.2-1.4,2.2-2.6,1.4-4.6
	c-0.3-0.8-0.1-1.7-0.1-2.6c-0.1-69.8-0.2-139.5-0.3-209.3c0-1.3-0.1-2.5,0.3-3.8c0.5-2,1.7-3,3.7-3.1c2-0.1,4.1,0,6.1,0
	c110.6-0.1,221.3-0.3,331.9-0.4c0.4,0,0.8,0,1.2,0c4.8-0.3,6.9,0.8,8.1,7.4c0.5,2.5,0.4,5,0.6,7.6c0,0.5,0.2,0.9,0.3,1.5
	c2.6-0.8,5-1.8,7.7-2.1c10.8-0.9,18.7,7,17.7,17.8c-0.4,4.5-1.9,8.5-4.4,12.3c-3.8,5.8-8.2,11.1-12.4,16.7c-2.3,3.1-4.7,6.3-7.1,9.3
	c-1.2,1.5-1.6,3-1.6,4.8c0.2,26.1,0.4,52.3,0.6,78.4c0.2,21.3,0.3,42.5,0.5,63.8c0,1.7,0.5,2.9,1.6,4.2c6.9,7.8,13.8,15.7,20.6,23.6
	c0.9,1,1.7,1.7,3.1,1.8c8.6,0.2,16.7,2.8,24.6,5.8c24.8,9.6,43.3,26.5,53.3,51.2c14.3,35.2,8.9,68.2-14.8,97.7
	c-15.7,19.6-36.6,31.2-61.4,34.7c-32.2,4.6-60.3-4.5-83.4-27.5c-15.2-15.2-23.8-33.8-26.2-55.2c-1.7-15.5,0.3-30.5,6-45
	C388.8,410.2,389.5,409.1,389.5,407.8z M454.8,187.8c-0.2,0-0.4-0.1-0.7-0.1c-0.3,0.4-0.6,0.7-0.9,1.1
	c-19.1,24.9-38.2,49.8-57.3,74.7c-1.9,2.4-4,4.4-6.7,5.9c-7.5,4.1-15,8.4-22.4,12.6c-0.8,0.4-1.5,0.9-2.3,1.2
	c-2.2,0.9-3.9,0.5-5.6-1.1c-2-1.9-2.1-4.2-1.5-6.7c2.2-9.6,4.5-19.2,6.6-28.8c0.5-2.2,1.5-4,2.8-5.7c23.6-30.5,47.2-60.9,70.7-91.4
	c5.6-7.3,11.4-14.4,16.7-21.8c0.7-1,1.1-1.9,0.9-3.2c-0.4-3.2-0.5-6.4-0.8-9.6c-0.3-3.9-0.3-3.1-3.4-3.1
	c-109,0.1-217.9,0.2-326.9,0.3c-3.8,0-3.4-0.5-3.4,3.4c0,67.3,0.1,134.6,0.1,201.9c0,4.1-0.6,3.9,3.9,3.9
	c109.2,0,218.3-0.1,327.5-0.1c0.7,0,1.4,0,2,0c1.2,0.1,1.6-0.5,1.5-1.6c0-0.5,0-1,0-1.5c-0.3-42.3-0.6-84.7-0.9-127
	C454.8,190.1,454.8,188.9,454.8,187.8z M410.9,377.3c-1.8,0-2.9,0-4,0c-99,0-198.1-0.1-297.1-0.1c-1.1,0-2.2,0.1-3.2-0.1
	c-2.5-0.3-4.3-2.1-4.3-4.4c0-2.3,1.7-4.2,4.2-4.4c1.1-0.1,2.1-0.1,3.2-0.1c76.3,0,152.6,0.1,228.9,0.1c26.1,0,52.3,0,78.4,0.1
	c3,0,5.3-0.7,7.8-2.3c11.5-7.8,24.1-12.9,37.9-15.4c4.3-0.8,8.7-1,13-1.6c0.1-0.9-0.6-1.3-1.1-1.8c-4.2-4.9-8.5-9.6-12.6-14.6
	c-1.5-1.8-3.1-2.5-5.5-2.5c-78.7,0.1-157.5,0.1-236.2,0.1c-32.9,0-65.8,0-98.6,0c-1.5,0-2.7,0.1-3.9,1.4c-14.4,16.5-29,33-43.4,49.5
	c-1.2,1.4-2.3,2.9-3,4.6c-1.4,3.4-0.6,6.3,2.5,8.5c1.9,1.4,4.1,2.2,6.4,2.8c5.1,1.2,10.2,1.4,15.4,1.4c97.4,0,194.7,0,292.1,0
	c1.8,0,3.7-0.2,5.5,0.3c0.5,0.1,1.1,0.2,1.4-0.2c1.5-2.3,2.9-4.7,4.5-7.3c-1.6,0-2.8,0-4,0c-100.3,0-200.6,0-300.9,0
	c-1.3,0-2.6,0.1-3.8-0.1c-2.3-0.4-3.8-2.3-3.7-4.5c0.1-2.1,1.6-3.8,3.8-4.1c1.2-0.2,2.3-0.1,3.5-0.1c103,0,206.1,0,309.1,0
	c0.7,0,1.4,0,2,0c0.6,0,1.1,0,1.6-0.5C407.9,380.5,409.2,379.1,410.9,377.3z M566.8,443.2c-0.2-5.8-0.7-11.6-1.9-17.2
	c-8.5-40.5-44.3-68.5-86.1-67.9c-14.9,0.2-28.9,4-41.9,11.1c-31.3,17.2-48.7,50.7-45.8,84c1.9,21.8,10.9,40.3,27,55.1
	c26.5,24.5,66.1,30.2,98.8,13.6C548.9,505.6,565.1,478.9,566.8,443.2z M389.3,257.4c26.3-34.3,52.6-68.6,78.9-102.9
	c-1.7-1.3-3.1-2.5-4.6-3.6c-2.8-2.2-5.7-4.4-8.5-6.7c-0.9-0.8-1.6-0.9-2.3,0.2c-0.2,0.3-0.5,0.6-0.7,0.9
	c-25.3,32.7-50.6,65.4-75.9,98.1c-0.6,0.7-1.4,1.4-1.6,2.6C379.5,249.6,384.3,253.4,389.3,257.4z M480.2,134.7
	c0.1-6.8-3.8-9.9-9.5-8.3c-4.9,1.3-8.1,4.8-10.6,9c-0.5,0.9,0.1,1.2,0.6,1.6c3.7,3,7.5,5.9,11.2,8.9c0.8,0.6,1.4,0.8,2.3,0
	C477.6,142.6,479.9,138.7,480.2,134.7z M367.6,271.3c5.2-2.9,9.7-5.5,14.5-8.2c-3.7-2.9-7-5.5-10.6-8.4
	C370.1,260.2,368.9,265.4,367.6,271.3z"/>
<path class="st1" d="M454.8,187.8c0,1.1,0,2.3,0,3.4c0.3,42.3,0.6,84.7,0.9,127c0,0.5,0,1,0,1.5c0.1,1.1-0.3,1.6-1.5,1.6
	c-0.7-0.1-1.4,0-2,0c-109.2,0-218.3,0.1-327.5,0.1c-4.6,0-3.9,0.2-3.9-3.9c0-67.3-0.1-134.6-0.1-201.9c0-4-0.4-3.4,3.4-3.4
	c109-0.1,217.9-0.2,326.9-0.3c3,0,3.1-0.8,3.4,3.1c0.2,3.2,0.4,6.4,0.8,9.6c0.2,1.3-0.2,2.2-0.9,3.2c-5.4,7.4-11.1,14.6-16.7,21.8
	c-23.6,30.5-47.1,60.9-70.7,91.4c-1.3,1.7-2.3,3.5-2.8,5.7c-2.1,9.6-4.4,19.2-6.6,28.8c-0.6,2.5-0.5,4.8,1.5,6.7
	c1.7,1.6,3.4,2.1,5.6,1.1c0.8-0.3,1.6-0.8,2.3-1.2c7.5-4.2,14.9-8.5,22.4-12.6c2.7-1.5,4.9-3.5,6.7-5.9
	c19.1-24.9,38.2-49.8,57.3-74.7c0.3-0.4,0.6-0.7,0.9-1.1C454.4,187.7,454.6,187.7,454.8,187.8z M316.5,272.5c-1.8,3-3.3,5.4-4.6,7.9
	c-1.5,2.8-2.8,5.8-2.9,9.1c-0.1,3.5,1.8,6.2,5,7.4c1.7,0.6,3.4,0.8,5.2,0.4c2.4-0.5,4.8-1,7-2c4.6-2,9.3-4,13.9-6
	c0.7-0.3,1.4-0.7,2-1.2c1.4-1.2,1.9-3.1,1.3-4.8c-0.6-1.7-1.9-2.7-3.7-2.9c-1.2-0.1-2.3,0.1-3.4,0.6c-4.4,2-8.9,4-13.4,5.9
	c-1.4,0.6-2.8,1.2-4.6,1.2c0.2-1.7,0.9-2.9,1.6-4.1c1.1-2,2.3-3.8,3.5-5.7c1.8-2.9,3.5-5.9,4.5-9.2c0.8-2.7,0.9-5.3-1.3-7.3
	c-2.1-2-4.6-1.8-7.1-0.9c-0.9,0.3-1.8,0.6-2.7,1.1c-3.9,2-7.8,4-11.4,6.5c-4.1,2.8-8.3,5.5-12.5,8.2c-0.7,0.5-1.5,1.5-2.5,0.7
	c0-0.5,0.2-0.7,0.4-1c3.9-5.9,8.3-11.5,12.5-17.3c2.3-3.2,4.4-6.4,6-10c0.9-1.9,1.5-3.8,1.6-5.9c0.2-5-3.6-8.1-8.4-6.9
	c-2.5,0.6-4.7,1.8-6.8,3.3c-3.4,2.4-6.5,5-9.4,7.9c-5.3,5.3-9.9,11.3-14.6,17.1c-6.1,7.6-10.7,16.3-17,23.7c-0.2,0.3-0.4,0.7-0.6,1
	c-0.5,1.5-0.3,2.9,0.8,4.1c1.1,1.1,2.5,1.5,4,1c0.9-0.3,1.7-1,2.4-1.7c2.2-2.4,4.2-4.9,6.1-7.5c5.8-7.9,11.5-15.7,17.8-23.2
	c3.8-4.6,7.7-9,12.5-12.7c0.5-0.4,0.9-1,1.8-0.8c-1.3,2.4-2.9,4.5-4.4,6.6c-2.7,3.6-5.3,7.2-8,10.8c-2,2.8-3.9,5.6-5.5,8.6
	c-1.1,2.2-2.1,4.4-2.4,6.9c-0.7,5.3,3.4,8.9,8.5,7.6c1.9-0.5,3.7-1.3,5.4-2.2c6-3.1,11.5-7,17-10.8
	C312.2,274.9,313.9,273.6,316.5,272.5z M272.3,164C272.3,164,272.3,164,272.3,164c19.4,0,38.8,0,58.2,0c1.2,0,2.3,0.1,3.5-0.2
	c2.2-0.6,3.6-2.3,3.5-4.4c0-2.2-1.4-3.8-3.7-4.2c-1.1-0.2-2.3-0.2-3.5-0.2c-38.5,0-77,0.1-115.5,0.1c-1,0-2,0-2.9,0.1
	c-2.3,0.3-3.8,1.9-3.9,4c-0.2,2.2,1.2,4.1,3.6,4.6c1,0.2,2.1,0.2,3.2,0.2C233.9,164,253.1,164,272.3,164z M260.1,176.3
	C260.1,176.3,260.1,176.3,260.1,176.3c19.4,0,38.8,0,58.2,0c1.2,0,2.3,0.1,3.5-0.3c2-0.7,3.3-2.4,3.2-4.4c-0.1-2-1.5-3.6-3.5-4.1
	c-1.2-0.3-2.5-0.2-3.8-0.2c-38.5,0-77,0.1-115.5,0.1c-1,0-2,0-2.9,0.1c-2.3,0.3-3.8,1.9-3.9,4c-0.1,2,1.2,3.9,3.4,4.6
	c1.1,0.3,2.3,0.2,3.5,0.2C221.5,176.3,240.8,176.3,260.1,176.3z M277.3,202.7C277.3,202.6,277.3,202.6,277.3,202.7
	c19.4,0,38.8,0,58.2,0c1.2,0,2.3,0.1,3.5-0.3c2.1-0.7,3.3-2.3,3.2-4.4c-0.1-2.1-1.4-3.7-3.5-4.1c-1-0.2-2.1-0.3-3.2-0.3
	c-38.8,0-77.6,0.1-116.4,0.1c-0.9,0-1.8,0-2.6,0.1c-2.3,0.3-3.8,1.9-3.9,4c-0.1,2.1,1.2,3.9,3.3,4.6c1.1,0.4,2.3,0.2,3.5,0.2
	C238.7,202.7,258,202.7,277.3,202.7z M264.4,215C264.4,214.9,264.4,214.9,264.4,215c19.4,0,38.8,0,58.2,0c1.2,0,2.3,0.1,3.5-0.2
	c2.2-0.6,3.6-2.4,3.5-4.4c-0.1-2.1-1.5-3.8-3.8-4.2c-1.1-0.2-2.3-0.2-3.5-0.2c-38.5,0-77,0.1-115.5,0.1c-1,0-2,0-2.9,0.1
	c-2.3,0.3-3.8,1.9-4,4c-0.2,2.1,1.3,4.2,3.6,4.6c1,0.2,2.1,0.2,3.2,0.2C226,215,245.2,215,264.4,215z M269.5,189.4
	C269.5,189.4,269.5,189.4,269.5,189.4c19.2-0.1,38.4-0.1,57.6-0.1c1.2,0,2.4,0,3.5-0.2c1.9-0.4,3.3-2,3.4-3.9c0.2-2-0.8-3.6-2.7-4.4
	c-1-0.5-2.1-0.4-3.2-0.4c-39.3,0-78.6,0-117.8,0c-1,0-1.9,0-2.9,0.3c-2,0.8-3.2,2.4-3,4.5c0.1,2,1.6,3.6,3.7,4
	c1.1,0.2,2.3,0.2,3.5,0.2C230.9,189.4,250.2,189.4,269.5,189.4z M273.8,228.1C273.8,228,273.8,228,273.8,228.1
	c19.3-0.1,38.6-0.1,57.9-0.1c1.2,0,2.4,0,3.5-0.2c1.9-0.4,3.3-2,3.4-3.9c0.2-2-0.8-3.6-2.7-4.4c-1-0.5-2.1-0.4-3.2-0.4
	c-39.3,0-78.6,0-117.8,0c-1,0-1.9,0-2.9,0.3c-2,0.8-3.2,2.4-3,4.5c0.1,2,1.6,3.7,3.6,4c1.1,0.2,2.3,0.2,3.5,0.2
	C235.4,228.1,254.6,228.1,273.8,228.1z"/>
<path class="st1" d="M410.9,377.3c-1.7,1.8-3,3.1-4.2,4.5c-0.4,0.5-1,0.5-1.6,0.5c-0.7,0-1.4,0-2,0c-103,0-206.1,0-309.1,0
	c-1.2,0-2.4,0-3.5,0.1c-2.2,0.3-3.7,2-3.8,4.1c-0.1,2.3,1.4,4.2,3.7,4.5c1.2,0.2,2.5,0.1,3.8,0.1c100.3,0,200.6,0,300.9,0
	c1.2,0,2.3,0,4,0c-1.6,2.6-3,5-4.5,7.3c-0.3,0.4-0.9,0.3-1.4,0.2c-1.8-0.4-3.7-0.3-5.5-0.3c-97.4,0-194.7,0-292.1,0
	c-5.2,0-10.3-0.3-15.4-1.4c-2.3-0.5-4.5-1.4-6.4-2.8c-3-2.2-3.8-5-2.5-8.5c0.7-1.7,1.8-3.2,3-4.6c14.5-16.5,29-32.9,43.4-49.5
	c1.2-1.3,2.4-1.4,3.9-1.4c32.9,0,65.8,0,98.6,0c78.7,0,157.5,0,236.2-0.1c2.4,0,3.9,0.6,5.5,2.5c4.1,5,8.4,9.7,12.6,14.6
	c0.4,0.5,1.1,0.8,1.1,1.8c-4.3,0.6-8.7,0.9-13,1.6c-13.7,2.5-26.3,7.7-37.9,15.4c-2.5,1.7-4.8,2.3-7.8,2.3
	c-26.1-0.1-52.3-0.1-78.4-0.1c-76.3,0-152.6-0.1-228.9-0.1c-1.1,0-2.2,0-3.2,0.1c-2.5,0.3-4.2,2.2-4.2,4.4c0,2.3,1.8,4.1,4.3,4.4
	c1.1,0.1,2.1,0.1,3.2,0.1c99,0,198.1,0.1,297.1,0.1C407.9,377.3,409.1,377.3,410.9,377.3z"/>
<path class="st1" d="M389.3,257.4c-5-3.9-9.8-7.7-14.6-11.5c0.2-1.2,1-1.8,1.6-2.6c25.3-32.7,50.6-65.4,75.9-98.1
	c0.2-0.3,0.5-0.6,0.7-0.9c0.7-1.1,1.4-1,2.3-0.2c2.8,2.3,5.6,4.5,8.5,6.7c1.4,1.1,2.9,2.3,4.6,3.6
	C441.9,188.8,415.7,223,389.3,257.4z"/>
<path class="st1" d="M480.2,134.7c-0.3,4-2.5,7.9-6.1,11.2c-0.9,0.8-1.5,0.6-2.3,0c-3.7-3-7.5-5.9-11.2-8.9
	c-0.5-0.4-1.1-0.8-0.6-1.6c2.5-4.2,5.7-7.6,10.6-9C476.4,124.8,480.3,127.8,480.2,134.7z"/>
<path class="st1" d="M367.6,271.3c1.3-5.8,2.5-11,3.8-16.5c3.6,2.8,6.9,5.5,10.6,8.4C377.2,265.8,372.7,268.3,367.6,271.3z"/>
<path class="st0" d="M316.5,272.5c-2.7,1.1-4.4,2.4-6.1,3.6c-5.6,3.8-11.1,7.7-17,10.8c-1.7,0.9-3.5,1.8-5.4,2.2
	c-5.2,1.3-9.2-2.3-8.5-7.6c0.3-2.4,1.3-4.7,2.4-6.9c1.6-3,3.4-5.9,5.5-8.6c2.7-3.6,5.3-7.2,8-10.8c1.5-2.1,3.1-4.2,4.4-6.6
	c-0.9-0.2-1.3,0.4-1.8,0.8c-4.7,3.7-8.7,8.1-12.5,12.7c-6.2,7.5-12,15.4-17.8,23.2c-1.9,2.6-3.9,5.1-6.1,7.5
	c-0.7,0.7-1.4,1.4-2.4,1.7c-1.5,0.5-2.9,0.1-4-1c-1.1-1.2-1.3-2.6-0.8-4.1c0.1-0.4,0.3-0.7,0.6-1c6.3-7.5,10.9-16.2,17-23.7
	c4.7-5.8,9.3-11.8,14.6-17.1c2.9-2.9,6.1-5.5,9.4-7.9c2.1-1.5,4.3-2.6,6.8-3.3c4.8-1.2,8.6,1.9,8.4,6.9c-0.1,2.1-0.8,4-1.6,5.9
	c-1.6,3.6-3.7,6.8-6,10c-4.2,5.8-8.6,11.4-12.5,17.3c-0.2,0.3-0.5,0.6-0.4,1c1.1,0.8,1.8-0.2,2.5-0.7c4.2-2.7,8.4-5.4,12.5-8.2
	c3.6-2.5,7.5-4.5,11.4-6.5c0.9-0.4,1.8-0.8,2.7-1.1c2.5-0.9,5-1.1,7.1,0.9c2.2,2.1,2.1,4.7,1.3,7.3c-1,3.3-2.7,6.2-4.5,9.2
	c-1.2,1.9-2.4,3.8-3.5,5.7c-0.7,1.2-1.4,2.5-1.6,4.1c1.8,0,3.2-0.6,4.6-1.2c4.5-1.9,8.9-3.9,13.4-5.9c1.1-0.5,2.2-0.7,3.4-0.6
	c1.8,0.2,3.1,1.2,3.7,2.9c0.6,1.7,0.1,3.6-1.3,4.8c-0.6,0.5-1.3,0.8-2,1.2c-4.6,2-9.3,4-13.9,6c-2.2,1-4.6,1.5-7,2
	c-1.8,0.3-3.5,0.2-5.2-0.4c-3.3-1.2-5.1-3.9-5-7.4c0.1-3.3,1.3-6.3,2.9-9.1C313.3,277.9,314.8,275.5,316.5,272.5z"/>
<path class="st0" d="M272.3,164c-19.2,0-38.4,0-57.6,0c-1.1,0-2.2,0-3.2-0.2c-2.4-0.5-3.8-2.4-3.6-4.6c0.1-2.1,1.7-3.7,3.9-4
	c1-0.1,1.9-0.1,2.9-0.1c38.5,0,77-0.1,115.5-0.1c1.2,0,2.4,0,3.5,0.2c2.3,0.4,3.7,2,3.7,4.2c0,2.2-1.3,3.8-3.5,4.4
	c-1.2,0.3-2.3,0.2-3.5,0.2C311.1,164,291.7,164,272.3,164C272.3,164,272.3,164,272.3,164z"/>
<path class="st0" d="M260.1,176.3c-19.3,0-38.6,0-57.9,0c-1.2,0-2.3,0.1-3.5-0.2c-2.1-0.7-3.5-2.5-3.4-4.6c0.2-2.1,1.7-3.7,3.9-4
	c1-0.1,1.9-0.1,2.9-0.1c38.5,0,77-0.1,115.5-0.1c1.3,0,2.5-0.1,3.8,0.2c2.1,0.5,3.5,2.2,3.5,4.1c0.1,2-1.2,3.6-3.2,4.4
	c-1.1,0.4-2.3,0.3-3.5,0.3C298.9,176.3,279.5,176.3,260.1,176.3C260.1,176.3,260.1,176.3,260.1,176.3z"/>
<path class="st0" d="M277.3,202.7c-19.3,0-38.6,0-57.9,0c-1.2,0-2.3,0.1-3.5-0.2c-2.2-0.7-3.5-2.4-3.3-4.6c0.1-2.1,1.6-3.7,3.9-4
	c0.9-0.1,1.7-0.1,2.6-0.1c38.8,0,77.6-0.1,116.4-0.1c1.1,0,2.2,0,3.2,0.3c2.1,0.5,3.4,2.1,3.5,4.1c0.1,2.1-1.1,3.6-3.2,4.4
	c-1.1,0.4-2.3,0.3-3.5,0.3C316.1,202.6,296.7,202.6,277.3,202.7C277.3,202.6,277.3,202.6,277.3,202.7z"/>
<path class="st0" d="M264.4,215c-19.2,0-38.4,0-57.6,0c-1.1,0-2.2,0-3.2-0.2c-2.3-0.5-3.8-2.5-3.6-4.6c0.2-2.1,1.7-3.7,4-4
	c1-0.1,1.9-0.1,2.9-0.1c38.5,0,77-0.1,115.5-0.1c1.2,0,2.4,0,3.5,0.2c2.2,0.4,3.7,2.1,3.8,4.2c0.1,2.1-1.3,3.8-3.5,4.4
	c-1.2,0.3-2.3,0.2-3.5,0.2C303.2,214.9,283.8,214.9,264.4,215C264.4,214.9,264.4,214.9,264.4,215z"/>
<path class="st0" d="M269.5,189.4c-19.3,0-38.6,0-57.9,0c-1.2,0-2.4,0-3.5-0.2c-2.1-0.3-3.5-2-3.7-4c-0.1-2.1,1-3.7,3-4.5
	c0.9-0.4,1.9-0.3,2.9-0.3c39.3,0,78.6,0,117.8,0c1.1,0,2.1,0,3.2,0.4c1.8,0.9,2.8,2.5,2.7,4.4c-0.2,1.9-1.5,3.5-3.4,3.9
	c-1.1,0.2-2.3,0.2-3.5,0.2C307.9,189.4,288.7,189.4,269.5,189.4C269.5,189.4,269.5,189.4,269.5,189.4z"/>
<path class="st0" d="M273.8,228.1c-19.2,0-38.4,0-57.6,0c-1.2,0-2.4,0-3.5-0.2c-2.1-0.3-3.5-2-3.6-4c-0.1-2.1,1-3.7,3-4.5
	c0.9-0.4,1.9-0.3,2.9-0.3c39.3,0,78.6,0,117.8,0c1.1,0,2.1,0,3.2,0.4c1.8,0.9,2.8,2.5,2.7,4.4c-0.2,1.9-1.5,3.5-3.4,3.9
	c-1.1,0.2-2.3,0.2-3.5,0.2C312.4,228,293.1,228,273.8,228.1C273.8,228,273.8,228,273.8,228.1z"/>
<path class="st2" d="M475.7,372.9c39.1-0.1,68.2,23.4,75.2,56.8c6.2,29.5-7.4,60.4-33.5,76.5c-28.2,17.4-64.6,13.8-88.1-8.8
	c-26.3-25.1-29.5-66-7.3-95.1C436.6,383.1,456.4,373.5,475.7,372.9z M416.2,445.9c0,17.9,7.3,35.1,20.9,46.5
	c20.9,17.6,44.3,20.6,69.1,9.5c29.1-13,43.8-46.5,34.1-76.8c-9.9-30.7-40.6-47.3-70.3-42.3C439.4,388,416.3,414.6,416.2,445.9z"/>
<path class="st2" d="M497.2,443.3c0,9.3-7.6,16.8-17,16.9c-9.5,0.1-17.6-8-17.5-17.5c0.1-9.3,7.9-16.8,17.2-16.7
	C489.5,426.1,497.2,433.8,497.2,443.3z M480.1,451c4.4,0,7.9-3.3,8-7.6c0.1-4.5-3.6-8.2-8.1-8.3c-4.5-0.1-8.1,3.3-8.1,7.8
	C471.9,447.4,475.5,451,480.1,451z"/>
<path class="st2" d="M458.6,443.7c0,9.4-7.6,17.1-17.1,17.1c-9.4,0-17.4-7.9-17.4-17.3c0-9.2,7.7-16.8,17-16.9
	C450.6,426.5,458.5,434.3,458.6,443.7z M441.3,451.6c4.6,0.1,8.2-3.3,8.2-7.7c0-4.5-3.7-8.1-8.2-8.2c-4.4,0-7.9,3.3-8,7.6
	C433.2,447.8,436.7,451.5,441.3,451.6z"/>
<path class="st2" d="M517.5,426c9.5-0.1,17.5,7.8,17.5,17.2c0,9.2-7.6,16.9-17,17c-9.5,0.1-17.4-7.7-17.4-17.2
	C500.6,433.6,508.1,426.1,517.5,426z M517.8,451c4.5,0,7.9-3.2,8-7.5c0.1-4.5-3.5-8.2-8-8.3c-4.5-0.1-8.2,3.4-8.2,7.7
	C509.5,447.2,513.3,450.9,517.8,451z"/>
<path class="st3" d="M101,187.8l11.5,11.5c2.7,2.7,7.1,2.7,9.9,0l11.5-11.5c2.7-2.7,2.7-7.1,0-9.9l-11.5-11.5
	c-2.7-2.7-7.1-2.7-9.9,0L101,178C98.3,180.7,98.3,185.1,101,187.8z"/>
<path class="st3" d="M101,221.3l11.5,11.5c2.7,2.7,7.1,2.7,9.9,0l11.5-11.5c2.7-2.7,2.7-7.1,0-9.9l-11.5-11.5
	c-2.7-2.7-7.1-2.7-9.9,0L101,211.4C98.3,214.1,98.3,218.6,101,221.3z"/>
<path class="st2" d="M405.3,515.9l9,9c1.3,1.3,3.5,1.3,4.8,0l9-9c1.3-1.3,1.3-3.5,0-4.8l-9-9c-1.3-1.3-3.5-1.3-4.8,0l-9,9
	C404,512.5,404,514.6,405.3,515.9z"/>
<circle class="st4" cx="478.8" cy="445.1" r="91.5"/>
</svg>
