<?xml version="1.0" encoding="utf-8"?>
<!-- Generator: Adobe Illustrator 28.0.0, SVG Export Plug-In . SVG Version: 6.00 Build 0)  -->
<svg version="1.1" id="Capa_1" xmlns="http://www.w3.org/2000/svg" xmlns:xlink="http://www.w3.org/1999/xlink" x="0px" y="0px"
	 viewBox="0 0 600 600" style="enable-background:new 0 0 600 600;" xml:space="preserve">
<style type="text/css">
	.st0{fill:#0A0A0A;}
	.st1{fill:#29E4A5;}
	.st2{fill:#FEFEFE;}
	.st3{fill:#6EE1EB;}
</style>
<path class="st0" d="M214,259c-0.8-4.2-1.7-8.1-2.3-12c-2.1-16.1-0.3-31.4,7.9-45.8c1.7-3,3.7-5.7,6-8.2
	c9.4-10.3,18.9-20.6,28.4-30.8c3.7-4,7.6-7.9,11.6-11.6c8.9-8.2,19.6-12.5,31.5-14.1c17.1-2.3,33.4,1.2,49.2,7.4
	c5.7,2.2,11.2,4.9,16.6,7.9c2.5,1.4,2,1.3,3.7-0.8c14.7-18.3,29.4-36.7,44.1-55c6.3-7.8,12.4-15.8,18.9-23.5
	c8.5-10.1,19-17.3,32.3-19.7c15.7-2.9,30,0.7,42.9,10c20.4,14.9,28.8,41.8,20.5,65.4c-3.5,9.9-9.4,18.1-17.6,24.6
	c-25.9,20.4-51.8,40.8-77.6,61.3c-0.4,0.3-0.7,0.6-1.2,0.9c-1.1,0.7-1,1.4-0.4,2.4c1.8,3.4,3.6,6.9,5.2,10.5
	c5.2,11.5,8.9,23.5,10,36.2c1.1,12.1-0.1,23.9-5.1,35.2c-2.8,6.3-6.8,11.8-11.5,16.8c-10.2,10.7-20.3,21.3-30.6,31.9
	c-7.1,7.2-15,13.4-24.6,17c-10.4,3.9-21.2,5.1-32.2,4.2c-5.5-0.4-10.8-1.3-16.1-2.6c-0.6-0.2-1.3-0.5-2.2-0.2
	c-0.1,4.1,0,8.3-0.3,12.5c-1.6,22.2-8.8,42.3-22,60.1c-19.2,26-44.9,41.9-76.8,47c-35.8,5.7-67.8-3.2-95.2-27
	c-21.1-18.3-33.2-41.7-36.9-69.4c-5.9-44.3,15.7-89.5,55.8-113.6c15.9-9.6,33-15.1,51.5-16.7C202.9,258.9,208.2,258.9,214,259z
	 M203.2,478.8c3.1-0.1,6.2-0.2,9.4-0.4c1.9-0.1,3.9-0.4,5.8-0.6c22.2-3.3,41.8-12.2,58.4-27.3c22.4-20.6,34.4-46.1,35.4-76.6
	c0.1-2.9-0.2-5.9,0-8.8c0.1-1.5-0.4-1.8-1.5-2.2c-5.7-2-11.3-4.4-16.6-7.3c-35.5-19.4-61.7-47.2-76.5-85.2c-0.6-1.5-1.3-2-2.9-2.1
	c-10.5-0.7-20.8,0.1-31.1,2.4c-45.7,10-80,48.2-84.8,93.5c-2.1,19.8,0.7,38.8,9.9,56.5C128.6,458.7,160.9,477,203.2,478.8z
	 M420.5,222c-1.2,0.4-1.9,1.2-2.7,1.9c-11.5,9-23,18.1-34.5,27.1c-3.4,2.7-7.2,4.6-11.7,4.9c-3.7,0.3-7.4,0.1-11-0.9
	c-16-4.7-27-15-33.8-30c-2.3-5-3.3-10.4-3-16c0.2-3.3,1.1-6.2,3.2-8.9c7.2-8.7,14.2-17.6,21.3-26.5c3.6-4.5,7.2-9,10.8-13.4
	c-0.2-0.3-0.3-0.5-0.5-0.6c-0.4-0.3-0.8-0.5-1.2-0.8c-9.5-5.1-19.3-9.2-29.8-11.7c-11.5-2.7-23.1-3.7-34.8-0.8
	c-16.9,4.1-28.3,14.2-33.6,30.9c-2.4,7.5-3,15.3-2.4,23.1c0.9,12.9,4.5,25.1,10,36.7c9.9,21,24,38.7,41.7,53.6
	c14.5,12.2,30.4,21.7,48.6,27.4c13,4.1,26.3,5.9,39.8,3.2c16.5-3.3,28.4-12.4,34.5-28.3c3.3-8.4,4.1-17.2,3.5-26.2
	c-0.9-12.1-4.1-23.6-9-34.6C424.2,228.9,422.7,225.3,420.5,222z M519.4,113.2c0-21.3-9.7-37.9-25.2-46.5c-17.7-9.8-39.4-7-53.1,7
	c-3.3,3.4-6.5,6.9-9.5,10.7c-20.5,25.6-41,51.1-61.5,76.6c-11.5,14.4-23,28.8-34.6,43.1c-2.3,2.8-2.9,5.6-2.5,8.9
	c0.1,1.4,0.3,2.7,0.7,4c4.6,14.6,14.1,24.4,28.7,29.1c6.2,2,11.8,0.9,17.2-3.4c16.2-13.1,32.7-25.9,49.1-38.9
	c24.4-19.3,48.9-38.5,73.3-57.8C513.6,136.8,519.1,124.6,519.4,113.2z M248.7,182.2c-0.2-0.1-0.4-0.3-0.6-0.4
	c-0.8,0.9-1.7,1.8-2.5,2.7c-5,5.5-10.4,10.6-14.9,16.5c-6.4,8.2-9.6,17.7-10.4,28.1c-1.2,16.5,2.5,32,9.5,46.8
	c14.4,30.6,36.8,53.9,66.3,70.3c14.9,8.3,30.8,13.6,48,14.3c17.5,0.7,32.5-4.9,44.9-17.4c3.6-3.7,7.2-7.5,10.7-11.2
	c0.4-0.4,1.2-0.7,0.8-1.7c-3.3,0.5-6.7,1.2-10.1,1.4c-15.3,1.1-29.9-1.9-44-7.4c-19.3-7.5-36.3-18.9-51.3-33.1
	c-17.9-17-32-36.7-40.7-60c-4-10.8-6.6-22-6.8-33.6C247.5,192.3,247.9,187.3,248.7,182.2z"/>
<path class="st1" d="M477.7,540.4c-27.1-0.6-50.1-9.6-68.9-28.5c-15.3-15.4-24.4-34-26.4-55.7c-3.2-34.9,9.3-63.5,36.3-85.6
	c15.4-12.6,33.4-19.4,53.2-21.2c5.6-0.5,11.1-0.5,16.7,0c3.5,0.3,7,0.4,10.4,1.2c39.3,9.6,64.8,33.3,74.6,73
	c6.2,33.3-2.4,62.3-25.7,86.7c-16.4,17.1-36.8,26.6-60.3,29.3C484.2,540.2,480.7,540.2,477.7,540.4z M566.8,443.3
	c-0.2-5.8-0.7-11.6-1.9-17.2c-8.6-40.8-44.7-68.7-86.4-68c-14.8,0.2-28.7,4-41.7,11.1c-31.4,17.2-48.8,50.8-45.8,83.9
	c1.9,21.8,10.9,40.3,26.9,55.2c26.5,24.5,66.1,30.3,98.8,13.6C548.8,505.7,565.1,479,566.8,443.3z"/>
<path class="st2" d="M203.2,478.8c-42.4-1.8-74.7-20.1-94.4-58.3c-9.1-17.7-12-36.7-9.9-56.5c4.8-45.2,39.1-83.5,84.8-93.5
	c10.3-2.2,20.6-3,31.1-2.4c1.6,0.1,2.3,0.6,2.9,2.1c14.8,38,40.9,65.8,76.5,85.2c5.3,2.9,10.9,5.3,16.6,7.3c1.1,0.4,1.7,0.8,1.5,2.2
	c-0.2,2.9,0.1,5.8,0,8.8c-1,30.5-13,56.1-35.4,76.6c-16.6,15.2-36.2,24-58.4,27.3c-1.9,0.3-3.9,0.5-5.8,0.6
	C209.5,478.5,206.4,478.6,203.2,478.8z M192,416.4c2.2,0.2,3.7-0.9,5.1-2.4c17.6-17.3,35.3-34.5,52.9-51.7c0.7-0.7,1.4-1.4,2-2.2
	c1.3-1.9,1-4.1-0.5-5.6c-1.6-1.5-3.7-1.8-5.6-0.5c-1,0.7-1.9,1.6-2.8,2.5c-16.3,15.9-32.7,31.9-49,47.8c-2.3,2.3-1.8,2.2-4,0.1
	c-7.7-7.5-15.4-14.9-23.1-22.4c-2.5-2.5-5.3-2.7-7.2-0.7c-1.9,2-1.6,4.7,0.9,7.2c3.1,3.1,6.3,6.1,9.5,9.2c5.7,5.5,11.4,11,17,16.5
	C188.5,415.5,190,416.6,192,416.4z"/>
<path class="st2" d="M420.5,222c2.1,3.3,3.7,6.9,5.3,10.4c4.9,11,8.2,22.5,9,34.6c0.6,9-0.2,17.8-3.5,26.2
	c-6.1,15.9-18,25-34.5,28.3c-13.5,2.7-26.8,0.8-39.8-3.2c-18.1-5.7-34.1-15.2-48.6-27.4c-17.7-14.9-31.9-32.6-41.7-53.6
	c-5.5-11.7-9.1-23.8-10-36.7c-0.6-7.8,0.1-15.6,2.4-23.1c5.3-16.7,16.7-26.8,33.6-30.9c11.6-2.8,23.2-1.9,34.8,0.8
	c10.5,2.5,20.4,6.6,29.8,11.7c0.4,0.2,0.8,0.5,1.2,0.8c0.2,0.1,0.2,0.3,0.5,0.6c-3.6,4.5-7.2,8.9-10.8,13.4
	c-7.1,8.8-14.1,17.7-21.3,26.5c-2.2,2.7-3,5.6-3.2,8.9c-0.3,5.6,0.7,10.9,3,16c6.8,15,17.8,25.3,33.8,30c3.6,1,7.3,1.2,11,0.9
	c4.4-0.4,8.2-2.2,11.7-4.9c11.5-9.1,23-18.1,34.5-27.1C418.6,223.2,419.4,222.4,420.5,222z"/>
<path class="st2" d="M519.4,113.2c-0.3,11.4-5.9,23.6-17.6,32.9c-24.4,19.3-48.8,38.5-73.3,57.8c-16.4,12.9-32.9,25.7-49.1,38.9
	c-5.3,4.3-10.9,5.4-17.2,3.4c-14.6-4.7-24.2-14.5-28.7-29.1c-0.4-1.3-0.6-2.7-0.7-4c-0.3-3.3,0.2-6.1,2.5-8.9
	c11.7-14.3,23.1-28.7,34.6-43.1c20.5-25.6,41.1-51.1,61.5-76.6c3-3.7,6.2-7.3,9.5-10.7c13.8-14,35.4-16.9,53.1-7
	C509.7,75.3,519.4,91.9,519.4,113.2z"/>
<path class="st2" d="M248.7,182.2c-0.8,5-1.1,10.1-1.1,15.1c0.2,11.6,2.7,22.8,6.8,33.6c8.7,23.3,22.7,43,40.7,60
	c15,14.2,31.9,25.6,51.3,33.1c14.2,5.5,28.7,8.5,44,7.4c3.4-0.2,6.7-0.9,10.1-1.4c0.4,1-0.4,1.3-0.8,1.7c-3.6,3.8-7.1,7.5-10.7,11.2
	c-12.3,12.5-27.4,18.2-44.9,17.4c-17.2-0.7-33.1-6-48-14.3c-29.5-16.4-51.9-39.7-66.3-70.3c-6.9-14.8-10.7-30.3-9.5-46.8
	c0.8-10.4,4-19.9,10.4-28.1c4.5-5.8,9.9-11,14.9-16.5c0.8-0.9,1.7-1.8,2.5-2.7C248.3,182,248.5,182.1,248.7,182.2z"/>
<path class="st0" d="M192,416.4c-2,0.2-3.5-0.9-4.9-2.2c-5.7-5.5-11.3-11-17-16.5c-3.2-3.1-6.3-6.1-9.5-9.2
	c-2.6-2.5-2.9-5.2-0.9-7.2c1.9-2,4.7-1.7,7.2,0.7c7.7,7.4,15.4,14.9,23.1,22.4c2.2,2.1,1.7,2.2,4-0.1c16.3-15.9,32.7-31.9,49-47.8
	c0.9-0.9,1.8-1.8,2.8-2.5c1.9-1.3,4.1-1.1,5.6,0.5c1.5,1.5,1.8,3.8,0.5,5.6c-0.5,0.8-1.3,1.5-2,2.2c-17.6,17.3-35.3,34.5-52.9,51.7
	C195.7,415.4,194.2,416.6,192,416.4z"/>
<path class="st1" d="M475.4,372.9c39.5,0,68.8,23.8,75.5,57c6.5,32.5-10.4,66-40.7,80.1c-27.6,12.9-59.7,7.9-81.2-12.8
	c-26.1-25.1-29.3-65.9-7.3-94.9C436.6,383.1,456.5,373.5,475.4,372.9z M416.2,449c0.2,15.3,7,31,20.8,43.4
	c21.4,19.2,53.4,21.1,77.8,4.8c26-17.4,35.6-50.7,22.8-79c-11.6-25.6-39.7-40.2-68-35.2C438.9,388.3,416.4,414.8,416.2,449z"/>
<path class="st1" d="M467,445.2c0.9-1.1,2-2.4,3.1-3.6c11.3-11.5,22.7-22.8,34.3-33.9c2.7-2.6,5.6-4.9,9.8-4.4
	c2.4,0.3,4.5,1.1,6.2,2.9c3.2,3.3,6.4,6.6,9.5,9.9c1.4,1.4,2.5,3,3.3,4.8c2.2,4.7,1.8,9.3-1.5,13.4c-0.8,1-1.7,1.9-2.6,2.8
	c-14.2,14.1-28.4,28.1-42.6,42.3c-3.7,3.7-7.8,7.1-11.6,10.7c-1.6,1.5-3.5,2.5-5.4,3.5c-3.3,1.6-6.4,1.4-9.4-0.6
	c-2.6-1.7-5-3.8-7.1-6c-7.8-8-15.5-16-23.2-24c-2-2.1-3.7-4.5-5.2-7c-2.4-3.8-1.9-7.4,0.7-10.6c3.9-4.8,8.1-9.2,13-13.1
	c0.6-0.5,1.3-0.9,2-1.2c5.4-2.8,8.4-2.5,13,1.6c3.7,3.3,7.2,6.9,10.8,10.3C464.8,443.7,465.5,444.6,467,445.2z M460.3,451.9
	c-4.5-4.3-8.5-8.3-12.6-12.2c-1.7-1.6-3.2-1.6-5.3-0.1c-3.8,2.6-7,5.9-9.9,9.5c-1.1,1.3-1,2.7-0.1,4c1.7,2.4,3.4,4.7,5.5,6.8
	c7,7.1,14,14.1,21,21.2c0.6,0.6,1.3,1.2,1.9,1.8c2,1.7,4.2,1.9,6.6,1.1c2.5-0.8,4.5-2.4,6.3-4.1c2.5-2.4,4.7-4.9,7.1-7.3
	c14.4-14.7,29.1-29.1,43.8-43.5c1.6-1.6,2-3.4,0.5-5.2c-3.2-4-7-7.6-10.7-11.2c-1-0.9-2.1-0.8-3.2-0.1c-1.4,1-2.5,2.1-3.7,3.3
	c-5.8,6.1-11.6,12.1-17.5,18c-4.4,4.3-8.7,8.7-13,13.1c-4.7,4.7-9.3,9.5-14,14.2c-2.2,2.1-5,2.1-6.8,0.3c-1.7-1.8-1.6-4.4,0.4-6.6
	C457.9,453.9,459,453.1,460.3,451.9z"/>
<path class="st3" d="M75.6,355.2L88,367.6c2.9,2.9,7.7,2.9,10.6,0l12.4-12.4c2.9-2.9,2.9-7.7,0-10.6l-12.4-12.4
	c-2.9-2.9-7.7-2.9-10.6,0l-12.4,12.4C72.7,347.5,72.7,352.2,75.6,355.2z"/>
<path class="st3" d="M75.6,391.3L88,403.7c2.9,2.9,7.7,2.9,10.6,0l12.4-12.4c2.9-2.9,2.9-7.7,0-10.6l-12.4-12.4
	c-2.9-2.9-7.7-2.9-10.6,0l-12.4,12.4C72.7,383.6,72.7,388.4,75.6,391.3z"/>
<path class="st1" d="M407.9,517.9l9.7,9.7c1.4,1.4,3.7,1.4,5.1,0l9.7-9.7c1.4-1.4,1.4-3.7,0-5.2l-9.7-9.7c-1.4-1.4-3.7-1.4-5.1,0
	l-9.7,9.7C406.5,514.1,406.5,516.4,407.9,517.9z"/>
<path class="st1" d="M478.4,470.8l9.7,9.7c1.4,1.4,3.7,1.4,5.1,0l9.7-9.7c1.4-1.4,1.4-3.7,0-5.1l-9.7-9.7c-1.4-1.4-3.7-1.4-5.1,0
	l-9.7,9.7C477,467.1,477,469.4,478.4,470.8z"/>
</svg>
