<?xml version="1.0" encoding="utf-8"?>
<!-- Generator: Adobe Illustrator 28.0.0, SVG Export Plug-In . SVG Version: 6.00 Build 0)  -->
<svg version="1.1" id="Capa_1" xmlns="http://www.w3.org/2000/svg" xmlns:xlink="http://www.w3.org/1999/xlink" x="0px" y="0px"
	 viewBox="0 0 600 600" style="enable-background:new 0 0 600 600;" xml:space="preserve">
<style type="text/css">
	.st0{fill:#090909;}
	.st1{fill:#FDFDFD;}
	.st2{fill:#FF5500;}
	.st3{fill:#6EE1EB;}
	.st4{fill:none;stroke:#FF5500;stroke-width:11;stroke-miterlimit:10;}
</style>
<path class="st0" d="M463.8,119.2c2.9-1,5.4-1.9,8.1-2.2c10.2-0.8,17.8,6.6,17.3,17.4c-0.2,4.7-1.9,8.9-4.5,12.8
	c-2.1,3.2-4.4,6.2-6.7,9.2c-4.3,5.6-8.5,11.2-12.8,16.7c-1.1,1.4-1.5,2.8-1.5,4.5c0.4,47.5,0.8,95,1.1,142.5c0,1.6,0.4,2.8,1.5,3.9
	c7,7.9,13.9,15.8,20.8,23.8c0.9,1,1.8,1.6,3.2,1.7c18.7,1.9,35.5,8.7,50.1,20.4c19.6,15.7,31.4,36.2,34.4,61.1
	c3.8,30.4-5.5,56.9-26.6,79c-15.9,16.6-35.6,26.5-58.5,29.2c-31.5,3.8-58.8-5.4-81.3-27.9c-15.2-15.2-23.7-33.8-26.1-55.2
	c-1.7-15.4,0.3-30.3,6-44.8c0.5-1.2,0.9-2.3,1.5-4c-1.4,0-2.5,0-3.6,0c-91.4,0-182.8,0-274.3,0c-7,0-14.1,0-21.1-0.1
	c-5-0.1-10-0.6-14.8-1.9c-8.3-2.2-15-9.6-14.5-18.9c0.2-3.4,1.4-6.4,3.7-9c15.1-17.1,30.2-34.3,45.3-51.4c1.1-1.3,2.1-2.4,1.4-4.3
	c-0.3-0.8-0.1-1.7-0.1-2.6c-0.1-69.9-0.2-139.7-0.3-209.6c0-5.2,0.8-6.9,7-6.8c22.3,0.2,44.7,0.1,67,0.1
	c89.3-0.1,178.5-0.2,267.8-0.4c0.5,0,1,0,1.5,0c4.8-0.3,6.7,0.8,8,7.2c0.5,2.5,0.4,5,0.6,7.6C463.6,117.9,463.7,118.4,463.8,119.2z
	 M454.6,187.7c-1,0.2-1.3,1-1.8,1.6c-19,24.8-38,49.5-57,74.3c-1.8,2.3-3.9,4.3-6.5,5.8c-6.2,3.4-12.4,6.9-18.6,10.4
	c-2,1.1-3.9,2.2-5.9,3.3c-2.7,1.3-4.5,0.8-6.5-1.4c-1.7-1.9-1.6-4.1-1-6.3c2.2-9.5,4.4-19,6.5-28.5c0.5-2.3,1.5-4.2,2.9-6
	c24.2-31.2,48.4-62.5,72.5-93.7c5-6.5,10-13,14.9-19.5c0.5-0.6,1.1-1.1,1-2c-0.4-4.1-0.7-8.2-1-12.2c-0.1-1.3-0.7-1.7-1.9-1.6
	c-0.5,0-1,0-1.5,0c-108.8,0.1-217.6,0.2-326.3,0.3c-0.9,0-1.8,0-2.6,0c-0.9,0-1.3,0.4-1.2,1.2c0,0.8,0,1.6,0,2.3
	c0,20.6,0,41.2,0,61.8c0,46.9,0,93.9,0.1,140.8c0,2.9-0.6,3.3,3.2,3.2c0.6,0,1.2,0,1.8,0c55.1,0,110.2,0,165.4-0.1
	c53.9,0,107.9,0,161.8-0.1c3.1,0,2.8,0.3,2.8-2.8c-0.3-42.6-0.6-85.3-0.9-127.9C454.8,189.6,455,188.6,454.6,187.7z M475.6,349
	c0-0.9-0.6-1.2-0.9-1.6c-4.3-4.9-8.6-9.8-12.8-14.8c-1.4-1.7-2.9-2.4-5.2-2.4c-57.2,0.1-114.3,0.1-171.5,0.1
	c-54.4,0-108.9,0-163.3,0c-1.9,0-3.2,0.4-4.5,1.9c-14.2,16.2-28.4,32.4-42.7,48.6c-1.1,1.2-2.1,2.5-2.9,4c-2.1,4.2-1.2,7.5,2.8,10
	c1.7,1,3.5,1.7,5.4,2.2c5.2,1.2,10.4,1.5,15.7,1.5c97,0,194,0,290.9,0c2.2,0,4.5-0.2,6.7,0.3c0.6,0.1,1.1,0.1,1.5-0.5
	c1.3-2.2,2.7-4.4,4.3-7c-1.5,0-2.6,0-3.8,0c-100.4,0-200.8,0-301.2,0c-1.3,0-2.6,0.1-3.8-0.1c-2.3-0.4-3.7-2.3-3.6-4.6
	c0.1-2.1,1.6-3.8,3.9-4.1c1.3-0.2,2.5-0.1,3.8-0.1c102.7,0,205.5,0,308.2,0c0.9,0,1.8,0,2.6,0c0.6,0,1.1-0.1,1.6-0.6
	c1.2-1.3,2.4-2.6,4.1-4.4c-1.8,0-3,0-4.1,0c-99,0-198.1-0.1-297.1-0.1c-1.2,0-2.4,0.1-3.5-0.1c-2.3-0.3-4-2.2-3.9-4.4
	c0-2.2,1.7-4,4-4.3c1.2-0.1,2.3-0.1,3.5-0.1c75.9,0,151.8,0,227.7,0.1c26.6,0,53.3,0,79.9,0.1c2.8,0,4.9-0.7,7.2-2.2
	c12.7-8.5,26.6-14.1,41.9-16.1C469.5,349.7,472.6,349.4,475.6,349z M566.8,444.7c-0.3-4.5-0.4-7.8-0.7-11c-0.3-2.6-0.7-5.2-1.2-7.8
	c-8.6-40.5-44.4-68.4-86.2-67.8c-14.8,0.2-28.7,4-41.7,11c-31.5,17.2-48.8,50.9-46,83.9c2,22.8,11.6,41.9,28.8,56.9
	c26.5,23.2,65,28.2,96.8,12C548.7,505.8,565,479.1,566.8,444.7z M468.2,154.5c-4.6-3.6-9-7.1-13.4-10.6c-0.7-0.5-1.2-0.6-1.7,0.2
	c-0.3,0.5-0.7,0.9-1.1,1.4c-23.9,30.8-47.7,61.7-71.6,92.5c-2,2.5-3.9,5.1-6,7.8c5,3.9,9.9,7.7,14.9,11.7
	C415.7,223,441.9,188.8,468.2,154.5z M480.2,134.6c0-6.7-3.7-9.7-9.2-8.3c-5.1,1.3-8.4,4.7-10.9,9c-0.5,0.8-0.1,1.2,0.5,1.7
	c3.8,3,7.6,6,11.4,9c0.7,0.6,1.3,0.7,2,0C477.7,142.6,480,138.6,480.2,134.6z M382,263.1c-3.6-2.9-7-5.5-10.7-8.4
	c-1.3,5.6-2.5,10.8-3.8,16.5C372.6,268.4,377.1,265.8,382,263.1z"/>
<path class="st1" d="M454.6,187.7c0.4,0.9,0.2,1.9,0.2,2.8c0.3,42.6,0.6,85.3,0.9,127.9c0,3.1,0.3,2.8-2.8,2.8
	c-53.9,0-107.9,0-161.8,0.1c-55.1,0-110.2,0-165.4,0.1c-0.6,0-1.2,0-1.8,0c-3.8,0.1-3.2-0.3-3.2-3.2c0-46.9,0-93.9-0.1-140.8
	c0-20.6,0-41.2,0-61.8c0-0.8,0-1.6,0-2.3c0-0.9,0.4-1.2,1.2-1.2c0.9,0,1.8,0,2.6,0c108.8-0.1,217.6-0.2,326.3-0.3c0.5,0,1,0,1.5,0
	c1.2-0.1,1.8,0.3,1.9,1.6c0.3,4.1,0.6,8.2,1,12.2c0.1,0.9-0.5,1.4-1,2c-5,6.5-9.9,13.1-14.9,19.5c-24.2,31.2-48.3,62.5-72.5,93.7
	c-1.4,1.8-2.4,3.7-2.9,6c-2.1,9.5-4.3,19-6.5,28.5c-0.5,2.3-0.7,4.4,1,6.3c2,2.2,3.8,2.7,6.5,1.4c2-1,3.9-2.2,5.9-3.3
	c6.2-3.5,12.4-7,18.6-10.4c2.6-1.4,4.7-3.4,6.5-5.8c19-24.8,38-49.5,57-74.3C453.3,188.7,453.6,187.9,454.6,187.7z M299.4,248.4
	c-1,2.5-2.6,4.6-4.1,6.7c-3.3,4.6-6.7,9.1-10,13.7c-2.4,3.4-4.4,6.9-5.5,10.9c-0.8,2.9-0.7,5.7,1.6,7.9c2.5,2.3,5.3,2.1,8.2,1
	c0.5-0.2,1.1-0.5,1.6-0.7c3.2-1.5,6.3-3.2,9.2-5.1c3.7-2.5,7.4-5,11.2-7.5c1.4-0.9,2.8-1.9,5-2.8c-1.6,2.7-2.9,4.7-4.1,6.8
	c-1.7,3.1-3.2,6.3-3.4,9.9c-0.2,3.9,1.8,6.7,5.6,7.9c1.5,0.5,3.1,0.6,4.6,0.3c2.4-0.4,4.8-1,7-2c4.6-2,9.3-4,13.9-6
	c0.7-0.3,1.4-0.7,2-1.1c1.4-1.2,2-3.1,1.3-4.8c-0.6-1.7-1.8-2.7-3.7-2.9c-1.4-0.2-2.7,0.3-3.9,0.8c-4.5,2-9.1,4.1-13.6,6
	c-1.2,0.5-2.4,1.2-3.8,0.7c-0.1-0.9,0.4-1.5,0.6-2.1c1.2-3,3.2-5.6,4.8-8.3c1.7-2.8,3.3-5.7,4.2-9c0.7-2.5,0.5-4.9-1.4-6.8
	c-1.9-1.8-4.2-1.9-6.6-1.1c-0.9,0.3-1.8,0.6-2.7,1.1c-4.2,1.9-8.2,4.1-12,6.7c-4.1,2.8-8.3,5.5-12.5,8.2c-0.7,0.5-1.5,1.5-2.6,0.6
	c0.1-0.3,0.1-0.6,0.3-0.8c3.9-5.4,7.8-10.7,11.7-16.1c2.4-3.2,4.6-6.5,6.4-10.1c1.1-2.3,2.2-4.6,2.3-7.2c0.2-5-3.5-8.1-8.4-6.9
	c-2.5,0.6-4.7,1.8-6.8,3.3c-3.4,2.4-6.5,5-9.4,7.9c-5.6,5.6-10.4,11.9-15.3,18.1c-5.8,7.3-10.2,15.7-16.3,22.8
	c-0.2,0.2-0.3,0.5-0.4,0.8c-0.7,1.6-0.3,3.4,0.9,4.6c1.3,1.2,3,1.3,4.6,0.5c0.8-0.4,1.4-1.1,2-1.7c2.1-2.2,4-4.6,5.7-7
	c6.5-8.9,13-17.8,20.2-26.1C291.3,255.1,295,251.4,299.4,248.4z M272.8,164C272.8,164,272.8,164,272.8,164c19.3,0,38.6,0,57.9,0
	c1.3,0,2.5,0.1,3.8-0.4c2-0.8,3.2-2.4,3-4.5c-0.1-1.9-1.4-3.4-3.4-3.9c-1.1-0.3-2.3-0.3-3.5-0.3c-38.7,0-77.4,0.1-116.1,0.1
	c-1,0-2,0-2.9,0.1c-2.1,0.3-3.6,1.9-3.7,3.9c-0.2,2.1,1.1,3.9,3.2,4.6c1.1,0.4,2.3,0.3,3.5,0.3C234,164,253.4,164,272.8,164z
	 M260.1,176.3C260.1,176.3,260.1,176.3,260.1,176.3c19.3,0,38.6,0,57.9,0c1.2,0,2.3,0.1,3.5-0.2c2.2-0.6,3.6-2.4,3.5-4.4
	c-0.1-2.1-1.5-3.8-3.8-4.2c-1.1-0.2-2.3-0.2-3.5-0.2c-38.5,0-77,0.1-115.5,0.1c-1,0-2,0-2.9,0.1c-2.3,0.3-3.8,1.9-4,4
	c-0.2,2,1.2,3.9,3.4,4.6c1.1,0.4,2.3,0.2,3.5,0.2C221.5,176.3,240.8,176.3,260.1,176.3z M277.5,193.6c0,0,0,0.1,0,0.1
	c-19.3,0-38.6,0-57.9,0c-1.2,0-2.4,0-3.5,0.2c-2,0.3-3.3,1.9-3.5,3.8c-0.2,2,0.9,3.8,2.9,4.6c1.1,0.5,2.3,0.4,3.5,0.4
	c39,0,78,0,117,0c0.9,0,1.8,0,2.6-0.2c2.4-0.5,3.8-2.3,3.7-4.6c-0.1-2.1-1.5-3.7-3.9-4.1c-1.1-0.2-2.3-0.2-3.5-0.2
	C315.7,193.6,296.6,193.6,277.5,193.6z M264.4,215C264.4,214.9,264.4,214.9,264.4,215c19.4,0,38.8,0,58.2,0c1.2,0,2.3,0.1,3.5-0.2
	c2.2-0.6,3.6-2.4,3.5-4.4c-0.1-2.1-1.5-3.8-3.8-4.2c-1.1-0.2-2.3-0.2-3.5-0.2c-38.5,0-77,0.1-115.5,0.1c-1,0-2,0-2.9,0.1
	c-2.3,0.3-3.8,1.9-4,4c-0.2,2.1,1.3,4.2,3.6,4.6c1,0.2,2.1,0.2,3.2,0.2C226,215,245.2,215,264.4,215z M269.4,180.4
	C269.4,180.4,269.4,180.5,269.4,180.4c-19.5,0-39,0-58.5,0.1c-1.2,0-2.3-0.1-3.5,0.3c-2,0.8-3.2,2.4-3,4.5c0.1,2,1.6,3.6,3.7,4
	c1,0.2,2.1,0.2,3.2,0.2c38.7,0,77.4,0,116.1-0.1c0.9,0,1.8,0,2.6-0.1c2.4-0.3,4-2,4-4.3c0.1-2.2-1.5-4.1-3.8-4.5
	c-1-0.2-1.9-0.1-2.9-0.1C308,180.4,288.7,180.4,269.4,180.4z M273.9,228.1C273.9,228,273.9,228,273.9,228.1
	c19.3-0.1,38.6-0.1,57.9-0.1c1.2,0,2.4,0,3.5-0.2c1.9-0.4,3.3-2,3.4-3.9c0.2-2-0.8-3.6-2.7-4.4c-1-0.5-2.1-0.4-3.2-0.4
	c-39.3,0-78.6,0-117.8,0c-1,0-1.9,0-2.9,0.3c-2,0.8-3.2,2.4-3,4.5c0.1,2,1.6,3.6,3.7,4c1.1,0.2,2.3,0.2,3.5,0.2
	C235.5,228.1,254.7,228.1,273.9,228.1z"/>
<path class="st1" d="M475.6,349c-3,0.4-6.1,0.7-9.2,1.1c-15.2,2-29.2,7.6-41.9,16.1c-2.3,1.5-4.5,2.2-7.2,2.2
	c-26.6-0.1-53.3-0.1-79.9-0.1c-75.9,0-151.8-0.1-227.7-0.1c-1.2,0-2.4-0.1-3.5,0.1c-2.3,0.3-4,2.1-4,4.3c0,2.2,1.6,4.1,3.9,4.4
	c1.2,0.2,2.3,0.1,3.5,0.1c99,0,198.1,0.1,297.1,0.1c1.1,0,2.3,0,4.1,0c-1.6,1.8-2.9,3.1-4.1,4.4c-0.4,0.5-1,0.6-1.6,0.6
	c-0.9,0-1.8,0-2.6,0c-102.7,0-205.5,0-308.2,0c-1.3,0-2.5-0.1-3.8,0.1c-2.2,0.3-3.8,1.9-3.9,4.1c-0.1,2.3,1.3,4.2,3.6,4.6
	c1.2,0.2,2.5,0.1,3.8,0.1c100.4,0,200.8,0,301.2,0c1.1,0,2.3,0,3.8,0c-1.6,2.6-3,4.8-4.3,7c-0.4,0.6-0.9,0.6-1.5,0.5
	c-2.2-0.5-4.5-0.3-6.7-0.3c-97,0-194,0-290.9,0c-5.3,0-10.5-0.3-15.7-1.5c-1.9-0.5-3.7-1.2-5.4-2.2c-4-2.4-5-5.8-2.8-10
	c0.8-1.5,1.8-2.8,2.9-4c14.2-16.2,28.5-32.4,42.7-48.6c1.3-1.5,2.6-1.9,4.5-1.9c54.4,0,108.9,0,163.3,0c57.2,0,114.3,0,171.5-0.1
	c2.3,0,3.8,0.7,5.2,2.4c4.2,5,8.6,9.9,12.8,14.8C475,347.9,475.6,348.2,475.6,349z"/>
<path class="st1" d="M468.2,154.5c-26.3,34.3-52.5,68.5-78.9,102.9c-5-3.9-9.9-7.7-14.9-11.7c2.1-2.7,4.1-5.3,6-7.8
	c23.9-30.8,47.7-61.7,71.6-92.5c0.4-0.5,0.7-0.9,1.1-1.4c0.5-0.7,1.1-0.7,1.7-0.2C459.3,147.3,463.7,150.8,468.2,154.5z"/>
<path class="st1" d="M480.2,134.6c-0.2,4-2.5,8-6.2,11.4c-0.7,0.7-1.3,0.6-2,0c-3.8-3-7.6-6-11.4-9c-0.6-0.4-1-0.8-0.5-1.7
	c2.6-4.3,5.9-7.7,10.9-9C476.5,124.9,480.2,127.9,480.2,134.6z"/>
<path class="st1" d="M382,263.1c-4.9,2.7-9.4,5.3-14.4,8.1c1.3-5.7,2.5-10.9,3.8-16.5C375,257.6,378.4,260.3,382,263.1z"/>
<path class="st0" d="M299.4,248.4c-4.5,2.9-8.1,6.7-11.5,10.7c-7.2,8.4-13.7,17.2-20.2,26.1c-1.8,2.4-3.7,4.8-5.7,7
	c-0.6,0.6-1.2,1.3-2,1.7c-1.6,0.9-3.3,0.7-4.6-0.5c-1.2-1.1-1.6-3-0.9-4.6c0.1-0.3,0.3-0.5,0.4-0.8c6.1-7.1,10.5-15.5,16.3-22.8
	c4.9-6.2,9.7-12.5,15.3-18.1c2.9-2.9,6.1-5.5,9.4-7.9c2.1-1.5,4.3-2.6,6.8-3.3c4.8-1.2,8.6,1.9,8.4,6.9c-0.1,2.6-1.1,4.9-2.3,7.2
	c-1.8,3.6-4.1,6.9-6.4,10.1c-3.9,5.3-7.8,10.7-11.7,16.1c-0.2,0.2-0.2,0.5-0.3,0.8c1.2,0.8,1.9-0.2,2.6-0.6
	c4.2-2.7,8.4-5.4,12.5-8.2c3.8-2.6,7.8-4.8,12-6.7c0.9-0.4,1.8-0.8,2.7-1.1c2.4-0.7,4.7-0.7,6.6,1.1c2,1.9,2.1,4.3,1.4,6.8
	c-0.9,3.2-2.5,6.1-4.2,9c-1.7,2.7-3.6,5.3-4.8,8.3c-0.3,0.6-0.7,1.2-0.6,2.1c1.4,0.5,2.6-0.2,3.8-0.7c4.6-1.9,9.1-3.9,13.6-6
	c1.3-0.6,2.5-1,3.9-0.8c1.8,0.2,3,1.3,3.7,2.9c0.6,1.7,0.1,3.6-1.3,4.8c-0.6,0.5-1.3,0.8-2,1.1c-4.6,2-9.3,4-13.9,6
	c-2.2,1-4.6,1.6-7,2c-1.5,0.3-3.1,0.2-4.6-0.3c-3.8-1.2-5.8-4-5.6-7.9c0.2-3.6,1.7-6.8,3.4-9.9c1.2-2.1,2.5-4.1,4.1-6.8
	c-2.2,0.8-3.6,1.8-5,2.8c-3.7,2.5-7.4,5-11.2,7.5c-2.9,1.9-6,3.7-9.2,5.1c-0.5,0.2-1.1,0.5-1.6,0.7c-2.9,1.1-5.8,1.3-8.2-1
	c-2.4-2.2-2.4-4.9-1.6-7.9c1.1-4,3.1-7.6,5.5-10.9c3.3-4.6,6.7-9.1,10-13.7C296.9,253,298.4,250.9,299.4,248.4z"/>
<path class="st0" d="M272.8,164c-19.4,0-38.8,0-58.2,0c-1.2,0-2.3,0.1-3.5-0.3c-2.2-0.7-3.4-2.5-3.2-4.6c0.2-2,1.6-3.6,3.7-3.9
	c1-0.2,1.9-0.1,2.9-0.1c38.7,0,77.4-0.1,116.1-0.1c1.2,0,2.3,0,3.5,0.3c2,0.5,3.2,2,3.4,3.9c0.1,2.1-1,3.7-3,4.5
	c-1.2,0.5-2.5,0.4-3.8,0.4C311.4,164,292.1,164,272.8,164C272.8,164,272.8,164,272.8,164z"/>
<path class="st0" d="M260.1,176.3c-19.3,0-38.6,0-57.9,0c-1.2,0-2.3,0.1-3.5-0.2c-2.1-0.7-3.5-2.5-3.4-4.6c0.2-2.1,1.7-3.7,4-4
	c1-0.1,1.9-0.1,2.9-0.1c38.5,0,77-0.1,115.5-0.1c1.2,0,2.4,0,3.5,0.2c2.3,0.4,3.7,2.1,3.8,4.2c0.1,2.1-1.3,3.8-3.5,4.4
	c-1.2,0.3-2.3,0.2-3.5,0.2C298.7,176.3,279.4,176.3,260.1,176.3C260.1,176.3,260.1,176.3,260.1,176.3z"/>
<path class="st0" d="M277.5,193.6c19.1,0,38.2,0,57.3,0c1.2,0,2.4,0,3.5,0.2c2.3,0.4,3.8,2,3.9,4.1c0.1,2.3-1.3,4.1-3.7,4.6
	c-0.8,0.2-1.7,0.2-2.6,0.2c-39,0-78,0-117,0c-1.2,0-2.3,0.1-3.5-0.4c-2-0.8-3.1-2.5-2.9-4.6c0.2-1.9,1.5-3.4,3.5-3.8
	c1.1-0.2,2.3-0.2,3.5-0.2c19.3,0,38.6,0,57.9,0C277.5,193.6,277.5,193.6,277.5,193.6z"/>
<path class="st0" d="M264.4,215c-19.2,0-38.4,0-57.6,0c-1.1,0-2.2,0-3.2-0.2c-2.3-0.5-3.8-2.5-3.6-4.6c0.2-2.1,1.7-3.7,4-4
	c1-0.1,1.9-0.1,2.9-0.1c38.5,0,77-0.1,115.5-0.1c1.2,0,2.4,0,3.5,0.2c2.2,0.4,3.7,2.1,3.8,4.2c0.1,2.1-1.3,3.8-3.5,4.4
	c-1.2,0.3-2.3,0.2-3.5,0.2C303.2,214.9,283.8,214.9,264.4,215C264.4,214.9,264.4,214.9,264.4,215z"/>
<path class="st0" d="M269.4,180.4c19.3,0,38.6,0,57.9,0c1,0,2-0.1,2.9,0.1c2.3,0.4,3.8,2.3,3.8,4.5c-0.1,2.2-1.6,4-4,4.3
	c-0.9,0.1-1.8,0.1-2.6,0.1c-38.7,0-77.4,0-116.1,0.1c-1.1,0-2.2,0-3.2-0.2c-2.1-0.3-3.5-2-3.7-4c-0.1-2.1,1-3.7,3-4.5
	c1.1-0.4,2.3-0.3,3.5-0.3C230.4,180.5,249.9,180.5,269.4,180.4C269.4,180.5,269.4,180.4,269.4,180.4z"/>
<path class="st0" d="M273.9,228.1c-19.2,0-38.4,0-57.6,0c-1.2,0-2.4,0-3.5-0.2c-2.1-0.3-3.5-2-3.7-4c-0.1-2.1,1-3.7,3-4.5
	c0.9-0.4,1.9-0.3,2.9-0.3c39.3,0,78.6,0,117.8,0c1.1,0,2.1,0,3.2,0.4c1.8,0.9,2.8,2.5,2.7,4.4c-0.2,1.9-1.5,3.5-3.4,3.9
	c-1.1,0.2-2.3,0.2-3.5,0.2C312.5,228,293.2,228,273.9,228.1C273.9,228,273.9,228,273.9,228.1z"/>
<path class="st2" d="M475.5,372.9c40.7,0,70.4,25.2,76,60.1c5,31.3-12.1,63.4-41.2,77c-27.6,12.9-59.7,7.9-81.2-12.7
	c-26.1-25.1-29.4-65.9-7.3-94.8C436.6,383.1,456.5,373.5,475.5,372.9z M480.8,381.9c-35.4,0-64.5,28.8-64.5,64
	c-0.1,34.6,27.8,62.3,62.6,62.3c35.3,0,64.5-29,64.4-64.2C543.3,409.7,515.4,381.9,480.8,381.9z"/>
<path class="st2" d="M507,443.5c4.3,4.4,8.5,8.7,12.6,12.9c1.4,1.5,2.8,3,4,4.6c1.7,2.3,1.8,4.6,0.4,7.1c-0.7,1.2-1.4,2.3-2.4,3.3
	c-4.9,4.9-9.8,9.8-14.7,14.6c-3.3,3.3-5.7,3.5-9.7,1c-1.8-1.1-3.3-2.4-4.7-3.9c-4.2-4.2-8.4-8.4-12.6-12.5c-1.2,0.4-1.8,1.4-2.6,2.1
	c-4.2,4.2-8.3,8.5-12.5,12.7c-0.7,0.8-1.6,1.4-2.5,2c-1.9,1.3-4,1.4-6.1,0.4c-1.4-0.7-2.7-1.5-3.8-2.6c-4.9-4.9-9.9-9.7-14.8-14.6
	c-3.2-3.2-3.5-5.5-1.2-9.4c1-1.8,2.3-3.3,3.8-4.8c3.6-3.7,7.2-7.4,10.8-11.1c2.1-2.2,2.5-1.7-0.1-4.2c-4.2-4.1-8.3-8.2-12.5-12.3
	c-0.1-0.1-0.3-0.3-0.4-0.4c-3.8-4.3-4-7.6,0-11.8c5.1-5.4,10.3-10.6,15.6-15.8c2.6-2.6,5-2.7,8.2-0.9c2,1.1,3.7,2.5,5.3,4
	c3.9,3.8,7.8,7.6,11.7,11.5c1,1,1.6,1,2.6,0c4-4.2,8-8.2,12.1-12.3c1.5-1.5,3-3,4.8-4.2c2-1.4,4.2-1.5,6.4-0.4
	c1.3,0.6,2.5,1.4,3.6,2.5c5,4.9,10,9.8,15,14.8c3.1,3.1,3.4,5.4,1.2,9.2c-1.1,1.9-2.5,3.5-4,5C516,434.3,511.6,438.9,507,443.5z
	 M458.8,477.7c1.1-0.1,2-0.8,2.7-1.6c1.8-1.8,3.5-3.6,5.3-5.4c3-3.1,5.9-6.2,9-9.2c2.4-2.3,4.3-2.5,7-0.5c1.1,0.8,2.1,1.7,3.1,2.7
	c4.2,4.2,8.4,8.4,12.7,12.6c2.2,2.2,3.3,2.2,5.4,0.1c2.9-2.9,5.8-5.7,8.7-8.7c2-2.1,2-3.1,0.1-5.2c-1.7-1.9-3.6-3.6-5.4-5.4
	c-3-3-6.1-6-9.1-9.1c-2.3-2.4-2.3-3.9-0.7-6.8c1-1.7,2.2-3.2,3.6-4.6c3.9-3.9,7.8-7.9,11.7-11.9c0.5-0.5,1-1,1.4-1.5
	c1.1-1.5,1.1-2.6-0.2-3.9c-3.2-3.3-6.5-6.5-9.8-9.7c-1.5-1.4-2.5-1.4-4.1-0.1c-0.7,0.5-1.3,1.2-1.9,1.8c-4.2,4.3-8.4,8.6-12.7,12.9
	c-3.2,3.3-7,3.3-10.3,0.1c-4.3-4.1-8.5-8.3-12.8-12.4c-0.6-0.5-1.1-1.1-1.7-1.6c-1.5-1.1-2.5-1.1-3.9,0.2c-3.3,3.2-6.5,6.5-9.6,9.8
	c-1.4,1.5-1.4,2.5-0.1,4.1c0.5,0.6,1.1,1.1,1.6,1.7c4.4,4.3,8.8,8.6,13.2,12.9c3,3,3.1,5.2,0.1,8.3c-3.6,3.7-7.2,7.4-10.8,11.1
	c-1.4,1.4-2.8,2.7-4.1,4.2c-1.5,1.7-1.5,2.9-0.1,4.3c3.2,3.3,6.5,6.4,9.8,9.6C457.3,477.2,457.9,477.6,458.8,477.7z"/>
<path class="st3" d="M100,187.2l11.5,11.5c2.7,2.7,7.1,2.7,9.9,0l11.5-11.5c2.7-2.7,2.7-7.1,0-9.9l-11.5-11.5
	c-2.7-2.7-7.1-2.7-9.9,0L100,177.3C97.3,180,97.3,184.4,100,187.2z"/>
<path class="st3" d="M100,220.6l11.5,11.5c2.7,2.7,7.1,2.7,9.9,0l11.5-11.5c2.7-2.7,2.7-7.1,0-9.9l-11.5-11.5
	c-2.7-2.7-7.1-2.7-9.9,0L100,210.8C97.3,213.5,97.3,217.9,100,220.6z"/>
<path class="st2" d="M405.3,515.3l9,9c1.3,1.3,3.5,1.3,4.8,0l9-9c1.3-1.3,1.3-3.5,0-4.8l-9-9c-1.3-1.3-3.5-1.3-4.8,0l-9,9
	C404,511.8,404,513.9,405.3,515.3z"/>
<circle class="st4" cx="478.8" cy="444.8" r="91.5"/>
</svg>
